<?xml version="1.0" encoding="UTF-8" standalone="no"?>
<!-- Created with Inkscape (http://www.inkscape.org/) -->

<svg
   version="1.1"
   id="svg1"
   width="42.567619"
   height="82.088326"
   viewBox="0 0 42.567619 82.088326"
   sodipodi:docname="crazy'.svg"
   inkscape:version="1.2.2 (732a01da63, 2022-12-09)"
   xmlns:inkscape="http://www.inkscape.org/namespaces/inkscape"
   xmlns:sodipodi="http://sodipodi.sourceforge.net/DTD/sodipodi-0.dtd"
   xmlns="http://www.w3.org/2000/svg"
   xmlns:svg="http://www.w3.org/2000/svg">
  <defs
     id="defs1">
    <inkscape:path-effect
       effect="bspline"
       id="path-effect4480"
       is_visible="true"
       lpeversion="1"
       weight="33.333333"
       steps="2"
       helper_size="0"
       apply_no_weight="true"
       apply_with_weight="true"
       only_selected="false" />
    <inkscape:path-effect
       effect="bspline"
       id="path-effect616"
       is_visible="true"
       lpeversion="1"
       weight="33.333333"
       steps="2"
       helper_size="0"
       apply_no_weight="true"
       apply_with_weight="true"
       only_selected="false" />
    <clipPath
       clipPathUnits="userSpaceOnUse"
       id="clipPath1381">
      <path
         id="path1383"
         style="fill:#463825;fill-opacity:1;stroke-width:0.109145;stroke-opacity:0.98017"
         d="m 320.44049,-233.70089 c -3.19488,0.6072 -3.06883,2.64229 -3.10195,5.49448 0.73112,13.20542 12.59782,23.5701 26.99449,23.57766 14.54142,-0.008 26.47325,-10.57478 27.01065,-23.92108 0.0342,-2.88215 -1.07186,-5.08893 -3.34434,-5.15106 z"
         sodipodi:nodetypes="cccccc" />
    </clipPath>
    <clipPath
       clipPathUnits="userSpaceOnUse"
       id="clipPath1377">
      <path
         id="path1379"
         style="fill:#463825;fill-opacity:1;stroke-width:0.109145;stroke-opacity:0.98017"
         d="m 320.44049,-233.70089 c -3.19488,0.6072 -3.06883,2.64229 -3.10195,5.49448 0.73112,13.20542 12.59782,23.5701 26.99449,23.57766 14.54142,-0.008 26.47325,-10.57478 27.01065,-23.92108 0.0342,-2.88215 -1.07186,-5.08893 -3.34434,-5.15106 z"
         sodipodi:nodetypes="cccccc" />
    </clipPath>
    <clipPath
       clipPathUnits="userSpaceOnUse"
       id="clipPath1373">
      <path
         id="path1375"
         style="fill:#463825;fill-opacity:1;stroke-width:0.109145;stroke-opacity:0.98017"
         d="m 320.44049,-233.70089 c -3.19488,0.6072 -3.06883,2.64229 -3.10195,5.49448 0.73112,13.20542 12.59782,23.5701 26.99449,23.57766 14.54142,-0.008 26.47325,-10.57478 27.01065,-23.92108 0.0342,-2.88215 -1.07186,-5.08893 -3.34434,-5.15106 z"
         sodipodi:nodetypes="cccccc" />
    </clipPath>
    <inkscape:path-effect
       effect="bspline"
       id="path-effect1927"
       is_visible="true"
       lpeversion="1"
       weight="33.333333"
       steps="2"
       helper_size="0"
       apply_no_weight="true"
       apply_with_weight="true"
       only_selected="false" />
    <inkscape:path-effect
       effect="bspline"
       id="path-effect3881"
       is_visible="true"
       lpeversion="1"
       weight="33.333333"
       steps="2"
       helper_size="0"
       apply_no_weight="true"
       apply_with_weight="true"
       only_selected="false" />
    <inkscape:path-effect
       effect="bspline"
       id="path-effect4422"
       is_visible="true"
       lpeversion="1"
       weight="33.333333"
       steps="2"
       helper_size="0"
       apply_no_weight="true"
       apply_with_weight="true"
       only_selected="false" />
  </defs>
  <sodipodi:namedview
     id="namedview1"
     pagecolor="#ffffff"
     bordercolor="#cccccc"
     borderopacity="1"
     inkscape:showpageshadow="0"
     inkscape:pageopacity="1"
     inkscape:pagecheckerboard="0"
     inkscape:deskcolor="#d1d1d1"
     showgrid="false"
     inkscape:zoom="1.3125"
     inkscape:cx="31.238095"
     inkscape:cy="80"
     inkscape:window-width="1366"
     inkscape:window-height="705"
     inkscape:window-x="-8"
     inkscape:window-y="-8"
     inkscape:window-maximized="1"
     inkscape:current-layer="g1" />
  <g
     inkscape:groupmode="layer"
     inkscape:label="Image"
     id="g1"
     transform="translate(-381.27734,-120.47965)">
    <g
       id="g2283"
       transform="matrix(0.58808575,0,0,0.58808575,245.24193,314.92254)"
       style="display:inline">
      <path
         style="opacity:0.986139;fill:none;fill-opacity:1;stroke:#403425;stroke-width:2;stroke-dasharray:none;stroke-opacity:1"
         d="m 237.90405,-316.82507 c -3.11112,-0.32997 -6.22257,-0.65997 -5.46822,0.18868 0.75435,0.84865 5.37425,2.87574 9.99395,4.90275"
         id="path4478"
         inkscape:original-d="m 237.90405,-316.82507 c -3.11115,-0.32973 -6.2226,-0.65973 -9.33429,-0.99 4.62037,2.02745 9.24026,4.05455 13.86002,6.08143"
         inkscape:path-effect="#path-effect4480" />
      <path
         style="fill:none;stroke:#403425;stroke-width:2;stroke-dasharray:none;stroke-opacity:1"
         d="m 296.87323,-316.9173 c 1.89665,-0.12963 3.79305,-0.25924 4.89127,-0.32404 1.09821,-0.0648 1.39822,-0.0648 -0.052,0.85191 -1.45019,0.91671 -4.6503,2.7501 -6.36708,3.76683 -1.71679,1.01673 -1.95012,1.21673 -2.1835,1.41677"
         id="path614"
         inkscape:original-d="m 296.87323,-316.9173 c 1.89667,-0.12935 3.79307,-0.25896 5.68921,-0.38884 0.30027,2.7e-4 0.60028,2.7e-4 0.90006,0 -3.19998,1.83373 -6.40009,3.66712 -9.60052,5.50028 -0.23307,0.20028 -0.4664,0.40029 -0.70003,0.60003"
         inkscape:path-effect="#path-effect616" />
      <path
         id="path2431"
         style="fill:#f6ca4b;fill-opacity:1;stroke-width:0.0951335;stroke-opacity:0.98017"
         d="m 233.921,-299.08201 h -0.0703 v 1.79219 106.23849 h 67.31994 v -106.23849 -1.79219 h -0.0543 c -7.83536,-41.79262 -60.03789,-42.35302 -67.19536,0 z"
         sodipodi:nodetypes="ccccccccc" />
      <path
         id="path595"
         style="fill:#463825;fill-opacity:1;stroke-width:0.109145;stroke-opacity:0.98017"
         d="m 320.44049,-233.70089 c -3.19488,0.6072 -3.06883,2.64229 -3.10195,5.49448 0.73112,13.20542 12.59781,23.5701 26.99449,23.57766 14.54141,-0.008 26.47324,-10.57478 27.01064,-23.92108 0.0342,-2.88215 -1.07185,-5.08893 -3.34433,-5.15106 z"
         sodipodi:nodetypes="cccccc"
         clip-path="url(#clipPath1381)"
         transform="matrix(0.65601053,0,0,0.65601053,39.887916,-136.96207)" />
      <rect
         style="fill:#ffffff;fill-opacity:1;stroke:none;stroke-width:0.880347;stroke-dasharray:none"
         id="rect678"
         width="9.6455698"
         height="24.891426"
         x="346.1651"
         y="-246.11909"
         ry="6.2228565"
         clip-path="url(#clipPath1377)"
         transform="matrix(0.54376435,0,0,0.54376435,78.566552,-163.1941)"
         rx="6.2228565" />
      <rect
         style="fill:#ffffff;fill-opacity:1;stroke:none;stroke-width:0.880347;stroke-dasharray:none"
         id="rect1369"
         width="9.6455698"
         height="24.891426"
         x="333.36444"
         y="-246.11909"
         ry="6.2228565"
         clip-path="url(#clipPath1373)"
         transform="matrix(0.54376435,0,0,0.54376435,78.566552,-163.1941)"
         rx="6.2228565" />
      <path
         style="fill:#463825;fill-opacity:1;stroke:none;stroke-width:0.779421;stroke-dasharray:none"
         id="path1453"
         sodipodi:type="arc"
         sodipodi:cx="-283.59735"
         sodipodi:cy="302.56454"
         sodipodi:rx="4.2998991"
         sodipodi:ry="5.6066604"
         sodipodi:start="0"
         sodipodi:end="3.1156553"
         sodipodi:open="true"
         sodipodi:arc-type="arc"
         d="m -279.29745,302.56454 a 4.2998991,5.6066604 0 0 1 -4.24414,5.60619 4.2998991,5.6066604 0 0 1 -4.35421,-5.46078"
         transform="scale(-1)" />
      <path
         style="fill:#463825;fill-opacity:1;stroke:none;stroke-width:0.734633;stroke-dasharray:none"
         id="path1869"
         sodipodi:type="arc"
         sodipodi:cx="-252.14867"
         sodipodi:cy="302.48672"
         sodipodi:rx="4.0528107"
         sodipodi:ry="5.2844806"
         sodipodi:start="0"
         sodipodi:end="3.1156553"
         sodipodi:open="true"
         sodipodi:arc-type="arc"
         d="m -248.09586,302.48672 a 4.0528107,5.2844806 0 0 1 -4.00025,5.28404 4.0528107,5.2844806 0 0 1 -4.104,-5.14699"
         transform="scale(-1)" />
      <path
         style="fill:#84b2a1;fill-opacity:0.608051;stroke:#403425;stroke-width:2;stroke-dasharray:none;stroke-opacity:1"
         d="m 240.07268,-319.01723 c 0.68362,-0.49503 1.48504,-0.91931 2.28653,-1.20217 0.8015,-0.28285 1.60292,-0.42427 2.61653,-0.44781 1.01362,-0.0235 2.2393,0.0707 3.44145,0.0943 1.20215,0.0236 2.38068,-0.0236 3.795,0.0236 1.41432,0.0472 3.06428,0.18859 4.47859,0.70727 1.41431,0.51868 2.59285,1.41437 3.44135,2.42801 0.84851,1.01363 1.36707,2.14504 1.72059,3.20575 0.35353,1.06071 0.54211,2.0507 0.49492,3.13494 -0.0472,1.08424 -0.33005,2.26279 -0.80149,3.60634 -0.47144,1.34356 -1.13143,2.85209 -2.12141,4.17203 -0.98998,1.31994 -2.30996,2.45135 -3.6299,3.25276 -1.31995,0.80141 -2.63993,1.27283 -4.03061,1.55571 -1.39067,0.28288 -2.85208,0.37717 -4.19562,0.25936 -1.34355,-0.11781 -2.56924,-0.4478 -3.95997,-1.10775 -1.39073,-0.65996 -2.94643,-1.64995 -4.00722,-2.75776 -1.06079,-1.10781 -1.6265,-2.3335 -2.09795,-3.53566 -0.47146,-1.20215 -0.84859,-2.38069 -1.03722,-3.53573 -0.18862,-1.15504 -0.18862,-2.28644 -0.0708,-3.3472 0.11783,-1.06076 0.35355,-2.05074 0.68355,-2.85225 0.33001,-0.8015 0.75429,-1.41435 1.24931,-2.00366 0.49502,-0.58932 1.06072,-1.15502 1.74435,-1.65005 z"
         id="path1925"
         inkscape:original-d="m 239.95478,-319.08792 c 0.80169,-0.42402 1.60311,-0.84831 2.40427,-1.27286 0.80171,-0.14116 1.60313,-0.28259 2.40429,-0.42428 1.226,0.0946 2.45168,0.18883 3.67713,0.28285 1.17888,-0.0469 2.35741,-0.094 3.53573,-0.14142 1.65029,0.14169 3.30025,0.28312 4.94998,0.42428 1.17888,0.896 2.35742,1.79169 3.53574,2.68715 0.51885,1.13171 1.0374,2.26312 1.55569,3.39428 0.18886,0.99028 0.37743,1.98027 0.56574,2.97 -0.2826,1.17886 -0.56547,2.35741 -0.84857,3.53571 -0.65977,1.50887 -1.31975,3.01741 -1.98001,4.52572 -1.31977,1.13171 -2.63975,2.26312 -3.96,3.39428 -1.31976,0.47171 -2.63974,0.94313 -3.96002,1.41429 -1.46118,0.0945 -2.92258,0.18884 -4.38427,0.28286 -1.22547,-0.32974 -2.45116,-0.65974 -3.67716,-0.99 -1.55545,-0.98976 -3.11115,-1.97974 -4.66711,-2.97 -0.56547,-1.22548 -1.13118,-2.45117 -1.69715,-3.67715 -0.3769,-1.17833 -0.75403,-2.35687 -1.13143,-3.53571 2.6e-4,-1.13119 2.6e-4,-2.26259 0,-3.39429 0.23598,-0.98975 0.47169,-1.97973 0.70715,-2.97 0.42455,-0.6126 0.84883,-1.22545 1.27285,-1.83857 0.56598,-0.56546 1.13168,-1.13116 1.69715,-1.69714 z"
         inkscape:path-effect="#path-effect1927" />
      <path
         style="fill:#ef8954;fill-opacity:0.627119;stroke:#403425;stroke-width:2;stroke-dasharray:none;stroke-opacity:1"
         d="m 294.51916,-319.01723 c -0.68362,-0.49503 -1.48504,-0.91931 -2.28653,-1.20217 -0.8015,-0.28285 -1.60292,-0.42427 -2.61653,-0.44781 -1.01362,-0.0235 -2.2393,0.0707 -3.44145,0.0943 -1.20215,0.0236 -2.38068,-0.0236 -3.795,0.0236 -1.41432,0.0472 -3.06428,0.18859 -4.47859,0.70727 -1.41431,0.51868 -2.59285,1.41437 -3.44135,2.42801 -0.84851,1.01363 -1.36707,2.14504 -1.72059,3.20575 -0.35353,1.06071 -0.54211,2.0507 -0.49492,3.13494 0.0472,1.08424 0.33005,2.26279 0.80149,3.60634 0.47144,1.34356 1.13143,2.85209 2.12141,4.17203 0.98998,1.31994 2.30996,2.45135 3.6299,3.25276 1.31995,0.80141 2.63993,1.27283 4.03061,1.55571 1.39067,0.28288 2.85208,0.37717 4.19562,0.25936 1.34355,-0.11781 2.56924,-0.4478 3.95997,-1.10775 1.39073,-0.65996 2.94643,-1.64995 4.00722,-2.75776 1.06079,-1.10781 1.6265,-2.3335 2.09795,-3.53566 0.47146,-1.20215 0.84859,-2.38069 1.03722,-3.53573 0.18862,-1.15504 0.18862,-2.28644 0.0708,-3.3472 -0.11783,-1.06076 -0.35355,-2.05074 -0.68355,-2.85225 -0.33001,-0.8015 -0.75429,-1.41435 -1.24931,-2.00366 -0.49502,-0.58932 -1.06072,-1.15502 -1.74435,-1.65005 z"
         id="path3877"
         inkscape:original-d="m 294.63706,-319.08792 c -0.80169,-0.42402 -1.60311,-0.84831 -2.40427,-1.27286 -0.80171,-0.14116 -1.60313,-0.28259 -2.40429,-0.42428 -1.226,0.0946 -2.45168,0.18883 -3.67713,0.28285 -1.17888,-0.0469 -2.35741,-0.094 -3.53573,-0.14142 -1.65029,0.14169 -3.30025,0.28312 -4.94998,0.42428 -1.17888,0.896 -2.35742,1.79169 -3.53574,2.68715 -0.51885,1.13171 -1.0374,2.26312 -1.55569,3.39428 -0.18886,0.99028 -0.37743,1.98027 -0.56574,2.97 0.2826,1.17886 0.56547,2.35741 0.84857,3.53571 0.65977,1.50887 1.31975,3.01741 1.98001,4.52572 1.31977,1.13171 2.63975,2.26312 3.96,3.39428 1.31976,0.47171 2.63974,0.94313 3.96002,1.41429 1.46118,0.0945 2.92258,0.18884 4.38427,0.28286 1.22547,-0.32974 2.45116,-0.65974 3.67716,-0.99 1.55545,-0.98976 3.11115,-1.97974 4.66711,-2.97 0.56547,-1.22548 1.13118,-2.45117 1.69715,-3.67715 0.3769,-1.17833 0.75403,-2.35687 1.13143,-3.53571 -2.6e-4,-1.13119 -2.6e-4,-2.26259 0,-3.39429 -0.23598,-0.98975 -0.47169,-1.97973 -0.70715,-2.97 -0.42455,-0.6126 -0.84883,-1.22545 -1.27285,-1.83857 -0.56598,-0.56546 -1.13168,-1.13116 -1.69715,-1.69714 z"
         inkscape:path-effect="#path-effect3881" />
      <path
         style="fill:none;fill-opacity:1;stroke:#403425;stroke-width:2.20564;stroke-dasharray:none;stroke-opacity:1"
         d="m 262.64251,-311.86311 c 1.40379,-0.98785 2.80752,-1.97566 4.39339,-2.05353 1.58587,-0.0779 3.35349,0.75395 5.12082,1.58563"
         id="path4420"
         inkscape:original-d="m 262.64251,-311.86311 c 1.40402,-0.98752 2.80776,-1.97532 4.2112,-2.96343 1.768,0.83216 3.53562,1.66398 5.30301,2.49553"
         inkscape:path-effect="#path-effect4422" />
      <rect
         style="fill:none;fill-opacity:0.114407;stroke:#ffffff;stroke-width:1.53491;stroke-dasharray:none;stroke-opacity:0.563559"
         id="rect4534"
         width="7.9735031"
         height="0.71510959"
         x="246.95285"
         y="-314.43628"
         ry="0.35755479"
         rx="0.35755479" />
      <rect
         style="fill:#ffffff;fill-opacity:0.45;stroke:none;stroke-width:1.61062;stroke-dasharray:none;stroke-opacity:0.563559"
         id="rect5294"
         width="3.5642784"
         height="1.7614449"
         x="241.32944"
         y="-315.15942"
         ry="0.88072246"
         rx="0.88072246" />
      <rect
         style="fill:none;fill-opacity:0.114407;stroke:#ffffff;stroke-width:1.53491;stroke-dasharray:none;stroke-opacity:0.563559"
         id="rect5296"
         width="7.9735031"
         height="0.71510959"
         x="-287.1723"
         y="-317.23642"
         ry="0.35755479"
         transform="scale(-1,1)"
         rx="0.35755479" />
      <rect
         style="fill:#ffffff;fill-opacity:0.45;stroke:none;stroke-width:1.61062;stroke-dasharray:none;stroke-opacity:0.563559"
         id="rect5298"
         width="3.5642784"
         height="1.7614449"
         x="-292.79572"
         y="-317.95956"
         ry="0.88072246"
         transform="scale(-1,1)"
         rx="0.88072246" />
    </g>
  </g>
</svg>
