<?xml version="1.0" encoding="UTF-8" standalone="no"?>
<!-- Created with Inkscape (http://www.inkscape.org/) -->

<svg
   version="1.1"
   id="svg1"
   width="36.204994"
   height="72.69265"
   viewBox="0 0 36.204994 72.69265"
   sodipodi:docname="frown.svg"
   inkscape:version="1.2.2 (732a01da63, 2022-12-09)"
   xmlns:inkscape="http://www.inkscape.org/namespaces/inkscape"
   xmlns:sodipodi="http://sodipodi.sourceforge.net/DTD/sodipodi-0.dtd"
   xmlns="http://www.w3.org/2000/svg"
   xmlns:svg="http://www.w3.org/2000/svg">
  <defs
     id="defs1">
    <inkscape:path-effect
       effect="bspline"
       id="path-effect19168"
       is_visible="true"
       lpeversion="1"
       weight="33.333333"
       steps="2"
       helper_size="0"
       apply_no_weight="true"
       apply_with_weight="true"
       only_selected="false" />
    <inkscape:path-effect
       effect="bspline"
       id="path-effect19162"
       is_visible="true"
       lpeversion="1"
       weight="33.333333"
       steps="2"
       helper_size="0"
       apply_no_weight="true"
       apply_with_weight="true"
       only_selected="false" />
    <inkscape:path-effect
       effect="fillet_chamfer"
       id="path-effect7917"
       is_visible="true"
       lpeversion="1"
       nodesatellites_param="F,0,1,1,0,1.2405164,0,1 @ F,0,0,1,0,0,0,1 @ F,0,0,1,0,1.2405164,0,1"
       unit="px"
       method="auto"
       mode="F"
       radius="0"
       chamfer_steps="1"
       flexible="false"
       use_knot_distance="true"
       apply_no_radius="true"
       apply_with_radius="true"
       only_selected="false"
       hide_knots="false" />
    <inkscape:path-effect
       effect="fillet_chamfer"
       id="path-effect1600"
       is_visible="true"
       lpeversion="1"
       nodesatellites_param="F,0,1,1,0,1.2405164,0,1 @ F,0,0,1,0,0,0,1 @ F,0,0,1,0,1.2405164,0,1"
       unit="px"
       method="auto"
       mode="F"
       radius="0"
       chamfer_steps="1"
       flexible="false"
       use_knot_distance="true"
       apply_no_radius="true"
       apply_with_radius="true"
       only_selected="false"
       hide_knots="false" />
    <inkscape:path-effect
       effect="bspline"
       id="path-effect2679"
       is_visible="true"
       lpeversion="1"
       weight="33.333333"
       steps="2"
       helper_size="0"
       apply_no_weight="true"
       apply_with_weight="true"
       only_selected="false" />
    <inkscape:path-effect
       effect="bspline"
       id="path-effect3541"
       is_visible="true"
       lpeversion="1"
       weight="33.333333"
       steps="2"
       helper_size="0"
       apply_no_weight="true"
       apply_with_weight="true"
       only_selected="false" />
    <clipPath
       clipPathUnits="userSpaceOnUse"
       id="clipPath9827">
      <path
         id="path9829"
         style="opacity:1;fill:#2d2418;fill-opacity:1;stroke-width:0.171146"
         d="m 317.05393,-1207.7855 c -0.0292,0.1809 -0.045,1.4755 -0.045,1.6649 v 2.9724 c 0,1.9067 1.53502,3.4417 3.44165,3.4417 h 0.28525 c 1.90663,0 3.44165,-1.535 3.44165,-3.4417 v -2.9724 c 0,-0.1807 -0.0142,-1.4671 -0.0408,-1.6401 h -6.91689 c -0.0578,0 -0.11346,-0.01 -0.16588,-0.025 z"
         sodipodi:nodetypes="csssssscscc" />
    </clipPath>
    <clipPath
       clipPathUnits="userSpaceOnUse"
       id="clipPath9823">
      <path
         id="path9825"
         style="opacity:1;fill:#2d2418;fill-opacity:1;stroke-width:0.171146"
         d="m 317.05393,-1207.7855 c -0.0292,0.1809 -0.045,1.4755 -0.045,1.6649 v 2.9724 c 0,1.9067 1.53502,3.4417 3.44165,3.4417 h 0.28525 c 1.90663,0 3.44165,-1.535 3.44165,-3.4417 v -2.9724 c 0,-0.1807 -0.0142,-1.4671 -0.0408,-1.6401 h -6.91689 c -0.0578,0 -0.11346,-0.01 -0.16588,-0.025 z"
         sodipodi:nodetypes="csssssscscc" />
    </clipPath>
    <clipPath
       clipPathUnits="userSpaceOnUse"
       id="clipPath9819">
      <path
         id="path9821"
         style="opacity:1;fill:#2d2418;fill-opacity:1;stroke-width:0.171146"
         d="m 317.05393,-1207.7855 c -0.0292,0.1809 -0.045,1.4755 -0.045,1.6649 v 2.9724 c 0,1.9067 1.53502,3.4417 3.44165,3.4417 h 0.28525 c 1.90663,0 3.44165,-1.535 3.44165,-3.4417 v -2.9724 c 0,-0.1807 -0.0142,-1.4671 -0.0408,-1.6401 h -6.91689 c -0.0578,0 -0.11346,-0.01 -0.16588,-0.025 z"
         sodipodi:nodetypes="csssssscscc" />
    </clipPath>
    <clipPath
       clipPathUnits="userSpaceOnUse"
       id="clipPath9811">
      <path
         id="path9813"
         style="opacity:1;fill:#2d2418;fill-opacity:1;stroke-width:0.171146"
         d="m 317.05393,-1207.7855 c -0.0292,0.1809 -0.045,1.4755 -0.045,1.6649 v 2.9724 c 0,1.9067 1.53502,3.4417 3.44165,3.4417 h 0.28525 c 1.90663,0 3.44165,-1.535 3.44165,-3.4417 v -2.9724 c 0,-0.1807 -0.0142,-1.4671 -0.0408,-1.6401 h -6.91689 c -0.0578,0 -0.11346,-0.01 -0.16588,-0.025 z"
         sodipodi:nodetypes="csssssscscc" />
    </clipPath>
    <clipPath
       clipPathUnits="userSpaceOnUse"
       id="clipPath9815">
      <path
         id="path9817"
         style="opacity:1;fill:#2d2418;fill-opacity:1;stroke-width:0.171146"
         d="m 317.05393,-1207.7855 c -0.0292,0.1809 -0.045,1.4755 -0.045,1.6649 v 2.9724 c 0,1.9067 1.53502,3.4417 3.44165,3.4417 h 0.28525 c 1.90663,0 3.44165,-1.535 3.44165,-3.4417 v -2.9724 c 0,-0.1807 -0.0142,-1.4671 -0.0408,-1.6401 h -6.91689 c -0.0578,0 -0.11346,-0.01 -0.16588,-0.025 z"
         sodipodi:nodetypes="csssssscscc" />
    </clipPath>
    <inkscape:path-effect
       effect="bspline"
       id="path-effect17461"
       is_visible="true"
       lpeversion="1"
       weight="33.333333"
       steps="2"
       helper_size="0"
       apply_no_weight="true"
       apply_with_weight="true"
       only_selected="false" />
  </defs>
  <sodipodi:namedview
     id="namedview1"
     pagecolor="#ffffff"
     bordercolor="#cccccc"
     borderopacity="1"
     inkscape:showpageshadow="0"
     inkscape:pageopacity="1"
     inkscape:pagecheckerboard="0"
     inkscape:deskcolor="#d1d1d1"
     showgrid="false"
     inkscape:zoom="42"
     inkscape:cx="17.214286"
     inkscape:cy="33.119048"
     inkscape:window-width="1366"
     inkscape:window-height="705"
     inkscape:window-x="-8"
     inkscape:window-y="-8"
     inkscape:window-maximized="1"
     inkscape:current-layer="g1" />
  <g
     inkscape:groupmode="layer"
     inkscape:label="Image"
     id="g1"
     transform="translate(-238.6594,-147.27272)">
    <g
       id="g18423"
       transform="matrix(0.64341944,0,0,0.6180168,82.458745,72.123221)">
      <rect
         style="display:inline;fill:#f6ca4b;fill-opacity:1;stroke-width:0.82074"
         id="rect659-4"
         width="55.296879"
         height="83.437035"
         x="243.33556"
         y="155.44461" />
      <path
         id="path736-5"
         style="display:inline;fill:#443825;fill-opacity:1;stroke-width:0.855455"
         d="m 270.98446,127.85601 c -15.26967,0 -27.64822,12.35149 -27.64841,27.5879 h 22.89441 l 4.71746,3.75005 5.29844,-3.75005 h 22.38656 c -1.9e-4,-15.23641 -12.37879,-27.5879 -27.64846,-27.5879 z"
         sodipodi:nodetypes="scccccs" />
      <path
         id="circle16104"
         style="display:inline;fill:#ecf0f1;fill-opacity:1;stroke:none;stroke-width:1.56795;stroke-dasharray:none"
         d="m 256.6576,142.4465 a 3.6742648,2.9063667 62.017442 0 0 -0.18029,0.0756 3.6742648,2.9063667 62.017442 0 0 -0.97364,4.54904 3.6742648,2.9063667 62.017442 0 0 4.26327,2.02053 3.6742648,2.9063667 62.017442 0 0 1.29286,-1.5651 z" />
      <path
         id="path17403"
         style="display:inline;fill:#ecf0f1;fill-opacity:1;stroke:none;stroke-width:1.56795;stroke-dasharray:none"
         d="m 284.73076,142.44461 a 2.9063667,3.6742648 27.982558 0 1 0.18028,0.0794 2.9063667,3.6742648 27.982558 0 1 0.97364,4.54904 2.9063667,3.6742648 27.982558 0 1 -4.26327,2.02053 2.9063667,3.6742648 27.982558 0 1 -1.29286,-1.5651 z" />
      <path
         style="display:inline;fill:#65d0f4;fill-opacity:1;stroke:none;stroke-width:3.53204;stroke-dasharray:none"
         d="m 270.71276,172.93046 c -0.0195,1.95874 -0.0586,5.87546 0.0596,7.98014 0.11823,2.10468 0.39071,2.39522 0.70304,2.41544 0.31234,0.0202 0.66379,-0.22957 0.87856,-0.58324 0.21476,-0.35368 0.2929,-0.81215 0.41009,-1.41632 0.1172,-0.60417 0.27346,-1.354 0.52751,-1.97939 0.25405,-0.62538 0.60556,-1.12516 0.9187,-1.35448 0.31314,-0.22933 0.58675,-0.18774 0.86011,0.0834 0.27337,0.27119 0.54698,0.77122 0.72254,1.56298 0.17555,0.79177 0.25366,1.87499 0.33182,2.66663 0.0782,0.79165 0.15627,1.2917 0.3323,1.77076 0.17603,0.47907 0.44962,0.93752 0.95776,1.1453 0.50813,0.20777 1.25053,0.16619 1.64076,-0.0623 0.39024,-0.2285 0.42931,-0.6454 0.42939,-1.18692 7e-5,-0.54151 -0.039,-1.20824 -0.0936,-2.32774 -0.0547,-1.11951 -0.12516,-2.69816 0.18559,-3.30098 0.31076,-0.60282 1.00162,-0.23399 1.58821,0.59898 0.5866,0.83298 1.06756,2.12351 1.26552,1.30791 0.19796,-0.8156 0.11129,-3.73181 0.11672,-6.00517 0.005,-2.27337 0.10317,-3.89822 0.15695,-4.74172 0.0538,-0.84351 0.0641,-0.90792 -0.13121,-0.58544 -0.19528,0.32248 -0.59575,1.03076 -0.95259,1.52576 -0.35685,0.49499 -0.66878,0.7756 -1.29374,1.09322 -0.62496,0.31763 -1.56269,0.67186 -2.12431,0.87482 -0.56162,0.20296 -0.74787,0.25479 -1.13966,0.29008 -0.39179,0.0353 -0.9893,0.0542 -1.55075,0.005 -0.56145,-0.0496 -1.08616,-0.16798 -1.68018,-0.31552 -0.59402,-0.14755 -1.25736,-0.32436 -1.64465,-0.54502 -0.38728,-0.22067 -0.49759,-0.48542 -0.61817,-0.65869 -0.12058,-0.17328 -0.25287,-0.25455 -0.33618,-0.24598 -0.0833,0.009 -0.11736,0.10301 -0.16065,0.114 -0.0433,0.011 -0.0943,-0.0601 -0.14726,-0.0871 -0.053,-0.027 -0.0928,-0.0107 -0.11643,-0.001 -0.0236,0.01 -0.075,0.01 -0.075,0.01 0,0 -0.001,-0.005 -0.0208,1.95344 z"
         id="path17459"
         inkscape:path-effect="#path-effect17461"
         inkscape:original-d="m 270.73229,170.97172 c -0.0382,3.91749 -0.0775,7.83421 -0.11716,11.7498 0.27439,0.2948 0.54795,0.58432 0.82057,0.87496 0.35263,-0.24945 0.70432,-0.4989 1.05509,-0.74986 0.079,-0.45732 0.15723,-0.91578 0.23434,-1.37499 0.15722,-0.7491 0.31332,-1.49896 0.46888,-2.24995 0.35263,-0.49928 0.70432,-0.99893 1.05506,-1.5001 0.27439,0.0416 0.54799,0.0832 0.82061,0.12473 0.27439,0.50078 0.54799,1.00082 0.82061,1.49971 0.079,1.08473 0.15723,2.16794 0.23433,3.25002 0.079,0.50117 0.15723,1.0012 0.23433,1.50009 0.2744,0.45922 0.548,0.91767 0.82058,1.375 0.74343,-0.0416 1.48584,-0.0831 2.22735,-0.12473 0.0401,-0.41537 0.0794,-0.83225 0.11716,-1.24989 -0.0382,-0.66557 -0.0775,-1.33228 -0.11716,-1.99975 -0.0687,-1.57157 -0.13922,-3.15022 -0.21105,-4.72516 0.69153,0.36998 1.38239,0.7388 2.07222,1.10629 0.48452,1.29754 0.96549,2.58807 1.44755,3.8841 -0.0855,-2.92696 -0.17214,-5.84317 -0.2605,-8.76576 0.0983,-1.62406 0.19654,-3.24888 0.29329,-4.87521 0.0113,-0.0605 0.0227,-0.12473 0.0302,-0.18898 -0.39961,0.70942 -0.80009,1.4177 -1.20162,2.12523 -0.31182,0.28346 -0.62423,0.56353 -0.93778,0.84359 -0.93691,0.35527 -1.87468,0.70942 -2.81348,1.0628 -0.18444,0.0529 -0.37039,0.10583 -0.55684,0.15496 -0.59724,0.0378 -1.19535,0.0378 -1.79441,0.0567 -0.52406,-0.11717 -1.04904,-0.23434 -1.575,-0.35528 -0.66225,-0.17386 -1.32537,-0.3515 -1.98943,-0.53027 -0.10923,-0.26456 -0.21997,-0.52913 -0.33146,-0.79559 -0.1304,-0.0794 -0.26155,-0.16252 -0.39372,-0.24189 -0.034,0.0983 -0.068,0.19276 -0.10356,0.28725 -0.054,-0.0718 -0.10393,-0.14363 -0.15723,-0.21922 -0.0453,0.0378 -0.0918,0.0378 -0.13908,0.0567 h -0.0514 z"
         sodipodi:nodetypes="ccccccccccccccccccccccccccccccccccc" />
      <circle
         style="display:inline;fill:#443825;fill-opacity:1;stroke:none;stroke-width:2.9875;stroke-dasharray:none"
         id="path15818"
         cx="276.58417"
         cy="168.7597"
         r="6.2263985" />
      <path
         id="path15820"
         style="display:inline;fill:#ec5d68;fill-opacity:1;stroke:none;stroke-width:2.9875;stroke-dasharray:none"
         d="m 274.24673,169.04001 a 4.8122843,4.8122843 0 0 0 -3.59158,1.61423 6.2263983,6.2263983 0 0 0 5.92895,4.33248 6.2263983,6.2263983 0 0 0 2.43012,-0.49928 4.8122843,4.8122843 0 0 0 0.045,-0.63496 4.8122843,4.8122843 0 0 0 -4.81232,-4.81247 z" />
    </g>
    <path
       style="fill:#443825;fill-opacity:1;stroke-width:3.17208"
       d="m 242.34602,159.19215 c -0.0293,-0.18457 0.0286,-0.34252 -0.21735,-1.52691 -0.24594,-1.18439 -0.79612,-3.39567 -1.47645,-5.17265 -0.68032,-1.77697 -1.49111,-3.11953 -1.59243,-3.8704 -0.10133,-0.75087 0.50677,-0.90882 1.23092,-0.82956 0.72415,0.0793 1.5639,0.39517 2.05573,0.94829 0.49183,0.55312 0.63661,1.34289 0.86852,1.97471 0.23191,0.63182 0.55044,1.10566 1.4917,2.02698 0.94126,0.92131 2.50492,2.29021 3.50402,3.07982 0.9991,0.78962 1.43346,1.00022 0.96986,1.36842 -0.46361,0.3682 -1.82458,0.8947 -2.80941,1.51347 -0.98483,0.61877 -1.59292,1.32954 -2.114,1.81646 -0.52108,0.48692 -0.95543,0.75016 -1.21612,0.59277 -0.2607,-0.15739 -0.34757,-0.73653 -0.44871,-1.13139 -0.10114,-0.39485 -0.21696,-0.60544 -0.24628,-0.79001 z"
       id="path19160"
       inkscape:path-effect="#path-effect19162"
       inkscape:original-d="m 242.25895,159.1651 c 0.0588,-0.15713 0.11673,-0.31508 0.17373,-0.47386 -0.54928,-2.21056 -1.09946,-4.42184 -1.65057,-6.63401 -0.80991,-1.34179 -1.6207,-2.68435 -2.43242,-4.02778 0.60903,-0.15713 1.21713,-0.31509 1.82432,-0.47387 0.84069,0.31675 1.68044,0.63264 2.51929,0.94773 0.1457,0.7906 0.29049,1.58036 0.43436,2.36927 0.31946,0.4747 0.63798,0.94855 0.9556,1.42158 1.56464,1.36978 3.12831,2.73867 4.69109,4.10677 0.43528,0.21142 0.86964,0.42203 1.30309,0.6318 -1.36011,0.52734 -2.72108,1.05385 -4.083,1.57953 -0.60721,0.71162 -1.21529,1.42241 -1.82431,2.13236 -0.43347,0.26409 -0.86782,0.52733 -1.30309,0.78975 -0.0859,-0.57833 -0.17282,-1.15747 -0.26061,-1.73747 -0.11492,-0.20978 -0.23075,-0.42037 -0.34748,-0.6318 z" />
    <path
       style="fill:#443825;fill-opacity:1;stroke-width:3.17208"
       d="m 271.43557,159.19215 c 0.0293,-0.18457 -0.0286,-0.34252 0.21735,-1.52691 0.24594,-1.18439 0.79612,-3.39567 1.47645,-5.17265 0.68032,-1.77697 1.49111,-3.11953 1.59243,-3.8704 0.10133,-0.75087 -0.50677,-0.90882 -1.23092,-0.82956 -0.72415,0.0793 -1.5639,0.39517 -2.05573,0.94829 -0.49183,0.55312 -0.63661,1.34289 -0.86852,1.97471 -0.23191,0.63182 -0.55044,1.10566 -1.4917,2.02698 -0.94126,0.92131 -2.50492,2.29021 -3.50402,3.07982 -0.9991,0.78962 -1.43346,1.00022 -0.96986,1.36842 0.46361,0.3682 1.82458,0.8947 2.80941,1.51347 0.98483,0.61877 1.59292,1.32954 2.114,1.81646 0.52108,0.48692 0.95543,0.75016 1.21612,0.59277 0.2607,-0.15739 0.34757,-0.73653 0.44871,-1.13139 0.10114,-0.39485 0.21696,-0.60544 0.24628,-0.79001 z"
       id="path19164"
       inkscape:path-effect="#path-effect19168"
       inkscape:original-d="m 271.52264,159.1651 c -0.0588,-0.15713 -0.11673,-0.31508 -0.17373,-0.47386 0.54928,-2.21056 1.09946,-4.42184 1.65057,-6.63401 0.80991,-1.34179 1.6207,-2.68435 2.43242,-4.02778 -0.60903,-0.15713 -1.21713,-0.31509 -1.82432,-0.47387 -0.84069,0.31675 -1.68044,0.63264 -2.51929,0.94773 -0.1457,0.7906 -0.29049,1.58036 -0.43436,2.36927 -0.31946,0.4747 -0.63798,0.94855 -0.9556,1.42158 -1.56464,1.36978 -3.12831,2.73867 -4.69109,4.10677 -0.43528,0.21142 -0.86964,0.42203 -1.30309,0.6318 1.36011,0.52734 2.72108,1.05385 4.083,1.57953 0.60721,0.71162 1.21529,1.42241 1.82431,2.13236 0.43347,0.26409 0.86782,0.52733 1.30309,0.78975 0.0859,-0.57833 0.17282,-1.15747 0.26061,-1.73747 0.11492,-0.20978 0.23075,-0.42037 0.34748,-0.6318 z" />
  </g>
</svg>
