<?xml version="1.0" encoding="UTF-8" standalone="no"?>
<!-- Created with Inkscape (http://www.inkscape.org/) -->

<svg
   version="1.1"
   id="svg1"
   width="36.204994"
   height="72.69265"
   viewBox="0 0 36.204994 72.69265"
   sodipodi:docname="laugh2.svg"
   inkscape:version="1.2.2 (732a01da63, 2022-12-09)"
   xmlns:inkscape="http://www.inkscape.org/namespaces/inkscape"
   xmlns:sodipodi="http://sodipodi.sourceforge.net/DTD/sodipodi-0.dtd"
   xmlns="http://www.w3.org/2000/svg"
   xmlns:svg="http://www.w3.org/2000/svg">
  <defs
     id="defs1">
    <inkscape:path-effect
       effect="fillet_chamfer"
       id="path-effect7917"
       is_visible="true"
       lpeversion="1"
       nodesatellites_param="F,0,1,1,0,1.2405164,0,1 @ F,0,0,1,0,0,0,1 @ F,0,0,1,0,1.2405164,0,1"
       unit="px"
       method="auto"
       mode="F"
       radius="0"
       chamfer_steps="1"
       flexible="false"
       use_knot_distance="true"
       apply_no_radius="true"
       apply_with_radius="true"
       only_selected="false"
       hide_knots="false" />
    <inkscape:path-effect
       effect="fillet_chamfer"
       id="path-effect1600"
       is_visible="true"
       lpeversion="1"
       nodesatellites_param="F,0,1,1,0,1.2405164,0,1 @ F,0,0,1,0,0,0,1 @ F,0,0,1,0,1.2405164,0,1"
       unit="px"
       method="auto"
       mode="F"
       radius="0"
       chamfer_steps="1"
       flexible="false"
       use_knot_distance="true"
       apply_no_radius="true"
       apply_with_radius="true"
       only_selected="false"
       hide_knots="false" />
    <inkscape:path-effect
       effect="bspline"
       id="path-effect2679"
       is_visible="true"
       lpeversion="1"
       weight="33.333333"
       steps="2"
       helper_size="0"
       apply_no_weight="true"
       apply_with_weight="true"
       only_selected="false" />
    <inkscape:path-effect
       effect="bspline"
       id="path-effect3541"
       is_visible="true"
       lpeversion="1"
       weight="33.333333"
       steps="2"
       helper_size="0"
       apply_no_weight="true"
       apply_with_weight="true"
       only_selected="false" />
  </defs>
  <sodipodi:namedview
     id="namedview1"
     pagecolor="#ffffff"
     bordercolor="#cccccc"
     borderopacity="1"
     inkscape:showpageshadow="0"
     inkscape:pageopacity="1"
     inkscape:pagecheckerboard="0"
     inkscape:deskcolor="#d1d1d1"
     showgrid="false"
     inkscape:zoom="5.25"
     inkscape:cx="2.2857143"
     inkscape:cy="45.714286"
     inkscape:window-width="1366"
     inkscape:window-height="705"
     inkscape:window-x="-8"
     inkscape:window-y="-8"
     inkscape:window-maximized="1"
     inkscape:current-layer="g1" />
  <g
     inkscape:groupmode="layer"
     inkscape:label="Image"
     id="g1"
     transform="translate(-238.6594,-147.27272)">
    <rect
       style="fill:#f6ca4b;fill-opacity:1;stroke-width:0.537368"
       id="rect659"
       width="36.205032"
       height="54.629494"
       x="238.65938"
       y="165.33591" />
    <ellipse
       style="fill:#f6ca4b;fill-opacity:1;stroke-width:0.560101"
       id="path736"
       cx="256.76193"
       cy="165.33591"
       rx="18.102518"
       ry="18.063099" />
    <path
       style="fill:#463825;fill-opacity:1;stroke-width:0.464084"
       d="m 242.0157,164.12664 c 0.64243,7.626 7.16573,13.61902 15.11844,13.6192 7.95278,-10e-5 14.47616,-5.99315 15.11859,-13.61921 0.0575,-0.68249 -0.50347,-1.23905 -1.18859,-1.23905 l -27.85985,0 c -0.68512,0 -1.24608,0.55656 -1.18859,1.23906 z"
       id="path1128"
       inkscape:path-effect="#path-effect1600"
       inkscape:original-d="m 241.96377,162.88758 a 15.170714,14.857371 0 0 0 15.17037,14.85826 15.170714,14.857371 0 0 0 15.17052,-14.85826 z" />
    <path
       id="rect2610"
       style="fill:#ecf1f4;stroke-width:0.521029"
       d="m 246.36986,162.88758 0.24678,1.83577 c 0.11462,0.85105 0.9069,1.44582 1.77593,1.33357 0.86901,-0.11303 1.47613,-0.88729 1.36147,-1.73833 l -0.19242,-1.4312 z m 17.83914,0 -0.19223,1.4312 c -0.11462,0.85104 0.49244,1.62686 1.36149,1.73911 0.86899,0.11303 1.66123,-0.4833 1.77589,-1.33434 l 0.24679,-1.83616 z" />
    <path
       style="fill:#443825;fill-opacity:1;stroke-width:0.521029"
       d="m 263.26646,158.39968 c 0.058,-0.2405 0.17385,-0.72153 0.45769,-1.08786 0.28383,-0.36632 0.7356,-0.61791 1.11966,-0.73537 0.38406,-0.11747 0.72007,-0.0998 0.98815,-0.036 0.26807,0.0637 0.5099,0.18225 0.7495,0.37996 0.23959,0.19771 0.50074,0.48777 0.69666,0.75853 0.19592,0.27075 0.33817,0.54084 0.41726,0.85106 0.0791,0.31021 0.11463,0.69784 0.087,1.06324 -0.0276,0.3654 -0.11836,0.70864 -0.26096,0.94979 -0.14261,0.24115 -0.38344,0.41351 -0.55721,0.46338 -0.17377,0.0499 -0.3651,0.0166 -0.54869,-0.0596 -0.18358,-0.0762 -0.38256,-0.19908 -0.51195,-0.34772 -0.1294,-0.14864 -0.2036,-0.36658 -0.24216,-0.63354 -0.0386,-0.26696 -0.0515,-0.61509 -0.15028,-0.81527 -0.0988,-0.20018 -0.41605,-0.29875 -0.65564,-0.31384 -0.23959,-0.0151 -0.49743,0.031 -0.70007,0.1147 -0.20263,0.0837 -0.38858,0.21154 -0.51861,0.2146 -0.13004,0.003 -0.31386,-0.30026 -0.36642,-0.39139 -0.0526,-0.0911 -0.058,-0.11715 -0.0598,-0.12564 -0.002,-0.008 -0.002,-0.009 0.0559,-0.24901 z"
       id="path2677"
       inkscape:path-effect="#path-effect2679"
       inkscape:original-d="m 263.20851,158.64017 c 0.11681,-0.48077 0.23219,-0.96193 0.34772,-1.44309 0.45218,-0.25081 0.90395,-0.5024 1.35532,-0.75477 0.31956,-0.0448 0.65866,-0.0857 0.96184,0.0507 0.26488,0.0331 0.51608,0.13252 0.68895,0.33772 0.29733,0.25257 0.55944,0.54177 0.77677,0.86274 0.1588,0.2436 0.43792,0.4416 0.3998,0.75906 0.0358,0.38761 0.0714,0.77523 0.10665,1.16285 -0.0901,0.34338 -0.18108,0.68656 -0.27223,1.02955 -0.15422,0.19546 -0.32621,0.46401 -0.61538,0.44043 -0.1783,0.0331 -0.36967,0 -0.52663,-0.0916 -0.19957,-0.12278 -0.39189,-0.25647 -0.59787,-0.3693 -0.23841,-0.11303 -0.19262,-0.37183 -0.19779,-0.58094 -0.0235,-0.34455 0.0139,-0.69455 -0.0384,-1.03598 -0.0983,-0.33617 -0.47797,-0.23386 -0.73881,-0.22957 -0.24679,0.0195 -0.52856,-0.0682 -0.71923,0.12862 -0.18745,0.12667 -0.37221,0.25627 -0.55852,0.38411 -0.32969,0.0331 -0.36288,-0.36151 -0.36,-0.594 0.0257,-0.0195 -0.0203,-0.037 -0.0119,-0.0565 z"
       sodipodi:nodetypes="scccccccccccccccccss" />
    <path
       style="fill:#443825;fill-opacity:1;stroke-width:0.521029"
       d="m 250.42384,158.39967 c -0.0579,-0.24049 -0.17385,-0.72152 -0.45768,-1.08785 -0.28384,-0.36632 -0.73561,-0.61791 -1.11967,-0.73537 -0.38406,-0.11747 -0.72006,-0.0998 -0.98814,-0.036 -0.26808,0.0637 -0.50991,0.18225 -0.7495,0.37996 -0.23959,0.19771 -0.50075,0.48777 -0.69667,0.75852 -0.19591,0.27076 -0.33817,0.54085 -0.41725,0.85107 -0.0791,0.31021 -0.11464,0.69784 -0.087,1.06324 0.0276,0.3654 0.11836,0.70864 0.26097,0.94979 0.14261,0.24115 0.38343,0.41351 0.5572,0.46338 0.17377,0.0499 0.3651,0.0166 0.54869,-0.0596 0.18358,-0.0762 0.38257,-0.19908 0.51196,-0.34772 0.12939,-0.14864 0.2036,-0.36658 0.24216,-0.63354 0.0386,-0.26696 0.0515,-0.61509 0.15028,-0.81527 0.0988,-0.20018 0.41606,-0.29876 0.65565,-0.31384 0.23958,-0.0151 0.49742,0.031 0.70006,0.1147 0.20263,0.0837 0.38858,0.21154 0.51862,0.2146 0.13003,0.003 0.31386,-0.30026 0.36641,-0.39139 0.0526,-0.0911 0.058,-0.11715 0.0598,-0.12564 0.002,-0.008 0.002,-0.009 -0.0559,-0.24902 z"
       id="path3537"
       inkscape:path-effect="#path-effect3541"
       inkscape:original-d="m 250.48179,158.64017 c -0.11681,-0.48077 -0.23218,-0.96193 -0.34771,-1.44309 -0.45219,-0.25081 -0.90396,-0.5024 -1.35533,-0.75477 -0.31956,-0.0448 -0.65865,-0.0857 -0.96184,0.0507 -0.26487,0.0331 -0.51608,0.13252 -0.68894,0.33772 -0.29733,0.25257 -0.55944,0.54177 -0.77678,0.86274 -0.15879,0.2436 -0.43792,0.4416 -0.39979,0.75906 -0.0358,0.38761 -0.0714,0.77523 -0.10666,1.16285 0.0901,0.34338 0.18108,0.68656 0.27224,1.02955 0.15422,0.19546 0.3262,0.46401 0.61538,0.44043 0.17829,0.0331 0.36966,0 0.52663,-0.0916 0.19956,-0.12278 0.39189,-0.25647 0.59786,-0.3693 0.23841,-0.11303 0.19262,-0.37183 0.1978,-0.58094 0.0235,-0.34455 -0.0139,-0.69455 0.0384,-1.03598 0.0983,-0.33617 0.47798,-0.23386 0.73881,-0.22957 0.24679,0.0195 0.52856,-0.0682 0.71923,0.12862 0.18745,0.12667 0.37222,0.25627 0.55853,0.38411 0.32969,0.0331 0.36288,-0.36151 0.35999,-0.594 -0.0257,-0.0195 0.0203,-0.037 0.0119,-0.0565 z"
       sodipodi:nodetypes="scccccccccccccccccss" />
    <path
       id="path4123"
       style="display:inline;fill:#64d1fa;fill-opacity:1;stroke-width:0.464465"
       d="m 268.37194,161.12302 c -0.26702,-0.002 -0.53281,0.11217 -0.71791,0.33428 -0.3291,0.39469 -0.27602,0.97747 0.11855,1.30658 0,0 0.89373,0.5526 1.17274,0.97834 0.41454,0.63267 0.24682,1.52697 0.63707,2.17793 0.70563,1.17733 2.47606,2.21607 3.99147,1.05307 1.05317,-1.13866 0.19552,-2.91984 -0.71486,-3.77564 -0.64356,-0.6049 -1.86874,-0.40263 -2.69544,-0.85548 -0.45795,-0.25093 -1.20307,-1.00336 -1.20307,-1.00336 -0.1727,-0.14324 -0.38093,-0.21469 -0.5886,-0.21572 z"
       sodipodi:nodetypes="sscascsass" />
    <path
       id="path5736"
       style="display:inline;fill:#64d1fa;fill-opacity:1;stroke-width:0.464465"
       d="m 245.31234,161.12302 c 0.26702,-0.002 0.53281,0.11217 0.71791,0.33428 0.3291,0.39469 0.27602,0.97747 -0.11855,1.30658 0,0 -0.89373,0.5526 -1.17274,0.97834 -0.41454,0.63267 -0.24682,1.52697 -0.63707,2.17793 -0.70563,1.17733 -2.47606,2.21607 -3.99147,1.05307 -1.05317,-1.13866 -0.19552,-2.91984 0.71486,-3.77564 0.64356,-0.6049 1.86874,-0.40263 2.69544,-0.85548 0.45795,-0.25093 1.20307,-1.00336 1.20307,-1.00336 0.1727,-0.14324 0.38093,-0.21469 0.5886,-0.21572 z"
       sodipodi:nodetypes="sscascsass" />
    <circle
       style="display:inline;fill:#2d2418;fill-opacity:1;stroke-width:0.540981"
       id="path5808"
       cx="257.3009"
       cy="172.98402"
       r="3.6516271" />
    <path
       id="path5806"
       style="display:inline;fill:#ec5d68;fill-opacity:1;stroke-width:0.60518"
       d="M 257.13206 171.6985 A 7.4046879 5.9169888 0 0 0 250.01096 176.00514 C 252.13535 177.11406 254.55865 177.74532 257.13401 177.74538 C 259.70939 177.74534 262.13265 177.11406 264.25706 176.00514 A 7.4046879 5.9169888 0 0 0 257.13206 171.6985 z " />
  </g>
</svg>
