<?xml version="1.0" encoding="UTF-8" standalone="no"?>
<!-- Created with Inkscape (http://www.inkscape.org/) -->

<svg
   version="1.1"
   id="svg1"
   width="36.204994"
   height="72.69265"
   viewBox="0 0 36.204994 72.69265"
   sodipodi:docname="laugh3.svg"
   inkscape:version="1.2.2 (732a01da63, 2022-12-09)"
   xmlns:inkscape="http://www.inkscape.org/namespaces/inkscape"
   xmlns:sodipodi="http://sodipodi.sourceforge.net/DTD/sodipodi-0.dtd"
   xmlns="http://www.w3.org/2000/svg"
   xmlns:svg="http://www.w3.org/2000/svg">
  <defs
     id="defs1">
    <inkscape:path-effect
       effect="fillet_chamfer"
       id="path-effect7917"
       is_visible="true"
       lpeversion="1"
       nodesatellites_param="F,0,1,1,0,1.2405164,0,1 @ F,0,0,1,0,0,0,1 @ F,0,0,1,0,1.2405164,0,1"
       unit="px"
       method="auto"
       mode="F"
       radius="0"
       chamfer_steps="1"
       flexible="false"
       use_knot_distance="true"
       apply_no_radius="true"
       apply_with_radius="true"
       only_selected="false"
       hide_knots="false" />
    <inkscape:path-effect
       effect="fillet_chamfer"
       id="path-effect1600"
       is_visible="true"
       lpeversion="1"
       nodesatellites_param="F,0,1,1,0,1.2405164,0,1 @ F,0,0,1,0,0,0,1 @ F,0,0,1,0,1.2405164,0,1"
       unit="px"
       method="auto"
       mode="F"
       radius="0"
       chamfer_steps="1"
       flexible="false"
       use_knot_distance="true"
       apply_no_radius="true"
       apply_with_radius="true"
       only_selected="false"
       hide_knots="false" />
    <inkscape:path-effect
       effect="bspline"
       id="path-effect2679"
       is_visible="true"
       lpeversion="1"
       weight="33.333333"
       steps="2"
       helper_size="0"
       apply_no_weight="true"
       apply_with_weight="true"
       only_selected="false" />
    <inkscape:path-effect
       effect="bspline"
       id="path-effect3541"
       is_visible="true"
       lpeversion="1"
       weight="33.333333"
       steps="2"
       helper_size="0"
       apply_no_weight="true"
       apply_with_weight="true"
       only_selected="false" />
    <clipPath
       clipPathUnits="userSpaceOnUse"
       id="clipPath9827">
      <path
         id="path9829"
         style="opacity:1;fill:#2d2418;fill-opacity:1;stroke-width:0.171146"
         d="m 317.05393,-1207.7855 c -0.0292,0.1809 -0.045,1.4755 -0.045,1.6649 v 2.9724 c 0,1.9067 1.53502,3.4417 3.44165,3.4417 h 0.28525 c 1.90663,0 3.44165,-1.535 3.44165,-3.4417 v -2.9724 c 0,-0.1807 -0.0142,-1.4671 -0.0408,-1.6401 h -6.91689 c -0.0578,0 -0.11346,-0.01 -0.16588,-0.025 z"
         sodipodi:nodetypes="csssssscscc" />
    </clipPath>
    <clipPath
       clipPathUnits="userSpaceOnUse"
       id="clipPath9823">
      <path
         id="path9825"
         style="opacity:1;fill:#2d2418;fill-opacity:1;stroke-width:0.171146"
         d="m 317.05393,-1207.7855 c -0.0292,0.1809 -0.045,1.4755 -0.045,1.6649 v 2.9724 c 0,1.9067 1.53502,3.4417 3.44165,3.4417 h 0.28525 c 1.90663,0 3.44165,-1.535 3.44165,-3.4417 v -2.9724 c 0,-0.1807 -0.0142,-1.4671 -0.0408,-1.6401 h -6.91689 c -0.0578,0 -0.11346,-0.01 -0.16588,-0.025 z"
         sodipodi:nodetypes="csssssscscc" />
    </clipPath>
    <clipPath
       clipPathUnits="userSpaceOnUse"
       id="clipPath9819">
      <path
         id="path9821"
         style="opacity:1;fill:#2d2418;fill-opacity:1;stroke-width:0.171146"
         d="m 317.05393,-1207.7855 c -0.0292,0.1809 -0.045,1.4755 -0.045,1.6649 v 2.9724 c 0,1.9067 1.53502,3.4417 3.44165,3.4417 h 0.28525 c 1.90663,0 3.44165,-1.535 3.44165,-3.4417 v -2.9724 c 0,-0.1807 -0.0142,-1.4671 -0.0408,-1.6401 h -6.91689 c -0.0578,0 -0.11346,-0.01 -0.16588,-0.025 z"
         sodipodi:nodetypes="csssssscscc" />
    </clipPath>
    <clipPath
       clipPathUnits="userSpaceOnUse"
       id="clipPath9811">
      <path
         id="path9813"
         style="opacity:1;fill:#2d2418;fill-opacity:1;stroke-width:0.171146"
         d="m 317.05393,-1207.7855 c -0.0292,0.1809 -0.045,1.4755 -0.045,1.6649 v 2.9724 c 0,1.9067 1.53502,3.4417 3.44165,3.4417 h 0.28525 c 1.90663,0 3.44165,-1.535 3.44165,-3.4417 v -2.9724 c 0,-0.1807 -0.0142,-1.4671 -0.0408,-1.6401 h -6.91689 c -0.0578,0 -0.11346,-0.01 -0.16588,-0.025 z"
         sodipodi:nodetypes="csssssscscc" />
    </clipPath>
    <clipPath
       clipPathUnits="userSpaceOnUse"
       id="clipPath9815">
      <path
         id="path9817"
         style="opacity:1;fill:#2d2418;fill-opacity:1;stroke-width:0.171146"
         d="m 317.05393,-1207.7855 c -0.0292,0.1809 -0.045,1.4755 -0.045,1.6649 v 2.9724 c 0,1.9067 1.53502,3.4417 3.44165,3.4417 h 0.28525 c 1.90663,0 3.44165,-1.535 3.44165,-3.4417 v -2.9724 c 0,-0.1807 -0.0142,-1.4671 -0.0408,-1.6401 h -6.91689 c -0.0578,0 -0.11346,-0.01 -0.16588,-0.025 z"
         sodipodi:nodetypes="csssssscscc" />
    </clipPath>
  </defs>
  <sodipodi:namedview
     id="namedview1"
     pagecolor="#ffffff"
     bordercolor="#cccccc"
     borderopacity="1"
     inkscape:showpageshadow="0"
     inkscape:pageopacity="1"
     inkscape:pagecheckerboard="0"
     inkscape:deskcolor="#d1d1d1"
     showgrid="false"
     inkscape:zoom="1.8561553"
     inkscape:cx="-46.871078"
     inkscape:cy="36.096118"
     inkscape:window-width="1366"
     inkscape:window-height="705"
     inkscape:window-x="-8"
     inkscape:window-y="-8"
     inkscape:window-maximized="1"
     inkscape:current-layer="g1" />
  <g
     inkscape:groupmode="layer"
     inkscape:label="Image"
     id="g1"
     transform="translate(-238.6594,-147.27272)">
    <g
       id="g15374"
       transform="matrix(1.1811476,0,0,1.0926753,-94.485377,-33.069857)">
      <rect
         style="display:inline;fill:#aed554;fill-opacity:1;stroke-width:0.455044"
         id="rect659-5"
         width="30.658339"
         height="46.260124"
         x="282.37784"
         y="185.20209" />
      <ellipse
         style="display:inline;fill:#aed554;fill-opacity:1;stroke-width:0.474291"
         id="path736-7"
         cx="297.70703"
         cy="185.20209"
         rx="15.329171"
         ry="15.295792" />
      <path
         id="rect8091"
         style="display:inline;fill:#556928;fill-opacity:1;stroke-width:0.171146"
         d="m 317.05393,-1207.7855 c -0.0292,0.1809 -0.045,1.4755 -0.045,1.6649 v 2.9724 c 0,1.9067 1.53502,3.4417 3.44165,3.4417 h 0.28525 c 1.90663,0 3.44165,-1.535 3.44165,-3.4417 v -2.9724 c 0,-0.1807 -0.0142,-1.4671 -0.0408,-1.6401 h -6.91689 c -0.0578,0 -0.11346,-0.01 -0.16588,-0.025 z"
         sodipodi:nodetypes="csssssscscc"
         clip-path="url(#clipPath9827)"
         transform="matrix(1.7005872,0,0,1.5679516,-247.48966,2078.232)" />
      <path
         id="path8231"
         style="display:inline;fill:#f7f9fd;fill-opacity:1;stroke-width:0.105979"
         d="m 317.38009,-1207.77 c -0.0263,0.077 -0.0404,0.086 -0.0404,0.1669 v 1.8029 c 0,0.8137 1.37922,0.9343 3.09232,0.9343 h 0.2563 c 1.71311,0 3.09233,-0.1206 3.09233,-0.9343 v -1.8029 c 0,-0.077 -0.0127,-0.083 -0.0366,-0.1564 h -6.21482 c -0.0519,0 -0.10194,-0.01 -0.14905,-0.011 z"
         sodipodi:nodetypes="csssssscscc"
         clip-path="url(#clipPath9823)"
         transform="matrix(1.5679516,0,0,1.5679516,-204.9676,2078.232)" />
      <path
         id="path8977"
         style="display:inline;fill:#cfdadf;fill-opacity:1;stroke-width:0.105979"
         d="m 317.38009,-1199.5086 c -0.0263,-0.077 -0.0404,-0.086 -0.0404,-0.1669 v -1.8029 c 0,-0.8137 1.37922,-0.9343 3.09232,-0.9343 h 0.2563 c 1.71311,0 3.09233,0.1206 3.09233,0.9343 v 1.8029 c 0,0.077 -0.0127,0.083 -0.0366,0.1564 h -6.21482 c -0.0519,0 -0.10194,0.01 -0.14905,0.011 z"
         sodipodi:nodetypes="csssssscscc"
         clip-path="url(#clipPath9819)"
         transform="matrix(1.5679516,0,0,1.5679516,-204.9676,2078.232)" />
      <path
         id="path9809"
         style="display:inline;fill:#cfdadf;fill-opacity:1;stroke-width:0.105979"
         d="m 317.38009,-1199.5086 c -0.0263,-0.077 -0.0404,-0.086 -0.0404,-0.1669 v -1.8029 c 0,-0.8137 1.37922,-0.9343 3.09232,-0.9343 h 0.2563 c 1.71311,0 3.09233,0.1206 3.09233,0.9343 v 1.8029 c 0,0.077 -0.0127,0.083 -0.0366,0.1564 h -6.21482 c -0.0519,0 -0.10194,0.01 -0.14905,0.011 z"
         sodipodi:nodetypes="csssssscscc"
         clip-path="url(#clipPath9811)"
         transform="matrix(1.7375726,0,0,1.5679516,-259.29933,2078.232)" />
      <path
         id="path8975"
         style="display:inline;fill:#f7f9fd;fill-opacity:1;stroke-width:0.105979"
         d="m 317.38009,-1201.1292 c -0.0263,-0.077 -0.0404,-0.086 -0.0404,-0.1669 v -1.8029 c 0,-0.8137 1.37922,-0.9343 3.09232,-0.9343 h 0.2563 c 1.71311,0 3.09233,0.1206 3.09233,0.9343 v 1.8029 c 0,0.077 -0.0127,0.083 -0.0366,0.1564 h -6.21482 c -0.0519,0 -0.10194,0.01 -0.14905,0.011 z"
         sodipodi:nodetypes="csssssscscc"
         clip-path="url(#clipPath9815)"
         transform="matrix(1.5679516,0,0,1.8138858,-204.9676,2374.3449)" />
      <path
         id="path9883"
         style="display:inline;fill:#465621;fill-opacity:1;stroke-width:0.382028"
         d="m 294.9783,178.05596 a 2.7688863,3.2416228 0 0 0 -0.0403,0.54029 2.7688863,3.2416228 0 0 0 2.76895,3.24196 2.7688863,3.2416228 0 0 0 2.76899,-3.24196 2.7688863,3.2416228 0 0 0 -0.0395,-0.54029 z" />
      <path
         id="path15235"
         style="color:#000000;display:inline;fill:#aed554;fill-opacity:1;stroke-width:2.26522;-inkscape-stroke:none"
         d="m 293.15561,165.1785 c 0.0659,0 0.13494,0.018 0.20744,0.018 0.49317,0.0323 1.22879,0.0233 2.00862,0.38056 0.38949,0.18327 0.78087,0.53311 1.01316,0.95105 0.23229,0.41793 0.33947,0.86335 0.40703,1.38047 0.10655,0.82078 0.11786,1.86274 0.11463,2.94998 -0.001,0.46735 -0.38329,0.84198 -0.85111,0.83713 h -0.54906 c -0.43601,0 -0.78759,-0.36188 -0.78795,-0.79796 -9.5e-4,-1.09676 -0.0182,-2.11429 -0.0943,-2.70993 -0.11661,-0.95499 -0.45565,-0.72428 -1.40163,-0.82365 -0.4757,-0.0306 -0.87568,-0.24831 -0.91458,-0.77639 l -0.0377,-0.51371 c -0.039,-0.52807 0.35745,-0.92157 0.88573,-0.88546 z m 9.10284,0 c -0.0659,0 -0.13494,0.018 -0.20744,0.018 -0.49317,0.0323 -1.2288,0.0233 -2.00862,0.38056 -0.38949,0.18327 -0.78087,0.53311 -1.01316,0.95105 -0.23229,0.41793 -0.33947,0.86335 -0.40703,1.38047 -0.10655,0.82078 -0.11787,1.86274 -0.11464,2.94998 10e-4,0.46735 0.38329,0.84198 0.85111,0.83713 h 0.54907 c 0.43601,0 0.78759,-0.36188 0.78794,-0.79796 9.5e-4,-1.09676 0.0182,-2.11429 0.0943,-2.70993 0.11661,-0.95499 0.45565,-0.72428 1.40162,-0.82365 0.47571,-0.0306 0.87569,-0.24831 0.91459,-0.77639 l 0.0378,-0.51371 c 0.039,-0.52807 -0.35746,-0.92157 -0.88574,-0.88546 z" />
    </g>
  </g>
</svg>
