<?xml version="1.0" encoding="UTF-8" standalone="no"?>
<!-- Created with Inkscape (http://www.inkscape.org/) -->

<svg
   version="1.1"
   id="svg1"
   width="37.947369"
   height="74.837891"
   viewBox="0 0 37.947369 74.837891"
   sodipodi:docname="sad.svg"
   inkscape:version="1.2.2 (732a01da63, 2022-12-09)"
   xmlns:inkscape="http://www.inkscape.org/namespaces/inkscape"
   xmlns:sodipodi="http://sodipodi.sourceforge.net/DTD/sodipodi-0.dtd"
   xmlns="http://www.w3.org/2000/svg"
   xmlns:svg="http://www.w3.org/2000/svg">
  <defs
     id="defs1" />
  <sodipodi:namedview
     id="namedview1"
     pagecolor="#ffffff"
     bordercolor="#cccccc"
     borderopacity="1"
     inkscape:showpageshadow="0"
     inkscape:pageopacity="1"
     inkscape:pagecheckerboard="0"
     inkscape:deskcolor="#d1d1d1"
     showgrid="false"
     inkscape:zoom="1.3125"
     inkscape:cx="183.61905"
     inkscape:cy="92.952381"
     inkscape:window-width="1366"
     inkscape:window-height="705"
     inkscape:window-x="-8"
     inkscape:window-y="-8"
     inkscape:window-maximized="1"
     inkscape:current-layer="g1" />
  <g
     inkscape:groupmode="layer"
     inkscape:label="Image"
     id="g1"
     transform="translate(-228.61366,-107.47765)">
    <g
       id="g981"
       transform="matrix(0.32157669,0,0,0.32157669,173.79013,367.32427)"
       style="display:inline">
      <path
         style="fill:#f6ca4b;fill-opacity:1;stroke-width:0.464583"
         d="m 170.48722,-657.60698 c 0,-52.82389 0.16681,-82.99974 0.47462,-85.44866 1.25775,-10.02995 5.20679,-19.95462 11.05466,-27.78139 2.78504,-3.72762 8.04134,-9.11244 11.46747,-11.74805 1.53326,-1.17936 4.98273,-4.37194 7.66576,-7.09465 6.3555,-6.44969 14.5691,-12.578 15.82089,-11.80433 0.27568,0.17032 0.33836,1.22007 0.15452,2.59929 l -0.30693,2.31351 3.48775,-2.50241 c 7.26401,-5.21157 18.7206,-10.04835 20.73339,-8.75318 0.5122,0.32958 0.40105,0.80368 -0.58067,2.47906 -0.66777,1.13935 -1.21404,2.17892 -1.21404,2.31016 0,0.13116 1.72465,0.36647 3.8328,0.52273 8.04029,0.59599 15.72589,3.72022 20.66666,8.40101 2.05915,1.95095 2.9803,3.1456 2.79593,3.62618 -0.16681,0.43307 -1.62263,1.04046 -3.68055,1.5349 -4.96676,1.19332 -4.98818,1.23097 -1.82141,3.18566 11.73666,7.24425 21.40117,20.08358 25.14669,33.40766 2.34975,8.3585 2.30006,6.3217 2.30287,94.30011 v 82.11515 h -59.00196 -59.00214 z"
         id="path761"
         sodipodi:nodetypes="csssssscssssssssssccccc" />
      <path
         d="m 227.18186,-716.93354 c -1.55174,-0.50036 -2.23844,-2.33481 -1.36419,-3.64406 1.31029,-1.96184 8.0096,-1.8511 9.65358,0.15961 2.19287,2.68206 -3.43783,5.04893 -8.28939,3.48449 z"
         style="fill:#f2a843;fill-opacity:1;stroke-width:0.518972"
         id="path763" />
      <path
         id="path765"
         style="fill:#64d1fa;fill-opacity:1;stroke-width:0.426115"
         d="m 215.03164,-737.72082 -9.89344,0.11572 -9.89227,0.11571 -0.84427,1.16447 c -0.79601,1.09791 -0.80433,1.22627 -0.15101,2.2546 0.63901,1.00387 0.69406,7.31967 0.69406,79.57597 v 79.13436 c 5.54706,0.0817 9.11312,0.0309 19.30543,-0.0316 v -0.69326 l 0.0195,0.0764 v -78.00451 -78.00538 l 1.26002,-1.29702 c 1.49684,-1.54103 1.5238,-1.76681 0.38395,-3.25863 z m 27.86422,0 -0.87682,1.1467 c -1.14003,1.49185 -1.11291,1.71766 0.38395,3.25866 l 1.26002,1.29704 v 78.00535 78.00454 c 0,0.10535 0,0.50701 0,0.66965 1.23558,-0.0237 16.7697,-0.004 18.95499,-0.0397 l 0.37057,-79.11583 c 0.33861,-72.25542 0.0562,-78.57209 0.69407,-79.57596 0.65454,-1.02834 0.646,-1.15668 -0.14925,-2.25462 l -0.84408,-1.16444 -9.89246,-0.11572 z"
         sodipodi:nodetypes="cccscsccccccsccccscccccsccccc" />
      <path
         style="fill:#000000;stroke-width:0.464583"
         d="m 218.55673,-721.74419 c -2.12307,-2.12303 -1.06935,-4.27844 3.22244,-6.59189 5.31478,-2.86486 11.37388,-2.98985 16.78576,-0.34623 2.57609,1.25843 4.78327,3.47249 4.78327,4.79828 0,2.21699 -3.76607,3.7624 -5.13849,2.10864 -0.90166,-1.08635 -3.81383,-2.45603 -5.94743,-2.79722 -2.97995,-0.4765 -5.87122,0.18237 -8.46751,1.92962 -2.57012,1.72948 -4.13832,1.99859 -5.23804,0.8988 z m -29.21635,-16.14154 c -1.08216,-1.08227 -1.02984,-2.91916 0.11589,-4.0651 0.88147,-0.8815 1.54871,-0.92917 13.00477,-0.92917 h 12.07537 l 0.81684,-1.70867 c 1.08919,-2.27882 2.97504,-2.94856 4.69758,-1.66817 2.38154,1.77041 1.51939,5.65 -1.80209,8.10883 -1.07408,0.79509 -2.31007,0.8772 -14.63442,0.97188 -12.28362,0.0943 -13.53224,0.0323 -14.27411,-0.7096 z m 53.29861,-0.21527 c -2.06039,-1.39913 -3.69461,-4.80339 -3.12903,-6.51786 0.23231,-0.7045 0.98208,-1.55366 1.66583,-1.88702 1.60876,-0.78424 3.40733,0.0158 4.49968,1.99984 l 0.76698,1.39375 12.19618,0.23229 c 11.38951,0.21692 12.23989,0.29195 12.85499,1.1341 0.82773,1.13309 0.84283,2.61788 0.0386,3.71875 -0.57489,0.78628 -1.61192,0.85309 -13.99949,0.90182 -13.08624,0.0514 -13.41179,0.0302 -14.8929,-0.97567 z"
         id="path767"
         sodipodi:nodetypes="ssssssssssscsssssscssscsscscc" />
    </g>
  </g>
</svg>
