<?xml version="1.0" encoding="UTF-8" standalone="no"?>
<!-- Created with Inkscape (http://www.inkscape.org/) -->

<svg
   version="1.1"
   id="svg1"
   width="636.383"
   height="636.383"
   viewBox="0 0 636.38299 636.383"
   sodipodi:docname="miniblue.svg"
   inkscape:version="1.2.2 (732a01da63, 2022-12-09)"
   xml:space="preserve"
   xmlns:inkscape="http://www.inkscape.org/namespaces/inkscape"
   xmlns:sodipodi="http://sodipodi.sourceforge.net/DTD/sodipodi-0.dtd"
   xmlns:xlink="http://www.w3.org/1999/xlink"
   xmlns="http://www.w3.org/2000/svg"
   xmlns:svg="http://www.w3.org/2000/svg"><defs
     id="defs1"><clipPath
   clipPathUnits="userSpaceOnUse"
   id="clipPath3208"><rect
     style="display:inline;fill:#ffffff;stroke-width:0.132512"
     id="rect3210"
     width="587.26074"
     height="829.177"
     x="-718.21417"
     y="-827.59259" /></clipPath><clipPath
   clipPathUnits="userSpaceOnUse"
   id="clipPath63678"><rect
     style="display:inline;fill:#ffffff;stroke-width:0.132512"
     id="rect63676"
     width="587.26074"
     height="829.177"
     x="-718.21417"
     y="-827.59259" /></clipPath><clipPath
   clipPathUnits="userSpaceOnUse"
   id="clipPath63777"><rect
     style="display:inline;fill:#ffffff;stroke-width:0.132512"
     id="rect63775"
     width="587.26074"
     height="829.177"
     x="-718.21417"
     y="-827.59259" /></clipPath><clipPath
   clipPathUnits="userSpaceOnUse"
   id="clipPath63781"><rect
     style="display:inline;fill:#ffffff;stroke-width:0.132512"
     id="rect63779"
     width="587.26074"
     height="829.177"
     x="-718.21417"
     y="-827.59259" /></clipPath><clipPath
   clipPathUnits="userSpaceOnUse"
   id="clipPath63785"><rect
     style="display:inline;fill:#ffffff;stroke-width:0.132512"
     id="rect63783"
     width="587.26074"
     height="829.177"
     x="-718.21417"
     y="-827.59259" /></clipPath><clipPath
   clipPathUnits="userSpaceOnUse"
   id="clipPath63789"><rect
     style="display:inline;fill:#ffffff;stroke-width:0.132512"
     id="rect63787"
     width="587.26074"
     height="829.177"
     x="-718.21417"
     y="-827.59259" /></clipPath><clipPath
   clipPathUnits="userSpaceOnUse"
   id="clipPath63793"><rect
     style="display:inline;fill:#ffffff;stroke-width:0.132512"
     id="rect63791"
     width="587.26074"
     height="829.177"
     x="-718.21417"
     y="-827.59259" /></clipPath><clipPath
   clipPathUnits="userSpaceOnUse"
   id="clipPath63797"><rect
     style="display:inline;fill:#ffffff;stroke-width:0.132512"
     id="rect63795"
     width="587.26074"
     height="829.177"
     x="-718.21417"
     y="-827.59259" /></clipPath><clipPath
   clipPathUnits="userSpaceOnUse"
   id="clipPath63803"><rect
     style="display:inline;fill:#ffffff;stroke-width:0.132512"
     id="rect63801"
     width="587.26074"
     height="829.177"
     x="-718.21417"
     y="-827.59259" /></clipPath><clipPath
   clipPathUnits="userSpaceOnUse"
   id="clipPath63809"><rect
     style="display:inline;fill:#ffffff;stroke-width:0.132512"
     id="rect63807"
     width="587.26074"
     height="829.177"
     x="-718.21417"
     y="-827.59259" /></clipPath><linearGradient
   id="A"
   gradientUnits="userSpaceOnUse"><stop
     offset="0"
     stop-color="#a9abc3"
     id="stop3812" /><stop
     offset="1"
     stop-color="#a9abc3"
     stop-opacity="0"
     id="stop3814" /></linearGradient><clipPath
   id="B"><path
     d="m -718.214,-827.593 h 587.261 V 1.584 h -587.261 z"
     stroke-width="0.133"
     class="B"
     id="path3817" /></clipPath><filter
   id="C"
   x="-0.52019972"
   y="-0.4183833"
   width="2.0403993"
   height="1.8367666"
   class="M"><feGaussianBlur
     stdDeviation="20.277"
     id="feGaussianBlur3820" /></filter><filter
   id="D"
   x="-0.091497011"
   y="-0.44648707"
   width="1.182994"
   height="1.8929741"
   class="M"><feGaussianBlur
     stdDeviation="64.741"
     id="feGaussianBlur3823" /></filter><filter
   id="E"
   x="-0.097588912"
   y="-2.8056791"
   width="1.1951778"
   height="6.6113582"
   class="M"><feGaussianBlur
     stdDeviation="67.438"
     id="feGaussianBlur3826" /></filter><filter
   id="F"
   x="-0.19985165"
   y="-0.97285074"
   width="1.3997033"
   height="2.9457016"
   class="M"><feGaussianBlur
     stdDeviation="77.46"
     id="feGaussianBlur3829" /></filter><filter
   id="G"
   x="-1.2"
   y="-1.2"
   width="3.4000001"
   height="3.4000001"
   class="M"><feGaussianBlur
     stdDeviation="5.736"
     id="feGaussianBlur3832" /></filter><filter
   id="H"
   x="-0.57647371"
   y="-1.6838783"
   width="2.1529474"
   height="4.3677568"
   class="M"><feGaussianBlur
     stdDeviation="96.127"
     id="feGaussianBlur3835" /></filter><filter
   id="I"
   x="-0.28464955"
   y="-0.12700434"
   width="1.5692991"
   height="1.2540087"
   class="M"><feGaussianBlur
     stdDeviation="44.977"
     id="feGaussianBlur3838" /></filter><filter
   id="J"
   x="-0.050294094"
   y="-0.16300096"
   width="1.1005882"
   height="1.3260019"
   class="M"><feGaussianBlur
     stdDeviation="32.994"
     id="feGaussianBlur3841" /></filter><filter
   id="K"
   x="-0.0049741664"
   y="-0.0088587068"
   width="1.0099483"
   height="1.0177174"
   class="M"><feGaussianBlur
     stdDeviation=".967"
     id="feGaussianBlur3844" /></filter><linearGradient
   xlink:href="#A"
   x1="378.02701"
   y1="-41.048"
   x2="298.02701"
   y2="-134.048"
   id="linearGradient3847" /><path
   id="N"
   d="m -444.028,309.022 h 46.199 v 2.567 h -46.199 z" /><path
   id="O"
   d="m 315.582,176.163 -1.42,-0.948 -1.587,0.632 0.463,-1.644 -1.092,-1.313 1.707,-0.068 0.912,-1.444 0.592,1.602 1.655,0.421 -1.341,1.058 z" /><path
   id="P"
   d="m 749.94,645.38 389.39,97.347 140.61,-75.715 356.94,169.46 -930.21,-39.66 z" /><filter
   inkscape:collect="always"
   style="color-interpolation-filters:sRGB"
   id="filter8912"
   x="-0.13608925"
   y="-0.94047462"
   width="1.2721722"
   height="2.8809533"><feGaussianBlur
     inkscape:collect="always"
     stdDeviation="364.16265"
     id="feGaussianBlur8914" /></filter>
   
   
  <filter
   inkscape:collect="always"
   style="color-interpolation-filters:sRGB"
   id="filter3803"
   x="-0.22144335"
   y="-0.22143293"
   width="1.4428867"
   height="1.4428659"><feGaussianBlur
     inkscape:collect="always"
     stdDeviation="47.239782"
     id="feGaussianBlur3805" /></filter><filter
   inkscape:collect="always"
   style="color-interpolation-filters:sRGB"
   id="filter8071"
   x="-0.1353464"
   y="-0.93538368"
   width="1.2706928"
   height="2.8707674"><feGaussianBlur
     inkscape:collect="always"
     stdDeviation="16.357296"
     id="feGaussianBlur8073" /></filter><filter
   inkscape:collect="always"
   style="color-interpolation-filters:sRGB"
   id="filter19831-3"
   x="-0.051758734"
   y="-0.25813457"
   width="1.1035175"
   height="1.5162691"><feGaussianBlur
     inkscape:collect="always"
     stdDeviation="0.74707586"
     id="feGaussianBlur19833-5" /></filter><filter
   inkscape:collect="always"
   style="color-interpolation-filters:sRGB"
   id="filter17501-0"
   x="-0.16973718"
   y="-0.16972919"
   width="1.3394744"
   height="1.3394584"><feGaussianBlur
     inkscape:collect="always"
     stdDeviation="36.209471"
     id="feGaussianBlur17499-9" /></filter><filter
   inkscape:collect="always"
   style="color-interpolation-filters:sRGB"
   id="filter12278"
   x="-0.094465219"
   y="-0.59924506"
   width="1.1889304"
   height="2.1984901"><feGaussianBlur
     inkscape:collect="always"
     stdDeviation="2.1551873"
     id="feGaussianBlur12280" /></filter>
   
   
  </defs><sodipodi:namedview
     id="namedview1"
     pagecolor="#ffffff"
     bordercolor="#cccccc"
     borderopacity="1"
     inkscape:showpageshadow="0"
     inkscape:pageopacity="1"
     inkscape:pagecheckerboard="0"
     inkscape:deskcolor="#d1d1d1"
     showgrid="false"
     inkscape:zoom="0.92807768"
     inkscape:cx="126.60578"
     inkscape:cy="286.07519"
     inkscape:window-width="1350"
     inkscape:window-height="728"
     inkscape:window-x="0"
     inkscape:window-y="0"
     inkscape:window-maximized="0"
     inkscape:current-layer="g1"
     showguides="true" /><g
     inkscape:groupmode="layer"
     inkscape:label="Image"
     id="g1"
     transform="translate(-224.25246,108.39971)"><rect
       style="opacity:0.670989;fill:#25262c;fill-opacity:0;stroke-width:2.98019;stroke-opacity:0.992157"
       id="rect3381"
       width="636.49786"
       height="420.04538"
       x="225.65103"
       y="-14.975078"
       ry="3.3874679"
       clip-path="none" /><g
       aria-label="ظ"
       transform="matrix(3.2818365,0,0,3.2818365,1492.9355,566.14797)"
       id="text3455"
       clip-path="url(#clipPath3208)"
       style="font-size:11.6858px;font-family:'Gill Sans MT';-inkscape-font-specification:'Gill Sans MT';text-align:justify;opacity:0.670989;fill:#6eabea;stroke:#6eabea;stroke-width:0" /><g
       aria-label="م"
       transform="matrix(5.605559,0,0,5.605559,2115.9674,1146.7397)"
       id="text3459"
       clip-path="url(#clipPath3208)"
       style="font-size:11.6858px;font-family:'Gill Sans MT';-inkscape-font-specification:'Gill Sans MT';text-align:justify;opacity:0.670989;fill:#6eabea;stroke:#6eabea;stroke-width:0" /><g
       aria-label="ف"
       transform="matrix(3.2818365,0,0,3.2818365,1165.3436,860.08001)"
       id="text3465"
       clip-path="url(#clipPath3208)"
       style="font-size:11.6858px;font-family:'Gill Sans MT';-inkscape-font-specification:'Gill Sans MT';text-align:justify;opacity:0.670989;fill:#6eabea;stroke:#6eabea;stroke-width:0" /><g
       aria-label="ه"
       transform="matrix(3.2818365,0,0,3.2818365,1547.822,839.69891)"
       id="text3469"
       clip-path="url(#clipPath3208)"
       style="font-size:11.6858px;font-family:'Gill Sans MT';-inkscape-font-specification:'Gill Sans MT';text-align:justify;opacity:0.670989;fill:#6eabea;stroke:#6eabea;stroke-width:0" /><g
       aria-label="ل"
       transform="matrix(1.8021474,0,0,1.8021474,1091.5533,644.26851)"
       id="text3473"
       clip-path="url(#clipPath3208)"
       style="font-size:11.6858px;font-family:'Gill Sans MT';-inkscape-font-specification:'Gill Sans MT';text-align:justify;opacity:0.670989;fill:#6eabea;stroke:#6eabea;stroke-width:0" /><g
       aria-label=" ن"
       id="text3547"
       style="font-size:24.1548px;opacity:0.670989;fill:#6eabea;stroke-width:1.15343" /><g
       aria-label="ه"
       id="text3551"
       style="font-size:13.8412px;opacity:0.670989;fill:#6eabea;stroke-width:1.15343" /><g
       aria-label="ك"
       id="text3555"
       style="font-size:36.9759px;opacity:0.670989;fill:#6eabea;stroke-width:1.15343" /><g
       aria-label="ض"
       id="text3561"
       style="font-size:34.7325px;font-family:'Gill Sans MT';-inkscape-font-specification:'Gill Sans MT';opacity:0.670989;fill:#6eabea;stroke-width:49.9694" /><path
       class="fil0 str0"
       d="m 612.00465,143.27125 h 10.30117 c 1.25953,0 2.29414,0.89967 2.29414,1.97926 v 0.31489 c 0,1.12458 -1.03461,2.02424 -2.29414,2.02424 h -10.30117 c -1.25953,0 -2.29415,-0.89966 -2.29415,-2.02424 v -0.31489 c 0,-1.07959 1.03462,-1.97926 2.29415,-1.97926 z m 27.52976,0.09 h 10.34615 c 1.25953,0 2.29415,0.89966 2.29415,1.97926 v 0.31488 c 0,1.0796 -1.03462,1.97927 -2.29415,1.97927 h -10.34615 c -1.25953,0 -2.29415,-0.89967 -2.29415,-1.97927 v -0.31488 c 0,-1.0796 1.03462,-1.97926 2.29415,-1.97926 z m 117.00148,3.37374 c 0,-1.3495 1.8893,-2.47408 4.22843,-2.47408 2.33913,0 4.22843,1.12458 4.22843,2.47408 0,1.39448 -1.8893,2.51907 -4.22843,2.51907 -2.33913,0 -4.22843,-1.12459 -4.22843,-2.51907 z m -252.53607,24.56087 -0.13495,9.9413 c -0.35987,2.29415 -1.70937,3.59866 -4.00351,4.00351 l -18.26321,-0.22491 c -2.20418,-0.045 -2.4291,-0.49482 -4.00351,-2.38412 -1.43947,-1.57441 -2.51907,-2.96889 -2.51907,-2.96889 l -0.13495,-11.15586 1.16957,-0.045 c 1.3495,2.33913 3.05886,4.0485 5.17308,5.12809 0.13495,5.1281 2.87892,8.36689 8.23193,9.71639 2.06923,-0.31488 2.1592,-1.12458 0.2699,-2.4291 -3.41872,-2.11421 -4.99314,-4.54331 -4.63327,-7.28729 0.13495,-2.11421 1.03461,-3.23879 2.69899,-3.32876 1.70937,0.045 2.78897,-0.62976 3.28378,-2.02424 l 11.15585,0.22491 c 1.21455,0.35987 1.75435,1.0796 1.70937,2.83395 z m 217.40414,-11.5607 h 29.14916 v 2.24916 h -29.14916 z m -25.05568,-10.79599 v 0.2699 c 0,0.94465 -1.79933,1.75435 -3.95853,1.75435 h -17.85836 c -2.20418,0 -3.95852,-0.8097 -3.95852,-1.75435 v -0.2699 c 0,-0.94465 1.75434,-1.70936 3.95852,-1.70936 h 17.85836 c 2.1592,0 3.95853,0.76471 3.95853,1.70936 z m -21.72692,9.35652 h 17.85836 c 2.20418,0 4.00351,0.8097 4.00351,1.75435 v 0.2699 c 0,0.94465 -1.79933,1.70936 -4.00351,1.70936 h -17.85836 c -2.1592,0 -3.95853,-0.76471 -3.95853,-1.70936 v -0.2699 c 0,-0.94465 1.79933,-1.75435 3.95853,-1.75435 z"
       id="path8282"
       style="clip-rule:evenodd;mix-blend-mode:normal;fill:#e65d02;fill-opacity:1;fill-rule:evenodd;stroke:none;stroke-width:0.312403;filter:url(#filter8071);image-rendering:optimizeQuality;shape-rendering:geometricPrecision;text-rendering:geometricPrecision"
       transform="matrix(0.47842367,0,0,0.47842367,-524.17847,139.18561)"
       sodipodi:insensitive="true" /><path
       class="fil0 str0"
       d="m 5539,4067 c 0,0 415,7 1219,25 98,2 162,33 191,92 l 790,23 c 138,4 98,4 187,126 89,121 180,188 273,202 l 624,8 c 58,-129 114,-232 169,-309 l -3,-122 c 1,-46 22,-68 63,-66 l 154,2 c 31,-1 47,11 49,36 v 403 c 27,7 48,29 62,66 l 64,1 c 33,0 39,17 39,29 v 164 c 0,12 -9,28 -37,28 l -114,1 c -35,68 -79,97 -131,86 -108,-15 -201,-25 -278,-30 l -1862,-10 c -76,-3 -135,4 -177,22 l -582,-2 c -350,-76 -639,-60 -869,47 -121,95 -222,91 -301,-14 0,0 -227,-2 -673,4 24,575 349,1085 967,1520 l -443,660 C 4168,6513 3733,5845 3615,5052 c -16,-4 -23,3 -23,18 6,86 -3,138 -26,156 -18,16 -37,51 -36,99 -1,67 -20,88 -62,78 l -1,-114 c 3,-40 -18,-51 -63,-34 l -30,51 c -23,33 -49,47 -77,45 l -432,-6 c -39,5 -71,-7 -97,-35 7,10 -15,-11 -64,-65 -84,9 -236,188 -456,539 -29,45 -26,32 -25,83 3,97 -23,179 -136,179 -183,2 -280,32 -410,-130 -59,-67 -57,-141 6,-223 l 331,-494 c 54,-83 58,-152 12,-208 -64,-51 -169,-51 -313,-1 l -2401,855 c -150,40 -227,35 -232,-13 l 3,-1172 c 6,-92 66,-139 180,-143 l 1601,-84 c 100,-7 173,8 218,44 92,49 179,58 261,27 227,-67 414,-107 559,-121 l 37,-52 c -20,-19 -23,-37 -8,-55 16,-22 46,-36 90,-43 12,-13 146,-152 193,-161 l 2492,28 c 20,-2 21,-12 4,-32 -31,-34 -25,-118 12,-125 30,-3 48,14 52,52 h 51 c 7,-41 24,-59 53,-52 30,2 47,19 53,50 l 293,2 c 33,-61 69,-62 110,-2 l 131,-1 c 46,-1 65,10 74,75 z"
       id="path8906"
       style="clip-rule:evenodd;mix-blend-mode:normal;fill:#10b1fc;fill-opacity:1;fill-rule:evenodd;stroke:#373435;stroke-width:6.94488;filter:url(#filter8912);image-rendering:optimizeQuality;shape-rendering:geometricPrecision;text-rendering:geometricPrecision"
       transform="matrix(0.02106346,0,0,0.02106346,450.58204,118.70754)" /><path
       class="fil0 str0"
       d="m 5764,4350 h 229 c 28,0 51,20 51,44 v 7 c 0,25 -23,45 -51,45 h -229 c -28,0 -51,-20 -51,-45 v -7 c 0,-24 23,-44 51,-44 z m 612,2 h 230 c 28,0 51,20 51,44 v 7 c 0,24 -23,44 -51,44 h -230 c -28,0 -51,-20 -51,-44 v -7 c 0,-24 23,-44 51,-44 z m 2601,75 c 0,-30 42,-55 94,-55 52,0 94,25 94,55 0,31 -42,56 -94,56 -52,0 -94,-25 -94,-56 z m -5614,546 -3,221 c -8,51 -38,80 -89,89 l -406,-5 c -49,-1 -54,-11 -89,-53 -32,-35 -56,-66 -56,-66 l -3,-248 26,-1 c 30,52 68,90 115,114 3,114 64,186 183,216 46,-7 48,-25 6,-54 -76,-47 -111,-101 -103,-162 3,-47 23,-72 60,-74 38,1 62,-14 73,-45 l 248,5 c 27,8 39,24 38,63 z m 4833,-257 h 648 v 50 h -648 z m -557,-240 v 6 c 0,21 -40,39 -88,39 h -397 c -49,0 -88,-18 -88,-39 v -6 c 0,-21 39,-38 88,-38 h 397 c 48,0 88,17 88,38 z m -483,208 h 397 c 49,0 89,18 89,39 v 6 c 0,21 -40,38 -89,38 h -397 c -48,0 -88,-17 -88,-38 v -6 c 0,-21 40,-39 88,-39 z"
       id="path8908"
       style="clip-rule:evenodd;mix-blend-mode:normal;fill:#00b3ff;fill-opacity:1;fill-rule:evenodd;stroke:#373435;stroke-width:6.94488;filter:url(#filter8912);image-rendering:optimizeQuality;shape-rendering:geometricPrecision;text-rendering:geometricPrecision"
       transform="matrix(0.02106346,0,0,0.02106346,450.58204,118.70754)" /><path
       class="fil0 str0"
       d="m 567.25255,204.37266 c 0,0 8.74134,0.14744 25.67636,0.52658 2.06423,0.0421 3.41229,0.69509 4.02312,1.93784 l 16.64014,0.48446 c 2.90676,0.0842 2.06422,0.0842 3.93887,2.654 1.87464,2.54868 3.79143,3.95993 5.75032,4.25481 l 13.1436,0.16851 c 1.22168,-2.71719 2.40123,-4.88673 3.55973,-6.50861 l -0.0632,-2.56975 c 0.0211,-0.96891 0.4634,-1.43231 1.32699,-1.39017 l 3.24377,0.0421 c 0.65297,-0.0211 0.98999,0.23169 1.03211,0.75828 v 8.48858 c 0.56872,0.14744 1.01105,0.61083 1.30594,1.39018 l 1.34807,0.0211 c 0.69509,0 0.82147,0.35806 0.82147,0.61083 v 3.45441 c 0,0.25277 -0.18958,0.58978 -0.77935,0.58978 l -2.40124,0.0211 c -0.73721,1.43232 -1.66401,2.04315 -2.75931,1.81146 -2.27485,-0.31595 -4.23375,-0.52659 -5.85564,-0.63191 l -39.22018,-0.21063 c -1.60082,-0.0632 -2.84357,0.0842 -3.72823,0.46341 l -12.25893,-0.0421 c -7.37221,-1.60083 -13.45955,-1.26382 -18.30415,0.98997 -2.54868,2.00103 -4.67609,1.91678 -6.3401,-0.29489 0,0 -4.78141,-0.0421 -14.17571,0.0842 0.50553,12.11148 7.35115,22.85386 20.36837,32.01646 l -9.33111,13.90188 c -15.83972,-11.50065 -25.00233,-25.57103 -27.48782,-42.27436 -0.33702,-0.0842 -0.48446,0.0632 -0.48446,0.37914 0.12638,1.81146 -0.0632,2.90676 -0.54765,3.2859 -0.37915,0.33702 -0.77935,1.07424 -0.75829,2.08528 -0.0211,1.41126 -0.42126,1.85359 -1.30594,1.64296 l -0.0211,-2.40124 c 0.0632,-0.84254 -0.37914,-1.07424 -1.32699,-0.71616 l -0.63191,1.07424 c -0.48445,0.69509 -1.03211,0.98998 -1.62189,0.94785 l -9.09941,-0.12638 c -0.82147,0.10532 -1.4955,-0.14744 -2.04316,-0.73722 0.14745,0.21064 -0.31595,-0.2317 -1.34806,-1.36912 -1.76932,0.18957 -4.97097,3.95992 -9.60493,11.3532 -0.61084,0.94786 -0.54765,0.67403 -0.52659,1.74827 0.0632,2.04316 -0.48446,3.77036 -2.86463,3.77036 -3.85461,0.0421 -5.89776,0.67403 -8.63602,-2.73825 -1.24274,-1.41125 -1.20061,-2.96995 0.12638,-4.69715 l 6.97201,-10.40536 c 1.13742,-1.74825 1.22168,-3.20163 0.25277,-4.38119 -1.34807,-1.07424 -3.55973,-1.07424 -6.59287,-0.0211 l -50.57337,18.00926 c -3.15952,0.84254 -4.78141,0.73722 -4.88673,-0.27382 l 0.0632,-24.68638 c 0.12639,-1.93785 1.39019,-2.92782 3.79143,-3.01208 l 33.7226,-1.76933 c 2.10634,-0.14744 3.64397,0.16851 4.59183,0.9268 1.93784,1.03211 3.77036,1.22167 5.49756,0.56871 4.78141,-1.41125 8.72028,-2.2538 11.77448,-2.54869 l 0.77934,-1.09529 c -0.42126,-0.40021 -0.48445,-0.77935 -0.1685,-1.15849 0.33702,-0.46339 0.96892,-0.75829 1.89571,-0.90573 0.25277,-0.27382 3.07527,-3.20164 4.06525,-3.39122 l 52.49014,0.58978 c 0.42127,-0.0421 0.44234,-0.25276 0.0842,-0.67403 -0.65297,-0.71616 -0.52659,-2.48549 0.25276,-2.63293 0.6319,-0.0632 1.01105,0.29488 1.0953,1.0953 h 1.07423 c 0.14745,-0.86361 0.50553,-1.24275 1.11636,-1.0953 0.63191,0.0421 0.98999,0.4002 1.11638,1.05316 l 6.17159,0.0421 c 0.69509,-1.28487 1.45338,-1.30593 2.31697,-0.0421 l 2.75932,-0.0211 c 0.96892,-0.0211 1.36913,0.21064 1.55869,1.57977 z"
       id="path708"
       style="clip-rule:evenodd;fill:#020617;fill-opacity:1;fill-rule:evenodd;stroke:#373435;stroke-width:0.146283;image-rendering:optimizeQuality;shape-rendering:geometricPrecision;text-rendering:geometricPrecision" /><path
       class="fil0 str0"
       d="m 612.00465,143.27125 h 10.30117 c 1.25953,0 2.29414,0.89967 2.29414,1.97926 v 0.31489 c 0,1.12458 -1.03461,2.02424 -2.29414,2.02424 h -10.30117 c -1.25953,0 -2.29415,-0.89966 -2.29415,-2.02424 v -0.31489 c 0,-1.07959 1.03462,-1.97926 2.29415,-1.97926 z m 27.52976,0.09 h 10.34615 c 1.25953,0 2.29415,0.89966 2.29415,1.97926 v 0.31488 c 0,1.0796 -1.03462,1.97927 -2.29415,1.97927 h -10.34615 c -1.25953,0 -2.29415,-0.89967 -2.29415,-1.97927 v -0.31488 c 0,-1.0796 1.03462,-1.97926 2.29415,-1.97926 z m 117.00148,3.37374 c 0,-1.3495 1.8893,-2.47408 4.22843,-2.47408 2.33913,0 4.22843,1.12458 4.22843,2.47408 0,1.39448 -1.8893,2.51907 -4.22843,2.51907 -2.33913,0 -4.22843,-1.12459 -4.22843,-2.51907 z m -252.53607,24.56087 -0.13495,9.9413 c -0.35987,2.29415 -1.70937,3.59866 -4.00351,4.00351 l -18.26321,-0.22491 c -2.20418,-0.045 -2.4291,-0.49482 -4.00351,-2.38412 -1.43947,-1.57441 -2.51907,-2.96889 -2.51907,-2.96889 l -0.13495,-11.15586 1.16957,-0.045 c 1.3495,2.33913 3.05886,4.0485 5.17308,5.12809 0.13495,5.1281 2.87892,8.36689 8.23193,9.71639 2.06923,-0.31488 2.1592,-1.12458 0.2699,-2.4291 -3.41872,-2.11421 -4.99314,-4.54331 -4.63327,-7.28729 0.13495,-2.11421 1.03461,-3.23879 2.69899,-3.32876 1.70937,0.045 2.78897,-0.62976 3.28378,-2.02424 l 11.15585,0.22491 c 1.21455,0.35987 1.75435,1.0796 1.70937,2.83395 z m 217.40414,-11.5607 h 29.14916 v 2.24916 h -29.14916 z m -25.05568,-10.79599 v 0.2699 c 0,0.94465 -1.79933,1.75435 -3.95853,1.75435 h -17.85836 c -2.20418,0 -3.95852,-0.8097 -3.95852,-1.75435 v -0.2699 c 0,-0.94465 1.75434,-1.70936 3.95852,-1.70936 h 17.85836 c 2.1592,0 3.95853,0.76471 3.95853,1.70936 z m -21.72692,9.35652 h 17.85836 c 2.20418,0 4.00351,0.8097 4.00351,1.75435 v 0.2699 c 0,0.94465 -1.79933,1.70936 -4.00351,1.70936 h -17.85836 c -2.1592,0 -3.95853,-0.76471 -3.95853,-1.70936 v -0.2699 c 0,-0.94465 1.79933,-1.75435 3.95853,-1.75435 z"
       id="path8069"
       style="clip-rule:evenodd;mix-blend-mode:normal;fill:#10b1fc;fill-opacity:1;fill-rule:evenodd;stroke:none;stroke-width:0.312403;filter:url(#filter8071);image-rendering:optimizeQuality;shape-rendering:geometricPrecision;text-rendering:geometricPrecision"
       transform="matrix(0.46825099,0,0,0.46825099,285.42005,143.24671)" /><path
       style="clip-rule:evenodd;fill:#085582;fill-opacity:1;fill-rule:evenodd;stroke:none;stroke-width:0.146283;image-rendering:optimizeQuality;shape-rendering:geometricPrecision;text-rendering:geometricPrecision"
       d="m 521.41846,223.45614 -0.0632,4.65502 c -0.16851,1.07424 -0.80042,1.68508 -1.87465,1.87465 l -8.55177,-0.10531 c -1.03211,-0.0211 -1.13742,-0.23171 -1.87464,-1.11637 -0.67404,-0.73722 -1.17957,-1.39018 -1.17957,-1.39018 l -0.0632,-5.22374 0.54765,-0.0211 c 0.63191,1.09531 1.43232,1.89572 2.4223,2.40124 0.0632,2.40124 1.34805,3.9178 3.85461,4.54971 0.96892,-0.14745 1.01105,-0.52659 0.12638,-1.13743 -1.60082,-0.98998 -2.33804,-2.12741 -2.16953,-3.41228 0.0632,-0.98999 0.48446,-1.51657 1.2638,-1.5587 0.80041,0.0211 1.30594,-0.29488 1.53763,-0.94785 l 5.22374,0.10531 c 0.56872,0.16851 0.82148,0.50553 0.80041,1.327 z"
       id="path21454" /><path
       id="path710"
       style="clip-rule:evenodd;fill:#10b1fc;fill-opacity:1;fill-rule:evenodd;stroke:none;stroke-width:0.146283;image-rendering:optimizeQuality;shape-rendering:geometricPrecision;text-rendering:geometricPrecision"
       d="m 571.99184,210.33362 h 4.82353 c 0.58978,0 1.07423,0.42127 1.07423,0.92678 v 0.14746 c 0,0.52658 -0.48445,0.94784 -1.07423,0.94784 h -4.82353 c -0.58978,0 -1.07424,-0.42126 -1.07424,-0.94784 v -0.14746 c 0,-0.50551 0.48446,-0.92678 1.07424,-0.92678 z m 12.89084,0.0421 h 4.84459 c 0.58978,0 1.07423,0.42126 1.07423,0.92678 v 0.14745 c 0,0.50552 -0.48445,0.92679 -1.07423,0.92679 h -4.84459 c -0.58978,0 -1.07424,-0.42127 -1.07424,-0.92679 v -0.14745 c 0,-0.50552 0.48446,-0.92678 1.07424,-0.92678 z m 54.78605,1.57975 c 0,-0.63191 0.88467,-1.15849 1.97997,-1.15849 1.09529,0 1.97997,0.52658 1.97997,1.15849 0,0.65297 -0.88468,1.17955 -1.97997,1.17955 -1.0953,0 -1.97997,-0.52658 -1.97997,-1.17955 z m -16.45056,6.08734 h 13.64912 v 1.05318 h -13.64912 z m -11.73235,-5.05523 v 0.12638 c 0,0.44233 -0.84253,0.82148 -1.85358,0.82148 h -8.3622 c -1.0321,0 -1.85358,-0.37915 -1.85358,-0.82148 v -0.12638 c 0,-0.44233 0.82148,-0.80041 1.85358,-0.80041 h 8.3622 c 1.01105,0 1.85358,0.35808 1.85358,0.80041 z m -10.17364,4.3812 h 8.36219 c 1.03211,0 1.87464,0.37914 1.87464,0.82147 v 0.12639 c 0,0.44233 -0.84253,0.80041 -1.87464,0.80041 h -8.36219 c -1.01105,0 -1.8536,-0.35808 -1.8536,-0.80041 v -0.12639 c 0,-0.44233 0.84255,-0.82147 1.8536,-0.82147 z" /><g
       id="g3841"
       transform="matrix(0.23159938,0.00307444,-0.00307444,0.23159938,484.30927,148.27432)"><g
         id="g1585"
         transform="matrix(0.04664788,0.04554122,-0.04554122,0.04664788,750.68497,264.60846)"
         style="fill:#0370b5;fill-opacity:1;filter:url(#filter3803)">
	<path
   class="st0"
   d="M 509.915,2.067 C 498.446,-9.417 371.29,29.161 331.086,60.974 L 451.04,180.927 c 31.813,-40.219 70.375,-167.36 58.875,-178.86 z"
   id="path1581"
   style="fill:#0370b5;fill-opacity:1" />
	<path
   class="st0"
   d="m 268.743,122.677 -41.344,10.328 -185.188,185.203 12.047,12.063 -16.359,16.344 -12.063,-12.047 -25.828,25.828 151.594,151.608 25.844,-25.844 -12.063,-12.063 16.359,-16.359 12.063,12.047 185.188,-185.171 10.344,-41.359 c 0,0 18.703,-18.719 48.25,-48.234 L 316.993,74.442 c -29.532,29.5 -48.25,48.235 -48.25,48.235 z"
   id="path1583"
   style="fill:#0370b5;fill-opacity:1" />
</g><g
         id="g587"
         transform="matrix(0.04664788,0.04554122,-0.04554122,0.04664788,749.21398,264.53463)"
         style="fill:#020617;fill-opacity:1">
	<path
   class="st0"
   d="M 509.915,2.067 C 498.446,-9.417 371.29,29.161 331.086,60.974 L 451.04,180.927 c 31.813,-40.219 70.375,-167.36 58.875,-178.86 z"
   id="path583"
   style="fill:#020617;fill-opacity:1" />
	<path
   class="st0"
   d="m 268.743,122.677 -41.344,10.328 -185.188,185.203 12.047,12.063 -16.359,16.344 -12.063,-12.047 -25.828,25.828 151.594,151.608 25.844,-25.844 -12.063,-12.063 16.359,-16.359 12.063,12.047 185.188,-185.171 10.344,-41.359 c 0,0 18.703,-18.719 48.25,-48.234 L 316.993,74.442 c -29.532,29.5 -48.25,48.235 -48.25,48.235 z"
   id="path585"
   style="fill:#020617;fill-opacity:1" />
</g></g><g
       aria-label="Philistine"
       transform="matrix(1.4301037,0,0,1.4301037,-329.88796,437.3861)"
       id="text20375"
       style="font-size:8.82577px;font-family:'Reem Kufi Fun';-inkscape-font-specification:'Reem Kufi Fun';fill:#10b1fc;stroke-width:5.69702;filter:url(#filter19831-3)"><path
         d="m 609.67902,-213.13779 q 1.05909,0 1.65924,0.52955 0.60016,0.52954 0.60016,1.48273 0,0.37951 -0.11474,0.75019 -0.11473,0.37068 -0.37068,0.67958 -0.24712,0.30008 -0.66194,0.48542 -0.40598,0.17651 -0.99731,0.17651 h -0.94435 v 2.2947 h -0.91788 v -6.39868 z m 0.10591,3.20376 q 0.36185,0 0.60015,-0.11474 0.24712,-0.12356 0.37951,-0.3089 0.14121,-0.18534 0.19416,-0.38833 0.0618,-0.203 0.0618,-0.36186 0,-0.17652 -0.0618,-0.37068 -0.053,-0.203 -0.19416,-0.37069 -0.13239,-0.17651 -0.36186,-0.28242 -0.22947,-0.11474 -0.57367,-0.11474 h -0.97966 v 2.31236 z"
         id="path528" /><path
         d="m 613.0328,-206.73911 v -6.85762 h 0.87376 v 4.0069 l -0.0177,-0.15004 q 0.19417,-0.36185 0.57368,-0.59132 0.37951,-0.2383 0.90905,-0.2383 0.52072,0 0.8561,0.3089 0.33538,0.30008 0.34421,0.79432 v 2.72716 h -0.8914 v -2.41826 q -0.009,-0.28242 -0.16769,-0.45894 -0.15887,-0.18534 -0.49425,-0.19416 -0.46776,0 -0.78549,0.39716 -0.3089,0.38833 -0.3089,0.98848 v 1.68572 z"
         id="path530" /><path
         d="m 617.97523,-210.42828 h 0.8914 v 3.68917 h -0.8914 z m -0.0441,-1.32386 q 0,-0.203 0.15887,-0.34421 0.16769,-0.14121 0.36185,-0.14121 0.19417,0 0.35303,0.14121 0.15887,0.14121 0.15887,0.34421 0,0.22064 -0.15887,0.35303 -0.15886,0.13238 -0.35303,0.13238 -0.19416,0 -0.36185,-0.13238 -0.15887,-0.13239 -0.15887,-0.35303 z"
         id="path532" /><path
         d="m 620.26111,-213.59673 h 0.8914 v 6.85762 h -0.8914 z"
         id="path534" /><path
         d="m 622.54699,-210.42828 h 0.89141 v 3.68917 h -0.89141 z m -0.0441,-1.32386 q 0,-0.203 0.15886,-0.34421 0.16769,-0.14121 0.36186,-0.14121 0.19416,0 0.35303,0.14121 0.15886,0.14121 0.15886,0.34421 0,0.22064 -0.15886,0.35303 -0.15887,0.13238 -0.35303,0.13238 -0.19417,0 -0.36186,-0.13238 -0.15886,-0.13239 -0.15886,-0.35303 z"
         id="path536" /><path
         d="m 625.90079,-206.65967 q -0.40598,0 -0.77666,-0.14122 -0.37069,-0.15003 -0.62663,-0.42363 l 0.3795,-0.5119 q 0.22947,0.22065 0.4766,0.33538 0.25594,0.11474 0.47659,0.11474 0.25594,0 0.45011,-0.0971 0.19417,-0.10591 0.19417,-0.3442 0,-0.19417 -0.13239,-0.30008 -0.12356,-0.10591 -0.31773,-0.17651 -0.19416,-0.0706 -0.41481,-0.13239 -0.45894,-0.15004 -0.70606,-0.42364 -0.23829,-0.28242 -0.23829,-0.66193 0,-0.29125 0.14121,-0.5472 0.15004,-0.26477 0.45011,-0.42363 0.30008,-0.16769 0.74137,-0.16769 0.38833,0 0.69723,0.0971 0.3089,0.0883 0.57368,0.3089 l -0.34421,0.53837 q -0.15886,-0.15886 -0.37951,-0.23829 -0.21181,-0.0883 -0.38833,-0.0971 -0.2383,0 -0.41481,0.11474 -0.17652,0.10591 -0.17652,0.29125 0,0.18534 0.12356,0.30008 0.12357,0.10591 0.31773,0.17651 0.203,0.0618 0.40599,0.13239 0.40598,0.13238 0.67076,0.36185 0.2736,0.22947 0.2736,0.67076 0,0.33538 -0.15887,0.61781 -0.15886,0.28242 -0.48542,0.45894 -0.31772,0.16769 -0.81197,0.16769 z"
         id="path538" /><path
         d="M 628.83977,-212.04339 H 629.74 v 1.62394 h 0.98849 v 0.69723 H 629.74 v 2.98311 h -0.90023 v -2.98311 h -0.65311 v -0.69723 h 0.65311 z"
         id="path540" /><path
         d="m 631.70814,-210.42828 h 0.89141 v 3.68917 h -0.89141 z m -0.0441,-1.32386 q 0,-0.203 0.15886,-0.34421 0.16769,-0.14121 0.36186,-0.14121 0.19416,0 0.35303,0.14121 0.15886,0.14121 0.15886,0.34421 0,0.22064 -0.15886,0.35303 -0.15887,0.13238 -0.35303,0.13238 -0.19417,0 -0.36186,-0.13238 -0.15886,-0.13239 -0.15886,-0.35303 z"
         id="path542" /><path
         d="m 634.79717,-210.42828 0.0794,0.8561 -0.0353,-0.12356 q 0.17651,-0.39716 0.56485,-0.63545 0.39716,-0.2383 0.9267,-0.2383 0.52072,0 0.8561,0.3089 0.33538,0.30008 0.34421,0.79432 v 2.72716 h -0.8914 v -2.41826 q -0.009,-0.28242 -0.16769,-0.45894 -0.15887,-0.18534 -0.49425,-0.19416 -0.46776,0 -0.78549,0.38833 -0.3089,0.38833 -0.3089,0.99731 v 1.68572 h -0.8914 v -3.68917 z"
         id="path544" /><path
         d="m 640.6663,-206.65085 q -0.63545,0 -1.09439,-0.24712 -0.45894,-0.25595 -0.70606,-0.69723 -0.24713,-0.45012 -0.24713,-1.01497 0,-0.5472 0.2736,-0.98848 0.28243,-0.45012 0.75019,-0.71489 0.46777,-0.26478 1.04144,-0.26478 0.74137,0 1.22679,0.43247 0.49424,0.42363 0.66193,1.2003 l -3.00959,1.04144 -0.21182,-0.51189 2.41826,-0.88258 -0.18534,0.12356 q -0.10591,-0.28242 -0.33538,-0.48542 -0.22947,-0.21181 -0.62663,-0.21181 -0.49424,0 -0.81197,0.3442 -0.3089,0.33538 -0.3089,0.86493 0,0.56485 0.33538,0.90905 0.33538,0.34421 0.84727,0.34421 0.2383,0 0.45894,-0.0794 0.22065,-0.0883 0.41482,-0.22947 l 0.40598,0.66194 q -0.28242,0.18534 -0.62663,0.30007 -0.33538,0.10591 -0.67076,0.10591 z"
         id="path546" /></g><g
       aria-label="Philistine"
       id="text20379"
       style="font-size:11.2501px;font-family:'Reem Kufi Fun';-inkscape-font-specification:'Reem Kufi Fun';fill:#020617;stroke-width:7.26193"
       transform="matrix(1.1219238,0,0,1.1219238,-66.831174,-19.682547)"><path
         d="m 542.68163,135.71289 q 1.35001,0 2.11502,0.67501 0.765,0.67501 0.765,1.89002 0,0.48375 -0.14625,0.95626 -0.14625,0.4725 -0.4725,0.86625 -0.315,0.38251 -0.84376,0.61876 -0.5175,0.225 -1.27126,0.225 h -1.20376 v 2.92503 h -1.17001 v -8.15633 z m 0.135,4.08379 q 0.46125,0 0.76501,-0.14625 0.315,-0.1575 0.48375,-0.39375 0.18,-0.23626 0.2475,-0.49501 0.0788,-0.25875 0.0788,-0.46125 0,-0.225 -0.0788,-0.47251 -0.0675,-0.25875 -0.2475,-0.4725 -0.16875,-0.225 -0.46125,-0.36 -0.29251,-0.14626 -0.73126,-0.14626 h -1.24876 v 2.94753 z"
         id="path569" /><path
         d="m 546.95666,143.86922 v -8.74133 h 1.11376 v 5.10754 l -0.0225,-0.19125 q 0.2475,-0.46125 0.73126,-0.75375 0.48375,-0.30376 1.15876,-0.30376 0.66375,0 1.09126,0.39376 0.4275,0.3825 0.43875,1.01251 v 3.47628 h -1.13626 v -3.08253 q -0.0113,-0.36 -0.21375,-0.58501 -0.2025,-0.23625 -0.63001,-0.2475 -0.59625,0 -1.00126,0.50626 -0.39375,0.495 -0.39375,1.26001 v 2.14877 z"
         id="path571" /><path
         d="m 553.25671,139.16668 h 1.13626 v 4.70254 h -1.13626 z m -0.0562,-1.68752 q 0,-0.25875 0.2025,-0.43875 0.21375,-0.18001 0.46125,-0.18001 0.24751,0 0.45001,0.18001 0.2025,0.18 0.2025,0.43875 0,0.28125 -0.2025,0.45 -0.2025,0.16876 -0.45001,0.16876 -0.2475,0 -0.46125,-0.16876 -0.2025,-0.16875 -0.2025,-0.45 z"
         id="path573" /><path
         d="m 556.17049,135.12789 h 1.13626 v 8.74133 h -1.13626 z"
         id="path575" /><path
         d="m 559.08428,139.16668 h 1.13626 v 4.70254 h -1.13626 z m -0.0563,-1.68752 q 0,-0.25875 0.2025,-0.43875 0.21375,-0.18001 0.46125,-0.18001 0.24751,0 0.45001,0.18001 0.2025,0.18 0.2025,0.43875 0,0.28125 -0.2025,0.45 -0.2025,0.16876 -0.45001,0.16876 -0.2475,0 -0.46125,-0.16876 -0.2025,-0.16875 -0.2025,-0.45 z"
         id="path577" /><path
         d="m 563.35933,143.97047 q -0.51751,0 -0.99001,-0.18 -0.47251,-0.19126 -0.79876,-0.54001 l 0.48375,-0.6525 q 0.29251,0.28125 0.60751,0.4275 0.32625,0.14625 0.60751,0.14625 0.32625,0 0.57375,-0.12375 0.2475,-0.135 0.2475,-0.43875 0,-0.24751 -0.16875,-0.38251 -0.1575,-0.135 -0.405,-0.225 -0.2475,-0.09 -0.52876,-0.16875 -0.585,-0.19125 -0.9,-0.54001 -0.30376,-0.36 -0.30376,-0.84375 0,-0.37126 0.18,-0.69751 0.19126,-0.3375 0.57376,-0.54 0.3825,-0.21376 0.94501,-0.21376 0.495,0 0.88876,0.12375 0.39375,0.11251 0.73125,0.39376 l -0.43875,0.68625 q -0.2025,-0.2025 -0.48376,-0.30375 -0.27,-0.1125 -0.495,-0.12375 -0.30375,0 -0.52876,0.14625 -0.225,0.135 -0.225,0.37126 0,0.23625 0.1575,0.3825 0.15751,0.135 0.40501,0.225 0.25875,0.0787 0.5175,0.16875 0.51751,0.16875 0.85501,0.46126 0.34875,0.2925 0.34875,0.855 0,0.42751 -0.2025,0.78751 -0.2025,0.36 -0.61875,0.58501 -0.40501,0.21375 -1.03501,0.21375 z"
         id="path579" /><path
         d="m 567.1056,137.10791 h 1.14751 v 2.07002 h 1.26002 v 0.88875 h -1.26002 v 3.80254 h -1.14751 v -3.80254 h -0.8325 v -0.88875 h 0.8325 z"
         id="path581" /><path
         d="m 570.76188,139.16668 h 1.13627 v 4.70254 h -1.13627 z m -0.0562,-1.68752 q 0,-0.25875 0.20251,-0.43875 0.21375,-0.18001 0.46125,-0.18001 0.2475,0 0.45,0.18001 0.20251,0.18 0.20251,0.43875 0,0.28125 -0.20251,0.45 -0.2025,0.16876 -0.45,0.16876 -0.2475,0 -0.46125,-0.16876 -0.20251,-0.16875 -0.20251,-0.45 z"
         id="path584" /><path
         d="m 574.69943,139.16668 0.10125,1.09125 -0.045,-0.1575 q 0.225,-0.50625 0.72,-0.81 0.50626,-0.30376 1.18127,-0.30376 0.66375,0 1.09126,0.39376 0.4275,0.3825 0.43875,1.01251 v 3.47628 h -1.13626 v -3.08253 q -0.0113,-0.36 -0.21375,-0.58501 -0.2025,-0.23625 -0.63001,-0.2475 -0.59625,0 -1.00126,0.49501 -0.39375,0.495 -0.39375,1.27126 v 2.14877 h -1.13626 v -4.70254 z"
         id="path586" /><path
         d="m 582.18074,143.98172 q -0.81001,0 -1.39502,-0.315 -0.585,-0.32626 -0.9,-0.88876 -0.31501,-0.57376 -0.31501,-1.29376 0,-0.69751 0.34876,-1.26002 0.36,-0.57375 0.95626,-0.91125 0.59625,-0.33751 1.32751,-0.33751 0.94501,0 1.56376,0.55126 0.63001,0.54 0.84376,1.53001 l -3.83629,1.32751 -0.27,-0.6525 3.08253,-1.12501 -0.23625,0.1575 q -0.135,-0.36 -0.42751,-0.61876 -0.2925,-0.27 -0.79875,-0.27 -0.63001,0 -1.03501,0.43876 -0.39376,0.4275 -0.39376,1.10251 0,0.72 0.42751,1.15876 0.4275,0.43875 1.08001,0.43875 0.30375,0 0.585,-0.10125 0.28126,-0.1125 0.52876,-0.2925 l 0.5175,0.84375 q -0.36,0.23626 -0.79876,0.38251 -0.4275,0.135 -0.855,0.135 z"
         id="path588" /></g><g
       id="g4476"
       transform="matrix(0.84328588,0,0,1.3638733,66.576078,-81.58135)"><g
         id="g20387"
         transform="matrix(0.02092441,0.00869074,-0.02097764,0.00866869,533.94885,154.74991)"
         style="fill:#10b1fc;fill-opacity:1;filter:url(#filter17501-0)">
	<path
   class="st0"
   d="M 509.915,2.067 C 498.446,-9.417 371.29,29.161 331.086,60.974 L 451.04,180.927 c 31.813,-40.219 70.375,-167.36 58.875,-178.86 z"
   id="path20383"
   style="fill:#10b1fc;fill-opacity:1" />
	<path
   class="st0"
   d="m 268.743,122.677 -41.344,10.328 -185.188,185.203 12.047,12.063 -16.359,16.344 -12.063,-12.047 -25.828,25.828 151.594,151.608 25.844,-25.844 -12.063,-12.063 16.359,-16.359 12.063,12.047 185.188,-185.171 10.344,-41.359 c 0,0 18.703,-18.719 48.25,-48.234 L 316.993,74.442 c -29.532,29.5 -48.25,48.235 -48.25,48.235 z"
   id="path20385"
   style="fill:#10b1fc;fill-opacity:1" />
</g><g
         id="g20393"
         transform="matrix(0.01952365,0.00869074,-0.01957333,0.00866869,533.57739,154.75134)"
         style="fill:#020617;fill-opacity:1">
	<path
   class="st0"
   d="M 509.915,2.067 C 498.446,-9.417 371.29,29.161 331.086,60.974 L 451.04,180.927 c 31.813,-40.219 70.375,-167.36 58.875,-178.86 z"
   id="path20389"
   style="fill:#020617;fill-opacity:1" />
	<path
   class="st0"
   d="m 268.743,122.677 -41.344,10.328 -185.188,185.203 12.047,12.063 -16.359,16.344 -12.063,-12.047 -25.828,25.828 151.594,151.608 25.844,-25.844 -12.063,-12.063 16.359,-16.359 12.063,12.047 185.188,-185.171 10.344,-41.359 c 0,0 18.703,-18.719 48.25,-48.234 L 316.993,74.442 c -29.532,29.5 -48.25,48.235 -48.25,48.235 z"
   id="path20391"
   style="fill:#020617;fill-opacity:1" />
</g></g><g
       aria-label="The Occupiers"
       transform="matrix(1.3293584,0,0,1.3293584,-42.762626,381.55863)"
       id="text11723"
       style="font-size:8.82577px;font-family:'Reem Kufi Fun';-inkscape-font-specification:'Reem Kufi Fun';fill:#10b1fc;stroke-width:5.69702;filter:url(#filter12278)"><path
         d="m 344.13977,-214.95435 h 4.26285 v 0.89141 h -1.69455 v 5.50728 h -0.9267 v -5.50728 h -1.6416 z"
         id="path611" /><path
         d="m 349.53233,-208.55566 v -6.85763 h 0.87375 v 4.0069 l -0.0176,-0.15004 q 0.19416,-0.36185 0.57367,-0.59132 0.37951,-0.2383 0.90906,-0.2383 0.52072,0 0.8561,0.3089 0.33538,0.30008 0.3442,0.79432 v 2.72717 h -0.8914 v -2.41827 q -0.009,-0.28242 -0.16769,-0.45894 -0.15887,-0.18534 -0.49424,-0.19416 -0.46777,0 -0.7855,0.39716 -0.3089,0.38833 -0.3089,0.98848 v 1.68573 z"
         id="path613" /><path
         d="m 356.2046,-208.46741 q -0.63545,0 -1.09439,-0.24712 -0.45894,-0.25595 -0.70606,-0.69723 -0.24712,-0.45012 -0.24712,-1.01497 0,-0.5472 0.27359,-0.98848 0.28243,-0.45012 0.75019,-0.71489 0.46777,-0.26477 1.04145,-0.26477 0.74136,0 1.22678,0.43246 0.49424,0.42364 0.66193,1.2003 l -3.00959,1.04144 -0.21182,-0.51189 2.41827,-0.88258 -0.18535,0.12356 q -0.1059,-0.28242 -0.33537,-0.48541 -0.22948,-0.21182 -0.62663,-0.21182 -0.49425,0 -0.81198,0.3442 -0.3089,0.33538 -0.3089,0.86493 0,0.56485 0.33538,0.90905 0.33538,0.34421 0.84728,0.34421 0.23829,0 0.45894,-0.0794 0.22064,-0.0883 0.41481,-0.22947 l 0.40598,0.66193 q -0.28242,0.18534 -0.62663,0.30007 -0.33538,0.10591 -0.67076,0.10591 z"
         id="path615" /><path
         d="m 360.07028,-211.75059 q 0,-0.66194 0.24712,-1.25326 0.25595,-0.59133 0.70606,-1.04144 0.45012,-0.45894 1.04145,-0.71489 0.59132,-0.26477 1.26208,-0.26477 0.67076,0 1.26209,0.26477 0.60015,0.25595 1.05026,0.71489 0.45894,0.45011 0.71489,1.04144 0.25595,0.59132 0.25595,1.25326 0,0.67958 -0.25595,1.27091 -0.25595,0.59132 -0.71489,1.04144 -0.45011,0.45011 -1.05026,0.70606 -0.59133,0.24712 -1.26209,0.24712 -0.67076,0 -1.26208,-0.24712 -0.59133,-0.25595 -1.04145,-0.69724 -0.45011,-0.44128 -0.70606,-1.03261 -0.24712,-0.60015 -0.24712,-1.28856 z m 0.95318,0.009 q 0,0.65311 0.30891,1.19148 0.3089,0.53837 0.83844,0.8561 0.52955,0.31773 1.18266,0.31773 0.64428,0 1.165,-0.31773 0.52072,-0.31773 0.82962,-0.8561 0.3089,-0.53837 0.3089,-1.2003 0,-0.66194 -0.31772,-1.20031 -0.30891,-0.5472 -0.83845,-0.86492 -0.52072,-0.31773 -1.165,-0.31773 -0.65311,0 -1.18266,0.32655 -0.52072,0.31773 -0.82962,0.86493 -0.30008,0.53837 -0.30008,1.2003 z"
         id="path617" /><path
         d="m 370.8289,-208.89987 q -0.24712,0.20299 -0.60015,0.31773 -0.3442,0.11473 -0.69723,0.11473 -0.60016,0 -1.06792,-0.23829 -0.45894,-0.2383 -0.71489,-0.67076 -0.25595,-0.43246 -0.25595,-1.02379 0,-0.60015 0.2736,-1.03262 0.2736,-0.43246 0.71489,-0.66193 0.45011,-0.23829 0.96201,-0.23829 0.45894,0 0.80314,0.12356 0.35303,0.12356 0.60898,0.3442 l -0.44129,0.57368 q -0.15004,-0.12356 -0.37951,-0.22065 -0.22947,-0.0971 -0.51189,-0.0971 -0.31773,0 -0.5825,0.15886 -0.25595,0.15887 -0.40599,0.43247 -0.15003,0.27359 -0.15003,0.6178 0,0.33538 0.15003,0.60898 0.15887,0.2736 0.43247,0.43246 0.28242,0.15886 0.63545,0.15886 0.22947,0 0.42364,-0.0706 0.20299,-0.0706 0.35303,-0.18534 z"
         id="path619" /><path
         d="m 374.88875,-208.89987 q -0.24712,0.20299 -0.60015,0.31773 -0.34421,0.11473 -0.69724,0.11473 -0.60015,0 -1.06792,-0.23829 -0.45894,-0.2383 -0.71489,-0.67076 -0.25594,-0.43246 -0.25594,-1.02379 0,-0.60015 0.2736,-1.03262 0.2736,-0.43246 0.71488,-0.66193 0.45012,-0.23829 0.96201,-0.23829 0.45894,0 0.80315,0.12356 0.35303,0.12356 0.60898,0.3442 l -0.44129,0.57368 q -0.15004,-0.12356 -0.37951,-0.22065 -0.22947,-0.0971 -0.5119,-0.0971 -0.31772,0 -0.5825,0.15886 -0.25594,0.15887 -0.40598,0.43247 -0.15004,0.27359 -0.15004,0.6178 0,0.33538 0.15004,0.60898 0.15886,0.2736 0.43246,0.43246 0.28243,0.15886 0.63546,0.15886 0.22947,0 0.42363,-0.0706 0.203,-0.0706 0.35303,-0.18534 z"
         id="path621" /><path
         d="m 377.11284,-208.40563 q -0.5119,0 -0.83845,-0.3089 -0.32656,-0.3089 -0.34421,-0.79432 v -2.73599 h 0.89141 v 2.41827 q 0.0177,0.29125 0.16768,0.46776 0.15004,0.17652 0.4766,0.19417 0.30007,0 0.53837,-0.17652 0.23829,-0.18534 0.37068,-0.50307 0.14121,-0.31772 0.14121,-0.71488 v -1.68573 h 0.89141 v 3.68918 h -0.80315 l -0.0706,-0.86493 0.0353,0.14121 q -0.16769,0.37951 -0.56485,0.62663 -0.38834,0.24712 -0.8914,0.24712 z"
         id="path623" /><path
         d="m 383.01727,-208.46741 q -0.40598,0 -0.78549,-0.17651 -0.37068,-0.18534 -0.5825,-0.50307 l 0.053,-0.2736 v 2.63891 h -0.8914 v -5.52494 h 0.76784 l 0.12356,0.90906 -0.0882,-0.25595 q 0.26477,-0.32655 0.66193,-0.52955 0.40598,-0.21181 0.90905,-0.21181 0.52072,0 0.93553,0.24712 0.41482,0.24712 0.65311,0.69723 0.2383,0.44129 0.2383,1.04144 0,0.60016 -0.26478,1.04145 -0.25594,0.43246 -0.70606,0.67075 -0.45011,0.22947 -1.02379,0.22947 z m -0.17651,-0.70606 q 0.3442,0 0.62663,-0.15886 0.29125,-0.15887 0.45894,-0.43246 0.17651,-0.28243 0.17651,-0.63546 0,-0.36186 -0.15886,-0.64428 -0.15887,-0.28243 -0.43246,-0.44129 -0.2736,-0.15886 -0.60898,-0.15886 -0.45894,0 -0.77667,0.24712 -0.3089,0.24712 -0.42364,0.6531 v 0.66194 q 0.0706,0.39716 0.38834,0.6531 0.31772,0.25595 0.75019,0.25595 z"
         id="path625" /><path
         d="m 386.08864,-212.24484 h 0.8914 v 3.68918 h -0.8914 z m -0.0441,-1.32386 q 0,-0.20299 0.15886,-0.34421 0.16769,-0.14121 0.36186,-0.14121 0.19416,0 0.35303,0.14121 0.15886,0.14122 0.15886,0.34421 0,0.22064 -0.15886,0.35303 -0.15887,0.13239 -0.35303,0.13239 -0.19417,0 -0.36186,-0.13239 -0.15886,-0.13239 -0.15886,-0.35303 z"
         id="path627" /><path
         d="m 390.10437,-208.46741 q -0.63546,0 -1.0944,-0.24712 -0.45894,-0.25595 -0.70606,-0.69723 -0.24712,-0.45012 -0.24712,-1.01497 0,-0.5472 0.2736,-0.98848 0.28242,-0.45012 0.75019,-0.71489 0.46776,-0.26477 1.04144,-0.26477 0.74136,0 1.22678,0.43246 0.49424,0.42364 0.66193,1.2003 l -3.00958,1.04144 -0.21182,-0.51189 2.41826,-0.88258 -0.18534,0.12356 q -0.10591,-0.28242 -0.33538,-0.48541 -0.22947,-0.21182 -0.62663,-0.21182 -0.49424,0 -0.81197,0.3442 -0.3089,0.33538 -0.3089,0.86493 0,0.56485 0.33537,0.90905 0.33538,0.34421 0.84728,0.34421 0.23829,0 0.45894,-0.0794 0.22064,-0.0883 0.41481,-0.22947 l 0.40599,0.66193 q -0.28243,0.18534 -0.62663,0.30007 -0.33538,0.10591 -0.67076,0.10591 z"
         id="path629" /><path
         d="m 393.80236,-212.24484 0.0883,1.0591 -0.0353,-0.14122 q 0.15003,-0.33538 0.41481,-0.57367 0.2736,-0.2383 0.56485,-0.36186 0.30007,-0.13238 0.50307,-0.13238 l -0.0441,0.88257 q -0.41481,-0.0265 -0.73254,0.15887 -0.3089,0.18534 -0.48542,0.49424 -0.17652,0.3089 -0.17652,0.66193 v 1.6416 h -0.8914 v -3.68918 z"
         id="path631" /><path
         d="m 397.43859,-208.47623 q -0.40599,0 -0.77667,-0.14121 -0.37068,-0.15004 -0.62663,-0.42364 l 0.37951,-0.5119 q 0.22947,0.22065 0.47659,0.33538 0.25595,0.11474 0.47659,0.11474 0.25595,0 0.45011,-0.0971 0.19417,-0.1059 0.19417,-0.3442 0,-0.19417 -0.13239,-0.30008 -0.12356,-0.10591 -0.31772,-0.17651 -0.19417,-0.0706 -0.41481,-0.13239 -0.45895,-0.15004 -0.70607,-0.42364 -0.23829,-0.28242 -0.23829,-0.66193 0,-0.29125 0.14121,-0.5472 0.15004,-0.26477 0.45011,-0.42363 0.30008,-0.16769 0.74137,-0.16769 0.38833,0 0.69723,0.0971 0.30891,0.0883 0.57368,0.3089 l -0.34421,0.53837 q -0.15886,-0.15886 -0.3795,-0.23829 -0.21182,-0.0883 -0.38834,-0.0971 -0.23829,0 -0.41481,0.11473 -0.17651,0.10591 -0.17651,0.29125 0,0.18534 0.12356,0.30008 0.12356,0.10591 0.31772,0.17651 0.203,0.0618 0.40599,0.13239 0.40599,0.13239 0.67076,0.36186 0.2736,0.22947 0.2736,0.67075 0,0.33538 -0.15887,0.61781 -0.15886,0.28242 -0.48541,0.45894 -0.31773,0.16769 -0.81197,0.16769 z"
         id="path633" /></g><g
       aria-label="Only Understand the language of the bullets."
       transform="matrix(1.3293584,0,0,1.3293584,-42.762626,381.55863)"
       id="text11727"
       style="font-size:8.82577px;font-family:'Reem Kufi Fun';-inkscape-font-specification:'Reem Kufi Fun';fill:#10b1fc;stroke-width:5.69702;filter:url(#filter12278)"><path
         d="m 366.3056,-198.03631 q 0,-0.66194 0.24712,-1.25326 0.25594,-0.59133 0.70606,-1.04144 0.45011,-0.45894 1.04144,-0.71489 0.59133,-0.26477 1.26209,-0.26477 0.67075,0 1.26208,0.26477 0.60015,0.25595 1.05027,0.71489 0.45894,0.45011 0.71488,1.04144 0.25595,0.59132 0.25595,1.25326 0,0.67958 -0.25595,1.27091 -0.25594,0.59132 -0.71488,1.04144 -0.45012,0.45011 -1.05027,0.70606 -0.59133,0.24712 -1.26208,0.24712 -0.67076,0 -1.26209,-0.24712 -0.59133,-0.25595 -1.04144,-0.69724 -0.45012,-0.44128 -0.70606,-1.03261 -0.24712,-0.60015 -0.24712,-1.28856 z m 0.95318,0.009 q 0,0.65311 0.3089,1.19148 0.3089,0.53837 0.83845,0.8561 0.52955,0.31773 1.18265,0.31773 0.64428,0 1.165,-0.31773 0.52072,-0.31773 0.82963,-0.8561 0.3089,-0.53837 0.3089,-1.2003 0,-0.66194 -0.31773,-1.20031 -0.3089,-0.5472 -0.83845,-0.86492 -0.52072,-0.31773 -1.165,-0.31773 -0.65311,0 -1.18265,0.32655 -0.52072,0.31773 -0.82962,0.86493 -0.30008,0.53837 -0.30008,1.2003 z"
         id="path660" /><path
         d="m 374.84895,-198.53056 0.0794,0.8561 -0.0353,-0.12356 q 0.17651,-0.39716 0.56485,-0.63545 0.39716,-0.2383 0.9267,-0.2383 0.52072,0 0.8561,0.3089 0.33538,0.30008 0.34421,0.79432 v 2.72717 h -0.8914 v -2.41827 q -0.009,-0.28242 -0.16769,-0.45894 -0.15887,-0.18534 -0.49425,-0.19416 -0.46776,0 -0.78549,0.38833 -0.3089,0.38833 -0.3089,0.99731 v 1.68573 h -0.89141 v -3.68918 z"
         id="path662" /><path
         d="m 378.98823,-201.69901 h 0.8914 v 6.85763 h -0.8914 z"
         id="path664" /><path
         d="m 381.59184,-193.06741 2.42709,-5.46315 h 0.82079 l -2.38295,5.46315 z m 0.91788,-1.7475 -1.77398,-3.71565 h 0.99731 l 1.47391,3.26554 z"
         id="path666" /><path
         d="m 387.87578,-197.12726 q 0,0.40599 0.19417,0.74137 0.20299,0.32655 0.5472,0.52072 0.3442,0.19416 0.75901,0.19416 0.44129,0 0.7855,-0.19416 0.3442,-0.19417 0.53837,-0.52072 0.20299,-0.33538 0.20299,-0.74137 v -4.11281 h 0.90905 v 4.13929 q 0,0.69723 -0.32655,1.22678 -0.32655,0.52072 -0.88258,0.81197 -0.54719,0.29125 -1.22678,0.29125 v 0 q -0.67958,0 -1.23561,-0.29125 -0.54719,-0.29125 -0.87375,-0.81197 -0.31773,-0.52955 -0.31773,-1.22678 v -4.13929 h 0.92671 z"
         id="path668" /><path
         d="m 394.12443,-198.53056 0.0794,0.8561 -0.0353,-0.12356 q 0.17652,-0.39716 0.56485,-0.63545 0.39716,-0.2383 0.92671,-0.2383 0.52072,0 0.85609,0.3089 0.33538,0.30008 0.34421,0.79432 v 2.72717 h -0.8914 v -2.41827 q -0.009,-0.28242 -0.16769,-0.45894 -0.15887,-0.18534 -0.49425,-0.19416 -0.46776,0 -0.78549,0.38833 -0.3089,0.38833 -0.3089,0.99731 v 1.68573 h -0.8914 v -3.68918 z"
         id="path670" /><path
         d="m 399.77292,-194.75313 q -0.52072,0 -0.93553,-0.23829 -0.41481,-0.24712 -0.65311,-0.69724 -0.2383,-0.45011 -0.2383,-1.05027 0,-0.6178 0.25595,-1.05026 0.25595,-0.43246 0.68841,-0.66193 0.44129,-0.22948 0.98849,-0.22948 0.42364,0 0.80314,0.17652 0.38834,0.16769 0.60898,0.47659 l -0.0353,0.3089 v -3.98042 h 0.8914 v 6.85763 h -0.90023 v -0.88258 l 0.0971,0.23829 q -0.26478,0.31773 -0.67076,0.52955 -0.39716,0.20299 -0.90023,0.20299 z m 0.2736,-0.75019 q 0.46776,0 0.77667,-0.23829 0.31772,-0.24713 0.42363,-0.65311 v -0.73254 q -0.0971,-0.37068 -0.43246,-0.60898 -0.32655,-0.23829 -0.76784,-0.23829 -0.31773,0 -0.59133,0.15886 -0.2736,0.15004 -0.44129,0.43246 -0.15886,0.2736 -0.15886,0.63546 0,0.3442 0.15886,0.62663 0.16769,0.28242 0.44129,0.45011 0.2736,0.16769 0.59133,0.16769 z"
         id="path672" /><path
         d="m 405.27137,-194.75313 q -0.63545,0 -1.09439,-0.24712 -0.45894,-0.25595 -0.70607,-0.69723 -0.24712,-0.45012 -0.24712,-1.01497 0,-0.5472 0.2736,-0.98848 0.28243,-0.45012 0.75019,-0.71489 0.46777,-0.26478 1.04144,-0.26478 0.74137,0 1.22678,0.43247 0.49425,0.42363 0.66194,1.2003 l -3.00959,1.04144 -0.21182,-0.51189 2.41826,-0.88258 -0.18534,0.12356 q -0.10591,-0.28242 -0.33538,-0.48541 -0.22947,-0.21182 -0.62663,-0.21182 -0.49424,0 -0.81197,0.3442 -0.3089,0.33538 -0.3089,0.86493 0,0.56485 0.33538,0.90905 0.33538,0.34421 0.84727,0.34421 0.2383,0 0.45894,-0.0794 0.22065,-0.0883 0.41481,-0.22947 l 0.40599,0.66194 q -0.28243,0.18534 -0.62663,0.30007 -0.33538,0.10591 -0.67076,0.10591 z"
         id="path674" /><path
         d="m 408.96937,-198.53056 0.0882,1.0591 -0.0353,-0.14122 q 0.15004,-0.33538 0.41481,-0.57367 0.2736,-0.2383 0.56485,-0.36186 0.30008,-0.13239 0.50307,-0.13239 l -0.0441,0.88258 q -0.41481,-0.0265 -0.73254,0.15887 -0.3089,0.18534 -0.48542,0.49424 -0.17651,0.3089 -0.17651,0.66193 v 1.6416 h -0.8914 v -3.68918 z"
         id="path676" /><path
         d="m 412.60559,-194.76195 q -0.40599,0 -0.77667,-0.14122 -0.37068,-0.15003 -0.62663,-0.42363 l 0.37951,-0.5119 q 0.22947,0.22065 0.47659,0.33538 0.25595,0.11474 0.47659,0.11474 0.25595,0 0.45012,-0.0971 0.19416,-0.10591 0.19416,-0.3442 0,-0.19417 -0.13238,-0.30008 -0.12356,-0.10591 -0.31773,-0.17651 -0.19417,-0.0706 -0.41481,-0.13239 -0.45894,-0.15004 -0.70606,-0.42364 -0.2383,-0.28242 -0.2383,-0.66193 0,-0.29125 0.14121,-0.5472 0.15004,-0.26477 0.45012,-0.42363 0.30007,-0.16769 0.74136,-0.16769 0.38834,0 0.69724,0.0971 0.3089,0.0883 0.57367,0.3089 l -0.3442,0.53837 q -0.15887,-0.15886 -0.37951,-0.23829 -0.21182,-0.0883 -0.38833,-0.0971 -0.2383,0 -0.41481,0.11474 -0.17652,0.10591 -0.17652,0.29125 0,0.18534 0.12356,0.30008 0.12356,0.10591 0.31773,0.17651 0.20299,0.0618 0.40598,0.13239 0.40599,0.13238 0.67076,0.36185 0.2736,0.22947 0.2736,0.67076 0,0.33538 -0.15886,0.61781 -0.15887,0.28242 -0.48542,0.45894 -0.31773,0.16769 -0.81197,0.16769 z"
         id="path678" /><path
         d="m 415.54456,-200.14567 h 0.90023 v 1.62394 h 0.98849 v 0.69723 h -0.98849 v 2.98312 h -0.90023 v -2.98312 h -0.6531 v -0.69723 h 0.6531 z"
         id="path680" /><path
         d="m 419.95745,-194.75313 q -0.52072,0 -0.94436,-0.22064 -0.42364,-0.22065 -0.67076,-0.64428 -0.24712,-0.43247 -0.24712,-1.06792 0,-0.6178 0.25595,-1.05909 0.26477,-0.45012 0.68841,-0.68841 0.43246,-0.24713 0.93553,-0.24713 0.52955,0 0.87375,0.22065 0.34421,0.22064 0.52955,0.52955 l -0.053,0.14121 0.0883,-0.74137 h 0.8208 v 3.68918 h -0.89141 v -0.93554 l 0.0883,0.22065 q -0.0353,0.0706 -0.15004,0.20299 -0.11473,0.13239 -0.30007,0.2736 -0.18534,0.13239 -0.45012,0.22947 -0.25594,0.0971 -0.57367,0.0971 z m 0.23829,-0.73254 q 0.44129,0 0.74137,-0.22947 0.3089,-0.23829 0.40598,-0.64428 v -0.75901 q -0.10591,-0.36186 -0.43246,-0.60016 -0.31773,-0.23829 -0.74136,-0.23829 -0.31773,0 -0.5825,0.15886 -0.26478,0.15004 -0.42364,0.43246 -0.15887,0.2736 -0.15887,0.63546 0,0.35303 0.15887,0.63546 0.16769,0.28242 0.44129,0.45011 0.2736,0.15886 0.59132,0.15886 z"
         id="path682" /><path
         d="m 424.43211,-198.53056 0.0794,0.8561 -0.0353,-0.12356 q 0.17651,-0.39716 0.56485,-0.63545 0.39716,-0.2383 0.9267,-0.2383 0.52072,0 0.8561,0.3089 0.33538,0.30008 0.34421,0.79432 v 2.72717 h -0.8914 v -2.41827 q -0.009,-0.28242 -0.16769,-0.45894 -0.15887,-0.18534 -0.49425,-0.19416 -0.46776,0 -0.78549,0.38833 -0.3089,0.38833 -0.3089,0.99731 v 1.68573 h -0.89141 v -3.68918 z"
         id="path684" /><path
         d="m 430.0806,-194.75313 q -0.52072,0 -0.93553,-0.23829 -0.41481,-0.24712 -0.65311,-0.69724 -0.23829,-0.45011 -0.23829,-1.05027 0,-0.6178 0.25594,-1.05026 0.25595,-0.43246 0.68841,-0.66193 0.44129,-0.22948 0.98849,-0.22948 0.42364,0 0.80314,0.17652 0.38834,0.16769 0.60898,0.47659 l -0.0353,0.3089 v -3.98042 h 0.8914 v 6.85763 h -0.90023 v -0.88258 l 0.0971,0.23829 q -0.26478,0.31773 -0.67076,0.52955 -0.39716,0.20299 -0.90023,0.20299 z m 0.2736,-0.75019 q 0.46776,0 0.77667,-0.23829 0.31772,-0.24713 0.42363,-0.65311 v -0.73254 q -0.0971,-0.37068 -0.43246,-0.60898 -0.32655,-0.23829 -0.76784,-0.23829 -0.31773,0 -0.59133,0.15886 -0.2736,0.15004 -0.44129,0.43246 -0.15886,0.2736 -0.15886,0.63546 0,0.3442 0.15886,0.62663 0.16769,0.28242 0.44129,0.45011 0.2736,0.16769 0.59133,0.16769 z"
         id="path686" /><path
         d="m 435.34958,-200.14567 h 0.90022 v 1.62394 h 0.98849 v 0.69723 h -0.98849 v 2.98312 h -0.90022 v -2.98312 h -0.65311 v -0.69723 h 0.65311 z"
         id="path688" /><path
         d="m 438.21794,-194.84138 v -6.85763 h 0.87375 v 4.0069 l -0.0177,-0.15004 q 0.19417,-0.36185 0.57368,-0.59132 0.3795,-0.2383 0.90905,-0.2383 0.52072,0 0.8561,0.3089 0.33538,0.30008 0.34421,0.79432 v 2.72717 h -0.89141 v -2.41827 q -0.009,-0.28242 -0.16769,-0.45894 -0.15886,-0.18534 -0.49424,-0.19416 -0.46777,0 -0.78549,0.39716 -0.30891,0.38833 -0.30891,0.98848 v 1.68573 z"
         id="path690" /><path
         d="m 444.89022,-194.75313 q -0.63545,0 -1.09439,-0.24712 -0.45894,-0.25595 -0.70607,-0.69723 -0.24712,-0.45012 -0.24712,-1.01497 0,-0.5472 0.2736,-0.98848 0.28243,-0.45012 0.75019,-0.71489 0.46777,-0.26478 1.04144,-0.26478 0.74137,0 1.22679,0.43247 0.49424,0.42363 0.66193,1.2003 l -3.00959,1.04144 -0.21182,-0.51189 2.41826,-0.88258 -0.18534,0.12356 q -0.10591,-0.28242 -0.33538,-0.48541 -0.22947,-0.21182 -0.62663,-0.21182 -0.49424,0 -0.81197,0.3442 -0.3089,0.33538 -0.3089,0.86493 0,0.56485 0.33538,0.90905 0.33538,0.34421 0.84727,0.34421 0.2383,0 0.45894,-0.0794 0.22065,-0.0883 0.41481,-0.22947 l 0.40599,0.66194 q -0.28242,0.18534 -0.62663,0.30007 -0.33538,0.10591 -0.67076,0.10591 z"
         id="path692" /><path
         d="m 448.94124,-201.69901 h 0.8914 v 6.85763 h -0.8914 z"
         id="path694" /><path
         d="m 452.77163,-194.75313 q -0.52072,0 -0.94436,-0.22064 -0.42363,-0.22065 -0.67076,-0.64428 -0.24712,-0.43247 -0.24712,-1.06792 0,-0.6178 0.25595,-1.05909 0.26477,-0.45012 0.68841,-0.68841 0.43246,-0.24713 0.93553,-0.24713 0.52955,0 0.87375,0.22065 0.34421,0.22064 0.52955,0.52955 l -0.053,0.14121 0.0883,-0.74137 h 0.8208 v 3.68918 h -0.8914 v -0.93554 l 0.0882,0.22065 q -0.0353,0.0706 -0.15003,0.20299 -0.11474,0.13239 -0.30008,0.2736 -0.18534,0.13239 -0.45011,0.22947 -0.25595,0.0971 -0.57368,0.0971 z m 0.2383,-0.73254 q 0.44128,0 0.74136,-0.22947 0.3089,-0.23829 0.40599,-0.64428 v -0.75901 q -0.10591,-0.36186 -0.43247,-0.60016 -0.31772,-0.23829 -0.74136,-0.23829 -0.31773,0 -0.5825,0.15886 -0.26478,0.15004 -0.42364,0.43246 -0.15886,0.2736 -0.15886,0.63546 0,0.35303 0.15886,0.63546 0.16769,0.28242 0.44129,0.45011 0.2736,0.15886 0.59133,0.15886 z"
         id="path696" /><path
         d="m 457.24629,-198.53056 0.0794,0.8561 -0.0353,-0.12356 q 0.17652,-0.39716 0.56485,-0.63545 0.39716,-0.2383 0.92671,-0.2383 0.52072,0 0.8561,0.3089 0.33537,0.30008 0.3442,0.79432 v 2.72717 h -0.8914 v -2.41827 q -0.009,-0.28242 -0.16769,-0.45894 -0.15887,-0.18534 -0.49425,-0.19416 -0.46776,0 -0.78549,0.38833 -0.3089,0.38833 -0.3089,0.99731 v 1.68573 h -0.8914 v -3.68918 z"
         id="path698" /><path
         d="m 463.18603,-193.00562 q -0.42363,0 -0.74136,-0.10591 -0.31773,-0.0971 -0.57368,-0.26478 -0.24712,-0.16769 -0.47659,-0.37068 l 0.52955,-0.60898 q 0.2736,0.26478 0.56485,0.41481 0.30007,0.15004 0.67958,0.15004 0.60015,0 0.92671,-0.28242 0.32655,-0.28243 0.33538,-0.75902 v -0.96201 l 0.0618,0.16769 q -0.15887,0.37068 -0.56485,0.62663 -0.39716,0.24712 -0.98849,0.24712 -0.51189,0 -0.93553,-0.25594 -0.42364,-0.25595 -0.67959,-0.69724 -0.25594,-0.44129 -0.25594,-0.99731 0,-0.57368 0.26477,-1.01497 0.2736,-0.45011 0.71489,-0.70606 0.44129,-0.25595 0.94436,-0.25595 0.49424,0 0.88257,0.18535 0.39716,0.18534 0.5825,0.47659 l -0.0441,0.15004 0.0883,-0.66194 h 0.8208 v 3.71565 q 0,0.50307 -0.26477,0.90906 -0.26478,0.41481 -0.74137,0.6531 -0.47659,0.24713 -1.1297,0.24713 z m -1.21795,-3.72448 q 0,0.35303 0.15886,0.63546 0.16769,0.28242 0.44129,0.45011 0.28242,0.15886 0.62663,0.15886 0.46776,0 0.79432,-0.23829 0.32655,-0.24712 0.44129,-0.62663 v -0.75902 q -0.11474,-0.37951 -0.45012,-0.60898 -0.33538,-0.23829 -0.78549,-0.23829 -0.34421,0 -0.62663,0.15886 -0.2736,0.15887 -0.44129,0.43246 -0.15886,0.2736 -0.15886,0.63546 z"
         id="path700" /><path
         d="m 467.89899,-194.69135 q -0.51189,0 -0.83845,-0.3089 -0.32655,-0.3089 -0.3442,-0.79432 v -2.73599 h 0.8914 v 2.41826 q 0.0177,0.29125 0.16769,0.46777 0.15004,0.17652 0.47659,0.19417 0.30008,0 0.53838,-0.17652 0.23829,-0.18534 0.37068,-0.50307 0.14121,-0.31773 0.14121,-0.71488 v -1.68573 h 0.8914 v 3.68918 h -0.80314 l -0.0706,-0.86493 0.0353,0.14121 q -0.16769,0.37951 -0.56485,0.62663 -0.38834,0.24712 -0.89141,0.24712 z"
         id="path702" /><path
         d="m 473.1415,-194.75313 q -0.52073,0 -0.94436,-0.22064 -0.42364,-0.22065 -0.67076,-0.64428 -0.24712,-0.43247 -0.24712,-1.06792 0,-0.6178 0.25595,-1.05909 0.26477,-0.45012 0.68841,-0.68841 0.43246,-0.24713 0.93553,-0.24713 0.52954,0 0.87375,0.22065 0.3442,0.22064 0.52954,0.52955 l -0.0529,0.14121 0.0883,-0.74137 h 0.82079 v 3.68918 h -0.8914 v -0.93554 l 0.0883,0.22065 q -0.0353,0.0706 -0.15004,0.20299 -0.11473,0.13239 -0.30008,0.2736 -0.18534,0.13239 -0.45011,0.22947 -0.25595,0.0971 -0.57367,0.0971 z m 0.23829,-0.73254 q 0.44129,0 0.74137,-0.22947 0.3089,-0.23829 0.40598,-0.64428 v -0.75901 q -0.10591,-0.36186 -0.43246,-0.60016 -0.31773,-0.23829 -0.74137,-0.23829 -0.31772,0 -0.5825,0.15886 -0.26477,0.15004 -0.42363,0.43246 -0.15887,0.2736 -0.15887,0.63546 0,0.35303 0.15887,0.63546 0.16769,0.28242 0.44128,0.45011 0.2736,0.15886 0.59133,0.15886 z"
         id="path704" /><path
         d="m 478.61347,-193.00562 q -0.42364,0 -0.74137,-0.10591 -0.31772,-0.0971 -0.57367,-0.26478 -0.24712,-0.16769 -0.47659,-0.37068 l 0.52954,-0.60898 q 0.2736,0.26478 0.56485,0.41481 0.30008,0.15004 0.67959,0.15004 0.60015,0 0.9267,-0.28242 0.32656,-0.28243 0.33538,-0.75902 v -0.96201 l 0.0618,0.16769 q -0.15886,0.37068 -0.56485,0.62663 -0.39716,0.24712 -0.98848,0.24712 -0.5119,0 -0.93553,-0.25594 -0.42364,-0.25595 -0.67959,-0.69724 -0.25595,-0.44129 -0.25595,-0.99731 0,-0.57368 0.26478,-1.01497 0.2736,-0.45011 0.71488,-0.70606 0.44129,-0.25595 0.94436,-0.25595 0.49425,0 0.88258,0.18535 0.39716,0.18534 0.5825,0.47659 l -0.0441,0.15004 0.0883,-0.66194 h 0.8208 v 3.71565 q 0,0.50307 -0.26478,0.90906 -0.26477,0.41481 -0.74136,0.6531 -0.47659,0.24713 -1.1297,0.24713 z m -1.21796,-3.72448 q 0,0.35303 0.15887,0.63546 0.16769,0.28242 0.44129,0.45011 0.28242,0.15886 0.62662,0.15886 0.46777,0 0.79432,-0.23829 0.32656,-0.24712 0.44129,-0.62663 v -0.75902 q -0.11473,-0.37951 -0.45011,-0.60898 -0.33538,-0.23829 -0.7855,-0.23829 -0.3442,0 -0.62662,0.15886 -0.2736,0.15887 -0.44129,0.43246 -0.15887,0.2736 -0.15887,0.63546 z"
         id="path706" /><path
         d="m 483.87364,-194.75313 q -0.63546,0 -1.0944,-0.24712 -0.45894,-0.25595 -0.70606,-0.69723 -0.24712,-0.45012 -0.24712,-1.01497 0,-0.5472 0.2736,-0.98848 0.28242,-0.45012 0.75019,-0.71489 0.46776,-0.26478 1.04144,-0.26478 0.74136,0 1.22678,0.43247 0.49424,0.42363 0.66193,1.2003 l -3.00959,1.04144 -0.21181,-0.51189 2.41826,-0.88258 -0.18534,0.12356 q -0.10591,-0.28242 -0.33538,-0.48541 -0.22947,-0.21182 -0.62663,-0.21182 -0.49425,0 -0.81197,0.3442 -0.30891,0.33538 -0.30891,0.86493 0,0.56485 0.33538,0.90905 0.33538,0.34421 0.84728,0.34421 0.23829,0 0.45894,-0.0794 0.22064,-0.0883 0.41481,-0.22947 l 0.40598,0.66194 q -0.28242,0.18534 -0.62663,0.30007 -0.33538,0.10591 -0.67075,0.10591 z"
         id="path709" /><path
         d="m 487.60693,-196.72127 q 0,-0.55603 0.26477,-0.99732 0.26477,-0.45011 0.73254,-0.70606 0.46776,-0.25595 1.06792,-0.25595 0.60897,0 1.05909,0.25595 0.45894,0.25595 0.70606,0.70606 0.25595,0.44129 0.25595,0.99732 0,0.55602 -0.25595,1.00613 -0.25595,0.44129 -0.71489,0.70607 -0.45011,0.25594 -1.06792,0.25594 -0.5825,0 -1.05026,-0.23829 -0.45894,-0.2383 -0.73254,-0.67959 -0.26477,-0.45011 -0.26477,-1.05026 z m 0.90022,0.009 q 0,0.34421 0.15004,0.62663 0.15004,0.2736 0.40599,0.44129 0.26477,0.15886 0.5825,0.15886 0.50307,0 0.82079,-0.35303 0.32656,-0.35303 0.32656,-0.87375 0,-0.52072 -0.32656,-0.87375 -0.31772,-0.36186 -0.82079,-0.36186 -0.32656,0 -0.5825,0.16769 -0.25595,0.16769 -0.40599,0.45012 -0.15004,0.28242 -0.15004,0.6178 z"
         id="path711" /><path
         d="m 493.0789,-194.84138 v -2.89486 h -0.62663 v -0.79432 h 0.62663 v -1.5092 q 0,-0.7855 0.37068,-1.21796 0.37951,-0.44129 1.10322,-0.44129 0.19417,0 0.42364,0.0618 0.2383,0.053 0.42364,0.17652 l -0.37951,0.64428 q -0.0794,-0.0883 -0.18534,-0.11474 -0.0971,-0.0353 -0.19417,-0.0353 -0.3089,0 -0.49424,0.22064 -0.17652,0.21182 -0.17652,0.72372 v 1.49155 h 1.165 v 0.79432 h -1.165 v 2.89486 z"
         id="path713" /><path
         d="m 497.69477,-200.14567 h 0.90023 v 1.62394 h 0.98848 v 0.69723 H 498.595 v 2.98312 h -0.90023 v -2.98312 h -0.65311 v -0.69723 h 0.65311 z"
         id="path715" /><path
         d="m 500.56314,-194.84138 v -6.85763 h 0.87375 v 4.0069 l -0.0177,-0.15004 q 0.19417,-0.36185 0.57368,-0.59132 0.3795,-0.2383 0.90905,-0.2383 0.52072,0 0.8561,0.3089 0.33538,0.30008 0.34421,0.79432 v 2.72717 h -0.89141 v -2.41827 q -0.009,-0.28242 -0.16769,-0.45894 -0.15886,-0.18534 -0.49424,-0.19416 -0.46777,0 -0.78549,0.39716 -0.30891,0.38833 -0.30891,0.98848 v 1.68573 z"
         id="path717" /><path
         d="m 507.23542,-194.75313 q -0.63545,0 -1.09439,-0.24712 -0.45894,-0.25595 -0.70607,-0.69723 -0.24712,-0.45012 -0.24712,-1.01497 0,-0.5472 0.2736,-0.98848 0.28243,-0.45012 0.75019,-0.71489 0.46777,-0.26478 1.04144,-0.26478 0.74137,0 1.22678,0.43247 0.49425,0.42363 0.66194,1.2003 l -3.00959,1.04144 -0.21182,-0.51189 2.41826,-0.88258 -0.18534,0.12356 q -0.10591,-0.28242 -0.33538,-0.48541 -0.22947,-0.21182 -0.62663,-0.21182 -0.49424,0 -0.81197,0.3442 -0.3089,0.33538 -0.3089,0.86493 0,0.56485 0.33538,0.90905 0.33538,0.34421 0.84727,0.34421 0.2383,0 0.45894,-0.0794 0.22065,-0.0883 0.41481,-0.22947 l 0.40599,0.66194 q -0.28243,0.18534 -0.62663,0.30007 -0.33538,0.10591 -0.67076,0.10591 z"
         id="path719" /><path
         d="m 513.57231,-194.75313 q -0.51189,0 -0.88257,-0.20299 -0.37069,-0.21182 -0.60016,-0.53837 l 0.0883,-0.25595 v 0.90906 h -0.8914 v -6.85763 h 0.8914 v 3.98042 l -0.0265,-0.32655 q 0.22065,-0.28242 0.61781,-0.45894 0.40598,-0.17652 0.91788,-0.17652 0.49424,0 0.90023,0.2383 0.40598,0.22947 0.6531,0.66193 0.24713,0.43247 0.24713,1.03262 0,0.62663 -0.2736,1.07674 -0.26478,0.44129 -0.69724,0.67959 -0.43246,0.23829 -0.94436,0.23829 z m -0.19416,-0.75019 q 0.3442,0 0.6178,-0.15886 0.2736,-0.16769 0.42364,-0.45012 0.15886,-0.28242 0.15886,-0.63545 0,-0.35303 -0.15886,-0.62663 -0.15887,-0.2736 -0.43247,-0.43246 -0.26477,-0.16769 -0.60897,-0.16769 -0.44129,0 -0.76785,0.22947 -0.32655,0.22947 -0.43246,0.60897 v 0.77667 q 0.11474,0.37068 0.42364,0.61781 0.31773,0.23829 0.77667,0.23829 z"
         id="path721" /><path
         d="m 517.74691,-194.69135 q -0.5119,0 -0.83845,-0.3089 -0.32655,-0.3089 -0.3442,-0.79432 v -2.73599 h 0.8914 v 2.41826 q 0.0177,0.29125 0.16769,0.46777 0.15004,0.17652 0.47659,0.19417 0.30008,0 0.53837,-0.17652 0.2383,-0.18534 0.37068,-0.50307 0.14122,-0.31773 0.14122,-0.71488 v -1.68573 h 0.8914 v 3.68918 h -0.80315 l -0.0706,-0.86493 0.0353,0.14121 q -0.16769,0.37951 -0.56485,0.62663 -0.38833,0.24712 -0.8914,0.24712 z"
         id="path723" /><path
         d="m 521.4449,-201.69901 h 0.8914 v 6.85763 h -0.8914 z"
         id="path725" /><path
         d="m 523.73077,-201.69901 h 0.89141 v 6.85763 h -0.89141 z"
         id="path727" /><path
         d="m 527.74651,-194.75313 q -0.63545,0 -1.09439,-0.24712 -0.45894,-0.25595 -0.70606,-0.69723 -0.24712,-0.45012 -0.24712,-1.01497 0,-0.5472 0.27359,-0.98848 0.28243,-0.45012 0.75019,-0.71489 0.46777,-0.26478 1.04145,-0.26478 0.74136,0 1.22678,0.43247 0.49424,0.42363 0.66193,1.2003 l -3.00959,1.04144 -0.21182,-0.51189 2.41827,-0.88258 -0.18535,0.12356 q -0.1059,-0.28242 -0.33537,-0.48541 -0.22947,-0.21182 -0.62663,-0.21182 -0.49425,0 -0.81198,0.3442 -0.3089,0.33538 -0.3089,0.86493 0,0.56485 0.33538,0.90905 0.33538,0.34421 0.84728,0.34421 0.23829,0 0.45894,-0.0794 0.22064,-0.0883 0.41481,-0.22947 l 0.40598,0.66194 q -0.28242,0.18534 -0.62663,0.30007 -0.33538,0.10591 -0.67076,0.10591 z"
         id="path729" /><path
         d="m 531.00321,-200.14567 h 0.90023 v 1.62394 h 0.98848 v 0.69723 h -0.98848 v 2.98312 h -0.90023 v -2.98312 h -0.65311 v -0.69723 h 0.65311 z"
         id="path731" /><path
         d="m 534.9395,-194.76195 q -0.40598,0 -0.77667,-0.14122 -0.37068,-0.15003 -0.62663,-0.42363 l 0.37951,-0.5119 q 0.22947,0.22065 0.47659,0.33538 0.25595,0.11474 0.47659,0.11474 0.25595,0 0.45012,-0.0971 0.19417,-0.10591 0.19417,-0.3442 0,-0.19417 -0.13239,-0.30008 -0.12356,-0.10591 -0.31773,-0.17651 -0.19417,-0.0706 -0.41481,-0.13239 -0.45894,-0.15004 -0.70606,-0.42364 -0.2383,-0.28242 -0.2383,-0.66193 0,-0.29125 0.14122,-0.5472 0.15003,-0.26477 0.45011,-0.42363 0.30008,-0.16769 0.74136,-0.16769 0.38834,0 0.69724,0.0971 0.3089,0.0883 0.57368,0.3089 l -0.34421,0.53837 q -0.15886,-0.15886 -0.37951,-0.23829 -0.21182,-0.0883 -0.38833,-0.0971 -0.2383,0 -0.41481,0.11474 -0.17652,0.10591 -0.17652,0.29125 0,0.18534 0.12356,0.30008 0.12356,0.10591 0.31773,0.17651 0.20299,0.0618 0.40599,0.13239 0.40598,0.13238 0.67075,0.36185 0.2736,0.22947 0.2736,0.67076 0,0.33538 -0.15886,0.61781 -0.15886,0.28242 -0.48542,0.45894 -0.31773,0.16769 -0.81197,0.16769 z"
         id="path733" /><path
         d="m 537.10182,-195.33563 q 0,-0.21182 0.15003,-0.35303 0.15887,-0.15004 0.34421,-0.15004 0.17651,0 0.32655,0.15004 0.15004,0.14121 0.15004,0.35303 0,0.22065 -0.15004,0.36186 -0.15004,0.13239 -0.32655,0.13239 -0.18534,0 -0.34421,-0.13239 -0.15003,-0.14121 -0.15003,-0.36186 z"
         id="path735" /></g><g
       aria-label="The Occupiers"
       id="text20369"
       style="font-size:10.4576px;font-family:'Reem Kufi Fun';-inkscape-font-specification:'Reem Kufi Fun';fill:#020617;stroke-width:6.75035"
       transform="matrix(1.1219238,0,0,1.1219238,-66.831174,-17.972948)"><path
         d="m 429.22134,101.4153 h 5.05102 v 1.05622 h -2.00786 v 6.52554 h -1.09805 v -6.52554 h -1.94511 z"
         id="path814" /><path
         d="m 435.61094,108.99706 v -8.12555 h 1.0353 v 4.74775 l -0.0209,-0.17778 q 0.23007,-0.42876 0.67975,-0.70066 0.44967,-0.28236 1.07713,-0.28236 0.617,0 1.01439,0.36602 0.39739,0.35556 0.40784,0.94118 v 3.2314 h -1.05621 v -2.86538 q -0.0105,-0.33464 -0.1987,-0.54379 -0.18823,-0.21961 -0.58562,-0.23007 -0.55426,0 -0.93073,0.47059 -0.36602,0.46013 -0.36602,1.17125 v 1.9974 z"
         id="path816" /><path
         d="m 443.51688,109.10164 q -0.75295,0 -1.29675,-0.29281 -0.54379,-0.30327 -0.8366,-0.82615 -0.29282,-0.53334 -0.29282,-1.20263 0,-0.64837 0.32419,-1.17125 0.33464,-0.53334 0.8889,-0.84707 0.55425,-0.31372 1.23399,-0.31372 0.87844,0 1.45361,0.51242 0.58562,0.50196 0.78432,1.42223 l -3.56604,1.234 -0.25099,-0.60654 2.86539,-1.04576 -0.21961,0.14641 q -0.12549,-0.33465 -0.39739,-0.57517 -0.2719,-0.25099 -0.74249,-0.25099 -0.58563,0 -0.9621,0.40785 -0.36602,0.39739 -0.36602,1.02485 0,0.66928 0.39739,1.07713 0.39739,0.40785 1.00393,0.40785 0.28236,0 0.5438,-0.0941 0.26144,-0.10458 0.4915,-0.2719 l 0.48105,0.78432 q -0.33464,0.21961 -0.74249,0.35556 -0.39738,0.12549 -0.79477,0.12549 z"
         id="path818" /><path
         d="m 448.09729,105.21141 q 0,-0.78432 0.29281,-1.48498 0.30328,-0.70066 0.83661,-1.23399 0.53334,-0.5438 1.234,-0.84707 0.70066,-0.31373 1.49544,-0.31373 0.79477,0 1.49543,0.31373 0.71112,0.30327 1.24446,0.84707 0.54379,0.53333 0.84706,1.23399 0.30327,0.70066 0.30327,1.48498 0,0.80524 -0.30327,1.5059 -0.30327,0.70066 -0.84706,1.23399 -0.53334,0.53334 -1.24446,0.83661 -0.70066,0.29281 -1.49543,0.29281 -0.79478,0 -1.49544,-0.29281 -0.70066,-0.30327 -1.234,-0.82615 -0.53333,-0.52288 -0.83661,-1.22354 -0.29281,-0.71112 -0.29281,-1.52681 z m 1.12942,0.0105 q 0,0.77386 0.36602,1.41178 0.36601,0.63791 0.99347,1.01438 0.62746,0.37648 1.40132,0.37648 0.7634,0 1.3804,-0.37648 0.617,-0.37647 0.98302,-1.01438 0.36601,-0.63792 0.36601,-1.42224 0,-0.78432 -0.37647,-1.42223 -0.36602,-0.64837 -0.99347,-1.02485 -0.617,-0.37647 -1.38041,-0.37647 -0.77386,0 -1.40131,0.38693 -0.617,0.37647 -0.98302,1.02485 -0.35556,0.63791 -0.35556,1.42223 z"
         id="path820" /><path
         d="m 460.84512,108.58922 q -0.29282,0.24052 -0.71112,0.37647 -0.40785,0.13595 -0.82615,0.13595 -0.71112,0 -1.26537,-0.28236 -0.5438,-0.28235 -0.84707,-0.79477 -0.30327,-0.51243 -0.30327,-1.21309 0,-0.71111 0.32419,-1.22353 0.32418,-0.51243 0.84706,-0.78432 0.53334,-0.28236 1.13988,-0.28236 0.5438,0 0.95164,0.14641 0.41831,0.1464 0.72158,0.40784 l -0.52288,0.67975 q -0.17778,-0.14641 -0.44968,-0.26144 -0.2719,-0.11504 -0.60654,-0.11504 -0.37647,0 -0.6902,0.18824 -0.30327,0.18824 -0.48105,0.51242 -0.17778,0.32419 -0.17778,0.73203 0,0.39739 0.17778,0.72158 0.18824,0.32418 0.51242,0.51242 0.33465,0.18824 0.75295,0.18824 0.2719,0 0.50196,-0.0837 0.24053,-0.0837 0.41831,-0.21961 z"
         id="path822" /><path
         d="m 465.6556,108.58922 q -0.29281,0.24052 -0.71111,0.37647 -0.40785,0.13595 -0.82616,0.13595 -0.71111,0 -1.26536,-0.28236 -0.5438,-0.28235 -0.84707,-0.79477 -0.30327,-0.51243 -0.30327,-1.21309 0,-0.71111 0.32418,-1.22353 0.32419,-0.51243 0.84707,-0.78432 0.53334,-0.28236 1.13988,-0.28236 0.54379,0 0.95164,0.14641 0.4183,0.1464 0.72157,0.40784 l -0.52288,0.67975 q -0.17777,-0.14641 -0.44967,-0.26144 -0.2719,-0.11504 -0.60654,-0.11504 -0.37648,0 -0.6902,0.18824 -0.30327,0.18824 -0.48105,0.51242 -0.17778,0.32419 -0.17778,0.73203 0,0.39739 0.17778,0.72158 0.18823,0.32418 0.51242,0.51242 0.33464,0.18824 0.75295,0.18824 0.27189,0 0.50196,-0.0837 0.24053,-0.0837 0.4183,-0.21961 z"
         id="path824" /><path
         d="m 468.29091,109.17484 q -0.60654,0 -0.99347,-0.36601 -0.38694,-0.36602 -0.40785,-0.94119 v -3.24185 h 1.05622 v 2.86538 q 0.0209,0.3451 0.19869,0.55425 0.17778,0.20915 0.56471,0.23007 0.35556,0 0.63791,-0.20915 0.28236,-0.21961 0.43922,-0.59609 0.16733,-0.37647 0.16733,-0.84706 v -1.9974 h 1.05621 v 4.37127 h -0.95164 l -0.0837,-1.02484 0.0418,0.16732 q -0.19869,0.44968 -0.66929,0.74249 -0.46013,0.29281 -1.05621,0.29281 z"
         id="path826" /><path
         d="m 475.28704,109.10164 q -0.48105,0 -0.93073,-0.20915 -0.43922,-0.21961 -0.6902,-0.59609 l 0.0627,-0.32418 v 3.12682 h -1.05621 v -6.54646 h 0.90981 l 0.1464,1.07714 -0.10457,-0.30327 q 0.31373,-0.38694 0.78432,-0.62746 0.48105,-0.25098 1.07713,-0.25098 0.617,0 1.10851,0.29281 0.4915,0.29281 0.77386,0.82615 0.28235,0.52288 0.28235,1.234 0,0.71111 -0.31373,1.23399 -0.30327,0.51243 -0.8366,0.79478 -0.53334,0.2719 -1.21308,0.2719 z m -0.20916,-0.83661 q 0.40785,0 0.74249,-0.18824 0.3451,-0.18823 0.5438,-0.51242 0.20915,-0.33464 0.20915,-0.75295 0,-0.42876 -0.18824,-0.7634 -0.18823,-0.33464 -0.51242,-0.52288 -0.32418,-0.18824 -0.72157,-0.18824 -0.5438,0 -0.92027,0.29282 -0.36602,0.29281 -0.50197,0.77386 v 0.78432 q 0.0837,0.47059 0.46014,0.77386 0.37647,0.30327 0.88889,0.30327 z"
         id="path828" /><path
         d="m 478.92627,104.62579 h 1.05622 v 4.37127 h -1.05622 z m -0.0523,-1.56864 q 0,-0.24053 0.18823,-0.40785 0.1987,-0.16732 0.42877,-0.16732 0.23006,0 0.4183,0.16732 0.18824,0.16732 0.18824,0.40785 0,0.26144 -0.18824,0.4183 -0.18824,0.15686 -0.4183,0.15686 -0.23007,0 -0.42877,-0.15686 -0.18823,-0.15686 -0.18823,-0.4183 z"
         id="path830" /><path
         d="m 483.68449,109.10164 q -0.75295,0 -1.29674,-0.29281 -0.5438,-0.30327 -0.83661,-0.82615 -0.29281,-0.53334 -0.29281,-1.20263 0,-0.64837 0.32418,-1.17125 0.33465,-0.53334 0.8889,-0.84707 0.55425,-0.31372 1.234,-0.31372 0.87843,0 1.4536,0.51242 0.58563,0.50196 0.78432,1.42223 l -3.56604,1.234 -0.25098,-0.60654 2.86538,-1.04576 -0.21961,0.14641 q -0.12549,-0.33465 -0.39739,-0.57517 -0.2719,-0.25099 -0.74249,-0.25099 -0.58562,0 -0.9621,0.40785 -0.36601,0.39739 -0.36601,1.02485 0,0.66928 0.39739,1.07713 0.39739,0.40785 1.00393,0.40785 0.28235,0 0.54379,-0.0941 0.26144,-0.10458 0.49151,-0.2719 l 0.48105,0.78432 q -0.33465,0.21961 -0.74249,0.35556 -0.39739,0.12549 -0.79478,0.12549 z"
         id="path832" /><path
         d="m 488.06622,104.62579 0.10458,1.25491 -0.0418,-0.16732 q 0.17778,-0.39739 0.49151,-0.67975 0.32418,-0.28235 0.66928,-0.42876 0.35556,-0.15686 0.59609,-0.15686 l -0.0523,1.04576 q -0.49151,-0.0314 -0.86798,0.18823 -0.36602,0.21961 -0.57517,0.58563 -0.20915,0.36602 -0.20915,0.78432 v 1.94511 h -1.05622 v -4.37127 z"
         id="path834" /><path
         d="m 492.37476,109.09118 q -0.48105,0 -0.92027,-0.16732 -0.43922,-0.17778 -0.74249,-0.50197 l 0.44968,-0.60654 q 0.27189,0.26144 0.56471,0.39739 0.30327,0.13595 0.56471,0.13595 0.30327,0 0.53333,-0.11503 0.23007,-0.12549 0.23007,-0.40785 0,-0.23007 -0.15686,-0.35556 -0.14641,-0.12549 -0.37648,-0.20915 -0.23006,-0.0837 -0.4915,-0.15686 -0.5438,-0.17778 -0.83661,-0.50197 -0.28236,-0.33464 -0.28236,-0.78432 0,-0.3451 0.16733,-0.64837 0.17777,-0.31373 0.53333,-0.50196 0.35556,-0.1987 0.87844,-0.1987 0.46014,0 0.82615,0.11504 0.36602,0.10457 0.67975,0.36601 l -0.40785,0.63792 q -0.18824,-0.18824 -0.44968,-0.28236 -0.25098,-0.10458 -0.46013,-0.11503 -0.28236,0 -0.49151,0.13595 -0.20915,0.12549 -0.20915,0.3451 0,0.21961 0.1464,0.35555 0.14641,0.1255 0.37648,0.20916 0.24052,0.0732 0.48105,0.15686 0.48105,0.15686 0.79478,0.42876 0.32418,0.2719 0.32418,0.79478 0,0.39739 -0.18824,0.73203 -0.18823,0.33464 -0.57516,0.5438 -0.37648,0.19869 -0.9621,0.19869 z"
         id="path836" /></g><g
       aria-label="Only Understand the language of the bullets."
       id="text11707"
       style="font-size:10.4576px;font-family:'Reem Kufi Fun';-inkscape-font-specification:'Reem Kufi Fun';fill:#020617;stroke-width:6.75035"
       transform="matrix(1.1219238,0,0,1.1219238,-66.831174,-17.972948)"><path
         d="m 455.48542,121.46131 q 0,-0.78432 0.29281,-1.48498 0.30327,-0.70066 0.83661,-1.23399 0.53333,-0.5438 1.23399,-0.84707 0.70066,-0.31373 1.49544,-0.31373 0.79478,0 1.49544,0.31373 0.71111,0.30327 1.24445,0.84707 0.5438,0.53333 0.84707,1.23399 0.30327,0.70066 0.30327,1.48498 0,0.80524 -0.30327,1.5059 -0.30327,0.70066 -0.84707,1.23399 -0.53334,0.53334 -1.24445,0.83661 -0.70066,0.29281 -1.49544,0.29281 -0.79478,0 -1.49544,-0.29281 -0.70066,-0.30327 -1.23399,-0.82615 -0.53334,-0.52288 -0.83661,-1.22354 -0.29281,-0.71111 -0.29281,-1.52681 z m 1.12942,0.0105 q 0,0.77386 0.36601,1.41178 0.36602,0.63791 0.99348,1.01438 0.62745,0.37648 1.40131,0.37648 0.76341,0 1.38041,-0.37648 0.617,-0.37647 0.98301,-1.01438 0.36602,-0.63792 0.36602,-1.42224 0,-0.78432 -0.37648,-1.42223 -0.36601,-0.64837 -0.99347,-1.02485 -0.617,-0.37647 -1.3804,-0.37647 -0.77386,0 -1.40132,0.38693 -0.617,0.37648 -0.98301,1.02485 -0.35556,0.63791 -0.35556,1.42223 z"
         id="path863" /><path
         d="m 465.60838,120.87569 0.0941,1.01438 -0.0418,-0.1464 q 0.20915,-0.47059 0.66929,-0.75295 0.47059,-0.28235 1.09804,-0.28235 0.617,0 1.01439,0.36601 0.39739,0.35556 0.40785,0.94119 v 3.23139 h -1.05622 v -2.86538 q -0.0105,-0.33464 -0.19869,-0.54379 -0.18824,-0.21961 -0.58563,-0.23007 -0.55425,0 -0.93073,0.46013 -0.36601,0.46014 -0.36601,1.18171 v 1.9974 h -1.05622 v -4.37127 z"
         id="path865" /><path
         d="m 470.51299,117.12141 h 1.05622 v 8.12555 h -1.05622 z"
         id="path867" /><path
         d="m 473.59799,127.34894 2.87584,-6.47325 h 0.97256 l -2.82355,6.47325 z m 1.08759,-2.0706 -2.10198,-4.40265 h 1.18171 l 1.74642,3.86931 z"
         id="path869" /><path
         d="m 481.04379,122.53845 q 0,0.48104 0.23007,0.87843 0.24053,0.38693 0.64837,0.617 0.40785,0.23007 0.89936,0.23007 0.52288,0 0.93072,-0.23007 0.40785,-0.23007 0.63792,-0.617 0.24052,-0.39739 0.24052,-0.87843 v -4.87325 h 1.07713 v 4.90462 q 0,0.82615 -0.38693,1.4536 -0.38693,0.617 -1.04576,0.9621 -0.64837,0.3451 -1.4536,0.3451 v 0 q -0.80524,0 -1.46407,-0.3451 -0.64837,-0.3451 -1.0353,-0.9621 -0.37647,-0.62745 -0.37647,-1.4536 v -4.90462 h 1.09804 z"
         id="path871" /><path
         d="m 488.44778,120.87569 0.0941,1.01438 -0.0418,-0.1464 q 0.20915,-0.47059 0.66928,-0.75295 0.4706,-0.28235 1.09805,-0.28235 0.617,0 1.01439,0.36601 0.39739,0.35556 0.40785,0.94119 v 3.23139 h -1.05622 v -2.86538 q -0.0105,-0.33464 -0.1987,-0.54379 -0.18823,-0.21961 -0.58562,-0.23007 -0.55425,0 -0.93073,0.46013 -0.36601,0.46014 -0.36601,1.18171 v 1.9974 h -1.05622 v -4.37127 z"
         id="path873" /><path
         d="m 495.14064,125.35154 q -0.617,0 -1.10851,-0.28236 -0.49151,-0.29281 -0.77386,-0.82615 -0.28236,-0.53333 -0.28236,-1.24445 0,-0.73203 0.30327,-1.24445 0.30328,-0.51243 0.8157,-0.78432 0.52288,-0.2719 1.17125,-0.2719 0.50196,0 0.95164,0.20915 0.46013,0.19869 0.72157,0.56471 l -0.0418,0.36602 v -4.71638 h 1.05622 v 8.12555 h -1.06667 v -1.04576 l 0.11503,0.28236 q -0.31373,0.37647 -0.79478,0.62745 -0.47059,0.24053 -1.06667,0.24053 z m 0.32418,-0.8889 q 0.55426,0 0.92027,-0.28235 0.37648,-0.29281 0.50197,-0.77386 v -0.86798 q -0.11504,-0.43922 -0.51243,-0.72158 -0.38693,-0.28235 -0.90981,-0.28235 -0.37647,0 -0.70066,0.18823 -0.32418,0.17778 -0.52288,0.51242 -0.18823,0.32419 -0.18823,0.75295 0,0.40785 0.18823,0.74249 0.1987,0.33464 0.52288,0.53334 0.32419,0.19869 0.70066,0.19869 z"
         id="path875" /><path
         d="m 501.65572,125.35154 q -0.75295,0 -1.29675,-0.29281 -0.54379,-0.30327 -0.8366,-0.82615 -0.29282,-0.53334 -0.29282,-1.20263 0,-0.64837 0.32419,-1.17125 0.33464,-0.53334 0.8889,-0.84706 0.55425,-0.31373 1.23399,-0.31373 0.87844,0 1.45361,0.51242 0.58562,0.50196 0.78432,1.42223 l -3.56604,1.234 -0.25099,-0.60654 2.86539,-1.04576 -0.21961,0.14641 q -0.12549,-0.33465 -0.39739,-0.57517 -0.2719,-0.25098 -0.74249,-0.25098 -0.58563,0 -0.9621,0.40784 -0.36602,0.39739 -0.36602,1.02485 0,0.66928 0.39739,1.07713 0.39739,0.40785 1.00393,0.40785 0.28236,0 0.5438,-0.0941 0.26144,-0.10458 0.4915,-0.2719 l 0.48105,0.78432 q -0.33464,0.21961 -0.74249,0.35556 -0.39738,0.12549 -0.79477,0.12549 z"
         id="path877" /><path
         d="m 506.03745,120.87569 0.10458,1.25491 -0.0418,-0.16732 q 0.17778,-0.39739 0.49151,-0.67975 0.32419,-0.28235 0.66929,-0.42876 0.35556,-0.15686 0.59608,-0.15686 l -0.0523,1.04576 q -0.4915,-0.0314 -0.86798,0.18823 -0.36601,0.21961 -0.57517,0.58563 -0.20915,0.36602 -0.20915,0.78432 v 1.94511 h -1.05621 v -4.37127 z"
         id="path879" /><path
         d="m 510.34599,125.34108 q -0.48105,0 -0.92027,-0.16732 -0.43922,-0.17778 -0.74249,-0.50196 l 0.44968,-0.60655 q 0.27189,0.26144 0.56471,0.39739 0.30327,0.13595 0.56471,0.13595 0.30327,0 0.53333,-0.11503 0.23007,-0.12549 0.23007,-0.40785 0,-0.23006 -0.15686,-0.35556 -0.14641,-0.12549 -0.37648,-0.20915 -0.23006,-0.0837 -0.4915,-0.15686 -0.5438,-0.17778 -0.83661,-0.50197 -0.28236,-0.33464 -0.28236,-0.78432 0,-0.3451 0.16732,-0.64837 0.17778,-0.31373 0.53334,-0.50196 0.35556,-0.1987 0.87844,-0.1987 0.46013,0 0.82615,0.11504 0.36602,0.10457 0.67974,0.36601 l -0.40784,0.63792 q -0.18824,-0.18824 -0.44968,-0.28236 -0.25098,-0.10458 -0.46013,-0.11503 -0.28236,0 -0.49151,0.13595 -0.20915,0.12549 -0.20915,0.3451 0,0.21961 0.1464,0.35556 0.14641,0.12549 0.37648,0.20915 0.24052,0.0732 0.48105,0.15686 0.48105,0.15687 0.79478,0.42876 0.32418,0.2719 0.32418,0.79478 0,0.39739 -0.18824,0.73203 -0.18823,0.33465 -0.57516,0.5438 -0.37648,0.19869 -0.9621,0.19869 z"
         id="path881" /><path
         d="m 513.82836,118.96195 h 1.06668 v 1.92419 h 1.17125 v 0.82615 h -1.17125 v 3.53467 h -1.06668 v -3.53467 h -0.77386 v -0.82615 h 0.77386 z"
         id="path883" /><path
         d="m 519.05716,125.35154 q -0.617,0 -1.11896,-0.26144 -0.50197,-0.26144 -0.79478,-0.76341 -0.29281,-0.51242 -0.29281,-1.26536 0,-0.73204 0.30327,-1.25492 0.31372,-0.53333 0.81569,-0.81569 0.51242,-0.29281 1.1085,-0.29281 0.62746,0 1.03531,0.26144 0.40784,0.26144 0.62745,0.62745 l -0.0627,0.16733 0.10457,-0.87844 h 0.97256 v 4.37127 H 520.699 v -1.1085 l 0.10458,0.26144 q -0.0418,0.0837 -0.17778,0.24052 -0.13595,0.15687 -0.35556,0.32419 -0.21961,0.15686 -0.53334,0.2719 -0.30327,0.11503 -0.67974,0.11503 z m 0.28235,-0.86798 q 0.52288,0 0.87844,-0.2719 0.36602,-0.28235 0.48105,-0.7634 v -0.89936 q -0.12549,-0.42876 -0.51242,-0.71111 -0.37647,-0.28236 -0.87844,-0.28236 -0.37647,0 -0.6902,0.18824 -0.31373,0.17778 -0.50197,0.51242 -0.18823,0.32419 -0.18823,0.75295 0,0.4183 0.18823,0.75294 0.1987,0.33465 0.52288,0.53334 0.32419,0.18824 0.70066,0.18824 z"
         id="path885" /><path
         d="m 524.35916,120.87569 0.0941,1.01438 -0.0418,-0.1464 q 0.20915,-0.47059 0.66928,-0.75295 0.4706,-0.28235 1.09805,-0.28235 0.617,0 1.01439,0.36601 0.39739,0.35556 0.40785,0.94119 v 3.23139 h -1.05622 v -2.86538 q -0.0105,-0.33464 -0.1987,-0.54379 -0.18823,-0.21961 -0.58562,-0.23007 -0.55425,0 -0.93073,0.46013 -0.36601,0.46014 -0.36601,1.18171 v 1.9974 h -1.05622 v -4.37127 z"
         id="path887" /><path
         d="m 531.05201,125.35154 q -0.61699,0 -1.1085,-0.28236 -0.49151,-0.29281 -0.77386,-0.82615 -0.28236,-0.53333 -0.28236,-1.24445 0,-0.73203 0.30327,-1.24445 0.30327,-0.51243 0.81569,-0.78432 0.52288,-0.2719 1.17126,-0.2719 0.50196,0 0.95164,0.20915 0.46013,0.19869 0.72157,0.56471 l -0.0418,0.36602 v -4.71638 h 1.05622 v 8.12555 h -1.06668 v -1.04576 l 0.11504,0.28236 q -0.31373,0.37647 -0.79478,0.62745 -0.47059,0.24053 -1.06668,0.24053 z m 0.32419,-0.8889 q 0.55425,0 0.92027,-0.28235 0.37647,-0.29281 0.50196,-0.77386 v -0.86798 q -0.11503,-0.43922 -0.51242,-0.72158 -0.38693,-0.28235 -0.90981,-0.28235 -0.37647,0 -0.70066,0.18823 -0.32418,0.17778 -0.52288,0.51242 -0.18824,0.32419 -0.18824,0.75295 0,0.40785 0.18824,0.74249 0.1987,0.33464 0.52288,0.53334 0.32419,0.19869 0.70066,0.19869 z"
         id="path889" /><path
         d="m 537.29519,118.96195 h 1.06667 v 1.92419 h 1.17126 v 0.82615 h -1.17126 v 3.53467 h -1.06667 v -3.53467 h -0.77386 v -0.82615 h 0.77386 z"
         id="path891" /><path
         d="m 540.69391,125.24696 v -8.12555 h 1.0353 v 4.74775 l -0.0209,-0.17778 q 0.23006,-0.42876 0.67974,-0.70066 0.44968,-0.28235 1.07713,-0.28235 0.617,0 1.01439,0.36601 0.39739,0.35556 0.40785,0.94119 v 3.23139 h -1.05622 v -2.86538 q -0.0105,-0.33464 -0.19869,-0.54379 -0.18824,-0.21961 -0.58563,-0.23007 -0.55425,0 -0.93073,0.47059 -0.36601,0.46014 -0.36601,1.17125 v 1.9974 z"
         id="path893" /><path
         d="m 548.59985,125.35154 q -0.75295,0 -1.29675,-0.29281 -0.54379,-0.30327 -0.8366,-0.82615 -0.29282,-0.53334 -0.29282,-1.20263 0,-0.64837 0.32419,-1.17125 0.33464,-0.53334 0.88889,-0.84706 0.55426,-0.31373 1.234,-0.31373 0.87844,0 1.45361,0.51242 0.58562,0.50196 0.78432,1.42223 l -3.56604,1.234 -0.25099,-0.60654 2.86539,-1.04576 -0.21961,0.14641 q -0.12549,-0.33465 -0.39739,-0.57517 -0.2719,-0.25098 -0.74249,-0.25098 -0.58563,0 -0.9621,0.40784 -0.36602,0.39739 -0.36602,1.02485 0,0.66928 0.39739,1.07713 0.39739,0.40785 1.00393,0.40785 0.28236,0 0.5438,-0.0941 0.26144,-0.10458 0.4915,-0.2719 l 0.48105,0.78432 q -0.33464,0.21961 -0.74249,0.35556 -0.39738,0.12549 -0.79477,0.12549 z"
         id="path895" /><path
         d="m 553.39987,117.12141 h 1.05622 v 8.12555 h -1.05622 z"
         id="path897" /><path
         d="m 557.93848,125.35154 q -0.617,0 -1.11896,-0.26144 -0.50197,-0.26144 -0.79478,-0.76341 -0.29281,-0.51242 -0.29281,-1.26536 0,-0.73204 0.30327,-1.25492 0.31372,-0.53333 0.81569,-0.81569 0.51242,-0.29281 1.1085,-0.29281 0.62746,0 1.03531,0.26144 0.40784,0.26144 0.62745,0.62745 l -0.0627,0.16733 0.10457,-0.87844 h 0.97256 v 4.37127 h -1.05622 v -1.1085 l 0.10458,0.26144 q -0.0418,0.0837 -0.17778,0.24052 -0.13595,0.15687 -0.35556,0.32419 -0.21961,0.15686 -0.53334,0.2719 -0.30327,0.11503 -0.67974,0.11503 z m 0.28235,-0.86798 q 0.52288,0 0.87844,-0.2719 0.36602,-0.28235 0.48105,-0.7634 v -0.89936 q -0.12549,-0.42876 -0.51242,-0.71111 -0.37647,-0.28236 -0.87844,-0.28236 -0.37647,0 -0.6902,0.18824 -0.31373,0.17778 -0.50196,0.51242 -0.18824,0.32419 -0.18824,0.75295 0,0.4183 0.18824,0.75294 0.19869,0.33465 0.52288,0.53334 0.32418,0.18824 0.70065,0.18824 z"
         id="path899" /><path
         d="m 563.24048,120.87569 0.0941,1.01438 -0.0418,-0.1464 q 0.20916,-0.47059 0.66929,-0.75295 0.47059,-0.28235 1.09805,-0.28235 0.617,0 1.01439,0.36601 0.39738,0.35556 0.40784,0.94119 v 3.23139 h -1.05622 v -2.86538 q -0.0104,-0.33464 -0.19869,-0.54379 -0.18824,-0.21961 -0.58563,-0.23007 -0.55425,0 -0.93072,0.46013 -0.36602,0.46014 -0.36602,1.18171 v 1.9974 h -1.05621 v -4.37127 z"
         id="path901" /><path
         d="m 570.27844,127.42214 q -0.50196,0 -0.87844,-0.12549 -0.37647,-0.11503 -0.67974,-0.31372 -0.29282,-0.1987 -0.56471,-0.43922 l 0.62745,-0.72158 q 0.32419,0.31373 0.66929,0.49151 0.35556,0.17778 0.80523,0.17778 0.71112,0 1.09805,-0.33465 0.38693,-0.33464 0.39739,-0.89935 v -1.13988 l 0.0732,0.1987 q -0.18823,0.43922 -0.66928,0.74249 -0.47059,0.29281 -1.17125,0.29281 -0.60654,0 -1.10851,-0.30327 -0.50196,-0.30327 -0.80523,-0.82615 -0.30327,-0.52288 -0.30327,-1.18171 0,-0.67974 0.31372,-1.20262 0.32419,-0.53334 0.84707,-0.83661 0.52288,-0.30327 1.11896,-0.30327 0.58563,0 1.04576,0.21961 0.47059,0.21961 0.6902,0.56471 l -0.0523,0.17778 0.10457,-0.78432 h 0.97256 v 4.40265 q 0,0.59608 -0.31373,1.07713 -0.31373,0.49151 -0.87844,0.77386 -0.56471,0.29281 -1.33857,0.29281 z m -1.44315,-4.4131 q 0,0.4183 0.18824,0.75294 0.19869,0.33465 0.52288,0.53334 0.33464,0.18824 0.74249,0.18824 0.55425,0 0.94118,-0.28236 0.38693,-0.29281 0.52288,-0.74249 v -0.89935 q -0.13595,-0.44968 -0.53334,-0.72157 -0.39738,-0.28236 -0.93072,-0.28236 -0.40785,0 -0.74249,0.18824 -0.32419,0.18823 -0.52288,0.51242 -0.18824,0.32419 -0.18824,0.75295 z"
         id="path903" /><path
         d="m 575.8628,125.42474 q -0.60654,0 -0.99347,-0.36601 -0.38693,-0.36602 -0.40785,-0.94119 v -3.24185 h 1.05622 v 2.86538 q 0.0209,0.3451 0.19869,0.55425 0.17778,0.20915 0.56471,0.23007 0.35556,0 0.63792,-0.20915 0.28235,-0.21961 0.43922,-0.59609 0.16732,-0.37647 0.16732,-0.84706 v -1.9974 h 1.05621 v 4.37127 h -0.95164 l -0.0837,-1.02484 0.0418,0.16732 q -0.19869,0.44968 -0.66928,0.74249 -0.46014,0.29281 -1.05622,0.29281 z"
         id="path905" /><path
         d="m 582.0746,125.35154 q -0.61699,0 -1.11896,-0.26144 -0.50196,-0.26144 -0.79478,-0.76341 -0.29281,-0.51242 -0.29281,-1.26536 0,-0.73204 0.30327,-1.25492 0.31373,-0.53333 0.81569,-0.81569 0.51243,-0.29281 1.10851,-0.29281 0.62745,0 1.0353,0.26144 0.40785,0.26144 0.62746,0.62745 l -0.0628,0.16733 0.10458,-0.87844 h 0.97255 v 4.37127 h -1.05621 v -1.1085 l 0.10457,0.26144 q -0.0418,0.0837 -0.17778,0.24052 -0.13595,0.15687 -0.35556,0.32419 -0.2196,0.15686 -0.53333,0.2719 -0.30327,0.11503 -0.67975,0.11503 z m 0.28236,-0.86798 q 0.52288,0 0.87844,-0.2719 0.36601,-0.28235 0.48105,-0.7634 v -0.89936 q -0.12549,-0.42876 -0.51243,-0.71111 -0.37647,-0.28236 -0.87843,-0.28236 -0.37648,0 -0.69021,0.18824 -0.31372,0.17778 -0.50196,0.51242 -0.18824,0.32419 -0.18824,0.75295 0,0.4183 0.18824,0.75294 0.19869,0.33465 0.52288,0.53334 0.32419,0.18824 0.70066,0.18824 z"
         id="path907" /><path
         d="m 588.55832,127.42214 q -0.50197,0 -0.87844,-0.12549 -0.37648,-0.11503 -0.67975,-0.31372 -0.29281,-0.1987 -0.56471,-0.43922 l 0.62746,-0.72158 q 0.32419,0.31373 0.66929,0.49151 0.35555,0.17778 0.80523,0.17778 0.71112,0 1.09805,-0.33465 0.38693,-0.33464 0.39739,-0.89935 v -1.13988 l 0.0732,0.1987 q -0.18824,0.43922 -0.66929,0.74249 -0.47059,0.29281 -1.17125,0.29281 -0.60654,0 -1.1085,-0.30327 -0.50197,-0.30327 -0.80524,-0.82615 -0.30327,-0.52288 -0.30327,-1.18171 0,-0.67974 0.31373,-1.20262 0.32419,-0.53334 0.84707,-0.83661 0.52288,-0.30327 1.11896,-0.30327 0.58563,0 1.04576,0.21961 0.47059,0.21961 0.6902,0.56471 l -0.0523,0.17778 0.10458,-0.78432 h 0.97256 v 4.40265 q 0,0.59608 -0.31373,1.07713 -0.31373,0.49151 -0.87844,0.77386 -0.56471,0.29281 -1.33857,0.29281 z m -1.44315,-4.4131 q 0,0.4183 0.18823,0.75294 0.1987,0.33465 0.52288,0.53334 0.33465,0.18824 0.74249,0.18824 0.55426,0 0.94119,-0.28236 0.38693,-0.29281 0.52288,-0.74249 v -0.89935 q -0.13595,-0.44968 -0.53334,-0.72157 -0.39739,-0.28236 -0.93073,-0.28236 -0.40784,0 -0.74249,0.18824 -0.32418,0.18823 -0.52288,0.51242 -0.18823,0.32419 -0.18823,0.75295 z"
         id="path909" /><path
         d="m 594.79105,125.35154 q -0.75295,0 -1.29675,-0.29281 -0.54379,-0.30327 -0.8366,-0.82615 -0.29282,-0.53334 -0.29282,-1.20263 0,-0.64837 0.32419,-1.17125 0.33464,-0.53334 0.8889,-0.84706 0.55425,-0.31373 1.23399,-0.31373 0.87844,0 1.45361,0.51242 0.58562,0.50196 0.78432,1.42223 l -3.56604,1.234 -0.25099,-0.60654 2.86539,-1.04576 -0.21961,0.14641 q -0.12549,-0.33465 -0.39739,-0.57517 -0.2719,-0.25098 -0.74249,-0.25098 -0.58563,0 -0.9621,0.40784 -0.36602,0.39739 -0.36602,1.02485 0,0.66928 0.39739,1.07713 0.39739,0.40785 1.00393,0.40785 0.28236,0 0.5438,-0.0941 0.26144,-0.10458 0.4915,-0.2719 l 0.48105,0.78432 q -0.33464,0.21961 -0.74249,0.35556 -0.39738,0.12549 -0.79477,0.12549 z"
         id="path911" /><path
         d="m 599.2146,123.01949 q 0,-0.65882 0.31373,-1.1817 0.31373,-0.53334 0.86798,-0.83661 0.55425,-0.30327 1.26537,-0.30327 0.72157,0 1.25491,0.30327 0.5438,0.30327 0.83661,0.83661 0.30327,0.52288 0.30327,1.1817 0,0.65883 -0.30327,1.19217 -0.30327,0.52288 -0.84707,0.83661 -0.53334,0.30327 -1.26537,0.30327 -0.6902,0 -1.24445,-0.28236 -0.5438,-0.28235 -0.86798,-0.80523 -0.31373,-0.53334 -0.31373,-1.24446 z m 1.06668,0.0105 q 0,0.40785 0.17777,0.74249 0.17778,0.32419 0.48105,0.52288 0.31373,0.18824 0.69021,0.18824 0.59608,0 0.97255,-0.41831 0.38693,-0.4183 0.38693,-1.0353 0,-0.617 -0.38693,-1.0353 -0.37647,-0.42876 -0.97255,-0.42876 -0.38694,0 -0.69021,0.19869 -0.30327,0.1987 -0.48105,0.53334 -0.17777,0.33464 -0.17777,0.73203 z"
         id="path913" /><path
         d="m 605.6983,125.24696 v -3.43009 h -0.74249 v -0.94118 h 0.74249 v -1.78825 q 0,-0.93073 0.43922,-1.44315 0.44968,-0.52288 1.3072,-0.52288 0.23007,0 0.50196,0.0732 0.28236,0.0628 0.50197,0.20915 l -0.44968,0.76341 q -0.0941,-0.10458 -0.21961,-0.13595 -0.11503,-0.0418 -0.23006,-0.0418 -0.36602,0 -0.58563,0.26144 -0.20915,0.25098 -0.20915,0.85752 v 1.76734 h 1.3804 v 0.94118 h -1.3804 v 3.43009 z"
         id="path915" /><path
         d="m 611.16763,118.96195 h 1.06667 v 1.92419 h 1.17125 v 0.82615 h -1.17125 v 3.53467 h -1.06667 v -3.53467 h -0.77387 v -0.82615 h 0.77387 z"
         id="path917" /><path
         d="m 614.56634,125.24696 v -8.12555 h 1.0353 v 4.74775 l -0.0209,-0.17778 q 0.23006,-0.42876 0.67974,-0.70066 0.44968,-0.28235 1.07713,-0.28235 0.617,0 1.01439,0.36601 0.39739,0.35556 0.40785,0.94119 v 3.23139 h -1.05622 v -2.86538 q -0.0105,-0.33464 -0.1987,-0.54379 -0.18823,-0.21961 -0.58562,-0.23007 -0.55425,0 -0.93073,0.47059 -0.36601,0.46014 -0.36601,1.17125 v 1.9974 z"
         id="path919" /><path
         d="m 622.47228,125.35154 q -0.75295,0 -1.29675,-0.29281 -0.54379,-0.30327 -0.8366,-0.82615 -0.29282,-0.53334 -0.29282,-1.20263 0,-0.64837 0.32419,-1.17125 0.33464,-0.53334 0.88889,-0.84706 0.55426,-0.31373 1.234,-0.31373 0.87844,0 1.45361,0.51242 0.58562,0.50196 0.78432,1.42223 l -3.56604,1.234 -0.25099,-0.60654 2.86539,-1.04576 -0.21961,0.14641 q -0.1255,-0.33465 -0.39739,-0.57517 -0.2719,-0.25098 -0.74249,-0.25098 -0.58563,0 -0.9621,0.40784 -0.36602,0.39739 -0.36602,1.02485 0,0.66928 0.39739,1.07713 0.39739,0.40785 1.00393,0.40785 0.28236,0 0.5438,-0.0941 0.26144,-0.10458 0.4915,-0.2719 l 0.48105,0.78432 q -0.33464,0.21961 -0.74249,0.35556 -0.39739,0.12549 -0.79477,0.12549 z"
         id="path921" /><path
         d="m 629.98082,125.35154 q -0.60654,0 -1.04576,-0.24053 -0.43922,-0.25098 -0.71112,-0.63791 l 0.10458,-0.30327 v 1.07713 h -1.05622 v -8.12555 h 1.05622 v 4.71638 l -0.0314,-0.38694 q 0.26144,-0.33464 0.73203,-0.54379 0.48105,-0.20915 1.08759,-0.20915 0.58562,0 1.06667,0.28235 0.48105,0.2719 0.77387,0.78432 0.29281,0.51243 0.29281,1.22354 0,0.74249 -0.32419,1.27583 -0.31372,0.52288 -0.82615,0.80523 -0.51242,0.28236 -1.11896,0.28236 z m -0.23007,-0.8889 q 0.40785,0 0.73204,-0.18823 0.32418,-0.1987 0.50196,-0.53334 0.18824,-0.33464 0.18824,-0.75295 0,-0.4183 -0.18824,-0.74249 -0.18824,-0.32418 -0.51242,-0.51242 -0.31373,-0.19869 -0.72158,-0.19869 -0.52288,0 -0.90981,0.27189 -0.38693,0.2719 -0.51242,0.72158 v 0.92027 q 0.13595,0.43922 0.50196,0.73203 0.37648,0.28235 0.92027,0.28235 z"
         id="path923" /><path
         d="m 634.92727,125.42474 q -0.60654,0 -0.99347,-0.36601 -0.38694,-0.36602 -0.40785,-0.94119 v -3.24185 h 1.05622 v 2.86538 q 0.0209,0.3451 0.19869,0.55425 0.17778,0.20915 0.56471,0.23007 0.35556,0 0.63791,-0.20915 0.28236,-0.21961 0.43922,-0.59609 0.16733,-0.37647 0.16733,-0.84706 v -1.9974 h 1.05621 v 4.37127 h -0.95164 l -0.0837,-1.02484 0.0418,0.16732 q -0.19869,0.44968 -0.66929,0.74249 -0.46013,0.29281 -1.05621,0.29281 z"
         id="path925" /><path
         d="m 639.309,117.12141 h 1.05622 v 8.12555 H 639.309 Z"
         id="path927" /><path
         d="m 642.01753,117.12141 h 1.05621 v 8.12555 h -1.05621 z"
         id="path929" /><path
         d="m 646.77574,125.35154 q -0.75294,0 -1.29674,-0.29281 -0.5438,-0.30327 -0.83661,-0.82615 -0.29281,-0.53334 -0.29281,-1.20263 0,-0.64837 0.32418,-1.17125 0.33465,-0.53334 0.8889,-0.84706 0.55425,-0.31373 1.234,-0.31373 0.87844,0 1.4536,0.51242 0.58563,0.50196 0.78432,1.42223 l -3.56604,1.234 -0.25098,-0.60654 2.86538,-1.04576 -0.21961,0.14641 q -0.12549,-0.33465 -0.39739,-0.57517 -0.27189,-0.25098 -0.74249,-0.25098 -0.58562,0 -0.96209,0.40784 -0.36602,0.39739 -0.36602,1.02485 0,0.66928 0.39739,1.07713 0.39739,0.40785 1.00393,0.40785 0.28235,0 0.54379,-0.0941 0.26144,-0.10458 0.49151,-0.2719 l 0.48105,0.78432 q -0.33464,0.21961 -0.74249,0.35556 -0.39739,0.12549 -0.79478,0.12549 z"
         id="path931" /><path
         d="m 650.63459,118.96195 h 1.06668 v 1.92419 h 1.17125 v 0.82615 h -1.17125 v 3.53467 h -1.06668 v -3.53467 h -0.77386 v -0.82615 h 0.77386 z"
         id="path933" /><path
         d="m 655.29867,125.34108 q -0.48105,0 -0.92027,-0.16732 -0.43921,-0.17778 -0.74249,-0.50196 l 0.44968,-0.60655 q 0.2719,0.26144 0.56471,0.39739 0.30327,0.13595 0.56471,0.13595 0.30327,0 0.53334,-0.11503 0.23007,-0.12549 0.23007,-0.40785 0,-0.23006 -0.15687,-0.35556 -0.1464,-0.12549 -0.37647,-0.20915 -0.23007,-0.0837 -0.49151,-0.15686 -0.54379,-0.17778 -0.83661,-0.50197 -0.28235,-0.33464 -0.28235,-0.78432 0,-0.3451 0.16732,-0.64837 0.17778,-0.31373 0.53334,-0.50196 0.35556,-0.1987 0.87844,-0.1987 0.46013,0 0.82615,0.11504 0.36601,0.10457 0.67974,0.36601 l -0.40785,0.63792 q -0.18823,-0.18824 -0.44967,-0.28236 -0.25098,-0.10458 -0.46014,-0.11503 -0.28235,0 -0.4915,0.13595 -0.20916,0.12549 -0.20916,0.3451 0,0.21961 0.14641,0.35556 0.14641,0.12549 0.37647,0.20915 0.24053,0.0732 0.48105,0.15686 0.48105,0.15687 0.79478,0.42876 0.32419,0.2719 0.32419,0.79478 0,0.39739 -0.18824,0.73203 -0.18824,0.33465 -0.57517,0.5438 -0.37647,0.19869 -0.9621,0.19869 z"
         id="path935" /><path
         d="m 657.86078,124.66134 q 0,-0.25098 0.17778,-0.41831 0.18823,-0.17778 0.40784,-0.17778 0.20915,0 0.38693,0.17778 0.17778,0.16733 0.17778,0.41831 0,0.26144 -0.17778,0.42876 -0.17778,0.15686 -0.38693,0.15686 -0.21961,0 -0.40784,-0.15686 -0.17778,-0.16732 -0.17778,-0.42876 z"
         id="path937" /></g><rect
       style="fill:#020617;fill-opacity:1;stroke-width:5.43602"
       id="rect1255-5"
       width="637.14001"
       height="639.21954"
       x="224.25246"
       y="-108.39971"
       ry="0"
       clip-path="none" /></g><style
     id="style3810"><![CDATA[.B{fill:#fff}.C{fill:#3db9ff}.D{filter:url(#G)}.E{opacity:1}.F{opacity:.671}.G{fill:#6eabea}.H{opacity:.392}.I{stroke:#6eabea}.J{font-weight:400}.K{filter:url(#H)}.L{opacity:.216}.M{color-interpolation-filters:sRGB}.N{font-family:Gill Sans MT}.O{fill-opacity:.314}.P{clip-path:url(#B)}.Q{font-size:11.686px}.R{fill:none}.S{stroke:none}.T{stroke-width:2.046}.U{opacity:.264}.V{stroke-width:1.371}.W{stroke-width:1.435}.X{stroke-width:1.358}.Y{stroke-width:.967}.Z{fill-rule:evenodd}.a{fill-opacity:.702}]]></style><style
     type="text/css"
     id="style581">
<![CDATA[
	.st0{fill:#000000;}
]]>
</style><style
     type="text/css"
     id="style598">
<![CDATA[
	.st0{fill:#000000;}
]]>
</style></svg>
