<?xml version="1.0" encoding="UTF-8" standalone="no"?>
<!-- Created with Inkscape (http://www.inkscape.org/) -->

<svg
   version="1.1"
   id="svg1"
   width="636.383"
   height="636.383"
   viewBox="0 0 636.38299 636.383"
   sodipodi:docname="miniorange.svg"
   inkscape:version="1.2.2 (732a01da63, 2022-12-09)"
   xml:space="preserve"
   xmlns:inkscape="http://www.inkscape.org/namespaces/inkscape"
   xmlns:sodipodi="http://sodipodi.sourceforge.net/DTD/sodipodi-0.dtd"
   xmlns:xlink="http://www.w3.org/1999/xlink"
   xmlns="http://www.w3.org/2000/svg"
   xmlns:svg="http://www.w3.org/2000/svg"><defs
     id="defs1"><clipPath
   clipPathUnits="userSpaceOnUse"
   id="clipPath3208"><rect
     style="display:inline;fill:#ffffff;stroke-width:0.132512"
     id="rect3210"
     width="587.26074"
     height="829.177"
     x="-718.21417"
     y="-827.59259" /></clipPath><clipPath
   clipPathUnits="userSpaceOnUse"
   id="clipPath63678"><rect
     style="display:inline;fill:#ffffff;stroke-width:0.132512"
     id="rect63676"
     width="587.26074"
     height="829.177"
     x="-718.21417"
     y="-827.59259" /></clipPath><clipPath
   clipPathUnits="userSpaceOnUse"
   id="clipPath63777"><rect
     style="display:inline;fill:#ffffff;stroke-width:0.132512"
     id="rect63775"
     width="587.26074"
     height="829.177"
     x="-718.21417"
     y="-827.59259" /></clipPath><clipPath
   clipPathUnits="userSpaceOnUse"
   id="clipPath63781"><rect
     style="display:inline;fill:#ffffff;stroke-width:0.132512"
     id="rect63779"
     width="587.26074"
     height="829.177"
     x="-718.21417"
     y="-827.59259" /></clipPath><clipPath
   clipPathUnits="userSpaceOnUse"
   id="clipPath63785"><rect
     style="display:inline;fill:#ffffff;stroke-width:0.132512"
     id="rect63783"
     width="587.26074"
     height="829.177"
     x="-718.21417"
     y="-827.59259" /></clipPath><clipPath
   clipPathUnits="userSpaceOnUse"
   id="clipPath63789"><rect
     style="display:inline;fill:#ffffff;stroke-width:0.132512"
     id="rect63787"
     width="587.26074"
     height="829.177"
     x="-718.21417"
     y="-827.59259" /></clipPath><clipPath
   clipPathUnits="userSpaceOnUse"
   id="clipPath63793"><rect
     style="display:inline;fill:#ffffff;stroke-width:0.132512"
     id="rect63791"
     width="587.26074"
     height="829.177"
     x="-718.21417"
     y="-827.59259" /></clipPath><clipPath
   clipPathUnits="userSpaceOnUse"
   id="clipPath63797"><rect
     style="display:inline;fill:#ffffff;stroke-width:0.132512"
     id="rect63795"
     width="587.26074"
     height="829.177"
     x="-718.21417"
     y="-827.59259" /></clipPath><clipPath
   clipPathUnits="userSpaceOnUse"
   id="clipPath63803"><rect
     style="display:inline;fill:#ffffff;stroke-width:0.132512"
     id="rect63801"
     width="587.26074"
     height="829.177"
     x="-718.21417"
     y="-827.59259" /></clipPath><clipPath
   clipPathUnits="userSpaceOnUse"
   id="clipPath63809"><rect
     style="display:inline;fill:#ffffff;stroke-width:0.132512"
     id="rect63807"
     width="587.26074"
     height="829.177"
     x="-718.21417"
     y="-827.59259" /></clipPath><linearGradient
   id="A"
   gradientUnits="userSpaceOnUse"><stop
     offset="0"
     stop-color="#a9abc3"
     id="stop3812" /><stop
     offset="1"
     stop-color="#a9abc3"
     stop-opacity="0"
     id="stop3814" /></linearGradient><clipPath
   id="B"><path
     d="m -718.214,-827.593 h 587.261 V 1.584 h -587.261 z"
     stroke-width="0.133"
     class="B"
     id="path3817" /></clipPath><filter
   id="C"
   x="-0.52019972"
   y="-0.4183833"
   width="2.0403993"
   height="1.8367666"
   class="M"><feGaussianBlur
     stdDeviation="20.277"
     id="feGaussianBlur3820" /></filter><filter
   id="D"
   x="-0.091497011"
   y="-0.44648707"
   width="1.182994"
   height="1.8929741"
   class="M"><feGaussianBlur
     stdDeviation="64.741"
     id="feGaussianBlur3823" /></filter><filter
   id="E"
   x="-0.097588912"
   y="-2.8056791"
   width="1.1951778"
   height="6.6113582"
   class="M"><feGaussianBlur
     stdDeviation="67.438"
     id="feGaussianBlur3826" /></filter><filter
   id="F"
   x="-0.19985165"
   y="-0.97285074"
   width="1.3997033"
   height="2.9457016"
   class="M"><feGaussianBlur
     stdDeviation="77.46"
     id="feGaussianBlur3829" /></filter><filter
   id="G"
   x="-1.2"
   y="-1.2"
   width="3.4000001"
   height="3.4000001"
   class="M"><feGaussianBlur
     stdDeviation="5.736"
     id="feGaussianBlur3832" /></filter><filter
   id="H"
   x="-0.57647371"
   y="-1.6838783"
   width="2.1529474"
   height="4.3677568"
   class="M"><feGaussianBlur
     stdDeviation="96.127"
     id="feGaussianBlur3835" /></filter><filter
   id="I"
   x="-0.28464955"
   y="-0.12700434"
   width="1.5692991"
   height="1.2540087"
   class="M"><feGaussianBlur
     stdDeviation="44.977"
     id="feGaussianBlur3838" /></filter><filter
   id="J"
   x="-0.050294094"
   y="-0.16300096"
   width="1.1005882"
   height="1.3260019"
   class="M"><feGaussianBlur
     stdDeviation="32.994"
     id="feGaussianBlur3841" /></filter><filter
   id="K"
   x="-0.0049741664"
   y="-0.0088587068"
   width="1.0099483"
   height="1.0177174"
   class="M"><feGaussianBlur
     stdDeviation=".967"
     id="feGaussianBlur3844" /></filter><linearGradient
   xlink:href="#A"
   x1="378.02701"
   y1="-41.048"
   x2="298.02701"
   y2="-134.048"
   id="linearGradient3847" /><path
   id="N"
   d="m -444.028,309.022 h 46.199 v 2.567 h -46.199 z" /><path
   id="O"
   d="m 315.582,176.163 -1.42,-0.948 -1.587,0.632 0.463,-1.644 -1.092,-1.313 1.707,-0.068 0.912,-1.444 0.592,1.602 1.655,0.421 -1.341,1.058 z" /><path
   id="P"
   d="m 749.94,645.38 389.39,97.347 140.61,-75.715 356.94,169.46 -930.21,-39.66 z" /><filter
   inkscape:collect="always"
   style="color-interpolation-filters:sRGB"
   id="filter8912"
   x="-0.13608925"
   y="-0.94047462"
   width="1.2721722"
   height="2.8809533"><feGaussianBlur
     inkscape:collect="always"
     stdDeviation="364.16265"
     id="feGaussianBlur8914" /></filter>
   
   
  <filter
   inkscape:collect="always"
   style="color-interpolation-filters:sRGB"
   id="filter3803"
   x="-0.22144335"
   y="-0.22143293"
   width="1.4428867"
   height="1.4428659"><feGaussianBlur
     inkscape:collect="always"
     stdDeviation="47.239782"
     id="feGaussianBlur3805" /></filter><filter
   inkscape:collect="always"
   style="color-interpolation-filters:sRGB"
   id="filter8071"
   x="-0.1353464"
   y="-0.93538368"
   width="1.2706928"
   height="2.8707674"><feGaussianBlur
     inkscape:collect="always"
     stdDeviation="16.357296"
     id="feGaussianBlur8073" /></filter><filter
   inkscape:collect="always"
   style="color-interpolation-filters:sRGB"
   id="filter19831-3"
   x="-0.051758734"
   y="-0.25813457"
   width="1.1035175"
   height="1.5162691"><feGaussianBlur
     inkscape:collect="always"
     stdDeviation="0.74707586"
     id="feGaussianBlur19833-5" /></filter><filter
   inkscape:collect="always"
   style="color-interpolation-filters:sRGB"
   id="filter17501-0"
   x="-0.16973718"
   y="-0.16972919"
   width="1.3394744"
   height="1.3394584"><feGaussianBlur
     inkscape:collect="always"
     stdDeviation="36.209471"
     id="feGaussianBlur17499-9" /></filter><filter
   inkscape:collect="always"
   style="color-interpolation-filters:sRGB"
   id="filter12278"
   x="-0.094465219"
   y="-0.59924506"
   width="1.1889304"
   height="2.1984901"><feGaussianBlur
     inkscape:collect="always"
     stdDeviation="2.1551873"
     id="feGaussianBlur12280" /></filter>
   
   
  </defs><sodipodi:namedview
     id="namedview1"
     pagecolor="#ffffff"
     bordercolor="#cccccc"
     borderopacity="1"
     inkscape:showpageshadow="0"
     inkscape:pageopacity="1"
     inkscape:pagecheckerboard="0"
     inkscape:deskcolor="#d1d1d1"
     showgrid="false"
     inkscape:zoom="0.9280777"
     inkscape:cx="321.63255"
     inkscape:cy="391.66979"
     inkscape:window-width="906"
     inkscape:window-height="728"
     inkscape:window-x="1"
     inkscape:window-y="0"
     inkscape:window-maximized="0"
     inkscape:current-layer="g1"
     showguides="true" /><g
     inkscape:groupmode="layer"
     inkscape:label="Image"
     id="g1"
     transform="translate(-224.25246,108.39971)"><rect
       style="opacity:0.670989;fill:#25262c;fill-opacity:0;stroke-width:2.98019;stroke-opacity:0.992157"
       id="rect3381"
       width="636.49786"
       height="420.04538"
       x="225.65103"
       y="-14.975078"
       ry="3.3874679"
       clip-path="none" /><g
       aria-label="ظ"
       transform="matrix(3.2818365,0,0,3.2818365,1492.9355,566.14797)"
       id="text3455"
       clip-path="url(#clipPath3208)"
       style="font-size:11.6858px;font-family:'Gill Sans MT';-inkscape-font-specification:'Gill Sans MT';text-align:justify;opacity:0.670989;fill:#6eabea;stroke:#6eabea;stroke-width:0" /><g
       aria-label="م"
       transform="matrix(5.605559,0,0,5.605559,2115.9674,1146.7397)"
       id="text3459"
       clip-path="url(#clipPath3208)"
       style="font-size:11.6858px;font-family:'Gill Sans MT';-inkscape-font-specification:'Gill Sans MT';text-align:justify;opacity:0.670989;fill:#6eabea;stroke:#6eabea;stroke-width:0" /><g
       aria-label="ف"
       transform="matrix(3.2818365,0,0,3.2818365,1165.3436,860.08001)"
       id="text3465"
       clip-path="url(#clipPath3208)"
       style="font-size:11.6858px;font-family:'Gill Sans MT';-inkscape-font-specification:'Gill Sans MT';text-align:justify;opacity:0.670989;fill:#6eabea;stroke:#6eabea;stroke-width:0" /><g
       aria-label="ه"
       transform="matrix(3.2818365,0,0,3.2818365,1547.822,839.69891)"
       id="text3469"
       clip-path="url(#clipPath3208)"
       style="font-size:11.6858px;font-family:'Gill Sans MT';-inkscape-font-specification:'Gill Sans MT';text-align:justify;opacity:0.670989;fill:#6eabea;stroke:#6eabea;stroke-width:0" /><g
       aria-label="ل"
       transform="matrix(1.8021474,0,0,1.8021474,1091.5533,644.26851)"
       id="text3473"
       clip-path="url(#clipPath3208)"
       style="font-size:11.6858px;font-family:'Gill Sans MT';-inkscape-font-specification:'Gill Sans MT';text-align:justify;opacity:0.670989;fill:#6eabea;stroke:#6eabea;stroke-width:0" /><g
       aria-label=" ن"
       id="text3547"
       style="font-size:24.1548px;opacity:0.670989;fill:#6eabea;stroke-width:1.15343" /><g
       aria-label="ه"
       id="text3551"
       style="font-size:13.8412px;opacity:0.670989;fill:#6eabea;stroke-width:1.15343" /><g
       aria-label="ك"
       id="text3555"
       style="font-size:36.9759px;opacity:0.670989;fill:#6eabea;stroke-width:1.15343" /><g
       aria-label="ض"
       id="text3561"
       style="font-size:34.7325px;font-family:'Gill Sans MT';-inkscape-font-specification:'Gill Sans MT';opacity:0.670989;fill:#6eabea;stroke-width:49.9694" /><path
       class="fil0 str0"
       d="m 612.00465,143.27125 h 10.30117 c 1.25953,0 2.29414,0.89967 2.29414,1.97926 v 0.31489 c 0,1.12458 -1.03461,2.02424 -2.29414,2.02424 h -10.30117 c -1.25953,0 -2.29415,-0.89966 -2.29415,-2.02424 v -0.31489 c 0,-1.07959 1.03462,-1.97926 2.29415,-1.97926 z m 27.52976,0.09 h 10.34615 c 1.25953,0 2.29415,0.89966 2.29415,1.97926 v 0.31488 c 0,1.0796 -1.03462,1.97927 -2.29415,1.97927 h -10.34615 c -1.25953,0 -2.29415,-0.89967 -2.29415,-1.97927 v -0.31488 c 0,-1.0796 1.03462,-1.97926 2.29415,-1.97926 z m 117.00148,3.37374 c 0,-1.3495 1.8893,-2.47408 4.22843,-2.47408 2.33913,0 4.22843,1.12458 4.22843,2.47408 0,1.39448 -1.8893,2.51907 -4.22843,2.51907 -2.33913,0 -4.22843,-1.12459 -4.22843,-2.51907 z m -252.53607,24.56087 -0.13495,9.9413 c -0.35987,2.29415 -1.70937,3.59866 -4.00351,4.00351 l -18.26321,-0.22491 c -2.20418,-0.045 -2.4291,-0.49482 -4.00351,-2.38412 -1.43947,-1.57441 -2.51907,-2.96889 -2.51907,-2.96889 l -0.13495,-11.15586 1.16957,-0.045 c 1.3495,2.33913 3.05886,4.0485 5.17308,5.12809 0.13495,5.1281 2.87892,8.36689 8.23193,9.71639 2.06923,-0.31488 2.1592,-1.12458 0.2699,-2.4291 -3.41872,-2.11421 -4.99314,-4.54331 -4.63327,-7.28729 0.13495,-2.11421 1.03461,-3.23879 2.69899,-3.32876 1.70937,0.045 2.78897,-0.62976 3.28378,-2.02424 l 11.15585,0.22491 c 1.21455,0.35987 1.75435,1.0796 1.70937,2.83395 z m 217.40414,-11.5607 h 29.14916 v 2.24916 h -29.14916 z m -25.05568,-10.79599 v 0.2699 c 0,0.94465 -1.79933,1.75435 -3.95853,1.75435 h -17.85836 c -2.20418,0 -3.95852,-0.8097 -3.95852,-1.75435 v -0.2699 c 0,-0.94465 1.75434,-1.70936 3.95852,-1.70936 h 17.85836 c 2.1592,0 3.95853,0.76471 3.95853,1.70936 z m -21.72692,9.35652 h 17.85836 c 2.20418,0 4.00351,0.8097 4.00351,1.75435 v 0.2699 c 0,0.94465 -1.79933,1.70936 -4.00351,1.70936 h -17.85836 c -2.1592,0 -3.95853,-0.76471 -3.95853,-1.70936 v -0.2699 c 0,-0.94465 1.79933,-1.75435 3.95853,-1.75435 z"
       id="path8282"
       style="clip-rule:evenodd;mix-blend-mode:normal;fill:#e65d02;fill-opacity:1;fill-rule:evenodd;stroke:none;stroke-width:0.312403;filter:url(#filter8071);image-rendering:optimizeQuality;shape-rendering:geometricPrecision;text-rendering:geometricPrecision"
       transform="matrix(0.47842367,0,0,0.47842367,-524.17847,139.18561)"
       sodipodi:insensitive="true" /><path
       class="fil0 str0"
       d="m 5539,4067 c 0,0 415,7 1219,25 98,2 162,33 191,92 l 790,23 c 138,4 98,4 187,126 89,121 180,188 273,202 l 624,8 c 58,-129 114,-232 169,-309 l -3,-122 c 1,-46 22,-68 63,-66 l 154,2 c 31,-1 47,11 49,36 v 403 c 27,7 48,29 62,66 l 64,1 c 33,0 39,17 39,29 v 164 c 0,12 -9,28 -37,28 l -114,1 c -35,68 -79,97 -131,86 -108,-15 -201,-25 -278,-30 l -1862,-10 c -76,-3 -135,4 -177,22 l -582,-2 c -350,-76 -639,-60 -869,47 -121,95 -222,91 -301,-14 0,0 -227,-2 -673,4 24,575 349,1085 967,1520 l -443,660 C 4168,6513 3733,5845 3615,5052 c -16,-4 -23,3 -23,18 6,86 -3,138 -26,156 -18,16 -37,51 -36,99 -1,67 -20,88 -62,78 l -1,-114 c 3,-40 -18,-51 -63,-34 l -30,51 c -23,33 -49,47 -77,45 l -432,-6 c -39,5 -71,-7 -97,-35 7,10 -15,-11 -64,-65 -84,9 -236,188 -456,539 -29,45 -26,32 -25,83 3,97 -23,179 -136,179 -183,2 -280,32 -410,-130 -59,-67 -57,-141 6,-223 l 331,-494 c 54,-83 58,-152 12,-208 -64,-51 -169,-51 -313,-1 l -2401,855 c -150,40 -227,35 -232,-13 l 3,-1172 c 6,-92 66,-139 180,-143 l 1601,-84 c 100,-7 173,8 218,44 92,49 179,58 261,27 227,-67 414,-107 559,-121 l 37,-52 c -20,-19 -23,-37 -8,-55 16,-22 46,-36 90,-43 12,-13 146,-152 193,-161 l 2492,28 c 20,-2 21,-12 4,-32 -31,-34 -25,-118 12,-125 30,-3 48,14 52,52 h 51 c 7,-41 24,-59 53,-52 30,2 47,19 53,50 l 293,2 c 33,-61 69,-62 110,-2 l 131,-1 c 46,-1 65,10 74,75 z"
       id="path8906"
       style="clip-rule:evenodd;mix-blend-mode:normal;fill:#ea6005;fill-opacity:1;fill-rule:evenodd;stroke:#373435;stroke-width:6.94488;filter:url(#filter8912);image-rendering:optimizeQuality;shape-rendering:geometricPrecision;text-rendering:geometricPrecision"
       transform="matrix(0.02334523,0,0,0.02334523,456.88719,129.68146)" /><path
       class="fil0 str0"
       d="m 5764,4350 h 229 c 28,0 51,20 51,44 v 7 c 0,25 -23,45 -51,45 h -229 c -28,0 -51,-20 -51,-45 v -7 c 0,-24 23,-44 51,-44 z m 612,2 h 230 c 28,0 51,20 51,44 v 7 c 0,24 -23,44 -51,44 h -230 c -28,0 -51,-20 -51,-44 v -7 c 0,-24 23,-44 51,-44 z m 2601,75 c 0,-30 42,-55 94,-55 52,0 94,25 94,55 0,31 -42,56 -94,56 -52,0 -94,-25 -94,-56 z m -5614,546 -3,221 c -8,51 -38,80 -89,89 l -406,-5 c -49,-1 -54,-11 -89,-53 -32,-35 -56,-66 -56,-66 l -3,-248 26,-1 c 30,52 68,90 115,114 3,114 64,186 183,216 46,-7 48,-25 6,-54 -76,-47 -111,-101 -103,-162 3,-47 23,-72 60,-74 38,1 62,-14 73,-45 l 248,5 c 27,8 39,24 38,63 z m 4833,-257 h 648 v 50 h -648 z m -557,-240 v 6 c 0,21 -40,39 -88,39 h -397 c -49,0 -88,-18 -88,-39 v -6 c 0,-21 39,-38 88,-38 h 397 c 48,0 88,17 88,38 z m -483,208 h 397 c 49,0 89,18 89,39 v 6 c 0,21 -40,38 -89,38 h -397 c -48,0 -88,-17 -88,-38 v -6 c 0,-21 40,-39 88,-39 z"
       id="path8908"
       style="clip-rule:evenodd;mix-blend-mode:normal;fill:#00b3ff;fill-opacity:1;fill-rule:evenodd;stroke:#373435;stroke-width:6.94488;filter:url(#filter8912);image-rendering:optimizeQuality;shape-rendering:geometricPrecision;text-rendering:geometricPrecision"
       transform="matrix(0.02334523,0,0,0.02334523,456.88719,129.68146)" /><path
       class="fil0 str0"
       d="m 586.1964,224.62652 c 0,0 9.68827,0.16342 28.45784,0.58363 2.28784,0.0467 3.78193,0.77039 4.45894,2.14776 l 18.44273,0.53694 c 3.22164,0.0934 2.28783,0.0934 4.36556,2.9415 2.07772,2.82478 4.20214,4.3889 6.37324,4.71574 l 14.56742,0.18675 c 1.35403,-3.01153 2.66136,-5.41609 3.94535,-7.21367 l -0.07,-2.84812 c 0.0233,-1.07388 0.5136,-1.58747 1.47075,-1.54078 l 3.59516,0.0467 c 0.72371,-0.0233 1.09723,0.25679 1.14392,0.84042 v 9.40813 c 0.63032,0.16342 1.12057,0.67701 1.4474,1.54079 l 1.49411,0.0233 c 0.77038,0 0.91046,0.39686 0.91046,0.67701 v 3.82861 c 0,0.28015 -0.21011,0.65367 -0.86378,0.65367 l -2.66136,0.0233 c -0.81707,1.58748 -1.84426,2.26449 -3.05822,2.00769 -2.52128,-0.35017 -4.69239,-0.58362 -6.48997,-0.70036 l -43.46883,-0.23344 c -1.77424,-0.07 -3.15161,0.0934 -4.13211,0.5136 l -13.58692,-0.0467 c -8.17082,-1.77424 -14.91759,-1.40072 -20.28699,1.09722 -2.82478,2.21779 -5.18265,2.12441 -7.02692,-0.32683 0,0 -5.29937,-0.0467 -15.71134,0.0934 0.56029,13.42351 8.14748,25.32958 22.57484,35.48476 l -10.34193,15.40784 c -17.55561,-12.7465 -27.71079,-28.3411 -30.46553,-46.85387 -0.37353,-0.0934 -0.53694,0.07 -0.53694,0.42022 0.14007,2.00769 -0.07,3.22164 -0.60697,3.64185 -0.42023,0.37353 -0.86378,1.19061 -0.84044,2.31118 -0.0233,1.56413 -0.46689,2.05438 -1.4474,1.82093 l -0.0233,-2.66136 c 0.07,-0.9338 -0.42021,-1.19061 -1.47074,-0.79374 l -0.70037,1.19061 c -0.53693,0.77039 -1.14391,1.09722 -1.79758,1.05054 l -10.08513,-0.14008 c -0.91047,0.11674 -1.65751,-0.16341 -2.26449,-0.81708 0.16341,0.23345 -0.35018,-0.2568 -1.49409,-1.51743 -1.961,0.2101 -5.50948,4.38889 -10.64543,12.58307 -0.67701,1.05053 -0.60697,0.74704 -0.58363,1.93765 0.07,2.26449 -0.53694,4.17881 -3.17495,4.17881 -4.27217,0.0467 -6.53665,0.74704 -9.57154,-3.03489 -1.37737,-1.56413 -1.33068,-3.29167 0.14007,-5.20599 l 7.72727,-11.53254 c 1.26064,-1.93765 1.35403,-3.54847 0.28015,-4.8558 -1.4941,-1.19061 -3.94535,-1.19061 -7.30706,-0.0233 l -56.05189,19.96016 c -3.50179,0.93382 -5.29937,0.81708 -5.4161,-0.30348 l 0.07,-27.36061 c 0.14007,-2.14777 1.54078,-3.24499 4.20214,-3.33837 l 37.37571,-1.96099 c 2.33452,-0.16342 4.03872,0.18675 5.08925,1.02719 2.14777,1.14392 4.17881,1.35402 6.09311,0.63031 5.29936,-1.56412 9.66492,-2.49794 13.04999,-2.82477 l 0.86376,-1.21394 c -0.46689,-0.44357 -0.53693,-0.86378 -0.18676,-1.28399 0.37353,-0.51359 1.07388,-0.84044 2.10108,-1.00386 0.28015,-0.30348 3.4084,-3.54846 4.50562,-3.75857 l 58.17631,0.65366 c 0.46691,-0.0467 0.49025,-0.28014 0.0934,-0.74704 -0.7237,-0.79374 -0.58363,-2.75474 0.28015,-2.91816 0.70035,-0.07 1.12057,0.32683 1.21395,1.21395 h 1.1906 c 0.16342,-0.95715 0.56029,-1.37736 1.23729,-1.21395 0.70037,0.0467 1.09724,0.44356 1.23731,1.16726 l 6.84015,0.0467 c 0.77039,-1.42405 1.61082,-1.44739 2.56797,-0.0467 l 3.05823,-0.0233 c 1.07388,-0.0233 1.51744,0.23345 1.72754,1.75089 z"
       id="path708"
       style="clip-rule:evenodd;fill:#020617;fill-opacity:1;fill-rule:evenodd;stroke:#373435;stroke-width:0.16213;image-rendering:optimizeQuality;shape-rendering:geometricPrecision;text-rendering:geometricPrecision" /><path
       class="fil0 str0"
       d="m 612.00465,143.27125 h 10.30117 c 1.25953,0 2.29414,0.89967 2.29414,1.97926 v 0.31489 c 0,1.12458 -1.03461,2.02424 -2.29414,2.02424 h -10.30117 c -1.25953,0 -2.29415,-0.89966 -2.29415,-2.02424 v -0.31489 c 0,-1.07959 1.03462,-1.97926 2.29415,-1.97926 z m 27.52976,0.09 h 10.34615 c 1.25953,0 2.29415,0.89966 2.29415,1.97926 v 0.31488 c 0,1.0796 -1.03462,1.97927 -2.29415,1.97927 h -10.34615 c -1.25953,0 -2.29415,-0.89967 -2.29415,-1.97927 v -0.31488 c 0,-1.0796 1.03462,-1.97926 2.29415,-1.97926 z m 117.00148,3.37374 c 0,-1.3495 1.8893,-2.47408 4.22843,-2.47408 2.33913,0 4.22843,1.12458 4.22843,2.47408 0,1.39448 -1.8893,2.51907 -4.22843,2.51907 -2.33913,0 -4.22843,-1.12459 -4.22843,-2.51907 z m -252.53607,24.56087 -0.13495,9.9413 c -0.35987,2.29415 -1.70937,3.59866 -4.00351,4.00351 l -18.26321,-0.22491 c -2.20418,-0.045 -2.4291,-0.49482 -4.00351,-2.38412 -1.43947,-1.57441 -2.51907,-2.96889 -2.51907,-2.96889 l -0.13495,-11.15586 1.16957,-0.045 c 1.3495,2.33913 3.05886,4.0485 5.17308,5.12809 0.13495,5.1281 2.87892,8.36689 8.23193,9.71639 2.06923,-0.31488 2.1592,-1.12458 0.2699,-2.4291 -3.41872,-2.11421 -4.99314,-4.54331 -4.63327,-7.28729 0.13495,-2.11421 1.03461,-3.23879 2.69899,-3.32876 1.70937,0.045 2.78897,-0.62976 3.28378,-2.02424 l 11.15585,0.22491 c 1.21455,0.35987 1.75435,1.0796 1.70937,2.83395 z m 217.40414,-11.5607 h 29.14916 v 2.24916 h -29.14916 z m -25.05568,-10.79599 v 0.2699 c 0,0.94465 -1.79933,1.75435 -3.95853,1.75435 h -17.85836 c -2.20418,0 -3.95852,-0.8097 -3.95852,-1.75435 v -0.2699 c 0,-0.94465 1.75434,-1.70936 3.95852,-1.70936 h 17.85836 c 2.1592,0 3.95853,0.76471 3.95853,1.70936 z m -21.72692,9.35652 h 17.85836 c 2.20418,0 4.00351,0.8097 4.00351,1.75435 v 0.2699 c 0,0.94465 -1.79933,1.70936 -4.00351,1.70936 h -17.85836 c -2.1592,0 -3.95853,-0.76471 -3.95853,-1.70936 v -0.2699 c 0,-0.94465 1.79933,-1.75435 3.95853,-1.75435 z"
       id="path8069"
       style="clip-rule:evenodd;mix-blend-mode:normal;fill:#ea6005;fill-opacity:1;fill-rule:evenodd;stroke:none;stroke-width:0.312403;filter:url(#filter8071);image-rendering:optimizeQuality;shape-rendering:geometricPrecision;text-rendering:geometricPrecision"
       transform="matrix(0.51897577,0,0,0.51897577,273.8335,156.87891)" /><path
       style="clip-rule:evenodd;fill:#ff6803;fill-opacity:1;fill-rule:evenodd;stroke:none;stroke-width:0.16213;image-rendering:optimizeQuality;shape-rendering:geometricPrecision;text-rendering:geometricPrecision"
       d="m 623.94564,239.03052 h 9.26806 c 1.14391,0 2.07772,0.42021 2.07772,0.91046 v 0.14007 c 0,0.49025 -0.93381,0.88712 -2.07772,0.88712 h -9.26806 c -1.12057,0 -2.05438,-0.39687 -2.05438,-0.88712 v -0.14007 c 0,-0.49025 0.93381,-0.91046 2.05438,-0.91046 z"
       id="path21460" /><path
       style="clip-rule:evenodd;fill:#ff6803;fill-opacity:1;fill-rule:evenodd;stroke:none;stroke-width:0.16213;image-rendering:optimizeQuality;shape-rendering:geometricPrecision;text-rendering:geometricPrecision"
       d="m 635.22138,234.17471 v 0.14007 c 0,0.49025 -0.9338,0.91046 -2.05438,0.91046 h -9.26805 c -1.14392,0 -2.05438,-0.42021 -2.05438,-0.91046 v -0.14007 c 0,-0.49025 0.91046,-0.88712 2.05438,-0.88712 h 9.26805 c 1.12058,0 2.05438,0.39687 2.05438,0.88712 z"
       id="path21458" /><path
       style="clip-rule:evenodd;fill:#ff6803;fill-opacity:1;fill-rule:evenodd;stroke:none;stroke-width:0.16213;image-rendering:optimizeQuality;shape-rendering:geometricPrecision;text-rendering:geometricPrecision"
       d="m 648.22467,239.77756 h 15.12771 v 1.16727 h -15.12771 z"
       id="path21456" /><path
       style="clip-rule:evenodd;fill:#b04a0a;fill-opacity:1;fill-rule:evenodd;stroke:none;stroke-width:0.16213;image-rendering:optimizeQuality;shape-rendering:geometricPrecision;text-rendering:geometricPrecision"
       d="m 535.39719,245.77729 -0.07,5.15929 c -0.18677,1.19061 -0.88713,1.86761 -2.07773,2.07773 l -9.47816,-0.11672 c -1.14392,-0.0234 -1.26064,-0.25681 -2.07772,-1.23731 -0.74706,-0.81708 -1.30735,-1.54077 -1.30735,-1.54077 l -0.07,-5.78963 0.60697,-0.0233 c 0.70036,1.21395 1.58748,2.10107 2.6847,2.66136 0.07,2.66136 1.49409,4.3422 4.27218,5.04257 1.07388,-0.16342 1.12057,-0.58363 0.14006,-1.26065 -1.77422,-1.09722 -2.59131,-2.35787 -2.40455,-3.78192 0.07,-1.09723 0.53695,-1.68086 1.40071,-1.72756 0.88712,0.0233 1.44741,-0.32682 1.70421,-1.05052 l 5.78961,0.11672 c 0.63032,0.18676 0.91047,0.56028 0.88712,1.47075 z"
       id="path21454" /><path
       style="clip-rule:evenodd;fill:#ff6803;fill-opacity:1;fill-rule:evenodd;stroke:none;stroke-width:0.16213;image-rendering:optimizeQuality;shape-rendering:geometricPrecision;text-rendering:geometricPrecision"
       d="m 666.45729,233.03079 c 0,-0.70036 0.98051,-1.28399 2.19446,-1.28399 1.21395,0 2.19446,0.58363 2.19446,1.28399 0,0.7237 -0.98051,1.30733 -2.19446,1.30733 -1.21395,0 -2.19446,-0.58363 -2.19446,-1.30733 z"
       id="path21452" /><path
       style="clip-rule:evenodd;fill:#ff6803;fill-opacity:1;fill-rule:evenodd;stroke:none;stroke-width:0.16213;image-rendering:optimizeQuality;shape-rendering:geometricPrecision;text-rendering:geometricPrecision"
       d="m 605.73637,231.2799 h 5.3694 c 0.65366,0 1.1906,0.4669 1.1906,1.02719 v 0.16341 c 0,0.56029 -0.53694,1.0272 -1.1906,1.0272 h -5.3694 c -0.65367,0 -1.19061,-0.46691 -1.19061,-1.0272 v -0.16341 c 0,-0.56029 0.53694,-1.02719 1.19061,-1.02719 z"
       id="path21450" /><path
       style="clip-rule:evenodd;fill:#ff6803;fill-opacity:1;fill-rule:evenodd;stroke:none;stroke-width:0.16213;image-rendering:optimizeQuality;shape-rendering:geometricPrecision;text-rendering:geometricPrecision"
       d="m 591.44908,231.23322 h 5.34606 c 0.65367,0 1.1906,0.46691 1.1906,1.02718 v 0.16343 c 0,0.58363 -0.53693,1.05053 -1.1906,1.05053 h -5.34606 c -0.65366,0 -1.19061,-0.4669 -1.19061,-1.05053 v -0.16343 c 0,-0.56027 0.53695,-1.02718 1.19061,-1.02718 z"
       id="path710" /><g
       id="g1585"
       transform="matrix(0.01181878,0.01184884,-0.01184884,0.01181878,686.0583,232.93095)"
       style="fill:#ff6803;fill-opacity:1;filter:url(#filter3803)">
	<path
   class="st0"
   d="M 509.915,2.067 C 498.446,-9.417 371.29,29.161 331.086,60.974 L 451.04,180.927 c 31.813,-40.219 70.375,-167.36 58.875,-178.86 z"
   id="path1581"
   style="fill:#ff6803;fill-opacity:1" />
	<path
   class="st0"
   d="m 268.743,122.677 -41.344,10.328 -185.188,185.203 12.047,12.063 -16.359,16.344 -12.063,-12.047 -25.828,25.828 151.594,151.608 25.844,-25.844 -12.063,-12.063 16.359,-16.359 12.063,12.047 185.188,-185.171 10.344,-41.359 c 0,0 18.703,-18.719 48.25,-48.234 L 316.993,74.442 c -29.532,29.5 -48.25,48.235 -48.25,48.235 z"
   id="path1583"
   style="fill:#ff6803;fill-opacity:1" />
</g><g
       id="g587"
       transform="matrix(0.01181878,0.01184884,-0.01184884,0.01181878,685.68097,232.90699)"
       style="fill:#020617;fill-opacity:1">
	<path
   class="st0"
   d="M 509.915,2.067 C 498.446,-9.417 371.29,29.161 331.086,60.974 L 451.04,180.927 c 31.813,-40.219 70.375,-167.36 58.875,-178.86 z"
   id="path583"
   style="fill:#020617;fill-opacity:1" />
	<path
   class="st0"
   d="m 268.743,122.677 -41.344,10.328 -185.188,185.203 12.047,12.063 -16.359,16.344 -12.063,-12.047 -25.828,25.828 151.594,151.608 25.844,-25.844 -12.063,-12.063 16.359,-16.359 12.063,12.047 185.188,-185.171 10.344,-41.359 c 0,0 18.703,-18.719 48.25,-48.234 L 316.993,74.442 c -29.532,29.5 -48.25,48.235 -48.25,48.235 z"
   id="path585"
   style="fill:#020617;fill-opacity:1" />
</g><g
       aria-label="Philistine"
       transform="matrix(1.4656989,0,0,1.4656989,-334.63232,457.84901)"
       id="text20375"
       style="font-size:8.82577px;font-family:'Reem Kufi Fun';-inkscape-font-specification:'Reem Kufi Fun';fill:#ea6005;stroke-width:5.69702;filter:url(#filter19831-3)"><path
         d="m 609.67902,-213.13779 q 1.05909,0 1.65924,0.52955 0.60016,0.52954 0.60016,1.48273 0,0.37951 -0.11474,0.75019 -0.11473,0.37068 -0.37068,0.67958 -0.24712,0.30008 -0.66194,0.48542 -0.40598,0.17651 -0.99731,0.17651 h -0.94435 v 2.2947 h -0.91788 v -6.39868 z m 0.10591,3.20376 q 0.36185,0 0.60015,-0.11474 0.24712,-0.12356 0.37951,-0.3089 0.14121,-0.18534 0.19416,-0.38833 0.0618,-0.203 0.0618,-0.36186 0,-0.17652 -0.0618,-0.37068 -0.053,-0.203 -0.19416,-0.37069 -0.13239,-0.17651 -0.36186,-0.28242 -0.22947,-0.11474 -0.57367,-0.11474 h -0.97966 v 2.31236 z"
         id="path7769" /><path
         d="m 613.0328,-206.73911 v -6.85762 h 0.87376 v 4.0069 l -0.0177,-0.15004 q 0.19417,-0.36185 0.57368,-0.59132 0.37951,-0.2383 0.90905,-0.2383 0.52072,0 0.8561,0.3089 0.33538,0.30008 0.34421,0.79432 v 2.72716 h -0.8914 v -2.41826 q -0.009,-0.28242 -0.16769,-0.45894 -0.15887,-0.18534 -0.49425,-0.19416 -0.46776,0 -0.78549,0.39716 -0.3089,0.38833 -0.3089,0.98848 v 1.68572 z"
         id="path7771" /><path
         d="m 617.97523,-210.42828 h 0.8914 v 3.68917 h -0.8914 z m -0.0441,-1.32386 q 0,-0.203 0.15887,-0.34421 0.16769,-0.14121 0.36185,-0.14121 0.19417,0 0.35303,0.14121 0.15887,0.14121 0.15887,0.34421 0,0.22064 -0.15887,0.35303 -0.15886,0.13238 -0.35303,0.13238 -0.19416,0 -0.36185,-0.13238 -0.15887,-0.13239 -0.15887,-0.35303 z"
         id="path7773" /><path
         d="m 620.26111,-213.59673 h 0.8914 v 6.85762 h -0.8914 z"
         id="path7775" /><path
         d="m 622.54699,-210.42828 h 0.89141 v 3.68917 h -0.89141 z m -0.0441,-1.32386 q 0,-0.203 0.15886,-0.34421 0.16769,-0.14121 0.36186,-0.14121 0.19416,0 0.35303,0.14121 0.15886,0.14121 0.15886,0.34421 0,0.22064 -0.15886,0.35303 -0.15887,0.13238 -0.35303,0.13238 -0.19417,0 -0.36186,-0.13238 -0.15886,-0.13239 -0.15886,-0.35303 z"
         id="path7777" /><path
         d="m 625.90079,-206.65967 q -0.40598,0 -0.77666,-0.14122 -0.37069,-0.15003 -0.62663,-0.42363 l 0.3795,-0.5119 q 0.22947,0.22065 0.4766,0.33538 0.25594,0.11474 0.47659,0.11474 0.25594,0 0.45011,-0.0971 0.19417,-0.10591 0.19417,-0.3442 0,-0.19417 -0.13239,-0.30008 -0.12356,-0.10591 -0.31773,-0.17651 -0.19416,-0.0706 -0.41481,-0.13239 -0.45894,-0.15004 -0.70606,-0.42364 -0.23829,-0.28242 -0.23829,-0.66193 0,-0.29125 0.14121,-0.5472 0.15004,-0.26477 0.45011,-0.42363 0.30008,-0.16769 0.74137,-0.16769 0.38833,0 0.69723,0.0971 0.3089,0.0883 0.57368,0.3089 l -0.34421,0.53837 q -0.15886,-0.15886 -0.37951,-0.23829 -0.21181,-0.0883 -0.38833,-0.0971 -0.2383,0 -0.41481,0.11474 -0.17652,0.10591 -0.17652,0.29125 0,0.18534 0.12356,0.30008 0.12357,0.10591 0.31773,0.17651 0.203,0.0618 0.40599,0.13239 0.40598,0.13238 0.67076,0.36185 0.2736,0.22947 0.2736,0.67076 0,0.33538 -0.15887,0.61781 -0.15886,0.28242 -0.48542,0.45894 -0.31772,0.16769 -0.81197,0.16769 z"
         id="path7779" /><path
         d="M 628.83977,-212.04339 H 629.74 v 1.62394 h 0.98849 v 0.69723 H 629.74 v 2.98311 h -0.90023 v -2.98311 h -0.65311 v -0.69723 h 0.65311 z"
         id="path7781" /><path
         d="m 631.70814,-210.42828 h 0.89141 v 3.68917 h -0.89141 z m -0.0441,-1.32386 q 0,-0.203 0.15886,-0.34421 0.16769,-0.14121 0.36186,-0.14121 0.19416,0 0.35303,0.14121 0.15886,0.14121 0.15886,0.34421 0,0.22064 -0.15886,0.35303 -0.15887,0.13238 -0.35303,0.13238 -0.19417,0 -0.36186,-0.13238 -0.15886,-0.13239 -0.15886,-0.35303 z"
         id="path7783" /><path
         d="m 634.79717,-210.42828 0.0794,0.8561 -0.0353,-0.12356 q 0.17651,-0.39716 0.56485,-0.63545 0.39716,-0.2383 0.9267,-0.2383 0.52072,0 0.8561,0.3089 0.33538,0.30008 0.34421,0.79432 v 2.72716 h -0.8914 v -2.41826 q -0.009,-0.28242 -0.16769,-0.45894 -0.15887,-0.18534 -0.49425,-0.19416 -0.46776,0 -0.78549,0.38833 -0.3089,0.38833 -0.3089,0.99731 v 1.68572 h -0.8914 v -3.68917 z"
         id="path7785" /><path
         d="m 640.6663,-206.65085 q -0.63545,0 -1.09439,-0.24712 -0.45894,-0.25595 -0.70606,-0.69723 -0.24713,-0.45012 -0.24713,-1.01497 0,-0.5472 0.2736,-0.98848 0.28243,-0.45012 0.75019,-0.71489 0.46777,-0.26478 1.04144,-0.26478 0.74137,0 1.22679,0.43247 0.49424,0.42363 0.66193,1.2003 l -3.00959,1.04144 -0.21182,-0.51189 2.41826,-0.88258 -0.18534,0.12356 q -0.10591,-0.28242 -0.33538,-0.48542 -0.22947,-0.21181 -0.62663,-0.21181 -0.49424,0 -0.81197,0.3442 -0.3089,0.33538 -0.3089,0.86493 0,0.56485 0.33538,0.90905 0.33538,0.34421 0.84727,0.34421 0.2383,0 0.45894,-0.0794 0.22065,-0.0883 0.41482,-0.22947 l 0.40598,0.66194 q -0.28242,0.18534 -0.62663,0.30007 -0.33538,0.10591 -0.67076,0.10591 z"
         id="path7787" /></g><g
       aria-label="Philistine"
       id="text20379"
       style="font-size:12.9359px;font-family:'Reem Kufi Fun';-inkscape-font-specification:'Reem Kufi Fun';fill:#020617;stroke-width:8.35012"><path
         d="m 558.9736,145.4532 q 1.55231,0 2.43195,0.77615 0.87964,0.77616 0.87964,2.17323 0,0.55625 -0.16817,1.09956 -0.16816,0.5433 -0.5433,0.99606 -0.36221,0.43982 -0.9702,0.71147 -0.59505,0.25872 -1.46175,0.25872 h -1.38414 v 3.36334 h -1.34534 v -9.37853 z m 0.15523,4.69573 q 0.53037,0 0.87964,-0.16817 0.36221,-0.1811 0.55625,-0.45275 0.20697,-0.27166 0.28459,-0.56918 0.0906,-0.29753 0.0906,-0.53037 0,-0.25872 -0.0906,-0.54331 -0.0776,-0.29753 -0.28459,-0.54331 -0.19404,-0.25872 -0.53038,-0.41395 -0.33633,-0.16817 -0.84083,-0.16817 h -1.43588 v 3.38921 z"
         id="path7810" /><path
         d="m 563.88923,154.83173 v -10.0512 h 1.28066 v 5.8729 l -0.0259,-0.21991 q 0.28459,-0.53037 0.84083,-0.86671 0.55624,-0.34926 1.3324,-0.34926 0.76321,0 1.25478,0.45275 0.49156,0.43982 0.5045,1.16423 v 3.9972 H 567.77 v -3.54444 q -0.0129,-0.41395 -0.24578,-0.67267 -0.23285,-0.27165 -0.72441,-0.28459 -0.6856,0 -1.15129,0.58212 -0.45276,0.56918 -0.45276,1.44882 v 2.47076 z"
         id="path7812" /><path
         d="m 571.13333,149.42452 h 1.30653 v 5.40721 h -1.30653 z m -0.0647,-1.94038 q 0,-0.29753 0.23285,-0.50451 0.24578,-0.20697 0.53037,-0.20697 0.28459,0 0.51743,0.20697 0.23285,0.20698 0.23285,0.50451 0,0.32339 -0.23285,0.51743 -0.23284,0.19404 -0.51743,0.19404 -0.28459,0 -0.53037,-0.19404 -0.23285,-0.19404 -0.23285,-0.51743 z"
         id="path7814" /><path
         d="m 574.48374,144.78053 h 1.30652 v 10.0512 h -1.30652 z"
         id="path7816" /><path
         d="m 577.83415,149.42452 h 1.30652 v 5.40721 h -1.30652 z m -0.0647,-1.94038 q 0,-0.29753 0.23284,-0.50451 0.24578,-0.20697 0.53037,-0.20697 0.28459,0 0.51744,0.20697 0.23285,0.20698 0.23285,0.50451 0,0.32339 -0.23285,0.51743 -0.23285,0.19404 -0.51744,0.19404 -0.28459,0 -0.53037,-0.19404 -0.23284,-0.19404 -0.23284,-0.51743 z"
         id="path7818" /><path
         d="m 582.7498,154.94815 q -0.59505,0 -1.13836,-0.20698 -0.54331,-0.21991 -0.91845,-0.62092 l 0.55624,-0.75028 q 0.33634,0.3234 0.69854,0.49156 0.37514,0.16817 0.69854,0.16817 0.37514,0 0.65973,-0.14229 0.28459,-0.15524 0.28459,-0.5045 0,-0.28459 -0.19404,-0.43983 -0.1811,-0.15523 -0.46569,-0.25871 -0.28459,-0.10349 -0.60799,-0.19404 -0.67266,-0.21991 -1.03487,-0.62092 -0.34927,-0.41395 -0.34927,-0.9702 0,-0.42688 0.20698,-0.80202 0.21991,-0.38808 0.65973,-0.62093 0.43982,-0.24578 1.08661,-0.24578 0.56918,0 1.02194,0.1423 0.45276,0.12936 0.84083,0.45275 l -0.5045,0.78909 q -0.23284,-0.23284 -0.55624,-0.34927 -0.31046,-0.12936 -0.56918,-0.14229 -0.34927,0 -0.60799,0.16817 -0.25872,0.15523 -0.25872,0.42688 0,0.27165 0.18111,0.43982 0.1811,0.15523 0.46569,0.25872 0.29753,0.0906 0.59505,0.19404 0.59505,0.19404 0.98313,0.53037 0.40101,0.33633 0.40101,0.98313 0,0.49156 -0.23284,0.90551 -0.23285,0.41395 -0.71148,0.67267 -0.46569,0.24578 -1.1901,0.24578 z"
         id="path7820" /><path
         d="m 587.05745,147.05725 h 1.31946 v 2.38021 h 1.44882 v 1.02193 h -1.44882 v 4.37234 h -1.31946 v -4.37234 h -0.95726 v -1.02193 h 0.95726 z"
         id="path7822" /><path
         d="m 591.26161,149.42452 h 1.30653 v 5.40721 h -1.30653 z m -0.0647,-1.94038 q 0,-0.29753 0.23285,-0.50451 0.24578,-0.20697 0.53037,-0.20697 0.28459,0 0.51744,0.20697 0.23284,0.20698 0.23284,0.50451 0,0.32339 -0.23284,0.51743 -0.23285,0.19404 -0.51744,0.19404 -0.28459,0 -0.53037,-0.19404 -0.23285,-0.19404 -0.23285,-0.51743 z"
         id="path7824" /><path
         d="m 595.78919,149.42452 0.11642,1.25478 -0.0517,-0.1811 q 0.25871,-0.58212 0.82789,-0.93139 0.58212,-0.34926 1.35827,-0.34926 0.76322,0 1.25479,0.45275 0.49156,0.43982 0.5045,1.16423 v 3.9972 h -1.30653 v -3.54444 q -0.0129,-0.41395 -0.24578,-0.67267 -0.23285,-0.27165 -0.72441,-0.28459 -0.68561,0 -1.1513,0.56918 -0.45275,0.56918 -0.45275,1.46176 v 2.47076 h -1.30653 v -5.40721 z"
         id="path7826" /><path
         d="m 604.39155,154.96109 q -0.93138,0 -1.60405,-0.36221 -0.67267,-0.37514 -1.03487,-1.02194 -0.36221,-0.65973 -0.36221,-1.48762 0,-0.80203 0.40102,-1.44883 0.41394,-0.65973 1.09955,-1.0478 0.6856,-0.38808 1.52643,-0.38808 1.08662,0 1.79809,0.63386 0.72441,0.62092 0.9702,1.75928 l -4.41115,1.52644 -0.31046,-0.75028 3.54444,-1.29359 -0.27166,0.1811 q -0.15523,-0.41395 -0.49156,-0.71148 -0.33633,-0.31046 -0.91845,-0.31046 -0.72441,0 -1.1901,0.5045 -0.45276,0.49157 -0.45276,1.26772 0,0.8279 0.49157,1.3324 0.49156,0.5045 1.24184,0.5045 0.34927,0 0.67267,-0.11643 0.3234,-0.12935 0.60799,-0.33633 l 0.59505,0.97019 q -0.41395,0.27166 -0.91845,0.43982 -0.49156,0.15524 -0.98313,0.15524 z"
         id="path7828" /></g><g
       id="g20387"
       transform="matrix(0.0240599,0.00999303,-0.02412111,0.00996768,530.23988,143.37899)"
       style="fill:#ea6005;fill-opacity:1;filter:url(#filter17501-0)">
	<path
   class="st0"
   d="M 509.915,2.067 C 498.446,-9.417 371.29,29.161 331.086,60.974 L 451.04,180.927 c 31.813,-40.219 70.375,-167.36 58.875,-178.86 z"
   id="path20383"
   style="fill:#ea6005;fill-opacity:1" />
	<path
   class="st0"
   d="m 268.743,122.677 -41.344,10.328 -185.188,185.203 12.047,12.063 -16.359,16.344 -12.063,-12.047 -25.828,25.828 151.594,151.608 25.844,-25.844 -12.063,-12.063 16.359,-16.359 12.063,12.047 185.188,-185.171 10.344,-41.359 c 0,0 18.703,-18.719 48.25,-48.234 L 316.993,74.442 c -29.532,29.5 -48.25,48.235 -48.25,48.235 z"
   id="path20385"
   style="fill:#ea6005;fill-opacity:1" />
</g><g
       id="g20393"
       transform="matrix(0.02244924,0.00999303,-0.02250636,0.00996768,529.81275,143.38063)"
       style="fill:#020617;fill-opacity:1">
	<path
   class="st0"
   d="M 509.915,2.067 C 498.446,-9.417 371.29,29.161 331.086,60.974 L 451.04,180.927 c 31.813,-40.219 70.375,-167.36 58.875,-178.86 z"
   id="path20389"
   style="fill:#020617;fill-opacity:1" />
	<path
   class="st0"
   d="m 268.743,122.677 -41.344,10.328 -185.188,185.203 12.047,12.063 -16.359,16.344 -12.063,-12.047 -25.828,25.828 151.594,151.608 25.844,-25.844 -12.063,-12.063 16.359,-16.359 12.063,12.047 185.188,-185.171 10.344,-41.359 c 0,0 18.703,-18.719 48.25,-48.234 L 316.993,74.442 c -29.532,29.5 -48.25,48.235 -48.25,48.235 z"
   id="path20391"
   style="fill:#020617;fill-opacity:1" />
</g><g
       aria-label="The Occupiers"
       transform="matrix(1.3624461,0,0,1.3624461,-40.360437,398.87985)"
       id="text11723"
       style="font-size:8.82577px;font-family:'Reem Kufi Fun';-inkscape-font-specification:'Reem Kufi Fun';fill:#ea6005;stroke-width:5.69702;filter:url(#filter12278)"><path
         d="m 344.13977,-214.95435 h 4.26285 v 0.89141 h -1.69455 v 5.50728 h -0.9267 v -5.50728 h -1.6416 z"
         id="path7859" /><path
         d="m 349.53233,-208.55566 v -6.85763 h 0.87375 v 4.0069 l -0.0176,-0.15004 q 0.19416,-0.36185 0.57367,-0.59132 0.37951,-0.2383 0.90906,-0.2383 0.52072,0 0.8561,0.3089 0.33538,0.30008 0.3442,0.79432 v 2.72717 h -0.8914 v -2.41827 q -0.009,-0.28242 -0.16769,-0.45894 -0.15887,-0.18534 -0.49424,-0.19416 -0.46777,0 -0.7855,0.39716 -0.3089,0.38833 -0.3089,0.98848 v 1.68573 z"
         id="path7861" /><path
         d="m 356.2046,-208.46741 q -0.63545,0 -1.09439,-0.24712 -0.45894,-0.25595 -0.70606,-0.69723 -0.24712,-0.45012 -0.24712,-1.01497 0,-0.5472 0.27359,-0.98848 0.28243,-0.45012 0.75019,-0.71489 0.46777,-0.26477 1.04145,-0.26477 0.74136,0 1.22678,0.43246 0.49424,0.42364 0.66193,1.2003 l -3.00959,1.04144 -0.21182,-0.51189 2.41827,-0.88258 -0.18535,0.12356 q -0.1059,-0.28242 -0.33537,-0.48541 -0.22948,-0.21182 -0.62663,-0.21182 -0.49425,0 -0.81198,0.3442 -0.3089,0.33538 -0.3089,0.86493 0,0.56485 0.33538,0.90905 0.33538,0.34421 0.84728,0.34421 0.23829,0 0.45894,-0.0794 0.22064,-0.0883 0.41481,-0.22947 l 0.40598,0.66193 q -0.28242,0.18534 -0.62663,0.30007 -0.33538,0.10591 -0.67076,0.10591 z"
         id="path7863" /><path
         d="m 360.07028,-211.75059 q 0,-0.66194 0.24712,-1.25326 0.25595,-0.59133 0.70606,-1.04144 0.45012,-0.45894 1.04145,-0.71489 0.59132,-0.26477 1.26208,-0.26477 0.67076,0 1.26209,0.26477 0.60015,0.25595 1.05026,0.71489 0.45894,0.45011 0.71489,1.04144 0.25595,0.59132 0.25595,1.25326 0,0.67958 -0.25595,1.27091 -0.25595,0.59132 -0.71489,1.04144 -0.45011,0.45011 -1.05026,0.70606 -0.59133,0.24712 -1.26209,0.24712 -0.67076,0 -1.26208,-0.24712 -0.59133,-0.25595 -1.04145,-0.69724 -0.45011,-0.44128 -0.70606,-1.03261 -0.24712,-0.60015 -0.24712,-1.28856 z m 0.95318,0.009 q 0,0.65311 0.30891,1.19148 0.3089,0.53837 0.83844,0.8561 0.52955,0.31773 1.18266,0.31773 0.64428,0 1.165,-0.31773 0.52072,-0.31773 0.82962,-0.8561 0.3089,-0.53837 0.3089,-1.2003 0,-0.66194 -0.31772,-1.20031 -0.30891,-0.5472 -0.83845,-0.86492 -0.52072,-0.31773 -1.165,-0.31773 -0.65311,0 -1.18266,0.32655 -0.52072,0.31773 -0.82962,0.86493 -0.30008,0.53837 -0.30008,1.2003 z"
         id="path7865" /><path
         d="m 370.8289,-208.89987 q -0.24712,0.20299 -0.60015,0.31773 -0.3442,0.11473 -0.69723,0.11473 -0.60016,0 -1.06792,-0.23829 -0.45894,-0.2383 -0.71489,-0.67076 -0.25595,-0.43246 -0.25595,-1.02379 0,-0.60015 0.2736,-1.03262 0.2736,-0.43246 0.71489,-0.66193 0.45011,-0.23829 0.96201,-0.23829 0.45894,0 0.80314,0.12356 0.35303,0.12356 0.60898,0.3442 l -0.44129,0.57368 q -0.15004,-0.12356 -0.37951,-0.22065 -0.22947,-0.0971 -0.51189,-0.0971 -0.31773,0 -0.5825,0.15886 -0.25595,0.15887 -0.40599,0.43247 -0.15003,0.27359 -0.15003,0.6178 0,0.33538 0.15003,0.60898 0.15887,0.2736 0.43247,0.43246 0.28242,0.15886 0.63545,0.15886 0.22947,0 0.42364,-0.0706 0.20299,-0.0706 0.35303,-0.18534 z"
         id="path7867" /><path
         d="m 374.88875,-208.89987 q -0.24712,0.20299 -0.60015,0.31773 -0.34421,0.11473 -0.69724,0.11473 -0.60015,0 -1.06792,-0.23829 -0.45894,-0.2383 -0.71489,-0.67076 -0.25594,-0.43246 -0.25594,-1.02379 0,-0.60015 0.2736,-1.03262 0.2736,-0.43246 0.71488,-0.66193 0.45012,-0.23829 0.96201,-0.23829 0.45894,0 0.80315,0.12356 0.35303,0.12356 0.60898,0.3442 l -0.44129,0.57368 q -0.15004,-0.12356 -0.37951,-0.22065 -0.22947,-0.0971 -0.5119,-0.0971 -0.31772,0 -0.5825,0.15886 -0.25594,0.15887 -0.40598,0.43247 -0.15004,0.27359 -0.15004,0.6178 0,0.33538 0.15004,0.60898 0.15886,0.2736 0.43246,0.43246 0.28243,0.15886 0.63546,0.15886 0.22947,0 0.42363,-0.0706 0.203,-0.0706 0.35303,-0.18534 z"
         id="path7869" /><path
         d="m 377.11284,-208.40563 q -0.5119,0 -0.83845,-0.3089 -0.32656,-0.3089 -0.34421,-0.79432 v -2.73599 h 0.89141 v 2.41827 q 0.0177,0.29125 0.16768,0.46776 0.15004,0.17652 0.4766,0.19417 0.30007,0 0.53837,-0.17652 0.23829,-0.18534 0.37068,-0.50307 0.14121,-0.31772 0.14121,-0.71488 v -1.68573 h 0.89141 v 3.68918 h -0.80315 l -0.0706,-0.86493 0.0353,0.14121 q -0.16769,0.37951 -0.56485,0.62663 -0.38834,0.24712 -0.8914,0.24712 z"
         id="path7871" /><path
         d="m 383.01727,-208.46741 q -0.40598,0 -0.78549,-0.17651 -0.37068,-0.18534 -0.5825,-0.50307 l 0.053,-0.2736 v 2.63891 h -0.8914 v -5.52494 h 0.76784 l 0.12356,0.90906 -0.0882,-0.25595 q 0.26477,-0.32655 0.66193,-0.52955 0.40598,-0.21181 0.90905,-0.21181 0.52072,0 0.93553,0.24712 0.41482,0.24712 0.65311,0.69723 0.2383,0.44129 0.2383,1.04144 0,0.60016 -0.26478,1.04145 -0.25594,0.43246 -0.70606,0.67075 -0.45011,0.22947 -1.02379,0.22947 z m -0.17651,-0.70606 q 0.3442,0 0.62663,-0.15886 0.29125,-0.15887 0.45894,-0.43246 0.17651,-0.28243 0.17651,-0.63546 0,-0.36186 -0.15886,-0.64428 -0.15887,-0.28243 -0.43246,-0.44129 -0.2736,-0.15886 -0.60898,-0.15886 -0.45894,0 -0.77667,0.24712 -0.3089,0.24712 -0.42364,0.6531 v 0.66194 q 0.0706,0.39716 0.38834,0.6531 0.31772,0.25595 0.75019,0.25595 z"
         id="path7873" /><path
         d="m 386.08864,-212.24484 h 0.8914 v 3.68918 h -0.8914 z m -0.0441,-1.32386 q 0,-0.20299 0.15886,-0.34421 0.16769,-0.14121 0.36186,-0.14121 0.19416,0 0.35303,0.14121 0.15886,0.14122 0.15886,0.34421 0,0.22064 -0.15886,0.35303 -0.15887,0.13239 -0.35303,0.13239 -0.19417,0 -0.36186,-0.13239 -0.15886,-0.13239 -0.15886,-0.35303 z"
         id="path7875" /><path
         d="m 390.10437,-208.46741 q -0.63546,0 -1.0944,-0.24712 -0.45894,-0.25595 -0.70606,-0.69723 -0.24712,-0.45012 -0.24712,-1.01497 0,-0.5472 0.2736,-0.98848 0.28242,-0.45012 0.75019,-0.71489 0.46776,-0.26477 1.04144,-0.26477 0.74136,0 1.22678,0.43246 0.49424,0.42364 0.66193,1.2003 l -3.00958,1.04144 -0.21182,-0.51189 2.41826,-0.88258 -0.18534,0.12356 q -0.10591,-0.28242 -0.33538,-0.48541 -0.22947,-0.21182 -0.62663,-0.21182 -0.49424,0 -0.81197,0.3442 -0.3089,0.33538 -0.3089,0.86493 0,0.56485 0.33537,0.90905 0.33538,0.34421 0.84728,0.34421 0.23829,0 0.45894,-0.0794 0.22064,-0.0883 0.41481,-0.22947 l 0.40599,0.66193 q -0.28243,0.18534 -0.62663,0.30007 -0.33538,0.10591 -0.67076,0.10591 z"
         id="path7877" /><path
         d="m 393.80236,-212.24484 0.0883,1.0591 -0.0353,-0.14122 q 0.15003,-0.33538 0.41481,-0.57367 0.2736,-0.2383 0.56485,-0.36186 0.30007,-0.13238 0.50307,-0.13238 l -0.0441,0.88257 q -0.41481,-0.0265 -0.73254,0.15887 -0.3089,0.18534 -0.48542,0.49424 -0.17652,0.3089 -0.17652,0.66193 v 1.6416 h -0.8914 v -3.68918 z"
         id="path7879" /><path
         d="m 397.43859,-208.47623 q -0.40599,0 -0.77667,-0.14121 -0.37068,-0.15004 -0.62663,-0.42364 l 0.37951,-0.5119 q 0.22947,0.22065 0.47659,0.33538 0.25595,0.11474 0.47659,0.11474 0.25595,0 0.45011,-0.0971 0.19417,-0.1059 0.19417,-0.3442 0,-0.19417 -0.13239,-0.30008 -0.12356,-0.10591 -0.31772,-0.17651 -0.19417,-0.0706 -0.41481,-0.13239 -0.45895,-0.15004 -0.70607,-0.42364 -0.23829,-0.28242 -0.23829,-0.66193 0,-0.29125 0.14121,-0.5472 0.15004,-0.26477 0.45011,-0.42363 0.30008,-0.16769 0.74137,-0.16769 0.38833,0 0.69723,0.0971 0.30891,0.0883 0.57368,0.3089 l -0.34421,0.53837 q -0.15886,-0.15886 -0.3795,-0.23829 -0.21182,-0.0883 -0.38834,-0.0971 -0.23829,0 -0.41481,0.11473 -0.17651,0.10591 -0.17651,0.29125 0,0.18534 0.12356,0.30008 0.12356,0.10591 0.31772,0.17651 0.203,0.0618 0.40599,0.13239 0.40599,0.13239 0.67076,0.36186 0.2736,0.22947 0.2736,0.67075 0,0.33538 -0.15887,0.61781 -0.15886,0.28242 -0.48541,0.45894 -0.31773,0.16769 -0.81197,0.16769 z"
         id="path7881" /></g><g
       aria-label="Only Understand the language of the bullets."
       transform="matrix(1.3624461,0,0,1.3624461,-40.360437,398.87985)"
       id="text11727"
       style="font-size:8.82577px;font-family:'Reem Kufi Fun';-inkscape-font-specification:'Reem Kufi Fun';fill:#ea6005;stroke-width:5.69702;filter:url(#filter12278)"><path
         d="m 366.3056,-198.03631 q 0,-0.66194 0.24712,-1.25326 0.25594,-0.59133 0.70606,-1.04144 0.45011,-0.45894 1.04144,-0.71489 0.59133,-0.26477 1.26209,-0.26477 0.67075,0 1.26208,0.26477 0.60015,0.25595 1.05027,0.71489 0.45894,0.45011 0.71488,1.04144 0.25595,0.59132 0.25595,1.25326 0,0.67958 -0.25595,1.27091 -0.25594,0.59132 -0.71488,1.04144 -0.45012,0.45011 -1.05027,0.70606 -0.59133,0.24712 -1.26208,0.24712 -0.67076,0 -1.26209,-0.24712 -0.59133,-0.25595 -1.04144,-0.69724 -0.45012,-0.44128 -0.70606,-1.03261 -0.24712,-0.60015 -0.24712,-1.28856 z m 0.95318,0.009 q 0,0.65311 0.3089,1.19148 0.3089,0.53837 0.83845,0.8561 0.52955,0.31773 1.18265,0.31773 0.64428,0 1.165,-0.31773 0.52072,-0.31773 0.82963,-0.8561 0.3089,-0.53837 0.3089,-1.2003 0,-0.66194 -0.31773,-1.20031 -0.3089,-0.5472 -0.83845,-0.86492 -0.52072,-0.31773 -1.165,-0.31773 -0.65311,0 -1.18265,0.32655 -0.52072,0.31773 -0.82962,0.86493 -0.30008,0.53837 -0.30008,1.2003 z"
         id="path7908" /><path
         d="m 374.84895,-198.53056 0.0794,0.8561 -0.0353,-0.12356 q 0.17651,-0.39716 0.56485,-0.63545 0.39716,-0.2383 0.9267,-0.2383 0.52072,0 0.8561,0.3089 0.33538,0.30008 0.34421,0.79432 v 2.72717 h -0.8914 v -2.41827 q -0.009,-0.28242 -0.16769,-0.45894 -0.15887,-0.18534 -0.49425,-0.19416 -0.46776,0 -0.78549,0.38833 -0.3089,0.38833 -0.3089,0.99731 v 1.68573 h -0.89141 v -3.68918 z"
         id="path7910" /><path
         d="m 378.98823,-201.69901 h 0.8914 v 6.85763 h -0.8914 z"
         id="path7912" /><path
         d="m 381.59184,-193.06741 2.42709,-5.46315 h 0.82079 l -2.38295,5.46315 z m 0.91788,-1.7475 -1.77398,-3.71565 h 0.99731 l 1.47391,3.26554 z"
         id="path7914" /><path
         d="m 387.87578,-197.12726 q 0,0.40599 0.19417,0.74137 0.20299,0.32655 0.5472,0.52072 0.3442,0.19416 0.75901,0.19416 0.44129,0 0.7855,-0.19416 0.3442,-0.19417 0.53837,-0.52072 0.20299,-0.33538 0.20299,-0.74137 v -4.11281 h 0.90905 v 4.13929 q 0,0.69723 -0.32655,1.22678 -0.32655,0.52072 -0.88258,0.81197 -0.54719,0.29125 -1.22678,0.29125 v 0 q -0.67958,0 -1.23561,-0.29125 -0.54719,-0.29125 -0.87375,-0.81197 -0.31773,-0.52955 -0.31773,-1.22678 v -4.13929 h 0.92671 z"
         id="path7916" /><path
         d="m 394.12443,-198.53056 0.0794,0.8561 -0.0353,-0.12356 q 0.17652,-0.39716 0.56485,-0.63545 0.39716,-0.2383 0.92671,-0.2383 0.52072,0 0.85609,0.3089 0.33538,0.30008 0.34421,0.79432 v 2.72717 h -0.8914 v -2.41827 q -0.009,-0.28242 -0.16769,-0.45894 -0.15887,-0.18534 -0.49425,-0.19416 -0.46776,0 -0.78549,0.38833 -0.3089,0.38833 -0.3089,0.99731 v 1.68573 h -0.8914 v -3.68918 z"
         id="path7918" /><path
         d="m 399.77292,-194.75313 q -0.52072,0 -0.93553,-0.23829 -0.41481,-0.24712 -0.65311,-0.69724 -0.2383,-0.45011 -0.2383,-1.05027 0,-0.6178 0.25595,-1.05026 0.25595,-0.43246 0.68841,-0.66193 0.44129,-0.22948 0.98849,-0.22948 0.42364,0 0.80314,0.17652 0.38834,0.16769 0.60898,0.47659 l -0.0353,0.3089 v -3.98042 h 0.8914 v 6.85763 h -0.90023 v -0.88258 l 0.0971,0.23829 q -0.26478,0.31773 -0.67076,0.52955 -0.39716,0.20299 -0.90023,0.20299 z m 0.2736,-0.75019 q 0.46776,0 0.77667,-0.23829 0.31772,-0.24713 0.42363,-0.65311 v -0.73254 q -0.0971,-0.37068 -0.43246,-0.60898 -0.32655,-0.23829 -0.76784,-0.23829 -0.31773,0 -0.59133,0.15886 -0.2736,0.15004 -0.44129,0.43246 -0.15886,0.2736 -0.15886,0.63546 0,0.3442 0.15886,0.62663 0.16769,0.28242 0.44129,0.45011 0.2736,0.16769 0.59133,0.16769 z"
         id="path7920" /><path
         d="m 405.27137,-194.75313 q -0.63545,0 -1.09439,-0.24712 -0.45894,-0.25595 -0.70607,-0.69723 -0.24712,-0.45012 -0.24712,-1.01497 0,-0.5472 0.2736,-0.98848 0.28243,-0.45012 0.75019,-0.71489 0.46777,-0.26478 1.04144,-0.26478 0.74137,0 1.22678,0.43247 0.49425,0.42363 0.66194,1.2003 l -3.00959,1.04144 -0.21182,-0.51189 2.41826,-0.88258 -0.18534,0.12356 q -0.10591,-0.28242 -0.33538,-0.48541 -0.22947,-0.21182 -0.62663,-0.21182 -0.49424,0 -0.81197,0.3442 -0.3089,0.33538 -0.3089,0.86493 0,0.56485 0.33538,0.90905 0.33538,0.34421 0.84727,0.34421 0.2383,0 0.45894,-0.0794 0.22065,-0.0883 0.41481,-0.22947 l 0.40599,0.66194 q -0.28243,0.18534 -0.62663,0.30007 -0.33538,0.10591 -0.67076,0.10591 z"
         id="path7922" /><path
         d="m 408.96937,-198.53056 0.0882,1.0591 -0.0353,-0.14122 q 0.15004,-0.33538 0.41481,-0.57367 0.2736,-0.2383 0.56485,-0.36186 0.30008,-0.13239 0.50307,-0.13239 l -0.0441,0.88258 q -0.41481,-0.0265 -0.73254,0.15887 -0.3089,0.18534 -0.48542,0.49424 -0.17651,0.3089 -0.17651,0.66193 v 1.6416 h -0.8914 v -3.68918 z"
         id="path7924" /><path
         d="m 412.60559,-194.76195 q -0.40599,0 -0.77667,-0.14122 -0.37068,-0.15003 -0.62663,-0.42363 l 0.37951,-0.5119 q 0.22947,0.22065 0.47659,0.33538 0.25595,0.11474 0.47659,0.11474 0.25595,0 0.45012,-0.0971 0.19416,-0.10591 0.19416,-0.3442 0,-0.19417 -0.13238,-0.30008 -0.12356,-0.10591 -0.31773,-0.17651 -0.19417,-0.0706 -0.41481,-0.13239 -0.45894,-0.15004 -0.70606,-0.42364 -0.2383,-0.28242 -0.2383,-0.66193 0,-0.29125 0.14121,-0.5472 0.15004,-0.26477 0.45012,-0.42363 0.30007,-0.16769 0.74136,-0.16769 0.38834,0 0.69724,0.0971 0.3089,0.0883 0.57367,0.3089 l -0.3442,0.53837 q -0.15887,-0.15886 -0.37951,-0.23829 -0.21182,-0.0883 -0.38833,-0.0971 -0.2383,0 -0.41481,0.11474 -0.17652,0.10591 -0.17652,0.29125 0,0.18534 0.12356,0.30008 0.12356,0.10591 0.31773,0.17651 0.20299,0.0618 0.40598,0.13239 0.40599,0.13238 0.67076,0.36185 0.2736,0.22947 0.2736,0.67076 0,0.33538 -0.15886,0.61781 -0.15887,0.28242 -0.48542,0.45894 -0.31773,0.16769 -0.81197,0.16769 z"
         id="path7926" /><path
         d="m 415.54456,-200.14567 h 0.90023 v 1.62394 h 0.98849 v 0.69723 h -0.98849 v 2.98312 h -0.90023 v -2.98312 h -0.6531 v -0.69723 h 0.6531 z"
         id="path7928" /><path
         d="m 419.95745,-194.75313 q -0.52072,0 -0.94436,-0.22064 -0.42364,-0.22065 -0.67076,-0.64428 -0.24712,-0.43247 -0.24712,-1.06792 0,-0.6178 0.25595,-1.05909 0.26477,-0.45012 0.68841,-0.68841 0.43246,-0.24713 0.93553,-0.24713 0.52955,0 0.87375,0.22065 0.34421,0.22064 0.52955,0.52955 l -0.053,0.14121 0.0883,-0.74137 h 0.8208 v 3.68918 h -0.89141 v -0.93554 l 0.0883,0.22065 q -0.0353,0.0706 -0.15004,0.20299 -0.11473,0.13239 -0.30007,0.2736 -0.18534,0.13239 -0.45012,0.22947 -0.25594,0.0971 -0.57367,0.0971 z m 0.23829,-0.73254 q 0.44129,0 0.74137,-0.22947 0.3089,-0.23829 0.40598,-0.64428 v -0.75901 q -0.10591,-0.36186 -0.43246,-0.60016 -0.31773,-0.23829 -0.74136,-0.23829 -0.31773,0 -0.5825,0.15886 -0.26478,0.15004 -0.42364,0.43246 -0.15887,0.2736 -0.15887,0.63546 0,0.35303 0.15887,0.63546 0.16769,0.28242 0.44129,0.45011 0.2736,0.15886 0.59132,0.15886 z"
         id="path7930" /><path
         d="m 424.43211,-198.53056 0.0794,0.8561 -0.0353,-0.12356 q 0.17651,-0.39716 0.56485,-0.63545 0.39716,-0.2383 0.9267,-0.2383 0.52072,0 0.8561,0.3089 0.33538,0.30008 0.34421,0.79432 v 2.72717 h -0.8914 v -2.41827 q -0.009,-0.28242 -0.16769,-0.45894 -0.15887,-0.18534 -0.49425,-0.19416 -0.46776,0 -0.78549,0.38833 -0.3089,0.38833 -0.3089,0.99731 v 1.68573 h -0.89141 v -3.68918 z"
         id="path7932" /><path
         d="m 430.0806,-194.75313 q -0.52072,0 -0.93553,-0.23829 -0.41481,-0.24712 -0.65311,-0.69724 -0.23829,-0.45011 -0.23829,-1.05027 0,-0.6178 0.25594,-1.05026 0.25595,-0.43246 0.68841,-0.66193 0.44129,-0.22948 0.98849,-0.22948 0.42364,0 0.80314,0.17652 0.38834,0.16769 0.60898,0.47659 l -0.0353,0.3089 v -3.98042 h 0.8914 v 6.85763 h -0.90023 v -0.88258 l 0.0971,0.23829 q -0.26478,0.31773 -0.67076,0.52955 -0.39716,0.20299 -0.90023,0.20299 z m 0.2736,-0.75019 q 0.46776,0 0.77667,-0.23829 0.31772,-0.24713 0.42363,-0.65311 v -0.73254 q -0.0971,-0.37068 -0.43246,-0.60898 -0.32655,-0.23829 -0.76784,-0.23829 -0.31773,0 -0.59133,0.15886 -0.2736,0.15004 -0.44129,0.43246 -0.15886,0.2736 -0.15886,0.63546 0,0.3442 0.15886,0.62663 0.16769,0.28242 0.44129,0.45011 0.2736,0.16769 0.59133,0.16769 z"
         id="path7934" /><path
         d="m 435.34958,-200.14567 h 0.90022 v 1.62394 h 0.98849 v 0.69723 h -0.98849 v 2.98312 h -0.90022 v -2.98312 h -0.65311 v -0.69723 h 0.65311 z"
         id="path7936" /><path
         d="m 438.21794,-194.84138 v -6.85763 h 0.87375 v 4.0069 l -0.0177,-0.15004 q 0.19417,-0.36185 0.57368,-0.59132 0.3795,-0.2383 0.90905,-0.2383 0.52072,0 0.8561,0.3089 0.33538,0.30008 0.34421,0.79432 v 2.72717 h -0.89141 v -2.41827 q -0.009,-0.28242 -0.16769,-0.45894 -0.15886,-0.18534 -0.49424,-0.19416 -0.46777,0 -0.78549,0.39716 -0.30891,0.38833 -0.30891,0.98848 v 1.68573 z"
         id="path7938" /><path
         d="m 444.89022,-194.75313 q -0.63545,0 -1.09439,-0.24712 -0.45894,-0.25595 -0.70607,-0.69723 -0.24712,-0.45012 -0.24712,-1.01497 0,-0.5472 0.2736,-0.98848 0.28243,-0.45012 0.75019,-0.71489 0.46777,-0.26478 1.04144,-0.26478 0.74137,0 1.22679,0.43247 0.49424,0.42363 0.66193,1.2003 l -3.00959,1.04144 -0.21182,-0.51189 2.41826,-0.88258 -0.18534,0.12356 q -0.10591,-0.28242 -0.33538,-0.48541 -0.22947,-0.21182 -0.62663,-0.21182 -0.49424,0 -0.81197,0.3442 -0.3089,0.33538 -0.3089,0.86493 0,0.56485 0.33538,0.90905 0.33538,0.34421 0.84727,0.34421 0.2383,0 0.45894,-0.0794 0.22065,-0.0883 0.41481,-0.22947 l 0.40599,0.66194 q -0.28242,0.18534 -0.62663,0.30007 -0.33538,0.10591 -0.67076,0.10591 z"
         id="path7940" /><path
         d="m 448.94124,-201.69901 h 0.8914 v 6.85763 h -0.8914 z"
         id="path7942" /><path
         d="m 452.77163,-194.75313 q -0.52072,0 -0.94436,-0.22064 -0.42363,-0.22065 -0.67076,-0.64428 -0.24712,-0.43247 -0.24712,-1.06792 0,-0.6178 0.25595,-1.05909 0.26477,-0.45012 0.68841,-0.68841 0.43246,-0.24713 0.93553,-0.24713 0.52955,0 0.87375,0.22065 0.34421,0.22064 0.52955,0.52955 l -0.053,0.14121 0.0883,-0.74137 h 0.8208 v 3.68918 h -0.8914 v -0.93554 l 0.0882,0.22065 q -0.0353,0.0706 -0.15003,0.20299 -0.11474,0.13239 -0.30008,0.2736 -0.18534,0.13239 -0.45011,0.22947 -0.25595,0.0971 -0.57368,0.0971 z m 0.2383,-0.73254 q 0.44128,0 0.74136,-0.22947 0.3089,-0.23829 0.40599,-0.64428 v -0.75901 q -0.10591,-0.36186 -0.43247,-0.60016 -0.31772,-0.23829 -0.74136,-0.23829 -0.31773,0 -0.5825,0.15886 -0.26478,0.15004 -0.42364,0.43246 -0.15886,0.2736 -0.15886,0.63546 0,0.35303 0.15886,0.63546 0.16769,0.28242 0.44129,0.45011 0.2736,0.15886 0.59133,0.15886 z"
         id="path7944" /><path
         d="m 457.24629,-198.53056 0.0794,0.8561 -0.0353,-0.12356 q 0.17652,-0.39716 0.56485,-0.63545 0.39716,-0.2383 0.92671,-0.2383 0.52072,0 0.8561,0.3089 0.33537,0.30008 0.3442,0.79432 v 2.72717 h -0.8914 v -2.41827 q -0.009,-0.28242 -0.16769,-0.45894 -0.15887,-0.18534 -0.49425,-0.19416 -0.46776,0 -0.78549,0.38833 -0.3089,0.38833 -0.3089,0.99731 v 1.68573 h -0.8914 v -3.68918 z"
         id="path7946" /><path
         d="m 463.18603,-193.00562 q -0.42363,0 -0.74136,-0.10591 -0.31773,-0.0971 -0.57368,-0.26478 -0.24712,-0.16769 -0.47659,-0.37068 l 0.52955,-0.60898 q 0.2736,0.26478 0.56485,0.41481 0.30007,0.15004 0.67958,0.15004 0.60015,0 0.92671,-0.28242 0.32655,-0.28243 0.33538,-0.75902 v -0.96201 l 0.0618,0.16769 q -0.15887,0.37068 -0.56485,0.62663 -0.39716,0.24712 -0.98849,0.24712 -0.51189,0 -0.93553,-0.25594 -0.42364,-0.25595 -0.67959,-0.69724 -0.25594,-0.44129 -0.25594,-0.99731 0,-0.57368 0.26477,-1.01497 0.2736,-0.45011 0.71489,-0.70606 0.44129,-0.25595 0.94436,-0.25595 0.49424,0 0.88257,0.18535 0.39716,0.18534 0.5825,0.47659 l -0.0441,0.15004 0.0883,-0.66194 h 0.8208 v 3.71565 q 0,0.50307 -0.26477,0.90906 -0.26478,0.41481 -0.74137,0.6531 -0.47659,0.24713 -1.1297,0.24713 z m -1.21795,-3.72448 q 0,0.35303 0.15886,0.63546 0.16769,0.28242 0.44129,0.45011 0.28242,0.15886 0.62663,0.15886 0.46776,0 0.79432,-0.23829 0.32655,-0.24712 0.44129,-0.62663 v -0.75902 q -0.11474,-0.37951 -0.45012,-0.60898 -0.33538,-0.23829 -0.78549,-0.23829 -0.34421,0 -0.62663,0.15886 -0.2736,0.15887 -0.44129,0.43246 -0.15886,0.2736 -0.15886,0.63546 z"
         id="path7948" /><path
         d="m 467.89899,-194.69135 q -0.51189,0 -0.83845,-0.3089 -0.32655,-0.3089 -0.3442,-0.79432 v -2.73599 h 0.8914 v 2.41826 q 0.0177,0.29125 0.16769,0.46777 0.15004,0.17652 0.47659,0.19417 0.30008,0 0.53838,-0.17652 0.23829,-0.18534 0.37068,-0.50307 0.14121,-0.31773 0.14121,-0.71488 v -1.68573 h 0.8914 v 3.68918 h -0.80314 l -0.0706,-0.86493 0.0353,0.14121 q -0.16769,0.37951 -0.56485,0.62663 -0.38834,0.24712 -0.89141,0.24712 z"
         id="path7950" /><path
         d="m 473.1415,-194.75313 q -0.52073,0 -0.94436,-0.22064 -0.42364,-0.22065 -0.67076,-0.64428 -0.24712,-0.43247 -0.24712,-1.06792 0,-0.6178 0.25595,-1.05909 0.26477,-0.45012 0.68841,-0.68841 0.43246,-0.24713 0.93553,-0.24713 0.52954,0 0.87375,0.22065 0.3442,0.22064 0.52954,0.52955 l -0.0529,0.14121 0.0883,-0.74137 h 0.82079 v 3.68918 h -0.8914 v -0.93554 l 0.0883,0.22065 q -0.0353,0.0706 -0.15004,0.20299 -0.11473,0.13239 -0.30008,0.2736 -0.18534,0.13239 -0.45011,0.22947 -0.25595,0.0971 -0.57367,0.0971 z m 0.23829,-0.73254 q 0.44129,0 0.74137,-0.22947 0.3089,-0.23829 0.40598,-0.64428 v -0.75901 q -0.10591,-0.36186 -0.43246,-0.60016 -0.31773,-0.23829 -0.74137,-0.23829 -0.31772,0 -0.5825,0.15886 -0.26477,0.15004 -0.42363,0.43246 -0.15887,0.2736 -0.15887,0.63546 0,0.35303 0.15887,0.63546 0.16769,0.28242 0.44128,0.45011 0.2736,0.15886 0.59133,0.15886 z"
         id="path7952" /><path
         d="m 478.61347,-193.00562 q -0.42364,0 -0.74137,-0.10591 -0.31772,-0.0971 -0.57367,-0.26478 -0.24712,-0.16769 -0.47659,-0.37068 l 0.52954,-0.60898 q 0.2736,0.26478 0.56485,0.41481 0.30008,0.15004 0.67959,0.15004 0.60015,0 0.9267,-0.28242 0.32656,-0.28243 0.33538,-0.75902 v -0.96201 l 0.0618,0.16769 q -0.15886,0.37068 -0.56485,0.62663 -0.39716,0.24712 -0.98848,0.24712 -0.5119,0 -0.93553,-0.25594 -0.42364,-0.25595 -0.67959,-0.69724 -0.25595,-0.44129 -0.25595,-0.99731 0,-0.57368 0.26478,-1.01497 0.2736,-0.45011 0.71488,-0.70606 0.44129,-0.25595 0.94436,-0.25595 0.49425,0 0.88258,0.18535 0.39716,0.18534 0.5825,0.47659 l -0.0441,0.15004 0.0883,-0.66194 h 0.8208 v 3.71565 q 0,0.50307 -0.26478,0.90906 -0.26477,0.41481 -0.74136,0.6531 -0.47659,0.24713 -1.1297,0.24713 z m -1.21796,-3.72448 q 0,0.35303 0.15887,0.63546 0.16769,0.28242 0.44129,0.45011 0.28242,0.15886 0.62662,0.15886 0.46777,0 0.79432,-0.23829 0.32656,-0.24712 0.44129,-0.62663 v -0.75902 q -0.11473,-0.37951 -0.45011,-0.60898 -0.33538,-0.23829 -0.7855,-0.23829 -0.3442,0 -0.62662,0.15886 -0.2736,0.15887 -0.44129,0.43246 -0.15887,0.2736 -0.15887,0.63546 z"
         id="path7954" /><path
         d="m 483.87364,-194.75313 q -0.63546,0 -1.0944,-0.24712 -0.45894,-0.25595 -0.70606,-0.69723 -0.24712,-0.45012 -0.24712,-1.01497 0,-0.5472 0.2736,-0.98848 0.28242,-0.45012 0.75019,-0.71489 0.46776,-0.26478 1.04144,-0.26478 0.74136,0 1.22678,0.43247 0.49424,0.42363 0.66193,1.2003 l -3.00959,1.04144 -0.21181,-0.51189 2.41826,-0.88258 -0.18534,0.12356 q -0.10591,-0.28242 -0.33538,-0.48541 -0.22947,-0.21182 -0.62663,-0.21182 -0.49425,0 -0.81197,0.3442 -0.30891,0.33538 -0.30891,0.86493 0,0.56485 0.33538,0.90905 0.33538,0.34421 0.84728,0.34421 0.23829,0 0.45894,-0.0794 0.22064,-0.0883 0.41481,-0.22947 l 0.40598,0.66194 q -0.28242,0.18534 -0.62663,0.30007 -0.33538,0.10591 -0.67075,0.10591 z"
         id="path7956" /><path
         d="m 487.60693,-196.72127 q 0,-0.55603 0.26477,-0.99732 0.26477,-0.45011 0.73254,-0.70606 0.46776,-0.25595 1.06792,-0.25595 0.60897,0 1.05909,0.25595 0.45894,0.25595 0.70606,0.70606 0.25595,0.44129 0.25595,0.99732 0,0.55602 -0.25595,1.00613 -0.25595,0.44129 -0.71489,0.70607 -0.45011,0.25594 -1.06792,0.25594 -0.5825,0 -1.05026,-0.23829 -0.45894,-0.2383 -0.73254,-0.67959 -0.26477,-0.45011 -0.26477,-1.05026 z m 0.90022,0.009 q 0,0.34421 0.15004,0.62663 0.15004,0.2736 0.40599,0.44129 0.26477,0.15886 0.5825,0.15886 0.50307,0 0.82079,-0.35303 0.32656,-0.35303 0.32656,-0.87375 0,-0.52072 -0.32656,-0.87375 -0.31772,-0.36186 -0.82079,-0.36186 -0.32656,0 -0.5825,0.16769 -0.25595,0.16769 -0.40599,0.45012 -0.15004,0.28242 -0.15004,0.6178 z"
         id="path7958" /><path
         d="m 493.0789,-194.84138 v -2.89486 h -0.62663 v -0.79432 h 0.62663 v -1.5092 q 0,-0.7855 0.37068,-1.21796 0.37951,-0.44129 1.10322,-0.44129 0.19417,0 0.42364,0.0618 0.2383,0.053 0.42364,0.17652 l -0.37951,0.64428 q -0.0794,-0.0883 -0.18534,-0.11474 -0.0971,-0.0353 -0.19417,-0.0353 -0.3089,0 -0.49424,0.22064 -0.17652,0.21182 -0.17652,0.72372 v 1.49155 h 1.165 v 0.79432 h -1.165 v 2.89486 z"
         id="path7960" /><path
         d="m 497.69477,-200.14567 h 0.90023 v 1.62394 h 0.98848 v 0.69723 H 498.595 v 2.98312 h -0.90023 v -2.98312 h -0.65311 v -0.69723 h 0.65311 z"
         id="path7962" /><path
         d="m 500.56314,-194.84138 v -6.85763 h 0.87375 v 4.0069 l -0.0177,-0.15004 q 0.19417,-0.36185 0.57368,-0.59132 0.3795,-0.2383 0.90905,-0.2383 0.52072,0 0.8561,0.3089 0.33538,0.30008 0.34421,0.79432 v 2.72717 h -0.89141 v -2.41827 q -0.009,-0.28242 -0.16769,-0.45894 -0.15886,-0.18534 -0.49424,-0.19416 -0.46777,0 -0.78549,0.39716 -0.30891,0.38833 -0.30891,0.98848 v 1.68573 z"
         id="path7964" /><path
         d="m 507.23542,-194.75313 q -0.63545,0 -1.09439,-0.24712 -0.45894,-0.25595 -0.70607,-0.69723 -0.24712,-0.45012 -0.24712,-1.01497 0,-0.5472 0.2736,-0.98848 0.28243,-0.45012 0.75019,-0.71489 0.46777,-0.26478 1.04144,-0.26478 0.74137,0 1.22678,0.43247 0.49425,0.42363 0.66194,1.2003 l -3.00959,1.04144 -0.21182,-0.51189 2.41826,-0.88258 -0.18534,0.12356 q -0.10591,-0.28242 -0.33538,-0.48541 -0.22947,-0.21182 -0.62663,-0.21182 -0.49424,0 -0.81197,0.3442 -0.3089,0.33538 -0.3089,0.86493 0,0.56485 0.33538,0.90905 0.33538,0.34421 0.84727,0.34421 0.2383,0 0.45894,-0.0794 0.22065,-0.0883 0.41481,-0.22947 l 0.40599,0.66194 q -0.28243,0.18534 -0.62663,0.30007 -0.33538,0.10591 -0.67076,0.10591 z"
         id="path7966" /><path
         d="m 513.57231,-194.75313 q -0.51189,0 -0.88257,-0.20299 -0.37069,-0.21182 -0.60016,-0.53837 l 0.0883,-0.25595 v 0.90906 h -0.8914 v -6.85763 h 0.8914 v 3.98042 l -0.0265,-0.32655 q 0.22065,-0.28242 0.61781,-0.45894 0.40598,-0.17652 0.91788,-0.17652 0.49424,0 0.90023,0.2383 0.40598,0.22947 0.6531,0.66193 0.24713,0.43247 0.24713,1.03262 0,0.62663 -0.2736,1.07674 -0.26478,0.44129 -0.69724,0.67959 -0.43246,0.23829 -0.94436,0.23829 z m -0.19416,-0.75019 q 0.3442,0 0.6178,-0.15886 0.2736,-0.16769 0.42364,-0.45012 0.15886,-0.28242 0.15886,-0.63545 0,-0.35303 -0.15886,-0.62663 -0.15887,-0.2736 -0.43247,-0.43246 -0.26477,-0.16769 -0.60897,-0.16769 -0.44129,0 -0.76785,0.22947 -0.32655,0.22947 -0.43246,0.60897 v 0.77667 q 0.11474,0.37068 0.42364,0.61781 0.31773,0.23829 0.77667,0.23829 z"
         id="path7968" /><path
         d="m 517.74691,-194.69135 q -0.5119,0 -0.83845,-0.3089 -0.32655,-0.3089 -0.3442,-0.79432 v -2.73599 h 0.8914 v 2.41826 q 0.0177,0.29125 0.16769,0.46777 0.15004,0.17652 0.47659,0.19417 0.30008,0 0.53837,-0.17652 0.2383,-0.18534 0.37068,-0.50307 0.14122,-0.31773 0.14122,-0.71488 v -1.68573 h 0.8914 v 3.68918 h -0.80315 l -0.0706,-0.86493 0.0353,0.14121 q -0.16769,0.37951 -0.56485,0.62663 -0.38833,0.24712 -0.8914,0.24712 z"
         id="path7970" /><path
         d="m 521.4449,-201.69901 h 0.8914 v 6.85763 h -0.8914 z"
         id="path7972" /><path
         d="m 523.73077,-201.69901 h 0.89141 v 6.85763 h -0.89141 z"
         id="path7974" /><path
         d="m 527.74651,-194.75313 q -0.63545,0 -1.09439,-0.24712 -0.45894,-0.25595 -0.70606,-0.69723 -0.24712,-0.45012 -0.24712,-1.01497 0,-0.5472 0.27359,-0.98848 0.28243,-0.45012 0.75019,-0.71489 0.46777,-0.26478 1.04145,-0.26478 0.74136,0 1.22678,0.43247 0.49424,0.42363 0.66193,1.2003 l -3.00959,1.04144 -0.21182,-0.51189 2.41827,-0.88258 -0.18535,0.12356 q -0.1059,-0.28242 -0.33537,-0.48541 -0.22947,-0.21182 -0.62663,-0.21182 -0.49425,0 -0.81198,0.3442 -0.3089,0.33538 -0.3089,0.86493 0,0.56485 0.33538,0.90905 0.33538,0.34421 0.84728,0.34421 0.23829,0 0.45894,-0.0794 0.22064,-0.0883 0.41481,-0.22947 l 0.40598,0.66194 q -0.28242,0.18534 -0.62663,0.30007 -0.33538,0.10591 -0.67076,0.10591 z"
         id="path7976" /><path
         d="m 531.00321,-200.14567 h 0.90023 v 1.62394 h 0.98848 v 0.69723 h -0.98848 v 2.98312 h -0.90023 v -2.98312 h -0.65311 v -0.69723 h 0.65311 z"
         id="path7978" /><path
         d="m 534.9395,-194.76195 q -0.40598,0 -0.77667,-0.14122 -0.37068,-0.15003 -0.62663,-0.42363 l 0.37951,-0.5119 q 0.22947,0.22065 0.47659,0.33538 0.25595,0.11474 0.47659,0.11474 0.25595,0 0.45012,-0.0971 0.19417,-0.10591 0.19417,-0.3442 0,-0.19417 -0.13239,-0.30008 -0.12356,-0.10591 -0.31773,-0.17651 -0.19417,-0.0706 -0.41481,-0.13239 -0.45894,-0.15004 -0.70606,-0.42364 -0.2383,-0.28242 -0.2383,-0.66193 0,-0.29125 0.14122,-0.5472 0.15003,-0.26477 0.45011,-0.42363 0.30008,-0.16769 0.74136,-0.16769 0.38834,0 0.69724,0.0971 0.3089,0.0883 0.57368,0.3089 l -0.34421,0.53837 q -0.15886,-0.15886 -0.37951,-0.23829 -0.21182,-0.0883 -0.38833,-0.0971 -0.2383,0 -0.41481,0.11474 -0.17652,0.10591 -0.17652,0.29125 0,0.18534 0.12356,0.30008 0.12356,0.10591 0.31773,0.17651 0.20299,0.0618 0.40599,0.13239 0.40598,0.13238 0.67075,0.36185 0.2736,0.22947 0.2736,0.67076 0,0.33538 -0.15886,0.61781 -0.15886,0.28242 -0.48542,0.45894 -0.31773,0.16769 -0.81197,0.16769 z"
         id="path7980" /><path
         d="m 537.10182,-195.33563 q 0,-0.21182 0.15003,-0.35303 0.15887,-0.15004 0.34421,-0.15004 0.17651,0 0.32655,0.15004 0.15004,0.14121 0.15004,0.35303 0,0.22065 -0.15004,0.36186 -0.15004,0.13239 -0.32655,0.13239 -0.18534,0 -0.34421,-0.13239 -0.15003,-0.14121 -0.15003,-0.36186 z"
         id="path7982" /></g><g
       aria-label="The Occupiers"
       id="text20369"
       style="font-size:12.0247px;font-family:'Reem Kufi Fun';-inkscape-font-specification:'Reem Kufi Fun';fill:#020617;stroke-width:7.76188"><path
         d="m 428.51148,106.01611 h 5.80793 v 1.21449 h -2.30874 v 7.50342 h -1.26259 v -7.50342 h -2.2366 z"
         id="path8061" /><path
         d="m 435.85858,114.73402 v -9.3432 h 1.19045 v 5.45922 l -0.024,-0.20442 q 0.26454,-0.49301 0.78161,-0.80566 0.51706,-0.32466 1.23854,-0.32466 0.70946,0 1.1664,0.42086 0.45693,0.40884 0.46896,1.08222 v 3.71564 h -1.2145 v -3.29477 q -0.012,-0.38479 -0.22847,-0.62529 -0.21644,-0.25251 -0.67338,-0.26454 -0.63731,0 -1.0702,0.54111 -0.42086,0.52909 -0.42086,1.34677 v 2.29672 z"
         id="path8063" /><path
         d="m 444.94925,114.85426 q -0.86578,0 -1.49106,-0.33669 -0.62529,-0.34871 -0.96198,-0.94995 -0.33669,-0.61326 -0.33669,-1.38284 0,-0.74553 0.37277,-1.34677 0.38479,-0.61326 1.0221,-0.974 0.6373,-0.36074 1.41891,-0.36074 1.01007,0 1.67143,0.58921 0.67339,0.57719 0.90186,1.63536 l -4.10043,1.41892 -0.28859,-0.69744 3.29477,-1.20247 -0.25252,0.16835 q -0.1443,-0.38479 -0.45694,-0.66136 -0.31264,-0.28859 -0.85375,-0.28859 -0.67339,0 -1.10628,0.46896 -0.42086,0.45694 -0.42086,1.17842 0,0.76958 0.45694,1.23855 0.45694,0.46896 1.15437,0.46896 0.32467,0 0.62528,-0.10822 0.30062,-0.12025 0.56517,-0.31265 l 0.55313,0.90186 q -0.38479,0.25252 -0.85375,0.40884 -0.45694,0.14429 -0.91388,0.14429 z"
         id="path8065" /><path
         d="m 450.21605,110.38107 q 0,-0.90185 0.3367,-1.7075 0.34871,-0.80566 0.96197,-1.41892 0.61326,-0.62528 1.41892,-0.974 0.80565,-0.36074 1.71953,-0.36074 0.91388,0 1.71953,0.36074 0.81768,0.34872 1.43094,0.974 0.62528,0.61326 0.974,1.41892 0.34872,0.80565 0.34872,1.7075 0,0.92591 -0.34872,1.73156 -0.34872,0.80566 -0.974,1.41892 -0.61326,0.61326 -1.43094,0.96197 -0.80565,0.33669 -1.71953,0.33669 -0.91388,0 -1.71953,-0.33669 -0.80566,-0.34871 -1.41892,-0.94995 -0.61326,-0.60123 -0.96197,-1.40689 -0.3367,-0.81768 -0.3367,-1.75561 z m 1.29867,0.012 q 0,0.88983 0.42087,1.62333 0.42086,0.73351 1.14234,1.1664 0.72148,0.43289 1.61131,0.43289 0.87781,0 1.58726,-0.43289 0.70946,-0.43289 1.13032,-1.1664 0.42087,-0.7335 0.42087,-1.63536 0,-0.90185 -0.43289,-1.63535 -0.42086,-0.74554 -1.14235,-1.17842 -0.70945,-0.43289 -1.58726,-0.43289 -0.88982,0 -1.61131,0.44491 -0.70945,0.43289 -1.13032,1.17842 -0.40884,0.73351 -0.40884,1.63536 z"
         id="path8067" /><path
         d="m 464.87417,114.26505 q -0.33669,0.27657 -0.81768,0.43289 -0.46896,0.15632 -0.94995,0.15632 -0.81768,0 -1.45499,-0.32466 -0.62528,-0.32467 -0.974,-0.91388 -0.34871,-0.58921 -0.34871,-1.39487 0,-0.81768 0.37276,-1.40689 0.37277,-0.58921 0.974,-0.90185 0.61326,-0.32467 1.3107,-0.32467 0.62528,0 1.09424,0.16835 0.48099,0.16835 0.82971,0.46896 l -0.60124,0.78161 q -0.20442,-0.16835 -0.51706,-0.30062 -0.31264,-0.13227 -0.69743,-0.13227 -0.43289,0 -0.79363,0.21644 -0.34872,0.21645 -0.55314,0.58922 -0.20442,0.37276 -0.20442,0.84172 0,0.45694 0.20442,0.82971 0.21645,0.37276 0.58921,0.58921 0.38479,0.21644 0.86578,0.21644 0.31264,0 0.57719,-0.0962 0.27656,-0.0962 0.48098,-0.25252 z"
         id="path8070" /><path
         d="m 470.40553,114.26505 q -0.33669,0.27657 -0.81768,0.43289 -0.46897,0.15632 -0.94995,0.15632 -0.81768,0 -1.45499,-0.32466 -0.62529,-0.32467 -0.974,-0.91388 -0.34872,-0.58921 -0.34872,-1.39487 0,-0.81768 0.37277,-1.40689 0.37276,-0.58921 0.974,-0.90185 0.61326,-0.32467 1.31069,-0.32467 0.62528,0 1.09425,0.16835 0.48098,0.16835 0.8297,0.46896 l -0.60123,0.78161 q -0.20442,-0.16835 -0.51707,-0.30062 -0.31264,-0.13227 -0.69743,-0.13227 -0.43289,0 -0.79363,0.21644 -0.34872,0.21645 -0.55314,0.58922 -0.20441,0.37276 -0.20441,0.84172 0,0.45694 0.20441,0.82971 0.21645,0.37276 0.58922,0.58921 0.38479,0.21644 0.86577,0.21644 0.31265,0 0.57719,-0.0962 0.27657,-0.0962 0.48099,-0.25252 z"
         id="path8072" /><path
         d="m 473.43574,114.93844 q -0.69743,0 -1.14235,-0.42087 -0.44491,-0.42086 -0.46896,-1.08222 v -3.72766 h 1.21449 v 3.29477 q 0.024,0.39681 0.22847,0.63731 0.20442,0.24049 0.64934,0.26454 0.40884,0 0.7335,-0.24049 0.32467,-0.25252 0.50504,-0.68541 0.1924,-0.43289 0.1924,-0.974 v -2.29672 h 1.21449 v 5.02633 h -1.09425 l -0.0962,-1.17842 0.0481,0.19239 q -0.22847,0.51706 -0.76958,0.85375 -0.52908,0.3367 -1.21449,0.3367 z"
         id="path8074" /><path
         d="m 481.48026,114.85426 q -0.55314,0 -1.0702,-0.24049 -0.50504,-0.25252 -0.79363,-0.68541 l 0.0722,-0.37276 v 3.59538 h -1.2145 v -7.52746 h 1.04615 l 0.16835,1.23854 -0.12025,-0.34871 q 0.36074,-0.44492 0.90185,-0.72149 0.55314,-0.28859 1.23855,-0.28859 0.70945,0 1.27462,0.33669 0.56516,0.3367 0.88982,0.94995 0.32467,0.60124 0.32467,1.41892 0,0.81768 -0.36074,1.41891 -0.34872,0.58921 -0.96198,0.91388 -0.61326,0.31264 -1.39486,0.31264 z m -0.2405,-0.96197 q 0.46897,0 0.85376,-0.21645 0.39681,-0.21644 0.62528,-0.58921 0.2405,-0.38479 0.2405,-0.86578 0,-0.49301 -0.21645,-0.8778 -0.21644,-0.38479 -0.58921,-0.60123 -0.37276,-0.21645 -0.8297,-0.21645 -0.62529,0 -1.05818,0.33669 -0.42086,0.33669 -0.57718,0.88983 v 0.90185 q 0.0962,0.54111 0.52908,0.88983 0.43289,0.34872 1.0221,0.34872 z"
         id="path8076" /><path
         d="m 485.66485,109.70769 h 1.21449 v 5.02633 h -1.21449 z m -0.0601,-1.8037 q 0,-0.27657 0.21645,-0.46897 0.22847,-0.19239 0.49301,-0.19239 0.26455,0 0.48099,0.19239 0.21644,0.1924 0.21644,0.46897 0,0.30061 -0.21644,0.48098 -0.21644,0.18038 -0.48099,0.18038 -0.26454,0 -0.49301,-0.18038 -0.21645,-0.18037 -0.21645,-0.48098 z"
         id="path8078" /><path
         d="m 491.1361,114.85426 q -0.86578,0 -1.49107,-0.33669 -0.62528,-0.34871 -0.96197,-0.94995 -0.33669,-0.61326 -0.33669,-1.38284 0,-0.74553 0.37276,-1.34677 0.38479,-0.61326 1.0221,-0.974 0.63731,-0.36074 1.41892,-0.36074 1.01007,0 1.67143,0.58921 0.67338,0.57719 0.90185,1.63536 l -4.10042,1.41892 -0.28859,-0.69744 3.29476,-1.20247 -0.25251,0.16835 q -0.1443,-0.38479 -0.45694,-0.66136 -0.31265,-0.28859 -0.85376,-0.28859 -0.67338,0 -1.10627,0.46896 -0.42086,0.45694 -0.42086,1.17842 0,0.76958 0.45693,1.23855 0.45694,0.46896 1.15438,0.46896 0.32466,0 0.62528,-0.10822 0.30062,-0.12025 0.56516,-0.31265 l 0.55314,0.90186 q -0.38479,0.25252 -0.85376,0.40884 -0.45694,0.14429 -0.91387,0.14429 z"
         id="path8080" /><path
         d="m 496.17444,109.70769 0.12025,1.44297 -0.0481,-0.1924 q 0.20442,-0.45694 0.56516,-0.7816 0.37276,-0.32467 0.76958,-0.49302 0.40884,-0.18037 0.68541,-0.18037 l -0.0601,1.20247 q -0.56516,-0.0361 -0.99805,0.21645 -0.42086,0.25252 -0.66135,0.67338 -0.2405,0.42086 -0.2405,0.90185 v 2.2366 h -1.21449 v -5.02633 z"
         id="path8082" /><path
         d="m 501.12863,114.84224 q -0.55314,0 -1.05818,-0.1924 -0.50503,-0.20442 -0.85375,-0.57718 l 0.51706,-0.69743 q 0.31264,0.30061 0.64933,0.45693 0.34872,0.15633 0.64934,0.15633 0.34871,0 0.61326,-0.13228 0.26454,-0.14429 0.26454,-0.46896 0,-0.26454 -0.18037,-0.40884 -0.16834,-0.1443 -0.43289,-0.24049 -0.26454,-0.0962 -0.56516,-0.18037 -0.62528,-0.20442 -0.96197,-0.57719 -0.32467,-0.38479 -0.32467,-0.90185 0,-0.39682 0.19239,-0.74553 0.20442,-0.36074 0.61326,-0.57719 0.40884,-0.22847 1.01008,-0.22847 0.52908,0 0.94995,0.13227 0.42086,0.12025 0.7816,0.42087 l -0.46896,0.7335 q -0.21644,-0.21644 -0.51706,-0.32466 -0.28859,-0.12025 -0.52909,-0.13227 -0.32466,0 -0.56516,0.15632 -0.24049,0.14429 -0.24049,0.39681 0,0.25252 0.16834,0.40884 0.16835,0.1443 0.43289,0.2405 0.27657,0.0842 0.55314,0.18037 0.55314,0.18037 0.91388,0.49301 0.37276,0.31264 0.37276,0.91388 0,0.45693 -0.21644,0.84173 -0.21645,0.38479 -0.66136,0.62528 -0.43289,0.22847 -1.10627,0.22847 z"
         id="path8084" /></g><g
       aria-label="Only Understand the language of the bullets."
       id="text11707"
       style="font-size:12.0247px;font-family:'Reem Kufi Fun';-inkscape-font-specification:'Reem Kufi Fun';fill:#020617;stroke-width:7.76188"><path
         d="m 458.7112,129.06602 q 0,-0.90185 0.33669,-1.70751 0.34871,-0.80565 0.96197,-1.41891 0.61326,-0.62529 1.41892,-0.974 0.80565,-0.36074 1.71953,-0.36074 0.91388,0 1.71953,0.36074 0.81768,0.34871 1.43094,0.974 0.62529,0.61326 0.974,1.41891 0.34872,0.80566 0.34872,1.70751 0,0.9259 -0.34872,1.73156 -0.34871,0.80565 -0.974,1.41891 -0.61326,0.61326 -1.43094,0.96198 -0.80565,0.33669 -1.71953,0.33669 -0.91388,0 -1.71953,-0.33669 -0.80566,-0.34872 -1.41892,-0.94995 -0.61326,-0.60124 -0.96197,-1.40689 -0.33669,-0.81768 -0.33669,-1.75561 z m 1.29866,0.012 q 0,0.88983 0.42087,1.62334 0.42086,0.73351 1.14234,1.16639 0.72149,0.43289 1.61131,0.43289 0.87781,0 1.58726,-0.43289 0.70946,-0.43288 1.13033,-1.16639 0.42086,-0.73351 0.42086,-1.63536 0,-0.90185 -0.43289,-1.63536 -0.42086,-0.74553 -1.14234,-1.17842 -0.70946,-0.43289 -1.58726,-0.43289 -0.88983,0 -1.61131,0.44491 -0.70946,0.43289 -1.13033,1.17842 -0.40884,0.73351 -0.40884,1.63536 z"
         id="path8111" /><path
         d="m 470.35112,128.39264 0.10822,1.16639 -0.0481,-0.16834 q 0.24049,-0.54112 0.76958,-0.86578 0.54111,-0.32467 1.26259,-0.32467 0.70946,0 1.1664,0.42087 0.45694,0.40884 0.46896,1.08222 v 3.71563 h -1.21449 v -3.29477 q -0.012,-0.38479 -0.22847,-0.62528 -0.21645,-0.25252 -0.67338,-0.26455 -0.63731,0 -1.0702,0.52909 -0.42087,0.52909 -0.42087,1.35879 v 2.29672 h -1.21449 v -5.02632 z"
         id="path8113" /><path
         d="m 475.99069,124.07577 h 1.2145 v 9.34319 h -1.2145 z"
         id="path8115" /><path
         d="m 479.53799,135.83593 3.30679,-7.44329 h 1.1183 l -3.24667,7.44329 z m 1.25057,-2.3809 -2.41697,-5.06239 h 1.3588 l 2.00812,4.44913 z"
         id="path8117" /><path
         d="m 488.09957,130.30456 q 0,0.55314 0.26454,1.01008 0.27657,0.44491 0.74553,0.70946 0.46897,0.26454 1.03413,0.26454 0.60123,0 1.07019,-0.26454 0.46897,-0.26455 0.73351,-0.70946 0.27657,-0.45694 0.27657,-1.01008 v -5.60351 h 1.23854 v 5.63959 q 0,0.94995 -0.44491,1.67143 -0.44491,0.70946 -1.20247,1.10627 -0.74553,0.39682 -1.67143,0.39682 v 0 q -0.92591,0 -1.68346,-0.39682 -0.74553,-0.39681 -1.19045,-1.10627 -0.43289,-0.72148 -0.43289,-1.67143 v -5.63959 h 1.2626 z"
         id="path8119" /><path
         d="m 496.61306,128.39264 0.10822,1.16639 -0.0481,-0.16834 q 0.24049,-0.54112 0.76958,-0.86578 0.54111,-0.32467 1.26259,-0.32467 0.70946,0 1.1664,0.42087 0.45693,0.40884 0.46896,1.08222 v 3.71563 h -1.2145 v -3.29477 q -0.012,-0.38479 -0.22847,-0.62528 -0.21644,-0.25252 -0.67338,-0.26455 -0.63731,0 -1.0702,0.52909 -0.42086,0.52909 -0.42086,1.35879 v 2.29672 h -1.2145 v -5.02632 z"
         id="path8121" /><path
         d="m 504.30886,133.53921 q -0.70945,0 -1.27461,-0.32467 -0.56517,-0.33669 -0.88983,-0.94995 -0.32467,-0.61326 -0.32467,-1.43094 0,-0.84173 0.34872,-1.43094 0.34871,-0.58921 0.93792,-0.90185 0.60124,-0.31264 1.34677,-0.31264 0.57719,0 1.09425,0.24049 0.52908,0.22847 0.8297,0.64933 l -0.0481,0.42087 v -5.42314 h 1.2145 v 9.34319 h -1.22652 v -1.20247 l 0.13227,0.32467 q -0.36074,0.43289 -0.91388,0.72148 -0.54111,0.27657 -1.22652,0.27657 z m 0.37277,-1.0221 q 0.63731,0 1.05817,-0.32467 0.43289,-0.33669 0.57719,-0.88983 v -0.99805 q -0.13227,-0.50503 -0.58921,-0.8297 -0.44492,-0.32467 -1.04615,-0.32467 -0.43289,0 -0.80566,0.21645 -0.37276,0.20442 -0.60123,0.58921 -0.21645,0.37276 -0.21645,0.86578 0,0.46896 0.21645,0.85375 0.22847,0.38479 0.60123,0.61326 0.37277,0.22847 0.80566,0.22847 z"
         id="path8123" /><path
         d="m 511.80025,133.53921 q -0.86578,0 -1.49107,-0.33669 -0.62528,-0.34872 -0.96197,-0.94996 -0.33669,-0.61326 -0.33669,-1.38284 0,-0.74553 0.37276,-1.34676 0.38479,-0.61326 1.0221,-0.974 0.63731,-0.36074 1.41892,-0.36074 1.01007,0 1.67143,0.58921 0.67338,0.57718 0.90185,1.63536 l -4.10042,1.41891 -0.28859,-0.69743 3.29476,-1.20247 -0.25251,0.16834 q -0.1443,-0.38479 -0.45694,-0.66136 -0.31265,-0.28859 -0.85376,-0.28859 -0.67338,0 -1.10627,0.46897 -0.42086,0.45693 -0.42086,1.17842 0,0.76958 0.45693,1.23854 0.45694,0.46896 1.15438,0.46896 0.32466,0 0.62528,-0.10822 0.30062,-0.12025 0.56516,-0.31264 l 0.55314,0.90185 q -0.38479,0.25252 -0.85376,0.40884 -0.45693,0.1443 -0.91387,0.1443 z"
         id="path8125" /><path
         d="m 516.83859,128.39264 0.12025,1.44296 -0.0481,-0.1924 q 0.20442,-0.45693 0.56516,-0.7816 0.37276,-0.32467 0.76958,-0.49301 0.40884,-0.18037 0.68541,-0.18037 l -0.0601,1.20247 q -0.56516,-0.0361 -0.99805,0.21644 -0.42086,0.25252 -0.66135,0.67338 -0.2405,0.42087 -0.2405,0.90186 v 2.23659 h -1.21449 v -5.02632 z"
         id="path8127" /><path
         d="m 521.79277,133.52718 q -0.55313,0 -1.05817,-0.19239 -0.50504,-0.20442 -0.85375,-0.57719 l 0.51706,-0.69743 q 0.31264,0.30062 0.64933,0.45694 0.34872,0.15632 0.64934,0.15632 0.34871,0 0.61325,-0.13227 0.26455,-0.1443 0.26455,-0.46897 0,-0.26454 -0.18037,-0.40884 -0.16835,-0.14429 -0.43289,-0.24049 -0.26454,-0.0962 -0.56516,-0.18037 -0.62529,-0.20442 -0.96198,-0.57719 -0.32467,-0.38479 -0.32467,-0.90185 0,-0.39681 0.1924,-0.74553 0.20442,-0.36074 0.61326,-0.57719 0.40884,-0.22846 1.01007,-0.22846 0.52909,0 0.94996,0.13227 0.42086,0.12024 0.7816,0.42086 l -0.46896,0.73351 q -0.21645,-0.21645 -0.51706,-0.32467 -0.2886,-0.12025 -0.52909,-0.13227 -0.32467,0 -0.56516,0.15632 -0.2405,0.1443 -0.2405,0.39682 0,0.25251 0.16835,0.40884 0.16835,0.14429 0.43289,0.24049 0.27657,0.0842 0.55314,0.18037 0.55313,0.18037 0.91387,0.49301 0.37277,0.31265 0.37277,0.91388 0,0.45694 -0.21645,0.84173 -0.21644,0.38479 -0.66135,0.62528 -0.43289,0.22847 -1.10628,0.22847 z"
         id="path8129" /><path
         d="m 525.797,126.19212 h 1.22652 v 2.21254 h 1.34676 v 0.94995 h -1.34676 v 4.06435 H 525.797 v -4.06435 h -0.88983 v -0.94995 h 0.88983 z"
         id="path8131" /><path
         d="m 531.80934,133.53921 q -0.70946,0 -1.28664,-0.30062 -0.57719,-0.30062 -0.91388,-0.8778 -0.33669,-0.58921 -0.33669,-1.45499 0,-0.84173 0.34871,-1.44297 0.36075,-0.61326 0.93793,-0.93792 0.58921,-0.33669 1.27462,-0.33669 0.72148,0 1.19044,0.30061 0.46897,0.30062 0.72149,0.72149 l -0.0721,0.19239 0.12025,-1.01007 h 1.11829 v 5.02632 h -1.21449 v -1.27462 l 0.12024,0.30062 q -0.0481,0.0962 -0.20442,0.27657 -0.15632,0.18037 -0.40884,0.37276 -0.25251,0.18037 -0.61325,0.31265 -0.34872,0.13227 -0.78161,0.13227 z m 0.32467,-0.99805 q 0.60123,0 1.01007,-0.31264 0.42087,-0.32467 0.55314,-0.87781 v -1.03412 q -0.1443,-0.49301 -0.58921,-0.81768 -0.43289,-0.32467 -1.01008,-0.32467 -0.43289,0 -0.79363,0.21645 -0.36074,0.20442 -0.57718,0.58921 -0.21645,0.37276 -0.21645,0.86577 0,0.48099 0.21645,0.86578 0.22847,0.38479 0.60123,0.61326 0.37277,0.21645 0.80566,0.21645 z"
         id="path8133" /><path
         d="m 537.90586,128.39264 0.10823,1.16639 -0.0481,-0.16834 q 0.24049,-0.54112 0.76958,-0.86578 0.54111,-0.32467 1.26259,-0.32467 0.70946,0 1.1664,0.42087 0.45694,0.40884 0.46896,1.08222 v 3.71563 h -1.21449 v -3.29477 q -0.012,-0.38479 -0.22847,-0.62528 -0.21645,-0.25252 -0.67339,-0.26455 -0.63731,0 -1.0702,0.52909 -0.42086,0.52909 -0.42086,1.35879 v 2.29672 h -1.21449 v -5.02632 z"
         id="path8135" /><path
         d="m 545.60166,133.53921 q -0.70945,0 -1.27461,-0.32467 -0.56516,-0.33669 -0.88983,-0.94995 -0.32467,-0.61326 -0.32467,-1.43094 0,-0.84173 0.34872,-1.43094 0.34871,-0.58921 0.93792,-0.90185 0.60124,-0.31264 1.34677,-0.31264 0.57719,0 1.09425,0.24049 0.52909,0.22847 0.8297,0.64933 l -0.0481,0.42087 v -5.42314 h 1.2145 v 9.34319 h -1.22652 v -1.20247 l 0.13227,0.32467 q -0.36074,0.43289 -0.91388,0.72148 -0.54111,0.27657 -1.22652,0.27657 z m 0.37277,-1.0221 q 0.63731,0 1.05817,-0.32467 0.43289,-0.33669 0.57719,-0.88983 v -0.99805 q -0.13227,-0.50503 -0.58921,-0.8297 -0.44491,-0.32467 -1.04615,-0.32467 -0.43289,0 -0.80565,0.21645 -0.37277,0.20442 -0.60124,0.58921 -0.21644,0.37276 -0.21644,0.86578 0,0.46896 0.21644,0.85375 0.22847,0.38479 0.60124,0.61326 0.37276,0.22847 0.80565,0.22847 z"
         id="path8137" /><path
         d="m 552.78039,126.19212 h 1.22652 v 2.21254 h 1.34676 v 0.94995 h -1.34676 v 4.06435 h -1.22652 v -4.06435 h -0.88983 v -0.94995 h 0.88983 z"
         id="path8139" /><path
         d="m 556.68842,133.41896 v -9.34319 h 1.19044 v 5.45921 l -0.024,-0.20442 q 0.26454,-0.49301 0.78161,-0.80565 0.51706,-0.32467 1.23854,-0.32467 0.70946,0 1.1664,0.42087 0.45694,0.40884 0.46896,1.08222 v 3.71563 h -1.21449 v -3.29477 q -0.012,-0.38479 -0.22847,-0.62528 -0.21645,-0.25252 -0.67339,-0.26455 -0.63731,0 -1.0702,0.54112 -0.42086,0.52908 -0.42086,1.34676 v 2.29672 z"
         id="path8141" /><path
         d="m 565.77908,133.53921 q -0.86578,0 -1.49106,-0.33669 -0.62528,-0.34872 -0.96198,-0.94996 -0.33669,-0.61326 -0.33669,-1.38284 0,-0.74553 0.37277,-1.34676 0.38479,-0.61326 1.0221,-0.974 0.63731,-0.36074 1.41891,-0.36074 1.01008,0 1.67144,0.58921 0.67338,0.57718 0.90185,1.63536 l -4.10042,1.41891 -0.2886,-0.69743 3.29477,-1.20247 -0.25252,0.16834 q -0.1443,-0.38479 -0.45694,-0.66136 -0.31264,-0.28859 -0.85375,-0.28859 -0.67338,0 -1.10627,0.46897 -0.42087,0.45693 -0.42087,1.17842 0,0.76958 0.45694,1.23854 0.45694,0.46896 1.15437,0.46896 0.32467,0 0.62529,-0.10822 0.30061,-0.12025 0.56516,-0.31264 l 0.55313,0.90185 q -0.38479,0.25252 -0.85375,0.40884 -0.45694,0.1443 -0.91388,0.1443 z"
         id="path8143" /><path
         d="m 571.29841,124.07577 h 1.21449 v 9.34319 h -1.21449 z"
         id="path8145" /><path
         d="m 576.51713,133.53921 q -0.70945,0 -1.28664,-0.30062 -0.57718,-0.30062 -0.91388,-0.8778 -0.33669,-0.58921 -0.33669,-1.45499 0,-0.84173 0.34872,-1.44297 0.36074,-0.61326 0.93793,-0.93792 0.58921,-0.33669 1.27461,-0.33669 0.72149,0 1.19045,0.30061 0.46896,0.30062 0.72148,0.72149 l -0.0722,0.19239 0.12025,-1.01007 h 1.1183 v 5.02632 h -1.2145 v -1.27462 l 0.12025,0.30062 q -0.0481,0.0962 -0.20442,0.27657 -0.15632,0.18037 -0.40884,0.37276 -0.25252,0.18037 -0.61326,0.31265 -0.34872,0.13227 -0.78161,0.13227 z m 0.32467,-0.99805 q 0.60124,0 1.01008,-0.31264 0.42086,-0.32467 0.55313,-0.87781 v -1.03412 q -0.14429,-0.49301 -0.58921,-0.81768 -0.43289,-0.32467 -1.01007,-0.32467 -0.43289,0 -0.79363,0.21645 -0.36074,0.20442 -0.57719,0.58921 -0.21644,0.37276 -0.21644,0.86577 0,0.48099 0.21644,0.86578 0.22847,0.38479 0.60124,0.61326 0.37276,0.21645 0.80565,0.21645 z"
         id="path8147" /><path
         d="m 582.61366,128.39264 0.10822,1.16639 -0.0481,-0.16834 q 0.24049,-0.54112 0.76958,-0.86578 0.54111,-0.32467 1.26259,-0.32467 0.70946,0 1.1664,0.42087 0.45694,0.40884 0.46896,1.08222 v 3.71563 h -1.21449 v -3.29477 q -0.012,-0.38479 -0.22847,-0.62528 -0.21644,-0.25252 -0.67338,-0.26455 -0.63731,0 -1.0702,0.52909 -0.42087,0.52909 -0.42087,1.35879 v 2.29672 h -1.21449 v -5.02632 z"
         id="path8149" /><path
         d="m 590.70627,135.9201 q -0.57718,0 -1.01007,-0.1443 -0.43289,-0.13227 -0.78161,-0.36074 -0.33669,-0.22847 -0.64933,-0.50504 l 0.72148,-0.8297 q 0.37277,0.36074 0.76958,0.56516 0.40884,0.20442 0.9259,0.20442 0.81768,0 1.2626,-0.38479 0.44491,-0.38479 0.45694,-1.03412 v -1.3107 l 0.0842,0.22847 q -0.21645,0.50504 -0.76958,0.85376 -0.54111,0.33669 -1.34677,0.33669 -0.69743,0 -1.27462,-0.34872 -0.57718,-0.34872 -0.9259,-0.94995 -0.34871,-0.60124 -0.34871,-1.35879 0,-0.78161 0.36074,-1.38284 0.37276,-0.61326 0.974,-0.96198 0.60123,-0.34871 1.28664,-0.34871 0.67338,0 1.20247,0.25251 0.54111,0.25252 0.79363,0.64934 l -0.0601,0.20442 0.12024,-0.90185 h 1.1183 v 5.06239 q 0,0.68541 -0.36074,1.23855 -0.36074,0.56516 -1.01007,0.88983 -0.64934,0.33669 -1.53917,0.33669 z m -1.6594,-5.07443 q 0,0.48099 0.21644,0.86578 0.22847,0.38479 0.60123,0.61326 0.3848,0.21645 0.85376,0.21645 0.63731,0 1.08222,-0.32467 0.44492,-0.33669 0.60124,-0.85375 v -1.03413 q -0.15632,-0.51706 -0.61326,-0.8297 -0.45694,-0.32467 -1.0702,-0.32467 -0.46896,0 -0.85376,0.21645 -0.37276,0.21644 -0.60123,0.58921 -0.21644,0.37276 -0.21644,0.86577 z"
         id="path8151" /><path
         d="m 597.12745,133.62338 q -0.69743,0 -1.14234,-0.42086 -0.44492,-0.42087 -0.46897,-1.08223 v -3.72765 h 1.2145 v 3.29476 q 0.024,0.39682 0.22847,0.63731 0.20442,0.2405 0.64933,0.26455 0.40884,0 0.73351,-0.2405 0.32467,-0.25252 0.50504,-0.68541 0.19239,-0.43288 0.19239,-0.974 v -2.29671 h 1.2145 v 5.02632 h -1.09425 l -0.0962,-1.17842 0.0481,0.1924 q -0.22847,0.51706 -0.76958,0.85375 -0.52909,0.33669 -1.2145,0.33669 z"
         id="path8153" /><path
         d="m 604.27012,133.53921 q -0.70945,0 -1.28664,-0.30062 -0.57718,-0.30062 -0.91388,-0.8778 -0.33669,-0.58921 -0.33669,-1.45499 0,-0.84173 0.34872,-1.44297 0.36074,-0.61326 0.93793,-0.93792 0.58921,-0.33669 1.27461,-0.33669 0.72149,0 1.19045,0.30061 0.46896,0.30062 0.72148,0.72149 l -0.0721,0.19239 0.12025,-1.01007 h 1.1183 v 5.02632 h -1.2145 v -1.27462 l 0.12025,0.30062 q -0.0481,0.0962 -0.20442,0.27657 -0.15632,0.18037 -0.40884,0.37276 -0.25252,0.18037 -0.61326,0.31265 -0.34872,0.13227 -0.78161,0.13227 z m 0.32467,-0.99805 q 0.60124,0 1.01008,-0.31264 0.42086,-0.32467 0.55313,-0.87781 v -1.03412 q -0.14429,-0.49301 -0.58921,-0.81768 -0.43289,-0.32467 -1.01007,-0.32467 -0.43289,0 -0.79363,0.21645 -0.36074,0.20442 -0.57719,0.58921 -0.21644,0.37276 -0.21644,0.86577 0,0.48099 0.21644,0.86578 0.22847,0.38479 0.60124,0.61326 0.37276,0.21645 0.80565,0.21645 z"
         id="path8155" /><path
         d="m 611.72544,135.9201 q -0.57719,0 -1.01008,-0.1443 -0.43289,-0.13227 -0.7816,-0.36074 -0.33669,-0.22847 -0.64934,-0.50504 l 0.72149,-0.8297 q 0.37276,0.36074 0.76958,0.56516 0.40884,0.20442 0.9259,0.20442 0.81768,0 1.26259,-0.38479 0.44492,-0.38479 0.45694,-1.03412 v -1.3107 l 0.0842,0.22847 q -0.21644,0.50504 -0.76958,0.85376 -0.54111,0.33669 -1.34676,0.33669 -0.69744,0 -1.27462,-0.34872 -0.57719,-0.34872 -0.9259,-0.94995 -0.34872,-0.60124 -0.34872,-1.35879 0,-0.78161 0.36074,-1.38284 0.37277,-0.61326 0.974,-0.96198 0.60124,-0.34871 1.28665,-0.34871 0.67338,0 1.20247,0.25251 0.54111,0.25252 0.79363,0.64934 l -0.0601,0.20442 0.12025,-0.90185 h 1.1183 v 5.06239 q 0,0.68541 -0.36074,1.23855 -0.36075,0.56516 -1.01008,0.88983 -0.64933,0.33669 -1.53916,0.33669 z m -1.65941,-5.07443 q 0,0.48099 0.21644,0.86578 0.22847,0.38479 0.60124,0.61326 0.38479,0.21645 0.85375,0.21645 0.63731,0 1.08223,-0.32467 0.44491,-0.33669 0.60123,-0.85375 v -1.03413 q -0.15632,-0.51706 -0.61326,-0.8297 -0.45694,-0.32467 -1.0702,-0.32467 -0.46896,0 -0.85375,0.21645 -0.37277,0.21644 -0.60124,0.58921 -0.21644,0.37276 -0.21644,0.86577 z"
         id="path8157" /><path
         d="m 618.89217,133.53921 q -0.86578,0 -1.49107,-0.33669 -0.62528,-0.34872 -0.96197,-0.94996 -0.33669,-0.61326 -0.33669,-1.38284 0,-0.74553 0.37276,-1.34676 0.38479,-0.61326 1.0221,-0.974 0.63731,-0.36074 1.41891,-0.36074 1.01008,0 1.67144,0.58921 0.67338,0.57718 0.90185,1.63536 l -4.10042,1.41891 -0.28859,-0.69743 3.29476,-1.20247 -0.25252,0.16834 q -0.14429,-0.38479 -0.45693,-0.66136 -0.31265,-0.28859 -0.85376,-0.28859 -0.67338,0 -1.10627,0.46897 -0.42086,0.45693 -0.42086,1.17842 0,0.76958 0.45693,1.23854 0.45694,0.46896 1.15437,0.46896 0.32467,0 0.62529,-0.10822 0.30062,-0.12025 0.56516,-0.31264 l 0.55314,0.90185 q -0.38479,0.25252 -0.85376,0.40884 -0.45694,0.1443 -0.91387,0.1443 z"
         id="path8159" /><path
         d="m 623.97859,130.8577 q 0,-0.75756 0.36075,-1.35879 0.36074,-0.61326 0.99805,-0.96198 0.6373,-0.34871 1.45498,-0.34871 0.82971,0 1.44297,0.34871 0.62528,0.34872 0.96197,0.96198 0.34872,0.60123 0.34872,1.35879 0,0.75756 -0.34872,1.37082 -0.34871,0.60123 -0.974,0.96197 -0.61326,0.34872 -1.45498,0.34872 -0.79364,0 -1.43094,-0.32467 -0.62529,-0.32467 -0.99805,-0.9259 -0.36075,-0.61326 -0.36075,-1.43094 z m 1.22652,0.012 q 0,0.46897 0.20442,0.85376 0.20442,0.37276 0.55314,0.60123 0.36074,0.21645 0.79363,0.21645 0.68541,0 1.1183,-0.48099 0.44491,-0.48099 0.44491,-1.19045 0,-0.70945 -0.44491,-1.19044 -0.43289,-0.49301 -1.1183,-0.49301 -0.44491,0 -0.79363,0.22847 -0.34872,0.22846 -0.55314,0.61326 -0.20442,0.38479 -0.20442,0.84172 z"
         id="path8161" /><path
         d="m 631.43391,133.41896 v -3.9441 h -0.85375 v -1.08222 h 0.85375 v -2.05623 q 0,-1.0702 0.50504,-1.65941 0.51706,-0.60123 1.50309,-0.60123 0.26454,0 0.57718,0.0842 0.32467,0.0721 0.57719,0.2405 l -0.51707,0.8778 q -0.10822,-0.12025 -0.25251,-0.15632 -0.13228,-0.0481 -0.26455,-0.0481 -0.42086,0 -0.67338,0.30062 -0.24049,0.28859 -0.24049,0.98602 v 2.03218 h 1.58726 v 1.08222 h -1.58726 v 3.9441 z"
         id="path8163" /><path
         d="m 637.72282,126.19212 h 1.22652 v 2.21254 h 1.34677 v 0.94995 h -1.34677 v 4.06435 h -1.22652 v -4.06435 H 636.833 v -0.94995 h 0.88982 z"
         id="path8165" /><path
         d="m 641.63084,133.41896 v -9.34319 h 1.19045 v 5.45921 l -0.024,-0.20442 q 0.26454,-0.49301 0.78161,-0.80565 0.51706,-0.32467 1.23854,-0.32467 0.70946,0 1.1664,0.42087 0.45693,0.40884 0.46896,1.08222 v 3.71563 h -1.2145 v -3.29477 q -0.012,-0.38479 -0.22846,-0.62528 -0.21645,-0.25252 -0.67339,-0.26455 -0.63731,0 -1.0702,0.54112 -0.42086,0.52908 -0.42086,1.34676 v 2.29672 z"
         id="path8167" /><path
         d="m 650.72151,133.53921 q -0.86578,0 -1.49106,-0.33669 -0.62529,-0.34872 -0.96198,-0.94996 -0.33669,-0.61326 -0.33669,-1.38284 0,-0.74553 0.37277,-1.34676 0.38479,-0.61326 1.0221,-0.974 0.63731,-0.36074 1.41891,-0.36074 1.01008,0 1.67143,0.58921 0.67339,0.57718 0.90186,1.63536 l -4.10043,1.41891 -0.28859,-0.69743 3.29477,-1.20247 -0.25252,0.16834 q -0.1443,-0.38479 -0.45694,-0.66136 -0.31264,-0.28859 -0.85375,-0.28859 -0.67339,0 -1.10627,0.46897 -0.42087,0.45693 -0.42087,1.17842 0,0.76958 0.45694,1.23854 0.45694,0.46896 1.15437,0.46896 0.32467,0 0.62528,-0.10822 0.30062,-0.12025 0.56517,-0.31264 l 0.55313,0.90185 q -0.38479,0.25252 -0.85375,0.40884 -0.45694,0.1443 -0.91388,0.1443 z"
         id="path8169" /><path
         d="m 659.35523,133.53921 q -0.69744,0 -1.20247,-0.27657 -0.50504,-0.28859 -0.81768,-0.73351 l 0.12024,-0.34871 v 1.23854 h -1.21449 v -9.34319 h 1.21449 v 5.42314 l -0.0361,-0.44492 q 0.30062,-0.38479 0.84173,-0.62528 0.55314,-0.24049 1.25057,-0.24049 0.67338,0 1.22652,0.32466 0.55313,0.31265 0.88983,0.90186 0.33669,0.58921 0.33669,1.40689 0,0.85375 -0.37277,1.46701 -0.36074,0.60123 -0.94995,0.9259 -0.58921,0.32467 -1.28664,0.32467 z m -0.26455,-1.0221 q 0.46897,0 0.84173,-0.21645 0.37277,-0.22847 0.57719,-0.61326 0.21644,-0.38479 0.21644,-0.86577 0,-0.48099 -0.21644,-0.85376 -0.21645,-0.37276 -0.58921,-0.58921 -0.36074,-0.22847 -0.82971,-0.22847 -0.60123,0 -1.04615,0.31264 -0.44491,0.31265 -0.58921,0.82971 v 1.05817 q 0.15633,0.50504 0.57719,0.84173 0.43289,0.32467 1.05817,0.32467 z"
         id="path8171" /><path
         d="m 665.0429,133.62338 q -0.69743,0 -1.14234,-0.42086 -0.44492,-0.42087 -0.46897,-1.08223 v -3.72765 h 1.2145 v 3.29476 q 0.024,0.39682 0.22847,0.63731 0.20442,0.2405 0.64933,0.26455 0.40884,0 0.73351,-0.2405 0.32467,-0.25252 0.50504,-0.68541 0.19239,-0.43288 0.19239,-0.974 v -2.29671 h 1.2145 v 5.02632 h -1.09425 l -0.0962,-1.17842 0.0481,0.1924 q -0.22847,0.51706 -0.76958,0.85375 -0.52909,0.33669 -1.2145,0.33669 z"
         id="path8173" /><path
         d="m 670.08125,124.07577 h 1.2145 v 9.34319 h -1.2145 z"
         id="path8175" /><path
         d="m 673.19566,124.07577 h 1.2145 v 9.34319 h -1.2145 z"
         id="path8177" /><path
         d="m 678.6669,133.53921 q -0.86578,0 -1.49106,-0.33669 -0.62529,-0.34872 -0.96198,-0.94996 -0.33669,-0.61326 -0.33669,-1.38284 0,-0.74553 0.37277,-1.34676 0.38479,-0.61326 1.02209,-0.974 0.63731,-0.36074 1.41892,-0.36074 1.01007,0 1.67143,0.58921 0.67339,0.57718 0.90186,1.63536 l -4.10043,1.41891 -0.28859,-0.69743 3.29477,-1.20247 -0.25252,0.16834 q -0.1443,-0.38479 -0.45694,-0.66136 -0.31264,-0.28859 -0.85375,-0.28859 -0.67339,0 -1.10628,0.46897 -0.42086,0.45693 -0.42086,1.17842 0,0.76958 0.45694,1.23854 0.45694,0.46896 1.15437,0.46896 0.32467,0 0.62528,-0.10822 0.30062,-0.12025 0.56516,-0.31264 l 0.55314,0.90185 q -0.38479,0.25252 -0.85375,0.40884 -0.45694,0.1443 -0.91388,0.1443 z"
         id="path8179" /><path
         d="m 683.10402,126.19212 h 1.22652 v 2.21254 h 1.34677 v 0.94995 h -1.34677 v 4.06435 h -1.22652 v -4.06435 h -0.88983 v -0.94995 h 0.88983 z"
         id="path8181" /><path
         d="m 688.46703,133.52718 q -0.55314,0 -1.05818,-0.19239 -0.50503,-0.20442 -0.85375,-0.57719 l 0.51706,-0.69743 q 0.31265,0.30062 0.64934,0.45694 0.34871,0.15632 0.64933,0.15632 0.34872,0 0.61326,-0.13227 0.26454,-0.1443 0.26454,-0.46897 0,-0.26454 -0.18037,-0.40884 -0.16834,-0.14429 -0.43289,-0.24049 -0.26454,-0.0962 -0.56516,-0.18037 -0.62528,-0.20442 -0.96197,-0.57719 -0.32467,-0.38479 -0.32467,-0.90185 0,-0.39681 0.1924,-0.74553 0.20442,-0.36074 0.61325,-0.57719 0.40884,-0.22846 1.01008,-0.22846 0.52909,0 0.94995,0.13227 0.42087,0.12024 0.78161,0.42086 l -0.46897,0.73351 q -0.21644,-0.21645 -0.51706,-0.32467 -0.28859,-0.12025 -0.52909,-0.13227 -0.32466,0 -0.56516,0.15632 -0.24049,0.1443 -0.24049,0.39682 0,0.25251 0.16835,0.40884 0.16834,0.14429 0.43288,0.24049 0.27657,0.0842 0.55314,0.18037 0.55314,0.18037 0.91388,0.49301 0.37276,0.31265 0.37276,0.91388 0,0.45694 -0.21644,0.84173 -0.21645,0.38479 -0.66136,0.62528 -0.43289,0.22847 -1.10627,0.22847 z"
         id="path8183" /><path
         d="m 691.41308,132.74558 q 0,-0.2886 0.20442,-0.48099 0.21644,-0.20442 0.46896,-0.20442 0.2405,0 0.44492,0.20442 0.20442,0.19239 0.20442,0.48099 0,0.30061 -0.20442,0.49301 -0.20442,0.18037 -0.44492,0.18037 -0.25252,0 -0.46896,-0.18037 -0.20442,-0.1924 -0.20442,-0.49301 z"
         id="path8185" /></g><rect
       style="fill:#020617;fill-opacity:1;stroke-width:5.43602"
       id="rect1255-5"
       width="637.14001"
       height="639.21954"
       x="224.25246"
       y="-108.39971"
       ry="0"
       clip-path="none" /></g><style
     id="style3810"><![CDATA[.B{fill:#fff}.C{fill:#3db9ff}.D{filter:url(#G)}.E{opacity:1}.F{opacity:.671}.G{fill:#6eabea}.H{opacity:.392}.I{stroke:#6eabea}.J{font-weight:400}.K{filter:url(#H)}.L{opacity:.216}.M{color-interpolation-filters:sRGB}.N{font-family:Gill Sans MT}.O{fill-opacity:.314}.P{clip-path:url(#B)}.Q{font-size:11.686px}.R{fill:none}.S{stroke:none}.T{stroke-width:2.046}.U{opacity:.264}.V{stroke-width:1.371}.W{stroke-width:1.435}.X{stroke-width:1.358}.Y{stroke-width:.967}.Z{fill-rule:evenodd}.a{fill-opacity:.702}]]></style><style
     type="text/css"
     id="style581">
<![CDATA[
	.st0{fill:#000000;}
]]>
</style><style
     type="text/css"
     id="style598">
<![CDATA[
	.st0{fill:#000000;}
]]>
</style></svg>
