<?xml version="1.0" encoding="UTF-8" standalone="no"?>
<!-- Created with Inkscape (http://www.inkscape.org/) -->

<svg
   version="1.1"
   id="svg1"
   width="637.14001"
   height="604.73969"
   viewBox="0 0 637.14001 604.73969"
   sodipodi:docname="orange.svg"
   inkscape:version="1.2.2 (732a01da63, 2022-12-09)"
   xml:space="preserve"
   xmlns:inkscape="http://www.inkscape.org/namespaces/inkscape"
   xmlns:sodipodi="http://sodipodi.sourceforge.net/DTD/sodipodi-0.dtd"
   xmlns:xlink="http://www.w3.org/1999/xlink"
   xmlns="http://www.w3.org/2000/svg"
   xmlns:svg="http://www.w3.org/2000/svg"><defs
     id="defs1"><clipPath
   clipPathUnits="userSpaceOnUse"
   id="clipPath3208"><rect
     style="display:inline;fill:#ffffff;stroke-width:0.132512"
     id="rect3210"
     width="587.26074"
     height="829.177"
     x="-718.21417"
     y="-827.59259" /></clipPath><clipPath
   clipPathUnits="userSpaceOnUse"
   id="clipPath63678"><rect
     style="display:inline;fill:#ffffff;stroke-width:0.132512"
     id="rect63676"
     width="587.26074"
     height="829.177"
     x="-718.21417"
     y="-827.59259" /></clipPath><clipPath
   clipPathUnits="userSpaceOnUse"
   id="clipPath63777"><rect
     style="display:inline;fill:#ffffff;stroke-width:0.132512"
     id="rect63775"
     width="587.26074"
     height="829.177"
     x="-718.21417"
     y="-827.59259" /></clipPath><clipPath
   clipPathUnits="userSpaceOnUse"
   id="clipPath63781"><rect
     style="display:inline;fill:#ffffff;stroke-width:0.132512"
     id="rect63779"
     width="587.26074"
     height="829.177"
     x="-718.21417"
     y="-827.59259" /></clipPath><clipPath
   clipPathUnits="userSpaceOnUse"
   id="clipPath63785"><rect
     style="display:inline;fill:#ffffff;stroke-width:0.132512"
     id="rect63783"
     width="587.26074"
     height="829.177"
     x="-718.21417"
     y="-827.59259" /></clipPath><clipPath
   clipPathUnits="userSpaceOnUse"
   id="clipPath63789"><rect
     style="display:inline;fill:#ffffff;stroke-width:0.132512"
     id="rect63787"
     width="587.26074"
     height="829.177"
     x="-718.21417"
     y="-827.59259" /></clipPath><clipPath
   clipPathUnits="userSpaceOnUse"
   id="clipPath63793"><rect
     style="display:inline;fill:#ffffff;stroke-width:0.132512"
     id="rect63791"
     width="587.26074"
     height="829.177"
     x="-718.21417"
     y="-827.59259" /></clipPath><clipPath
   clipPathUnits="userSpaceOnUse"
   id="clipPath63797"><rect
     style="display:inline;fill:#ffffff;stroke-width:0.132512"
     id="rect63795"
     width="587.26074"
     height="829.177"
     x="-718.21417"
     y="-827.59259" /></clipPath><clipPath
   clipPathUnits="userSpaceOnUse"
   id="clipPath63803"><rect
     style="display:inline;fill:#ffffff;stroke-width:0.132512"
     id="rect63801"
     width="587.26074"
     height="829.177"
     x="-718.21417"
     y="-827.59259" /></clipPath><clipPath
   clipPathUnits="userSpaceOnUse"
   id="clipPath63809"><rect
     style="display:inline;fill:#ffffff;stroke-width:0.132512"
     id="rect63807"
     width="587.26074"
     height="829.177"
     x="-718.21417"
     y="-827.59259" /></clipPath><linearGradient
   id="A"
   gradientUnits="userSpaceOnUse"><stop
     offset="0"
     stop-color="#a9abc3"
     id="stop3812" /><stop
     offset="1"
     stop-color="#a9abc3"
     stop-opacity="0"
     id="stop3814" /></linearGradient><clipPath
   id="B"><path
     d="M-718.214-827.593h587.261V1.584h-587.261z"
     stroke-width=".133"
     class="B"
     id="path3817" /></clipPath><filter
   id="C"
   x="-0.5201997"
   y="-0.41838329"
   width="2.0403994"
   height="1.8367666"
   class="M"><feGaussianBlur
     stdDeviation="20.277"
     id="feGaussianBlur3820" /></filter><filter
   id="D"
   x="-0.091497011"
   y="-0.44648707"
   width="1.182994"
   height="1.8929741"
   class="M"><feGaussianBlur
     stdDeviation="64.741"
     id="feGaussianBlur3823" /></filter><filter
   id="E"
   x="-0.097588911"
   y="-2.8056791"
   width="1.1951778"
   height="6.6113581"
   class="M"><feGaussianBlur
     stdDeviation="67.438"
     id="feGaussianBlur3826" /></filter><filter
   id="F"
   x="-0.19985164"
   y="-0.97285076"
   width="1.3997033"
   height="2.9457015"
   class="M"><feGaussianBlur
     stdDeviation="77.46"
     id="feGaussianBlur3829" /></filter><filter
   id="G"
   x="-1.2"
   y="-1.2"
   width="3.4"
   height="3.4"
   class="M"><feGaussianBlur
     stdDeviation="5.736"
     id="feGaussianBlur3832" /></filter><filter
   id="H"
   x="-0.57647374"
   y="-1.6838783"
   width="2.1529475"
   height="4.3677567"
   class="M"><feGaussianBlur
     stdDeviation="96.127"
     id="feGaussianBlur3835" /></filter><filter
   id="I"
   x="-0.28464955"
   y="-0.12700434"
   width="1.5692991"
   height="1.2540087"
   class="M"><feGaussianBlur
     stdDeviation="44.977"
     id="feGaussianBlur3838" /></filter><filter
   id="J"
   x="-0.050294093"
   y="-0.16300095"
   width="1.1005882"
   height="1.3260019"
   class="M"><feGaussianBlur
     stdDeviation="32.994"
     id="feGaussianBlur3841" /></filter><filter
   id="K"
   x="-0.0049741663"
   y="-0.0088587071"
   width="1.0099483"
   height="1.0177174"
   class="M"><feGaussianBlur
     stdDeviation=".967"
     id="feGaussianBlur3844" /></filter><linearGradient
   xlink:href="#A"
   x1="378.027"
   y1="-41.048"
   x2="298.027"
   y2="-134.048"
   id="linearGradient3847" /><path
   id="N"
   d="M-444.028 309.022h46.199v2.567h-46.199z" /><path
   id="O"
   d="M315.582 176.163l-1.42-.948-1.587.632.463-1.644-1.092-1.313 1.707-.068.912-1.444.592 1.602 1.655.421-1.341 1.058z" /><path
   id="P"
   d="M749.94 645.38l389.39 97.347 140.61-75.715 356.94 169.46-930.21-39.66z" /><filter
   inkscape:collect="always"
   style="color-interpolation-filters:sRGB"
   id="filter8912"
   x="-0.084861052"
   y="-0.28145018"
   width="1.1697221"
   height="1.5633825"><feGaussianBlur
     inkscape:collect="always"
     stdDeviation="364.16265"
     id="feGaussianBlur8914" /></filter>
   
   
  <filter
   inkscape:collect="always"
   style="color-interpolation-filters:sRGB"
   id="filter3803"
   x="-0.22144335"
   y="-0.22143293"
   width="1.4428867"
   height="1.4428659"><feGaussianBlur
     inkscape:collect="always"
     stdDeviation="47.239782"
     id="feGaussianBlur3805" /></filter><filter
   inkscape:collect="always"
   style="color-interpolation-filters:sRGB"
   id="filter8071"
   x="-0.1353464"
   y="-0.93538368"
   width="1.2706928"
   height="2.8707674"><feGaussianBlur
     inkscape:collect="always"
     stdDeviation="16.357296"
     id="feGaussianBlur8073" /></filter><filter
   inkscape:collect="always"
   style="color-interpolation-filters:sRGB"
   id="filter5848-4"
   x="-0.0054787526"
   y="-0.14407721"
   width="1.0109575"
   height="1.2881544"><feGaussianBlur
     inkscape:collect="always"
     stdDeviation="1.0908377"
     id="feGaussianBlur5850-9" /></filter><filter
   inkscape:collect="always"
   style="color-interpolation-filters:sRGB"
   id="filter19831-3"
   x="-0.051758728"
   y="-0.25813601"
   width="1.1035175"
   height="1.516272"><feGaussianBlur
     inkscape:collect="always"
     stdDeviation="0.74707586"
     id="feGaussianBlur19833-5" /></filter><filter
   inkscape:collect="always"
   style="color-interpolation-filters:sRGB"
   id="filter17501-0"
   x="-0.16973718"
   y="-0.16972919"
   width="1.3394744"
   height="1.3394584"><feGaussianBlur
     inkscape:collect="always"
     stdDeviation="36.209471"
     id="feGaussianBlur17499-9" /></filter></defs><sodipodi:namedview
     id="namedview1"
     pagecolor="#ffffff"
     bordercolor="#cccccc"
     borderopacity="1"
     inkscape:showpageshadow="0"
     inkscape:pageopacity="1"
     inkscape:pagecheckerboard="0"
     inkscape:deskcolor="#d1d1d1"
     showgrid="false"
     inkscape:zoom="0.65625002"
     inkscape:cx="92.952378"
     inkscape:cy="319.99999"
     inkscape:window-width="1366"
     inkscape:window-height="705"
     inkscape:window-x="-8"
     inkscape:window-y="-8"
     inkscape:window-maximized="1"
     inkscape:current-layer="g1"
     showguides="true" /><g
     inkscape:groupmode="layer"
     inkscape:label="Image"
     id="g1"
     transform="translate(-225.32996,107.32223)"><rect
       style="opacity:0.670989;fill:#25262c;fill-opacity:0;stroke-width:2.98019;stroke-opacity:0.992157"
       id="rect3381"
       width="636.49786"
       height="420.04538"
       x="225.65103"
       y="-14.975078"
       ry="3.3874679"
       clip-path="none" /><g
       aria-label="ظ"
       transform="matrix(3.2818365,0,0,3.2818365,1492.9355,566.14797)"
       id="text3455"
       clip-path="url(#clipPath3208)"
       style="font-size:11.6858px;font-family:'Gill Sans MT';-inkscape-font-specification:'Gill Sans MT';text-align:justify;opacity:0.670989;fill:#6eabea;stroke:#6eabea;stroke-width:0" /><g
       aria-label="م"
       transform="matrix(5.605559,0,0,5.605559,2115.9674,1146.7397)"
       id="text3459"
       clip-path="url(#clipPath3208)"
       style="font-size:11.6858px;font-family:'Gill Sans MT';-inkscape-font-specification:'Gill Sans MT';text-align:justify;opacity:0.670989;fill:#6eabea;stroke:#6eabea;stroke-width:0" /><g
       aria-label="ف"
       transform="matrix(3.2818365,0,0,3.2818365,1165.3436,860.08001)"
       id="text3465"
       clip-path="url(#clipPath3208)"
       style="font-size:11.6858px;font-family:'Gill Sans MT';-inkscape-font-specification:'Gill Sans MT';text-align:justify;opacity:0.670989;fill:#6eabea;stroke:#6eabea;stroke-width:0" /><g
       aria-label="ه"
       transform="matrix(3.2818365,0,0,3.2818365,1547.822,839.69891)"
       id="text3469"
       clip-path="url(#clipPath3208)"
       style="font-size:11.6858px;font-family:'Gill Sans MT';-inkscape-font-specification:'Gill Sans MT';text-align:justify;opacity:0.670989;fill:#6eabea;stroke:#6eabea;stroke-width:0" /><g
       aria-label="ل"
       transform="matrix(1.8021474,0,0,1.8021474,1091.5533,644.26851)"
       id="text3473"
       clip-path="url(#clipPath3208)"
       style="font-size:11.6858px;font-family:'Gill Sans MT';-inkscape-font-specification:'Gill Sans MT';text-align:justify;opacity:0.670989;fill:#6eabea;stroke:#6eabea;stroke-width:0" /><g
       aria-label=" ن"
       id="text3547"
       style="font-size:24.1548px;opacity:0.670989;fill:#6eabea;stroke-width:1.15343" /><g
       aria-label="ه"
       id="text3551"
       style="font-size:13.8412px;opacity:0.670989;fill:#6eabea;stroke-width:1.15343" /><g
       aria-label="ك"
       id="text3555"
       style="font-size:36.9759px;opacity:0.670989;fill:#6eabea;stroke-width:1.15343" /><g
       aria-label="ض"
       id="text3561"
       style="font-size:34.7325px;font-family:'Gill Sans MT';-inkscape-font-specification:'Gill Sans MT';opacity:0.670989;fill:#6eabea;stroke-width:49.9694" /><path
       class="fil0 str0"
       d="m 612.00465,143.27125 h 10.30117 c 1.25953,0 2.29414,0.89967 2.29414,1.97926 v 0.31489 c 0,1.12458 -1.03461,2.02424 -2.29414,2.02424 h -10.30117 c -1.25953,0 -2.29415,-0.89966 -2.29415,-2.02424 v -0.31489 c 0,-1.07959 1.03462,-1.97926 2.29415,-1.97926 z m 27.52976,0.09 h 10.34615 c 1.25953,0 2.29415,0.89966 2.29415,1.97926 v 0.31488 c 0,1.0796 -1.03462,1.97927 -2.29415,1.97927 h -10.34615 c -1.25953,0 -2.29415,-0.89967 -2.29415,-1.97927 v -0.31488 c 0,-1.0796 1.03462,-1.97926 2.29415,-1.97926 z m 117.00148,3.37374 c 0,-1.3495 1.8893,-2.47408 4.22843,-2.47408 2.33913,0 4.22843,1.12458 4.22843,2.47408 0,1.39448 -1.8893,2.51907 -4.22843,2.51907 -2.33913,0 -4.22843,-1.12459 -4.22843,-2.51907 z m -252.53607,24.56087 -0.13495,9.9413 c -0.35987,2.29415 -1.70937,3.59866 -4.00351,4.00351 l -18.26321,-0.22491 c -2.20418,-0.045 -2.4291,-0.49482 -4.00351,-2.38412 -1.43947,-1.57441 -2.51907,-2.96889 -2.51907,-2.96889 l -0.13495,-11.15586 1.16957,-0.045 c 1.3495,2.33913 3.05886,4.0485 5.17308,5.12809 0.13495,5.1281 2.87892,8.36689 8.23193,9.71639 2.06923,-0.31488 2.1592,-1.12458 0.2699,-2.4291 -3.41872,-2.11421 -4.99314,-4.54331 -4.63327,-7.28729 0.13495,-2.11421 1.03461,-3.23879 2.69899,-3.32876 1.70937,0.045 2.78897,-0.62976 3.28378,-2.02424 l 11.15585,0.22491 c 1.21455,0.35987 1.75435,1.0796 1.70937,2.83395 z m 217.40414,-11.5607 h 29.14916 v 2.24916 h -29.14916 z m -25.05568,-10.79599 v 0.2699 c 0,0.94465 -1.79933,1.75435 -3.95853,1.75435 h -17.85836 c -2.20418,0 -3.95852,-0.8097 -3.95852,-1.75435 v -0.2699 c 0,-0.94465 1.75434,-1.70936 3.95852,-1.70936 h 17.85836 c 2.1592,0 3.95853,0.76471 3.95853,1.70936 z m -21.72692,9.35652 h 17.85836 c 2.20418,0 4.00351,0.8097 4.00351,1.75435 v 0.2699 c 0,0.94465 -1.79933,1.70936 -4.00351,1.70936 h -17.85836 c -2.1592,0 -3.95853,-0.76471 -3.95853,-1.70936 v -0.2699 c 0,-0.94465 1.79933,-1.75435 3.95853,-1.75435 z"
       id="path8282"
       style="clip-rule:evenodd;mix-blend-mode:normal;fill:#e65d02;fill-opacity:1;fill-rule:evenodd;stroke:none;stroke-width:0.312403;filter:url(#filter8071);image-rendering:optimizeQuality;shape-rendering:geometricPrecision;text-rendering:geometricPrecision"
       transform="matrix(0.47842367,0,0,0.47842367,-524.17847,139.18561)"
       sodipodi:insensitive="true" /><text
       xml:space="preserve"
       style="font-size:18.4476px;font-family:'Reem Kufi Fun';-inkscape-font-specification:'Reem Kufi Fun';fill:#ff6803;fill-opacity:1;stroke-width:11.9079;filter:url(#filter5848-4)"
       x="332.43744"
       y="-168.87865"
       id="text20365"
       transform="matrix(0.47842367,0,0,0.47842367,237.84716,198.62872)"><tspan
         sodipodi:role="line"
         id="tspan20363"
         x="332.43744"
         y="-168.87865"
         style="fill:#ff6803;fill-opacity:1;stroke-width:11.9079">The Occupiers Only Understand the language of the bullets.</tspan></text><text
       xml:space="preserve"
       style="font-size:8.82577px;font-family:'Reem Kufi Fun';-inkscape-font-specification:'Reem Kufi Fun';fill:#020617;fill-opacity:1;stroke-width:5.69702"
       x="396.89307"
       y="117.83318"
       id="text20369"><tspan
         sodipodi:role="line"
         id="tspan20367"
         x="396.89307"
         y="117.83318"
         style="fill:#020617;fill-opacity:1;stroke-width:5.69702">The Occupiers Only Understand the language of the bullets.</tspan></text><text
       xml:space="preserve"
       style="font-size:8.82577px;font-family:'Reem Kufi Fun';-inkscape-font-specification:'Reem Kufi Fun';fill:#ff6803;fill-opacity:1;stroke-width:5.69702;filter:url(#filter19831-3)"
       x="660.21704"
       y="119.64974"
       id="text20375"><tspan
         sodipodi:role="line"
         id="tspan20373"
         x="660.21704"
         y="119.64974"
         style="fill:#ff6803;fill-opacity:1;stroke-width:5.69702">Philistine</tspan></text><text
       xml:space="preserve"
       style="font-size:8.82577px;font-family:'Reem Kufi Fun';-inkscape-font-specification:'Reem Kufi Fun';fill:#020617;fill-opacity:1;stroke-width:5.69702"
       x="660.21704"
       y="119.64974"
       id="text20379"><tspan
         sodipodi:role="line"
         id="tspan20377"
         x="660.21704"
         y="119.64974"
         style="fill:#020617;fill-opacity:1;stroke-width:5.69702">Philistine</tspan></text><g
       id="g20387"
       transform="matrix(0.01641531,0.00681793,-0.01645707,0.00680063,643.26952,111.83589)"
       style="fill:#ff6803;fill-opacity:1;filter:url(#filter17501-0)">
	<path
   class="st0"
   d="M 509.915,2.067 C 498.446,-9.417 371.29,29.161 331.086,60.974 L 451.04,180.927 c 31.813,-40.219 70.375,-167.36 58.875,-178.86 z"
   id="path20383"
   style="fill:#ff6803;fill-opacity:1" />
	<path
   class="st0"
   d="m 268.743,122.677 -41.344,10.328 -185.188,185.203 12.047,12.063 -16.359,16.344 -12.063,-12.047 -25.828,25.828 151.594,151.608 25.844,-25.844 -12.063,-12.063 16.359,-16.359 12.063,12.047 185.188,-185.171 10.344,-41.359 c 0,0 18.703,-18.719 48.25,-48.234 L 316.993,74.442 c -29.532,29.5 -48.25,48.235 -48.25,48.235 z"
   id="path20385"
   style="fill:#ff6803;fill-opacity:1" />
</g><g
       id="g20393"
       transform="matrix(0.01531641,0.00681793,-0.01535538,0.00680063,642.97811,111.83701)"
       style="fill:#020617;fill-opacity:1">
	<path
   class="st0"
   d="M 509.915,2.067 C 498.446,-9.417 371.29,29.161 331.086,60.974 L 451.04,180.927 c 31.813,-40.219 70.375,-167.36 58.875,-178.86 z"
   id="path20389"
   style="fill:#020617;fill-opacity:1" />
	<path
   class="st0"
   d="m 268.743,122.677 -41.344,10.328 -185.188,185.203 12.047,12.063 -16.359,16.344 -12.063,-12.047 -25.828,25.828 151.594,151.608 25.844,-25.844 -12.063,-12.063 16.359,-16.359 12.063,12.047 185.188,-185.171 10.344,-41.359 c 0,0 18.703,-18.719 48.25,-48.234 L 316.993,74.442 c -29.532,29.5 -48.25,48.235 -48.25,48.235 z"
   id="path20391"
   style="fill:#020617;fill-opacity:1" />
</g><g
       id="g8910"
       style="clip-rule:evenodd;mix-blend-mode:normal;fill:#ff6803;fill-opacity:1;fill-rule:evenodd;filter:url(#filter8912);image-rendering:optimizeQuality;shape-rendering:geometricPrecision;text-rendering:geometricPrecision"
       transform="matrix(0.02152106,0,0,0.02152106,428.92304,82.494285)">
   <path
   class="fil0 str0"
   d="m 5539,4067 c 0,0 415,7 1219,25 98,2 162,33 191,92 l 790,23 c 138,4 98,4 187,126 89,121 180,188 273,202 l 624,8 c 58,-129 114,-232 169,-309 l -3,-122 c 1,-46 22,-68 63,-66 l 154,2 c 31,-1 47,11 49,36 v 403 c 27,7 48,29 62,66 l 64,1 c 33,0 39,17 39,29 v 164 c 0,12 -9,28 -37,28 l -114,1 c -35,68 -79,97 -131,86 -108,-15 -201,-25 -278,-30 l -1862,-10 c -76,-3 -135,4 -177,22 l -582,-2 c -350,-76 -639,-60 -869,47 -121,95 -222,91 -301,-14 0,0 -227,-2 -673,4 24,575 349,1085 967,1520 l -443,660 C 4168,6513 3733,5845 3615,5052 c -16,-4 -23,3 -23,18 6,86 -3,138 -26,156 -18,16 -37,51 -36,99 -1,67 -20,88 -62,78 l -1,-114 c 3,-40 -18,-51 -63,-34 l -30,51 c -23,33 -49,47 -77,45 l -432,-6 c -39,5 -71,-7 -97,-35 7,10 -15,-11 -64,-65 -84,9 -236,188 -456,539 -29,45 -26,32 -25,83 3,97 -23,179 -136,179 -183,2 -280,32 -410,-130 -59,-67 -57,-141 6,-223 l 331,-494 c 54,-83 58,-152 12,-208 -64,-51 -169,-51 -313,-1 l -2401,855 c -150,40 -227,35 -232,-13 l 3,-1172 c 6,-92 66,-139 180,-143 l 1601,-84 c 100,-7 173,8 218,44 92,49 179,58 261,27 227,-67 414,-107 559,-121 l 37,-52 c -20,-19 -23,-37 -8,-55 16,-22 46,-36 90,-43 12,-13 146,-152 193,-161 l 2492,28 c 20,-2 21,-12 4,-32 -31,-34 -25,-118 12,-125 30,-3 48,14 52,52 h 51 c 7,-41 24,-59 53,-52 30,2 47,19 53,50 l 293,2 c 33,-61 69,-62 110,-2 l 131,-1 c 46,-1 65,10 74,75 z"
   id="path8906"
   style="fill:#ff6803;fill-opacity:1;stroke:#373435;stroke-width:6.94488" />
   <path
   class="fil0 str0"
   d="m 5764,4350 h 229 c 28,0 51,20 51,44 v 7 c 0,25 -23,45 -51,45 h -229 c -28,0 -51,-20 -51,-45 v -7 c 0,-24 23,-44 51,-44 z m 612,2 h 230 c 28,0 51,20 51,44 v 7 c 0,24 -23,44 -51,44 h -230 c -28,0 -51,-20 -51,-44 v -7 c 0,-24 23,-44 51,-44 z m 2601,75 c 0,-30 42,-55 94,-55 52,0 94,25 94,55 0,31 -42,56 -94,56 -52,0 -94,-25 -94,-56 z m -5614,546 -3,221 c -8,51 -38,80 -89,89 l -406,-5 c -49,-1 -54,-11 -89,-53 -32,-35 -56,-66 -56,-66 l -3,-248 26,-1 c 30,52 68,90 115,114 3,114 64,186 183,216 46,-7 48,-25 6,-54 -76,-47 -111,-101 -103,-162 3,-47 23,-72 60,-74 38,1 62,-14 73,-45 l 248,5 c 27,8 39,24 38,63 z m 4833,-257 h 648 v 50 h -648 z m -557,-240 v 6 c 0,21 -40,39 -88,39 h -397 c -49,0 -88,-18 -88,-39 v -6 c 0,-21 39,-38 88,-38 h 397 c 48,0 88,17 88,38 z m -483,208 h 397 c 49,0 89,18 89,39 v 6 c 0,21 -40,38 -89,38 h -397 c -48,0 -88,-17 -88,-38 v -6 c 0,-21 40,-39 88,-39 z"
   id="path8908"
   style="fill:#ff6803;fill-opacity:1;stroke:#373435;stroke-width:6.94488" />
  </g><path
       class="fil0 str0"
       d="m 548.1282,170.02046 c 0,0 8.93124,0.15065 26.23418,0.53803 2.10906,0.043 3.48641,0.71019 4.11052,1.97993 l 17.00164,0.49498 c 2.9699,0.0861 2.10906,0.0861 4.02443,2.71166 1.91538,2.60405 3.8738,4.04596 5.87525,4.34726 l 13.42915,0.17216 c 1.24822,-2.77621 2.45339,-4.99289 3.63705,-6.65001 l -0.0646,-2.62557 c 0.0215,-0.98996 0.47347,-1.46343 1.35583,-1.42038 l 3.31424,0.043 c 0.66715,-0.0215 1.01149,0.23674 1.05453,0.77476 v 8.67299 c 0.58107,0.15065 1.03301,0.62411 1.33431,1.42039 l 1.37735,0.0215 c 0.71019,0 0.83932,0.36585 0.83932,0.62411 v 3.52945 c 0,0.25826 -0.19369,0.60259 -0.79628,0.60259 l -2.4534,0.0215 c -0.75324,1.46344 -1.70017,2.08755 -2.81926,1.85081 -2.32427,-0.32281 -4.32574,-0.53802 -5.98286,-0.64563 l -40.07221,-0.21524 c -1.6356,-0.0646 -2.90534,0.0861 -3.80923,0.47346 l -12.52526,-0.043 c -7.53237,-1.63561 -13.75196,-1.29127 -18.7018,1.01148 -2.60405,2.0445 -4.77768,1.95842 -6.47784,-0.30129 0,0 -4.88528,-0.0431 -14.48367,0.0861 0.5165,12.37461 7.51085,23.35036 20.81087,32.71202 l -9.53383,14.2039 c -16.18384,-11.7505 -25.5455,-26.12657 -28.08499,-43.19277 -0.34434,-0.0861 -0.49498,0.0646 -0.49498,0.38737 0.12912,1.85082 -0.0646,2.96992 -0.55955,3.3573 -0.38738,0.34433 -0.79628,1.09757 -0.77476,2.13058 -0.0215,1.44191 -0.43042,1.89385 -1.33431,1.67864 l -0.0215,-2.4534 c 0.0646,-0.86084 -0.38738,-1.09758 -1.35582,-0.73172 l -0.64564,1.09758 c -0.49498,0.71019 -1.05453,1.01149 -1.65712,0.96844 l -9.2971,-0.12912 c -0.83932,0.1076 -1.52799,-0.15065 -2.08754,-0.75324 0.15065,0.21521 -0.32282,-0.23673 -1.37735,-1.39887 -1.80776,0.19369 -5.07897,4.04596 -9.8136,11.59985 -0.62411,0.96845 -0.55955,0.68868 -0.53803,1.78625 0.0646,2.08755 -0.49498,3.85227 -2.92686,3.85227 -3.93835,0.0431 -6.0259,0.68868 -8.82364,-2.79774 -1.26974,-1.44191 -1.2267,-3.03446 0.12913,-4.79919 l 7.12347,-10.6314 c 1.16214,-1.78625 1.24822,-3.27121 0.25826,-4.47639 -1.37735,-1.09757 -3.63707,-1.09757 -6.7361,-0.0215 l -51.67207,18.40051 c -3.22816,0.86084 -4.88528,0.75323 -4.99288,-0.27978 l 0.0646,-25.22268 c 0.12913,-1.97994 1.42039,-2.99143 3.87379,-3.07751 l 34.45522,-1.80777 c 2.15211,-0.15065 3.72314,0.17217 4.69159,0.94693 1.97994,1.05453 3.85227,1.24822 5.617,0.58106 4.88528,-1.44191 8.90972,-2.30275 12.03027,-2.60405 l 0.79628,-1.11909 c -0.43042,-0.4089 -0.49498,-0.79628 -0.17217,-1.18366 0.34434,-0.47346 0.98997,-0.77476 1.9369,-0.9254 0.25825,-0.27978 3.14208,-3.27121 4.15356,-3.4649 l 53.63049,0.60259 c 0.43042,-0.0431 0.45194,-0.25825 0.0861,-0.68867 -0.66715,-0.73172 -0.53802,-2.53949 0.25825,-2.69013 0.64564,-0.0646 1.03302,0.30129 1.1191,1.11909 h 1.09758 c 0.15064,-0.88236 0.5165,-1.26974 1.14061,-1.11909 0.64563,0.043 1.01149,0.4089 1.14061,1.07605 l 6.30568,0.0431 c 0.71019,-1.31279 1.48495,-1.33431 2.36731,-0.0431 l 2.81926,-0.0215 c 0.98997,-0.0215 1.39887,0.21521 1.59256,1.61408 z"
       id="path708"
       style="clip-rule:evenodd;fill:#020617;fill-opacity:1;fill-rule:evenodd;stroke:#373435;stroke-width:0.149461;image-rendering:optimizeQuality;shape-rendering:geometricPrecision;text-rendering:geometricPrecision" /><path
       style="clip-rule:evenodd;fill:#ff6803;fill-opacity:1;fill-rule:evenodd;stroke:none;stroke-width:0.149461;image-rendering:optimizeQuality;shape-rendering:geometricPrecision;text-rendering:geometricPrecision"
       d="m 582.92776,183.299 h 8.54386 c 1.05453,0 1.91537,0.38738 1.91537,0.83933 v 0.12912 c 0,0.45195 -0.86084,0.8178 -1.91537,0.8178 h -8.54386 c -1.03302,0 -1.89386,-0.36585 -1.89386,-0.8178 v -0.12912 c 0,-0.45195 0.86084,-0.83933 1.89386,-0.83933 z"
       id="path1274" /><path
       style="clip-rule:evenodd;fill:#ff6803;fill-opacity:1;fill-rule:evenodd;stroke:none;stroke-width:0.149461;image-rendering:optimizeQuality;shape-rendering:geometricPrecision;text-rendering:geometricPrecision"
       d="m 593.32243,178.82262 v 0.12913 c 0,0.45194 -0.86084,0.83932 -1.89385,0.83932 h -8.54387 c -1.05453,0 -1.89385,-0.38738 -1.89385,-0.83932 v -0.12913 c 0,-0.45194 0.83932,-0.81779 1.89385,-0.81779 h 8.54387 c 1.03301,0 1.89385,0.36585 1.89385,0.81779 z"
       id="path1272" /><path
       style="clip-rule:evenodd;fill:#ff6803;fill-opacity:1;fill-rule:evenodd;stroke:none;stroke-width:0.149461;image-rendering:optimizeQuality;shape-rendering:geometricPrecision;text-rendering:geometricPrecision"
       d="m 605.30966,183.98768 h 13.94565 v 1.07605 h -13.94565 z"
       id="path1270" /><path
       style="clip-rule:evenodd;fill:#b04a0a;fill-opacity:1;fill-rule:evenodd;stroke:none;stroke-width:0.149461;image-rendering:optimizeQuality;shape-rendering:geometricPrecision;text-rendering:geometricPrecision"
       d="m 501.29837,189.51859 -0.0646,4.75616 c -0.17217,1.09757 -0.8178,1.72168 -1.91537,1.91537 l -8.73756,-0.1076 c -1.05453,-0.0215 -1.16213,-0.23673 -1.91537,-1.14062 -0.68868,-0.75324 -1.20518,-1.42039 -1.20518,-1.42039 l -0.0646,-5.33723 0.55955,-0.0215 c 0.64564,1.11909 1.46344,1.93689 2.47493,2.4534 0.0646,2.4534 1.37734,4.00291 3.93835,4.64855 0.98997,-0.15065 1.03301,-0.53803 0.12913,-1.16214 -1.6356,-1.01149 -2.38884,-2.17363 -2.21667,-3.48641 0.0646,-1.01149 0.49498,-1.54952 1.29126,-1.59256 0.8178,0.0215 1.33431,-0.30129 1.57104,-0.96845 l 5.33722,0.10761 c 0.58107,0.17217 0.83932,0.5165 0.8178,1.35582 z"
       id="path1268" /><path
       style="clip-rule:evenodd;fill:#ff6803;fill-opacity:1;fill-rule:evenodd;stroke:none;stroke-width:0.149461;image-rendering:optimizeQuality;shape-rendering:geometricPrecision;text-rendering:geometricPrecision"
       d="m 622.11761,177.76809 c 0,-0.64563 0.90388,-1.18366 2.02298,-1.18366 1.11909,0 2.02298,0.53803 2.02298,1.18366 0,0.66715 -0.90389,1.20519 -2.02298,1.20519 -1.1191,0 -2.02298,-0.53804 -2.02298,-1.20519 z"
       id="path1266" /><path
       style="clip-rule:evenodd;fill:#ff6803;fill-opacity:1;fill-rule:evenodd;stroke:none;stroke-width:0.149461;image-rendering:optimizeQuality;shape-rendering:geometricPrecision;text-rendering:geometricPrecision"
       d="m 566.14133,176.15402 h 4.94984 c 0.60259,0 1.09758,0.43041 1.09758,0.94692 v 0.15065 c 0,0.5165 -0.49499,0.94693 -1.09758,0.94693 h -4.94984 c -0.60259,0 -1.09758,-0.43043 -1.09758,-0.94693 v -0.15065 c 0,-0.51651 0.49499,-0.94692 1.09758,-0.94692 z"
       id="path1264" /><path
       style="clip-rule:evenodd;fill:#ff6803;fill-opacity:1;fill-rule:evenodd;stroke:none;stroke-width:0.149461;image-rendering:optimizeQuality;shape-rendering:geometricPrecision;text-rendering:geometricPrecision"
       d="m 552.97044,176.11092 h 4.92832 c 0.60259,0 1.09758,0.43042 1.09758,0.94692 v 0.15065 c 0,0.53803 -0.49499,0.96845 -1.09758,0.96845 h -4.92832 c -0.60259,0 -1.09757,-0.43042 -1.09757,-0.96845 v -0.15065 c 0,-0.5165 0.49498,-0.94692 1.09757,-0.94692 z"
       id="path710" /><g
       id="g4451"><g
         id="g1585"
         transform="matrix(0.01391814,0.01395355,-0.01395355,0.01391814,646.47472,176.14228)"
         style="fill:#ff6803;fill-opacity:1;filter:url(#filter3803)">
	<path
   class="st0"
   d="M 509.915,2.067 C 498.446,-9.417 371.29,29.161 331.086,60.974 L 451.04,180.927 c 31.813,-40.219 70.375,-167.36 58.875,-178.86 z"
   id="path1581"
   style="fill:#ff6803;fill-opacity:1" />
	<path
   class="st0"
   d="m 268.743,122.677 -41.344,10.328 -185.188,185.203 12.047,12.063 -16.359,16.344 -12.063,-12.047 -25.828,25.828 151.594,151.608 25.844,-25.844 -12.063,-12.063 16.359,-16.359 12.063,12.047 185.188,-185.171 10.344,-41.359 c 0,0 18.703,-18.719 48.25,-48.234 L 316.993,74.442 c -29.532,29.5 -48.25,48.235 -48.25,48.235 z"
   id="path1583"
   style="fill:#ff6803;fill-opacity:1" />
</g><g
         id="g587"
         transform="matrix(0.01391814,0.01395355,-0.01395355,0.01391814,646.03037,176.11406)"
         style="fill:#020617;fill-opacity:1">
	<path
   class="st0"
   d="M 509.915,2.067 C 498.446,-9.417 371.29,29.161 331.086,60.974 L 451.04,180.927 c 31.813,-40.219 70.375,-167.36 58.875,-178.86 z"
   id="path583"
   style="fill:#020617;fill-opacity:1" />
	<path
   class="st0"
   d="m 268.743,122.677 -41.344,10.328 -185.188,185.203 12.047,12.063 -16.359,16.344 -12.063,-12.047 -25.828,25.828 151.594,151.608 25.844,-25.844 -12.063,-12.063 16.359,-16.359 12.063,12.047 185.188,-185.171 10.344,-41.359 c 0,0 18.703,-18.719 48.25,-48.234 L 316.993,74.442 c -29.532,29.5 -48.25,48.235 -48.25,48.235 z"
   id="path585"
   style="fill:#020617;fill-opacity:1" />
</g><g
         id="g20316"
         transform="matrix(0.01391814,0.01395355,-0.01395355,0.01391814,663.57997,176.14228)"
         style="fill:#ff6803;fill-opacity:1;filter:url(#filter3803)">
	<path
   class="st0"
   d="M 509.915,2.067 C 498.446,-9.417 371.29,29.161 331.086,60.974 L 451.04,180.927 c 31.813,-40.219 70.375,-167.36 58.875,-178.86 z"
   id="path20312"
   style="fill:#ff6803;fill-opacity:1" />
	<path
   class="st0"
   d="m 268.743,122.677 -41.344,10.328 -185.188,185.203 12.047,12.063 -16.359,16.344 -12.063,-12.047 -25.828,25.828 151.594,151.608 25.844,-25.844 -12.063,-12.063 16.359,-16.359 12.063,12.047 185.188,-185.171 10.344,-41.359 c 0,0 18.703,-18.719 48.25,-48.234 L 316.993,74.442 c -29.532,29.5 -48.25,48.235 -48.25,48.235 z"
   id="path20314"
   style="fill:#ff6803;fill-opacity:1" />
</g><g
         id="g20322"
         transform="matrix(0.01391814,0.01395355,-0.01395355,0.01391814,663.13562,176.11406)"
         style="fill:#020617;fill-opacity:1">
	<path
   class="st0"
   d="M 509.915,2.067 C 498.446,-9.417 371.29,29.161 331.086,60.974 L 451.04,180.927 c 31.813,-40.219 70.375,-167.36 58.875,-178.86 z"
   id="path20318"
   style="fill:#020617;fill-opacity:1" />
	<path
   class="st0"
   d="m 268.743,122.677 -41.344,10.328 -185.188,185.203 12.047,12.063 -16.359,16.344 -12.063,-12.047 -25.828,25.828 151.594,151.608 25.844,-25.844 -12.063,-12.063 16.359,-16.359 12.063,12.047 185.188,-185.171 10.344,-41.359 c 0,0 18.703,-18.719 48.25,-48.234 L 316.993,74.442 c -29.532,29.5 -48.25,48.235 -48.25,48.235 z"
   id="path20320"
   style="fill:#020617;fill-opacity:1" />
</g><g
         id="g20330"
         transform="matrix(0.01391814,0.01395355,-0.01395355,0.01391814,680.68522,176.14228)"
         style="fill:#ff6803;fill-opacity:1;filter:url(#filter3803)">
	<path
   class="st0"
   d="M 509.915,2.067 C 498.446,-9.417 371.29,29.161 331.086,60.974 L 451.04,180.927 c 31.813,-40.219 70.375,-167.36 58.875,-178.86 z"
   id="path20326"
   style="fill:#ff6803;fill-opacity:1" />
	<path
   class="st0"
   d="m 268.743,122.677 -41.344,10.328 -185.188,185.203 12.047,12.063 -16.359,16.344 -12.063,-12.047 -25.828,25.828 151.594,151.608 25.844,-25.844 -12.063,-12.063 16.359,-16.359 12.063,12.047 185.188,-185.171 10.344,-41.359 c 0,0 18.703,-18.719 48.25,-48.234 L 316.993,74.442 c -29.532,29.5 -48.25,48.235 -48.25,48.235 z"
   id="path20328"
   style="fill:#ff6803;fill-opacity:1" />
</g><g
         id="g20336"
         transform="matrix(0.01391814,0.01395355,-0.01395355,0.01391814,680.24087,176.11406)"
         style="fill:#020617;fill-opacity:1">
	<path
   class="st0"
   d="M 509.915,2.067 C 498.446,-9.417 371.29,29.161 331.086,60.974 L 451.04,180.927 c 31.813,-40.219 70.375,-167.36 58.875,-178.86 z"
   id="path20332"
   style="fill:#020617;fill-opacity:1" />
	<path
   class="st0"
   d="m 268.743,122.677 -41.344,10.328 -185.188,185.203 12.047,12.063 -16.359,16.344 -12.063,-12.047 -25.828,25.828 151.594,151.608 25.844,-25.844 -12.063,-12.063 16.359,-16.359 12.063,12.047 185.188,-185.171 10.344,-41.359 c 0,0 18.703,-18.719 48.25,-48.234 L 316.993,74.442 c -29.532,29.5 -48.25,48.235 -48.25,48.235 z"
   id="path20334"
   style="fill:#020617;fill-opacity:1" />
</g></g><g
       id="g23440"
       transform="translate(0,-15.474676)"
       style="fill:#b04a0a;fill-opacity:1"><rect
         style="fill:#b04a0a;fill-opacity:1;stroke-width:7.746"
         id="rect23431"
         width="191.59822"
         height="3.7983146"
         x="177.51869"
         y="189.57552" /><rect
         style="fill:#b04a0a;fill-opacity:1;stroke-width:7.746"
         id="rect23433"
         width="191.59822"
         height="3.7983146"
         x="177.51869"
         y="227.67075" /><rect
         style="fill:#b04a0a;fill-opacity:1;stroke-width:7.746"
         id="rect23435"
         width="191.59822"
         height="3.7983146"
         x="144.75679"
         y="208.62314" /></g><path
       style="clip-rule:evenodd;fill:#b04a0a;fill-opacity:1;fill-rule:evenodd;stroke:none;stroke-width:0.149461;image-rendering:optimizeQuality;shape-rendering:geometricPrecision;text-rendering:geometricPrecision"
       d="m 501.29837,189.51859 -0.0646,4.75616 c -0.17217,1.09757 -0.8178,1.72168 -1.91537,1.91537 l -8.73756,-0.1076 c -1.05453,-0.0215 -1.16213,-0.23673 -1.91537,-1.14062 -0.68868,-0.75324 -1.20518,-1.42039 -1.20518,-1.42039 l -0.0646,-5.33723 0.55955,-0.0215 c 0.64564,1.11909 1.46344,1.93689 2.47493,2.4534 0.0646,2.4534 1.37734,4.00291 3.93835,4.64855 0.98997,-0.15065 1.03301,-0.53803 0.12913,-1.16214 -1.6356,-1.01149 -2.38884,-2.17363 -2.21667,-3.48641 0.0646,-1.01149 0.49498,-1.54952 1.29126,-1.59256 0.8178,0.0215 1.33431,-0.30129 1.57104,-0.96845 l 5.33722,0.10761 c 0.58107,0.17217 0.83932,0.5165 0.8178,1.35582 z"
       id="path3288" /><rect
       style="fill:#020617;fill-opacity:1;stroke-width:5.29679"
       id="rect1255-5"
       width="637.14001"
       height="606.89465"
       x="224.25246"
       y="-108.39971"
       ry="0"
       clip-path="none" /></g><style
     id="style3810"><![CDATA[.B{fill:#fff}.C{fill:#3db9ff}.D{filter:url(#G)}.E{opacity:1}.F{opacity:.671}.G{fill:#6eabea}.H{opacity:.392}.I{stroke:#6eabea}.J{font-weight:400}.K{filter:url(#H)}.L{opacity:.216}.M{color-interpolation-filters:sRGB}.N{font-family:Gill Sans MT}.O{fill-opacity:.314}.P{clip-path:url(#B)}.Q{font-size:11.686px}.R{fill:none}.S{stroke:none}.T{stroke-width:2.046}.U{opacity:.264}.V{stroke-width:1.371}.W{stroke-width:1.435}.X{stroke-width:1.358}.Y{stroke-width:.967}.Z{fill-rule:evenodd}.a{fill-opacity:.702}]]></style><style
     type="text/css"
     id="style581">
<![CDATA[
	.st0{fill:#000000;}
]]>
</style><style
     type="text/css"
     id="style598">
<![CDATA[
	.st0{fill:#000000;}
]]>
</style></svg>
