<?xml version='1.0' encoding='utf-8'?>
<svg xmlns="http://www.w3.org/2000/svg" width="100%" height="100%" viewBox="0 0 6014 6014" version="1.1" style="fill-rule:evenodd;clip-rule:evenodd;stroke-linejoin:round;stroke-miterlimit:2;"> <g transform="matrix(1,0,0,1,-46604,-21940)"> <g id="Isolation-Mode"> </g> <g id="Layer-1"> </g> <g id="Layer-11"> </g> <g id="Layer-12"> </g> <g id="Layer-13"> </g> <g id="Artboard2" transform="matrix(1,0,0,1,21536.1,15352)"> <rect x="25067.9" y="6588.06" width="6013.73" height="6013.73" style="fill:none;"/> <clipPath id="_clip1"> <rect x="25067.9" y="6588.06" width="6013.73" height="6013.73"/> </clipPath> <g clip-path="url(#_clip1)"> <g transform="matrix(1,0,0,1,-732.711,-216.873)"> <rect x="25617.4" y="6730.44" width="6218.5" height="6162.35" style="fill:url(#_Radial2);"/> </g> <g transform="matrix(5.68265,0,0,4.26342,-244165,-103720)"> <path d="M48952,26870.9C49345.3,26885.9 49512.4,26712.2 49559.9,26676.9C49638.8,26618.3 49354.6,26729.7 49300,26734C49167.4,26744.6 49081.6,26782.6 48972.5,26705.1C48950.6,26689.6 48909.7,26696 48887.6,26676.9C48861,26654 48832,26636.1 48797.9,26633.8C48740.9,26629.8 48688.1,26652.4 48635.8,26674.7C48590.9,26693.7 48546.4,26712.8 48498.1,26705.1C48440.2,26695.7 48397.5,26661.9 48351.2,26634.2C48298.2,26602.5 48241.3,26577.5 48160,26591.5C48103.7,26601.2 48052,26627.8 47999.8,26652.2C47952.6,26674.4 47905.2,26695 47852.4,26694.9C47777.9,26694.8 47699.4,26650.9 47633.9,26620.7C47488.6,26553.8 47412.4,26522.7 47268.3,26590.9C47188.4,26628.6 46850.1,26788 46947.4,26827.4C47044.8,26866.8 47194.5,26624.5 47852.4,26827.4C48568.9,27048.3 48234.5,26843.5 48952,26870.9Z" style="fill:rgb(245,74,12);"/> </g> <g transform="matrix(3.87775,0,0,2.61479,-159544,-62529.7)"> <path d="M48952,26870.9C49345.3,26885.9 49512.4,26712.2 49559.9,26676.9C49638.8,26618.3 49354.6,26729.7 49300,26734C49167.4,26744.6 49081.6,26782.6 48972.5,26705.1C48950.6,26689.6 48909.7,26696 48887.6,26676.9C48861,26654 48832,26636.1 48797.9,26633.8C48740.9,26629.8 48688.1,26652.4 48635.8,26674.7C48590.9,26693.7 48546.4,26712.8 48498.1,26705.1C48440.2,26695.7 48397.5,26661.9 48351.2,26634.2C48298.2,26602.5 48241.3,26577.5 48160,26591.5C48103.7,26601.2 48052,26627.8 47999.8,26652.2C47952.6,26674.4 47905.2,26695 47852.4,26694.9C47777.9,26694.8 47699.4,26650.9 47633.9,26620.7C47488.6,26553.8 47412.4,26522.7 47268.3,26590.9C47188.4,26628.6 46850.1,26788 46947.4,26827.4C47044.8,26866.8 47194.5,26624.5 47852.4,26827.4C48568.9,27048.3 48234.5,26843.5 48952,26870.9Z" style="fill:rgb(245,134,12);"/> </g> <g transform="matrix(1.41895,0,0,1.41895,-41813.2,-24632.7)"> <circle cx="49243.4" cy="24182" r="1193.94" style="fill:rgb(247,107,9);"/> </g> <g transform="matrix(1,0,0,1,-21536.1,-15352)"> <rect x="46604" y="21809.8" width="6091.58" height="6215.14" style="fill:none;"/> </g> <g transform="matrix(1.20292,0,0,1.20292,-31174.8,-19408.5)"> <circle cx="49243.4" cy="24182" r="1193.94" style="fill:rgb(244,123,14);"/> </g> <g id="Layer-14"> </g> <g transform="matrix(1,0,0,1,-21182.5,-14501.5)"> <circle cx="49243.4" cy="24182" r="1193.94" style="fill:url(#_Linear3);"/> </g> <g transform="matrix(1,0,0,0.354363,-665.775,8124.79)"> <path d="M31835.9,6730.44C31773.7,7024.37 29901.5,6937.47 28838.9,6935.03C27874.8,6932.82 26552.7,6582.98 25748.8,6844.98L25617.4,6730.44L25617.4,12892.8L31835.9,12892.8L31835.9,6730.44Z" style="fill:rgb(48,35,0);"/> </g> <g transform="matrix(1.41264,0,0,1,-40914.5,-18939.8)"> <path d="M48952,26870.9C49345.3,26885.9 49512.6,26825.3 49560.1,26790.1C49639,26731.5 49352.2,26785.7 49297.5,26790.1C49164.9,26800.7 49061.2,26811.5 48952,26734C48930.2,26718.5 48909.7,26696 48887.6,26676.9C48861,26654 48832,26636.1 48797.9,26633.8C48740.9,26629.8 48688.1,26652.4 48635.8,26674.7C48590.9,26693.7 48546.4,26712.8 48498.1,26705.1C48440.2,26695.7 48397.5,26661.9 48351.2,26634.2C48298.2,26602.5 48241.3,26577.5 48160,26591.5C48103.7,26601.2 48052,26627.8 47999.8,26652.2C47952.6,26674.4 47905.2,26695 47852.4,26694.9C47777.9,26694.8 47699.4,26650.9 47633.9,26620.7C47488.6,26553.8 47412.4,26522.7 47268.3,26590.9C47188.4,26628.6 46752.6,26898.3 46849.9,26937.7C46947.3,26977.2 47194.5,26624.5 47852.4,26827.4C48568.9,27048.3 48234.5,26843.5 48952,26870.9Z" style="fill:rgb(252,80,0);"/> </g> <g transform="matrix(1.37676,0.0210386,-0.04136,0.544622,-38906.7,-5553.24)"> <path d="M47261,23643.1C47349.9,23582.8 47514.1,23501.4 47626.2,23539.1C47709.2,23567 47789.3,23601.6 47879.2,23596.4C47976.1,23590.8 48042.8,23489.9 48143.9,23476.4C48317.6,23453.1 48308.1,23542.1 48432.2,23579.1C48574.5,23621.5 48642.2,23441.1 48778.2,23638.3C48826.5,23708.2 48846.9,23798.5 48832.9,23882.8C48806.3,24043.9 48262.4,23965.4 48149.4,23961.1C47965.6,23954.1 47958.6,24037.8 47808.5,24069.5C47645,24104.1 47476.9,24023.6 47314,24044.7C47231.2,24055.4 47128.5,24108.3 47044.4,24085.1C47036.1,24082.8 46964.4,23950.8 46953.1,23935C46864.2,23811.8 46797.6,23838.2 46811.4,23685.8C46814.6,23650.3 46831.1,23606.3 46866.5,23590.7C46967.3,23546.4 47131.7,23647.4 47262.8,23647.4" style="fill:rgb(252,126,0);"/> </g> <g transform="matrix(1.11855,0.0237651,-0.033603,0.615201,-22872,-7933.76)"> <path d="M47261,23643.1C47349.9,23582.8 47514.1,23501.4 47626.2,23539.1C47709.2,23567 47789.3,23601.6 47879.2,23596.4C47976.1,23590.8 48042.8,23489.9 48143.9,23476.4C48317.6,23453.1 48308.1,23542.1 48432.2,23579.1C48574.5,23621.5 48642.2,23441.1 48778.2,23638.3C48826.5,23708.2 48846.9,23798.5 48832.9,23882.8C48806.3,24043.9 48262.4,23965.4 48149.4,23961.1C47965.6,23954.1 47958.6,24037.8 47808.5,24069.5C47645,24104.1 47476.9,24023.6 47314,24044.7C47231.2,24055.4 47128.5,24108.3 47044.4,24085.1C47036.1,24082.8 46964.4,23950.8 46953.1,23935C46864.2,23811.8 46797.6,23838.2 46811.4,23685.8C46814.6,23650.3 46831.1,23606.3 46866.5,23590.7C46967.3,23546.4 47131.7,23647.4 47262.8,23647.4" style="fill:rgb(244,123,14);"/> </g> <g transform="matrix(-1.21481,0,0,0.342094,86531.3,404.038)"> <path d="M49446.7,23384C49711.7,23445 49758.8,23295.5 49950.3,23307.5C50072.9,23315.1 50187.6,23390.6 50287.5,23455.5C50308.2,23468.9 50325.6,23501.3 50351.7,23506.2C50491.8,23532.3 50935.4,23382.7 50901.2,23668.4C50874.2,23894.1 50617.7,23804.8 50455.5,23783C50348.8,23768.7 50121.7,23702.5 50028.2,23707.4C49845.3,23716.8 49680.6,23837.5 49497.3,23856.5C49276.5,23879.5 49183.5,23776.5 49002,23763.2C48919.1,23757.2 48827.6,23807.9 48746.7,23772.1C48707,23754.5 48503.7,23647.8 48546.1,23587.5C48601,23509.4 48744,23484.6 48828.7,23453.7C48865.2,23440.5 49278.4,23345.2 49446.7,23384Z" style="fill:rgb(248,101,7);"/> </g> <g transform="matrix(1.33685,0,0,0.615557,-36703.8,-6612.76)"> <path d="M49446.7,23384C49711.7,23445 49758.8,23295.5 49950.3,23307.5C50072.9,23315.1 50187.6,23390.6 50287.5,23455.5C50308.2,23468.9 50325.6,23501.3 50351.7,23506.2C50491.8,23532.3 50935.4,23382.7 50901.2,23668.4C50874.2,23894.1 50617.7,23804.8 50455.5,23783C50348.8,23768.7 50121.7,23702.5 50028.2,23707.4C49845.3,23716.8 49680.6,23837.5 49497.3,23856.5C49276.5,23879.5 49183.5,23776.5 49002,23763.2C48919.1,23757.2 48827.6,23807.9 48746.7,23772.1C48707,23754.5 48503.7,23647.8 48546.1,23587.5C48601,23509.4 48744,23484.6 48828.7,23453.7C48865.2,23440.5 49278.4,23345.2 49446.7,23384Z" style="fill:rgb(252,140,0);"/> </g> <g transform="matrix(1.35943,0,0,1,-35054.5,-17755.7)"> <path d="M48952,26870.9C49345.3,26885.9 49512.4,26712.2 49559.9,26676.9C49638.8,26618.3 49354.6,26729.7 49300,26734C49167.4,26744.6 49081.6,26782.6 48972.5,26705.1C48950.6,26689.6 48909.7,26696 48887.6,26676.9C48861,26654 48832,26636.1 48797.9,26633.8C48740.9,26629.8 48688.1,26652.4 48635.8,26674.7C48590.9,26693.7 48546.4,26712.8 48498.1,26705.1C48440.2,26695.7 48397.5,26661.9 48351.2,26634.2C48298.2,26602.5 48241.3,26577.5 48160,26591.5C48103.7,26601.2 48052,26627.8 47999.8,26652.2C47952.6,26674.4 47905.2,26695 47852.4,26694.9C47777.9,26694.8 47699.4,26650.9 47633.9,26620.7C47488.6,26553.8 47412.4,26522.7 47268.3,26590.9C47188.4,26628.6 46850.1,26788 46947.4,26827.4C47044.8,26866.8 47194.5,26624.5 47852.4,26827.4C48568.9,27048.3 48234.5,26843.5 48952,26870.9Z" style="fill:rgb(247,111,10);"/> </g> <g transform="matrix(0.80752,0,0,0.557845,-8429.96,-5399.85)"> <path d="M47932.3,26894.1C48648.8,27115.1 49605.4,26714.8 49559.9,26676.9C49281.6,26445.3 48688.1,26652.4 48635.8,26674.7C48590.9,26693.7 48546.4,26712.8 48498.1,26705.1C48440.2,26695.7 48397.5,26661.9 48351.2,26634.2C48298.2,26602.5 48241.3,26577.5 48160,26591.5C48103.7,26601.2 48052,26627.8 47999.8,26652.2C47952.6,26674.4 47905.2,26695 47852.4,26694.9C47777.9,26694.8 47699.4,26650.9 47633.9,26620.7C47488.6,26553.8 47412.4,26522.7 47268.3,26590.9C47188.4,26628.6 46836.8,26776.8 46947.4,26827.4C47058.1,26877.9 47274.4,26691.3 47932.3,26894.1Z" style="fill:rgb(245,166,12);"/> </g> <g transform="matrix(0.714538,0.0448844,-0.0593393,0.555984,-7237.28,-7773.71)"> <path d="M47932.3,26894.1C48648.8,27115.1 49605.4,26714.8 49559.9,26676.9C49281.6,26445.3 48688.1,26652.4 48635.8,26674.7C48590.9,26693.7 48546.4,26712.8 48498.1,26705.1C48440.2,26695.7 48397.5,26661.9 48351.2,26634.2C48298.2,26602.5 48241.3,26577.5 48160,26591.5C48103.7,26601.2 48052,26627.8 47999.8,26652.2C47952.6,26674.4 47905.2,26695 47852.4,26694.9C47777.9,26694.8 47699.4,26650.9 47633.9,26620.7C47488.6,26553.8 47412.4,26522.7 47268.3,26590.9C47188.4,26628.6 46836.8,26776.8 46947.4,26827.4C47058.1,26877.9 47274.4,26691.3 47932.3,26894.1Z" style="fill:rgb(253,165,37);"/> </g> <g transform="matrix(1.30108,0,0,1,-36703.6,-19753.3)"> <path d="M48952,26870.9C49345.3,26885.9 49512.4,26712.2 49559.9,26676.9C49638.8,26618.3 49354.6,26729.7 49300,26734C49167.4,26744.6 49081.6,26782.6 48972.5,26705.1C48950.6,26689.6 48909.7,26696 48887.6,26676.9C48861,26654 48832,26636.1 48797.9,26633.8C48740.9,26629.8 48688.1,26652.4 48635.8,26674.7C48590.9,26693.7 48546.4,26712.8 48498.1,26705.1C48440.2,26695.7 48397.5,26661.9 48351.2,26634.2C48298.2,26602.5 48241.3,26577.5 48160,26591.5C48103.7,26601.2 48052,26627.8 47999.8,26652.2C47952.6,26674.4 47905.2,26695 47852.4,26694.9C47777.9,26694.8 47699.4,26650.9 47633.9,26620.7C47488.6,26553.8 47412.4,26522.7 47268.3,26590.9C47188.4,26628.6 46850.1,26788 46947.4,26827.4C47044.8,26866.8 47194.5,26624.5 47852.4,26827.4C48568.9,27048.3 48234.5,26843.5 48952,26870.9Z" style="fill:rgb(252,65,0);"/> </g> <g transform="matrix(0.895005,0,0,1,-17041.3,-17378.6)"> <path d="M48952,26870.9C49345.3,26885.9 49512.4,26712.2 49559.9,26676.9C49638.8,26618.3 49354.6,26729.7 49300,26734C49167.4,26744.6 49081.6,26782.6 48972.5,26705.1C48950.6,26689.6 48909.7,26696 48887.6,26676.9C48861,26654 48832,26636.1 48797.9,26633.8C48740.9,26629.8 48688.1,26652.4 48635.8,26674.7C48590.9,26693.7 48546.4,26712.8 48498.1,26705.1C48440.2,26695.7 48397.5,26661.9 48351.2,26634.2C48298.2,26602.5 48241.3,26577.5 48160,26591.5C48103.7,26601.2 48052,26627.8 47999.8,26652.2C47952.6,26674.4 47905.2,26695 47852.4,26694.9C47777.9,26694.8 47699.4,26650.9 47633.9,26620.7C47488.6,26553.8 47412.4,26522.7 47268.3,26590.9C47188.4,26628.6 46850.1,26788 46947.4,26827.4C47044.8,26866.8 47194.5,26624.5 47852.4,26827.4C48568.9,27048.3 48234.5,26843.5 48952,26870.9Z" style="fill:rgb(252,65,0);"/> </g> <g transform="matrix(1.30108,0,0,1,-35091.5,-19644.1)"> <path d="M48952,26870.9C49345.3,26885.9 49512.4,26712.2 49559.9,26676.9C49638.8,26618.3 49354.6,26729.7 49300,26734C49167.4,26744.6 49081.6,26782.6 48972.5,26705.1C48950.6,26689.6 48909.7,26696 48887.6,26676.9C48861,26654 48832,26636.1 48797.9,26633.8C48740.9,26629.8 48688.1,26652.4 48635.8,26674.7C48590.9,26693.7 48546.4,26712.8 48498.1,26705.1C48440.2,26695.7 48397.5,26661.9 48351.2,26634.2C48298.2,26602.5 48241.3,26577.5 48160,26591.5C48103.7,26601.2 48052,26627.8 47999.8,26652.2C47952.6,26674.4 47905.2,26695 47852.4,26694.9C47777.9,26694.8 47699.4,26650.9 47633.9,26620.7C47488.6,26553.8 47412.4,26522.7 47268.3,26590.9C47188.4,26628.6 46850.1,26788 46947.4,26827.4C47044.8,26866.8 47194.5,26624.5 47852.4,26827.4C48568.9,27048.3 48234.5,26843.5 48952,26870.9Z" style="fill:rgb(248,101,7);"/> </g> <g transform="matrix(-0.921026,0,0,-1,74256.2,35166.7)"> <path d="M48952,26870.9C49345.3,26885.9 49512.4,26712.2 49559.9,26676.9C49638.8,26618.3 49354.6,26729.7 49300,26734C49167.4,26744.6 49081.6,26782.6 48972.5,26705.1C48950.6,26689.6 48909.7,26696 48887.6,26676.9C48861,26654 48832,26636.1 48797.9,26633.8C48740.9,26629.8 48688.1,26652.4 48635.8,26674.7C48590.9,26693.7 48546.4,26712.8 48498.1,26705.1C48440.2,26695.7 48397.5,26661.9 48351.2,26634.2C48298.2,26602.5 48241.3,26577.5 48160,26591.5C48103.7,26601.2 48052,26627.8 47999.8,26652.2C47952.6,26674.4 47905.2,26695 47852.4,26694.9C47777.9,26694.8 47699.4,26650.9 47633.9,26620.7C47488.6,26553.8 47412.4,26522.7 47268.3,26590.9C47188.4,26628.6 46850.1,26788 46947.4,26827.4C47044.8,26866.8 47194.5,26624.5 47852.4,26827.4C48568.9,27048.3 48234.5,26843.5 48952,26870.9Z" style="fill:rgb(248,148,7);"/> </g> <g transform="matrix(1.30108,0,0,1,-33153.1,-19788.6)"> <path d="M48952,26870.9C49345.3,26885.9 49512.4,26712.2 49559.9,26676.9C49638.8,26618.3 49354.6,26729.7 49300,26734C49167.4,26744.6 49081.6,26782.6 48972.5,26705.1C48950.6,26689.6 48909.7,26696 48887.6,26676.9C48861,26654 48832,26636.1 48797.9,26633.8C48740.9,26629.8 48688.1,26652.4 48635.8,26674.7C48590.9,26693.7 48546.4,26712.8 48498.1,26705.1C48440.2,26695.7 48397.5,26661.9 48351.2,26634.2C48298.2,26602.5 48241.3,26577.5 48160,26591.5C48103.7,26601.2 48052,26627.8 47999.8,26652.2C47952.6,26674.4 47905.2,26695 47852.4,26694.9C47777.9,26694.8 47699.4,26650.9 47633.9,26620.7C47488.6,26553.8 47412.4,26522.7 47268.3,26590.9C47188.4,26628.6 46850.1,26788 46947.4,26827.4C47044.8,26866.8 47194.5,26624.5 47852.4,26827.4C48568.9,27048.3 48234.5,26843.5 48952,26870.9Z" style="fill:rgb(245,134,12);"/> </g> <g transform="matrix(1.02186,-7.72745e-17,2.95335e-17,-0.631703,-21100.3,23430.9)"> <path d="M49446.7,23384C49711.7,23445 49758.8,23295.5 49950.3,23307.5C50072.9,23315.1 50193,23442.7 50287.5,23455.5C50366.9,23466.2 50437.2,23378.4 50517.2,23384C50638.8,23392.4 51017.5,23506.2 51017.5,23506.2C51017.5,23506.2 50679.4,23729.1 50517.2,23707.4C50410.5,23693.1 50121.7,23702.5 50028.2,23707.4C49845.3,23716.8 49680.6,23837.5 49497.3,23856.5C49276.5,23879.5 49183.5,23776.5 49002,23763.2C48919.1,23757.2 48827.6,23807.9 48746.7,23772.1C48707,23754.5 48503.7,23647.8 48546.1,23587.5C48601,23509.4 48744,23484.6 48828.7,23453.7C48865.2,23440.5 49278.4,23345.2 49446.7,23384Z" style="fill:rgb(248,101,7);"/> </g> <g transform="matrix(2.53039,0,0,0.729089,-93940.5,-8965.07)"> <path d="M48952,26870.9C49345.3,26885.9 49512.4,26712.2 49559.9,26676.9C49638.8,26618.3 49354.6,26729.7 49300,26734C49167.4,26744.6 49081.6,26782.6 48972.5,26705.1C48950.6,26689.6 48909.7,26696 48887.6,26676.9C48861,26654 48832,26636.1 48797.9,26633.8C48740.9,26629.8 48688.1,26652.4 48635.8,26674.7C48590.9,26693.7 48546.4,26712.8 48498.1,26705.1C48440.2,26695.7 48397.5,26661.9 48351.2,26634.2C48298.2,26602.5 48241.3,26577.5 48160,26591.5C48103.7,26601.2 48052,26627.8 47999.8,26652.2C47952.6,26674.4 47905.2,26695 47852.4,26694.9C47777.9,26694.8 47699.4,26650.9 47633.9,26620.7C47488.6,26553.8 47412.4,26522.7 47268.3,26590.9C47188.4,26628.6 46850.1,26788 46947.4,26827.4C47044.8,26866.8 47194.5,26624.5 47852.4,26827.4C48568.9,27048.3 48234.5,26843.5 48952,26870.9Z" style="fill:rgb(48,35,0);"/> </g> <g transform="matrix(1.78381,0,0,0.729089,-60788.8,-8150.87)"> <path d="M48952,26870.9C49345.3,26885.9 49512.4,26712.2 49559.9,26676.9C49638.8,26618.3 49354.6,26729.7 49300,26734C49167.4,26744.6 49081.6,26782.6 48972.5,26705.1C48950.6,26689.6 48909.7,26696 48887.6,26676.9C48861,26654 48832,26636.1 48797.9,26633.8C48740.9,26629.8 48688.1,26652.4 48635.8,26674.7C48590.9,26693.7 48546.4,26712.8 48498.1,26705.1C48440.2,26695.7 48397.5,26661.9 48351.2,26634.2C48298.2,26602.5 48241.3,26577.5 48160,26591.5C48103.7,26601.2 48052,26627.8 47999.8,26652.2C47952.6,26674.4 47905.2,26695 47852.4,26694.9C47777.9,26694.8 47699.4,26650.9 47633.9,26620.7C47488.6,26553.8 47412.4,26522.7 47268.3,26590.9C47188.4,26628.6 46850.1,26788 46947.4,26827.4C47044.8,26866.8 47194.5,26624.5 47852.4,26827.4C48568.9,27048.3 48234.5,26843.5 48952,26870.9Z" style="fill:rgb(97,51,0);"/> </g> <g transform="matrix(1.78381,0,0,0.577234,-57052.6,-3957.65)"> <path d="M48952,26870.9C49345.3,26885.9 49512.4,26712.2 49559.9,26676.9C49638.8,26618.3 49354.6,26729.7 49300,26734C49167.4,26744.6 49081.6,26782.6 48972.5,26705.1C48950.6,26689.6 48909.7,26696 48887.6,26676.9C48861,26654 48832,26636.1 48797.9,26633.8C48740.9,26629.8 48688.1,26652.4 48635.8,26674.7C48590.9,26693.7 48546.4,26712.8 48498.1,26705.1C48440.2,26695.7 48397.5,26661.9 48351.2,26634.2C48298.2,26602.5 48241.3,26577.5 48160,26591.5C48103.7,26601.2 48052,26627.8 47999.8,26652.2C47952.6,26674.4 47905.2,26695 47852.4,26694.9C47777.9,26694.8 47699.4,26650.9 47633.9,26620.7C47488.6,26553.8 47412.4,26522.7 47268.3,26590.9C47188.4,26628.6 46850.1,26788 46947.4,26827.4C47044.8,26866.8 47194.5,26624.5 47852.4,26827.4C48568.9,27048.3 48234.5,26843.5 48952,26870.9Z" style="fill:rgb(97,51,0);"/> </g> <g transform="matrix(1.78381,0,0,0.729089,-60144.5,-8864.13)"> <path d="M48952,26870.9C49345.3,26885.9 49512.4,26712.2 49559.9,26676.9C49638.8,26618.3 49354.6,26729.7 49300,26734C49167.4,26744.6 49081.6,26782.6 48972.5,26705.1C48950.6,26689.6 48909.7,26696 48887.6,26676.9C48861,26654 48832,26636.1 48797.9,26633.8C48740.9,26629.8 48688.1,26652.4 48635.8,26674.7C48590.9,26693.7 48546.4,26712.8 48498.1,26705.1C48440.2,26695.7 48397.5,26661.9 48351.2,26634.2C48298.2,26602.5 48241.3,26577.5 48160,26591.5C48103.7,26601.2 48052,26627.8 47999.8,26652.2C47952.6,26674.4 47905.2,26695 47852.4,26694.9C47777.9,26694.8 47699.4,26650.9 47633.9,26620.7C47488.6,26553.8 47412.4,26522.7 47268.3,26590.9C47188.4,26628.6 46850.1,26788 46947.4,26827.4C47044.8,26866.8 47194.5,26624.5 47852.4,26827.4C48568.9,27048.3 48234.5,26843.5 48952,26870.9Z" style="fill:rgb(97,48,0);"/> </g> <g transform="matrix(-1.78381,0,0,0.577234,113713,-3765.77)"> <path d="M48952,26870.9C49345.3,26885.9 49512.4,26712.2 49559.9,26676.9C49638.8,26618.3 49354.6,26729.7 49300,26734C49167.4,26744.6 49081.6,26782.6 48972.5,26705.1C48950.6,26689.6 48909.7,26696 48887.6,26676.9C48861,26654 48832,26636.1 48797.9,26633.8C48740.9,26629.8 48688.1,26652.4 48635.8,26674.7C48590.9,26693.7 48546.4,26712.8 48498.1,26705.1C48440.2,26695.7 48397.5,26661.9 48351.2,26634.2C48298.2,26602.5 48241.3,26577.5 48160,26591.5C48103.7,26601.2 48052,26627.8 47999.8,26652.2C47952.6,26674.4 47905.2,26695 47852.4,26694.9C47777.9,26694.8 47699.4,26650.9 47633.9,26620.7C47488.6,26553.8 47412.4,26522.7 47268.3,26590.9C47188.4,26628.6 46850.1,26788 46947.4,26827.4C47044.8,26866.8 47194.5,26624.5 47852.4,26827.4C48568.9,27048.3 48234.5,26843.5 48952,26870.9Z" style="fill:rgb(84,23,0);"/> </g> <g transform="matrix(-1.78381,0,0,0.729089,113130,-8871.77)"> <path d="M48952,26870.9C49345.3,26885.9 49512.4,26712.2 49559.9,26676.9C49638.8,26618.3 49354.6,26729.7 49300,26734C49167.4,26744.6 49081.6,26782.6 48972.5,26705.1C48950.6,26689.6 48909.7,26696 48887.6,26676.9C48861,26654 48832,26636.1 48797.9,26633.8C48740.9,26629.8 48688.1,26652.4 48635.8,26674.7C48590.9,26693.7 48546.4,26712.8 48498.1,26705.1C48440.2,26695.7 48397.5,26661.9 48351.2,26634.2C48298.2,26602.5 48241.3,26577.5 48160,26591.5C48103.7,26601.2 48052,26627.8 47999.8,26652.2C47952.6,26674.4 47905.2,26695 47852.4,26694.9C47777.9,26694.8 47699.4,26650.9 47633.9,26620.7C47488.6,26553.8 47412.4,26522.7 47268.3,26590.9C47188.4,26628.6 46850.1,26788 46947.4,26827.4C47044.8,26866.8 47194.5,26624.5 47852.4,26827.4C48568.9,27048.3 48234.5,26843.5 48952,26870.9Z" style="fill:rgb(84,23,0);"/> </g> <g transform="matrix(-1.78381,0,0,0.729089,117215,-8537.58)"> <path d="M48952,26870.9C49345.3,26885.9 49512.4,26712.2 49559.9,26676.9C49638.8,26618.3 49354.6,26729.7 49300,26734C49167.4,26744.6 49081.6,26782.6 48972.5,26705.1C48950.6,26689.6 48909.7,26696 48887.6,26676.9C48861,26654 48832,26636.1 48797.9,26633.8C48740.9,26629.8 48688.1,26652.4 48635.8,26674.7C48590.9,26693.7 48546.4,26712.8 48498.1,26705.1C48440.2,26695.7 48397.5,26661.9 48351.2,26634.2C48298.2,26602.5 48241.3,26577.5 48160,26591.5C48103.7,26601.2 48052,26627.8 47999.8,26652.2C47952.6,26674.4 47905.2,26695 47852.4,26694.9C47777.9,26694.8 47699.4,26650.9 47633.9,26620.7C47488.6,26553.8 47412.4,26522.7 47268.3,26590.9C47188.4,26628.6 46850.1,26788 46947.4,26827.4C47044.8,26866.8 47194.5,26624.5 47852.4,26827.4C48568.9,27048.3 48234.5,26843.5 48952,26870.9Z" style="fill:rgb(84,23,0);"/> </g> <g transform="matrix(-1.78381,0,0,0.729089,117450,-8283.05)"> <path d="M48952,26870.9C49345.3,26885.9 49512.4,26712.2 49559.9,26676.9C49638.8,26618.3 49354.6,26729.7 49300,26734C49167.4,26744.6 49081.6,26782.6 48972.5,26705.1C48950.6,26689.6 48909.7,26696 48887.6,26676.9C48861,26654 48832,26636.1 48797.9,26633.8C48740.9,26629.8 48688.1,26652.4 48635.8,26674.7C48590.9,26693.7 48546.4,26712.8 48498.1,26705.1C48440.2,26695.7 48397.5,26661.9 48351.2,26634.2C48298.2,26602.5 48241.3,26577.5 48160,26591.5C48103.7,26601.2 48052,26627.8 47999.8,26652.2C47952.6,26674.4 47905.2,26695 47852.4,26694.9C47777.9,26694.8 47699.4,26650.9 47633.9,26620.7C47488.6,26553.8 47412.4,26522.7 47268.3,26590.9C47188.4,26628.6 46850.1,26788 46947.4,26827.4C47044.8,26866.8 47194.5,26624.5 47852.4,26827.4C48568.9,27048.3 48234.5,26843.5 48952,26870.9Z" style="fill:rgb(84,37,0);"/> </g> <g transform="matrix(-1.78381,0,0,0.577234,114358,-4330.46)"> <path d="M48952,26870.9C49345.3,26885.9 49512.4,26712.2 49559.9,26676.9C49638.8,26618.3 49354.6,26729.7 49300,26734C49167.4,26744.6 49081.6,26782.6 48972.5,26705.1C48950.6,26689.6 48909.7,26696 48887.6,26676.9C48861,26654 48832,26636.1 48797.9,26633.8C48740.9,26629.8 48688.1,26652.4 48635.8,26674.7C48590.9,26693.7 48546.4,26712.8 48498.1,26705.1C48440.2,26695.7 48397.5,26661.9 48351.2,26634.2C48298.2,26602.5 48241.3,26577.5 48160,26591.5C48103.7,26601.2 48052,26627.8 47999.8,26652.2C47952.6,26674.4 47905.2,26695 47852.4,26694.9C47777.9,26694.8 47699.4,26650.9 47633.9,26620.7C47488.6,26553.8 47412.4,26522.7 47268.3,26590.9C47188.4,26628.6 46850.1,26788 46947.4,26827.4C47044.8,26866.8 47194.5,26624.5 47852.4,26827.4C48568.9,27048.3 48234.5,26843.5 48952,26870.9Z" style="fill:rgb(84,57,0);"/> </g> <g transform="matrix(0.731991,-0.272955,0.272955,0.731991,-16388.8,3723.57)"> <path d="M49458,24161C49442.8,24092.8 49372.4,24041.2 49288,24041.2C49247.8,24041.2 49210.8,24052.9 49181.4,24072.5C49203.8,24020.3 49255.3,23983.7 49315.2,23983.7C49389.6,23983.7 49451.1,24040.2 49459.9,24113.1C49474.5,24041.2 49540.3,23989.9 49614.5,23995.8C49674.2,24000.6 49722.6,24041.1 49740.8,24095C49713.1,24073.1 49677.1,24058.5 49637,24055.2C49552.8,24048.5 49478.5,24094.4 49458,24161.2L49458,24161Z" style="fill:rgb(48,35,0);"/> </g> <g transform="matrix(0.71203,0.321448,-0.321448,0.71203,3048.72,-25768.7)"> <path d="M49458,24161C49442.8,24092.8 49372.4,24041.2 49288,24041.2C49247.8,24041.2 49210.8,24052.9 49181.4,24072.5C49203.8,24020.3 49255.3,23983.7 49315.2,23983.7C49389.6,23983.7 49451.1,24040.2 49459.9,24113.1C49474.5,24041.2 49540.3,23989.9 49614.5,23995.8C49674.2,24000.6 49722.6,24041.1 49740.8,24095C49713.1,24073.1 49677.1,24058.5 49637,24055.2C49552.8,24048.5 49478.5,24094.4 49458,24161.2L49458,24161Z" style="fill:rgb(48,35,0);"/> </g> <g transform="matrix(0.542218,0.161633,-0.161633,0.542218,3461.99,-12890.6)"> <path d="M49458,24161C49442.8,24092.8 49372.4,24041.2 49288,24041.2C49247.8,24041.2 49210.8,24052.9 49181.4,24072.5C49203.8,24020.3 49255.3,23983.7 49315.2,23983.7C49389.6,23983.7 49451.1,24040.2 49459.9,24113.1C49474.5,24041.2 49540.3,23989.9 49614.5,23995.8C49674.2,24000.6 49722.6,24041.1 49740.8,24095C49713.1,24073.1 49677.1,24058.5 49637,24055.2C49552.8,24048.5 49478.5,24094.4 49458,24161.2L49458,24161Z" style="fill:rgb(48,35,0);"/> </g> <g transform="matrix(0.547247,-0.143691,0.143691,0.547247,-4874.14,3516.97)"> <path d="M49458,24161C49442.8,24092.8 49372.4,24041.2 49288,24041.2C49247.8,24041.2 49210.8,24052.9 49181.4,24072.5C49203.8,24020.3 49255.3,23983.7 49315.2,23983.7C49389.6,23983.7 49451.1,24040.2 49459.9,24113.1C49474.5,24041.2 49540.3,23989.9 49614.5,23995.8C49674.2,24000.6 49722.6,24041.1 49740.8,24095C49713.1,24073.1 49677.1,24058.5 49637,24055.2C49552.8,24048.5 49478.5,24094.4 49458,24161.2L49458,24161Z" style="fill:rgb(48,35,0);"/> </g> <g transform="matrix(0.645165,-0.169401,0.172093,0.655418,-10409.9,-34.0664)"> <path d="M49458,24161C49442.8,24092.8 49372.4,24041.2 49288,24041.2C49247.8,24041.2 49210.8,24052.9 49181.4,24072.5C49203.8,24020.3 49255.3,23983.7 49315.2,23983.7C49389.6,23983.7 49451.1,24040.2 49459.9,24113.1C49474.5,24041.2 49540.3,23989.9 49614.5,23995.8C49674.2,24000.6 49722.6,24041.1 49740.8,24095C49713.1,24073.1 49677.1,24058.5 49637,24055.2C49552.8,24048.5 49478.5,24094.4 49458,24161.2L49458,24161Z" style="fill:rgb(48,35,0);"/> </g> <g transform="matrix(0.70571,-0.185558,0.185558,0.70571,-13244.2,832.535)"> <path d="M49458,24161C49442.8,24092.8 49372.4,24041.2 49288,24041.2C49247.8,24041.2 49210.8,24052.9 49181.4,24072.5C49203.8,24020.3 49255.3,23983.7 49315.2,23983.7C49389.6,23983.7 49451.1,24040.2 49459.9,24113.1C49474.5,24041.2 49540.3,23989.9 49614.5,23995.8C49674.2,24000.6 49722.6,24041.1 49740.8,24095C49713.1,24073.1 49677.1,24058.5 49637,24055.2C49552.8,24048.5 49478.5,24094.4 49458,24161.2L49458,24161Z" style="fill:rgb(48,35,0);"/> </g> <g transform="matrix(0.70571,-0.185558,0.185558,0.70571,-10164.1,-680.687)"> <path d="M49458,24161C49442.8,24092.8 49372.4,24041.2 49288,24041.2C49247.8,24041.2 49210.8,24052.9 49181.4,24072.5C49203.8,24020.3 49255.3,23983.7 49315.2,23983.7C49389.6,23983.7 49451.1,24040.2 49459.9,24113.1C49474.5,24041.2 49540.3,23989.9 49614.5,23995.8C49674.2,24000.6 49722.6,24041.1 49740.8,24095C49713.1,24073.1 49677.1,24058.5 49637,24055.2C49552.8,24048.5 49478.5,24094.4 49458,24161.2L49458,24161Z" style="fill:rgb(48,35,0);"/> </g> <g transform="matrix(1,0,0,1,-19660.2,-16391.9)"> <path d="M49458,24161C49442.8,24092.8 49372.4,24041.2 49288,24041.2C49247.8,24041.2 49210.8,24052.9 49181.4,24072.5C49203.8,24020.3 49255.3,23983.7 49315.2,23983.7C49389.6,23983.7 49451.1,24040.2 49459.9,24113.1C49474.5,24041.2 49540.3,23989.9 49614.5,23995.8C49674.2,24000.6 49722.6,24041.1 49740.8,24095C49713.1,24073.1 49677.1,24058.5 49637,24055.2C49552.8,24048.5 49478.5,24094.4 49458,24161.2L49458,24161Z" style="fill:rgb(48,35,0);"/> </g> <g transform="matrix(1,0,0,1,-23680.5,-14003.7)"> <path d="M49458,24161C49442.8,24092.8 49372.4,24041.2 49288,24041.2C49247.8,24041.2 49210.8,24052.9 49181.4,24072.5C49203.8,24020.3 49255.3,23983.7 49315.2,23983.7C49389.6,23983.7 49451.1,24040.2 49459.9,24113.1C49474.5,24041.2 49540.3,23989.9 49614.5,23995.8C49674.2,24000.6 49722.6,24041.1 49740.8,24095C49713.1,24073.1 49677.1,24058.5 49637,24055.2C49552.8,24048.5 49478.5,24094.4 49458,24161.2L49458,24161Z" style="fill:rgb(48,35,0);"/> </g> <g transform="matrix(0.946259,0.323411,-0.323411,0.946259,-11645.5,-31801.2)"> <path d="M49458,24161C49442.8,24092.8 49372.4,24041.2 49288,24041.2C49247.8,24041.2 49210.8,24052.9 49181.4,24072.5C49203.8,24020.3 49255.3,23983.7 49315.2,23983.7C49389.6,23983.7 49451.1,24040.2 49459.9,24113.1C49474.5,24041.2 49540.3,23989.9 49614.5,23995.8C49674.2,24000.6 49722.6,24041.1 49740.8,24095C49713.1,24073.1 49677.1,24058.5 49637,24055.2C49552.8,24048.5 49478.5,24094.4 49458,24161.2L49458,24161Z" style="fill:rgb(48,35,0);"/> </g> <g transform="matrix(0.595296,-0.34055,0.34055,0.595296,-12147.4,10809.5)"> <path d="M49458,24161C49442.8,24092.8 49372.4,24041.2 49288,24041.2C49247.8,24041.2 49210.8,24052.9 49181.4,24072.5C49203.8,24020.3 49255.3,23983.7 49315.2,23983.7C49389.6,23983.7 49451.1,24040.2 49459.9,24113.1C49474.5,24041.2 49540.3,23989.9 49614.5,23995.8C49674.2,24000.6 49722.6,24041.1 49740.8,24095C49713.1,24073.1 49677.1,24058.5 49637,24055.2C49552.8,24048.5 49478.5,24094.4 49458,24161.2L49458,24161Z" style="fill:rgb(48,35,0);"/> </g> <g transform="matrix(0.595296,-0.34055,0.34055,0.595296,-10179,11460.6)"> <path d="M49458,24161C49442.8,24092.8 49372.4,24041.2 49288,24041.2C49247.8,24041.2 49210.8,24052.9 49181.4,24072.5C49203.8,24020.3 49255.3,23983.7 49315.2,23983.7C49389.6,23983.7 49451.1,24040.2 49459.9,24113.1C49474.5,24041.2 49540.3,23989.9 49614.5,23995.8C49674.2,24000.6 49722.6,24041.1 49740.8,24095C49713.1,24073.1 49677.1,24058.5 49637,24055.2C49552.8,24048.5 49478.5,24094.4 49458,24161.2L49458,24161Z" style="fill:rgb(48,35,0);"/> </g> <g transform="matrix(0.676802,0.110864,-0.110864,0.676802,-2406.17,-12809.1)"> <path d="M49458,24161C49442.8,24092.8 49372.4,24041.2 49288,24041.2C49247.8,24041.2 49210.8,24052.9 49181.4,24072.5C49203.8,24020.3 49255.3,23983.7 49315.2,23983.7C49389.6,23983.7 49451.1,24040.2 49459.9,24113.1C49474.5,24041.2 49540.3,23989.9 49614.5,23995.8C49674.2,24000.6 49722.6,24041.1 49740.8,24095C49713.1,24073.1 49677.1,24058.5 49637,24055.2C49552.8,24048.5 49478.5,24094.4 49458,24161.2L49458,24161Z" style="fill:rgb(48,35,0);"/> </g> <g transform="matrix(0.674348,-0.124928,0.124928,0.674348,-10004.6,-3125.21)"> <path d="M49458,24161C49442.8,24092.8 49372.4,24041.2 49288,24041.2C49247.8,24041.2 49210.8,24052.9 49181.4,24072.5C49203.8,24020.3 49255.3,23983.7 49315.2,23983.7C49389.6,23983.7 49451.1,24040.2 49459.9,24113.1C49474.5,24041.2 49540.3,23989.9 49614.5,23995.8C49674.2,24000.6 49722.6,24041.1 49740.8,24095C49713.1,24073.1 49677.1,24058.5 49637,24055.2C49552.8,24048.5 49478.5,24094.4 49458,24161.2L49458,24161Z" style="fill:rgb(48,35,0);"/> </g> <g transform="matrix(0.43533,0.0713098,-0.080929,0.494054,8874.53,-6208.36)"> <path d="M49458,24161C49442.8,24092.8 49372.4,24041.2 49288,24041.2C49247.8,24041.2 49210.8,24052.9 49181.4,24072.5C49203.8,24020.3 49255.3,23983.7 49315.2,23983.7C49389.6,23983.7 49451.1,24040.2 49459.9,24113.1C49474.5,24041.2 49540.3,23989.9 49614.5,23995.8C49674.2,24000.6 49722.6,24041.1 49740.8,24095C49713.1,24073.1 49677.1,24058.5 49637,24055.2C49552.8,24048.5 49478.5,24094.4 49458,24161.2L49458,24161Z" style="fill:rgb(48,35,0);"/> </g> <g transform="matrix(0.404233,-0.176617,0.200441,0.458761,2566.44,7566.7)"> <path d="M49458,24161C49442.8,24092.8 49372.4,24041.2 49288,24041.2C49247.8,24041.2 49210.8,24052.9 49181.4,24072.5C49203.8,24020.3 49255.3,23983.7 49315.2,23983.7C49389.6,23983.7 49451.1,24040.2 49459.9,24113.1C49474.5,24041.2 49540.3,23989.9 49614.5,23995.8C49674.2,24000.6 49722.6,24041.1 49740.8,24095C49713.1,24073.1 49677.1,24058.5 49637,24055.2C49552.8,24048.5 49478.5,24094.4 49458,24161.2L49458,24161Z" style="fill:rgb(48,35,0);"/> </g> <g transform="matrix(0.30435,-0.132976,0.154224,0.352981,10024.7,8199.94)"> <path d="M49458,24161C49442.8,24092.8 49372.4,24041.2 49288,24041.2C49247.8,24041.2 49210.8,24052.9 49181.4,24072.5C49203.8,24020.3 49255.3,23983.7 49315.2,23983.7C49389.6,23983.7 49451.1,24040.2 49459.9,24113.1C49474.5,24041.2 49540.3,23989.9 49614.5,23995.8C49674.2,24000.6 49722.6,24041.1 49740.8,24095C49713.1,24073.1 49677.1,24058.5 49637,24055.2C49552.8,24048.5 49478.5,24094.4 49458,24161.2L49458,24161Z" style="fill:rgb(48,35,0);"/> </g> <g transform="matrix(0.869884,-0.493257,0.493257,0.869884,-26867.7,11105.2)"> <path d="M49458,24161C49442.8,24092.8 49372.4,24041.2 49288,24041.2C49247.8,24041.2 49210.8,24052.9 49181.4,24072.5C49203.8,24020.3 49255.3,23983.7 49315.2,23983.7C49389.6,23983.7 49451.1,24040.2 49459.9,24113.1C49474.5,24041.2 49540.3,23989.9 49614.5,23995.8C49674.2,24000.6 49722.6,24041.1 49740.8,24095C49713.1,24073.1 49677.1,24058.5 49637,24055.2C49552.8,24048.5 49478.5,24094.4 49458,24161.2L49458,24161Z" style="fill:rgb(48,35,0);"/> </g> <g transform="matrix(0.685568,0.0715248,-0.0715248,0.685568,-2199.61,-10925.9)"> <path d="M49458,24161C49442.8,24092.8 49372.4,24041.2 49288,24041.2C49247.8,24041.2 49210.8,24052.9 49181.4,24072.5C49203.8,24020.3 49255.3,23983.7 49315.2,23983.7C49389.6,23983.7 49451.1,24040.2 49459.9,24113.1C49474.5,24041.2 49540.3,23989.9 49614.5,23995.8C49674.2,24000.6 49722.6,24041.1 49740.8,24095C49713.1,24073.1 49677.1,24058.5 49637,24055.2C49552.8,24048.5 49478.5,24094.4 49458,24161.2L49458,24161Z" style="fill:rgb(48,35,0);"/> </g> <g transform="matrix(0.619408,0.302413,-0.302413,0.619408,7011.33,-19636.6)"> <path d="M49458,24161C49442.8,24092.8 49372.4,24041.2 49288,24041.2C49247.8,24041.2 49210.8,24052.9 49181.4,24072.5C49203.8,24020.3 49255.3,23983.7 49315.2,23983.7C49389.6,23983.7 49451.1,24040.2 49459.9,24113.1C49474.5,24041.2 49540.3,23989.9 49614.5,23995.8C49674.2,24000.6 49722.6,24041.1 49740.8,24095C49713.1,24073.1 49677.1,24058.5 49637,24055.2C49552.8,24048.5 49478.5,24094.4 49458,24161.2L49458,24161Z" style="fill:rgb(48,35,0);"/> </g> <g transform="matrix(0.680619,-0.108983,0.108983,0.680619,-7496.45,-1329.84)"> <path d="M49458,24161C49442.8,24092.8 49372.4,24041.2 49288,24041.2C49247.8,24041.2 49210.8,24052.9 49181.4,24072.5C49203.8,24020.3 49255.3,23983.7 49315.2,23983.7C49389.6,23983.7 49451.1,24040.2 49459.9,24113.1C49474.5,24041.2 49540.3,23989.9 49614.5,23995.8C49674.2,24000.6 49722.6,24041.1 49740.8,24095C49713.1,24073.1 49677.1,24058.5 49637,24055.2C49552.8,24048.5 49478.5,24094.4 49458,24161.2L49458,24161Z" style="fill:rgb(48,35,0);"/> </g> <g transform="matrix(0.511564,-0.134509,0.134509,0.511564,857.424,2540.88)"> <path d="M49458,24161C49442.8,24092.8 49372.4,24041.2 49288,24041.2C49247.8,24041.2 49210.8,24052.9 49181.4,24072.5C49203.8,24020.3 49255.3,23983.7 49315.2,23983.7C49389.6,23983.7 49451.1,24040.2 49459.9,24113.1C49474.5,24041.2 49540.3,23989.9 49614.5,23995.8C49674.2,24000.6 49722.6,24041.1 49740.8,24095C49713.1,24073.1 49677.1,24058.5 49637,24055.2C49552.8,24048.5 49478.5,24094.4 49458,24161.2L49458,24161Z" style="fill:rgb(48,35,0);"/> </g> <g transform="matrix(0.622399,0.137065,-0.137065,0.622399,41.5658,-13503.6)"> <path d="M49458,24161C49442.8,24092.8 49372.4,24041.2 49288,24041.2C49247.8,24041.2 49210.8,24052.9 49181.4,24072.5C49203.8,24020.3 49255.3,23983.7 49315.2,23983.7C49389.6,23983.7 49451.1,24040.2 49459.9,24113.1C49474.5,24041.2 49540.3,23989.9 49614.5,23995.8C49674.2,24000.6 49722.6,24041.1 49740.8,24095C49713.1,24073.1 49677.1,24058.5 49637,24055.2C49552.8,24048.5 49478.5,24094.4 49458,24161.2L49458,24161Z" style="fill:rgb(48,35,0);"/> </g> <g transform="matrix(0.42045,-0.127863,0.127863,0.42045,6313.82,5776.01)"> <path d="M49458,24161C49442.8,24092.8 49372.4,24041.2 49288,24041.2C49247.8,24041.2 49210.8,24052.9 49181.4,24072.5C49203.8,24020.3 49255.3,23983.7 49315.2,23983.7C49389.6,23983.7 49451.1,24040.2 49459.9,24113.1C49474.5,24041.2 49540.3,23989.9 49614.5,23995.8C49674.2,24000.6 49722.6,24041.1 49740.8,24095C49713.1,24073.1 49677.1,24058.5 49637,24055.2C49552.8,24048.5 49478.5,24094.4 49458,24161.2L49458,24161Z" style="fill:rgb(48,35,0);"/> </g> <g transform="matrix(0.42045,-0.127863,0.127863,0.42045,2815.05,3726.48)"> <path d="M49458,24161C49442.8,24092.8 49372.4,24041.2 49288,24041.2C49247.8,24041.2 49210.8,24052.9 49181.4,24072.5C49203.8,24020.3 49255.3,23983.7 49315.2,23983.7C49389.6,23983.7 49451.1,24040.2 49459.9,24113.1C49474.5,24041.2 49540.3,23989.9 49614.5,23995.8C49674.2,24000.6 49722.6,24041.1 49740.8,24095C49713.1,24073.1 49677.1,24058.5 49637,24055.2C49552.8,24048.5 49478.5,24094.4 49458,24161.2L49458,24161Z" style="fill:rgb(48,35,0);"/> </g> <g transform="matrix(0.789514,0.234457,-0.234457,0.789514,-3327.85,-22491.3)"> <path d="M49458,24161C49442.8,24092.8 49372.4,24041.2 49288,24041.2C49247.8,24041.2 49210.8,24052.9 49181.4,24072.5C49203.8,24020.3 49255.3,23983.7 49315.2,23983.7C49389.6,23983.7 49451.1,24040.2 49459.9,24113.1C49474.5,24041.2 49540.3,23989.9 49614.5,23995.8C49674.2,24000.6 49722.6,24041.1 49740.8,24095C49713.1,24073.1 49677.1,24058.5 49637,24055.2C49552.8,24048.5 49478.5,24094.4 49458,24161.2L49458,24161Z" style="fill:rgb(48,35,0);"/> </g> <g transform="matrix(0.933579,0,0,0.933579,1686.81,1226.81)"> <g transform="matrix(0.367231,0.0388832,-0.0388832,0.367231,13089.6,-1902.8)"> <path d="M43906.8,23732.5L44244.3,26919.5L45776.6,26804.8L43906.8,23732.5Z" style="fill:rgb(48,35,0);"/> </g> <g transform="matrix(-0.367231,0.0388832,0.0451092,0.426032,43311.2,-3426.29)"> <path d="M44136.2,24235.6L44411.9,26840.1L45776.6,26804.8L44136.2,24235.6Z" style="fill:rgb(48,35,0);"/> </g> <g transform="matrix(0.369284,0,0,0.369284,12004.5,-100.681)"> <rect x="43946.5" y="23036.7" width="93.523" height="4133.32" style="fill:rgb(48,35,0);"/> </g> <g transform="matrix(0.360416,0,0,0.369284,12344.9,-38.0765)"> <path d="M46012.3,26666.4L42249.8,26666.4C42249.8,26666.4 42249.8,26666.4 42249.8,26666.4C42249.8,26843.6 42322,27013.6 42450.4,27138.9C42578.8,27264.3 42753,27334.7 42934.6,27334.7C43613.7,27334.7 44648.5,27334.7 45327.6,27334.7C45509.2,27334.7 45683.4,27264.3 45811.8,27138.9C45940.2,27013.6 46012.3,26843.6 46012.3,26666.4C46012.3,26666.4 46012.3,26666.4 46012.3,26666.4Z" style="fill:rgb(48,35,0);"/> </g> </g> <g transform="matrix(1.78381,0,0,0.729089,-59835.6,-7291.56)"> <path d="M48952,26870.9C49345.3,26885.9 49512.4,26712.2 49559.9,26676.9C49638.8,26618.3 49354.6,26729.7 49300,26734C49167.4,26744.6 49081.6,26782.6 48972.5,26705.1C48950.6,26689.6 48909.7,26696 48887.6,26676.9C48861,26654 48832,26636.1 48797.9,26633.8C48740.9,26629.8 48688.1,26652.4 48635.8,26674.7C48590.9,26693.7 48546.4,26712.8 48498.1,26705.1C48440.2,26695.7 48397.5,26661.9 48351.2,26634.2C48298.2,26602.5 48241.3,26577.5 48160,26591.5C48103.7,26601.2 48052,26627.8 47999.8,26652.2C47952.6,26674.4 47905.2,26695 47852.4,26694.9C47777.9,26694.8 47699.4,26650.9 47633.9,26620.7C47488.6,26553.8 47412.4,26522.7 47268.3,26590.9C47188.4,26628.6 46850.1,26788 46947.4,26827.4C47044.8,26866.8 47194.5,26624.5 47852.4,26827.4C48568.9,27048.3 48234.5,26843.5 48952,26870.9Z" style="fill:rgb(97,51,0);"/> </g> <g transform="matrix(1.78381,0,0,0.577234,-56462.9,-3430.17)"> <path d="M48952,26870.9C49345.3,26885.9 49512.4,26712.2 49559.9,26676.9C49638.8,26618.3 49354.6,26729.7 49300,26734C49167.4,26744.6 49081.6,26782.6 48972.5,26705.1C48950.6,26689.6 48909.7,26696 48887.6,26676.9C48861,26654 48832,26636.1 48797.9,26633.8C48740.9,26629.8 48688.1,26652.4 48635.8,26674.7C48590.9,26693.7 48546.4,26712.8 48498.1,26705.1C48440.2,26695.7 48397.5,26661.9 48351.2,26634.2C48298.2,26602.5 48241.3,26577.5 48160,26591.5C48103.7,26601.2 48052,26627.8 47999.8,26652.2C47952.6,26674.4 47905.2,26695 47852.4,26694.9C47777.9,26694.8 47699.4,26650.9 47633.9,26620.7C47488.6,26553.8 47412.4,26522.7 47268.3,26590.9C47188.4,26628.6 46850.1,26788 46947.4,26827.4C47044.8,26866.8 47194.5,26624.5 47852.4,26827.4C48568.9,27048.3 48234.5,26843.5 48952,26870.9Z" style="fill:rgb(97,51,0);"/> </g> <g transform="matrix(1.78381,0,0,0.729089,-59509.9,-7866.84)"> <path d="M48952,26870.9C49345.3,26885.9 49512.4,26712.2 49559.9,26676.9C49638.8,26618.3 49354.6,26729.7 49300,26734C49167.4,26744.6 49081.6,26782.6 48972.5,26705.1C48950.6,26689.6 48909.7,26696 48887.6,26676.9C48861,26654 48832,26636.1 48797.9,26633.8C48740.9,26629.8 48688.1,26652.4 48635.8,26674.7C48590.9,26693.7 48546.4,26712.8 48498.1,26705.1C48440.2,26695.7 48397.5,26661.9 48351.2,26634.2C48298.2,26602.5 48241.3,26577.5 48160,26591.5C48103.7,26601.2 48052,26627.8 47999.8,26652.2C47952.6,26674.4 47905.2,26695 47852.4,26694.9C47777.9,26694.8 47699.4,26650.9 47633.9,26620.7C47488.6,26553.8 47412.4,26522.7 47268.3,26590.9C47188.4,26628.6 46850.1,26788 46947.4,26827.4C47044.8,26866.8 47194.5,26624.5 47852.4,26827.4C48568.9,27048.3 48234.5,26843.5 48952,26870.9Z" style="fill:rgb(97,48,0);"/> </g> <g transform="matrix(-1.78381,0,0,0.577234,114303,-3238.29)"> <path d="M48952,26870.9C49345.3,26885.9 49512.4,26712.2 49559.9,26676.9C49638.8,26618.3 49354.6,26729.7 49300,26734C49167.4,26744.6 49081.6,26782.6 48972.5,26705.1C48950.6,26689.6 48909.7,26696 48887.6,26676.9C48861,26654 48832,26636.1 48797.9,26633.8C48740.9,26629.8 48688.1,26652.4 48635.8,26674.7C48590.9,26693.7 48546.4,26712.8 48498.1,26705.1C48440.2,26695.7 48397.5,26661.9 48351.2,26634.2C48298.2,26602.5 48241.3,26577.5 48160,26591.5C48103.7,26601.2 48052,26627.8 47999.8,26652.2C47952.6,26674.4 47905.2,26695 47852.4,26694.9C47777.9,26694.8 47699.4,26650.9 47633.9,26620.7C47488.6,26553.8 47412.4,26522.7 47268.3,26590.9C47188.4,26628.6 46850.1,26788 46947.4,26827.4C47044.8,26866.8 47194.5,26624.5 47852.4,26827.4C48568.9,27048.3 48234.5,26843.5 48952,26870.9Z" style="fill:rgb(84,23,0);"/> </g> <g transform="matrix(-1.78381,0,0,0.577234,114992,-3540.89)"> <path d="M48952,26870.9C49345.3,26885.9 49512.4,26712.2 49559.9,26676.9C49638.8,26618.3 49354.6,26729.7 49300,26734C49167.4,26744.6 49081.6,26782.6 48972.5,26705.1C48950.6,26689.6 48909.7,26696 48887.6,26676.9C48861,26654 48832,26636.1 48797.9,26633.8C48740.9,26629.8 48688.1,26652.4 48635.8,26674.7C48590.9,26693.7 48546.4,26712.8 48498.1,26705.1C48440.2,26695.7 48397.5,26661.9 48351.2,26634.2C48298.2,26602.5 48241.3,26577.5 48160,26591.5C48103.7,26601.2 48052,26627.8 47999.8,26652.2C47952.6,26674.4 47905.2,26695 47852.4,26694.9C47777.9,26694.8 47699.4,26650.9 47633.9,26620.7C47488.6,26553.8 47412.4,26522.7 47268.3,26590.9C47188.4,26628.6 46850.1,26788 46947.4,26827.4C47044.8,26866.8 47194.5,26624.5 47852.4,26827.4C48568.9,27048.3 48234.5,26843.5 48952,26870.9Z" style="fill:rgb(84,57,0);"/> </g> <g transform="matrix(1.78381,0,0,0.729089,-58902.4,-8882.18)"> <path d="M48952,26870.9C49345.3,26885.9 49512.4,26712.2 49559.9,26676.9C49638.8,26618.3 49354.6,26729.7 49300,26734C49167.4,26744.6 49081.6,26782.6 48972.5,26705.1C48950.6,26689.6 48909.7,26696 48887.6,26676.9C48861,26654 48832,26636.1 48797.9,26633.8C48740.9,26629.8 48688.1,26652.4 48635.8,26674.7C48590.9,26693.7 48546.4,26712.8 48498.1,26705.1C48440.2,26695.7 48397.5,26661.9 48351.2,26634.2C48298.2,26602.5 48241.3,26577.5 48160,26591.5C48103.7,26601.2 48052,26627.8 47999.8,26652.2C47952.6,26674.4 47905.2,26695 47852.4,26694.9C47777.9,26694.8 47699.4,26650.9 47633.9,26620.7C47488.6,26553.8 47412.4,26522.7 47268.3,26590.9C47188.4,26628.6 46850.1,26788 46947.4,26827.4C47044.8,26866.8 47194.5,26624.5 47852.4,26827.4C48568.9,27048.3 48234.5,26843.5 48952,26870.9Z" style="fill:rgb(97,51,0);"/> </g> <g transform="matrix(-1.78381,0,0,0.577234,115555,-4776.7)"> <path d="M48952,26870.9C49345.3,26885.9 49512.4,26712.2 49559.9,26676.9C49638.8,26618.3 49354.6,26729.7 49300,26734C49167.4,26744.6 49081.6,26782.6 48972.5,26705.1C48950.6,26689.6 48909.7,26696 48887.6,26676.9C48861,26654 48832,26636.1 48797.9,26633.8C48740.9,26629.8 48688.1,26652.4 48635.8,26674.7C48590.9,26693.7 48546.4,26712.8 48498.1,26705.1C48440.2,26695.7 48397.5,26661.9 48351.2,26634.2C48298.2,26602.5 48241.3,26577.5 48160,26591.5C48103.7,26601.2 48052,26627.8 47999.8,26652.2C47952.6,26674.4 47905.2,26695 47852.4,26694.9C47777.9,26694.8 47699.4,26650.9 47633.9,26620.7C47488.6,26553.8 47412.4,26522.7 47268.3,26590.9C47188.4,26628.6 46850.1,26788 46947.4,26827.4C47044.8,26866.8 47194.5,26624.5 47852.4,26827.4C48568.9,27048.3 48234.5,26843.5 48952,26870.9Z" style="fill:rgb(84,37,0);"/> </g> </g> </g> </g> <defs> <radialGradient id="_Radial2" cx="0" cy="0" r="1" gradientUnits="userSpaceOnUse" gradientTransform="matrix(53.0018,-4696.26,4653.85,52.5231,28598.3,11426.7)"><stop offset="0" style="stop-color:rgb(233,185,35);stop-opacity:1"/><stop offset="1" style="stop-color:rgb(252,80,0);stop-opacity:1"/></radialGradient> <linearGradient id="_Linear3" x1="0" y1="0" x2="1" y2="0" gradientUnits="userSpaceOnUse" gradientTransform="matrix(13.8621,-2174.97,2174.97,13.8621,49243.4,24512)"><stop offset="0" style="stop-color:rgb(255,255,76);stop-opacity:1"/><stop offset="1" style="stop-color:rgb(252,80,0);stop-opacity:1"/></linearGradient> </defs> </svg>