<?xml version="1.0" encoding="UTF-8" standalone="no"?>
<!-- Created with Inkscape (http://www.inkscape.org/) -->

<svg
   version="1.1"
   id="svg1"
   width="364.87076"
   height="381.42664"
   viewBox="0 0 364.87076 381.42663"
   sodipodi:docname="activeFirefly2.svg"
   inkscape:version="1.2.2 (732a01da63, 2022-12-09)"
   xml:space="preserve"
   xmlns:inkscape="http://www.inkscape.org/namespaces/inkscape"
   xmlns:sodipodi="http://sodipodi.sourceforge.net/DTD/sodipodi-0.dtd"
   xmlns:xlink="http://www.w3.org/1999/xlink"
   xmlns="http://www.w3.org/2000/svg"
   xmlns:svg="http://www.w3.org/2000/svg"><defs
     id="defs1"><linearGradient
       inkscape:collect="always"
       id="linearGradient31766"><stop
         style="stop-color:#419c18;stop-opacity:1;"
         offset="0"
         id="stop31762" /><stop
         style="stop-color:#15711f;stop-opacity:1"
         offset="1"
         id="stop31764" /></linearGradient><linearGradient
       inkscape:collect="always"
       id="linearGradient58335"><stop
         style="stop-color:#63b324;stop-opacity:1"
         offset="0"
         id="stop58331" /><stop
         style="stop-color:#5aad18;stop-opacity:1"
         offset="1"
         id="stop58333" /></linearGradient><linearGradient
       inkscape:collect="always"
       id="linearGradient60620"><stop
         style="stop-color:#42a218;stop-opacity:1"
         offset="0"
         id="stop60616" /><stop
         style="stop-color:#198917;stop-opacity:1"
         offset="1"
         id="stop60618" /></linearGradient><clipPath
       clipPathUnits="userSpaceOnUse"
       id="clipPath36992"><g
         id="g36990"><g
           id="g36988"><g
             id="g36986"><g
               id="g36984"><g
                 id="g36982"><path
                   d="m -114.40301,351.32334 h 500 v -500 h -500 z"
                   id="path36980" /></g></g></g></g></g></clipPath><clipPath
       clipPathUnits="userSpaceOnUse"
       id="clipPath37006"><g
         id="g37004"><g
           id="g37002"><g
             id="g37000"><g
               id="g36998"><g
                 id="g36996"><path
                   d="m -114.40301,351.32334 h 500 v -500 h -500 z"
                   id="path36994" /></g></g></g></g></g></clipPath><clipPath
       clipPathUnits="userSpaceOnUse"
       id="clipPath37020"><g
         id="g37018"><g
           id="g37016"><g
             id="g37014"><g
               id="g37012"><g
                 id="g37010"><path
                   d="m -114.40301,351.32334 h 500 v -500 h -500 z"
                   id="path37008" /></g></g></g></g></g></clipPath><clipPath
       clipPathUnits="userSpaceOnUse"
       id="clipPath37034"><g
         id="g37032"><g
           id="g37030"><g
             id="g37028"><g
               id="g37026"><g
                 id="g37024"><path
                   d="m -114.40301,351.32334 h 500 v -500 h -500 z"
                   id="path37022" /></g></g></g></g></g></clipPath><clipPath
       clipPathUnits="userSpaceOnUse"
       id="clipPath37048"><g
         id="g37046"><g
           id="g37044"><g
             id="g37042"><g
               id="g37040"><g
                 id="g37038"><path
                   d="m -114.40301,351.32334 h 500 v -500 h -500 z"
                   id="path37036" /></g></g></g></g></g></clipPath><clipPath
       clipPathUnits="userSpaceOnUse"
       id="clipPath37062"><g
         id="g37060"><g
           id="g37058"><g
             id="g37056"><g
               id="g37054"><g
                 id="g37052"><path
                   d="m -114.40301,351.32334 h 500 v -500 h -500 z"
                   id="path37050" /></g></g></g></g></g></clipPath><clipPath
       clipPathUnits="userSpaceOnUse"
       id="clipPath37079"><g
         id="g37077"><g
           id="g37075"><g
             id="g37073"><path
               d="m 228.66201,385.526 c -60.807,0 -112.165,-40.435 -128.646,-95.895 v 0 -0.009 c -2.442,-8.175 -4.109,-16.683 -4.944,-25.429 v 0 c 6.594,-1.352 13.4,-2.125 20.354,-2.265 v 0 c 0.763,-0.018 1.536,-0.026 2.3,-0.026 v 0 c 2.572,0 5.128,0.087 7.657,0.263 v 0 c 8.685,0.579 17.096,2.16 25.122,4.61 v 0 c 2.923,0.896 5.795,1.906 8.614,3.03 v 0 c 2.555,1.018 5.057,2.125 7.516,3.318 v 0 c 8.078,3.917 15.603,8.781 22.452,14.436 v 0 c 0,0.009 0.009,0.009 0.009,0.017 v 0 c 22.725,18.8 37.898,46.398 40.313,77.578 v 0 c 0.043,0.571 0.079,1.133 0.114,1.704 v 0 c 0.149,2.335 0.219,4.689 0.219,7.06 v 0 c 0,1.528 -0.026,3.046 -0.096,4.557 v 0 c -0.018,0.501 -0.035,1.001 -0.062,1.501 v 0 c -0.105,1.862 -0.245,3.715 -0.439,5.55 v 0 z"
               id="path37071" /></g></g></g></clipPath><clipPath
       clipPathUnits="userSpaceOnUse"
       id="clipPath37093"><g
         id="g37091"><g
           id="g37089"><g
             id="g37087"><g
               id="g37085"><g
                 id="g37083"><path
                   d="M 0,500 H 500 V 0 H 0 Z"
                   id="path37081" /></g></g></g></g></g></clipPath><clipPath
       clipPathUnits="userSpaceOnUse"
       id="clipPath37114"><g
         id="g37112"><g
           id="g37110"><g
             id="g37108"><g
               id="g37106"><g
                 id="g37104"><path
                   d="M 0,500 H 500 V 0 H 0 Z"
                   id="path37102" /></g></g></g></g></g></clipPath><clipPath
       clipPathUnits="userSpaceOnUse"
       id="clipPath37131"><g
         id="g37129"><g
           id="g37127"><g
             id="g37125"><path
               d="m 247.6525,273.91903 c -7.841,-1.624 -15.551,-3.889 -22.953,-6.937 v 0 c -51.569,-21.214 -87.869,-71.949 -87.869,-131.176 v 0 c 0,-3.503 0.131,-6.98 0.378,-10.423 v 0 c 0.104,-1.421 0.228,-2.836 0.368,-4.249 v 0 c 0.931,-0.14 1.862,-0.263 2.801,-0.378 v 0 c 4.075,-0.5 8.22,-0.754 12.433,-0.754 v 0 c 56.128,0 101.62,45.492 101.62,101.61 v 0 53.712 z"
               id="path37123" /></g></g></g></clipPath><linearGradient
       inkscape:collect="always"
       xlink:href="#linearGradient20826"
       id="linearGradient34457"
       gradientUnits="userSpaceOnUse"
       x1="249.48456"
       y1="371.09988"
       x2="249.03084"
       y2="195.05632" /><linearGradient
       x1="0"
       y1="0"
       x2="1"
       y2="0"
       gradientUnits="userSpaceOnUse"
       gradientTransform="matrix(0,177.09891,177.09891,0,250.19933,193.70145)"
       spreadMethod="pad"
       id="linearGradient20826"><stop
         style="stop-opacity:1;stop-color:#116820"
         offset="0"
         id="stop20820" /><stop
         style="stop-opacity:1;stop-color:#ddd81f"
         offset="0.87613255"
         id="stop20822" /><stop
         style="stop-opacity:1;stop-color:#bec616"
         offset="1"
         id="stop20824" /></linearGradient><linearGradient
       inkscape:collect="always"
       xlink:href="#linearGradient103869"
       id="linearGradient101101"
       gradientUnits="userSpaceOnUse"
       x1="253.11432"
       y1="210.48282"
       x2="250.392"
       y2="373.3685" /><linearGradient
       x1="0"
       y1="0"
       x2="1"
       y2="0"
       gradientUnits="userSpaceOnUse"
       gradientTransform="matrix(0,158.59785,158.59785,0,250.19933,212.20248)"
       spreadMethod="pad"
       id="linearGradient103869"><stop
         style="stop-opacity:1;stop-color:#beca1b"
         offset="0"
         id="stop103863" /><stop
         style="stop-opacity:1;stop-color:#106421"
         offset="0.7223978"
         id="stop103865" /><stop
         style="stop-opacity:1;stop-color:#146e1f"
         offset="1"
         id="stop103867" /></linearGradient><linearGradient
       inkscape:collect="always"
       xlink:href="#linearGradient20804"
       id="linearGradient16671"
       gradientUnits="userSpaceOnUse"
       x1="251.75316"
       y1="181.4447"
       x2="249.93828"
       y2="367.47012"
       gradientTransform="translate(0.64165772,0.64165772)" /><linearGradient
       x1="0"
       y1="0"
       x2="1"
       y2="0"
       gradientUnits="userSpaceOnUse"
       gradientTransform="matrix(0,193.49254,193.49254,0,250.19984,177.3078)"
       spreadMethod="pad"
       id="linearGradient20804"><stop
         style="stop-opacity:1;stop-color:#d1d01b"
         offset="0"
         id="stop20798" /><stop
         style="stop-opacity:1;stop-color:#dbd520"
         offset="0.20091254"
         id="stop20800" /><stop
         style="stop-opacity:1;stop-color:#106222"
         offset="1"
         id="stop20802" /></linearGradient><linearGradient
       inkscape:collect="always"
       xlink:href="#linearGradient60620"
       id="linearGradient38648"
       gradientUnits="userSpaceOnUse"
       gradientTransform="matrix(1.3333333,0,0,-1.3333333,-161.35351,569.88132)"
       x1="134.24507"
       y1="234.64374"
       x2="248.46013"
       y2="380.94171" /><linearGradient
       inkscape:collect="always"
       xlink:href="#linearGradient58335"
       id="linearGradient38650"
       gradientUnits="userSpaceOnUse"
       x1="132.96176"
       y1="230.15213"
       x2="252.31009"
       y2="378.37506"
       gradientTransform="matrix(1.3333333,0,0,-1.3333333,-161.85863,569.39256)" /><linearGradient
       inkscape:collect="always"
       xlink:href="#linearGradient31766"
       id="linearGradient38652"
       gradientUnits="userSpaceOnUse"
       gradientTransform="matrix(1.3333333,0,0,-1.3333333,-160.11511,573.24251)"
       x1="116.09072"
       y1="266.74417"
       x2="256.74408"
       y2="387.43384" /><linearGradient
       inkscape:collect="always"
       xlink:href="#linearGradient60620"
       id="linearGradient64120"
       gradientUnits="userSpaceOnUse"
       gradientTransform="matrix(1.3333333,0,0,-1.3333333,-161.35351,569.88132)"
       x1="134.24507"
       y1="234.64374"
       x2="248.46013"
       y2="380.94171" /><linearGradient
       inkscape:collect="always"
       xlink:href="#linearGradient58335"
       id="linearGradient64122"
       gradientUnits="userSpaceOnUse"
       gradientTransform="matrix(1.3333333,0,0,-1.3333333,-161.85863,569.39256)"
       x1="132.96176"
       y1="230.15213"
       x2="252.31009"
       y2="378.37506" /><linearGradient
       inkscape:collect="always"
       xlink:href="#linearGradient31766"
       id="linearGradient64124"
       gradientUnits="userSpaceOnUse"
       gradientTransform="matrix(1.3333333,0,0,-1.3333333,-160.11511,573.24251)"
       x1="116.09072"
       y1="266.74417"
       x2="256.74408"
       y2="387.43384" /></defs><sodipodi:namedview
     id="namedview1"
     pagecolor="#ffffff"
     bordercolor="#cccccc"
     borderopacity="1"
     inkscape:showpageshadow="0"
     inkscape:pageopacity="1"
     inkscape:pagecheckerboard="0"
     inkscape:deskcolor="#d1d1d1"
     showgrid="false"
     inkscape:zoom="0.4870198"
     inkscape:cx="-670.40396"
     inkscape:cy="129.35819"
     inkscape:window-width="1366"
     inkscape:window-height="705"
     inkscape:window-x="-8"
     inkscape:window-y="32"
     inkscape:window-maximized="1"
     inkscape:current-layer="g1" /><g
     inkscape:groupmode="layer"
     inkscape:label="Image"
     id="g1"
     transform="translate(10.552383,5.9285923)"><g
       id="g43134"><path
         d="m 316.3248,211.5309 c 0,-36.512 -29.599,-66.11 -66.11,-66.11 -36.512,0 -66.11,29.598 -66.11,66.11 0,36.512 29.598,66.11 66.11,66.11 36.511,0 66.11,-29.598 66.11,-66.11"
         style="opacity:0.363118;fill:#3ea018;fill-opacity:1;fill-rule:nonzero;stroke:none"
         id="path20650"
         clip-path="none"
         transform="matrix(1.3333333,0,0,-1.3333333,-161.85863,569.39256)" /><path
         d="m 296.6373,211.5309 c 0,-25.639 -20.784,-46.423 -46.423,-46.423 -25.639,0 -46.423,20.784 -46.423,46.423 0,25.639 20.784,46.423 46.423,46.423 25.639,0 46.423,-20.784 46.423,-46.423"
         style="opacity:0.363118;fill:#3ea018;fill-opacity:1;fill-rule:nonzero;stroke:none"
         id="path20666"
         clip-path="none"
         transform="matrix(1.3333333,0,0,-1.3333333,-161.85863,569.39256)" /></g><g
       id="g34988"
       transform="matrix(1.3333333,0,0,-1.3333333,-161.85863,569.39256)"><g
         id="g34986"><g
           id="g34984"><g
             clip-path="url(#clipPath20776)"
             opacity="0.160004"
             id="g34982"
             style="fill:#126324;fill-opacity:1"><g
               transform="translate(285.2809,372.4162)"
               id="g34980"
               style="fill:#126324;fill-opacity:1"><path
                 d="m 0,0 c 0,-18.519 -15.647,-33.534 -34.947,-33.534 -19.301,0 -34.948,15.015 -34.948,33.534 0,9.044 3.724,17.254 9.791,23.269 6.401,-5.33 15.867,-8.702 26.421,-8.702 9.79,0 18.642,2.898 24.982,7.578 C -3.284,16.244 0,8.491 0,0"
                 style="fill:#126324;fill-opacity:1;fill-rule:nonzero;stroke:none"
                 id="path34978" /></g></g></g></g></g><g
       id="g35188"
       transform="matrix(1.3333333,0,0,-1.3333333,-161.85863,569.39256)"><g
         id="g35186"><g
           id="g35184"><g
             id="g35182"><g
               id="g35180" /></g></g></g></g><g
       id="g35121"
       transform="matrix(1.3333333,0,0,-1.3333333,-161.85863,569.39256)"><g
         id="g35119"><g
           id="g35117"><g
             id="g35115"><g
               id="g35113" /></g></g></g></g><path
       d="m 240.85166,371.44266 -21.074,-116.012 c -1.326,-7.297 -2.24,-14.672 -2.722,-22.074 v 0 l -0.282,-4.189 c -0.64,-9.73 1.151,-19.467 5.208,-28.336 v 0 c 0.131,-0.28 0.254,-0.553 0.395,-0.825 v 0 c 1.071,-2.196 2.353,-4.276 3.828,-6.217 v 0 c 1.651,-2.178 3.547,-4.171 5.655,-5.944 v 0 l 5.857,-4.926 c 2.3,-1.932 4.987,-3.372 7.867,-4.215 v 0 c 1.546,-0.457 3.126,-0.703 4.715,-0.746 v 0 c 0.185,-0.009 0.369,-0.009 0.554,-0.009 v 0 c 1.703,0 3.398,0.228 5.057,0.694 v 0 l 0.193,0.061 c 2.88,0.843 5.568,2.283 7.867,4.215 v 0 l 5.858,4.926 c 4.013,3.381 7.271,7.569 9.545,12.293 v 0 c 0.113,0.228 0.228,0.457 0.333,0.693 v 0 c 3.522,7.693 5.331,16.043 5.331,24.472 v 0 c 0,1.291 -0.036,2.573 -0.124,3.864 v 0 l -0.281,4.189 c -0.483,7.402 -1.395,14.777 -2.722,22.074 v 0 l -21.074,116.012 z"
       style="fill:url(#linearGradient16671);fill-opacity:1;stroke:none"
       id="path20806"
       clip-path="none"
       transform="matrix(1.3333333,0,0,-1.3333333,-161.85863,569.39256)" /><g
       id="g35272"
       transform="matrix(1.3333333,0,0,-1.3333333,-161.85863,569.39256)"
       style="fill:#c9d41b;fill-opacity:1"><g
         id="g35270"
         style="fill:#c9d41b;fill-opacity:1"><g
           id="g35268"
           style="fill:#c9d41b;fill-opacity:1"><path
             d="m 240.85166,371.44266 -21.074,-116.012 c -1.326,-7.297 -2.24,-14.672 -2.722,-22.074 v 0 l -0.282,-4.189 c -0.64,-9.73 1.151,-19.467 5.208,-28.336 v 0 c 0.131,-0.28 0.254,-0.553 0.395,-0.825 v 0 c 1.071,-2.196 2.353,-4.276 3.828,-6.217 v 0 c 1.651,-2.178 3.547,-4.171 5.655,-5.944 v 0 l 5.857,-4.926 c 2.3,-1.932 4.987,-3.372 7.867,-4.215 v 0 c 1.546,-0.457 3.126,-0.703 4.715,-0.746 v 0 c 0.185,-0.009 0.369,-0.009 0.554,-0.009 v 0 c 1.703,0 3.398,0.228 5.057,0.694 v 0 l 0.193,0.061 c 2.88,0.843 5.568,2.283 7.867,4.215 v 0 l 5.858,4.926 c 4.013,3.381 7.271,7.569 9.545,12.293 v 0 c 0.113,0.228 0.228,0.457 0.333,0.693 v 0 c 3.522,7.693 5.331,16.043 5.331,24.472 v 0 c 0,1.291 -0.036,2.573 -0.124,3.864 v 0 l -0.281,4.189 c -0.483,7.402 -1.395,14.777 -2.722,22.074 v 0 l -21.074,116.012 z"
             id="path35266"
             style="fill:#c9d41b;fill-opacity:1" /></g></g></g><path
       d="M 240.21,370.801 219.136,254.789 c -1.133,-6.234 -1.968,-12.53 -2.485,-18.843 v 0 c -0.089,-1.08 -0.167,-2.151 -0.237,-3.231 v 0 l -0.282,-4.189 c -0.227,-3.424 -0.148,-6.849 0.22,-10.238 v 0 c 10.589,-3.942 21.935,-6.085 33.727,-6.085 v 0 c 11.889,0 23.313,2.178 33.973,6.181 v 0 c 0.228,2.082 0.343,4.18 0.343,6.278 v 0 c 0,1.291 -0.036,2.573 -0.124,3.864 v 0 l -0.281,4.189 c -0.071,1.097 -0.149,2.186 -0.245,3.284 v 0 c -0.519,6.295 -1.344,12.573 -2.477,18.79 v 0 l -21.074,116.012 z"
       style="fill:url(#linearGradient101101);fill-opacity:1;stroke:none"
       id="path20850"
       clip-path="none"
       transform="matrix(1.3333333,0,0,-1.3333333,-161.85863,569.39256)" /><g
       id="g35315"
       transform="matrix(1.3333333,0,0,-1.3333333,-161.85863,569.39256)"><g
         id="g35313"><g
           id="g35311"><path
             d="M 240.21,370.801 219.136,254.789 c -1.133,-6.234 -1.968,-12.53 -2.485,-18.843 v 0 c -0.089,-1.08 -0.167,-2.151 -0.237,-3.231 v 0 l -0.282,-4.189 c -0.227,-3.424 -0.148,-6.849 0.22,-10.238 v 0 c 10.589,-3.942 21.935,-6.085 33.727,-6.085 v 0 c 11.889,0 23.313,2.178 33.973,6.181 v 0 c 0.228,2.082 0.343,4.18 0.343,6.278 v 0 c 0,1.291 -0.036,2.573 -0.124,3.864 v 0 l -0.281,4.189 c -0.071,1.097 -0.149,2.186 -0.245,3.284 v 0 c -0.519,6.295 -1.344,12.573 -2.477,18.79 v 0 l -21.074,116.012 z"
             id="path35309" /></g></g></g><g
       id="g35404"
       transform="matrix(1.3333333,0,0,-1.3333333,-161.85863,569.39256)"
       style="fill:#e7e425;fill-opacity:1"><g
         id="g35402"
         style="fill:#e7e425;fill-opacity:1"><g
           id="g35400"
           style="fill:#e7e425;fill-opacity:1"><path
             d="M 240.21,370.801 219.136,254.789 c -1.326,-7.297 -2.24,-14.672 -2.722,-22.074 v 0 l -0.282,-4.189 c -0.227,-3.424 -0.148,-6.849 0.22,-10.238 v 0 c 0.686,-6.244 2.362,-12.354 4.988,-18.098 v 0 c 0.131,-0.28 0.254,-0.553 0.395,-0.825 v 0 c 8.93,-3.679 18.457,-5.663 28.344,-5.663 v 0 c 10.002,0 19.634,2.037 28.652,5.795 v 0 c 0.113,0.228 0.228,0.457 0.333,0.693 v 0 c 2.643,5.779 4.321,11.916 4.988,18.194 v 0 c 0.228,2.082 0.343,4.18 0.343,6.278 v 0 c 0,1.291 -0.036,2.573 -0.124,3.864 v 0 l -0.281,4.189 c -0.483,7.402 -1.395,14.777 -2.722,22.074 v 0 l -21.074,116.012 z"
             id="path35398"
             style="fill:#e7e425;fill-opacity:1" /></g></g></g><path
       d="M 240.21,370.801 219.136,254.789 c -1.326,-7.297 -2.24,-14.672 -2.722,-22.074 v 0 l -0.282,-4.189 c -0.227,-3.424 -0.148,-6.849 0.22,-10.238 v 0 c 0.686,-6.244 2.362,-12.354 4.988,-18.098 v 0 c 0.131,-0.28 0.254,-0.553 0.395,-0.825 v 0 c 8.93,-3.679 18.457,-5.663 28.344,-5.663 v 0 c 10.002,0 19.634,2.037 28.652,5.795 v 0 c 0.113,0.228 0.228,0.457 0.333,0.693 v 0 c 2.643,5.779 4.321,11.916 4.988,18.194 v 0 c 0.228,2.082 0.343,4.18 0.343,6.278 v 0 c 0,1.291 -0.036,2.573 -0.124,3.864 v 0 l -0.281,4.189 c -0.483,7.402 -1.395,14.777 -2.722,22.074 v 0 l -21.074,116.012 z"
       style="fill:url(#linearGradient34457);fill-opacity:1;stroke:none"
       id="path20828"
       clip-path="none"
       transform="matrix(1.3333333,0,0,-1.3333333,-161.85863,569.39256)" /><path
       d="m 277.535,430.342 c -2.292,-2.003 -4.518,-4.069 -6.478,-6.372 v 0 c -2.014,-2.249 -3.791,-4.69 -5.414,-7.204 v 0 c -1.632,-2.512 -3.036,-5.158 -4.256,-7.873 v 0 c -1.216,-2.731 -2.243,-5.482 -2.954,-8.454 v 0 c -0.114,-0.485 0.156,-0.992 0.636,-1.156 v 0 c 0.513,-0.175 1.071,0.098 1.245,0.611 v 0 l 0.021,0.06 c 0.892,2.613 2.146,5.234 3.537,7.689 v 0 c 1.4,2.467 2.96,4.839 4.711,7.049 v 0 c 1.745,2.213 3.608,4.324 5.662,6.222 v 0 c 2.003,1.953 4.225,3.646 6.468,5.268 v 0 l 0.09,0.066 c 0.063,0.046 0.125,0.096 0.184,0.148 v 0 c 1.09,0.953 1.201,2.609 0.247,3.7 v 0 c -0.518,0.592 -1.244,0.895 -1.974,0.895 v 0 c -0.612,0 -1.228,-0.213 -1.725,-0.649"
       style="fill:#127316;fill-opacity:1;stroke:#30ae14;stroke-width:0.99975;stroke-dasharray:none;stroke-opacity:1"
       id="path20692"
       clip-path="none"
       transform="matrix(1.3333333,0,0,-1.3333333,-161.85863,569.39256)" /><g
       id="g35253"
       transform="matrix(1.3333333,0,0,-1.3333333,-161.85863,569.39256)"
       style="fill:#19821e;fill-opacity:1"><g
         id="g35251"
         style="fill:#19821e;fill-opacity:1"><g
           id="g35249"
           style="fill:#19821e;fill-opacity:1"><path
             d="m 277.535,430.342 c -2.292,-2.003 -4.518,-4.069 -6.478,-6.372 v 0 c -2.014,-2.249 -3.791,-4.69 -5.414,-7.204 v 0 c -1.632,-2.512 -3.036,-5.158 -4.256,-7.873 v 0 c -1.216,-2.731 -2.243,-5.482 -2.954,-8.454 v 0 c -0.114,-0.485 0.156,-0.992 0.636,-1.156 v 0 c 0.513,-0.175 1.071,0.098 1.245,0.611 v 0 l 0.021,0.06 c 0.892,2.613 2.146,5.234 3.537,7.689 v 0 c 1.4,2.467 2.96,4.839 4.711,7.049 v 0 c 1.745,2.213 3.608,4.324 5.662,6.222 v 0 c 2.003,1.953 4.225,3.646 6.468,5.268 v 0 l 0.09,0.066 c 0.063,0.046 0.125,0.096 0.184,0.148 v 0 c 1.09,0.953 1.201,2.609 0.247,3.7 v 0 c -0.518,0.592 -1.244,0.895 -1.974,0.895 v 0 c -0.612,0 -1.228,-0.213 -1.725,-0.649"
             id="path35247"
             style="fill:#19821e;fill-opacity:1" /></g></g></g><path
       d="m 219.031,430.096 c -0.954,-1.091 -0.843,-2.747 0.247,-3.7 v 0 c 0.06,-0.052 0.121,-0.102 0.184,-0.148 v 0 l 0.091,-0.066 c 2.241,-1.622 4.465,-3.315 6.467,-5.268 v 0 c 2.054,-1.898 3.917,-4.009 5.662,-6.222 v 0 c 1.752,-2.21 3.312,-4.582 4.712,-7.049 v 0 c 1.39,-2.455 2.644,-5.076 3.536,-7.689 v 0 l 0.021,-0.06 c 0.174,-0.513 0.731,-0.786 1.244,-0.611 v 0 c 0.482,0.164 0.751,0.671 0.637,1.156 v 0 c -0.711,2.972 -1.738,5.723 -2.954,8.454 v 0 c -1.22,2.715 -2.623,5.361 -4.255,7.873 v 0 c -1.625,2.514 -3.401,4.955 -5.415,7.204 v 0 c -1.961,2.303 -4.186,4.369 -6.478,6.372 v 0 c -0.497,0.436 -1.113,0.649 -1.725,0.649 v 0 c -0.73,0 -1.456,-0.303 -1.974,-0.895"
       style="fill:#127316;fill-opacity:1;stroke:#30ae14;stroke-width:0.99975;stroke-dasharray:none;stroke-opacity:1"
       id="path20712"
       clip-path="none"
       transform="matrix(1.3333333,0,0,-1.3333333,-161.85863,569.39256)" /><g
       id="g35207"
       transform="matrix(1.3333333,0,0,-1.3333333,-161.85863,569.39256)"
       style="fill:#19831e;fill-opacity:0.996078"><g
         id="g35205"
         style="fill:#19831e;fill-opacity:0.996078"><g
           id="g35203"
           style="fill:#19831e;fill-opacity:0.996078"><path
             d="m 219.031,430.096 c -0.954,-1.091 -0.843,-2.747 0.247,-3.7 v 0 c 0.06,-0.052 0.121,-0.102 0.184,-0.148 v 0 l 0.091,-0.066 c 2.241,-1.622 4.465,-3.315 6.467,-5.268 v 0 c 2.054,-1.898 3.917,-4.009 5.662,-6.222 v 0 c 1.752,-2.21 3.312,-4.582 4.712,-7.049 v 0 c 1.39,-2.455 2.644,-5.076 3.536,-7.689 v 0 l 0.021,-0.06 c 0.174,-0.513 0.731,-0.786 1.244,-0.611 v 0 c 0.482,0.164 0.751,0.671 0.637,1.156 v 0 c -0.711,2.972 -1.738,5.723 -2.954,8.454 v 0 c -1.22,2.715 -2.623,5.361 -4.255,7.873 v 0 c -1.625,2.514 -3.401,4.955 -5.415,7.204 v 0 c -1.961,2.303 -4.186,4.369 -6.478,6.372 v 0 c -0.497,0.436 -1.113,0.649 -1.725,0.649 v 0 c -0.73,0 -1.456,-0.303 -1.974,-0.895"
             id="path35201"
             style="fill:#19831e;fill-opacity:0.996078" /></g></g></g><path
       d="m 249.122,405.941 c -18.738,-0.614 -33.736,-15.384 -33.736,-33.525 v 0 c 0,-18.211 15.129,-33.033 33.981,-33.525 v 0 c 0.325,-0.009 0.642,-0.009 0.966,-0.009 v 0 c 19.301,0 34.948,15.016 34.948,33.534 v 0 c 0,18.528 -15.647,33.542 -34.948,33.542 v 0 c -0.403,0 -0.807,-0.009 -1.211,-0.017"
       style="fill:#146f1f;fill-opacity:1;stroke:none"
       id="path20744"
       clip-path="none"
       transform="matrix(1.3333333,0,0,-1.3333333,-161.85863,569.39256)" /><g
       id="g35334"
       transform="matrix(1.3333333,0,0,-1.3333333,-161.85863,569.39256)"
       style="fill:#0c6619;fill-opacity:1"><g
         id="g35332"
         style="fill:#0c6619;fill-opacity:1"><g
           id="g35330"
           style="fill:#0c6619;fill-opacity:1"><path
             d="m 249.122,405.941 c -18.738,-0.614 -33.736,-15.384 -33.736,-33.525 v 0 c 0,-18.211 15.129,-33.033 33.981,-33.525 v 0 c 0.325,-0.009 0.642,-0.009 0.966,-0.009 v 0 c 19.301,0 34.948,15.016 34.948,33.534 v 0 c 0,18.528 -15.647,33.542 -34.948,33.542 v 0 c -0.403,0 -0.807,-0.009 -1.211,-0.017"
             id="path35328"
             style="fill:#0c6619;fill-opacity:1" /></g></g></g><path
       d="m 249.6574,177.3171 c -1.589,0.043 -3.17,0.289 -4.715,0.746 -2.88,0.843 -5.567,2.283 -7.868,4.215 l -5.856,4.926 c -2.108,1.773 -4.004,3.766 -5.655,5.944 -1.475,1.94 -2.758,4.022 -3.829,6.217 -0.14,0.272 -0.263,0.545 -0.395,0.825 -4.057,8.869 -5.848,18.606 -5.207,28.336 l 0.281,4.188 c 0.483,7.403 1.396,14.778 2.723,22.075 l 21.073,116.011 h 9.097 c 0.018,-68.788 0.264,-161.232 0.351,-193.483"
       style="opacity:0.190002;fill:#53a61d;fill-opacity:0.996078;fill-rule:nonzero;stroke:none"
       id="path20890"
       clip-path="none"
       transform="matrix(1.3333333,0,0,-1.3333333,-161.85863,569.39256)" /><g
       id="g35361"
       transform="matrix(1.3333333,0,0,-1.3333333,-161.85863,569.39256)"><g
         id="g35359"><g
           id="g35357"><g
             id="g35355"><g
               id="g35353" /></g></g></g></g><path
       d="m 274.483,225.0427 c 0,-22.273 -10.865,-40.329 -24.269,-40.329 -13.402,0 -24.268,18.056 -24.268,40.329 0,22.272 10.866,40.328 24.268,40.328 13.404,0 24.269,-18.056 24.269,-40.328"
       style="opacity:0.0899963;fill:#e6e424;fill-opacity:1;fill-rule:nonzero;stroke:none"
       id="path20906"
       clip-path="none"
       transform="matrix(1.3333333,0,0,-1.3333333,-161.85863,569.39256)" /><g
       id="g35431"
       transform="matrix(1.3333333,0,0,-1.3333333,-161.85863,569.39256)"><g
         id="g35429"><g
           id="g35427"><g
             id="g35425"><g
               id="g35423" /></g></g></g></g><path
       d="m 264.5953,225.0427 c 0,-15.853 -6.438,-28.703 -14.381,-28.703 -7.942,0 -14.38,12.85 -14.38,28.703 0,15.852 6.438,28.703 14.38,28.703 7.943,0 14.381,-12.851 14.381,-28.703"
       style="opacity:0.160004;fill:#efe927;fill-opacity:0.996078;fill-rule:nonzero;stroke:none"
       id="path20922"
       clip-path="none"
       transform="matrix(1.3333333,0,0,-1.3333333,-161.85863,569.39256)" /><g
       id="g35458"
       transform="matrix(1.3333333,0,0,-1.3333333,-161.85863,569.39256)"><g
         id="g35456"><g
           id="g35454"><g
             id="g35452"><g
               id="g35450" /></g></g></g></g><path
       d="m 282.3571,248.0983 c -26.229,21.337 -32.665,48.54 -32.665,48.54 -3.81,-22.733 -21.837,-40.743 -31.742,-49.111 0.351,2.424 0.746,4.847 1.186,7.262 l 21.074,116.011 h 19.984 l 21.074,-116.011 c 0.404,-2.222 0.773,-4.452 1.089,-6.691"
       style="opacity:0.160004;fill:#15741d;fill-opacity:1;fill-rule:nonzero;stroke:none"
       id="path20938"
       clip-path="none"
       transform="matrix(1.3333333,0,0,-1.3333333,-161.85863,569.39256)" /><g
       id="g35234"
       transform="matrix(1.3333333,0,0,-1.3333333,-161.85863,569.39256)"><g
         id="g35232"><g
           id="g35230"><g
             id="g35228"><g
               id="g35226" /></g></g></g></g><path
       id="path20762"
       clip-path="none"
       style="opacity:0.0613383;fill:#ffffff;fill-opacity:1;fill-rule:nonzero;stroke:none;stroke-width:1.33333"
       d="m 144.07537,36.987908 c -11.37679,8.153981 -18.75196,21.168791 -18.75196,35.849609 0,24.282642 20.17129,44.043223 45.3086,44.699223 -0.0836,-21.659842 -0.17594,-46.397879 -0.25977,-70.953129 a 32.595604,20.145191 0 0 1 -26.29687,-9.595703 z" /><g
       id="g64096"
       transform="translate(-4.6199354)"><path
         d="m 162.53182,60.893336 c -10.45467,2.165333 -20.73467,5.185333 -30.604,9.249333 v 0 C 63.169151,98.428002 14.769152,166.07467 14.769152,245.044 v 0 c 0,4.67066 0.174667,9.30666 0.504,13.89733 v 0 c 0.138667,1.89467 0.304,3.78133 0.490667,5.66533 v 0 c 1.241333,0.18667 2.482666,0.35067 3.734666,0.504 v 0 c 5.433334,0.66667 10.96,1.00534 16.577333,1.00534 v 0 c 74.837332,0 135.493332,-60.656 135.493332,-135.48 v 0 -71.615997 z"
         style="fill:url(#linearGradient38648);fill-opacity:1;stroke:none;stroke-width:1.33333"
         id="path20966"
         clip-path="none" /><path
         d="m 171.0647,58.530973 -4.62,13.829333 C 139.86336,151.9043 86.40603,219.7083 15.259366,264.11763 c -0.188,-1.88533 -0.352,-3.77066 -0.492,-5.66666 -0.328,-4.58934 -0.504,-9.22534 -0.504,-13.896 0,-78.96933 48.399998,-146.615998 117.159994,-174.901331 9.86934,-4.062666 20.148,-7.084 30.60267,-9.249333 z"
         style="fill:url(#linearGradient38650);fill-opacity:1;fill-rule:nonzero;stroke:none;stroke-width:1.33333"
         id="path20984"
         clip-path="none" /><path
         d="m 171.439,59.172633 v 71.615997 c 0,74.824 -60.65734,135.48 -135.493335,135.48 -5.618666,0 -11.145333,-0.33867 -16.577333,-1.00667 -1.253333,-0.152 -2.493333,-0.316 -3.734666,-0.50267 -0.07067,-0.73733 -0.14,-1.46266 -0.198667,-2.20133 0.913333,0.12933 1.837333,0.24667 2.762667,0.364 5.431999,0.66667 10.958666,1.00533 16.577332,1.00533 74.836002,0 135.493332,-60.65599 135.493332,-135.47999 V 59.419299 Z"
         style="opacity:0.449997;fill:#4dad16;fill-opacity:1;fill-rule:nonzero;stroke:none;stroke-width:1.33333"
         id="path21000"
         clip-path="none" /><path
         d="m 172.18755,59.207856 c -81.075996,0 -149.553327,53.913334 -171.52799333,127.859994 v 0 0.012 c -3.25599997,10.9 -5.47866657,22.244 -6.59199987,33.90534 v 0 c 8.7919998,1.80266 17.8666662,2.83333 27.1386662,3.02 v 0 c 1.017333,0.024 2.048,0.0347 3.066666,0.0347 v 0 c 3.429334,0 6.837334,-0.116 10.209333,-0.35066 v 0 c 11.58,-0.772 22.794667,-2.88 33.496,-6.14667 v 0 c 3.897333,-1.19467 7.726666,-2.54133 11.485333,-4.04 v 0 c 3.406666,-1.35733 6.742666,-2.83333 10.021333,-4.424 v 0 c 10.770662,-5.22267 20.804002,-11.708 29.936002,-19.248 v 0 c 0,-0.012 0.012,-0.012 0.012,-0.0227 v 0 c 30.3,-25.06666 50.53066,-61.864 53.75066,-103.437328 v 0 c 0.0573,-0.761333 0.10534,-1.510666 0.152,-2.272 v 0 c 0.19867,-3.113333 0.292,-6.252 0.292,-9.413333 v 0 c 0,-2.037333 -0.0347,-4.061333 -0.128,-6.076 v 0 c -0.024,-0.668 -0.0467,-1.334666 -0.0827,-2.001333 v 0 c -0.14,-2.482667 -0.32667,-4.953333 -0.58534,-7.4 v 0 z"
         style="fill:url(#linearGradient38652);fill-opacity:1;stroke:none;stroke-width:1.33333"
         id="path21138"
         clip-path="none" /><path
         d="m 173.62755,74.685121 c 0,3.161333 -0.0933,6.298666 -0.292,9.413333 -0.0467,0.76 -0.0947,1.509333 -0.152,2.270667 -3.22133,41.574669 -23.45067,78.371999 -53.75067,103.437329 0,0.012 -0.012,0.012 -0.012,0.024 -9.132,7.54 -19.16533,14.02533 -29.935996,19.24667 -3.278667,1.592 -6.614667,3.068 -10.022667,4.42533 -3.757333,1.49867 -7.585333,2.84533 -11.483999,4.04 -10.701333,3.26667 -21.917333,5.37333 -33.496,6.14667 -3.372,0.23333 -6.778666,0.35066 -10.209333,0.35066 -1.018666,0 -2.049333,-0.012 -3.066666,-0.0347 -9.273333,-0.188 -18.3466665,-1.21734 -27.1386662,-3.02134 1.1119999,-11.66 3.3359999,-23.00533 6.59066646,-33.90533 v -0.0107 C 22.634219,113.12112 91.11155,59.207788 172.18755,59.207788 h 0.644 c 0.25733,2.446667 0.44533,4.917333 0.58533,7.398666 0.0347,0.668 0.0587,1.334667 0.0813,2.002667 0.0947,2.013333 0.12934,4.038667 0.12934,6.076"
         style="fill:#288f19;fill-opacity:1;fill-rule:nonzero;stroke:none;stroke-width:1.33333"
         id="path21156"
         clip-path="none" /><path
         d="m 173.62755,74.685121 c 0,3.161333 -0.0933,6.298666 -0.292,9.413333 -0.0467,0.76 -0.0947,1.509333 -0.152,2.270667 -3.22133,41.574669 -23.45067,78.371999 -53.75067,103.437329 0,0.012 -0.012,0.012 -0.012,0.024 -9.132,7.54 -19.16533,14.02533 -29.935996,19.24667 0.278666,-0.448 0.553333,-0.89467 0.825333,-1.34267 23.868003,-39.41066 -26.655999,-81.71466 -61.074665,-51.084 -18.06,16.072 -28.57733274,30.41733 -28.57733274,30.41733 C 22.634219,113.12112 91.11155,59.207788 172.18755,59.207788 h 0.644 c 0.25733,2.446667 0.44533,4.917333 0.58533,7.398666 0.0347,0.668 0.0587,1.334667 0.0813,2.002667 0.0947,2.013333 0.12934,4.038667 0.12934,6.076"
         style="fill:#1d7f1b;fill-opacity:1;fill-rule:nonzero;stroke:none;stroke-width:1.33333"
         id="path21172"
         clip-path="none" /><path
         d="m 173.62755,74.685121 c 0,3.161333 -0.0933,6.298666 -0.292,9.413333 -0.0467,0.76 -0.0947,1.509333 -0.152,2.270667 -3.22133,41.574669 -23.45067,78.371999 -53.75067,103.437329 0.332,-0.45067 0.66,-0.90267 0.98267,-1.35733 32.60533,-45.812 -26.984,-100.237333 -69.741332,-63.71733 -34.049332,29.08266 -50.01599874,62.34666 -50.01599874,62.34666 v -0.0107 C 22.634219,113.12112 91.11155,59.207788 172.18755,59.207788 h 0.644 c 0.25733,2.446667 0.44533,4.917333 0.58533,7.398666 0.0347,0.668 0.0587,1.334667 0.0813,2.002667 0.0947,2.013333 0.12934,4.038667 0.12934,6.076"
         style="fill:#15701e;fill-opacity:1;fill-rule:nonzero;stroke:none;stroke-width:1.33333"
         id="path21188"
         clip-path="none" /><path
         d="M 150.22382,71.793254 C 84.47315,91.626587 36.261152,151.89725 34.481152,223.68925 c -3.370667,0.23333 -6.778667,0.35067 -10.208,0.35067 -1.018667,0 -2.049333,-0.012 -3.068,-0.0347 C 24.483819,148.81859 78.713151,86.849254 150.22382,71.793254"
         style="fill:#0b581d;fill-opacity:1;fill-rule:nonzero;stroke:none;stroke-width:1.33333"
         id="path21204"
         clip-path="none" /><path
         d="m 151.49995,93.734054 c -43.716,23.989336 -71.334666,69.975996 -72.037333,119.769326 -3.757333,1.49867 -7.586666,2.844 -11.485333,4.03867 1.382667,-53.41066 33.706666,-102.208 83.522666,-123.807996"
         style="fill:#0b581d;fill-opacity:1;fill-rule:nonzero;stroke:none;stroke-width:1.33333"
         id="path21208"
         clip-path="none" /><path
         d="m 173.62755,74.685121 c 0,3.161333 -0.0933,6.298666 -0.292,9.413333 -0.0467,0.76 -0.0947,1.509333 -0.152,2.270667 -3.22133,41.574669 -23.45067,78.371999 -53.75067,103.437329 0,0.012 -0.012,0.012 -0.012,0.024 -9.132,7.54 -19.16533,14.02533 -29.935996,19.24667 -3.278667,1.592 -6.614667,3.068 -10.022667,4.42533 -3.757333,1.49867 -7.585333,2.84533 -11.483999,4.04 -10.701333,3.26667 -21.917333,5.37333 -33.496,6.14667 -3.372,0.23333 -6.778666,0.35066 -10.209333,0.35066 -1.018666,0 -2.049333,-0.012 -3.066666,-0.0347 -9.273333,-0.188 -18.3466665,-1.21734 -27.1386662,-3.02134 0.069333,-0.68933 0.14,-1.38133 0.2106666,-2.072 8.3586665,1.63867 16.9639996,2.576 25.7573326,2.75067 1.017333,0.024 2.048,0.036 3.066667,0.036 3.430666,0 6.837333,-0.11733 10.209333,-0.35067 11.578666,-0.77333 22.794666,-2.88133 33.494666,-6.14666 3.9,-1.19467 7.727999,-2.54134 11.486666,-4.04 3.406667,-1.35734 6.742666,-2.83334 10.021333,-4.42534 10.770666,-5.22133 20.804003,-11.708 29.936003,-19.24666 0,-0.012 0.012,-0.012 0.012,-0.024 30.3,-25.06533 50.53066,-61.86267 53.74933,-103.437333 0.0587,-0.76 0.10533,-1.509333 0.152,-2.270666 0.2,-3.114667 0.29333,-6.252 0.29333,-9.413333 0,-2.037334 -0.0347,-4.062667 -0.12933,-6.076 -0.0227,-0.666667 -0.0467,-1.334667 -0.0813,-2.002667 -0.0933,-1.697333 -0.21066,-3.384 -0.36266,-5.057333 h 0.948 c 0.25733,2.446667 0.44533,4.917333 0.58533,7.398666 0.0347,0.668 0.0587,1.334667 0.0813,2.002667 0.0947,2.013333 0.12934,4.038667 0.12934,6.076"
         style="fill:#30ae14;fill-opacity:1;fill-rule:nonzero;stroke:none;stroke-width:1.33333"
         id="path21224"
         clip-path="none" /></g><g
       id="g51334"
       transform="matrix(-1.3333333,0,0,-1.3333333,507.41218,569.28877)"><g
         id="g51332"><g
           id="g51330"><g
             id="g51328"><g
               id="g51326" /></g></g></g></g><g
       id="g51388"
       transform="matrix(-1.3333333,0,0,-1.3333333,507.03787,569.93042)"><g
         id="g51386"><g
           id="g51384"><g
             id="g51382"><g
               id="g51380" /></g></g></g></g><path
       id="path16591"
       clip-path="none"
       style="opacity:0.0520446;fill:#ffffff;fill-opacity:1;fill-rule:nonzero;stroke:none;stroke-width:1.33333"
       d="m 199.72576,36.878533 a 32.595604,20.145191 0 0 1 -26.14258,9.689453 c -0.0839,24.560929 -0.17615,49.304142 -0.25977,70.968754 25.13731,-0.656 45.30664,-20.416581 45.30664,-44.699223 0,-14.746929 -7.44006,-27.812413 -18.90429,-35.958984 z" /><g
       id="g51473"
       transform="matrix(-1.3333333,0,0,-1.3333333,478.24866,573.13871)"><g
         id="g51471"><g
           id="g51469" /></g></g><g
       id="g34847"
       transform="matrix(-1.3333333,0,0,-1.3333333,353.1317,374.9027)"><g
         id="g34845"><g
           id="g34843"><g
             id="g34841"><g
               id="g34839" /></g></g></g></g><g
       id="g34793"
       transform="matrix(-1.3333333,0,0,-1.3333333,353.1317,374.9027)"><g
         id="g34791"><g
           id="g34789"><g
             id="g34787"><g
               id="g34785" /></g></g></g></g><g
       id="g34928"
       transform="matrix(-1.3333333,0,0,-1.3333333,353.1317,374.9027)"><g
         id="g34926"><g
           id="g34924"><g
             id="g34922"><g
               id="g34920" /></g></g></g></g><g
       id="g34874"
       transform="matrix(-1.3333333,0,0,-1.3333333,353.1317,374.9027)"><g
         id="g34872"><g
           id="g34870"><g
             id="g34868"><g
               id="g34866" /></g></g></g></g><g
       id="g64118"
       transform="matrix(-1,0,0,1,348.38592,0)"><path
         d="m 162.53182,60.893336 c -10.45467,2.165333 -20.73467,5.185333 -30.604,9.249333 v 0 C 63.169151,98.428002 14.769152,166.07467 14.769152,245.044 v 0 c 0,4.67066 0.174667,9.30666 0.504,13.89733 v 0 c 0.138667,1.89467 0.304,3.78133 0.490667,5.66533 v 0 c 1.241333,0.18667 2.482666,0.35067 3.734666,0.504 v 0 c 5.433334,0.66667 10.96,1.00534 16.577333,1.00534 v 0 c 74.837332,0 135.493332,-60.656 135.493332,-135.48 v 0 -71.615997 z"
         style="fill:url(#linearGradient64120);fill-opacity:1;stroke:none;stroke-width:1.33333"
         id="path64098"
         clip-path="none" /><path
         d="m 171.0647,58.530973 -4.62,13.829333 C 139.86336,151.9043 86.40603,219.7083 15.259366,264.11763 c -0.188,-1.88533 -0.352,-3.77066 -0.492,-5.66666 -0.328,-4.58934 -0.504,-9.22534 -0.504,-13.896 0,-78.96933 48.399998,-146.615998 117.159994,-174.901331 9.86934,-4.062666 20.148,-7.084 30.60267,-9.249333 z"
         style="fill:url(#linearGradient64122);fill-opacity:1;fill-rule:nonzero;stroke:none;stroke-width:1.33333"
         id="path64100"
         clip-path="none" /><path
         d="m 171.439,59.172633 v 71.615997 c 0,74.824 -60.65734,135.48 -135.493335,135.48 -5.618666,0 -11.145333,-0.33867 -16.577333,-1.00667 -1.253333,-0.152 -2.493333,-0.316 -3.734666,-0.50267 -0.07067,-0.73733 -0.14,-1.46266 -0.198667,-2.20133 0.913333,0.12933 1.837333,0.24667 2.762667,0.364 5.431999,0.66667 10.958666,1.00533 16.577332,1.00533 74.836002,0 135.493332,-60.65599 135.493332,-135.47999 V 59.419299 Z"
         style="opacity:0.449997;fill:#4dad16;fill-opacity:1;fill-rule:nonzero;stroke:none;stroke-width:1.33333"
         id="path64102"
         clip-path="none" /><path
         d="m 172.18755,59.207856 c -81.075996,0 -149.553327,53.913334 -171.52799333,127.859994 v 0 0.012 c -3.25599997,10.9 -5.47866657,22.244 -6.59199987,33.90534 v 0 c 8.7919998,1.80266 17.8666662,2.83333 27.1386662,3.02 v 0 c 1.017333,0.024 2.048,0.0347 3.066666,0.0347 v 0 c 3.429334,0 6.837334,-0.116 10.209333,-0.35066 v 0 c 11.58,-0.772 22.794667,-2.88 33.496,-6.14667 v 0 c 3.897333,-1.19467 7.726666,-2.54133 11.485333,-4.04 v 0 c 3.406666,-1.35733 6.742666,-2.83333 10.021333,-4.424 v 0 c 10.770662,-5.22267 20.804002,-11.708 29.936002,-19.248 v 0 c 0,-0.012 0.012,-0.012 0.012,-0.0227 v 0 c 30.3,-25.06666 50.53066,-61.864 53.75066,-103.437328 v 0 c 0.0573,-0.761333 0.10534,-1.510666 0.152,-2.272 v 0 c 0.19867,-3.113333 0.292,-6.252 0.292,-9.413333 v 0 c 0,-2.037333 -0.0347,-4.061333 -0.128,-6.076 v 0 c -0.024,-0.668 -0.0467,-1.334666 -0.0827,-2.001333 v 0 c -0.14,-2.482667 -0.32667,-4.953333 -0.58534,-7.4 v 0 z"
         style="fill:url(#linearGradient64124);fill-opacity:1;stroke:none;stroke-width:1.33333"
         id="path64104"
         clip-path="none" /><path
         d="m 173.62755,74.685121 c 0,3.161333 -0.0933,6.298666 -0.292,9.413333 -0.0467,0.76 -0.0947,1.509333 -0.152,2.270667 -3.22133,41.574669 -23.45067,78.371999 -53.75067,103.437329 0,0.012 -0.012,0.012 -0.012,0.024 -9.132,7.54 -19.16533,14.02533 -29.935996,19.24667 -3.278667,1.592 -6.614667,3.068 -10.022667,4.42533 -3.757333,1.49867 -7.585333,2.84533 -11.483999,4.04 -10.701333,3.26667 -21.917333,5.37333 -33.496,6.14667 -3.372,0.23333 -6.778666,0.35066 -10.209333,0.35066 -1.018666,0 -2.049333,-0.012 -3.066666,-0.0347 -9.273333,-0.188 -18.3466665,-1.21734 -27.1386662,-3.02134 1.1119999,-11.66 3.3359999,-23.00533 6.59066646,-33.90533 v -0.0107 C 22.634219,113.12112 91.11155,59.207788 172.18755,59.207788 h 0.644 c 0.25733,2.446667 0.44533,4.917333 0.58533,7.398666 0.0347,0.668 0.0587,1.334667 0.0813,2.002667 0.0947,2.013333 0.12934,4.038667 0.12934,6.076"
         style="fill:#288f19;fill-opacity:1;fill-rule:nonzero;stroke:none;stroke-width:1.33333"
         id="path64106"
         clip-path="none" /><path
         d="m 173.62755,74.685121 c 0,3.161333 -0.0933,6.298666 -0.292,9.413333 -0.0467,0.76 -0.0947,1.509333 -0.152,2.270667 -3.22133,41.574669 -23.45067,78.371999 -53.75067,103.437329 0,0.012 -0.012,0.012 -0.012,0.024 -9.132,7.54 -19.16533,14.02533 -29.935996,19.24667 0.278666,-0.448 0.553333,-0.89467 0.825333,-1.34267 23.868003,-39.41066 -26.655999,-81.71466 -61.074665,-51.084 -18.06,16.072 -28.57733274,30.41733 -28.57733274,30.41733 C 22.634219,113.12112 91.11155,59.207788 172.18755,59.207788 h 0.644 c 0.25733,2.446667 0.44533,4.917333 0.58533,7.398666 0.0347,0.668 0.0587,1.334667 0.0813,2.002667 0.0947,2.013333 0.12934,4.038667 0.12934,6.076"
         style="fill:#1d7f1b;fill-opacity:1;fill-rule:nonzero;stroke:none;stroke-width:1.33333"
         id="path64108"
         clip-path="none" /><path
         d="m 173.62755,74.685121 c 0,3.161333 -0.0933,6.298666 -0.292,9.413333 -0.0467,0.76 -0.0947,1.509333 -0.152,2.270667 -3.22133,41.574669 -23.45067,78.371999 -53.75067,103.437329 0.332,-0.45067 0.66,-0.90267 0.98267,-1.35733 32.60533,-45.812 -26.984,-100.237333 -69.741332,-63.71733 -34.049332,29.08266 -50.01599874,62.34666 -50.01599874,62.34666 v -0.0107 C 22.634219,113.12112 91.11155,59.207788 172.18755,59.207788 h 0.644 c 0.25733,2.446667 0.44533,4.917333 0.58533,7.398666 0.0347,0.668 0.0587,1.334667 0.0813,2.002667 0.0947,2.013333 0.12934,4.038667 0.12934,6.076"
         style="fill:#15701e;fill-opacity:1;fill-rule:nonzero;stroke:none;stroke-width:1.33333"
         id="path64110"
         clip-path="none" /><path
         d="M 150.22382,71.793254 C 84.47315,91.626587 36.261152,151.89725 34.481152,223.68925 c -3.370667,0.23333 -6.778667,0.35067 -10.208,0.35067 -1.018667,0 -2.049333,-0.012 -3.068,-0.0347 C 24.483819,148.81859 78.713151,86.849254 150.22382,71.793254"
         style="fill:#0b581d;fill-opacity:1;fill-rule:nonzero;stroke:none;stroke-width:1.33333"
         id="path64112"
         clip-path="none" /><path
         d="m 151.49995,93.734054 c -43.716,23.989336 -71.334666,69.975996 -72.037333,119.769326 -3.757333,1.49867 -7.586666,2.844 -11.485333,4.03867 1.382667,-53.41066 33.706666,-102.208 83.522666,-123.807996"
         style="fill:#0b581d;fill-opacity:1;fill-rule:nonzero;stroke:none;stroke-width:1.33333"
         id="path64114"
         clip-path="none" /><path
         d="m 173.62755,74.685121 c 0,3.161333 -0.0933,6.298666 -0.292,9.413333 -0.0467,0.76 -0.0947,1.509333 -0.152,2.270667 -3.22133,41.574669 -23.45067,78.371999 -53.75067,103.437329 0,0.012 -0.012,0.012 -0.012,0.024 -9.132,7.54 -19.16533,14.02533 -29.935996,19.24667 -3.278667,1.592 -6.614667,3.068 -10.022667,4.42533 -3.757333,1.49867 -7.585333,2.84533 -11.483999,4.04 -10.701333,3.26667 -21.917333,5.37333 -33.496,6.14667 -3.372,0.23333 -6.778666,0.35066 -10.209333,0.35066 -1.018666,0 -2.049333,-0.012 -3.066666,-0.0347 -9.273333,-0.188 -18.3466665,-1.21734 -27.1386662,-3.02134 0.069333,-0.68933 0.14,-1.38133 0.2106666,-2.072 8.3586665,1.63867 16.9639996,2.576 25.7573326,2.75067 1.017333,0.024 2.048,0.036 3.066667,0.036 3.430666,0 6.837333,-0.11733 10.209333,-0.35067 11.578666,-0.77333 22.794666,-2.88133 33.494666,-6.14666 3.9,-1.19467 7.727999,-2.54134 11.486666,-4.04 3.406667,-1.35734 6.742666,-2.83334 10.021333,-4.42534 10.770666,-5.22133 20.804003,-11.708 29.936003,-19.24666 0,-0.012 0.012,-0.012 0.012,-0.024 30.3,-25.06533 50.53066,-61.86267 53.74933,-103.437333 0.0587,-0.76 0.10533,-1.509333 0.152,-2.270666 0.2,-3.114667 0.29333,-6.252 0.29333,-9.413333 0,-2.037334 -0.0347,-4.062667 -0.12933,-6.076 -0.0227,-0.666667 -0.0467,-1.334667 -0.0813,-2.002667 -0.0933,-1.697333 -0.21066,-3.384 -0.36266,-5.057333 h 0.948 c 0.25733,2.446667 0.44533,4.917333 0.58533,7.398666 0.0347,0.668 0.0587,1.334667 0.0813,2.002667 0.0947,2.013333 0.12934,4.038667 0.12934,6.076"
         style="fill:#30ae14;fill-opacity:1;fill-rule:nonzero;stroke:none;stroke-width:1.33333"
         id="path64116"
         clip-path="none" /></g></g></svg>
