<?xml version="1.0" encoding="UTF-8" standalone="no"?>
<!-- Created with Inkscape (http://www.inkscape.org/) -->

<svg
   version="1.1"
   id="svg1"
   width="341.30789"
   height="255.953"
   viewBox="0 0 341.30789 255.953"
   sodipodi:docname="arabicDarkMosque.svg"
   inkscape:version="1.2.2 (732a01da63, 2022-12-09)"
   xmlns:inkscape="http://www.inkscape.org/namespaces/inkscape"
   xmlns:sodipodi="http://sodipodi.sourceforge.net/DTD/sodipodi-0.dtd"
   xmlns:xlink="http://www.w3.org/1999/xlink"
   xmlns="http://www.w3.org/2000/svg"
   xmlns:svg="http://www.w3.org/2000/svg">
  <defs
     id="defs1">
    <linearGradient
       inkscape:collect="always"
       id="linearGradient14194">
      <stop
         style="stop-color:#4b75a5;stop-opacity:1;"
         offset="0"
         id="stop14190" />
      <stop
         style="stop-color:#0a1022;stop-opacity:0;"
         offset="1"
         id="stop14192" />
    </linearGradient>
    <linearGradient
       inkscape:collect="always"
       xlink:href="#linearGradient14194"
       id="linearGradient14196"
       x1="226.50104"
       y1="161.62239"
       x2="229.32948"
       y2="440.22247"
       gradientUnits="userSpaceOnUse" />
  </defs>
  <sodipodi:namedview
     id="namedview1"
     pagecolor="#ffffff"
     bordercolor="#cccccc"
     borderopacity="1"
     inkscape:showpageshadow="0"
     inkscape:pageopacity="1"
     inkscape:pagecheckerboard="0"
     inkscape:deskcolor="#d1d1d1"
     showgrid="false"
     inkscape:zoom="0.70710678"
     inkscape:cx="54.447222"
     inkscape:cy="227.68838"
     inkscape:window-width="1366"
     inkscape:window-height="705"
     inkscape:window-x="-8"
     inkscape:window-y="32"
     inkscape:window-maximized="1"
     inkscape:current-layer="g1" />
  <g
     inkscape:groupmode="layer"
     inkscape:label="Image"
     id="g1"
     transform="translate(-65.2807,-153.13712)">
    <path
       style="opacity:1;fill:url(#linearGradient14196);fill-opacity:1;stroke-width:17.757"
       d="m 227.75726,153.13907 c -0.035,-0.0319 -0.71096,0.59989 -1.50586,1.40625 -5.39238,5.4686 -8.16815,13.07189 -7.47265,20.46875 0.6088,6.47423 3.21966,12.0342 7.71484,16.43164 2.8669,2.8049 6.24521,4.88773 9.91211,6.10938 l 1.69336,0.56445 v 0.82617 c 0,1.23754 -0.65476,11.38468 -0.72656,11.4336 -0.035,0.0248 -0.40693,0.1919 -0.82813,0.375 -1.3288,0.57825 -1.63285,1.45319 -0.78515,2.25976 0.269,0.25484 0.70632,0.51774 0.9746,0.58399 0.2867,0.0711 0.48608,0.24083 0.48438,0.41211 0,0.15998 -0.16077,2.80162 -0.35547,5.87109 -0.1911,3.06943 -0.34961,5.7092 -0.34961,5.86524 0,0.19783 -0.33889,0.37455 -1.12109,0.58593 -5.5294,1.49674 -5.18314,5.88977 0.56054,7.10547 0.6187,0.13096 1.16886,0.28214 1.22266,0.33594 0.1699,0.17131 -1.70396,3.82782 -2.91016,5.67578 -3.37648,5.17241 -8.28777,9.86257 -14.31835,13.67188 -3.5777,2.25997 -6.16576,3.54679 -12.31446,6.12304 -12.93356,5.4189 -21.73518,10.98547 -28.82226,18.22852 -2.6426,2.70068 -4.02786,4.39219 -5.91016,7.21679 -4.66988,7.0082 -7.50457,15.52588 -8.07617,24.26368 -0.0628,0.98048 -0.16207,1.75017 -0.22266,1.77539 l 147.88832,0.0746 -0.29847,-4.10978 c -0.0585,-0.19049 -0.11429,-0.5087 -0.20313,-1.16211 -2.5392,-18.51475 -13.46986,-32.13367 -34.07812,-42.45312 -3.474,-1.73965 -4.86911,-2.37001 -9.58789,-4.33594 -11.88448,-4.95109 -19.9888,-11.0702 -25.3086,-19.10742 -1.1843,-1.789 -3.18611,-5.71401 -3.03711,-5.95508 0.053,-0.0864 0.28679,-0.15625 0.52149,-0.15625 0.6368,0 2.66078,-0.78084 3.45898,-1.33399 0.9652,-0.66889 1.41016,-1.44749 1.41016,-2.46484 0,-0.76835 -0.071,-0.90193 -0.92969,-1.75586 -0.9061,-0.90122 -1.63576,-1.28042 -3.27734,-1.70508 -0.7483,-0.19361 -0.75278,-0.20173 -0.76758,-1.03125 0,-0.4591 -0.10781,-3.24643 -0.22461,-6.19531 -0.1911,-4.95916 -0.18346,-5.3685 0.0898,-5.45508 1.2731,-0.40339 1.61352,-1.65781 0.66602,-2.45508 -0.3007,-0.25201 -0.65808,-0.45898 -0.79688,-0.45898 -0.138,0 -0.25657,-0.0596 -0.26367,-0.13281 -0.064,-1.04811 -0.47096,-12.01444 -0.44726,-12.04297 0,-0.0212 0.98423,0.0875 2.14843,0.24219 6.1792,0.81978 12.56977,-0.71639 17.93555,-4.3125 1.951,-1.30759 4.70576,-3.94302 6.15234,-5.88672 1.3418,-1.80226 2.84099,-4.5007 2.27149,-4.08789 -2.5981,1.88409 -3.41644,2.40721 -4.93164,3.16211 -3.9501,1.9678 -7.28568,2.75412 -11.69336,2.7539 -4.3816,-1.4e-4 -7.65973,-0.75497 -11.51563,-2.65234 -6.26588,-3.08345 -10.98779,-8.54388 -13.18359,-15.24609 -0.8842,-2.69825 -1.25501,-5.08717 -1.25391,-8.0586 0,-3.55158 0.65235,-6.87323 1.95703,-9.97851 0.2831,-0.67583 0.48828,-1.25598 0.45508,-1.28907 z"
       id="path2033"
       sodipodi:nodetypes="ccccccsccccccscscccccccccccccccssscsccscscccscccccccccc" />
  </g>
</svg>
