<?xml version="1.0" encoding="UTF-8" standalone="no"?>
<!-- Created with Inkscape (http://www.inkscape.org/) -->

<svg
   version="1.1"
   id="svg1"
   width="282.27832"
   height="263.76959"
   viewBox="0 0 282.27832 263.76959"
   sodipodi:docname="chatIcon.svg"
   inkscape:version="1.2.2 (732a01da63, 2022-12-09)"
   xml:space="preserve"
   inkscape:export-filename="chatIcon.png"
   inkscape:export-xdpi="96"
   inkscape:export-ydpi="96"
   xmlns:inkscape="http://www.inkscape.org/namespaces/inkscape"
   xmlns:sodipodi="http://sodipodi.sourceforge.net/DTD/sodipodi-0.dtd"
   xmlns:xlink="http://www.w3.org/1999/xlink"
   xmlns="http://www.w3.org/2000/svg"
   xmlns:svg="http://www.w3.org/2000/svg"><defs
     id="defs1"><linearGradient
   inkscape:collect="always"
   id="linearGradient6035"><stop
     style="stop-color:#67ff00;stop-opacity:0.97647059;"
     offset="0"
     id="stop6031" /><stop
     style="stop-color:#f9f100;stop-opacity:0.61960787;"
     offset="1"
     id="stop6033" /></linearGradient><inkscape:path-effect
   effect="fillet_chamfer"
   id="path-effect8892"
   is_visible="true"
   lpeversion="1"
   nodesatellites_param="F,0,0,1,0,0,0,1 @ F,0,0,1,0,126.31579,0,1 @ F,0,1,1,0,126.31579,0,1 @ F,0,0,1,0,0,0,1"
   unit="px"
   method="auto"
   mode="F"
   radius="0"
   chamfer_steps="1"
   flexible="false"
   use_knot_distance="true"
   apply_no_radius="true"
   apply_with_radius="true"
   only_selected="false"
   hide_knots="false" /><inkscape:path-effect
   effect="fillet_chamfer"
   id="path-effect8800"
   is_visible="true"
   lpeversion="1"
   nodesatellites_param="F,0,0,1,0,0,0,1 @ F,0,0,1,0,126.31579,0,1 @ F,0,1,1,0,126.31579,0,1 @ F,0,0,1,0,0,0,1"
   unit="px"
   method="auto"
   mode="F"
   radius="0"
   chamfer_steps="1"
   flexible="false"
   use_knot_distance="true"
   apply_no_radius="true"
   apply_with_radius="true"
   only_selected="false"
   hide_knots="false" /><inkscape:path-effect
   effect="fillet_chamfer"
   id="path-effect8793"
   is_visible="true"
   lpeversion="1"
   nodesatellites_param="F,0,0,1,0,0,0,1 @ F,0,1,1,0,103.0853,0,1 @ F,0,0,1,0,103.0853,0,1 @ F,0,0,1,0,0,0,1"
   unit="px"
   method="auto"
   mode="F"
   radius="0"
   chamfer_steps="1"
   flexible="false"
   use_knot_distance="true"
   apply_no_radius="true"
   apply_with_radius="true"
   only_selected="false"
   hide_knots="false" /><inkscape:path-effect
   effect="fillet_chamfer"
   id="path-effect8232"
   is_visible="true"
   lpeversion="1"
   nodesatellites_param="F,0,0,1,0,0,0,1 @ F,0,0,1,0,74.047187,0,1 @ F,0,1,1,0,74.047187,0,1 @ F,0,0,1,0,0,0,1"
   unit="px"
   method="auto"
   mode="F"
   radius="0"
   chamfer_steps="1"
   flexible="false"
   use_knot_distance="true"
   apply_no_radius="true"
   apply_with_radius="true"
   only_selected="false"
   hide_knots="false" /><inkscape:path-effect
   effect="fillet_chamfer"
   id="path-effect8230"
   is_visible="true"
   lpeversion="1"
   nodesatellites_param="F,0,0,1,0,0,0,1 @ F,0,1,1,0,103.0853,0,1 @ F,0,0,1,0,103.0853,0,1 @ F,0,0,1,0,0,0,1"
   unit="px"
   method="auto"
   mode="F"
   radius="0"
   chamfer_steps="1"
   flexible="false"
   use_knot_distance="true"
   apply_no_radius="true"
   apply_with_radius="true"
   only_selected="false"
   hide_knots="false" /><inkscape:path-effect
   effect="fillet_chamfer"
   id="path-effect8179"
   is_visible="true"
   lpeversion="1"
   nodesatellites_param="F,0,0,1,0,0,0,1 @ F,0,0,1,0,126.31579,0,1 @ F,0,1,1,0,126.31579,0,1 @ F,0,0,1,0,0,0,1"
   unit="px"
   method="auto"
   mode="F"
   radius="0"
   chamfer_steps="1"
   flexible="false"
   use_knot_distance="true"
   apply_no_radius="true"
   apply_with_radius="true"
   only_selected="false"
   hide_knots="false" /><linearGradient
   inkscape:collect="always"
   id="linearGradient9760"><stop
     style="stop-color:#f9a600;stop-opacity:0.97647059;"
     offset="0"
     id="stop9756" /><stop
     style="stop-color:#f9f100;stop-opacity:0.61960787;"
     offset="1"
     id="stop9758" /></linearGradient><linearGradient
   inkscape:collect="always"
   id="linearGradient4600"><stop
     style="stop-color:#41bad6;stop-opacity:1;"
     offset="0"
     id="stop4596" /><stop
     style="stop-color:#fff200;stop-opacity:0.34901962;"
     offset="1"
     id="stop4598" /></linearGradient><linearGradient
   inkscape:collect="always"
   id="linearGradient13989"><stop
     style="stop-color:#00a7ff;stop-opacity:1;"
     offset="0"
     id="stop13985" /><stop
     style="stop-color:#fff200;stop-opacity:0.35011995;"
     offset="1"
     id="stop13987" /></linearGradient><inkscape:path-effect
   effect="bspline"
   id="path-effect10162"
   is_visible="true"
   lpeversion="1"
   weight="33.333333"
   steps="2"
   helper_size="0"
   apply_no_weight="true"
   apply_with_weight="true"
   only_selected="false" /><inkscape:path-effect
   effect="bspline"
   id="path-effect10147"
   is_visible="true"
   lpeversion="1"
   weight="33.333333"
   steps="2"
   helper_size="0"
   apply_no_weight="true"
   apply_with_weight="true"
   only_selected="false" /><inkscape:path-effect
   effect="bspline"
   id="path-effect1597"
   is_visible="true"
   lpeversion="1"
   weight="33.333333"
   steps="2"
   helper_size="0"
   apply_no_weight="true"
   apply_with_weight="true"
   only_selected="false" /><linearGradient
   inkscape:collect="always"
   xlink:href="#linearGradient13989"
   id="linearGradient13991"
   x1="161.418"
   y1="221.46518"
   x2="419.19434"
   y2="221.46518"
   gradientUnits="userSpaceOnUse"
   gradientTransform="translate(0,22.753666)" /><linearGradient
   inkscape:collect="always"
   xlink:href="#linearGradient4600"
   id="linearGradient8212"
   gradientUnits="userSpaceOnUse"
   gradientTransform="translate(0,22.753666)"
   x1="149.16022"
   y1="221.93051"
   x2="431.43851"
   y2="221.93051" /><linearGradient
   inkscape:collect="always"
   xlink:href="#linearGradient4600"
   id="linearGradient8236"
   gradientUnits="userSpaceOnUse"
   gradientTransform="translate(0,22.753666)"
   x1="149.16022"
   y1="221.93051"
   x2="431.43851"
   y2="221.93051" />
	
	
<linearGradient
   inkscape:collect="always"
   xlink:href="#linearGradient9760"
   id="linearGradient9764"
   gradientUnits="userSpaceOnUse"
   x1="0"
   y1="32"
   x2="64"
   y2="32"
   gradientTransform="matrix(2.9718693,0,0,2.9718693,212.22529,61.630809)" /><linearGradient
   inkscape:collect="always"
   xlink:href="#linearGradient9760"
   id="linearGradient9788"
   gradientUnits="userSpaceOnUse"
   x1="0"
   y1="32"
   x2="64"
   y2="32"
   gradientTransform="matrix(2.9718693,0,0,2.9718693,212.22529,61.630809)" /><linearGradient
   inkscape:collect="always"
   xlink:href="#linearGradient6035"
   id="linearGradient9812"
   gradientUnits="userSpaceOnUse"
   x1="0"
   y1="32"
   x2="64"
   y2="32"
   gradientTransform="matrix(2.9718693,0,0,2.9718693,212.22529,61.630809)" />
	
	
	
	
	
	
	
	
	
	
	
	
	
	
	
	
	
	
	
	
	
	
	
	
	
<linearGradient
   inkscape:collect="always"
   xlink:href="#linearGradient9760"
   id="linearGradient10092"
   gradientUnits="userSpaceOnUse"
   gradientTransform="matrix(2.9718693,0,0,2.9718693,212.22529,61.630809)"
   x1="0"
   y1="32"
   x2="64"
   y2="32" /><linearGradient
   inkscape:collect="always"
   xlink:href="#linearGradient9760"
   id="linearGradient10094"
   gradientUnits="userSpaceOnUse"
   gradientTransform="matrix(2.9718693,0,0,2.9718693,212.22529,61.630809)"
   x1="0"
   y1="32"
   x2="64"
   y2="32" /><linearGradient
   inkscape:collect="always"
   xlink:href="#linearGradient4600"
   id="linearGradient10096"
   gradientUnits="userSpaceOnUse"
   gradientTransform="translate(0,22.753666)"
   x1="149.16022"
   y1="221.93051"
   x2="431.43851"
   y2="221.93051" /><linearGradient
   inkscape:collect="always"
   xlink:href="#linearGradient4600"
   id="linearGradient10098"
   gradientUnits="userSpaceOnUse"
   gradientTransform="translate(0,22.753666)"
   x1="149.16022"
   y1="221.93051"
   x2="431.43851"
   y2="221.93051" /></defs><sodipodi:namedview
     id="namedview1"
     pagecolor="#ffffff"
     bordercolor="#cccccc"
     borderopacity="1"
     inkscape:showpageshadow="0"
     inkscape:pageopacity="1"
     inkscape:pagecheckerboard="0"
     inkscape:deskcolor="#d1d1d1"
     showgrid="false"
     inkscape:zoom="0.68875"
     inkscape:cx="305.62613"
     inkscape:cy="187.29583"
     inkscape:window-width="1366"
     inkscape:window-height="705"
     inkscape:window-x="-8"
     inkscape:window-y="32"
     inkscape:window-maximized="1"
     inkscape:current-layer="g1"
     showguides="true" /><g
     inkscape:groupmode="layer"
     inkscape:label="Image"
     id="g1"
     transform="translate(-149.16021,-61.630809)"><ellipse
       style="fill:#ffffff;fill-opacity:1;stroke-width:6.4"
       id="path11019"
       cx="312.91125"
       cy="153.00287"
       rx="38.499462"
       ry="41.066093" /><path
       id="path11561"
       style="fill:url(#linearGradient13991);fill-opacity:1;stroke:none;stroke-width:8.38;stroke-dasharray:none;stroke-opacity:1"
       d="m 251.39648,176.14258 c -0.93789,0.03 -2.20774,0.27185 -3.35742,0.69531 -1.14967,0.42346 -2.17703,1.0285 -2.8125,1.54297 -0.63546,0.51448 -0.87817,0.93681 -0.42383,1.63281 0.45435,0.69599 1.60346,1.66463 2.29883,2.51172 0.69541,0.8471 0.93831,1.57341 0.72656,2.11719 -0.21175,0.54377 -0.87843,0.9065 -1.45312,1.20898 -0.57469,0.30248 -1.05755,0.54448 -1.66211,0.48438 -0.60457,-0.0601 -1.33202,-0.42304 -2.51172,-0.81641 -1.17969,-0.39337 -2.81187,-0.81825 -4.5664,-0.93945 -1.75455,-0.12119 -3.63024,0.061 -5.44532,0.48437 -1.81508,0.42342 -3.5685,1.0886 -5.17187,1.9961 -1.60337,0.9075 -3.05673,2.05677 -4.47852,3.53906 -1.42179,1.48229 -2.81321,3.29806 -3.7207,5.05273 -0.90748,1.75469 -1.32932,3.44842 -1.41992,5.08204 -0.0906,1.63362 0.14957,3.20612 0.36133,4.47656 0.21176,1.27045 0.39473,2.23838 0.69726,3.53906 0.30253,1.30069 0.72491,2.93505 0.8457,4.50781 0.12079,1.57275 -0.0607,3.08515 -0.18164,4.53711 -0.12097,1.45195 -0.18075,2.84295 -0.39257,3.93164 -0.21182,1.08869 -0.57471,1.8738 -0.99805,2.47852 -0.42333,0.60471 -0.90837,1.02847 -1.15039,1.24023 -0.24202,0.2118 -0.24211,0.2121 -0.38281,0.2793 -0.1407,0.0672 -0.42264,0.20139 -0.71289,0.18359 -0.29026,-0.0178 -0.58867,-0.18788 -0.82422,-0.43359 -0.23555,-0.24572 -0.40696,-0.56777 -0.43946,-0.93164 -0.0325,-0.36386 0.0739,-0.76909 0.29883,-1.37695 0.22493,-0.60785 0.56856,-1.41775 0.67969,-2.69922 0.11112,-1.28148 -0.009,-3.0347 -0.3418,-4.72852 -0.33256,-1.69384 -0.87707,-3.32726 -1.81445,-4.7793 -0.93739,-1.45203 -2.75878,-3.73232 -3.11719,-2.93554 -0.65507,1.45631 -1.47115,8.35083 -1.38281,7.40625 0.33883,-3.62292 -2.72974,-5.6827 -3.66797,-4.10938 -0.86612,1.45242 -1.46093,4.07554 -2.33008,5.26563 -2.51764,-6.30863 -5.07839,-11.75795 -7.7832,-11.57813 -8.2683,0.32118 -16.37471,3.71048 -22.39844,9.37696 -1.61988,1.37598 -2.71758,3.05483 -3.92969,4.39257 -4.68186,6.15501 -7.24441,13.89688 -7,21.63868 0.18593,7.27151 2.68115,14.48351 7.14649,20.23828 0.23043,0.3058 0.73515,0.93068 1.08594,1.3457 3.92511,4.61066 9.05502,8.18301 14.73828,10.27148 0.34227,0.1287 1.11056,0.38964 1.62109,0.55079 4.56973,1.46262 9.42013,1.77493 14.18555,1.46679 3.0294,0.20425 6.06291,0.23349 9.09765,0.19532 4.27981,-0.006 8.56005,-8.2e-4 12.83985,0.002 -0.82494,8.08894 -1.36305,16.4124 -4.62891,23.9707 -2.18364,5.17368 -5.51635,9.79736 -9.38476,13.8418 1.66874,-0.17396 3.52737,-0.44174 5.05859,-0.6875 1.46959,-0.24635 3.15744,-0.58515 4.46875,-0.87891 5.67039,-1.36541 11.45526,-3.16992 16.0293,-6.9375 3.31875,-2.71894 5.66855,-6.39614 7.77343,-10.08398 3.31486,-6.11401 5.88619,-12.59132 8.69727,-18.94336 0.18478,-0.59381 1.04962,-0.14951 1.53516,-0.28516 47.98937,-0.005 95.97967,0.0233 143.96875,-0.0351 8.71436,-0.3736 17.0309,-5.73946 20.8789,-13.58204 3.9068,-7.68027 3.49501,-17.41385 -1.2539,-24.63671 -3.15635,-5.00373 -8.1812,-8.74615 -13.8379,-10.44922 -1.52734,-0.50326 -3.06635,-0.97863 -4.61523,-1.47657 -0.54966,-5.30019 -0.8928,-10.77603 -3.19922,-15.67187 -4.08578,-9.31053 -12.77318,-16.32789 -22.61719,-18.71875 -2.57824,-0.31803 -5.11394,-0.42416 -7.50976,-0.0215 -3.07248,0.42021 -4.64426,1.65075 -6.49024,3.01954 -0.32047,0.53519 0.36445,0.96255 0.47071,1.73242 0.10626,0.76988 -0.36295,1.88086 -1.00391,2.30859 -0.64095,0.42773 -1.45381,0.17188 -2.07422,-0.1914 -0.6204,-0.36327 -1.04924,-0.83482 -1.58398,-1.45508 -0.53474,-0.62025 -1.17689,-1.38978 -1.51953,-2.07422 -0.34259,-0.68445 -0.38423,-1.28237 -0.29883,-2.00977 0.0854,-0.7274 0.29899,-1.58339 0.36328,-1.96875 0.0643,-0.3854 -0.0223,-0.2996 -0.57812,-0.0644 -0.55585,0.2352 -1.5811,0.61977 -2.33008,1.26172 -0.74899,0.64195 -1.21899,1.54039 -1.1543,2.35351 0.0647,0.81314 0.66195,1.53993 1.49609,2.60938 0.83414,1.06946 1.90396,2.48174 2.16016,3.5293 0.25619,1.04755 -0.30023,1.73219 -0.91992,1.77539 -0.6197,0.0432 -1.30277,-0.55516 -2.20117,-1.51758 -0.89841,-0.96242 -2.01173,-2.28983 -2.88868,-3.33789 -0.87694,-1.04805 -1.51918,-1.8168 -1.99023,-2.00977 -0.47106,-0.19298 -0.76873,0.19092 -1.45313,0.93946 -0.68438,0.74854 -1.7546,1.86022 -2.80273,3.40039 -1.04814,1.54015 -2.07384,3.50829 -2.86523,5.39062 -0.79139,1.88234 -1.349,3.67845 -1.62696,5.625 -0.27796,1.94657 -0.27734,4.04405 -0.27734,6.0332 0,1.98916 -3.7e-4,3.8713 -0.0859,5.19727 -0.0856,1.32598 -0.2564,2.09455 -0.72656,2.60742 -0.47017,0.51288 -1.24033,0.76974 -2.50195,0.4707 -1.26164,-0.29904 -3.01451,-1.1534 -4.51172,-1.83789 -1.49722,-0.68448 -2.73759,-1.19925 -3.95703,-1.28515 -1.21943,-0.0859 -2.41875,0.25759 -3.48828,0.64258 -1.06955,0.38499 -2.00913,0.81207 -2.67188,0.85546 -0.66275,0.0434 -1.04945,-0.29914 -1.4668,-0.99414 -0.41735,-0.69499 -0.86583,-1.74286 -1.60351,-2.79101 -0.73767,-1.04815 -1.76492,-2.09518 -2.89844,-2.72656 -1.13353,-0.63138 -2.37293,-0.84661 -3.27148,-0.87891 -0.89857,-0.0323 -1.45502,0.11853 -1.74415,0.32227 -0.28911,0.20374 -0.3104,0.46055 -0.2246,0.8457 0.0858,0.38515 0.27872,0.89894 0.88867,1.36914 0.60996,0.4702 1.63677,0.89611 2.20312,1.32422 0.56638,0.42812 0.67191,0.85661 0.62891,1.23047 -0.043,0.37387 -0.2355,0.69564 -0.44922,0.9414 -0.2137,0.24576 -0.44808,0.41599 -0.73633,0.45899 -0.28825,0.043 -0.63115,-0.0418 -1.14453,-0.37305 -0.51338,-0.33121 -1.19694,-0.9092 -1.82812,-1.75391 -0.6312,-0.8447 -1.20892,-1.95663 -1.57227,-2.5664 -0.36335,-0.60981 -0.51257,-0.71808 -1.17578,-0.67578 -0.6632,0.0423 -1.83979,0.23544 -2.57813,0.49218 -0.73832,0.25675 -1.03917,0.57838 -0.72851,1.17774 0.31067,0.59935 1.23191,1.47624 1.64844,2.26758 0.41647,0.79133 0.32935,1.49646 0.041,1.90234 -0.28832,0.40589 -0.77865,0.5131 -1.23828,0.4707 -0.45963,-0.0424 -0.88792,-0.23582 -1.41211,-0.71679 -0.52419,-0.48097 -1.14495,-1.25087 -1.51953,-1.8711 -0.37459,-0.62024 -0.50316,-1.09074 -0.67383,-1.36914 -0.17067,-0.27841 -0.38335,-0.36382 -0.7793,-0.33203 -0.39596,0.0317 -0.97334,0.18271 -1.59375,0.41797 -0.62041,0.23527 -1.28389,0.55519 -1.57226,0.72656 -0.28839,0.17137 -0.20241,0.1935 -0.0742,0.32227 0.12817,0.12876 0.29891,0.36372 0.54492,0.67383 0.24601,0.31011 0.56659,0.69391 0.72656,1.02539 0.16,0.33149 0.15974,0.61087 0.0742,0.82422 -0.0855,0.21336 -0.25569,0.36301 -0.4375,0.52343 -0.18181,0.16042 -0.3755,0.33042 -0.59961,0.41602 -0.22411,0.0856 -0.48098,0.0873 -0.79101,0.002 -0.31004,-0.0853 -0.67377,-0.25629 -0.94141,-0.50195 -0.26765,-0.24565 -0.43744,-0.56668 -0.61914,-0.85547 -0.1817,-0.28878 -0.37561,-0.54619 -0.61133,-0.52539 -0.23571,0.0208 -0.51253,0.32114 -0.9082,0.7168 -0.39566,0.39567 -0.90893,0.88658 -1.30469,1.31445 -0.39577,0.42786 -0.67354,0.79213 -0.95117,1.00586 -0.27763,0.21374 -0.55626,0.27789 -0.85547,0.24609 -0.29921,-0.0318 -0.62055,-0.15969 -0.82422,-0.41601 -0.20367,-0.25633 -0.28961,-0.64124 -0.25781,-1.0586 0.0318,-0.41737 0.18217,-0.86827 0.53516,-1.39257 0.353,-0.5243 0.91016,-1.12152 1.33789,-1.63477 0.42772,-0.51325 0.72578,-0.94237 0.98242,-1.54102 0.25664,-0.59865 0.47151,-1.36782 0.66406,-2.57617 0.19255,-1.20835 0.36362,-2.85571 0.44922,-4.42773 0.0856,-1.57202 0.0847,-3.06839 0.0312,-4.59766 -0.0534,-1.52926 -0.15985,-3.09209 -0.29883,-4.46094 -0.13899,-1.36885 -0.30977,-2.54386 -0.52343,-3.38867 -0.21367,-0.84482 -0.47068,-1.35834 -0.71485,-1.73437 -0.24417,-0.37603 -0.47527,-0.6146 -0.71289,-0.49219 -0.23762,0.12241 -0.48044,0.60622 -1.23633,1.15039 -0.75588,0.54416 -2.0255,1.14869 -3.08398,1.51172 -1.05849,0.36302 -1.90619,0.48396 -2.78321,0.36328 -0.877,-0.12069 -1.7839,-0.4838 -2.63085,-0.87695 -0.84696,-0.39315 -1.634,-0.81519 -2.20899,-1.35938 -0.57499,-0.54419 -0.93729,-1.20978 -1.17969,-1.30078 -0.2424,-0.091 -0.36347,0.39232 -0.60547,1.20898 -0.24198,0.81666 -0.60621,1.96502 -1.27148,2.90235 -0.66528,0.93733 -1.63258,1.66376 -2.63086,2.54101 -0.99827,0.87725 -2.02709,1.90605 -3.66016,2.72266 -1.63305,0.81662 -3.87015,1.42093 -6.01757,1.63281 -2.14744,0.21188 -4.20469,0.0315 -6.01953,-0.48242 -1.81485,-0.51393 -3.38748,-1.36155 -4.59766,-2.48047 -1.21016,-1.11892 -2.05713,-2.50978 -2.72266,-3.68945 -0.66552,-1.17968 -1.1503,-2.14704 -1.39258,-2.93359 -0.24224,-0.78655 -0.24144,-1.39327 -0.0293,-1.72657 0.21216,-0.33329 0.6349,-0.39293 0.99805,-0.33203 0.36313,0.0609 0.6657,0.24151 0.99804,0.87696 0.33234,0.63545 0.69562,1.72561 1.48242,2.7539 0.78681,1.02827 1.99722,1.996 3.38868,2.9336 1.39146,0.93759 2.96351,1.84541 4.74804,2.23828 1.78453,0.39286 3.78008,0.27115 5.50391,-0.21289 1.72385,-0.48403 3.17692,-1.32992 4.38672,-2.20704 1.2098,-0.87712 2.17749,-1.78451 2.93359,-2.99414 0.75609,-1.20963 1.30069,-2.72335 1.42188,-4.38671 0.1212,-1.66337 -0.18137,-3.47683 -0.69532,-4.95899 -0.51395,-1.48215 -1.23915,-2.63153 -2.08593,-3.59961 -0.84677,-0.96809 -1.81545,-1.75599 -2.96485,-2.30078 -1.14939,-0.54478 -2.47955,-0.84586 -3.75,-1.08789 -1.27045,-0.24204 -2.48027,-0.42409 -3.35742,-0.60547 -0.87717,-0.18137 -1.42323,-0.36353 -1.87695,-0.54492 -0.45373,-0.18139 -0.8152,-0.36298 -1.08789,-0.81641 -0.27274,-0.45343 -0.45492,-1.17848 -0.33399,-1.69336 0.12094,-0.51488 0.54506,-0.8173 0.72657,-1.11914 0.1815,-0.30184 0.11935,-0.60527 -0.2129,-0.84765 -0.33225,-0.24239 -0.9371,-0.42258 -1.875,-0.39258 z m -64.64062,42.53711 c 7.55484,0 13.7207,5.99643 13.7207,13.39843 0,7.40202 -6.16586,13.4004 -13.7207,13.4004 -7.55484,0 -13.71875,-5.99838 -13.71875,-13.4004 0,-7.402 6.16391,-13.39843 13.71875,-13.39843 z m 0,1.76758 c -6.62319,0 -11.95117,5.20882 -11.95117,11.63085 0,6.42205 5.32798,11.63086 11.95117,11.63086 6.62318,0 11.95312,-5.20881 11.95312,-11.63086 0,-6.42203 -5.32994,-11.63085 -11.95312,-11.63085 z" /><path
       id="path9139"
       style="fill:url(#linearGradient10092);fill-opacity:1;stroke-width:2.97187"
       d="m 307.31841,103.24231 c -29.54332,0 -53.49218,23.95082 -53.49218,53.49415 0,3.96251 0.44234,7.82012 1.25976,11.5371 21.39733,1.04533 39.46026,15.87518 43.99414,36.1836 3.86858,-1.33181 7.96536,-1.93894 12.07227,-1.78906 4.53068,0.1955 8.97132,1.30865 13.03515,3.26757 5.35211,-12.75514 16.94094,-21.7472 30.48438,-24.31836 3.91434,-7.43408 6.14062,-15.89563 6.14062,-24.88085 0,-29.54333 -23.95081,-53.49415 -53.49414,-53.49415 z m 0,17.83204 c 19.69456,0 35.66407,15.96754 35.66407,35.66211 0,1.64343 -1.32922,2.97265 -2.97266,2.97265 -1.64345,0 -2.97266,-1.32922 -2.97266,-2.97265 0,-16.41362 -13.30809,-29.71875 -29.71875,-29.71875 -1.64344,0 -2.9707,-1.32922 -2.9707,-2.97266 0,-1.64345 1.32726,-2.9707 2.9707,-2.9707 z" /><path
       fill-rule="evenodd"
       clip-rule="evenodd"
       fill="#231f20"
       d="m 366.84273,175.75059 11.48034,3.07588 c 1.58995,0.43093 3.21556,-0.52304 3.64054,-2.10705 0.42794,-1.58103 -0.51117,-3.20665 -2.10112,-3.6346 l -11.48033,-3.07588 c -1.57806,-0.43092 -3.21259,0.51413 -3.64054,2.10111 -0.42795,1.58698 0.52305,3.21259 2.10111,3.64054 z"
       id="path9163"
       style="fill:url(#linearGradient9788);fill-opacity:1;stroke-width:2.97187" /><path
       id="path9863"
       style="fill:url(#linearGradient10094);fill-opacity:1;stroke-width:2.97187"
       d="m 307.31841,103.24231 c -29.54332,0 -53.49218,23.95082 -53.49218,53.49415 0,3.96251 0.44234,7.82012 1.25976,11.5371 21.39733,1.04533 39.46026,15.87518 43.99414,36.1836 3.86858,-1.33181 7.96536,-1.93894 12.07227,-1.78906 4.53068,0.1955 8.97132,1.30865 13.03515,3.26757 5.35211,-12.75514 16.94094,-21.7472 30.48438,-24.31836 3.91434,-7.43408 6.14062,-15.89563 6.14062,-24.88085 0,-29.54333 -23.95081,-53.49415 -53.49414,-53.49415 z m 0,17.83204 c 19.69456,0 35.66407,15.96754 35.66407,35.66211 0,1.64343 -1.32922,2.97265 -2.97266,2.97265 -1.64345,0 -2.97266,-1.32922 -2.97266,-2.97265 0,-16.41362 -13.30809,-29.71875 -29.71875,-29.71875 -1.64344,0 -2.9707,-1.32922 -2.9707,-2.97266 0,-1.64345 1.32726,-2.9707 2.9707,-2.9707 z" /><path
       id="path9187"
       style="fill:url(#linearGradient9812);fill-opacity:1;stroke-width:2.97187"
       d="m 247.81045,137.70769 -11.4833,-3.07886 c -1.59292,-0.42794 -3.21853,0.52008 -3.64054,2.10409 -0.42795,1.57806 0.50819,3.20962 2.10111,3.64054 l 11.48033,3.07291 c 1.57807,0.43389 3.21259,-0.52008 3.64054,-2.10111 0.43092,-1.57509 -0.52007,-3.2007 -2.09814,-3.63757 z m 13.28129,-23.01118 c 1.15011,1.17091 3.04022,1.15903 4.20222,0 1.162,-1.15309 1.15011,-3.03428 0,-4.20223 l -8.40445,-8.40444 c -1.16794,-1.16498 -3.04616,-1.15903 -4.20519,0.006 -1.15903,1.15309 -1.16497,3.03428 0.003,4.19628 z M 288.30514,97.213 c 0.41309,1.584006 2.05357,2.526089 3.64054,2.101112 1.58104,-0.419034 2.51421,-2.053562 2.10112,-3.64054 l -3.07589,-11.480331 c -0.43092,-1.58995 -2.0595,-2.529061 -3.64648,-2.09814 -1.57807,0.422005 -2.52609,2.044646 -2.09517,3.637568 z m 34.40831,2.101112 c 1.57806,0.430921 3.20367,-0.523049 3.64054,-2.101112 l 3.07588,-11.480331 c 0.42498,-1.58995 -0.52305,-3.218534 -2.10705,-3.64054 -1.57807,-0.427949 -3.20962,0.511162 -3.6346,2.101112 l -3.07588,11.480331 c -0.43687,1.578062 0.5171,3.212591 2.10111,3.64054 z m 26.64578,15.382398 c 1.15605,1.16497 3.03725,1.15308 4.20222,0 l 8.40445,-8.40445 c 1.16497,-1.16497 1.15903,-3.04319 -0.006,-4.20519 -1.15308,-1.15903 -3.03428,-1.16201 -4.19628,0.003 l -8.40444,8.40444 c -1.16498,1.15309 -1.15903,3.0432 0,4.20223 z m 19.02293,28.74689 11.48033,-3.07589 c 1.58995,-0.42497 2.52609,-2.0595 2.09814,-3.64648 -0.422,-1.57806 -2.04464,-2.52014 -3.63756,-2.09517 l -11.48034,3.07589 c -1.584,0.41903 -2.52608,2.05356 -2.10111,3.64054 0.41904,1.58698 2.05654,2.52014 3.64054,2.10111 z m -120.49444,13.28723 c 0.003,-1.64642 -1.32248,-2.97187 -2.96592,-2.97782 l -29.72464,0.006 c -1.64047,0 -2.97187,1.32248 -2.97187,2.97187 0.003,1.6375 1.3314,2.97187 2.97484,2.97187 l 29.72167,-0.006 c 1.6375,0 2.96889,-1.32545 2.96592,-2.96592 z m -21.83135,-43.49331 25.74233,14.85637 c 1.41758,0.82024 3.2334,0.33583 4.05066,-1.08176 0.82321,-1.42352 0.34176,-3.23933 -1.08176,-4.06254 l -25.73936,-14.85935 c -1.42055,-0.82321 -3.23934,-0.33582 -4.06255,1.09068 -0.81429,1.41758 -0.32987,3.23636 1.09068,4.0566 z m 47.49939,-9.07312 c 0.81726,1.42353 2.63604,1.91091 4.05065,1.09068 1.4265,-0.82321 1.91686,-2.63605 1.09365,-4.06255 L 263.84072,75.455945 c -0.82024,-1.420554 -2.63902,-1.90794 -4.06552,-1.084732 -1.41758,0.817264 -1.90497,2.636048 -1.08473,4.056601 z m 33.76935,-6.870959 c 1.64641,0 2.97484,-1.325454 2.97781,-2.97187 V 64.602678 c 0,-1.643443 -1.32842,-2.971869 -2.97781,-2.971869 -1.6375,0 -2.96593,1.328426 -2.9689,2.971869 l 0.003,29.718693 c 0,1.643444 1.32843,2.97187 2.96593,2.97187 z m 29.71869,7.964609 c 1.42353,0.82024 3.23934,0.33582 4.06255,-1.0877 l 14.85934,-25.736392 c 0.82321,-1.423525 0.33582,-3.242309 -1.09067,-4.062545 -1.42056,-0.820236 -3.2334,-0.33285 -4.05661,1.087704 l -14.85637,25.739363 c -0.82618,1.42352 -0.33879,3.23636 1.08176,4.05957 z m 21.75408,21.75408 c 0.82321,1.42353 2.63902,1.91092 4.06255,1.08771 l 25.73639,-14.85935 c 1.42352,-0.82023 1.91091,-2.63902 1.08473,-4.05957 -0.81726,-1.42353 -2.63605,-1.90794 -4.0566,-1.08473 l -25.73639,14.85934 c -1.42353,0.82321 -1.90794,2.63308 -1.09068,4.0566 z m 40.65518,26.74683 h -29.7187 c -1.64344,0 -2.97187,1.32842 -2.97187,2.97187 0,1.64344 1.32843,2.97187 2.97187,2.97187 h 29.7187 c 1.64344,0 2.97187,-1.32843 2.97187,-2.97187 0,-1.64345 -1.32843,-2.97187 -2.97187,-2.97187 z" /><path
       id="rect1532"
       style="fill:none;fill-opacity:1;stroke:url(#linearGradient8212);stroke-width:8.47393;stroke-dasharray:none;stroke-opacity:0.992157"
       d="m 254.78558,168.24781 c -20.78325,-0.86854 -39.67802,11.5042 -46.5625,30.49024 -3.27981,-0.97956 -6.66446,-1.5664 -10.08203,-1.74805 -23.71589,-1.0352 -43.73223,17.24184 -44.70703,40.82226 -0.97541,23.57961 17.45872,43.53352 41.17383,44.56836 3.31315,0.0841 6.28542,0.0936 9.29687,0.10157 h 9.35156 c -0.0343,0.29545 -0.0539,0.50705 -0.0977,0.85351 -0.43857,3.47553 -1.37805,9.63561 -4.67188,15.41016 -3.29381,5.77453 -8.94079,11.16423 -13.56054,14.67187 -4.61975,3.50766 -8.21353,5.13331 -10.52344,6.11719 -2.30991,0.98388 -3.33662,1.32684 -0.8125,1.49805 2.52411,0.17121 8.59908,0.17094 14.58789,-0.043 5.98881,-0.21393 11.89213,-0.64162 17.88086,-1.75391 5.98872,-1.11229 12.06274,-2.90959 16.85351,-5.39062 4.79078,-2.48104 8.29848,-5.64651 11.25,-9.53907 2.95152,-3.89254 5.34631,-8.51198 7.22852,-12.49023 1.83533,-3.87918 3.16832,-7.11117 4.14648,-9.33398 h 138.81055 c 18.20045,0 32.85352,-14.65306 32.85352,-32.85352 0,-14.75246 -9.62899,-27.16882 -22.96875,-31.3457 -1.589,-20.4131 -18.70801,-36.48274 -39.82813,-37.38672 -17.53695,-0.70038 -33.61739,9.31134 -40.2168,25.03906 -4.06384,-1.95893 -8.50446,-3.07208 -13.03515,-3.26758 -4.10691,-0.14988 -8.20369,0.45725 -12.07227,1.78906 -4.55532,-20.40443 -22.76496,-35.28994 -44.29492,-36.20898 z"
       sodipodi:nodetypes="ccccccccssssssssscssccccccc" /><path
       id="path5221"
       style="fill:none;fill-opacity:1;stroke:url(#linearGradient10096);stroke-width:8.47393;stroke-dasharray:none;stroke-opacity:0.992157"
       d="m 254.78558,168.24781 c -20.78325,-0.86854 -39.67802,11.5042 -46.5625,30.49024 -3.27981,-0.97956 -6.66446,-1.5664 -10.08203,-1.74805 -23.71589,-1.0352 -43.73223,17.24184 -44.70703,40.82226 -0.97541,23.57961 17.45872,43.53352 41.17383,44.56836 3.31315,0.0841 6.28542,0.0936 9.29687,0.10157 h 9.35156 c -0.0343,0.29545 -0.0539,0.50705 -0.0977,0.85351 -0.43857,3.47553 -1.37805,9.63561 -4.67188,15.41016 -3.29381,5.77453 -8.94079,11.16423 -13.56054,14.67187 -4.61975,3.50766 -8.21353,5.13331 -10.52344,6.11719 -2.30991,0.98388 -3.33662,1.32684 -0.8125,1.49805 2.52411,0.17121 8.59908,0.17094 14.58789,-0.043 5.98881,-0.21393 11.89213,-0.64162 17.88086,-1.75391 5.98872,-1.11229 12.06274,-2.90959 16.85351,-5.39062 4.79078,-2.48104 8.29848,-5.64651 11.25,-9.53907 2.95152,-3.89254 5.34631,-8.51198 7.22852,-12.49023 1.83533,-3.87918 3.16832,-7.11117 4.14648,-9.33398 h 138.81055 c 18.20045,0 32.85352,-14.65306 32.85352,-32.85352 0,-14.75246 -9.62899,-27.16882 -22.96875,-31.3457 -1.589,-20.4131 -18.70801,-36.48274 -39.82813,-37.38672 -17.53695,-0.70038 -33.61739,9.31134 -40.2168,25.03906 -4.06384,-1.95893 -8.50446,-3.07208 -13.03515,-3.26758 -4.10691,-0.14988 -8.20369,0.45725 -12.07227,1.78906 -4.55532,-20.40443 -22.76496,-35.28994 -44.29492,-36.20898 z"
       sodipodi:nodetypes="ccccccccssssssssscssccccccc" /><path
       id="path9861"
       style="fill:url(#linearGradient9764);fill-opacity:1;stroke-width:2.97187"
       d="m 307.31841,103.24231 c -29.54332,0 -53.49218,23.95082 -53.49218,53.49415 0,3.96251 0.44234,7.82012 1.25976,11.5371 21.39733,1.04533 39.46026,15.87518 43.99414,36.1836 3.86858,-1.33181 7.96536,-1.93894 12.07227,-1.78906 4.53068,0.1955 8.97132,1.30865 13.03515,3.26757 5.35211,-12.75514 16.94094,-21.7472 30.48438,-24.31836 3.91434,-7.43408 6.14062,-15.89563 6.14062,-24.88085 0,-29.54333 -23.95081,-53.49415 -53.49414,-53.49415 z m 0,17.83204 c 19.69456,0 35.66407,15.96754 35.66407,35.66211 0,1.64343 -1.32922,2.97265 -2.97266,2.97265 -1.64345,0 -2.97266,-1.32922 -2.97266,-2.97265 0,-16.41362 -13.30809,-29.71875 -29.71875,-29.71875 -1.64344,0 -2.9707,-1.32922 -2.9707,-2.97266 0,-1.64345 1.32726,-2.9707 2.9707,-2.9707 z" /><path
       id="path5095"
       style="fill:none;fill-opacity:1;stroke:url(#linearGradient10098);stroke-width:8.47393;stroke-dasharray:none;stroke-opacity:0.992157"
       d="m 254.78558,168.24781 c -20.78325,-0.86854 -39.67802,11.5042 -46.5625,30.49024 -3.27981,-0.97956 -6.66446,-1.5664 -10.08203,-1.74805 -23.71589,-1.0352 -43.73223,17.24184 -44.70703,40.82226 -0.97541,23.57961 17.45872,43.53352 41.17383,44.56836 3.31315,0.0841 6.28542,0.0936 9.29687,0.10157 h 9.35156 c -0.0343,0.29545 -0.0539,0.50705 -0.0977,0.85351 -0.43857,3.47553 -1.37805,9.63561 -4.67188,15.41016 -3.29381,5.77453 -8.94079,11.16423 -13.56054,14.67187 -4.61975,3.50766 -8.21353,5.13331 -10.52344,6.11719 -2.30991,0.98388 -3.33662,1.32684 -0.8125,1.49805 2.52411,0.17121 8.59908,0.17094 14.58789,-0.043 5.98881,-0.21393 11.89213,-0.64162 17.88086,-1.75391 5.98872,-1.11229 12.06274,-2.90959 16.85351,-5.39062 4.79078,-2.48104 8.29848,-5.64651 11.25,-9.53907 2.95152,-3.89254 5.34631,-8.51198 7.22852,-12.49023 1.83533,-3.87918 3.16832,-7.11117 4.14648,-9.33398 h 138.81055 c 18.20045,0 32.85352,-14.65306 32.85352,-32.85352 0,-14.75246 -9.62899,-27.16882 -22.96875,-31.3457 -1.589,-20.4131 -18.70801,-36.48274 -39.82813,-37.38672 -17.53695,-0.70038 -33.61739,9.31134 -40.2168,25.03906 -4.06384,-1.95893 -8.50446,-3.07208 -13.03515,-3.26758 -4.10691,-0.14988 -8.20369,0.45725 -12.07227,1.78906 -4.55532,-20.40443 -22.76496,-35.28994 -44.29492,-36.20898 z"
       sodipodi:nodetypes="ccccccccssssssssscssccccccc" /><path
       id="path5097"
       style="fill:none;fill-opacity:1;stroke:url(#linearGradient8236);stroke-width:8.47393;stroke-dasharray:none;stroke-opacity:0.992157"
       d="m 254.78558,168.24781 c -20.78325,-0.86854 -39.67802,11.5042 -46.5625,30.49024 -3.27981,-0.97956 -6.66446,-1.5664 -10.08203,-1.74805 -23.71589,-1.0352 -43.73223,17.24184 -44.70703,40.82226 -0.97541,23.57961 17.45872,43.53352 41.17383,44.56836 3.31315,0.0841 6.28542,0.0936 9.29687,0.10157 h 9.35156 c -0.0343,0.29545 -0.0539,0.50705 -0.0977,0.85351 -0.43857,3.47553 -1.37805,9.63561 -4.67188,15.41016 -3.29381,5.77453 -8.94079,11.16423 -13.56054,14.67187 -4.61975,3.50766 -8.21353,5.13331 -10.52344,6.11719 -2.30991,0.98388 -3.33662,1.32684 -0.8125,1.49805 2.52411,0.17121 8.59908,0.17094 14.58789,-0.043 5.98881,-0.21393 11.89213,-0.64162 17.88086,-1.75391 5.98872,-1.11229 12.06274,-2.90959 16.85351,-5.39062 4.79078,-2.48104 8.29848,-5.64651 11.25,-9.53907 2.95152,-3.89254 5.34631,-8.51198 7.22852,-12.49023 1.83533,-3.87918 3.16832,-7.11117 4.14648,-9.33398 h 138.81055 c 18.20045,0 32.85352,-14.65306 32.85352,-32.85352 0,-14.75246 -9.62899,-27.16882 -22.96875,-31.3457 -1.589,-20.4131 -18.70801,-36.48274 -39.82813,-37.38672 -17.53695,-0.70038 -33.61739,9.31134 -40.2168,25.03906 -4.06384,-1.95893 -8.50446,-3.07208 -13.03515,-3.26758 -4.10691,-0.14988 -8.20369,0.45725 -12.07227,1.78906 -4.55532,-20.40443 -22.76496,-35.28994 -44.29492,-36.20898 z"
       sodipodi:nodetypes="ccccccccssssssssscssccccccc" /><g
       id="g417"
       transform="matrix(0.06844063,0,0,0.06844063,252.69556,143.4101)"
       style="fill:#d0ffff;fill-opacity:1"><path
         d="m 701.47,1236 c 0,22.977 -9.786,6.046 -9.81,-0.023 -0.023,-5.77 -1.44,-4.202 -15.151,-16.634 -8.616,-7.812 -8.426,5.187 -7.54,7.142 3.938,8.692 3.924,17.995 4.798,27.263 4.308,45.676 -5.219,46.671 -8.279,57.723 -2.205,7.966 -6.561,-2.73 -8.142,3.532 -4.452,17.641 -7.821,-0.728 -8.961,-0.71 -2.144,0.032 -0.702,9.085 -4.632,9.497 -6.261,0.657 -5.645,-14.116 -4.555,-20.429 0.174,-1.008 1.07,-6.236 -0.154,-6.352 -1.646,-0.156 -1.382,5.246 -5.427,14.608 -2.212,5.121 -4.803,3.831 -6.214,-0.148 -3.499,-9.863 3.361,-16.156 -2.312,-19.797 -1.884,-1.209 -11.278,-32.762 -11.885,-37.887 -1.319,-11.129 -15.998,-22.341 -25.833,-47.619 -11.29,-29.018 0.704,-15.068 -59.593,-5.301 -5.714,0.926 -6.527,-5.008 -3.371,-7.71 4.092,-3.505 5.969,-7.049 7.68,-6.911 43.55,3.51 77.533,-45.758 132.25,-55.601 17.284,-3.109 14.047,9.308 35.883,11.586 4.67,0.488 8.309,8.101 36.847,1.298 33.897,-8.081 11.465,-5.217 42.456,5.645 3.837,1.345 13.935,2.903 12.695,6.815 -0.861,2.714 -11.627,-0.122 -13.279,-0.531 -9.49,-2.349 -10.864,4.735 -31.461,2.091 -12.289,-1.577 -24.14,-0.033 -35.933,3.292 -9.012,2.542 29.21,54.938 28.855,56.06 -0.811,2.568 -11.322,-1.481 -5.528,6.891 1.469,2.122 5.189,4.59 3.209,7.123 -2.916,3.729 -10.387,-3.781 -13.102,-6.318 -1.027,1.152 -0.552,1.47 3.811,13.52 2.764,7.631 -4.944,10.194 -11.937,-5.318 -6.228,-13.815 5.914,25.531 -4.586,16.302 -6.248,-5.491 -6.207,-12.585 -8.236,-22.392 -0.161,-0.777 -0.638,-1.489 -0.97,-2.231 -1.689,2.988 -1.431,-0.232 -1.431,11.526 -0.054,0 -0.106,0 -0.158,0 z m -61.931,56.048 c 0.167,0.698 -0.276,1.551 0.513,2.115 0.653,-1.517 2.687,-5.262 0.593,-4.918 -1.705,0.281 -0.84,1.8 -1.106,2.803 z"
         id="path375"
         style="fill:#d0ffff;fill-opacity:1" /><path
         d="m 1208.5,1130.1 c 0,22.978 -11.091,4.66 -10.737,-0.696 0.182,-2.756 -0.893,-4.245 -3.299,-5.412 -5.01,-2.431 -8.578,-6.823 -13.046,-10.016 -8.581,-6.132 -7.661,6.106 -6.821,8.051 7.062,16.347 7.625,65.938 0.375,71.192 -6.123,4.437 -1.159,13.1 -9.819,9.994 -4.997,-1.792 -2.609,9.046 -7.36,8.517 -6.398,-0.712 -2.964,-15.455 -7.423,-1.438 -2.205,6.933 -10.057,0.61 -8.341,-11.198 5.102,-35.111 -4.832,17.499 -11.288,3.403 -4.172,-9.113 3.118,-16.265 -2.801,-19.596 -1.096,-0.617 -1.829,-1.463 -2.047,-2.666 -2.036,-11.215 -8.651,-21.065 -10.178,-32.282 -1.736,-12.745 -11.279,-12.157 -30.14,-50.733 -3.433,-7.021 -2.655,-13.368 -10.102,-11.215 -85.588,24.746 -54.059,-4.69 -29.926,-3.432 23.595,1.229 21.341,-8.626 29.873,-11.336 8.025,-2.549 88.603,-52.717 108.84,-38.345 14.344,10.184 20.074,6.711 27.705,10.27 21.803,10.172 50.466,-11.707 61.273,-2.094 9.416,8.375 31.629,7.355 30.089,13.5 -0.764,3.048 -9.15,0.267 -11.671,-0.228 -11.8,-2.317 -9.21,1.613 -18.585,1.563 -11.997,-0.064 -23.995,-0.046 -35.992,-0.121 -6.224,-0.039 -11.808,3.126 -18.001,3.439 -7.232,0.365 8.901,21.987 9.969,23.288 3.999,4.871 5.87,11.153 9.81,16.136 10.094,12.765 11.47,11.236 10.58,13.925 -0.874,2.637 -14.07,-2.008 -4.102,8.102 3.419,3.469 3.383,5.816 -2.916,5.109 -6.419,-0.721 -6.817,-7.318 -9.267,-5.497 -1.655,1.23 0.876,2.911 4.05,11.873 2.381,6.724 -3.652,11.015 -13.334,-6.044 -5.652,-9.957 7.219,27.266 -4.536,16.348 -7.138,-6.63 -5.78,-12.674 -8.491,-20.759 -0.258,-0.771 0.336,-2.321 -1.165,-2.098 -1.132,0.168 -1.11,1.506 -1.119,2.502 -0.023,2.665 -0.01,5.33 -0.01,7.995 -0.019,0 -0.037,0 -0.054,0 z m -64.985,51.867 c 0.126,0.744 0.262,1.543 0.398,2.342 0.891,-0.291 2.22,-3.527 0.469,-3.786 -1.128,-0.167 -0.52,0.904 -0.867,1.444 z"
         id="path377"
         style="fill:#d0ffff;fill-opacity:1" /><path
         d="m 320.56,230.18 c 0,8.123 0.469,9.911 -1.916,10.625 -3.282,0.982 -8.149,-6.976 -7.899,-11.702 0.186,-3.516 -1.155,-5.465 -4.148,-7.096 -4.434,-2.415 -7.37,-6.685 -11.194,-9.884 -8.237,-6.89 -7.369,7.005 -6.261,8.986 4.852,8.677 9.517,66.984 -1.633,76.452 -3.201,2.718 0.372,12.152 -7.401,8.977 -4.916,-2.009 -3.141,15.636 -9.568,6.814 -1.997,-2.741 0.321,-5.971 -2.032,-5.98 -1.054,-0.004 -1.827,4.272 -1.926,5.211 -0.628,5.97 -4.828,5.656 -6.717,0.862 -2.712,-6.884 1.127,-31.694 -2.46,-19.673 -4.185,14.027 -4.741,14.936 -6.653,14.816 -3.442,-0.217 -5.108,-8.402 -3.547,-15.302 2.033,-8.982 -2.91,-7.056 -3.484,-10.441 -9.158,-53.983 -28.028,-54.861 -41.11,-97.042 -2.237,-7.212 -4.406,-2.211 -36.89,5.448 -3.582,0.845 -19.839,4.903 -20.931,1.227 -1.713,-5.769 5.662,-15.365 22.987,-13.716 19.383,1.845 20.235,-7.575 28.395,-11.806 14.66,-7.602 83.872,-54.791 101.06,-41.122 10.914,8.679 36.318,14.304 38.1,14.28 25.436,-0.332 37.019,-15.214 49.192,-2.831 4.037,4.107 17.14,5.905 22.242,8.043 5.799,2.431 4.536,6.471 -1.873,5.416 -8.442,-1.39 -11.244,-4.152 -16.859,-1.338 -5.524,2.768 -27.274,1.464 -31.589,0.685 -7.411,-1.337 -12.798,1.63 -23.9,3.72 -4.238,0.798 -4.456,1.219 -3.03,5.097 6.346,17.253 29.949,51.588 29.949,51.588 -0.583,2.171 -2.427,1.176 -3.768,1.247 -10.008,0.533 3.508,8.425 1.448,11.947 -4.13,7.061 -16.79,-12.198 -12.955,-2.034 4.97,13.174 5.029,13.951 3.487,14.85 -5.675,3.31 -10.74,-6.601 -12.07,-11.513 -0.952,-3.516 -2.856,-2.373 -2.002,0.57 8.268,28.489 -6.884,19.206 -8.825,2.612 -1.287,-11.001 -3.789,-10.923 -3.984,-6.977 -0.147,2.988 -0.055,5.988 -0.055,8.983 -0.061,0 -0.121,0 -0.181,0.001 z m -61.079,55.113 c 0.554,0.721 -0.509,1.95 0.593,2.814 0.86,-2.606 2.446,-6.209 0.532,-5.833 -1.633,0.321 -0.803,1.795 -1.125,3.019 z"
         id="path379"
         style="fill:#d0ffff;fill-opacity:1" /><path
         d="m 1594.5,1098.8 c -5.356,13.454 5.973,18.798 25.002,25.302 5.749,1.965 7.297,8.704 2.661,12.72 -1.758,1.522 -1.637,1.559 10.375,4.401 33.963,8.036 8.083,3.604 36.91,4.598 10.436,0.36 8.651,8.536 14.251,10.708 4.583,1.778 6.573,6.15 9.728,9.34 1.657,1.675 0.711,3.535 -0.595,4.865 -4.474,4.555 -4.489,-2.878 -17.299,-5.525 -25.706,-5.307 -8.509,-9.867 -65.363,-22.569 -24.182,-5.403 -30.455,5.235 -64.21,4.34 -29.092,-0.771 -44.238,4.552 -58.766,1.201 -1.744,-0.402 -3.824,-0.673 -5.425,-0.1 -6.167,2.21 -18.363,-7.17 -13.384,-21.008 3.584,-9.959 -35.649,-9.877 -48.436,-9.15 -5.462,0.311 -4.698,-5.27 -0.258,-5.809 62.469,-7.591 19.71,-2.836 67.838,-14.976 7.106,-1.792 19.797,-6.285 12.492,-10.03 -6.344,-3.252 -10.571,-6.756 -1.906,-50.146 0.323,-1.62 1.061,-10.511 3.194,-10.584 8.379,-0.287 5.218,-56.948 13.207,-28.573 2.406,8.544 4.01,-10.114 7.783,-10.4 4.249,-0.322 2.638,16.324 6.181,9.227 5.007,-10.021 8.193,-11.993 9.12,-0.292 0.692,8.745 5.857,-6.344 9.745,-5.177 4.548,1.366 -1.345,9.182 7.508,9.349 5.185,0.098 1.057,5.162 7.841,10.056 1.845,1.331 2.835,3.054 3.931,4.962 2.223,3.868 6.233,6.123 9.348,9.207 13.565,13.432 26.501,54.036 18.527,74.063 z"
         id="path381"
         style="fill:#d0ffff;fill-opacity:1" /><path
         d="m 222.26,1301.1 c 6.453,-1.636 99.069,-52.438 122.02,-36.904 11.164,7.557 21.372,7.468 23.669,8.546 22.846,10.722 50.752,-7.257 60.371,0.257 8.287,6.474 19.032,7.309 27.723,10.189 3.623,1.201 3.165,4.664 -0.879,4.146 -31.47,-4.032 -16.355,1.521 -39.927,-0.793 -34.01,-3.338 -18.868,-0.362 -37.536,0.911 -8.063,0.55 4.41,16.934 6.039,18.69 5.248,5.658 8.493,17.255 19.023,25.81 8.791,7.143 -12.29,-0.325 -3.835,9.007 5.346,5.9 1.254,7.736 -4.326,4.756 -3.669,-1.959 -10.566,-12.571 -2.834,6.598 3.251,8.057 -7.703,5.398 -12.279,-5.83 -3.496,-8.58 0.038,10.575 0.007,11.801 -0.194,7.68 -9.922,1.911 -11.602,-11.873 -0.957,-7.849 -3.78,-10.798 -4.337,8.088 -0.317,10.749 -10.72,-0.198 -9.934,-7.085 0.163,-1.431 -0.297,-2.761 -1.671,-3.329 -9.743,-4.027 -17.626,-17.951 -20.829,-8.066 -0.59,1.823 -0.775,3.543 0.189,5.297 3.422,6.229 2.996,13.2 3.726,19.93 4.333,39.987 -8.262,41.398 -10.797,50.233 -1.529,5.328 -5.961,-5.18 -8.429,3.198 -0.639,2.168 -1.554,4.243 -3.735,4.001 -5.407,-0.6 -2.227,-13.651 -7.365,-1.417 -2.283,5.434 -8.41,0.701 -7.61,-8.484 0.52,-5.977 2.009,-7.642 1.138,-11.064 -2.211,2.22 -7.328,20.678 -11.988,12.022 -4.724,-8.776 4.644,-14.135 -2.8,-17.672 -0.375,-0.178 -0.812,-0.833 -0.762,-1.203 0.544,-3.983 -2.441,-6.667 -3.503,-9.981 -2.706,-8.448 -6.621,-16.597 -7.293,-25.636 0,0 -21.789,-23.546 -29.317,-46.254 -1.922,-5.798 -3.692,-2.477 -38.486,3.263 -12.297,2.029 -29.297,3.317 -19.859,-4.808 14.308,-12.316 16.584,-0.908 38.028,-6.344 z m 77.898,92.395 c 0.458,-1 0.971,-2.16 0.02,-2.897 -0.58,1.003 -1.101,2.055 -0.02,2.897 z"
         id="path383"
         style="fill:#d0ffff;fill-opacity:1" /><path
         d="m 1081.6,517.04 c -2.794,2.809 -4.158,15.045 -8.476,14.625 -3.847,-0.374 -4.712,-7.532 -4,-10.564 0.831,-3.54 1.789,-7.291 -2.585,-9.553 -0.461,-0.238 -0.898,-1.159 -0.824,-1.691 0.455,-3.271 -1.864,-5.406 -2.914,-8.075 -3.294,-8.372 -7.759,-16.433 -8.219,-25.723 -0.053,-1.067 -0.348,-2.045 -1.327,-2.516 -5.827,-2.804 -8.09,-8.865 -12.229,-13.188 -40.734,-42.54 10.561,-36.072 -65.257,-23.873 -24.213,3.896 -11.86,-13.104 9.653,-11.629 9.569,0.656 18.666,-0.091 26.403,-7.236 4.386,-4.049 10.874,-4.733 16.278,-7.273 114.37,-53.732 80.222,-22.219 117.08,-21.186 0.799,0.022 1.633,0.34 2.374,0.686 16.31,7.622 41.053,-2.56 51.654,-3.079 10.954,-0.537 -0.176,-0.303 27.942,8.42 23.255,7.215 3.112,6.55 -1.374,4.874 -7.146,-2.67 -16.585,3.79 -31.912,1.575 -19.76,-2.857 -31.137,1.805 -36.959,2.638 -11.198,1.602 29.142,44.848 28.334,46.737 -0.693,1.622 -2.641,0.717 -4.04,0.882 -8.999,1.066 9.316,11.209 -0.033,11.043 -3.728,-0.066 -6.669,-1.742 -9.036,-4.519 -8.599,-10.089 10.062,19.715 -2.649,14.092 -5.482,-2.425 -5.927,-6.874 -8.595,-8.767 -0.38,-5.757 -2.708,-2.365 -0.574,0.483 1.233,10.997 3.025,17.665 -3.451,13.086 -8.815,-6.232 -8.413,-27.823 -10.753,-18.373 -1.699,6.859 1.061,15.511 -2.105,16.795 -3.071,1.245 -8.172,-4.118 -8.331,-10.326 -0.041,-1.592 -0.276,-3.249 -1.823,-3.812 -8.604,-3.133 -15.829,-13.847 -19.64,-10.595 -2.232,1.905 -2.619,5.312 -1.315,7.894 5.839,11.561 6.364,43.179 3.417,56.511 -1.868,8.449 -3.848,3.717 -7.031,12.669 -2.884,8.109 -6.541,-2.438 -8.747,3.901 -1.066,3.063 -1.383,5.674 -4.008,5.579 -5.253,-0.191 -3.61,-12.573 -6.954,-2.731 -3.568,10.505 -10.959,-2.125 -8.259,-10.177 0.807,-2.405 1.703,-5.103 0.199,-7.701 0.52,0.016 1.075,0.056 0.497,-0.704 -0.136,0.269 -0.272,0.535 -0.409,0.801 z m 2.091,-4.022 c -0.647,-5.542 -2.069,0.67 -0.486,1.151 0.045,0.013 0.341,-0.802 0.486,-1.151 z"
         id="path385"
         style="fill:#d0ffff;fill-opacity:1" /><path
         d="m 1532.2,610 c 7.823,1.805 3.455,5.799 12.726,9.624 13.011,5.367 8.703,17.144 1.068,10.92 -8.607,-7.017 -20.454,-2.47 -29.049,-10.18 -5.642,-5.061 -65.263,-18.392 -67.297,-17.158 -12.427,7.538 -119.61,5.2 -120.61,5.195 -7.751,-0.039 -16.796,-9.894 -12.254,-17.959 4.343,-7.71 -32.963,-10.01 -41.236,-9.509 -8.422,0.51 -11.486,2.692 -11.894,-1.564 -0.215,-2.239 -1.306,-4.136 26.82,-4.226 18.317,-0.058 10.553,-3.861 47.427,-10.173 8.773,-1.502 21.044,-5.152 13.366,-8.09 -11.142,-4.264 -7.917,-12.287 -0.41,-46.973 2.007,-9.271 5.203,-1.626 6.815,-7.406 2.46,-8.816 4.001,-38.79 9.203,-25.294 3.827,9.928 3.278,5.373 6.425,-2 1.059,-2.48 3.88,-3.903 5.865,0.482 0.848,1.873 -0.301,5.274 1.962,5.609 2.799,0.414 4.018,-9.673 8.191,-7.836 4.588,2.02 1.551,7.957 3.601,8.966 2.41,1.186 5.423,-7.811 9.754,-6.095 4.102,1.625 -0.864,8.014 5.575,7.717 3.517,-0.163 5.663,1.437 6.28,4.999 0.233,1.345 15.887,15.011 18.278,16.578 14.012,9.182 8.344,13.914 12.538,20.254 23.473,35.478 -12.016,49.063 14.343,58.753 17.583,6.464 20.467,4.963 22.119,11.02 2.374,8.706 -14.733,3.13 9.6,9.586 26.742,7.093 28.351,1.889 40.793,4.76 z"
         id="path387"
         style="fill:#d0ffff;fill-opacity:1" /><path
         d="m 787.83,225.44 c -0.178,-5.932 31.692,-1.421 47.674,-8.779 11.238,-5.174 31.252,-5.851 39.757,-10.445 4.551,-2.459 0.887,-4.932 -0.114,-5.213 -8.379,-2.353 -8.756,-7.851 -1.18,-44.473 0.207,-1 1.867,-7.227 3.108,-7.075 9.323,1.139 3.837,-29.306 10.408,-29.384 3.632,-0.043 3.662,11.865 6.285,6.058 9.427,-20.871 7.296,-1.043 10.384,-0.575 2.164,0.328 4.098,-8.984 7.808,-7.931 5.61,1.593 1.153,13.783 6.963,6.96 10.436,-12.256 7.312,3.985 12.705,2.878 6.114,-1.255 1.826,3.797 17.371,16.367 5.784,4.677 12.939,7.736 16.678,14.838 1.295,2.461 0.677,5.148 2.028,7.589 5.171,9.345 14.636,25.574 7.305,44.623 -1.176,3.056 -0.093,6.094 -1.202,9.079 -1.507,4.055 24.783,12.727 29.064,13.3 3.827,0.512 5.613,6.547 2.982,9.55 -1.284,1.465 -2.302,2.192 0.465,2.758 9.248,1.892 18.42,4.335 27.753,5.573 14.826,1.966 24.355,-4.015 29.772,5.241 0.983,1.68 2.339,2.889 4.078,3.496 4.374,1.527 7.368,4.819 10.476,7.949 3.806,3.832 -2.663,7.071 -5.883,4.564 -8.919,-6.946 -22.951,-2.284 -30.803,-10.771 -2.275,-2.459 -64.811,-17.983 -68.234,-15.028 -6.442,5.561 -120.88,7.982 -116.29,6.895 -8.505,2.013 -19.233,-8.804 -15.908,-16.479 1.569,-3.623 3.847,-6.876 -17.605,-8.865 -32.432,-3.009 -35.69,2.469 -35.845,-2.7 z"
         id="path389"
         style="fill:#d0ffff;fill-opacity:1" /><path
         d="m 654.52,307.21 c 14.268,3.902 0.629,11.224 5.685,12.947 33.913,11.562 51.333,-0.272 58.071,10.762 1.453,2.38 23.096,13.524 13.271,16.78 -1.828,0.606 -3.714,0.417 -5.19,-0.901 -8.014,-7.152 -21.406,-2.087 -29.174,-9.735 -3.137,-3.089 -43.905,-12.693 -49.142,-13.489 -44.221,-6.72 -165.29,23.806 -151.36,-13.309 2.19,-5.837 -9.136,-5.183 -14.59,-6.531 -11.787,-2.913 -13.527,-3.552 -34.986,-1.297 -6.539,0.687 -6.371,-4.994 -0.663,-5.301 29.821,-1.604 36.086,-2.67 43.231,-5.809 13.075,-5.746 29.121,-5.385 39.338,-10.091 10.728,-4.942 -7.249,-2.462 -5.661,-18.1 0.103,-1.012 4.015,-39.715 10.036,-39.066 5.358,0.577 3.482,-31.177 8.576,-30.556 3.839,0.468 1.186,8.046 4.914,8.214 3.08,0.139 2.576,-10.68 7.104,-10.038 4.307,0.611 1.777,8.71 4.482,9.078 2.047,0.279 3.919,-9.372 7.928,-8.416 4.187,0.999 2.142,8.017 4.215,8.69 2.964,0.962 4.82,-7.432 9.176,-6.103 5.03,1.535 0.113,8.1 5.827,7.393 7.331,-0.907 4.011,6.088 10.51,9.03 1.164,0.527 2.605,1.049 3.132,2.361 2.021,5.035 7.239,6.316 10.91,9.395 16.956,14.224 7.348,10.976 13.796,21.156 27.023,42.664 -23.43,48.169 30.564,62.936 z"
         id="path391"
         style="fill:#d0ffff;fill-opacity:1" /><path
         d="m 1836.4,876.05 c 12.844,-0.792 10.51,6.708 17,9.138 4.053,1.517 15.794,9.921 8.943,12.744 -1.649,0.68 -3.47,0.674 -4.755,-0.469 -8.105,-7.205 -20.504,-2.604 -29.246,-9.547 -6.526,-5.184 -64.932,-19.813 -74.484,-14.375 -72.765,2.418 -123.74,14.917 -127.89,-7.005 -1.093,-5.77 5.321,-8.666 -1.915,-10.34 -22.981,-5.316 -33.454,-5.122 -45.795,-3.302 -6.914,1.02 -8.597,-5.394 2.308,-5.63 30.36,-0.656 35.598,-3.411 42.022,-6.315 8.773,-3.966 29.694,-5.396 38.261,-9.767 4.211,-2.149 -0.754,-5.688 -1.754,-5.954 -5.342,-1.422 -9.097,-3.418 0.662,-45.931 1.985,-8.646 5.025,-0.353 6.621,-7.575 4.057,-18.372 0.911,-17.072 4.021,-24.93 3.485,-8.809 4.984,5.802 6.921,5.774 2.618,-0.038 4.799,-17.15 9.656,-7.761 1.484,2.869 -0.607,5.549 2.286,5.828 2.674,0.257 3.494,-8.927 7.927,-7.632 3.253,0.95 3.216,6.093 3.326,7.194 0.515,5.14 4.205,-2 6.809,-3.967 7.597,-5.74 2.382,8.031 10.319,6.527 5.84,-1.106 2.589,6.543 9.38,8.973 0.46,0.165 1.052,0.389 1.261,0.765 4.012,7.23 12.153,9.709 17.611,15.315 8.284,8.509 3.715,8.709 7.662,14.993 14.405,22.932 7.898,37.589 5.49,52.245 -1.035,6.302 31.023,11.789 32.599,17.096 2.824,9.511 -11.107,6.505 8.339,10.33 15.314,3.012 13.826,4.971 36.417,3.578 z"
         id="path393"
         style="fill:#d0ffff;fill-opacity:1" /><path
         d="m 1067.5,1373.1 c 9.497,0.23 7.88,7.847 14.773,9.794 2.312,0.653 14.48,8.797 8.035,11.883 -1.55,0.742 -3.498,0.788 -4.8,-0.285 -5.665,-4.671 -12.699,-4.407 -19.312,-5.504 -11.05,-1.833 -8.185,-5.076 -17.097,-7.488 -94.336,-25.522 -47.862,-4.403 -121.02,-7.815 -17.276,-0.806 -69.185,11.403 -74.127,-8.946 -1.638,-6.745 5.415,-10.202 -1.845,-11.582 -41.558,-7.892 -42.626,-2.896 -46.351,-3.332 -1.807,-0.212 -4.51,1.138 -4.942,-1.782 -0.775,-5.244 20.992,-3.866 36.15,-5.887 7.184,-0.958 13.452,-4.656 20.309,-6.615 8.367,-2.391 39.675,-4.838 31.802,-11.72 -3.81,-3.33 -8.539,-1.084 -7.516,-12.136 0.571,-6.17 5.272,-38.941 7.662,-39.265 9.418,-1.279 5.568,-20.328 8.764,-28.347 1.863,-4.675 3.485,-3.078 4.522,-0.034 5.06,14.863 4.176,-5.775 9.847,-4.763 4.05,0.722 2.41,8.324 4.108,8.703 2.99,0.667 3.489,-8.81 8.401,-7.798 4.802,0.989 1.806,7.802 4.32,8.621 2.059,0.67 1.625,-1.94 5.523,-5.255 2.78,-2.364 5.346,-1.704 5.632,1.846 0.295,3.66 1.283,4.936 5.119,4.36 4.847,-0.728 2.47,4.532 9.414,9.124 0.416,0.275 0.998,0.445 1.232,0.829 4.262,7.002 12.202,9.724 17.722,15.264 9.242,9.274 2.825,8.288 8.458,16.77 7.363,11.088 11.121,27.282 4.419,50.393 -1.251,4.315 22.797,11.593 26.706,12.75 12.917,3.82 0.589,11.631 4.415,12.539 36.99,8.792 24.433,5.066 49.675,5.678 z"
         id="path395"
         style="fill:#d0ffff;fill-opacity:1" /><path
         d="m 1232.3,871.79 c -0.171,-4.289 2.265,-1.677 36.936,-5.671 7.116,-0.82 13.422,-4.62 20.294,-6.554 6.896,-1.941 38.627,-4.648 30.257,-11.739 -2.153,-1.823 -8.526,-0.149 -7.089,-14.465 0.325,-3.232 4.147,-38.04 9.95,-37.351 4.858,0.577 4.853,-41.897 10.462,-28.752 0.427,1 2.451,10.443 4.69,4.726 7.776,-19.854 8.129,0.033 9.997,0.186 2.487,0.204 3.523,-8.765 7.891,-7.844 2.721,0.573 3.117,3.546 3.202,6.145 0.276,8.405 6.563,-5.69 10.438,-3.866 4.74,2.23 -0.766,7.931 6.427,7.505 6.297,-0.373 4.206,5.959 7.799,7.788 2.865,1.459 4.651,3.914 6.735,6.295 3.124,3.57 20.847,13.205 20.231,20.242 -0.692,7.903 19.274,22.545 7.139,57.712 -0.603,1.747 1.223,2.392 2.456,3.258 16.613,11.657 31.491,6.039 30.445,17.182 -0.425,4.529 -5.287,4.278 0.774,5.593 67.084,14.555 30.636,-9.904 71.292,22.675 2.68,2.148 -2.32,6.794 -5.053,4.557 -9.209,-7.537 -23.473,-3.637 -29.719,-9.697 -4.784,-4.641 -43.279,-13.163 -49.865,-14.236 -44.067,-7.181 -164.67,24.741 -151.84,-13.843 1.296,-3.898 -2.426,-4.109 -4.365,-4.427 -5.591,-0.917 -15.618,-3.255 -23.478,-4.218 -11.175,-1.369 -25.81,3.757 -26.008,-1.201 z"
         id="path397"
         style="fill:#d0ffff;fill-opacity:1" /></g><g
       id="g654"><path
         id="rect772"
         style="opacity:0.60076;fill:#28b2d7;fill-opacity:0.898039;stroke-width:0.991672"
         d="M 1159.6866,93.572732 H 946.9141 A 139.18197,139.18197 0 0 0 807.73213,232.7547 129.20245,129.20245 0 0 0 946.9141,351.13936 h 212.7725 z" /><path
         id="rect774"
         style="opacity:0.60076;fill:#f9b800;fill-opacity:0.94902;stroke-width:1.11261"
         d="M 809.3318,110.0785 A 113.58529,113.58529 0 0 0 695.74581,223.66234 113.07917,113.07917 0 0 0 809.3318,336.2347 H 876.289 A 129.20245,129.20245 0 0 1 807.73282,232.75481 139.18197,139.18197 0 0 1 881.54649,110.0785 Z" /><path
         id="rect830"
         style="opacity:0.60076;fill:#fad604;stroke-width:0.978579"
         d="m 698.69414,125.29575 a 88.725416,88.725416 0 0 0 -88.72534,88.72534 v 21.46039 a 88.725416,88.725416 0 0 0 88.72534,88.72533 h 59.8769 a 113.07917,113.07917 0 0 1 -62.82523,-100.54447 113.58529,113.58529 0 0 1 57.32886,-98.36659 z" /></g></g></svg>
