<?xml version="1.0" encoding="UTF-8" standalone="no"?>
<!-- Created with Inkscape (http://www.inkscape.org/) -->

<svg
   width="130mm"
   height="120mm"
   viewBox="0 0 460.62992 425.19685"
   id="svg12566"
   version="1.1"
   inkscape:version="1.2.2 (732a01da63, 2022-12-09)"
   sodipodi:docname="darud.svg"
   xmlns:inkscape="http://www.inkscape.org/namespaces/inkscape"
   xmlns:sodipodi="http://sodipodi.sourceforge.net/DTD/sodipodi-0.dtd"
   xmlns:xlink="http://www.w3.org/1999/xlink"
   xmlns="http://www.w3.org/2000/svg"
   xmlns:svg="http://www.w3.org/2000/svg"
   xmlns:rdf="http://www.w3.org/1999/02/22-rdf-syntax-ns#"
   xmlns:cc="http://creativecommons.org/ns#"
   xmlns:dc="http://purl.org/dc/elements/1.1/">
  <defs
     id="defs12568">
    <linearGradient
       inkscape:collect="always"
       id="linearGradient2759">
      <stop
         style="stop-color:#07a6f4;stop-opacity:1;"
         offset="0"
         id="stop2755" />
      <stop
         style="stop-color:#5c5c11;stop-opacity:0.96037298;"
         offset="1"
         id="stop2757" />
    </linearGradient>
    <linearGradient
       inkscape:collect="always"
       xlink:href="#linearGradient2759"
       id="linearGradient2761"
       x1="-802.70355"
       y1="295.1524"
       x2="-376.81067"
       y2="678.18811"
       gradientUnits="userSpaceOnUse" />
  </defs>
  <sodipodi:namedview
     id="base"
     pagecolor="#ffffff"
     bordercolor="#ffffff"
     borderopacity="0"
     inkscape:pageopacity="0.0"
     inkscape:pageshadow="2"
     inkscape:zoom="0.35"
     inkscape:cx="164.28571"
     inkscape:cy="162.85714"
     inkscape:document-units="px"
     inkscape:current-layer="layer1"
     showgrid="false"
     fit-margin-top="0"
     fit-margin-left="0"
     fit-margin-right="0"
     fit-margin-bottom="0"
     inkscape:window-width="1366"
     inkscape:window-height="705"
     inkscape:window-x="-8"
     inkscape:window-y="32"
     inkscape:window-maximized="1"
     inkscape:showpageshadow="0"
     inkscape:pagecheckerboard="0"
     inkscape:deskcolor="#d1d1d1"
     showborder="false" />
  <metadata
     id="metadata12571">
    <rdf:RDF>
      <cc:Work
         rdf:about="">
        <dc:format>image/svg+xml</dc:format>
        <dc:type
           rdf:resource="http://purl.org/dc/dcmitype/StillImage" />
      </cc:Work>
    </rdf:RDF>
  </metadata>
  <g
     inkscape:label="Layer 1"
     inkscape:groupmode="layer"
     id="layer1"
     transform="translate(834.84639,-268.3667)">
    <path
       style="fill:url(#linearGradient2761);fill-opacity:1"
       d="m -651.16352,673.66921 -11.2645,-5.57153 1.8821,-3.1415 c 1.0351,-1.72782 3.7615,-6.40399 6.0586,-10.39149 2.2971,-3.9875 4.3547,-7.25 4.5724,-7.25 0.2177,0 4.2993,2.025 9.0701,4.5 4.7709,2.475 9.1913,4.5 9.8232,4.5 0.6319,0 3.0966,-2.49371 5.477,-5.54158 l 4.328,-5.54157 4.6588,2.69005 c 2.5623,1.47952 7.4655,4.31073 10.896,6.29157 3.5752,2.06441 6.0453,4.12824 5.7875,4.83563 -0.2474,0.67875 -3.4125,5.27073 -7.0337,10.20439 l -6.5841,8.9703 -8.3879,-4.95439 c -4.6134,-2.72492 -8.8629,-4.9544 -9.4433,-4.9544 -0.5804,0 -2.6986,2.475 -4.7071,5.5 -2.0085,3.025 -3.7006,5.48336 -3.7602,5.46302 -0.06,-0.0203 -5.1774,-2.54416 -11.3729,-5.6085 z m 98.2535,0.17159 c -23.2374,-5.24968 -41.2087,-29.00952 -39.9557,-52.82522 0.4754,-9.03496 0.6823,-9.93919 3.8633,-16.88681 1.4319,-3.12726 2.6028,-5.82726 2.6022,-6 -7e-4,-0.17275 -3.0382,-0.4046 -6.75,-0.51524 -10.0704,-0.30016 -14.0908,-1.05011 -17.0942,-3.18875 l -2.7102,-1.92981 -0.068,4.15986 c -0.061,3.76726 -0.7201,8.91413 -1.8179,14.19989 -0.6623,3.18882 -3.2163,9.87089 -5.3731,14.05721 -5.8301,11.31662 -17.9434,15.85842 -28.132,10.54785 l -3.6,-1.87645 -3.9769,3.45972 c -6.5885,5.73164 -12.3186,8.15909 -18.571,7.86725 -6.9306,-0.32349 -10.5768,-2.68667 -13.3368,-8.64375 -2.2798,-4.9208 -2.3139,-4.93135 -9.5635,-2.96327 -11.3415,3.07891 -16.619,8.11096 -22.0616,21.03544 -4.5966,10.91551 -5.1769,10.72405 -4.6196,-1.52403 1.0245,-22.51122 8.2219,-34.07093 25.1593,-40.40803 3.0024,-1.12336 6.5894,-2.24746 7.9711,-2.49801 1.3817,-0.25054 2.9696,-0.73824 3.5287,-1.08376 0.559,-0.34553 1.0535,-0.26418 1.0987,0.18078 0.7246,7.12941 2.8649,10.95991 7.3525,13.15902 4.2757,2.09529 8.6994,1.61609 15.1457,-1.64066 7.154,-3.6143 8.2111,-4.75307 12.7268,-13.70934 1.9411,-3.85 4.2019,-7.89609 5.0241,-8.99131 1.366,-1.81977 1.4672,-1.38904 1.1754,5 -0.1757,3.84522 -0.603,8.60756 -0.9496,10.58298 -0.9815,5.59406 -1.3898,10.90833 -0.8381,10.90833 0.2756,0 3.1797,-1.42771 6.4536,-3.17269 9.3535,-4.98534 16.8274,-14.73208 16.8274,-21.94458 0,-0.76188 -6.2767,-25.64237 -13.9482,-55.28999 -13.2758,-51.30577 -13.8809,-54.06598 -12.5511,-57.24875 0.7685,-1.83919 1.2195,-3.34399 1.0021,-3.34399 -0.2173,0 0.517,-2.5875 1.6318,-5.75 1.1148,-3.1625 2.1276,-6.29948 2.2506,-6.97106 0.2532,-1.38294 1.6148,-2.98955 1.6148,-1.90545 0,0.38876 5.1927,21.05126 11.5394,45.91667 12.332,48.31476 13.0221,50.18401 20.2917,54.96365 8.9337,5.87376 20.9609,7.1777 26.9307,2.91972 1.7939,-1.27955 3.0611,-2.65108 2.8159,-3.04782 -0.2452,-0.39675 -4.0688,-0.67875 -8.4969,-0.62666 l -8.051,0.0947 0.4515,-4.54687 c 0.2483,-2.50079 0.7261,-7.69688 1.0618,-11.54688 0.5507,-6.31627 1.1982,-7.95317 6.6291,-16.75854 8.1844,-13.26994 21.5286,-26.15547 25.9021,-25.01179 2.2062,0.57694 6.4363,9.00834 7.4104,14.77033 0.3719,2.2 0.9073,5.35 1.1898,7 0.2824,1.65 0.6686,3.15993 0.8582,3.3554 0.1896,0.19547 5.4348,-4.50734 11.656,-10.45067 l 11.3113,-10.80608 0.2881,9.85813 0.2881,9.85813 -7.0811,6.46284 c -7.7651,7.08704 -16.2564,16.99051 -15.549,18.13502 0.2468,0.39937 0.7431,3.61988 1.1028,7.15668 0.3597,3.5368 0.775,7.62915 0.9228,9.09411 0.1479,1.46496 -0.4698,4.33785 -1.3727,6.38421 l -1.6415,3.72064 -2.7961,-6.26685 c -1.5379,-3.44676 -3.1381,-5.86966 -3.556,-5.3842 -0.418,0.48545 -3.5994,4.37159 -7.0699,8.63587 -3.4704,4.26428 -7.7496,8.64301 -9.5092,9.73052 -3.1537,1.94911 -3.5818,2.98387 -6.2112,15.01625 -2.9918,13.69064 -1.701,22.82262 4.2208,29.86028 2.948,3.50354 11.7778,9.7564 17.5228,12.40891 3.5047,1.61815 13.361,3.57529 16.0596,3.18891 0.7599,-0.10881 3.5725,-0.46392 6.2501,-0.78914 6.7526,-0.82014 16.1541,-5.48016 22.3438,-11.07506 6.0632,-5.48049 13.6413,-16.45387 16.9001,-24.47194 l 2.2794,-5.60835 -2.0098,-2.13927 c -1.7956,-1.9114 -3.7765,-2.51724 -16.0052,-4.89506 -0.8928,-0.1736 -3.3678,-0.58654 -5.5,-0.91765 -7.3924,-1.14798 -10.1437,-2.50213 -10.8844,-5.35718 -2.3785,-9.16831 -2.3447,-14.50719 0.1586,-25.10227 1.5316,-6.48215 8.0868,-22.1775 11.6415,-27.87344 3.0582,-4.90045 3.77,-6.86774 3.256,-9 -0.3617,-1.50081 -3.6061,-13.27638 -7.2098,-26.16795 l -6.5521,-23.4392 3.2875,-10.0608 c 3.2564,-9.96542 4.5411,-12.8247 4.6479,-10.34412 0.03,0.70583 0.736,3.75833 1.568,6.78333 0.8319,3.025 5.4037,20.125 10.1595,38 9.9156,37.26849 9.8068,36.94098 13.3733,40.24646 5.5109,5.10765 11.3844,5.39843 19.527,0.9667 6.9804,-3.7992 11.314,-9.59068 14.1941,-18.9689 2.191,-7.13449 6.0334,-13.3548 6.1762,-9.99842 0.029,0.68979 0.425,2.82916 0.8791,4.75416 0.4542,1.925 0.7726,8.56361 0.7076,14.75246 l -0.1181,11.25246 2.6557,-0.55501 c 1.4606,-0.30525 3.2052,-0.66833 3.8768,-0.80685 1.8375,-0.37899 2.0583,-0.80111 2.7111,-5.18309 0.3309,-2.22202 0.7823,-4.9775 1.003,-6.12328 0.2206,-1.14579 0.6774,-3.82777 1.015,-5.95997 0.3376,-2.1322 0.8384,-5.22672 1.1129,-6.87672 0.9137,-5.49338 4.422,-14.93238 7.6986,-20.71284 2.722,-4.80198 5.3908,-7.33639 16.7383,-15.89544 7.425,-5.60043 15.975,-11.32735 19,-12.7265 5.6069,-2.59334 12.3335,-3.2317 14.2161,-1.34912 2.0395,2.03955 2.9745,21.24276 1.5183,31.1839 -3.0513,20.82944 -16.9337,38.86401 -43.9844,57.13994 -4.8125,3.25141 -8.7988,6.46254 -8.8584,7.13585 -0.06,0.67332 -0.2193,7.97421 -0.355,16.22421 -0.1779,10.81141 -0.6736,15.97734 -1.7754,18.5 l -1.5286,3.5 -2.0636,-4.52511 c -1.7868,-3.91813 -2.5211,-7.85784 -3.7227,-19.97489 -0.1364,-1.375 -0.2926,-5.3125 -0.3471,-8.75 l -0.099,-6.25 -3.9733,0 c -2.1852,0 -5.9571,-0.96387 -8.382,-2.14194 l -4.4087,-2.14194 -3.9777,3.19654 c -4.9963,4.01513 -14.0957,7.76663 -18.4426,7.60356 -11.018,-0.41335 -20.9862,-10.36581 -25.4495,-25.40935 -0.5825,-1.96354 -1.0955,-1.13722 -1.7,2.73833 -0.2869,1.83986 -2.8148,7.80236 -5.6175,13.25 -2.8026,5.44764 -4.7476,9.93923 -4.3222,9.98131 0.4254,0.0421 1.6735,0.24457 2.7735,0.44996 1.1,0.2054 3.8,0.62453 6,0.93141 10.4069,1.45165 21.0361,6.43834 23.4878,11.01928 1.5526,2.9011 1.8183,12.6547 0.7225,26.52284 -0.8054,10.19281 -0.9412,10.89191 -3.5623,18.33243 -2.9531,8.38305 -6.0937,13.29877 -14.2199,22.25711 -8.1883,9.02668 -10.2812,10.60403 -17.9281,13.51174 -9.3164,3.54251 -17.2329,4.29498 -25.511,2.42483 z m -21.4634,-126.87882 c 2.489,-0.26711 5.7944,-1.06377 7.3452,-1.77036 2.5978,-1.18364 2.7714,-1.60305 2.2066,-5.33082 -0.8124,-5.3618 -4.7255,-9.04936 -7.887,-7.43236 -5.8999,3.01763 -12.7411,17.1386 -7.4783,15.43586 0.7084,-0.22916 3.3244,-0.63521 5.8135,-0.90232 z m 149.7652,-9.40778 c 13.5378,-10.23829 26.0496,-25.62182 27.6662,-34.01646 0.2311,-1.19955 -0.015,-2.44963 -0.5459,-2.77797 -2.5419,-1.57101 -21.3557,10.97453 -29.5112,19.67887 -7.3513,7.84601 -11.3021,17.12246 -10.537,24.74106 0.167,1.66238 2.3469,0.37651 12.9279,-7.6255 z m -36.2432,109.51049 c 0.2667,-0.6875 4.1717,-3.5 8.6776,-6.25 12.1408,-7.40947 20.4493,-18.51707 32.1644,-43 5.3879,-11.26007 5.3151,-11.2077 8.8314,-6.35355 3.412,4.71011 4.2905,4.16364 4.6908,-2.91789 0.147,-2.60071 0.4073,-6.07856 0.5785,-7.72856 0.1712,-1.65 0.3559,-3.48535 0.4105,-4.07856 0.2187,-2.37743 6.5091,-10.58204 9.167,-11.9565 8.0037,-4.1389 12.1026,1.44901 9.5615,13.03506 -0.714,3.25549 -4.3519,11.9992 -6.3108,15.16805 -3.2377,5.2376 -10.7748,13.33095 -12.4151,13.33146 -0.8781,2.7e-4 -3.2963,-1.65021 -5.3736,-3.66773 l -3.7771,-3.66822 -6.6263,13.16394 c -10.6733,21.20348 -19.1532,30.1914 -32.2342,34.16517 -7.7773,2.3626 -7.9752,2.383 -7.3446,0.75733 z m 62.8588,-59.05168 c 2.0483,-3.53868 4.2073,-9.54653 5.1607,-14.36099 0.1669,-0.84277 -0.5321,-0.89691 -2.5405,-0.19674 -3.5847,1.2496 -6.2045,7.00401 -6.4903,14.25586 -0.246,6.24318 0.4018,6.29371 3.8701,0.30187 z m -151.2644,49.6386 c -3.9813,-4.09701 -5.8768,-5.37802 -7.3773,-4.98565 -2.6442,0.69148 -6.2742,-1.75291 -7.6942,-5.18112 -1.7058,-4.1182 -2.0002,-9.88409 -0.6021,-11.79598 1.1384,-1.55694 1.5846,-1.42585 5.2946,1.55561 2.2283,1.79069 5.4883,5.04388 7.2446,7.22929 1.7562,2.18542 3.3477,3.81896 3.5366,3.63009 0.1888,-0.18886 -0.084,-2.24647 -0.6068,-4.57245 -2.3964,-10.66536 -3.3467,-25.84574 -1.6823,-26.87435 1.6305,-1.00775 5.4906,3.71856 7.6539,9.3714 1.1737,3.06712 1.9558,5.75474 1.7381,5.97251 -0.2178,0.21776 -1.8025,-0.78757 -3.5215,-2.23407 -2.7778,-2.33731 -3.1379,-2.42535 -3.2363,-0.79109 -0.2387,3.96638 0.3209,7.05602 2.2157,12.23248 1.668,4.55667 3.887,22.26117 2.7614,22.03171 -0.2015,-0.0411 -2.7775,-2.55585 -5.7244,-5.58838 z m 83.2878,-9.82984 c -4.0615,-1.75157 -8.0677,-6.34237 -9.169,-10.50708 -1.4169,-5.35804 -1.5267,-15.29874 -0.2225,-20.14229 0.6442,-2.39245 1.3416,-5.25167 1.5496,-6.35381 1.4227,-7.53587 1.597,-7.92481 2.6823,-5.98562 0.5706,1.01967 0.9455,5.7077 0.833,10.41784 -0.3593,15.04785 -0.3012,16.51279 0.763,19.26158 0.5745,1.48374 2.1908,3.44876 3.5918,4.36671 2.4479,1.60397 2.6817,1.56637 6.0003,-0.96478 3.184,-2.42858 3.5224,-2.49611 4.3425,-0.86671 1.1775,2.33926 0.8135,6.82192 -0.7022,8.6483 -2.1352,2.57269 -6.4386,3.51888 -9.6688,2.12586 z m -304.286,-5.77577 c 0.9744,-1.82067 3.9086,-3.31243 8.1323,-4.13451 3.7414,-0.7282 15.3911,-5.40429 23.0052,-9.23409 10.895,-5.48005 16.8048,-9.53593 24.5745,-16.86551 10.3535,-9.76691 15.3989,-18.10466 16.7814,-27.73157 l 0.5362,-3.73438 -5.6362,2.58036 c -6.4201,2.9392 -9.3437,2.67277 -13.2213,-1.20483 -2.831,-2.83098 -2.8031,-5.02075 0.2349,-18.40678 0.312,-1.375 0.801,-3.85 1.0866,-5.5 0.5774,-3.33635 2.8858,-7.36074 5.2875,-9.2182 3.3832,-2.61655 10.365,-0.55643 13.275,3.91709 4.1623,6.3986 6.5466,23.24613 4.5005,31.80111 -0.3288,1.375 -0.8145,3.48346 -1.0793,4.68547 -3.6199,16.43297 -10.7249,31.41831 -18.6574,39.35087 -5.2002,5.20013 -14.0543,10.5182 -19.1438,11.49835 -1.0888,0.20969 -2.8078,0.64407 -3.8199,0.96531 -5.1971,1.64949 -14.9613,2.67164 -27.667,2.89628 -8.5926,0.15191 -9.1057,0.0476 -8.1892,-1.66497 z m 94.174,-30.7746 c 0.7871,-1.12381 4.1784,-4.42243 7.5362,-7.33026 6.1776,-5.34986 11.4598,-11.9793 10.394,-13.04512 -1.1292,-1.12919 -6.3864,-0.56114 -9.445,1.02056 l -3.0978,1.60189 0.5714,-3.52111 c 1.3735,-8.46344 6.8083,-12.15559 18.7234,-12.71962 6.1178,-0.28961 6.0471,-0.35775 4.4487,4.28695 -5.3971,15.68242 -20.1375,31.75 -29.1275,31.75 -1.245,0 -1.2455,-0.27003 0,-2.04329 z m -117.502,-0.93539 c -6.5684,-2.49329 -10.5215,-5.81284 -14.9111,-12.52132 l -3.9261,-6 0.537,-14 c 0.2953,-7.7 0.5886,-14.45 0.6517,-15 0.063,-0.55 -1.5368,-3.74613 -3.5553,-7.1025 -3.8447,-6.39303 -3.9839,-6.80883 -5.1865,-15.49568 -1.8655,-13.47544 0.7613,-27.57384 7.2062,-38.67629 3.3428,-5.75856 14.5163,-16.84057 27.8683,-27.64021 19.2951,-15.60659 25.4985,-22.84962 25.9401,-30.2874 0.072,-1.21115 0.4333,-2.50469 0.8032,-2.87455 1.579,-1.57898 0,14.26191 -1.7768,17.86311 -1.0575,2.13924 -8.2003,9.74999 -16.4191,17.49479 -18.9046,17.81424 -24.0479,23.06844 -29.3706,30.00422 -5.6096,7.30956 -7.3502,10.74846 -8.2316,16.26347 -1.757,10.99341 -0.6047,16.64797 4.4825,21.99571 3.6494,3.83626 4.2437,4.09787 8.7439,3.8489 7.5131,-0.41566 14.1948,-5.35138 24.8536,-18.35898 7.6693,-9.35942 20.585,-18.31319 36.2221,-25.11091 5.9629,-2.59218 7.6855,-3.80907 7.9503,-5.61642 0.7022,-4.79141 3.8293,-12.76513 10.4943,-26.75915 3.7857,-7.94853 7.1601,-16.04853 7.4987,-18 1.6465,-9.49156 -0.1593,-16.14908 -8.0089,-29.5272 l -4.6817,-7.97909 -0.014,16.47909 c -0.014,17.14342 -0.4859,21.31255 -2.3417,20.69397 -1.2491,-0.41638 -3.323,-6.98109 -4.3263,-13.6949 -0.8436,-5.64471 -0.873,-27.32157 -0.043,-32.01998 0.831,-4.70649 2.0025,-13.2041 2.0335,-14.75 0.037,-1.83841 0.4973,-1.63707 6.3336,2.7694 9.8696,7.4516 17.8404,20.19952 19.9962,31.9806 1.6101,8.79829 1.7602,11.84806 0.9612,19.524 -0.9534,9.15891 -1.2738,10.23983 -4.5328,15.29031 -3.4568,5.35714 -7.7668,13.26728 -9.0086,16.53342 -0.5561,1.46253 -0.3985,2.8336 0.4607,4.00861 1.2411,1.69732 1.4712,1.70069 4.6436,0.0681 1.8358,-0.94476 5.3283,-3.46462 7.7611,-5.59969 5.3296,-4.67728 6.2242,-3.92772 5.58,4.67529 -0.7996,10.67826 -4.4777,19.23475 -11.4115,26.547 -3.7998,4.00715 -8.8284,7.00598 -29.1549,17.38669 l -24.5631,12.54433 -7.3615,8.57533 c -16.3786,19.07913 -26.7587,25.27687 -31.9195,19.05851 -2.5681,-3.0944 -3.3865,-1.78699 -2.8164,4.49952 1.3275,14.64034 15.3006,21.32576 29.3568,14.04574 2.1267,-1.10149 6.7788,-4.96245 10.3379,-8.57992 3.5591,-3.61746 6.8011,-6.5772 7.2043,-6.5772 0.4033,0 0.8663,3.03285 1.0289,6.73966 0.2454,5.59316 0.6061,6.79886 2.1201,7.08765 4.002,0.76335 7.0803,-5.38239 8.1115,-16.19394 0.2028,-2.12664 1.0692,-4.56708 1.9253,-5.42319 1.4088,-1.40875 1.6494,-1.31239 2.5342,1.01472 0.5377,1.4142 1.2693,4.52963 1.6259,6.92319 0.7837,5.26074 0.7713,5.24628 3.8525,4.47295 2.3244,-0.5834 2.6885,-1.28529 4.2128,-8.12104 0.1227,-0.55 0.4419,-2.125 0.7094,-3.5 1.1351,-5.83376 2.8407,-11 3.6316,-11 1.5316,0 4.8207,8.34997 4.5142,11.46043 -0.1647,1.67176 -0.5613,5.68553 -0.8812,8.91948 -0.7227,7.30363 -4.8097,19.30495 -7.2414,21.26396 -1.0006,0.80607 -3.9351,2.49409 -6.5213,3.75118 -2.5861,1.25708 -6.5471,3.95254 -8.8022,5.98991 -7.5701,6.83909 -12.025,7.00149 -14.9163,0.54375 l -1.7362,-3.87802 -3.3783,3.4855 c -6.9317,7.15169 -16.7341,9.67942 -25.1491,6.48513 z m 133.1541,-38.57057 c -3.4834,-3.73217 -7.2367,-6.27496 -10.0548,-6.81196 -4.3576,-0.83037 -5.716,-1.74393 -6.9218,-4.65501 -1.7253,-4.16509 -1.7539,-13.98378 -0.041,-13.98378 0.5239,0 4.1034,3.20128 7.9545,7.11395 7.4082,7.52667 7.1151,7.5719 5.5988,-0.86395 -0.9865,-5.488 -1.9255,-17.81713 -1.6428,-21.56955 0.3481,-4.62081 7.4335,0.61089 8.5587,6.31955 0.271,1.375 0.8138,3.60559 1.2063,4.95688 l 0.7136,2.45687 -2.7883,-2.19325 c -4.678,-3.67971 -5.8283,-1.01235 -2.9773,6.90377 3.14,8.71838 4.7819,19.57899 3.5034,23.17425 -0.5777,1.62458 -0.8784,1.54259 -3.1094,-0.84777 z m 157.0301,-29.09198 c 0,-0.35268 6.6488,-7.44428 14.775,-15.75912 16.063,-16.43565 24.3795,-27.72042 31.6835,-42.99157 7.8976,-16.51231 10.4266,-29.50581 7.4383,-38.21648 -1.832,-5.34015 -7.0712,-13.55471 -11.073,-17.36156 -5.1656,-4.91388 -47.8238,-30.76924 -47.8238,-28.98626 0,3.42467 12.4906,29.58998 21.8198,45.70813 6.2039,10.71842 9.0833,16.08041 10.6536,19.83879 l 1.4623,3.49972 -2.9061,-2.06932 c -8.5652,-6.09896 -22.1912,-27.18309 -32.327,-50.0211 -0.8543,-1.925 -2.7041,-6.08378 -4.1106,-9.24174 -3.2462,-7.2885 -9.1028,-24.0816 -11.1394,-31.94101 -1.714,-6.61466 -2.5925,-15.81725 -1.51,-15.81725 0.3758,0 2.0049,1.39171 3.6203,3.09269 3.6375,3.83022 17.2296,13.7313 23.9371,17.43692 5.5494,3.06578 7.8678,4.79896 24.5,18.31525 23.5651,19.15037 28.3838,25.33587 33.9258,43.54843 4.0184,13.20527 4.6555,29.36268 1.6998,43.10671 -0.7718,3.58921 -7.4025,17.31538 -10.6318,22.00903 -6.1832,8.98703 -12.7433,14.13542 -34.9938,27.4634 -11.198,6.70758 -19,10.15127 -19,8.38634 z m -219.2917,-2.10877 c 1.1435,-3.09976 5.513,-9.60641 7.6832,-11.44109 1.1597,-0.98037 8.1835,-4.98351 15.6085,-8.89586 11.9173,-6.27942 18.2568,-10.31263 28.2596,-17.97889 l 2.7596,-2.115 -1.0104,2.65774 c -3.7391,9.83457 -8.7869,14.25141 -26.9614,23.59144 -8.6328,4.43647 -18.0342,9.83601 -20.892,11.99898 -5.8704,4.44314 -6.3521,4.63618 -5.4471,2.18268 z m 108.6227,-4.11214 c 1.2352,-7.83769 8.4504,-15.76926 20.0174,-22.00485 5.0998,-2.74923 15.0808,-8.38074 22.18,-12.51448 7.0992,-4.13373 13.0564,-7.36707 13.2383,-7.1852 0.1818,0.18187 0.044,1.47377 -0.3069,2.87089 -1.0194,4.06143 -7.1462,9.37922 -18.9598,16.45608 -14.8512,8.89655 -21.6277,13.52255 -29.1226,19.88064 -3.4744,2.94748 -6.5828,5.35906 -6.9073,5.35906 -0.3246,0 -0.3872,-1.28796 -0.1391,-2.86214 z m -178.831,-20.29651 c 3.3,-2.91045 11.9019,-11.19195 19.1154,-18.40334 13.159,-13.15517 15.0693,-16.01209 16.8341,-25.17578 0.653,-3.3906 3.4437,-8.13471 5.4017,-9.1826 1.4866,-0.79559 2.601,-0.19052 5.9316,3.22036 8.5373,8.74336 7.1975,13.70001 -3.7033,13.70001 -5.764,0 -5.938,0.0793 -6.5789,2.99704 -1.867,8.50066 -19.3872,25.77014 -33.8031,33.3195 l -9.1975,4.81653 6,-5.29172 z m 47.5,-42.76877 c 0,-1.44778 -5.2569,-5.2231 -6.0589,-4.35126 -0.394,0.42827 -1.0222,1.79118 -1.3961,3.02868 -0.6272,2.07597 -0.3652,2.25 3.3876,2.25 2.2371,0 4.0674,-0.41734 4.0674,-0.92742 z m 264.3617,27.64409 c -0.089,-5.16264 -1.5572,-13.94038 -2.8484,-17.03054 -1.9765,-4.73052 -6.5798,-8.87567 -13.9941,-12.60135 l -6.418,-3.22506 0.4765,-4.62364 c 0.2621,-2.543 0.6744,-4.82156 0.9163,-5.06346 0.7902,-0.79021 13.9137,7.53811 17.7334,11.2538 4.853,4.72096 6.5691,10.63186 6.109,21.04235 -0.1953,4.41718 -0.4878,8.80571 -0.6501,9.75229 -0.4558,2.6587 -1.2819,2.96777 -1.3246,0.49561 z m -122.8617,-4.42636 c -13.8329,-2.36257 -23.1867,-10.52502 -26.9684,-23.53345 -2.6079,-8.97112 -2.6665,-9.53292 -2.9447,-28.25686 -0.261,-17.57225 -0.8459,-22.07602 -2.7166,-20.91985 -0.506,0.31276 -2.4306,3.57268 -4.2767,7.24425 -2.9284,5.82401 -4.1008,9.69172 -6.0685,20.01987 -0.2456,1.28935 -0.505,9.20679 -0.5764,17.59432 -0.1056,12.40701 -0.4699,16.00974 -1.9542,19.32505 -5.1564,11.51718 -17.815,6.99272 -34.0723,-12.17826 -11.2593,-13.2771 -16.3853,-29.63901 -13.8115,-44.08538 1.3467,-7.55861 1.9832,-9.78337 4.5446,-15.88458 6.6281,-15.78769 12.8105,-23.30558 38.5403,-46.86571 6.8716,-6.29215 13.0366,-13.11957 17.3823,-19.25 3.7037,-5.22484 6.8775,-9.49971 7.0528,-9.49971 0.8079,0 -6.8838,15.54231 -10.059,20.32599 -4.1152,6.19976 -13.3399,15.83953 -25.8807,27.0451 -12.4294,11.10602 -20.8051,23.73402 -23.115,34.85027 -0.2604,1.25325 -0.7516,3.40364 -1.0915,4.77864 -0.3399,1.375 -0.7554,6.69063 -0.9234,11.81252 -0.4719,14.38784 2.4726,22.21109 11.5854,30.78212 8.8266,8.30176 13.148,10.28827 16.8064,7.7258 4.9464,-3.46463 6.7923,-12.56022 7.5728,-37.31538 0.2169,-6.87778 0.6665,-13.85506 0.9991,-15.50506 1.7014,-8.44015 15.394,-27.5 19.7561,-27.5 2.2434,0 4.4897,4.587 6.3665,13 0.184,0.825 0.5342,10.11106 0.7782,20.63568 0.2441,10.52462 0.7338,21.09962 1.0883,23.5 1.9004,12.86642 10.9598,19.98752 23.4867,18.46177 9.2777,-1.12999 16.4419,-6.43947 21.0462,-15.59745 3.8223,-7.6026 3.6041,-9.95142 -2.6009,-28 -5.7309,-16.6694 -8.9976,-24.06998 -14.3514,-32.51208 -1.6326,-2.57435 -2.7777,-5.59744 -2.5791,-6.80897 1.0434,-6.36585 2.7631,-18.94481 2.7929,-20.42895 0.014,-0.6875 0.1189,-1.25 0.2337,-1.25 0.1147,0 2.2457,3.9375 4.7355,8.75 2.4897,4.8125 5.4588,10.55 6.598,12.75 1.1391,2.2 3.2417,6.7 4.6724,10 3.4846,8.03719 5.1653,11.86392 6.9175,15.75 1.4268,3.16457 2.7983,8.63937 3.9454,15.75 1.2399,7.68536 1.763,9.79937 4.278,17.28646 2.1316,6.34599 3.3412,8.3613 6.5388,10.89377 7.1131,5.63371 15.0858,7.22492 21.0721,4.20561 8.1291,-4.10012 12.9655,-11.62768 14.1082,-21.95883 0.4632,-4.18775 -3.4126,-11.65857 -14.5111,-27.97132 -5.0351,-7.40063 -9.3022,-13.45569 -9.4824,-13.45569 -0.1802,0 -0.1413,1.9125 0.087,4.25 0.9723,9.97705 1.4552,15.75054 1.9864,23.75 l 0.5645,8.5 -2.747,-4.45239 c -1.5108,-2.44882 -2.8251,-4.92382 -2.9205,-5.5 -0.095,-0.57619 -0.4536,-2.86562 -0.7959,-5.08764 -0.3423,-2.22202 -0.8479,-5.14702 -1.1235,-6.5 -0.2756,-1.35298 -0.7548,-3.97949 -1.0649,-5.83669 -0.31,-1.8572 -0.7654,-4.3322 -1.0121,-5.5 -2.224,-10.53165 -2.2924,-42.05219 -0.096,-44.24867 0.3973,-0.39729 23.708,38.01478 23.708,39.06672 0,0.24833 1.5099,3.06313 3.3552,6.25509 6.4848,11.2168 9.4309,17.05371 10.0517,19.91489 2.0903,9.63339 2.9694,17.01733 2.9631,24.88869 -0.01,12.88461 -1.4918,18.90981 -6.4059,26.0522 -4.4604,6.48301 -10.8457,9.8679 -18.9388,10.03958 -8.5924,0.18227 -14.2076,-2.62889 -23.7753,-11.90256 -7.1185,-6.89974 -7.2514,-6.97427 -7.3243,-4.10822 -0.2567,10.08456 -6.1066,19.35847 -15.1663,24.04343 -4.1931,2.16831 -11.8358,3.42141 -16.2594,2.66588 z m 197.825,-11.94617 c -0.2073,-8.87015 -2.7181,-16.59949 -6.575,-20.24114 -1.5125,-1.42807 -5.7875,-4.2248 -9.5,-6.21494 -3.7125,-1.99014 -6.6511,-4.08827 -6.5303,-4.6625 0.1209,-0.57423 0.4822,-2.53372 0.803,-4.35443 0.3208,-1.8207 0.8025,-3.52972 1.0706,-3.7978 0.9333,-0.93328 9.6691,4.45693 14.4673,8.92667 8.0198,7.47076 10.0368,13.94073 8.5729,27.5 -1.3195,12.22312 -2.0677,13.14485 -2.3085,2.84414 z m -198.825,-33.3465 c -5.2551,-2.00111 -7.2903,-7.54883 -6.9691,-18.99764 0.2927,-10.43054 1.4209,-28.78511 1.9364,-31.5 0.2088,-1.1 0.421,-2.45 0.4715,-3 0.051,-0.55 0.4467,-0.44118 0.8805,0.24182 0.4337,0.683 0.6733,4.508 0.5324,8.5 -0.3617,10.24608 -0.3884,25.73556 -0.05,29.11621 0.1573,1.57191 1.2609,3.95265 2.4526,5.29051 l 2.1667,2.43249 4.0593,-2.0709 c 3.6983,-1.88673 4.116,-1.92319 4.6967,-0.40995 0.8803,2.29403 -2.5358,8.27907 -5.6259,9.8567 -1.4971,0.76432 -3.3772,0.98772 -4.5509,0.54076 z m -92.6371,-57.03335 c -0.1458,-1.55736 -0.074,-2.96081 0.5001,-9.71429 0.1985,-2.3375 0.052,-4.25 -0.3267,-4.25 -1.0643,0 -4.654,4.26848 -5.4663,6.5 -0.6541,1.79671 -0.9124,1.64665 -2.5418,-1.47636 -2.4327,-4.66278 -1.8205,-7.00071 3.6917,-14.09878 3.4049,-4.38461 5.226,-5.93331 6.7248,-5.7189 1.8877,0.27007 2.0472,0.9463 1.9563,8.29404 -0.1349,10.89613 -1.2718,18.70685 -2.9788,20.46429 -1.2488,1.28571 -1.4389,1.28571 -1.5593,0 z m 91.5248,-31.67753 c -1.1617,-0.21437 -3.3817,-1.71479 -4.9332,-3.33428 -2.3588,-2.46206 -2.8228,-3.80538 -2.8317,-8.1985 -0.021,-10.2194 2.8634,-19.44498 5.7664,-18.44535 1.1902,0.40982 1.2926,6.892 0.2021,12.78509 -0.5071,2.74055 -0.2149,4.14955 1.2309,5.93507 1.6507,2.03846 2.3212,2.21942 5.1826,1.39875 4.7732,-1.36893 5.6098,-3.28085 3.8175,-8.72491 -1.2543,-3.81008 -1.2889,-5.06598 -0.2101,-7.63161 0.7102,-1.68906 1.5169,-3.07102 1.7926,-3.07102 1.0215,0 3.5177,6.64284 4.131,10.99326 0.6582,4.66985 1.6953,5.96551 4.7958,5.99143 1.4954,0.0125 1.7478,-0.58126 1.3752,-3.23469 -0.251,-1.7875 -1.2167,-4.825 -2.1461,-6.75 -1.6126,-3.3403 -1.5981,-3.70453 0.3186,-7.98239 l 2.0083,-4.48239 3.2166,6.87366 c 4.0426,8.63901 4.7082,14.82972 2.1062,19.59112 -2.5284,4.62667 -6.4628,6.565 -10.6915,5.26719 -2.5358,-0.77828 -3.6897,-0.62701 -5.606,0.73495 -2.7623,1.96324 -6.4601,2.85018 -9.5252,2.28462 z m 5.4873,-34.62009 c -0.069,-0.36667 -0.2078,-1.45417 -0.3091,-2.41667 -0.7171,-6.81682 -2.1203,-10.72436 -5.156,-14.35789 -3.3699,-4.03348 -3.9858,-6.5629 -2.5133,-10.32226 0.6842,-1.74683 1.1407,-1.53374 4.8064,2.24355 5.4814,5.64821 6.9073,12.05481 4.8216,21.66407 -0.6444,2.96888 -1.4125,4.45388 -1.6496,3.1892 z"
       id="path13153"
       inkscape:connector-curvature="0" />
  </g>
</svg>
