<?xml version="1.0" encoding="UTF-8" standalone="no"?>
<!-- Created with Inkscape (http://www.inkscape.org/) -->

<svg
   version="1.1"
   id="svg1"
   width="209.18306"
   height="127.42794"
   viewBox="0 0 209.18306 127.42794"
   sodipodi:docname="deerhorn.svg"
   inkscape:version="1.2.2 (732a01da63, 2022-12-09)"
   xml:space="preserve"
   xmlns:inkscape="http://www.inkscape.org/namespaces/inkscape"
   xmlns:sodipodi="http://sodipodi.sourceforge.net/DTD/sodipodi-0.dtd"
   xmlns="http://www.w3.org/2000/svg"
   xmlns:svg="http://www.w3.org/2000/svg"><defs
     id="defs1" /><sodipodi:namedview
     id="namedview1"
     pagecolor="#ffffff"
     bordercolor="#cccccc"
     borderopacity="1"
     inkscape:showpageshadow="0"
     inkscape:pageopacity="1"
     inkscape:pagecheckerboard="0"
     inkscape:deskcolor="#d1d1d1"
     showgrid="false"
     inkscape:zoom="1.3775"
     inkscape:cx="55.53539"
     inkscape:cy="61.705989"
     inkscape:window-width="1366"
     inkscape:window-height="705"
     inkscape:window-x="-8"
     inkscape:window-y="32"
     inkscape:window-maximized="1"
     inkscape:current-layer="g1" /><g
     inkscape:groupmode="layer"
     inkscape:label="Image"
     id="g1"
     transform="translate(-41.377528,-96.46426)"><path
       style="fill:#56562b;fill-opacity:1"
       d="m 123.55108,221.74175 c -0.85618,-1.22237 -1.5567,-2.72206 -1.5567,-3.33263 0,-2.18859 -17.38645,-15.10106 -42.813937,-31.79681 -20.713826,-13.60075 -24.330976,-17.07129 -29.805476,-28.59739 -8.96403,-18.87306 -10.59515,-42.72218 -3.86431,-56.50112 l 2.46665,-5.04954 -0.74147,10 c -1.46894,19.81155 0.20599,34.06206 5.35098,45.52663 2.00449,4.46658 3.3403,6.16937 5.20742,6.63798 4.32158,1.08465 5.20015,-1.52755 5.20015,-15.4614 0,-13.80455 1.60862,-22.05224 5.662306,-29.03172 1.38271,-2.38067 2.71364,-4.12887 2.95764,-3.88487 0.244,0.244 -0.69567,4.82859 -2.08816,10.18798 -2.689186,10.35014 -3.243936,20.18407 -1.43187,25.3822 1.88746,5.41437 7.97568,5.44432 18.68679,0.0919 5.7831,-2.88984 9.28049,-6.14227 17.566277,-16.33589 2.11915,-2.60709 4.04189,-4.55128 4.27275,-4.32041 0.23087,0.23086 -0.92093,3.4079 -2.55955,7.06007 -3.36714,7.50471 -10.560017,15.80497 -15.354327,17.71821 -1.76653,0.70496 -6.03563,2.55244 -9.48691,4.10553 -3.45127,1.55308 -6.66618,2.82378 -7.14424,2.82378 -0.47806,0 -2.26679,1.30554 -3.97496,2.90121 -3.502126,3.27148 -4.071566,7.27488 -1.54738,10.87866 5.3189,7.5938 27.09452,16.73476 32.052097,13.45482 2.74118,-1.81357 4.68495,-8.01208 5.16774,-16.47943 0.2763,-4.84584 0.83072,-9.01357 1.23206,-9.2616 1.29773,-0.80205 3.99504,12.79855 3.99234,20.13061 -0.003,8.43081 1.56297,13.37836 6.33059,19.99985 4.40836,6.12254 8.19386,8.37588 14.07109,8.37588 h 4.59571 v 3.54966 c 0,3.61663 -2.01379,8.55049 -4.77558,11.70034 -2.11963,2.41746 -5.80246,2.19052 -7.66772,-0.47251 z m 37.26171,0.51984 c -2.80134,-3.19226 -4.81841,-8.11003 -4.81841,-11.74767 v -3.54966 h 5.21622 c 5.09651,0 5.3555,-0.14488 11.28572,-6.31311 7.02868,-7.3108 8.49924,-11.08487 8.49545,-21.80291 -0.003,-7.53704 2.67354,-21.20539 3.99234,-20.39032 0.40134,0.24803 0.96236,4.40093 1.24672,9.22866 0.56367,9.56975 2.70071,15.4978 6.14017,17.03253 4.69256,2.09388 21.38275,-4.76394 28.83993,-11.85001 4.94423,-4.69818 5.15892,-8.81754 0.67769,-13.00363 -1.70816,-1.59567 -3.49689,-2.90121 -3.97495,-2.90121 -0.47806,0 -3.69297,-1.2707 -7.14425,-2.82378 -3.45127,-1.55309 -7.72038,-3.40057 -9.4869,-4.10553 -4.79431,-1.91324 -11.98719,-10.2135 -15.35433,-17.71821 -1.63862,-3.65217 -2.79042,-6.82921 -2.55955,-7.06007 0.23086,-0.23087 2.1536,1.71332 4.27275,4.32041 8.28579,10.19362 11.78318,13.44605 17.56627,16.33589 11.10514,5.54931 16.86901,5.36202 18.84068,-0.6122 1.6138,-4.88986 0.7028,-16.75293 -2.04804,-26.6697 -1.19508,-4.30825 -1.98306,-8.02301 -1.75105,-8.25501 0.78457,-0.78457 5.96968,9.75354 7.3502,14.93839 0.82442,3.0963 1.37593,10.35355 1.38306,18.19981 0.0126,13.82136 0.50775,15.45 4.69747,15.45 1.78367,0 2.91475,-1.26276 5.15039,-5.75 5.48622,-11.01161 7.70812,-26.17002 6.05855,-41.33314 -0.58209,-5.35062 -0.87452,-10.78331 -0.64986,-12.07263 0.35645,-2.04559 0.67432,-1.77096 2.49519,2.15577 7.98705,17.22423 2.97516,49.38657 -10.43379,66.95574 -2.82341,3.69939 -17.06144,15.04426 -18.88083,15.04426 -1.43239,0 -36.9324,24.33813 -39.42525,27.02919 -0.275,0.29687 -1.85,1.55319 -3.5,2.79183 -1.65,1.23864 -3.90109,3.92313 -5.00242,5.96553 -2.31904,4.30061 -6.13882,5.40563 -8.67917,2.51078 z"
       id="path2868" /></g></svg>
