<?xml version="1.0" encoding="UTF-8" standalone="no"?>
<!-- Created with Inkscape (http://www.inkscape.org/) -->

<svg
   version="1.1"
   id="svg1"
   width="29.799311"
   height="44.181988"
   viewBox="0 0 29.79931 44.181987"
   sodipodi:docname="down.svg"
   inkscape:version="1.2.2 (732a01da63, 2022-12-09)"
   xml:space="preserve"
   xmlns:inkscape="http://www.inkscape.org/namespaces/inkscape"
   xmlns:sodipodi="http://sodipodi.sourceforge.net/DTD/sodipodi-0.dtd"
   xmlns="http://www.w3.org/2000/svg"
   xmlns:svg="http://www.w3.org/2000/svg"><defs
     id="defs1"><inkscape:path-effect
       effect="fillet_chamfer"
       id="path-effect1156"
       nodesatellites_param="F,0,0,1,0,0,0,1 @ F,0,0,1,0,0,0,1 @ F,0,0,1,0,0,0,1 @ F,0,0,1,0,0,0,1 @ F,0,0,1,0,0,0,1 @ F,0,0,1,0,0,0,1 @ F,0,0,1,0,0,0,1 @ F,0,0,1,0,0,0,1 @ F,0,0,1,0,0,0,1 @ F,0,0,1,0,0,0,1 @ F,0,0,1,0,0,0,1 @ F,0,0,1,0,0,0,1 @ F,0,0,1,0,0,0,1 @ F,0,0,1,0,0,0,1 @ F,0,0,1,0,0,0,1 @ F,0,0,1,0,0,0,1 @ F,0,0,1,0,0,0,1 @ F,0,0,1,0,0,0,1 @ F,0,0,1,0,0,0,1 @ F,0,0,1,0,0,0,1 @ F,0,0,1,0,0,0,1 @ F,0,0,1,0,0,0,1 @ F,0,0,1,0,0,0,1 @ F,0,0,1,0,0,0,1 @ F,0,0,1,0,0,0,1 @ F,0,0,1,0,0,0,1 @ F,0,0,1,0,0,0,1 @ F,0,0,1,0,0,0,1 @ F,0,0,1,0,0,0,1 @ F,0,0,1,0,0,0,1 @ F,0,0,1,0,0,0,1 @ F,0,0,1,0,0,0,1 @ F,0,0,1,0,0,0,1 @ F,0,0,1,0,0,0,1 @ F,0,0,1,0,0,0,1 @ F,0,0,1,0,0,0,1 @ F,0,0,1,0,0,0,1 @ F,0,0,1,0,0,0,1 @ F,0,0,1,0,0,0,1 @ F,0,0,1,0,0,0,1 @ F,0,0,1,0,0,0,1 @ F,0,0,1,0,0,0,1 | F,0,0,1,0,0,0,1 @ F,0,0,1,0,0,0,1 @ F,0,0,1,0,0,0,1 @ F,0,0,1,0,0,0,1 @ F,0,0,1,0,0,0,1 @ F,0,0,1,0,0,0,1 @ F,0,0,1,0,0,0,1 @ F,0,0,1,0,0,0,1 @ F,0,0,1,0,0,0,1 @ F,0,0,1,0,0,0,1 @ F,0,0,1,0,0,0,1 @ F,0,0,1,0,0,0,1 @ F,0,0,1,0,0,0,1 @ F,0,0,1,0,0,0,1 @ F,0,0,1,0,0,0,1 @ F,0,0,1,0,0,0,1 @ F,0,0,1,0,0,0,1 @ F,0,0,1,0,0,0,1 @ F,0,0,1,0,0,0,1 @ F,0,0,1,0,0,0,1 | F,0,0,1,0,0,0,1 @ F,0,0,1,0,0,0,1 @ F,0,0,1,0,0,0,1 | F,0,0,1,0,0,0,1 @ F,0,0,1,0,0,0,1 @ F,0,0,1,0,0,0,1"
       is_visible="true"
       lpeversion="1"
       unit="px"
       method="auto"
       mode="F"
       radius="0"
       chamfer_steps="1"
       flexible="false"
       use_knot_distance="true"
       apply_no_radius="true"
       apply_with_radius="true"
       only_selected="false"
       hide_knots="false" /></defs><sodipodi:namedview
     id="namedview1"
     pagecolor="#ffffff"
     bordercolor="#cccccc"
     borderopacity="1"
     inkscape:showpageshadow="0"
     inkscape:pageopacity="1"
     inkscape:pagecheckerboard="0"
     inkscape:deskcolor="#d1d1d1"
     showgrid="false"
     inkscape:zoom="10.24"
     inkscape:cx="15.722656"
     inkscape:cy="27.587891"
     inkscape:window-width="1129"
     inkscape:window-height="728"
     inkscape:window-x="0"
     inkscape:window-y="40"
     inkscape:window-maximized="0"
     inkscape:current-layer="g1" /><g
     inkscape:groupmode="layer"
     inkscape:label="Image"
     id="g1"
     transform="translate(115.46497,-129.73813)"><path
       id="path1380-5"
       style="fill:#999999;fill-opacity:1;stroke-width:0.175214"
       d="m -98.519882,129.73813 c 0.529645,2.32387 1.834737,4.1948 4.988917,7.18614 1.812121,1.71855 4.159875,4.11152 4.159875,4.2413 0,0.0596 0.182973,0.32342 0.407191,0.58636 0.570725,0.66931 1.511815,2.31649 2.06039,3.60773 0.84016,1.97754 1.048217,3.12818 1.130367,6.22189 l 0.07489,2.80148 h -0.02602 c 0.07831,0.661 0.08822,1.50144 -0.03261,2.65653 -1.171521,8.38212 -7.533704,16.88056 -14.934178,16.88056 -8.03388,0 -14.41189,-9.63845 -14.73058,-19.07289 -0.006,-0.18062 -0.0677,-0.25205 -0.0326,-0.4642 h -0.003 l 0.0766,-3.01973 c 0.0822,-3.2732 0.18888,-3.85311 1.13688,-6.14372 1.16316,-2.81048 2.0816,-3.94346 7.31154,-9.0136 2.34348,-2.27188 3.5026,-3.82994 4.12404,-5.54596 0.10416,-0.28762 0.18209,-0.60086 0.24757,-0.92189 h 1.2167 c -0.0678,0.10453 -0.1075,0.22462 -0.1075,0.36159 0,0.45413 -0.8085,2.36501 -1.37631,3.25265 -1.01145,1.58115 -2.00057,2.65163 -5.24301,5.67626 -1.02978,0.9606 -2.23978,2.2083 -2.6891,2.77216 -1.51814,1.90514 -2.65957,4.15426 -3.14841,6.20399 -0.26171,1.09739 -0.42433,3.11461 -0.25897,3.21682 0.0721,0.0446 0.41496,-0.2575 0.76227,-0.67106 2.71282,-3.2304 7.07198,-7.53567 9.33284,-9.21883 1.45102,-1.08026 2.26291,-1.41027 3.49371,-1.42028 0.92938,-0.008 1.211073,0.053 1.892627,0.40881 1.709389,0.89241 4.418835,3.23276 7.391352,6.36198 1.604056,1.02245 3.031443,2.53595 4.291803,4.61756 0.09307,-0.0763 0.110979,-0.40614 0.05704,-1.02775 -0.210016,-2.41892 -0.761594,-4.06263 -2.28028,-6.80012 -0.514518,-0.92744 -2.613911,-3.34238 -3.798283,-4.36998 -1.542036,-1.33793 -3.846109,-3.7251 -4.672933,-4.8407 -0.938813,-1.26671 -1.621552,-2.65338 -1.94801,-3.95303 l -0.143336,-0.57007 z m -1.980588,1.87309 c 1.035946,0.0107 1.681074,1.23917 0.8323,2.02619 -0.79112,0.73356 -2.07505,0.27367 -2.07505,-0.74272 0,-0.70178 0.20521,-1.01932 0.77856,-1.20855 0.16072,-0.053 0.3162,-0.0765 0.46419,-0.075 z m -0.1531,3.27871 c 0.55364,-0.0287 1.139202,0.24648 1.470781,0.88768 0.283394,0.54803 0.171656,1.07404 -0.342045,1.61411 -0.870526,0.91519 -2.514016,0.25404 -2.506676,-1.00821 0.005,-0.91614 0.66611,-1.45666 1.37794,-1.49358 z" /><ellipse
       id="primary-7"
       cx="100.56532"
       cy="-160.52737"
       style="fill:#e6e6e6;fill-opacity:1;stroke-width:1.03876;opacity:0.45"
       rx="9.7971363"
       ry="11.013578"
       transform="scale(-1)" /><path
       id="secondary-3"
       d="m -103.33791,163.28076 2.09658,3.43625 a 0.80336512,0.90311332 0 0 0 1.352009,0 l 2.096588,-3.43625 a 0.9797136,1.1013578 0 0 0 -0.676001,-1.65202 h -1.116872 v -6.60815 a 0.97971427,1.1013585 0 0 0 -1.959424,0 v 6.60815 h -1.11688 a 0.9797136,1.1013578 0 0 0 -0.676,1.65202 z"
       style="fill:#ececec;fill-opacity:1;stroke-width:1.03876" /></g></svg>
