<?xml version="1.0" encoding="UTF-8" standalone="no"?>
<!-- Created with Inkscape (http://www.inkscape.org/) -->

<svg
   version="1.1"
   id="svg1"
   width="188.84512"
   height="278.78955"
   viewBox="0 0 188.84512 278.78955"
   sodipodi:docname="drawing.svg"
   inkscape:version="1.2.2 (732a01da63, 2022-12-09)"
   xml:space="preserve"
   inkscape:export-filename="bitmap.png"
   inkscape:export-xdpi="96"
   inkscape:export-ydpi="96"
   xmlns:inkscape="http://www.inkscape.org/namespaces/inkscape"
   xmlns:sodipodi="http://sodipodi.sourceforge.net/DTD/sodipodi-0.dtd"
   xmlns="http://www.w3.org/2000/svg"
   xmlns:svg="http://www.w3.org/2000/svg"><defs
     id="defs1"><filter
       inkscape:collect="always"
       style="color-interpolation-filters:sRGB"
       id="filter1361"
       x="-0.14024152"
       y="-0.094996036"
       width="1.280483"
       height="1.1899921"><feGaussianBlur
         inkscape:collect="always"
         stdDeviation="10.547331"
         id="feGaussianBlur1363" /></filter></defs><sodipodi:namedview
     id="namedview1"
     pagecolor="#ffffff"
     bordercolor="#cccccc"
     borderopacity="1"
     inkscape:showpageshadow="0"
     inkscape:pageopacity="1"
     inkscape:pagecheckerboard="0"
     inkscape:deskcolor="#d1d1d1"
     showgrid="false"
     inkscape:zoom="1.9480792"
     inkscape:cx="55.695888"
     inkscape:cy="163.23772"
     inkscape:window-width="1366"
     inkscape:window-height="705"
     inkscape:window-x="-8"
     inkscape:window-y="32"
     inkscape:window-maximized="1"
     inkscape:current-layer="g1" /><g
     inkscape:groupmode="layer"
     inkscape:label="Image"
     id="g1"
     transform="translate(119.59165,-79.076087)"><path
       style="mix-blend-mode:normal;fill:#29646e;fill-opacity:1;filter:url(#filter1361)"
       d="m -29.722045,343.9936 c -2.50003,-7.58819 -6.3966,-15.00889 -7.89503,-15.03546 -0.38389,-0.007 -0.2307,1.32806 0.34042,2.96637 2.17609,6.24236 0.0459,5.17218 -3.630404,-1.82389 -2.17145,-4.13228 -5.31333,-8.42699 -7.23998,-9.89652 -1.87207,-1.42789 -4.28327,-4.32016 -5.35823,-6.42726 -2.24027,-4.39128 -3.34688,-5.10028 -1.8611,-1.19239 0.55177,1.45128 0.81912,2.82279 0.5941,3.04781 -0.67854,0.67854 -7.41815,-7.67001 -8.91374,-11.04171 -3.66553,-8.26369 -3.81305,-8.46605 -3.20372,-4.39479 0.30869,2.0625 0.33263,3.75 0.0532,3.75 -0.82768,0 -8.56019,-11.75342 -10.72384,-16.30027 l -1.99848,-4.19973 0.55275,5 0.55276,5 -3.44062,-5.38664 c -2.44274,-3.82436 -3.79827,-7.51517 -4.6738,-12.72574 -0.67826,-4.0365 -1.42989,-7.14241 -1.67029,-6.902 -0.2404,0.2404 -0.74243,3.04198 -1.1156,6.22574 l -0.67851,5.78864 -2.19347,-6.85534 c -2.5012,-7.81709 -2.67122,-11.55997 -0.76742,-16.89466 0.73605,-2.0625 0.97194,-3.75 0.52421,-3.75 -1.00459,0 -4.09617,4.47606 -5.87089,8.5 -1.21941,2.76485 -1.38644,2.84323 -2.130961,1 -1.15245,-2.85318 -1.12963,-16.38133 0.0345,-20.44038 0.540591,-1.88494 0.804131,-3.60593 0.585641,-3.82442 -0.722441,-0.72244 -4.793311,1.93079 -9.212831,6.00455 -4.74946,4.37791 -4.90624,4.12915 -2.98715,-4.73976 1.57147,-7.26242 3.85148,-11.94185 7.89553,-16.20457 l 3.04018,-3.20457 -7.15213,0.5996 c -3.93368,0.32979 -7.15214,0.33046 -7.15214,0.001 0,-0.32896 1.62813,-1.37071 3.61806,-2.315 3.03825,-1.44174 7.36489,-6.3991 7.3782,-8.45376 0.002,-0.31724 -1.23376,-0.3987 -2.74626,-0.18102 -1.5125,0.21768 -3.875,-0.0567 -5.25,-0.60981 l -2.5,-1.00559 3,-0.0952 c 3.48762,-0.11066 5.42322,-1.41482 8.0203,-5.4039 l 1.87001,-2.87232 -3.44515,0.72822 -3.44516,0.72822 4.34726,-4.3559 c 2.391,-2.39574 4.769331,-5.1434 5.285191,-6.1059 0.81737,-1.52507 0.44648,-1.75 -2.885591,-1.75 h -3.82351 l 5.28833,-5.68235 c 5.704351,-6.12938 6.501481,-7.83747 3.163091,-6.7779 -1.26583,0.40175 -1.88487,0.28562 -1.53085,-0.2872 1.16773,-1.88943 11.21083,-9.01669 14.15608,-10.0461 1.65,-0.57671 2.49408,-1.08408 1.87573,-1.1275 -0.61835,-0.0434 -3.03743,0.59605 -5.37573,1.42105 -5.42184,1.91294 -5.33254,1.93715 -3.45042,-0.93532 1.46162,-2.23071 1.45975,-3.16078 -0.0222,-11.06963 -1.56057,-8.32748 -1.38872,-12.49455 0.51525,-12.49455 0.5263,0 0.49798,-1.07807 -0.0674,-2.5651 -1.16473,-3.06346 -1.25634,-4.72665 -0.22525,-4.08941 0.4125,0.25494 0.76461,-4.331 0.78246,-10.19098 0.0353,-11.57728 2.45111,-23.0703 6.88533,-32.755899 4.44936,-9.71868 8.53123,-9.23143 15.17027,1.81088 4.84647,8.060819 7.49395,11.649629 15.08543,20.449159 3.39673,3.93726 6.43477,6.89976 6.75119,6.58334 0.31644,-0.31643 0.57533,-1.72978 0.57533,-3.14079 0,-2.44727 0.11684,-2.39352 2.53605,1.16667 2.81238,4.13879 3.968544,4.76969 3.1742,1.73213 -0.70814,-2.70792 -0.0815,-2.53312 4.109014,1.14617 2.07232,1.81952 3.74327,2.66623 3.96269,2.00799 0.27966,-0.83899 0.9224,-0.84757 2.44515,-0.0326 2.94994,1.57876 10.47921,0.47171 13.87698,-2.04037 2.33305,-1.72491 2.89592,-1.84369 2.89592,-0.61112 0,2.36056 1.30224,1.81935 3.4941896,-1.45219 1.54272,-2.30253 2.11755,-2.62472 2.53905,-1.42312 0.29966,0.85428 0.97486,1.40744 1.50042,1.22924 2.41209,-0.81784 13.13671,-14.07158 18.6623804,-23.063389 6.66774,-10.85029 9.55004,-13.20537 12.68706,-10.3664 7.01496,6.34845 13.65062,37.384259 10.11107,47.290689 -0.96589,2.70331 -0.94129,2.73568 0.61946,0.8151 1.53967,-1.89463 1.59367,-1.74974 1.02496,2.75 -0.35972,2.84627 -0.20721,4.75 0.38054,4.75 1.37379,0 1.2192,5.23792 -0.4061,13.76033 -1.30348,6.83488 -1.27105,7.40471 0.55334,9.72405 l 1.93796,2.46371 -4.17789,-1.47404 c -6.3055,-2.22471 -6.91166,-1.77314 -1.37278,1.02268 5.93935,2.99796 14.21486,9.9496 10.69634,8.9852 -1.2375,-0.33919 -2.25,-0.23196 -2.25,0.23827 0,1.06414 8.7867,9.61112 11.5,11.18625 1.67116,0.97015 1.13669,1.11439 -3.25062,0.8773 -2.88784,-0.15606 -5.25034,0.005 -5.25,0.35854 3.4e-4,0.35325 2.72627,3.16575 6.05762,6.25 6.05246,5.60351 6.33361,6.46712 1.5081,4.63246 -5.65376,-2.14956 -1.52594,4.04244 4.9349,7.40266 l 3,1.56027 -4.19098,0.006 c -2.30504,0.003 -4.4917,0.49273 -4.85924,1.08742 -0.93909,1.51948 4.06592,6.45727 8.94729,8.82713 l 4.10293,1.99192 -4.5066,0.0499 c -2.47863,0.0274 -6.04883,-0.39246 -7.93377,-0.93306 -1.88494,-0.54059 -3.62547,-0.7846 -3.86783,-0.54223 -0.24237,0.24236 0.75699,1.86399 2.22079,3.60362 1.4638,1.73962 3.35276,4.79613 4.1977,6.79223 1.37947,3.25889 4.70547,19.15896 4.12489,19.71919 -0.12935,0.12481 -1.36018,-1.27287 -2.73518,-3.10596 -2.41289,-3.21676 -9.94868,-8.8686 -10.75274,-8.06454 -0.21618,0.21617 0.0872,2.12274 0.67427,4.23682 1.20022,4.3224 1.33164,18.84084 0.19672,21.73171 -0.60625,1.54423 -1.05816,1.05793 -2.48234,-2.67123 -3.01555,-7.8961 -4.31788,-7.73035 -4.28038,0.54477 0.024,5.30041 -0.53962,8.51035 -2.10513,11.98853 -2.31409,5.14136 -3.50002,6.06461 -3.21127,2.5 0.36306,-4.48218 -0.0579,-7.85644 -0.91413,-7.32725 -0.48125,0.29742 -0.87916,1.56148 -0.88423,2.80901 -0.015,3.68713 -2.05536,10.01491 -4.43947,13.76824 l -2.22319,3.5 -0.56825,-3.5 -0.56824,-3.5 -0.65339,3.03788 c -0.54507,2.5344 -12.07086,21.46223 -13.06901,21.46223 -0.17469,0 -0.13945,-1.6875 0.0783,-3.75 0.38655,-3.66117 0.32247,-3.60787 -2.7047604,2.25 -1.70537,3.3 -4.44342,7.575 -6.08455,9.5 l -2.98387996,3.5 0.64553,-3.5 0.64553,-3.5 -3.61052004,4.5 c -5.77175,7.19366 -12.0665796,15.36788 -13.8885996,18.03517 l -1.68371,2.46483 0.48345,-4 0.48345,-4 -1.93994,3.5 c -1.06697,1.925 -3.17011,7.1 -4.67365,11.5 -1.50355,4.4 -2.83072,8.11526 -2.94927,8.25614 -0.11856,0.14088 -1.39636,-3.32786 -2.83956,-7.7083 z"
       id="path805" /><path
       style="fill:#b9dfe5;stroke-width:0.992291;fill-opacity:1"
       d="m -29.686962,343.02636 c -2.480765,-7.52972 -6.34731,-14.89324 -7.834193,-14.9196 -0.380932,-0.007 -0.228922,1.31782 0.337797,2.94351 2.159322,6.19426 0.04554,5.13232 -3.602429,-1.80984 -2.154718,-4.10043 -5.272388,-8.36205 -7.184192,-9.82026 -1.857645,-1.41689 -4.250265,-4.28687 -5.316941,-6.37773 -2.223008,-4.35744 -3.321091,-5.06098 -1.846759,-1.1832 0.547518,1.4401 0.812807,2.80103 0.589521,3.02432 -0.673311,0.67331 -7.360988,-7.6109 -8.845054,-10.95663 -3.637284,-8.20001 -3.783667,-8.40081 -3.179033,-4.36092 0.306312,2.04661 0.330067,3.7211 0.05279,3.7211 -0.821302,0 -8.494228,-11.66285 -10.641205,-16.17467 l -1.983081,-4.16736 0.54849,4.96147 0.548501,4.96147 -3.414108,-5.34513 c -2.423917,-3.79489 -3.769001,-7.45726 -4.637785,-12.62768 -0.673034,-4.0054 -1.418872,-7.08738 -1.657419,-6.84881 -0.238548,0.23854 -0.73671,3.01853 -1.107005,6.17777 l -0.673281,5.74403 -2.176568,-6.80252 c -2.481926,-7.75685 -2.650637,-11.47089 -0.761507,-16.76448 0.730379,-2.04661 0.964452,-3.72109 0.520171,-3.72109 -0.996849,0 -4.064607,4.44156 -5.825651,8.43449 -1.210016,2.74355 -1.375757,2.82132 -2.114538,0.99229 -1.143569,-2.83119 -1.120929,-16.25509 0.03424,-20.28287 0.536431,-1.87041 0.797936,-3.57814 0.581131,-3.79494 -0.716872,-0.71688 -4.75637,1.9159 -9.14184,5.95828 -4.71287,4.34417 -4.86843,4.09732 -2.96414,-4.70325 1.55937,-7.20645 3.82181,-11.84982 7.8347,-16.0797 l 3.01675,-3.17987 -7.09702,0.59497 c -3.90337,0.32725 -7.09703,0.32792 -7.09703,9.5e-4 0,-0.32642 1.61559,-1.36014 3.59019,-2.29716 3.01484,-1.43063 7.30813,-6.34979 7.32134,-8.38862 0.002,-0.31479 -1.22425,-0.39563 -2.7251,-0.17963 -1.50084,0.21601 -3.84514,-0.0562 -5.20955,-0.6051 l -2.48073,-0.99784 2.97688,-0.0945 c 3.46075,-0.10981 5.38143,-1.40392 7.9585,-5.36226 l 1.8556,-2.85019 -3.4186,0.72261 -3.41861,0.7226 4.31376,-4.32232 c 2.37257,-2.37729 4.732578,-5.10377 5.244463,-6.05886 0.811072,-1.51332 0.443038,-1.73651 -2.863353,-1.73651 h -3.79405 l 5.24758,-5.63856 c 5.660397,-6.08216 6.451384,-7.77709 3.138714,-6.72568 -1.256072,0.39865 -1.870342,0.28343 -1.519048,-0.28499 1.158734,-1.87486 11.124442,-8.94721 14.046997,-9.96868 1.637286,-0.57227 2.474861,-1.07573 1.861276,-1.11881 -0.613584,-0.0431 -3.014024,0.59146 -5.334307,1.4101 -5.380061,1.89819 -5.291448,1.92222 -3.423831,-0.92811 1.450356,-2.21353 1.448501,-3.13643 -0.02203,-10.98434 -1.548545,-8.26331 -1.378019,-12.39827 0.511279,-12.39827 0.522245,0 0.494143,-1.06976 -0.06688,-2.54533 -1.155755,-3.03986 -1.246659,-4.69023 -0.223514,-4.0579 0.409321,0.25297 0.758718,-4.29763 0.776431,-10.11245 0.03503,-11.48807 2.432222,-22.89253 6.832273,-32.503501 4.415075,-9.643791 8.465492,-9.160296 15.053374,1.796927 4.809125,7.998704 7.436204,11.559854 14.969188,20.291584 3.370555,3.90692 6.385185,6.8466 6.699167,6.53261 0.314001,-0.31399 0.570897,-1.71645 0.570897,-3.11658 0,-2.42842 0.11594,-2.37508 2.516508,1.15768 2.790709,4.10689 3.937964,4.73293 3.14974,1.71878 -0.702682,-2.68706 -0.08087,-2.51361 4.077352,1.13733 2.056352,1.8055 3.714426,2.64569 3.932155,1.99253 0.277505,-0.83253 0.915293,-0.84105 2.426309,-0.0323 2.927209,1.5666 10.398461,0.46808 13.770049,-2.02464 2.315073,-1.71162 2.873605,-1.82948 2.873605,-0.60642 0,2.34238 1.292205,1.80534 3.467265,-1.441 1.530832,-2.28478 2.1012326,-2.60449 2.5194847,-1.41215 0.2973509,0.84769 0.9673481,1.3966 1.4888583,1.21977 2.3935034,-0.81154 13.0354834,-13.96315 18.518575,-22.885672 6.616361,-10.766683 9.476451,-13.103615 12.589298,-10.286521 6.960906,6.299531 13.545434,37.096193 10.033158,46.926293 -0.958447,2.68247 -0.934037,2.7146 0.614687,0.80881 1.527806,-1.88003 1.581389,-1.73626 1.017062,2.72881 -0.356948,2.82434 -0.205613,4.7134 0.377607,4.7134 1.363204,0 1.209806,5.19756 -0.40297,13.6543 -1.293436,6.78221 -1.261256,7.34764 0.549076,9.64912 l 1.923026,2.44472 -4.145696,-1.46268 c -6.256912,-2.20756 -6.858401,-1.75948 -1.362202,1.0148 5.893583,2.97486 14.105326,9.87293 10.613918,8.91596 -1.227964,-0.33657 -2.232662,-0.23017 -2.232662,0.23644 0,1.05594 8.718993,9.53706 11.411385,11.10005 1.658282,0.96268 1.127931,1.10581 -3.225572,0.87054 -2.865587,-0.15486 -5.209883,0.005 -5.209545,0.35577 3.37e-4,0.35053 2.705262,3.14137 6.010942,6.20185 6.005822,5.56033 6.284805,6.41729 1.496479,4.59676 -5.610195,-2.133 -1.514181,4.01129 4.896874,7.34562 l 2.976883,1.54824 -4.158686,0.006 c -2.287278,0.003 -4.457089,0.48894 -4.821797,1.07905 -0.931853,1.50777 4.03459,6.40751 8.878346,8.7591 l 4.071314,1.97658 -4.471874,0.0495 c -2.45953,0.0272 -6.00222,-0.38943 -7.872635,-0.92586 -1.870416,-0.53643 -3.597533,-0.77856 -3.838026,-0.53806 -0.240502,0.24049 0.751157,1.84963 2.203677,3.57585 1.452521,1.72621 3.326925,4.75918 4.165354,6.73989 1.368841,3.23378 4.669212,19.01133 4.093105,19.56725 -0.128353,0.12384 -1.349699,-1.26307 -2.714104,-3.08203 -2.394296,-3.19197 -9.872018,-8.80027 -10.669883,-8.0024 -0.214514,0.2145 0.08653,2.10638 0.669075,4.20417 1.190971,4.2891 1.321378,18.69566 0.195204,21.56425 -0.601578,1.53234 -1.050006,1.04979 -2.463212,-2.65064 -2.992313,-7.83525 -4.284608,-7.67078 -4.247397,0.54057 0.02381,5.25957 -0.535462,8.44477 -2.088908,11.89615 -2.296259,5.10174 -3.47305,6.01788 -3.186525,2.48074 0.360261,-4.44764 -0.05746,-7.79591 -0.907087,-7.27079 -0.477542,0.29513 -0.872385,1.54945 -0.877416,2.78737 -0.01488,3.65871 -2.039522,9.93773 -4.405262,13.66214 l -2.206058,3.47303 -0.563872,-3.47303 -0.563861,-3.47302 -0.648355,3.01447 c -0.54087,2.51486 -11.977846,21.29684 -12.968305,21.29684 -0.173344,0 -0.138375,-1.6745 0.0777,-3.7211 0.383571,-3.63296 0.319985,-3.58007 -2.683919,2.23266 -1.692229,3.27457 -4.4091807,7.51663 -6.0376647,9.4268 l -2.9608873,3.47303 0.64055584,-3.47303 0.64055571,-3.47303 -3.58269865,4.46532 c -5.727275,7.13823 -11.9735989,15.24946 -13.7815789,17.8962 l -1.670737,2.44584 0.479725,-3.96918 0.479726,-3.96918 -1.924993,3.47304 c -1.058747,1.91016 -3.145682,7.04529 -4.637636,11.41138 -1.491964,4.36609 -2.808908,8.05273 -2.926544,8.19252 -0.117646,0.1398 -1.3856,-3.30222 -2.817679,-7.6489 z"
       id="path789" /></g></svg>
