<?xml version="1.0" encoding="UTF-8" standalone="no"?>
<!-- Created with Inkscape (http://www.inkscape.org/) -->

<svg
   version="1.1"
   id="svg1"
   width="181.82649"
   height="184.76688"
   viewBox="0 0 181.82649 184.76688"
   sodipodi:docname="elephanthead.svg"
   inkscape:version="1.2.2 (732a01da63, 2022-12-09)"
   xml:space="preserve"
   xmlns:inkscape="http://www.inkscape.org/namespaces/inkscape"
   xmlns:sodipodi="http://sodipodi.sourceforge.net/DTD/sodipodi-0.dtd"
   xmlns="http://www.w3.org/2000/svg"
   xmlns:svg="http://www.w3.org/2000/svg"><defs
     id="defs1" /><sodipodi:namedview
     id="namedview1"
     pagecolor="#ffffff"
     bordercolor="#cccccc"
     borderopacity="1"
     inkscape:showpageshadow="0"
     inkscape:pageopacity="1"
     inkscape:pagecheckerboard="0"
     inkscape:deskcolor="#d1d1d1"
     showgrid="false"
     inkscape:zoom="1.3775"
     inkscape:cx="330.30853"
     inkscape:cy="106.35209"
     inkscape:window-width="1173"
     inkscape:window-height="728"
     inkscape:window-x="0"
     inkscape:window-y="40"
     inkscape:window-maximized="0"
     inkscape:current-layer="g1" /><g
     inkscape:groupmode="layer"
     inkscape:label="Image"
     id="g1"
     transform="translate(-60.885114,-96.643295)"><path
       style="fill:#111d3e;fill-opacity:1;stroke:#6a82d7;stroke-opacity:1"
       d="m 164.74795,279.05215 c -6.3629,-2.48441 -12.09361,-8.13032 -14.03466,-13.82699 -4.74721,-13.9323 2.78434,-27.15528 15.46713,-27.15528 4.57542,0 5.60149,0.40586 8.59563,3.4 6.12291,6.12291 3.4488,14.6 -4.60558,14.6 -2.87526,0 -3.14264,-0.18562 -1.80058,-1.25 3.51155,-2.78501 2.50316,-7.75 -1.57404,-7.75 -3.55488,0 -5.6198,3.02762 -5.6198,8.23985 0,3.85569 0.47194,4.97948 2.97605,7.08654 3.93999,3.31529 7.70115,4.02688 12.501,2.36513 8.35888,-2.89392 13.18297,-14.74569 10.74093,-26.38821 -0.65367,-3.11637 -1.00512,-5.8495 -0.781,-6.07362 0.22411,-0.22412 2.02901,0.69437 4.01088,2.04109 1.98187,1.34672 6.29187,3.51643 9.57777,4.82159 6.81337,2.70626 7.00842,3.31685 4.60257,14.40763 -2.7433,12.64632 -10.27876,21.84756 -20.80296,25.40164 -7.61922,2.57305 -12.81419,2.5948 -19.25334,0.0806 z m 47.9281,-39.43163 c -17.25652,-3.60496 -32.87296,-15.37803 -40.45519,-30.49873 -4.95623,-9.88386 -4.95741,-9.87673 1.44104,-8.71697 3.52196,0.63838 5.51415,1.49539 5.51415,2.3721 0,4.13278 7.2385,14.19094 14.57674,20.25491 10.46027,8.64386 28.80664,14.63581 42.22649,13.79122 9.16543,-0.57683 8.0713,0.79321 -2.20346,2.75909 -9.09113,1.73942 -12.92369,1.74639 -21.09977,0.0384 z m -1.75,-11.20912 c -3.11076,-1.29029 -3.75,-2.04859 -3.75,-4.44847 0,-3.31028 0.24953,-3.42168 3.28518,-1.46667 3.48112,2.24189 13.89518,4.56585 20.85916,4.65484 6.20296,0.0793 6.28358,0.11422 3.35566,1.45489 -4.1848,1.91619 -18.9528,1.79519 -23.75,-0.19459 z m -11.26335,-5.73536 c -5.83835,-3.9735 -9.87917,-8.13789 -14.79145,-15.24377 -2.95522,-4.27488 -3.22195,-5.05139 -1.58842,-4.62422 1.9238,0.50309 1.92068,0.40552 -0.15552,-4.86239 -2.64804,-6.71885 -3.40034,-7.45075 -2.64756,-2.57577 0.50313,3.25822 0.34509,3.724 -1.10846,3.26689 -0.93238,-0.29322 -4.17024,-0.98857 -7.19524,-1.54522 -7.31922,-1.34687 -10.44962,-4.69736 -11.31465,-12.11015 -0.44243,-3.79126 -1.27155,-5.9355 -2.76921,-7.16153 -2.77411,-2.27098 -4.69448,-2.26754 -2.63811,0.005 0.87341,0.9651 1.89906,4.2276 2.27922,7.25 0.38017,3.0224 1.53531,6.89839 2.56698,8.6133 1.03167,1.71492 1.87577,4.33201 1.87577,5.81575 0,1.48373 0.44219,3.52395 0.98265,4.53381 0.82308,1.53793 0.66458,1.75292 -0.97601,1.32389 -1.07727,-0.28171 -3.56239,-2.92831 -5.5225,-5.88134 -5.43282,-8.18488 -8.67181,-10.1953 -18.13064,-11.25355 -7.58484,-0.84886 -13.3535,-3.15499 -13.3535,-5.33859 0,-0.52344 1.07874,-2.38419 2.39719,-4.13499 2.63814,-3.50323 5.60281,-11.46155 5.60281,-15.04009 0,-5.02434 -3.19261,-11.56602 -7.64979,-15.67451 -2.47622,-2.2825 -4.705,-3.94723 -4.95284,-3.6994 -0.24783,0.24784 1.13637,2.80885 3.07601,5.69115 3.23588,4.80849 3.52662,5.84315 3.52662,12.55 0,6.78873 -0.35559,8.01048 -4.99138,17.14952 -5.24987,10.34966 -6.07916,14.76494 -3.64816,19.42353 1.2817,2.45613 1.23239,2.56134 -1.0004,2.13452 -3.20299,-0.61229 -8.2075,-5.82363 -10.5327,-10.968 -1.46612,-3.24371 -2.47557,-4.25 -4.26337,-4.25 -4.004236,0 -6.614466,-3.10981 -8.415626,-10.02634 -1.62071,-6.22355 -1.87829,-6.57025 -6.667099,-8.97366 -4.34939,-2.18288 -5.17153,-3.10188 -6.48126,-7.24476 -1.393,-4.40631 -1.73731,-4.74513 -4.82692,-4.75001 -2.33929,-0.004 -4.19468,-0.87299 -6.25,-2.92832 -2.45802,-2.45802 -2.92308,-3.72551 -2.92308,-7.96667 0,-4.46037 0.41759,-5.46118 3.6113,-8.65488 l 3.61129,-3.6113 -4.39951,0.65975 c -3.54489,0.53159 -4.87381,0.27568 -6.84115,-1.31737 -3.7024,-2.99803 -1.8775,-6.39223 8.02969,-14.93471 17.19777,-14.82878 24.624709,-19.013699 34.028275,-19.174234 9.72324,-0.165992 22.49562,4.828834 29.30656,11.460764 5.18113,5.04496 9.65354,11.35118 9.65354,13.61176 0,1.01748 0.45,1.84997 1,1.84997 1.48205,0 1.20085,-4.09126 -0.50616,-7.36431 -1.93069,-3.70192 -1.88925,-3.91768 0.50616,-2.63569 3.31356,1.77336 2.27267,-0.62898 -1.25,-2.88495 l -3.25,-2.08136 4.47251,-0.0169 c 4.17771,-0.0157 4.33712,-0.11167 2.41855,-1.45549 -1.12967,-0.79125 -3.25169,-1.73925 -4.71559,-2.10667 -5.12874,-1.28723 -1.56548,-2.60168 5.17602,-1.90939 13.48659,1.38496 22.14604,7.86213 25.64449,19.18179 2.45621,7.94738 4.08406,10.93508 9.27906,17.03054 4.34367,5.09656 4.50922,5.53957 5.40407,14.46093 0.95647,9.53576 2.55581,15.95219 7.7971,31.28145 3.43334,10.04153 7.51792,27.24249 8.37055,35.25 0.30745,2.8875 0.46171,5.25 0.34278,5.25 -0.11893,0 -2.46023,-1.52723 -5.20289,-3.39384 z m -67.49833,-88.15487 c -0.69695,-2.90522 -0.97486,-6.04401 -0.61757,-6.97509 0.60335,-1.57231 0.82697,-1.57668 3.13944,-0.0615 1.36939,0.89726 2.48981,1.35503 2.48981,1.01728 0,-1.72686 -8.43347,-12.30848 -10.59452,-13.29312 -3.08622,-1.40617 -8.07418,-1.48396 -8.90548,-0.13888 -0.35698,0.5776 0.58962,1 2.24098,1 1.57246,0 3.39902,0.54 4.05902,1.2 1.60602,1.60602 1.52096,5.89128 -0.1653,8.32749 -0.75092,1.08488 -1.69336,3.02319 -2.09432,4.30736 -0.71564,2.292 -0.6826,2.30444 1.80006,0.67774 l 2.52908,-1.65712 3.25578,6.75065 c 3.59798,7.4602 4.81223,6.97042 2.86302,-1.15482 z m -1.49768,-26.46645 c -1.78741,-2.89209 -15.76487,-6.56932 -19.5437,-5.14161 -2.19687,0.83001 -1.93596,1.00264 2.55306,1.68919 2.75,0.42059 7.25,1.56497 10,2.54307 5.80693,2.06537 7.87104,2.33387 6.99064,0.90935 z"
       id="path523" /></g></svg>
