<?xml version="1.0" encoding="UTF-8" standalone="no"?>
<!-- Created with Inkscape (http://www.inkscape.org/) -->

<svg
   version="1.1"
   id="svg1"
   width="101.01852"
   height="138.5"
   viewBox="0 0 101.01852 138.5"
   sodipodi:docname="gumbuj.svg"
   inkscape:version="1.2.2 (732a01da63, 2022-12-09)"
   xml:space="preserve"
   xmlns:inkscape="http://www.inkscape.org/namespaces/inkscape"
   xmlns:sodipodi="http://sodipodi.sourceforge.net/DTD/sodipodi-0.dtd"
   xmlns="http://www.w3.org/2000/svg"
   xmlns:svg="http://www.w3.org/2000/svg"><defs
     id="defs1" /><sodipodi:namedview
     id="namedview1"
     pagecolor="#ffffff"
     bordercolor="#cccccc"
     borderopacity="1"
     inkscape:showpageshadow="0"
     inkscape:pageopacity="1"
     inkscape:pagecheckerboard="0"
     inkscape:deskcolor="#d1d1d1"
     showgrid="false"
     inkscape:zoom="5.51"
     inkscape:cx="47.368421"
     inkscape:cy="68.511797"
     inkscape:window-width="1151"
     inkscape:window-height="728"
     inkscape:window-x="0"
     inkscape:window-y="40"
     inkscape:window-maximized="0"
     inkscape:current-layer="g1" /><g
     inkscape:groupmode="layer"
     inkscape:label="Image"
     id="g1"
     transform="translate(-108.73921,-146.38204)"><path
       style="fill:#e46601;fill-opacity:1;opacity:0.41341991"
       d="m 155.87593,189.39571 c -1.37362,1.98334 -4.50608,3.74556 -10.43359,6.10352 -13.77355,5.47909 -23.79363,14.61888 -30.01758,27.38281 -4.63515,9.50563 -6.4209,17.24646 -6.62696,28.76367 h 100.91016 c -0.24856,-12.687 -2.34574,-22.33402 -6.66211,-30.44336 -4.16699,-7.82868 -15.51781,-18.74494 -23.28906,-22.39648 -3.575,-1.67982 -9.99496,-3.99047 -13.15744,-5.46801 -2.78222,-1.29986 -5.0393,-2.48053 -5.81295,-3.80603 z"
       id="path355"
       sodipodi:nodetypes="ccsccssccc" /><path
       id="path5079"
       style="fill:#c14f00;fill-opacity:1;opacity:0.4004329"
       d="m 158.28816,170.44421 c -4.23466,13.61112 1.48029,23.47994 -12.84582,29.41049 -13.77356,5.4791 -23.79362,14.61887 -30.01758,27.38281 -4.02738,8.25923 -5.89674,15.18825 -6.45899,24.4082 H 209.5439 c -0.6119,-10.57508 -2.68924,-18.93211 -6.49805,-26.08789 -4.16699,-7.82869 -15.5178,-18.74493 -23.28906,-22.39648 -3.575,-1.67982 -9.08751,-4.2627 -12.25,-5.74024 -4.8825,-2.28112 -5.33718,-3.1124 -6.01558,-5.81832 -1.80305,-7.1918 -1.74177,-8.54385 -3.20305,-21.15857 z"
       sodipodi:nodetypes="ccsccsscsc" /></g></svg>
