<?xml version="1.0" encoding="UTF-8" standalone="no"?>
<!-- Created with Inkscape (http://www.inkscape.org/) -->

<svg
   version="1.1"
   id="svg1"
   width="109.16142"
   height="95.854797"
   viewBox="0 0 109.16142 95.854797"
   sodipodi:docname="rahinihead.svg"
   inkscape:version="1.2.2 (732a01da63, 2022-12-09)"
   xml:space="preserve"
   xmlns:inkscape="http://www.inkscape.org/namespaces/inkscape"
   xmlns:sodipodi="http://sodipodi.sourceforge.net/DTD/sodipodi-0.dtd"
   xmlns="http://www.w3.org/2000/svg"
   xmlns:svg="http://www.w3.org/2000/svg"><defs
     id="defs1" /><sodipodi:namedview
     id="namedview1"
     pagecolor="#ffffff"
     bordercolor="#cccccc"
     borderopacity="1"
     inkscape:showpageshadow="0"
     inkscape:pageopacity="1"
     inkscape:pagecheckerboard="0"
     inkscape:deskcolor="#d1d1d1"
     showgrid="false"
     inkscape:zoom="1.9480792"
     inkscape:cx="-29.002928"
     inkscape:cy="19.506394"
     inkscape:window-width="1366"
     inkscape:window-height="705"
     inkscape:window-x="-8"
     inkscape:window-y="32"
     inkscape:window-maximized="1"
     inkscape:current-layer="g1" /><g
     inkscape:groupmode="layer"
     inkscape:label="Image"
     id="g1"
     transform="translate(-152.16056,-136.94011)"><g
       id="g5642"
       style="fill:#a76801;fill-opacity:0"><path
         style="fill:#a76801;fill-opacity:0"
         d="m 215.33771,166.37026 c -2.82942,-2.54389 -5.40878,-5.81886 -5.73191,-7.2777 -0.32313,-1.45885 -0.81619,-3.48778 -1.09569,-4.50873 -0.41905,-1.53074 -0.19671,-1.68198 1.26782,-0.86239 0.97679,0.54665 1.88019,1.70388 2.00755,2.57164 0.12736,0.86776 2.36884,4.29816 4.98107,7.62311 2.61223,3.32495 4.51687,6.27801 4.23254,6.56235 -0.28434,0.28433 -2.83196,-1.56439 -5.66138,-4.10828 z"
         id="path5243" /><path
         style="fill:#a76801;fill-opacity:0"
         d="m 237.20418,170.62413 c 0,-2.98871 -0.23701,-6.95277 -0.52668,-8.80902 -0.47638,-3.05267 -0.42538,-3.143 0.53406,-0.94581 1.67108,3.82691 2.43306,13.68057 1.12064,14.49169 -0.7845,0.48485 -1.12802,-0.95769 -1.12802,-4.73686 z"
         id="path5241" /><path
         style="fill:#a76801;fill-opacity:0"
         d="m 201.20418,186.90132 2.5,-1.99432 -3,1.02239 c -2.78218,0.94815 -2.85906,0.91305 -1.05887,-0.48345 1.06762,-0.82821 2.45789,-1.50583 3.08948,-1.50583 1.7453,0 3.46757,-4.59496 3.4847,-9.29705 0.0112,-3.08206 0.27384,-3.80291 0.98469,-2.70295 1.39546,2.15932 1.24103,14.35897 -0.2,15.8 -0.66,0.66 -2.7975,1.18999 -4.75,1.17776 l -3.55,-0.0222 z"
         id="path5239" /><path
         style="fill:#a76801;fill-opacity:0"
         d="m 199.00546,201.89524 c -3.85253,-3.48994 -3.34209,-4.81602 1.13211,-2.5438 6.06404,3.07962 9.00678,-0.30944 10.59213,-12.91133 0.40177,-3.19369 0.0468,-7.52884 -0.98247,-12 -3.05454,-13.26846 -3.04939,-12.43436 -0.0555,-9 1.43839,1.65 3.78934,4.96277 5.22434,7.36172 2.37319,3.96735 2.49641,4.67333 1.36278,7.80832 -0.76424,2.11349 -0.99561,5.26939 -0.59815,8.15923 2.43836,12.99521 0.94874,22.06493 -8.96198,17.48158 -6.13817,-2.83869 -5.14217,-2.02662 -7.71326,-4.35572 z"
         id="path5237"
         sodipodi:nodetypes="ssscssscss" /><path
         style="fill:#a76801;fill-opacity:0"
         d="m 229.58322,207.73318 c 0.36073,-1.92283 0.17688,-6.82538 -0.40854,-10.89456 -0.58638,-4.0758 -0.75793,-10.74067 -0.38199,-14.84033 l 0.68242,-7.44182 1.98537,2.44182 c 1.75795,2.16211 1.90917,3.35821 1.3201,10.44182 -0.3659,4.4 -0.93013,11.27293 -1.25383,15.27318 -0.32371,4.00025 -1.041,7.5528 -1.59398,7.89456 -0.64508,0.39868 -0.77036,-0.63156 -0.34955,-2.87467 z"
         id="path5235" /><path
         style="fill:#a76801;fill-opacity:0"
         d="m 177.07319,209.90018 c 1.30296,-1.08537 4.84923,-2.69441 7.88061,-3.57566 4.70584,-1.36803 6.37393,-1.41926 11.41026,-0.35048 10.61543,2.25275 7.45804,4.63378 -4.64119,3.49999 -5.53035,-0.51824 -8.12513,-0.30737 -11.00026,0.89393 -5.06517,2.11637 -6.52673,1.92903 -3.64942,-0.46778 z"
         id="path5233" /><path
         style="fill:#a76801;fill-opacity:0"
         d="m 181.50994,213.40851 c 2.92766,-2.57564 6.1411,-3.11837 8.69424,-1.4684 1.12361,0.72613 0.60699,0.97322 -2.05887,0.98469 -1.95738,0.008 -4.43238,0.676 -5.5,1.48351 -3.23174,2.44436 -4.14056,1.64405 -1.13537,-0.9998 z"
         id="path5231" /></g><path
       style="fill:#5c3600;fill-opacity:1"
       d="m 186.73172,230.61512 c -1.63485,-1.34283 -3.57025,-2.21212 -4.30088,-1.93175 -2.92452,1.12225 -9.54744,-8.79718 -7.78145,-11.65461 0.32308,-0.52275 0.0994,-1.25207 -0.49707,-1.6207 -0.59647,-0.36864 -0.87205,-1.22385 -0.61241,-1.90046 0.25964,-0.67662 -1.62218,-3.04793 -4.18183,-5.26959 -8.55807,-7.42801 -15.5523,-22.57906 -16.64984,-36.06723 l -0.54768,-6.73067 2.27181,6.5 c 3.64681,10.43409 10.89003,18.07364 18.59755,19.61515 3.12809,0.62562 3.26246,0.83998 2.97515,4.74664 -0.23566,3.20444 -0.84287,4.36031 -2.80089,5.33167 -1.375,0.68214 -2.5,1.81766 -2.5,2.52339 0,1.9728 4.43773,2.14948 6.52578,0.25982 2.78282,-2.51842 3.21494,-6.35277 1.5243,-13.52561 -2.52085,-10.69514 -1.86459,-15.4448 1.56331,-11.31443 0.74706,0.90014 3.34379,2.48772 5.77052,3.52793 l 4.41223,1.89131 -2.39367,2.54794 c -1.86396,1.9841 -3.03019,2.42065 -5.27001,1.97268 -2.47243,-0.49448 -2.70159,-0.36472 -1.63195,0.92412 2.0356,2.45275 5.63011,1.78192 8.17343,-1.52538 1.27933,-1.66362 4.43406,-5.52492 7.0105,-8.58067 4.59258,-5.44696 6.81556,-11.32098 6.81556,-18.00952 0,-1.38409 0.46583,-3.38694 1.03518,-4.45078 0.88909,-1.66128 0.69826,-1.93426 -1.35211,-1.93426 -4.11427,0 -9.00194,-4.13981 -11.81682,-10.00873 -2.12923,-4.43936 -2.35443,-5.55595 -1.1756,-5.82892 0.80199,-0.18571 2.21218,0.32252 3.13375,1.12941 0.92158,0.80688 3.1381,2.20788 4.9256,3.11333 l 3.25,1.64627 v -2.96666 c 0,-1.63167 -0.45,-3.24478 -1,-3.5847 -1.56082,-0.96464 -1.17465,-2.5 0.6288,-2.5 0.89584,0 3.30793,1.4625 5.36021,3.25 2.05227,1.7875 6.00707,5.15538 8.78843,7.48418 3.12843,2.6194 5.50796,5.60056 6.23945,7.817 1.4655,4.4405 0.802,5.2154 -2.57245,3.00438 -3.93145,-2.57599 -4.4067,-0.80453 -0.67797,2.52709 5.68438,5.079 8.23894,3.36487 6.2107,-4.16743 -0.64599,-2.39901 -2.61746,-5.75551 -4.46677,-7.60482 -1.82072,-1.82072 -2.7929,-3.29445 -2.1604,-3.27497 2.23268,0.0688 5.62951,2.54824 8.12496,5.93063 1.38877,1.88238 2.52504,2.94576 2.52504,2.36308 0,-1.70174 -4.07777,-6.40583 -7.19762,-8.30313 l -2.87502,-1.7484 2.35153,-1.54078 c 2.80936,-1.84076 9.24529,-3.72568 12.72111,-3.72568 4.3635,0 9.70229,1.93934 14.6767,5.33137 3.70576,2.52696 5.40254,3.12309 7.3233,2.57292 4.55485,-1.30466 6.18038,-1.06198 5.59022,0.83456 -0.29951,0.9625 -0.17126,2.34409 0.28501,3.0702 0.46498,0.73998 0.24267,3.81642 -0.50583,7 -0.73447,3.12389 -1.61794,9.9548 -1.96326,15.1798 -0.47787,7.23059 -1.58267,12.36663 -4.62481,21.5 -3.35073,10.05984 -4.10517,13.85932 -4.66626,23.5 l -0.66931,11.5 -1.7087,-3.8382 c -0.93979,-2.11101 -3.16093,-5.67177 -4.93586,-7.9128 -4.30716,-5.43824 -4.89121,-13.0015 -1.91337,-24.77729 1.15643,-4.57304 1.95228,-8.46493 1.76857,-8.64864 -0.18371,-0.18371 -1.60822,2.83118 -3.16559,6.69976 -2.95997,7.35271 -3.70536,14.66043 -2.12915,20.87382 l 0.86167,3.39664 -4.2982,-0.57651 c -4.07295,-0.54629 -4.5798,-0.31913 -9.67192,4.33478 -7.37545,6.74075 -20.64274,13.21755 -28.05688,13.69677 -4.8759,0.31516 -6.12445,0.0165 -8.66879,-2.07332 z m -4.08641,-16.20681 c 1.06762,-0.80751 3.54262,-1.47509 5.5,-1.48351 2.66586,-0.0115 3.18248,-0.25856 2.05887,-0.98469 -2.55314,-1.64997 -5.76658,-1.10724 -8.69424,1.4684 -3.0052,2.64385 -2.09637,3.44416 1.13537,0.9998 z m -1.9227,-4.04035 c 2.87513,-1.2013 5.46991,-1.41217 11.00026,-0.89393 12.09923,1.13379 15.25662,-1.24724 4.64119,-3.49999 -5.03633,-1.06878 -6.70442,-1.01755 -11.41026,0.35048 -3.03138,0.88125 -6.57765,2.49029 -7.88061,3.57566 -2.87731,2.39681 -1.41575,2.58415 3.64942,0.46778 z m 50.80414,-7.65467 c 0.3237,-4.00025 0.88793,-10.87318 1.25383,-15.27318 0.58907,-7.08361 0.43785,-8.27971 -1.3201,-10.44182 l -1.98537,-2.44182 -0.68242,7.44182 c -0.37594,4.09966 -0.20439,10.76453 0.38199,14.84033 0.58542,4.06918 0.76927,8.97173 0.40854,10.89456 -0.42081,2.24311 -0.29553,3.27335 0.34955,2.87467 0.55298,-0.34176 1.27027,-3.89431 1.59398,-7.89456 z m -20.07328,-0.52318 c 3.72019,-3.89961 4.98461,-7.91392 4.22723,-13.42073 -0.39746,-2.88984 -0.16609,-6.04574 0.59815,-8.15923 1.13363,-3.13499 1.01041,-3.84097 -1.36278,-7.80832 -1.43501,-2.39895 -3.78596,-5.71172 -5.22434,-7.36172 -2.99389,-3.43436 -2.99904,-4.26846 0.0555,9 1.02931,4.47116 1.38424,8.80631 0.98246,12 -1.58534,12.60189 -4.43856,16.14768 -10.47983,13.02362 -4.39399,-2.27222 -4.92011,-1.2442 -1.2444,2.43151 4.04503,4.04503 8.76376,4.15681 12.448,0.29487 z m -4.44929,-14.45 c 1.44103,-1.44103 1.59546,-13.64068 0.2,-15.8 -0.71085,-1.09996 -0.97346,-0.37911 -0.98469,2.70295 -0.0171,4.70209 -1.7394,9.29705 -3.4847,9.29705 -0.63159,0 -2.02186,0.67762 -3.08948,1.50583 -1.80019,1.3965 -1.72331,1.4316 1.05887,0.48345 l 3,-1.02239 -2.5,1.99432 -2.5,1.99432 3.55,0.0222 c 1.9525,0.0122 4.09,-0.51777 4.75,-1.17777 z m 31.86208,-18.75895 c -0.32668,-3.12547 -1.07129,-6.77581 -1.6547,-8.11186 -0.95944,-2.19719 -1.01044,-2.10686 -0.53406,0.94581 0.28967,1.85625 0.52668,5.82031 0.52668,8.80902 0,3.77917 0.34352,5.22171 1.12802,4.73686 0.74213,-0.45866 0.92483,-2.64115 0.53406,-6.37983 z m -22.09971,-5.06497 c -2.61223,-3.32495 -4.85371,-6.75535 -4.98107,-7.62311 -0.12736,-0.86776 -1.03076,-2.02499 -2.00755,-2.57164 -1.46453,-0.81959 -1.68687,-0.66835 -1.26782,0.86239 0.2795,1.02095 0.77256,3.04988 1.09569,4.50873 0.57669,2.60359 10.65156,12.03696 11.39329,11.38598 0.30222,-0.26525 -1.62031,-3.2374 -4.23254,-6.56235 z"
       id="path5212"
       sodipodi:nodetypes="csssssscssssssssccscsssssssscscsssssssssscssscsssssssssscsssssscssscscsssssssssssscssssssssssscsssscscsssccccccsssssssscssss" /></g></svg>
