<?xml version="1.0" encoding="UTF-8" standalone="no"?>
<!-- Uploaded to: SVG Repo, www.svgrepo.com, Generator: SVG Repo Mixer Tools -->

<svg
   height="354.8717"
   width="464.53775"
   version="1.1"
   id="Layer_1"
   viewBox="0 0 297.303 227.117"
   xml:space="preserve"
   sodipodi:docname="send.svg"
   inkscape:version="1.2.2 (732a01da63, 2022-12-09)"
   xmlns:inkscape="http://www.inkscape.org/namespaces/inkscape"
   xmlns:sodipodi="http://sodipodi.sourceforge.net/DTD/sodipodi-0.dtd"
   xmlns="http://www.w3.org/2000/svg"
   xmlns:svg="http://www.w3.org/2000/svg"><defs
   id="defs25" /><sodipodi:namedview
   id="namedview23"
   pagecolor="#505050"
   bordercolor="#eeeeee"
   borderopacity="1"
   inkscape:showpageshadow="0"
   inkscape:pageopacity="0"
   inkscape:pagecheckerboard="0"
   inkscape:deskcolor="#505050"
   showgrid="false"
   inkscape:zoom="0.344375"
   inkscape:cx="625.77132"
   inkscape:cy="200.36298"
   inkscape:window-width="1366"
   inkscape:window-height="705"
   inkscape:window-x="-8"
   inkscape:window-y="-8"
   inkscape:window-maximized="1"
   inkscape:current-layer="Layer_1" />

<path
   style="fill:#ffffff"
   d="M 297.303,0 0.002,102.303 90.564,120.368 Z"
   id="path4" />
<path
   style="fill:#ffd95e"
   d="m 0,102.303 90.56,18.065 60.104,-34.994 z"
   id="path6" />
<path
   style="fill:#ecf0f1"
   d="M 90.562,120.366 104.59,227.116 297.301,0 Z"
   id="path8" />
<path
   style="fill:#edb937"
   d="m 90.562,120.366 14.03,106.75 86.132,-101.508 -14.867,-24.227 -29.459,24.591 4.269,-40.598 h -0.002 l -60.104,34.994 h 0.002 v -0.002 z"
   id="path10" />
<path
   style="fill:#fece0e"
   d="m 297.303,0 -174.22,145.436 -18.492,81.681 z"
   id="path12" />
<path
   style="fill:#fad24d"
   d="m 146.397,125.971 -23.316,19.464 -18.492,81.681 86.132,-101.508 -14.867,-24.227 -29.459,24.591 v -0.002 z"
   id="path14" />
<path
   style="fill:#ffffff"
   d="M 238.037,202.713 297.301,0 123.081,145.436 Z"
   id="path16" />
<path
   style="fill:#ffd95e"
   d="m 146.267,125.971 -23.316,19.464 114.958,57.278 -62.183,-101.331 -29.456,24.591 v -0.002 z"
   id="path18" />

</svg>
