<?xml version="1.0" encoding="UTF-8" standalone="no"?>
<!-- Created with Inkscape (http://www.inkscape.org/) -->

<svg
   width="31.440132"
   height="51.423252"
   version="1.1"
   viewBox="0 0 31.440133 51.42325"
   id="svg20"
   sodipodi:docname="smilelight.svg"
   inkscape:version="1.2.2 (732a01da63, 2022-12-09)"
   xmlns:inkscape="http://www.inkscape.org/namespaces/inkscape"
   xmlns:sodipodi="http://sodipodi.sourceforge.net/DTD/sodipodi-0.dtd"
   xmlns="http://www.w3.org/2000/svg"
   xmlns:svg="http://www.w3.org/2000/svg">
  <defs
     id="defs24" />
  <sodipodi:namedview
     id="namedview22"
     pagecolor="#505050"
     bordercolor="#eeeeee"
     borderopacity="1"
     inkscape:showpageshadow="0"
     inkscape:pageopacity="0"
     inkscape:pagecheckerboard="0"
     inkscape:deskcolor="#505050"
     showgrid="false"
     inkscape:zoom="5.6084848"
     inkscape:cx="35.303653"
     inkscape:cy="29.598012"
     inkscape:window-width="1366"
     inkscape:window-height="705"
     inkscape:window-x="-8"
     inkscape:window-y="-8"
     inkscape:window-maximized="1"
     inkscape:current-layer="svg20" />
  <path
     fill="#f6ca4b"
     strokeWidth="0.041"
     d="m 15.472132,1.1512511 c -0.106,-0.004 -0.288,0.04 -0.571,0.13 -0.756,0.242 -2.23,0.821 -3.126,1.578 -0.896,0.757 -1.211,1.69 -1.51,2.013 -0.2970004,0.322 -0.5780004,0.032 -0.7530004,-0.161 -0.175,-0.193 -0.245,-0.29 -0.648,-0.74 a 85.505,85.505 0 0 0 -1.525,-1.659 c -0.385,-0.402 -0.42,-0.402 -0.7,-0.064 -0.281,0.338 -0.807,1.014 -1.123,1.835 a 4.432,4.432 0 0 0 -0.157,2.752 c 0.263,0.966 0.894,1.932 1.209,2.544 0.08,0.154 0.139,0.285 0.189,0.396 -3.226,2.4819999 -5.203,6.1719999 -5.436,10.1459999 h -0.03 v 0.784 l -0.141,22.854 a 6.574,6.672 0 0 0 6.574,6.714 H 22.755132 a 7.4,7.51 0 0 0 7.4,-7.463 l 0.135,-22.105 v -0.784 h -0.023 c -0.26,-4.456 -2.71,-8.524 -6.592,-10.9509999 0.025,-0.282 0.023,-0.787 -0.13,-1.006 -0.386,-0.548 -0.772,-0.709 -1.315,-0.886 -0.544,-0.177 -1.366,-0.342 -2.015,-0.551 -0.648,-0.21 -1.275,-0.239 -1.853,-0.416 -0.578,-0.177 -1.139,-0.306 -1.612,-0.483 a 3.234,3.234 0 0 1 -1.227,-0.773 c -0.368,-0.37 -0.718,-0.885 -0.682,-1.513 0.037,-0.628 0.461,-1.368 0.656,-1.787 0.121,-0.262 0.153,-0.398 -0.025,-0.404 z"
     id="path2"
     style="stroke:none;stroke-width:2.3;stroke-dasharray:none;stroke-opacity:1" />
  <path
     fill="#463825"
     strokeWidth="0.042"
     d="m 6.6961316,21.540251 c -1.216,0.234 -1.168,1.02 -1.18,2.121 0.277,5.1 4.7930004,9.103 10.2710004,9.106 5.533,-0.003 10.074,-4.084 10.278,-9.238 0.013,-1.113 -0.408,-1.965 -1.273,-1.99 z"
     id="path4"
     style="stroke:none;stroke-width:2.3;stroke-dasharray:none;stroke-opacity:1" />
  <rect
     width="6.4050002"
     height="12.814"
     x="12.805129"
     y="21.662256"
     fill="#ec5d68"
     strokeWidth="0.039"
     ry="3.148"
     id="rect6"
     style="stroke:none;stroke-width:2.3;stroke-dasharray:none;stroke-opacity:1" />
  <path
     fill="#cf535d"
     strokeWidth="0.045"
     d="m 19.157132,23.490251 h -6.299 a 5.137,5.137 0 0 0 -0.053,0.736 v 4.559 l 0.003,-0.104 0.005,-0.103 0.007,-0.103 0.01,-0.102 c 0.002,-0.033 0.006,-0.067 0.01,-0.1 l 0.014,-0.1 a 21.1,21.1 0 0 1 0.032,-0.199 l 0.018,-0.097 0.02,-0.097 a 3.785,3.785 0 0 1 0.073,-0.284 4.5,4.5 0 0 1 0.028,-0.092 l 0.03,-0.091 a 4.654,4.654 0 0 1 0.383,-0.846 4.163,4.163 0 0 1 0.301,-0.44 3.62,3.62 0 0 1 0.474,-0.493 3.222,3.222 0 0 1 0.544,-0.372 2.74,2.74 0 0 1 0.446,-0.19 l 0.077,-0.023 0.078,-0.021 a 2.091,2.091 0 0 1 0.158,-0.036 l 0.08,-0.014 0.08,-0.012 0.082,-0.009 a 2.23,2.23 0 0 1 0.082,-0.007 l 0.082,-0.004 0.083,-0.002 h 0.004 a 1.857,1.857 0 0 1 0.165,0.006 l 0.082,0.007 c 0.027,0.003 0.054,0.005 0.08,0.01 0.028,0.002 0.055,0.007 0.082,0.011 a 2.116,2.116 0 0 1 0.237,0.05 l 0.078,0.02 0.077,0.024 c 0.026,0.008 0.051,0.018 0.077,0.027 a 2.554,2.554 0 0 1 0.37,0.163 2.895,2.895 0 0 1 0.544,0.372 3.301,3.301 0 0 1 0.362,0.36 3.82,3.82 0 0 1 0.501,0.732 4.348,4.348 0 0 1 0.324,0.778 l 0.028,0.092 0.026,0.094 0.024,0.095 a 3.785,3.785 0 0 1 0.062,0.29 4.6,4.6 0 0 1 0.017,0.098 l 0.015,0.1 0.013,0.1 c 0.004,0.033 0.008,0.067 0.01,0.1 a 3.478,3.478 0 0 1 0.016,0.205 c 0.003,0.034 0.005,0.069 0.006,0.103 l 0.003,0.104 v 0.105 -4.664 c 0,-0.252 -0.018,-0.498 -0.052,-0.737 z"
     id="path8"
     style="stroke:none;stroke-width:2.3;stroke-dasharray:none;stroke-opacity:1" />
  <path
     fill="#ffffff"
     strokeWidth="0.045"
     d="m 24.421132,21.540251 v 1.348 c 0,0.333 -0.245,0.601 -0.55,0.601 H 7.7111316 c -0.306,0 -0.552,-0.268 -0.552,-0.6 v -1.35"
     id="path10"
     style="stroke:none;stroke-width:2.3;stroke-dasharray:none;stroke-opacity:1" />
  <path
     fill="#ffffff"
     strokeWidth="0.049"
     d="m 24.421132,21.540251 v 1.568 c 0,0.387 -0.245,0.698 -0.55,0.698 H 7.7111316 c -0.306,0 -0.552,-0.311 -0.552,-0.698 v -1.568"
     id="path12"
     style="stroke:none;stroke-width:2.3;stroke-dasharray:none;stroke-opacity:1" />
  <ellipse
     cx="8.9851379"
     cy="18.508249"
     fill="#443825"
     strokeWidth="0.041"
     rx="1.465"
     ry="1.345"
     id="ellipse14"
     style="stroke:none;stroke-width:2.3;stroke-dasharray:none;stroke-opacity:1" />
  <rect
     width="5.1339998"
     height="1.245"
     x="18.68013"
     y="17.885248"
     fill="#443825"
     strokeWidth="0.022"
     ry="0.62300003"
     id="rect16"
     style="stroke:none;stroke-width:2.3;stroke-dasharray:none;stroke-opacity:1" />
</svg>
