<?xml version="1.0" encoding="UTF-8" standalone="no"?>
<!-- Created with Inkscape (http://www.inkscape.org/) -->

<svg
   version="1.1"
   id="svg1"
   width="32.580463"
   height="52.083557"
   viewBox="0 0 32.580464 52.083557"
   sodipodi:docname="smiledark.svg"
   inkscape:version="1.2.2 (732a01da63, 2022-12-09)"
   xmlns:inkscape="http://www.inkscape.org/namespaces/inkscape"
   xmlns:sodipodi="http://sodipodi.sourceforge.net/DTD/sodipodi-0.dtd"
   xmlns="http://www.w3.org/2000/svg"
   xmlns:svg="http://www.w3.org/2000/svg">
  <defs
     id="defs1">
    <inkscape:path-effect
       effect="fillet_chamfer"
       id="path-effect14239"
       is_visible="true"
       lpeversion="1"
       nodesatellites_param="F,0,0,1,0,0,0,1 @ F,0,0,1,0,0,0,1 @ F,0,0,1,0,0,0,1 @ F,0,0,1,0,0,0,1 @ F,0,0,1,0,0,0,1 @ F,0,0,1,0,0,0,1 @ F,0,0,1,0,0,0,1 @ F,0,0,1,0,0,0,1 @ F,0,0,1,0,0,0,1 @ F,0,0,1,0,0,0,1 @ F,0,0,1,0,0,0,1 @ F,0,0,1,0,0,0,1 @ F,0,0,1,0,0,0,1 @ F,0,0,1,0,0,0,1 @ F,0,0,1,0,0,0,1 @ F,0,0,1,0,15.356445,0,1 @ F,0,0,1,0,17.070266,0,1 @ F,0,0,1,0,0,0,1 @ F,0,0,1,0,0,0,1 @ F,0,0,1,0,0,0,1 @ F,0,0,1,0,0,0,1 @ F,0,0,1,0,0,0,1 @ F,0,0,1,0,0,0,1 @ F,0,0,1,0,0,0,1 @ F,0,0,1,0,0,0,1 @ F,0,0,1,0,0,0,1 @ F,0,0,1,0,0,0,1 @ F,0,0,1,0,0,0,1 @ F,0,0,1,0,0,0,1 @ F,0,0,1,0,0,0,1"
       unit="px"
       method="auto"
       mode="F"
       radius="0"
       chamfer_steps="1"
       flexible="false"
       use_knot_distance="true"
       apply_no_radius="true"
       apply_with_radius="true"
       only_selected="false"
       hide_knots="false" />
    <inkscape:path-effect
       effect="fillet_chamfer"
       id="path-effect14239-7"
       is_visible="true"
       lpeversion="1"
       nodesatellites_param="F,0,0,1,0,0,0,1 @ F,0,0,1,0,0,0,1 @ F,0,0,1,0,0,0,1 @ F,0,0,1,0,0,0,1 @ F,0,0,1,0,0,0,1 @ F,0,0,1,0,0,0,1 @ F,0,0,1,0,0,0,1 @ F,0,0,1,0,0,0,1 @ F,0,0,1,0,0,0,1 @ F,0,0,1,0,0,0,1 @ F,0,0,1,0,0,0,1 @ F,0,0,1,0,0,0,1 @ F,0,0,1,0,0,0,1 @ F,0,0,1,0,0,0,1 @ F,0,0,1,0,0,0,1 @ F,0,0,1,0,6.4914962,0,1 @ F,0,0,1,0,6.6913602,0,1 @ F,0,0,1,0,0,0,1 @ F,0,0,1,0,0,0,1 @ F,0,0,1,0,0,0,1 @ F,0,0,1,0,0,0,1 @ F,0,0,1,0,0,0,1 @ F,0,0,1,0,0,0,1 @ F,0,0,1,0,0,0,1 @ F,0,0,1,0,0,0,1 @ F,0,0,1,0,0,0,1 @ F,0,0,1,0,0,0,1 @ F,0,0,1,0,0,0,1 @ F,0,0,1,0,0,0,1 @ F,0,0,1,0,0,0,1"
       unit="px"
       method="auto"
       mode="F"
       radius="0"
       chamfer_steps="1"
       flexible="false"
       use_knot_distance="true"
       apply_no_radius="true"
       apply_with_radius="true"
       only_selected="false"
       hide_knots="false" />
  </defs>
  <sodipodi:namedview
     id="namedview1"
     pagecolor="#ffffff"
     bordercolor="#cccccc"
     borderopacity="1"
     inkscape:showpageshadow="0"
     inkscape:pageopacity="1"
     inkscape:pagecheckerboard="0"
     inkscape:deskcolor="#d1d1d1"
     showgrid="false"
     inkscape:zoom="8.2777886"
     inkscape:cx="-1.6308704"
     inkscape:cy="16.671119"
     inkscape:window-width="1366"
     inkscape:window-height="705"
     inkscape:window-x="-8"
     inkscape:window-y="-8"
     inkscape:window-maximized="1"
     inkscape:current-layer="g1" />
  <g
     inkscape:groupmode="layer"
     inkscape:label="Image"
     id="g1"
     transform="translate(-222.86734,-177.5699)">
    <path
       style="color:#000000;fill:#00ffff;-inkscape-stroke:none"
       d="m 237.89648,177.57031 -0.20507,0.27344 c -0.91067,0.29182 -2.40602,0.80267 -3.73047,1.92187 -0.2551,0.21558 -0.33618,0.40603 -0.52735,0.625 -0.33394,-0.36569 -0.67424,-0.74321 -0.92773,-1.00781 -0.10487,-0.10947 -0.20101,-0.21782 -0.40234,-0.38476 -0.20134,-0.16694 -0.57801,-0.49072 -1.3086,-0.55469 -0.73059,-0.064 -1.40533,0.3191 -1.66992,0.54297 -0.26459,0.22387 -0.34575,0.3465 -0.42773,0.44531 -0.32774,0.39505 -0.98673,1.20696 -1.43555,2.375 -0.44879,1.16797 -0.60691,2.56356 -0.2207,3.98242 0.24681,0.90676 0.54953,1.30746 0.85546,1.84571 -2.34439,2.24769 -3.91561,5.10747 -4.52343,8.25781 h -0.36914 v 2.85156 l -0.13672,22.31055 c -0.0289,4.7152 3.83158,8.59961 8.54687,8.59961 h 15.07031 c 4.82967,0 8.79849,-3.94386 8.82813,-8.77344 l 0.13477,-22.12305 v -2.86523 h -0.38672 c -0.74965,-3.8786 -2.93696,-7.31569 -6.20118,-9.67578 -0.0286,-0.2946 0.004,-0.55877 -0.36718,-1.08594 -0.64283,-0.91256 -1.73639,-1.44852 -2.34375,-1.64649 -0.7568,-0.24664 -1.52327,-0.3953 -1.96875,-0.53906 -0.95207,-0.30724 -1.61295,-0.34834 -1.83399,-0.41601 -0.65426,-0.20032 -1.18694,-0.32887 -1.45117,-0.42774 -0.26428,-0.0989 -0.30079,-0.12417 -0.44336,-0.26758 -0.0932,-0.0937 -0.0529,0.0158 -0.0391,0.0801 0.004,0.14903 0.15862,-0.35823 0.42773,-0.9375 0.0882,-0.1899 0.28141,-0.31212 0.29297,-1.14258 0.006,-0.41522 -0.19199,-1.19685 -0.73828,-1.67773 -0.54629,-0.48088 -1.0942,-0.53807 -1.40625,-0.54883 h -0.0117 z m -1.38671,5.58594 c 0.26011,0.69108 0.61842,1.27649 0.9707,1.63086 0.57457,0.57797 1.28952,0.99217 1.94726,1.23828 0.65778,0.24613 1.21878,0.36506 1.69141,0.50977 0.90588,0.27736 1.46398,0.29599 1.77539,0.39648 0.79433,0.25633 1.57768,0.41981 1.90039,0.51953 l -0.084,0.96289 1.08789,0.67969 c 3.22566,2.01676 5.22572,5.36548 5.43945,9.01758 l 0.0195,0.32812 v 0.30469 l -0.13476,22.11133 c -0.0158,2.5746 -2.06403,4.60937 -4.63868,4.60937 h -15.07031 c -2.44208,0 -4.37241,-1.94272 -4.35742,-4.38476 l 0.13672,-22.32227 v -0.21289 l 0.0254,-0.43359 c 0.19132,-3.25656 1.80921,-6.28934 4.48437,-8.34766 l 1.31055,-1.00976 -0.67773,-1.50977 c -0.0507,-0.11293 -0.12817,-0.28405 -0.23242,-0.48633 v -0.002 c -0.41709,-0.80879 -0.89351,-1.60341 -1.01954,-2.06641 -0.0556,-0.20434 0.0318,-0.40282 0.0391,-0.60937 0.1465,0.16904 0.28809,0.33356 0.43554,0.49609 0.10903,0.12023 0.31947,0.46659 1.03711,0.7793 0.35882,0.15635 0.91085,0.27157 1.47071,0.15234 0.55985,-0.11923 1.02431,-0.44619 1.31445,-0.75976 0.58034,-0.62722 0.59682,-0.87749 0.75976,-1.14063 0.11444,-0.1848 0.24205,-0.31442 0.36915,-0.45117 z"
       id="path2453-3" />
    <path
       id="path2455-7"
       style="fill:#803300;fill-opacity:1;stroke-width:0.0407631;stroke-opacity:0.98017"
       d="m 230.36537,200.53138 c -1.18443,0.22845 -1.1377,0.99414 -1.14997,2.06726 0.27104,4.96848 4.67035,8.86812 10.00759,8.87096 5.3909,-0.003 9.81435,-3.97871 10.01358,-9.00017 0.0126,-1.08438 -0.39737,-1.91468 -1.23984,-1.93805 z"
       sodipodi:nodetypes="cccccc" />
    <rect
       style="fill:#ff8080;fill-opacity:1;stroke-width:0.0383765;stroke-opacity:0.98017"
       id="rect2457-4"
       width="6.2406096"
       height="12.484576"
       x="236.31737"
       y="200.65041"
       ry="3.0673308" />
    <path
       id="path2459-2"
       style="fill:#cf535d;fill-opacity:1;stroke-width:0.0434962;stroke-opacity:0.98017"
       d="m 242.50599,202.43068 h -6.13656 c -0.0337,0.23279 -0.0522,0.47236 -0.0522,0.71779 v 4.54408 c 0,-0.0341 2.9e-4,-0.068 8.4e-4,-0.10188 8.4e-4,-0.0339 0.002,-0.0678 0.003,-0.10144 9.7e-4,-0.0337 0.003,-0.0671 0.004,-0.10055 0.002,-0.0334 0.003,-0.0667 0.007,-0.0999 0.003,-0.0332 0.006,-0.0665 0.009,-0.0994 0.003,-0.0329 0.007,-0.0656 0.0112,-0.0983 0.003,-0.0326 0.008,-0.0653 0.0127,-0.0979 0.004,-0.0324 0.01,-0.0646 0.0147,-0.0966 0.004,-0.0322 0.0101,-0.0642 0.0163,-0.096 0.006,-0.0318 0.0119,-0.0633 0.0183,-0.0949 0.007,-0.0315 0.013,-0.0632 0.0199,-0.0944 0.007,-0.0312 0.0142,-0.0621 0.0218,-0.0931 0.008,-0.0308 0.0155,-0.0613 0.0236,-0.0918 0.008,-0.0306 0.0165,-0.0613 0.0254,-0.0915 0.009,-0.0302 0.0178,-0.0602 0.027,-0.09 0.0101,-0.0298 0.0187,-0.0594 0.0286,-0.0889 0.0197,-0.059 0.0407,-0.11699 0.0624,-0.17442 0.0218,-0.0575 0.0446,-0.11426 0.0686,-0.17011 0.0239,-0.0558 0.0491,-0.11093 0.075,-0.16508 0.026,-0.0542 0.053,-0.10747 0.081,-0.15984 0.0279,-0.0524 0.0569,-0.10378 0.0868,-0.15436 0.0299,-0.0506 0.0607,-0.1001 0.0924,-0.14866 0.0317,-0.0486 0.0645,-0.0964 0.098,-0.14297 0.0335,-0.0466 0.0678,-0.0921 0.10301,-0.13657 0.0352,-0.0446 0.0713,-0.088 0.10825,-0.13043 0.0369,-0.0423 0.0745,-0.0835 0.11305,-0.12359 0.0384,-0.04 0.0779,-0.0792 0.11787,-0.11696 0.04,-0.0377 0.0807,-0.0743 0.12214,-0.10971 0.0414,-0.0353 0.0837,-0.0693 0.12657,-0.10211 0.0429,-0.0328 0.0863,-0.0643 0.13043,-0.0946 0.0442,-0.0303 0.089,-0.0592 0.1345,-0.0869 0.0455,-0.0276 0.0917,-0.0537 0.13836,-0.0787 0.0234,-0.0125 0.0468,-0.0246 0.0704,-0.0362 0.0236,-0.0117 0.0475,-0.023 0.0713,-0.034 0.0239,-0.0112 0.0479,-0.0218 0.0721,-0.0322 0.0241,-0.0101 0.0486,-0.0201 0.0731,-0.0296 0.0245,-0.0101 0.0489,-0.0188 0.0736,-0.0276 0.0248,-0.009 0.0497,-0.0174 0.0746,-0.0256 0.0249,-0.008 0.0499,-0.0156 0.0752,-0.023 0.0252,-0.007 0.0506,-0.0142 0.076,-0.0208 0.0255,-0.007 0.0508,-0.0126 0.0765,-0.0186 0.0256,-0.006 0.0515,-0.0112 0.0773,-0.016 0.0259,-0.004 0.0518,-0.01 0.0779,-0.0136 0.026,-0.003 0.0522,-0.008 0.0784,-0.0116 0.0263,-0.003 0.0528,-0.006 0.0792,-0.009 0.0265,-0.003 0.0529,-0.004 0.0795,-0.007 0.0266,-0.002 0.0534,-0.003 0.0802,-0.003 0.0268,-8.2e-4 0.0537,-0.002 0.0808,-0.002 h 0.003 c 0.0269,0 0.054,7.5e-4 0.0808,0.002 0.0268,8.2e-4 0.0536,0.002 0.0802,0.003 0.0267,0.002 0.0532,0.003 0.0796,0.007 0.0265,0.003 0.0528,0.004 0.079,0.009 0.0264,0.003 0.0526,0.008 0.0786,0.0116 0.0261,0.003 0.0521,0.009 0.0779,0.0136 0.0259,0.004 0.0516,0.0101 0.0773,0.016 0.0256,0.006 0.0511,0.0118 0.0765,0.0186 0.0255,0.007 0.0507,0.0134 0.076,0.0208 0.0252,0.008 0.0502,0.015 0.0752,0.023 0.0249,0.008 0.0497,0.0168 0.0744,0.0256 0.0247,0.009 0.0494,0.018 0.0738,0.0276 0.0245,0.01 0.0486,0.0194 0.0728,0.0296 0.0241,0.0101 0.0484,0.0211 0.0723,0.0322 0.0239,0.0112 0.0475,0.0222 0.0712,0.034 0.0237,0.0117 0.0473,0.0238 0.0705,0.0362 0.0467,0.0248 0.0927,0.0511 0.13817,0.0787 0.0455,0.0276 0.0903,0.0566 0.1345,0.0869 0.0442,0.0303 0.0878,0.0618 0.13063,0.0946 0.0429,0.0328 0.0851,0.0668 0.12657,0.10211 0.0416,0.0354 0.0821,0.0719 0.12214,0.10971 0.04,0.0376 0.0792,0.0769 0.11768,0.11696 0.0384,0.04 0.0762,0.0812 0.11305,0.12359 0.0369,0.0423 0.0729,0.0859 0.10825,0.13043 0.0352,0.0446 0.0697,0.09 0.10323,0.13657 0.0335,0.0466 0.066,0.0943 0.0978,0.14297 0.0317,0.0486 0.0627,0.0981 0.0926,0.14866 0.0299,0.0506 0.0588,0.102 0.0867,0.15436 0.0279,0.0524 0.055,0.10569 0.081,0.15984 0.026,0.0542 0.0508,0.10926 0.0748,0.16508 0.0239,0.0559 0.0469,0.11266 0.0688,0.17011 0.0218,0.0574 0.0426,0.11546 0.0622,0.17442 0.01,0.0295 0.0194,0.0591 0.0288,0.0889 0.0101,0.0298 0.0181,0.0598 0.0269,0.09 0.009,0.0302 0.0171,0.0609 0.0254,0.0915 0.008,0.0305 0.016,0.061 0.0236,0.0918 0.008,0.0308 0.0147,0.0619 0.0218,0.0931 0.007,0.0312 0.0137,0.0629 0.0201,0.0944 0.007,0.0315 0.0125,0.063 0.0183,0.0949 0.006,0.0318 0.0112,0.0639 0.0163,0.096 0.004,0.0322 0.0101,0.0644 0.0145,0.0966 0.004,0.0324 0.009,0.0651 0.0127,0.0979 0.003,0.0326 0.008,0.0653 0.0112,0.0983 0.003,0.033 0.007,0.0662 0.009,0.0994 0.003,0.0332 0.004,0.0665 0.007,0.0999 0.002,0.0334 0.003,0.0668 0.004,0.10055 0.002,0.0337 0.002,0.0676 0.003,0.10144 8.4e-4,0.0339 9.8e-4,0.0678 9.8e-4,0.10188 v -4.54408 c 0,-0.24543 -0.0183,-0.485 -0.052,-0.71779 z" />
    <path
       id="path2461-6"
       style="fill:#ffffff;fill-opacity:1;stroke-width:0.0440381;stroke-opacity:0.98017"
       d="m 247.63508,200.53131 v 1.31398 c 0,0.32431 -0.23939,0.58541 -0.53673,0.58541 h -15.74444 c -0.29735,0 -0.53674,-0.2611 -0.53674,-0.58541 v -1.31398" />
    <path
       id="path2463-6"
       style="fill:#ffffff;fill-opacity:1;stroke-width:0.0474868;stroke-opacity:0.98017"
       d="m 247.63508,200.53131 v 1.52784 c 0,0.3771 -0.23939,0.68068 -0.53673,0.68068 h -15.74444 c -0.29735,0 -0.53674,-0.30358 -0.53674,-0.68068 v -1.52784" />
    <ellipse
       style="fill:#803300;fill-opacity:1;stroke-width:0.0810021;stroke-opacity:0.98017"
       id="circle2467-0"
       cx="232.5957"
       cy="196.61081"
       rx="2.8738019"
       ry="2.6396065" />
    <rect
       style="fill:#803300;fill-opacity:1;stroke-width:0.0407017;stroke-opacity:0.98017"
       id="rect2469-6"
       width="9.351265"
       height="2.2678223"
       x="239.86707"
       y="195.47693"
       ry="1.1339111" />
  </g>
</svg>
