<?xml version="1.0" encoding="UTF-8" standalone="no"?>
<!-- Created with Inkscape (http://www.inkscape.org/) -->

<svg
   version="1.1"
   id="svg1"
   width="326.95654"
   height="302.16406"
   viewBox="0 0 326.95654 302.16406"
   sodipodi:docname="socialIcon.svg"
   inkscape:version="1.2.2 (732a01da63, 2022-12-09)"
   xml:space="preserve"
   xmlns:inkscape="http://www.inkscape.org/namespaces/inkscape"
   xmlns:sodipodi="http://sodipodi.sourceforge.net/DTD/sodipodi-0.dtd"
   xmlns="http://www.w3.org/2000/svg"
   xmlns:svg="http://www.w3.org/2000/svg"><defs
     id="defs1" /><sodipodi:namedview
     id="namedview1"
     pagecolor="#ffffff"
     bordercolor="#cccccc"
     borderopacity="1"
     inkscape:showpageshadow="0"
     inkscape:pageopacity="1"
     inkscape:pagecheckerboard="0"
     inkscape:deskcolor="#d1d1d1"
     showgrid="false"
     inkscape:zoom="0.344375"
     inkscape:cx="0"
     inkscape:cy="264.24682"
     inkscape:window-width="1366"
     inkscape:window-height="705"
     inkscape:window-x="-8"
     inkscape:window-y="32"
     inkscape:window-maximized="1"
     inkscape:current-layer="g1" /><g
     inkscape:groupmode="layer"
     inkscape:label="Image"
     id="g1"
     transform="translate(-92.854717,29.990024)"><path
       style="fill:#000000;stroke-width:0.379693"
       d="m 99.021484,272.04084 c -2.505975,-0.12654 -4.951066,-0.44274 -5.433535,-0.70267 -1.107621,-0.59673 -0.94135,-1.59637 0.370068,-2.22492 1.219309,-0.5844 9.027783,-1.64008 21.959813,-2.96889 5.3252,-0.54719 9.74964,-1.0604 9.83209,-1.14047 0.0824,-0.0801 0.639,-4.97617 1.23679,-10.88022 1.79083,-17.68732 3.35803,-32.65453 3.59888,-34.37052 l 0.2265,-1.61369 h -6.44175 c -6.05446,0 -6.51808,-0.0515 -7.71137,-0.85561 -2.8106,-1.89406 -3.64432,-5.80739 -1.89777,-8.90774 1.44846,-2.5712 2.22002,-2.76653 10.92783,-2.76653 4.16246,0 7.63931,-0.0705 7.72633,-0.15678 0.087,-0.0862 0.10544,-2.22201 0.041,-4.74617 l -0.11725,-4.58938 -8.236,-0.002 c -7.49372,-0.001 -8.34535,-0.0681 -9.44937,-0.74126 -2.48487,-1.51512 -2.36056,-0.79088 -4.3234,-25.18783 -1.94986,-24.23563 -1.95019,-23.76115 0.0177,-25.51791 0.77562,-0.69242 1.48219,-0.76977 8.01304,-0.87719 l 7.16242,-0.11781 0.1946,-1.21112 c 0.10703,-0.66611 0.37675,-2.57801 0.59936,-4.24866 0.88456,-6.63835 2.96873,-11.46789 6.51462,-15.09604 1.7711,-1.81219 2.99353,-2.60194 6.83447,-4.41537 2.57267,-1.21465 6.43615,-2.85593 8.58551,-3.64731 3.79919,-1.39871 5.01487,-2.27664 5.01487,-3.62145 0,-0.33127 0.61323,-1.61744 1.36274,-2.85814 1.10307,-1.82596 1.44254,-2.88309 1.78149,-5.54758 l 0.41875,-3.291749 -1.17789,-1.100313 c -0.64783,-0.60517 -1.42173,-1.686809 -1.71976,-2.403643 -0.92894,-2.234335 -1.88505,-6.716047 -1.61457,-7.568253 0.15827,-0.498663 0.0453,-1.060605 -0.2917,-1.451074 -1.55743,-1.804518 -2.37679,-7.523779 -1.6058,-11.208735 0.73772,-3.525911 2.20493,-6.017302 5.11383,-8.683518 2.76376,-2.53318 7.97603,-5.277291 11.32563,-5.962618 5.03056,-1.029253 11.69375,-0.205046 15.73364,1.946174 4.22189,2.248133 7.10089,6.545849 6.00145,8.958849 -0.55504,1.218192 -0.1289,4.209274 0.74084,5.199958 1.45515,1.657479 1.62509,2.460712 1.3595,6.425593 l -0.25654,3.829859 1.38048,1.327058 c 2.79618,2.687965 3.14973,4.624981 1.16264,6.369675 -0.71068,0.62398 -1.50689,1.206096 -1.76937,1.293588 -0.36591,0.121969 -0.24035,1.305875 0.53822,5.074839 1.16727,5.65067 1.26455,7.98262 0.38535,9.23786 -1.25983,1.79865 -4.81172,2.47938 -7.40295,1.41878 -2.89137,-1.18344 -2.98899,-1.17487 -2.98899,0.26213 0,0.71942 0.22824,1.49746 0.50721,1.72898 0.27897,0.23152 2.90818,1.43098 5.8427,2.66546 2.93453,1.23448 6.27728,2.84697 7.42835,3.5833 4.63237,2.96329 8.30907,9.0415 10.16383,16.80255 1.51638,6.34511 1.44837,6.23679 3.91565,6.23679 h 2.01188 l 0.87168,-4.84109 c 1.16197,-6.45336 2.69908,-11.16284 4.57869,-14.02844 2.37399,-3.61933 5.26128,-5.49981 15.35314,-9.99947 l 6.47069,-2.88508 0.21355,-1.57519 c 0.22501,-1.65966 1.1194,-2.95087 2.30453,-3.32702 0.63556,-0.20172 0.70931,-0.65615 0.70931,-4.37078 v -4.145646 l -1.5302,-1.012641 c -2.2147,-1.465616 -4.77572,-5.06972 -5.6778,-7.990328 -1.39453,-4.514973 -0.80093,-6.317733 2.24039,-6.804063 1.41975,-0.227026 1.47873,-0.289854 1.13088,-1.204767 -1.37885,-3.626643 -0.99666,-9.188221 0.87239,-12.694919 4.22349,-7.924078 17.02642,-10.814405 26.21338,-5.917803 5.95789,3.175519 8.74168,9.303778 7.51903,16.552447 -0.25263,1.497783 -0.46173,2.853918 -0.46466,3.013636 -0.003,0.159717 0.49384,0.238037 1.10391,0.174043 0.66534,-0.06979 1.46079,0.168322 1.98772,0.594998 0.73693,0.596734 0.87535,1.058699 0.85911,2.867079 -0.0376,4.179165 -2.17717,8.152832 -5.78583,10.745396 l -1.8898,1.357688 v 4.31749 c 0,4.08944 0.0451,4.34154 0.85431,4.77257 1.35384,0.72117 1.77851,1.53208 1.79147,3.42083 l 0.0121,1.76086 3.13247,1.23565 c 1.72286,0.67961 5.52453,2.38501 8.44817,3.78979 5.94386,2.85596 8.33781,4.72049 10.8055,8.41589 1.86943,2.79949 2.80171,5.74477 3.94927,12.4766 l 0.87151,5.11242 h 2.23452 c 2.56461,0 2.11262,0.77113 3.78338,-6.45478 1.14835,-4.96653 3.55315,-10.10543 6.07599,-12.984 2.19318,-2.50243 4.79916,-4.07799 11.80318,-7.13611 3.07918,-1.34444 5.73791,-2.66414 5.90828,-2.93266 0.17037,-0.26852 0.31239,-0.87265 0.31558,-1.34252 0.007,-1.02126 -0.57635,-1.07263 -3.187,-0.28066 -3.72234,1.12921 -6.89304,0.44361 -8.01911,-1.73397 -0.54774,-1.05921 -0.57444,-1.60151 -0.20245,-4.11161 0.23569,-1.59031 0.75355,-4.3438 1.15082,-6.11887 0.65244,-2.915276 0.66466,-3.264108 0.12635,-3.607081 -1.80798,-1.151936 -2.77236,-2.233359 -2.77236,-3.108836 0,-1.4843 1.11706,-3.480355 2.56637,-4.585797 1.30963,-0.998897 1.31805,-1.024344 1.03069,-3.111035 -0.60934,-4.424644 -0.1499,-7.195785 1.37222,-8.276537 0.83433,-0.592408 1.42094,-4.48536 0.77344,-5.132862 -1.46738,-1.467385 0.82276,-6.051801 4.1293,-8.26605 3.22031,-2.156497 6.34049,-3.073692 11.21671,-3.29721 3.52834,-0.161734 4.66762,-0.0618 7.19269,0.630948 6.66349,1.828101 12.75775,6.249446 14.8185,10.750708 2.02635,4.426133 1.7841,12.111255 -0.46543,14.764771 -0.32114,0.378835 -0.43182,0.992806 -0.28465,1.579182 0.27854,1.109778 -0.98846,6.059101 -2.11774,8.272713 -0.41903,0.821329 -1.09956,1.70423 -1.51232,1.962003 -1.47834,0.923243 -0.82204,6.166973 1.16251,9.287973 0.63625,1.00061 1.3394,2.54029 1.56255,3.4215 0.22318,0.88122 0.60037,1.75055 0.83821,1.93185 0.23784,0.18129 2.5682,1.15369 5.1786,2.16088 9.75674,3.76453 13.38581,5.93482 16.09485,9.62526 2.27098,3.09372 4.26718,8.85142 4.9564,14.29587 0.13217,1.04415 0.33287,2.36833 0.44595,2.94262 l 0.20564,1.04416 h 7.1328 c 6.74202,0 7.19014,0.0451 8.17924,0.82313 0.57554,0.45273 1.27755,1.37625 1.56,2.05228 0.55538,1.3292 0.52216,1.93261 -1.54539,28.06958 -0.51209,6.47377 -1.03572,13.15211 -1.1636,14.84076 -0.27293,3.60321 -0.68227,4.57537 -2.41967,5.74619 -1.24612,0.83976 -1.55037,0.86571 -10.15125,0.86571 h -8.86663 v 4.74617 4.74616 h 7.88455 c 6.93343,0 8.04183,0.0844 9.18839,0.69926 2.65348,1.42308 3.73094,5.49373 2.22101,8.39115 -1.5971,3.06469 -2.08,3.2327 -9.68483,3.36956 l -6.66476,0.11995 0.25155,2.72775 c 0.50678,5.49496 3.29942,33.25012 3.8406,38.17036 0.30652,2.78693 0.55735,5.28774 0.55735,5.55736 0,0.6096 0.47492,0.67748 14.80803,2.11652 12.39436,1.24439 16.24328,1.86599 17.77716,2.87103 l 0.96658,0.63334 -0.84512,0.68435 c -0.46485,0.3764 -1.56395,0.7745 -2.44249,0.88467 -2.2643,0.28395 -311.97879,0.48486 -317.502036,0.20596 z m 52.524946,-14.15427 c 0.6609,-3.82532 1.20164,-7.06187 1.20164,-7.19233 0,-0.13046 -0.72617,-0.28974 -1.6137,-0.35396 l -1.6137,-0.11675 v -16.04215 -16.04214 l -3.10514,1.1e-4 -3.10515,1.1e-4 -0.25314,2.18323 c -0.44272,3.81829 -4.36351,33.11588 -5.1349,38.36984 -0.40793,2.77847 -0.74169,5.29868 -0.74169,5.60047 0,0.45739 1.0955,0.54871 6.58207,0.54871 h 6.58208 z m 223.5154,4.96176 c -0.1417,-1.09637 -0.74481,-5.58149 -1.34024,-9.96695 -0.5954,-4.38546 -1.78737,-13.612 -2.64878,-20.50343 -0.86145,-6.89143 -1.64453,-12.91431 -1.74017,-13.38418 -0.163,-0.80065 -0.36561,-0.85431 -3.22508,-0.85431 h -3.05114 l 0.11573,16.04203 0.11577,16.04204 -1.80354,0.11572 c -0.99195,0.0637 -1.80256,0.14909 -1.80134,0.18985 0,0.0408 0.34267,2.03903 0.75889,4.44059 0.41618,2.40156 0.95842,5.60522 1.20496,7.11925 l 0.44826,2.75277 h 6.61217 6.61221 z m -191.93831,0.89451 c 0,-0.18673 0.42715,-3.10947 0.94923,-6.49499 0.52208,-3.38552 0.94924,-6.38517 0.94924,-6.66588 0,-0.35415 -0.66045,-0.54525 -2.1575,-0.62427 -2.73351,-0.14427 -2.70065,-0.0237 -2.35845,-8.65696 0.14486,-3.65455 0.28047,-10.36088 0.30135,-14.90296 l 0.038,-8.25832 h -3.36424 c -1.85034,0 -4.16978,-0.11042 -5.15432,-0.24536 l -1.79008,-0.24536 0.21891,2.61844 c 0.1204,1.44014 0.74556,8.56617 1.38925,15.83562 0.64368,7.26944 1.07593,13.46319 0.96055,13.76387 -0.14556,0.37932 -0.82377,0.54829 -2.2151,0.55189 -1.10292,0.003 -2.4009,0.11113 -2.8844,0.24061 -0.84201,0.2255 -0.86787,0.34023 -0.61305,2.71968 0.22361,2.0881 0.55626,2.92882 2.08606,5.27224 1.00101,1.53339 2.0163,3.38272 2.2562,4.10961 l 0.43617,1.32163 h 5.4761 c 3.01186,0 5.47611,-0.15278 5.47611,-0.33949 z m 157.81297,-1.08436 c 0.3197,-0.78312 1.4027,-2.70532 2.40667,-4.27155 1.53918,-2.40116 1.85564,-3.21447 2.01813,-5.18672 0.22137,-2.68684 0.11654,-2.77238 -3.4087,-2.78165 -1.08404,-0.003 -2.07116,-0.16729 -2.19361,-0.36542 -0.12245,-0.19812 0.2868,-6.64816 0.90944,-14.33341 0.62264,-7.68525 1.18384,-14.78478 1.24712,-15.77673 l 0.11504,-1.80354 h -5.08996 -5.08995 l 0.1512,15.85218 0.15121,15.85219 -2.27816,0.18985 c -1.25298,0.10442 -2.25472,0.36071 -2.22608,0.56954 0.0286,0.20883 0.53037,3.32706 1.11495,6.9294 l 1.06289,6.54971 h 5.26428 5.26427 z m -78.85502,-0.37969 c 0.48523,-1.73955 1.7716,-8.66466 2.11589,-11.3908 l 0.25176,-1.99339 h -1.57937 c -0.86865,0 -1.93195,-0.1887 -2.3629,-0.41934 -0.73823,-0.39509 -0.76842,-0.63109 -0.52206,-4.0817 0.14382,-2.0143 0.50552,-5.45641 0.80378,-7.64914 0.62411,-4.58823 2.07051,-17.18648 2.07051,-18.03428 0,-0.48541 -0.96456,-0.57068 -6.45478,-0.57068 -3.55013,0 -6.45479,0.0815 -6.45479,0.18103 0,0.0996 0.58828,5.35357 1.30728,11.67556 1.79464,15.77966 1.93119,17.62942 1.35287,18.32625 -0.3157,0.38039 -1.16115,0.5723 -2.52128,0.5723 h -2.04631 l 0.23623,1.6137 c 0.12991,0.88753 0.72847,4.09119 1.33011,7.11924 0.60164,3.02806 1.09538,5.6337 1.09719,5.79032 0.002,0.15663 2.47277,0.28477 5.49101,0.28477 h 5.4877 z m -36.99859,-0.60554 c 0.66397,-1.93263 1.66715,-2.94254 4.6538,-4.68501 4.11556,-2.40109 4.64541,-3.06012 4.64541,-5.77797 v -2.31567 h -5.29783 c -5.27308,0 -6.98231,-0.32032 -7.39091,-1.38513 -0.25392,-0.66171 -0.42173,-2.673 -1.37332,-16.46045 -0.42519,-6.16052 -0.85566,-11.58538 -0.9566,-12.05525 -0.17775,-0.82742 -0.3248,-0.85431 -4.67188,-0.85431 h -4.48836 l -0.25057,9.17412 c -0.13782,5.04576 -0.25058,11.69045 -0.25058,14.76597 0,7.4937 0.24024,7.20937 -6.49207,7.68329 -2.79871,0.19702 -5.16184,0.42606 -5.25138,0.50898 -0.0895,0.0829 0.12752,1.07183 0.48238,2.19757 0.7979,2.5312 2.94561,4.78418 5.45956,5.72712 3.5955,1.34861 5.46007,2.49001 6.24731,3.82429 l 0.7782,1.31894 6.82765,-0.10332 6.82765,-0.10333 z m 77.52067,0.5294 c 0.49285,-1.30571 1.99163,-2.30153 5.47135,-3.63529 3.60169,-1.38051 5.85451,-3.86236 6.58658,-7.25618 l 0.2568,-1.1905 -4.98663,-0.27737 c -4.42955,-0.24637 -5.09993,-0.37477 -6.00079,-1.1493 l -1.01415,-0.87193 -0.27488,-10.56976 c -0.15118,-5.81337 -0.17342,-12.49196 -0.0494,-14.84132 l 0.22548,-4.27154 h -4.76842 -4.76842 l -0.20586,1.61369 c -0.11322,0.88753 -0.47574,6.05611 -0.8056,11.48572 -0.78041,12.84547 -1.14809,16.13427 -1.88646,16.87397 -0.4641,0.46494 -1.82365,0.63264 -6.33774,0.78176 l -5.74689,0.18985 -0.13939,1.04824 c -0.0767,0.57653 0.0404,1.71584 0.26009,2.5318 0.41914,1.55656 2.37407,3.26492 5.64666,4.93447 1.80015,0.91837 3.36958,2.8325 3.70741,4.52169 l 0.24046,1.20229 h 7.08347 7.08346 z M 133.98941,183.01784 c -0.13727,-2.08831 -0.35173,-4.60853 -0.47656,-5.60048 l -0.22697,-1.80354 h -5.64648 c -5.56216,0 -5.64648,0.0125 -5.64648,0.83421 0,1.12443 0.77674,9.50932 0.92516,9.98705 0.0716,0.23064 2.31689,0.37969 5.71944,0.37969 h 5.60149 z m 234.17882,1.08179 c 0.13506,-1.59774 0.24555,-4.16067 0.24555,-5.6954 v -2.79041 H 256.21445 144.01512 l 0.003,3.13247 c 0.002,1.72286 0.11162,4.28579 0.24475,5.6954 l 0.24206,2.56293 H 256.2136 367.92261 l 0.24558,-2.90499 z m 21.69609,2.46249 c 0.13984,-0.13896 0.40889,-2.10387 0.59786,-4.36647 0.18898,-2.2626 0.3885,-4.61715 0.44345,-5.23232 l 0.0999,-1.1185 -5.93342,-0.13761 -5.93339,-0.13761 -0.23427,3.15457 c -0.20591,2.77299 -0.36166,7.36448 -0.26799,7.90074 0.0503,0.28805 10.936,0.22715 11.22787,-0.0628 z M 132.49906,164.5078 c -0.11538,-0.6787 -0.32574,-3.24163 -0.46747,-5.6954 l -0.2577,-4.4614 h -5.89576 -5.89576 l 0.25699,3.70201 c 0.14134,2.03611 0.36095,4.59904 0.48801,5.6954 l 0.23102,1.99339 h 5.87523 5.87522 z m 236.71435,-0.59281 c 0.022,-0.97915 0.15025,-3.51453 0.28477,-5.63417 l 0.24453,-3.85389 -60.75091,-0.13289 c -33.413,-0.0731 -84.53781,-0.073 -113.61069,1.4e-4 l -52.85979,0.13303 0.17044,1.57559 c 0.0937,0.86658 0.27256,3.36965 0.3974,5.56237 l 0.22697,3.98678 112.92852,0.0717 112.92852,0.0717 z m 22.90291,-3.00832 c 0.13934,-2.45704 0.34442,-4.93722 0.45574,-5.51151 l 0.20242,-1.04416 h -6.06674 -6.0667 l -0.22224,2.56293 c -0.12222,1.40961 -0.33006,3.88256 -0.46185,5.49543 l -0.2397,2.9325 5.83398,0.10504 c 3.20871,0.0578 5.94148,0.065 6.07285,0.0161 0.13138,-0.0489 0.35289,-2.09927 0.49224,-4.55632 z M 176.21182,97.993531 c -0.10582,-9.428943 -0.15963,-10.097818 -0.89106,-11.076663 -1.19699,-1.601876 -1.82057,-1.865626 -3.45061,-1.459476 -3.83733,0.956124 -4.8068,8.068787 -1.39368,10.224916 0.66647,0.421019 1.31689,1.217657 1.44538,1.770312 0.34099,1.46661 -0.65071,3.52882 -1.94596,4.04656 -1.6824,0.67249 -4.26006,1.15768 -5.05122,0.95079 -0.52082,-0.1362 -1.14553,0.36048 -2.31637,1.84168 l -1.60321,2.02817 4.69935,0.46851 c 2.58465,0.25768 5.55367,0.62202 6.59782,0.80965 1.04416,0.18762 2.37631,0.36124 2.96033,0.3858 l 1.06186,0.0447 z m 166.00313,9.275519 c 2.81922,-0.41574 5.9471,-0.75667 6.95085,-0.75763 l 1.82504,-0.002 -0.68596,-1.16178 c -1.30591,-2.21187 -2.237,-2.78862 -4.60309,-2.85129 -2.45892,-0.0651 -4.32479,-0.86977 -5.23374,-2.257 -0.87734,-1.338992 -0.39863,-2.774205 1.46523,-4.392905 1.48735,-1.291713 1.57452,-1.485808 1.7244,-3.839553 0.12087,-1.898344 -0.0177,-2.875815 -0.59135,-4.172759 -1.29401,-2.925319 -4.1271,-3.377211 -5.93845,-0.947209 -0.75025,1.006487 -0.80957,1.663895 -0.98802,10.948684 -0.10441,5.432842 -0.11865,9.948702 -0.0316,10.035242 0.24483,0.24349 0.63136,0.20539 6.10673,-0.60205 z m -79.42961,-2.76205 0.11611,-1.81282 -6.38105,0.1042 -6.38104,0.1042 -0.0427,1.51877 c -0.0235,0.83533 0.0319,1.65109 0.12306,1.81282 0.0912,0.16172 2.92961,0.24715 6.30764,0.18984 l 6.14188,-0.10419 z m 66.07609,-11.410254 c 1.13978,-3.621058 2.34242,-9.064916 2.34242,-10.603144 0,-1.977195 -0.63852,-3.123557 -2.13812,-3.838671 -2.95631,-1.409763 -4.0476,-0.579006 -4.66906,3.554372 -0.23549,1.566234 -0.87135,4.162819 -1.41302,5.770185 -1.06711,3.166546 -1.01734,4.117328 0.30347,5.796464 1.05448,1.340553 3.72088,2.590939 4.37226,2.050336 0.25528,-0.211858 0.7962,-1.440153 1.20205,-2.729542 z m -141.65274,2.024175 c 1.41565,-0.86313 2.7458,-2.83425 2.74789,-4.07202 7.6e-4,-0.463419 -0.40711,-2.094057 -0.90642,-3.623643 -0.4993,-1.529583 -1.10403,-4.045661 -1.34385,-5.591282 -0.23981,-1.545624 -0.62108,-3.033217 -0.84727,-3.30576 -0.49009,-0.590518 -3.10475,-0.65663 -4.13625,-0.104591 -1.77337,0.949085 -2.30467,3.754053 -1.33808,7.064393 0.29664,1.015926 0.87772,3.299469 1.29128,5.074534 1.33311,5.721851 1.82051,6.212012 4.5327,4.558369 z m 43.54906,-35.106411 -0.93197,-0.931972 v -8.37051 -8.370507 h -4.62699 c -5.42232,0 -8.24607,-0.589865 -12.69417,-2.651747 -5.92177,-2.744978 -11.30345,-7.16551 -15.36273,-12.618994 -3.50391,-4.707363 -5.49027,-9.542459 -6.62302,-16.121391 -0.79104,-4.5943179 -0.54877,-8.8762202 0.79482,-14.0473828 1.82061,-7.0071502 4.67176,-11.8580642 9.89243,-16.8308332 4.8175,-4.58874 9.63388,-7.366488 15.93979,-9.192941 l 2.99769,-0.868256 h 34.36223 34.36223 l 2.98135,0.863772 c 10.72747,3.10802 20.51023,11.747406 24.55407,21.684295 1.77778,4.3685141 2.41997,8.01553145 2.41459,13.7126299 -0.007,7.7233501 -1.59703,12.9606891 -5.87581,19.3575281 -4.777,7.14169 -13.85531,13.938033 -21.03665,15.748778 -4.0777,1.028179 -8.14926,1.234136 -20.88313,1.056367 l -12.52987,-0.174917 -7.40402,5.600793 c -4.07221,3.080435 -9.11263,6.920793 -11.20094,8.534124 -6.37717,4.926697 -7.41338,5.337685 -9.1299,3.621164 z m 19.38433,-25.171927 3.52622,-3.132468 16.08111,-0.0056 c 17.92574,-0.0063 18.83481,-0.102639 23.62033,-2.504327 7.35379,-3.690614 12.31438,-9.59903 14.15062,-16.854412 0.36866,-1.456647 0.62129,-3.9551044 0.61649,-6.0969573 -0.0259,-11.5359514 -6.82185,-20.5554447 -18.5094,-24.5652817 l -3.03755,-1.04214 h -32.08407 c -36.29426,0 -33.49367,-0.220765 -40.05763,3.157646 -6.65203,3.423739 -11.33268,9.4437169 -12.93201,16.63240952 -0.82446,3.70574828 -0.58116,9.48054708 0.54994,13.05340248 2.17945,6.884323 8.64506,13.726983 16.01063,16.944316 2.37728,1.038412 2.66903,1.072599 10.30632,1.207736 7.83516,0.138637 7.86281,0.142104 8.82786,1.107155 0.95685,0.956849 0.96809,1.038472 0.96809,7.033707 v 6.065625 l 4.21841,-3.934164 c 2.32013,-2.163784 5.80522,-5.343769 7.74464,-7.066627 z M 224.32023,14.236859 c -7.96083,-1.200035 -9.5971,-12.0170109 -2.34859,-15.5259567 5.57936,-2.7009207 12.06269,1.39958699 12.02242,7.6038226 -0.01,1.5144859 -1.21375,4.3336161 -2.38831,5.5924971 -1.65652,1.775452 -4.63782,2.728759 -7.28552,2.329637 z m 26.36418,-1.036786 c -5.28813,-2.681545 -6.12494,-9.2502442 -1.69825,-13.33062812 1.83857,-1.69473008 3.37108,-2.14563848 6.32709,-1.86160518 3.61616,0.3474686 6.97689,3.7049623 7.4155,7.4083565 0.76546,6.4631488 -6.01165,10.8429808 -12.04434,7.7838768 z m 28.62084,0.140528 c -2.78008,-1.323371 -4.04098,-3.318491 -4.23183,-6.6960557 -0.10519,-1.861571 0.0311,-2.9278861 0.50077,-3.917617 2.34366,-4.9388816 8.62607,-6.3501251 12.83028,-2.88211791 4.28798,3.53712271 4.08986,9.88488231 -0.40708,13.04214461 -2.30499,1.618321 -5.8561,1.803653 -8.69214,0.453646 z"
       id="path245" /></g></svg>
