<?xml version="1.0" encoding="UTF-8" standalone="no"?>
<!-- Created with Inkscape (http://www.inkscape.org/) -->

<svg
   version="1.1"
   id="svg1"
   width="29.799269"
   height="44.304157"
   viewBox="0 0 29.799269 44.304157"
   sodipodi:docname="up.svg"
   inkscape:version="1.2.2 (732a01da63, 2022-12-09)"
   xml:space="preserve"
   xmlns:inkscape="http://www.inkscape.org/namespaces/inkscape"
   xmlns:sodipodi="http://sodipodi.sourceforge.net/DTD/sodipodi-0.dtd"
   xmlns="http://www.w3.org/2000/svg"
   xmlns:svg="http://www.w3.org/2000/svg"><defs
     id="defs1"><inkscape:path-effect
       effect="fillet_chamfer"
       id="path-effect1156"
       nodesatellites_param="F,0,0,1,0,0,0,1 @ F,0,0,1,0,0,0,1 @ F,0,0,1,0,0,0,1 @ F,0,0,1,0,0,0,1 @ F,0,0,1,0,0,0,1 @ F,0,0,1,0,0,0,1 @ F,0,0,1,0,0,0,1 @ F,0,0,1,0,0,0,1 @ F,0,0,1,0,0,0,1 @ F,0,0,1,0,0,0,1 @ F,0,0,1,0,0,0,1 @ F,0,0,1,0,0,0,1 @ F,0,0,1,0,0,0,1 @ F,0,0,1,0,0,0,1 @ F,0,0,1,0,0,0,1 @ F,0,0,1,0,0,0,1 @ F,0,0,1,0,0,0,1 @ F,0,0,1,0,0,0,1 @ F,0,0,1,0,0,0,1 @ F,0,0,1,0,0,0,1 @ F,0,0,1,0,0,0,1 @ F,0,0,1,0,0,0,1 @ F,0,0,1,0,0,0,1 @ F,0,0,1,0,0,0,1 @ F,0,0,1,0,0,0,1 @ F,0,0,1,0,0,0,1 @ F,0,0,1,0,0,0,1 @ F,0,0,1,0,0,0,1 @ F,0,0,1,0,0,0,1 @ F,0,0,1,0,0,0,1 @ F,0,0,1,0,0,0,1 @ F,0,0,1,0,0,0,1 @ F,0,0,1,0,0,0,1 @ F,0,0,1,0,0,0,1 @ F,0,0,1,0,0,0,1 @ F,0,0,1,0,0,0,1 @ F,0,0,1,0,0,0,1 @ F,0,0,1,0,0,0,1 @ F,0,0,1,0,0,0,1 @ F,0,0,1,0,0,0,1 @ F,0,0,1,0,0,0,1 @ F,0,0,1,0,0,0,1 | F,0,0,1,0,0,0,1 @ F,0,0,1,0,0,0,1 @ F,0,0,1,0,0,0,1 @ F,0,0,1,0,0,0,1 @ F,0,0,1,0,0,0,1 @ F,0,0,1,0,0,0,1 @ F,0,0,1,0,0,0,1 @ F,0,0,1,0,0,0,1 @ F,0,0,1,0,0,0,1 @ F,0,0,1,0,0,0,1 @ F,0,0,1,0,0,0,1 @ F,0,0,1,0,0,0,1 @ F,0,0,1,0,0,0,1 @ F,0,0,1,0,0,0,1 @ F,0,0,1,0,0,0,1 @ F,0,0,1,0,0,0,1 @ F,0,0,1,0,0,0,1 @ F,0,0,1,0,0,0,1 @ F,0,0,1,0,0,0,1 @ F,0,0,1,0,0,0,1 | F,0,0,1,0,0,0,1 @ F,0,0,1,0,0,0,1 @ F,0,0,1,0,0,0,1 | F,0,0,1,0,0,0,1 @ F,0,0,1,0,0,0,1 @ F,0,0,1,0,0,0,1"
       is_visible="true"
       lpeversion="1"
       unit="px"
       method="auto"
       mode="F"
       radius="0"
       chamfer_steps="1"
       flexible="false"
       use_knot_distance="true"
       apply_no_radius="true"
       apply_with_radius="true"
       only_selected="false"
       hide_knots="false" /></defs><sodipodi:namedview
     id="namedview1"
     pagecolor="#ffffff"
     bordercolor="#cccccc"
     borderopacity="1"
     inkscape:showpageshadow="0"
     inkscape:pageopacity="1"
     inkscape:pagecheckerboard="0"
     inkscape:deskcolor="#d1d1d1"
     showgrid="false"
     inkscape:zoom="10.24"
     inkscape:cx="10.888672"
     inkscape:cy="22.900391"
     inkscape:window-width="1124"
     inkscape:window-height="728"
     inkscape:window-x="0"
     inkscape:window-y="40"
     inkscape:window-maximized="0"
     inkscape:current-layer="g1" /><g
     inkscape:groupmode="layer"
     inkscape:label="Image"
     id="g1"
     transform="translate(59.213323,-128.54053)"><path
       id="path1366"
       style="fill:#999999;fill-opacity:1;stroke-width:0.175214"
       d="m -44.187937,128.54053 c -7.400471,0 -13.762659,8.49844 -14.934181,16.88056 -0.120798,1.15508 -0.110906,1.99553 -0.03257,2.65652 h -0.02606 l 0.07492,2.80148 c 0.08215,3.09371 0.29021,4.24435 1.130366,6.2219 0.548576,1.29124 1.489669,2.93842 2.060393,3.60772 0.22422,0.26295 0.407192,0.52673 0.407192,0.58636 0,0.12978 2.347758,2.52276 4.159876,4.24131 3.154175,2.99133 4.45927,4.86226 4.988919,7.18613 h 0.117272 c -8.34e-4,0.005 -7.48e-4,0.01 -0.0017,0.0147 -0.0064,0.0369 -0.01765,0.0709 -0.02443,0.10749 h 3.87484 c -0.006,-0.04 -0.006,-0.0818 -0.0114,-0.12215 h 0.08632 c 0.06548,-0.32103 0.143411,-0.63426 0.247573,-0.92189 0.62144,-1.71601 1.780565,-3.27408 4.124042,-5.54595 5.22994,-5.07014 6.148387,-6.20314 7.311543,-9.01361 0.947998,-2.29061 1.054681,-2.87052 1.136882,-6.14372 l 0.07655,-3.01974 h -0.0033 c 0.03512,-0.21215 -0.02649,-0.28358 -0.03257,-0.4642 -0.318696,-9.43442 -6.696719,-19.07288 -14.730586,-19.07288 z m 12.427507,28.22493 c -0.589164,1.34419 -1.397187,2.68808 -2.358457,3.89438 -0.449322,0.56387 -1.659322,1.81157 -2.689097,2.77217 -3.242441,3.02463 -4.231558,4.09511 -5.243008,5.67626 -0.02774,0.0434 -0.06082,0.11167 -0.08958,0.15962 0.0044,-0.0128 0.0085,-0.0264 0.01303,-0.0391 0.728584,-2.04095 1.936734,-3.66701 4.596386,-6.18607 3.402057,-3.22223 4.79871,-4.67987 5.770728,-6.27728 z m -24.986944,0.0538 c 0.482857,0.71553 1.109294,1.55142 1.677633,2.20372 0.600728,0.68947 2.159622,2.26187 3.464391,3.49371 2.788997,2.6331 3.98777,4.11465 4.721801,5.83751 0.104743,0.24583 0.194775,0.47571 0.276891,0.6971 -0.180459,-0.28764 -0.368719,-0.57357 -0.574956,-0.85184 -0.826828,-1.1156 -3.130905,-3.50277 -4.672937,-4.8407 -1.184375,-1.0276 -3.283769,-3.44254 -3.79829,-4.36998 -0.445624,-0.80326 -0.79964,-1.5074 -1.094533,-2.16952 z" /><path
       id="path1353"
       style="fill:#e6e6e6;fill-opacity:1;stroke-width:0.13341;opacity:0.45"
       d="m -30.353188,152.06535 -1.301836,2.02619 h -0.0018 c -0.06971,0.2074 -0.163906,0.42889 -0.293417,0.72806 -0.401992,0.92859 -0.641003,1.26312 -1.559842,2.16952 -1.155623,1.13997 -2.051121,1.65193 -3.362511,1.92357 -0.877232,0.18172 -2.482619,0.0464 -3.541262,-0.29806 -1.278359,-0.41595 -2.995514,-1.31219 -4.114609,-2.14834 -1.504564,-1.12418 -2.948145,-1.84272 -4.473792,-2.22654 -0.896504,-0.22552 -2.799298,-0.26059 -3.839739,-0.07 -0.798509,0.14627 -2.427055,0.80503 -3.133174,1.26718 l -0.473854,0.3111 -0.903865,0.64174 c 0.265931,0.85517 0.560859,1.63625 0.694762,1.76558 0.07632,0.0737 0.138277,0.21669 0.138277,0.31761 0,0.32948 1.267319,2.13581 2.308565,3.29011 0.560279,0.62112 2.014065,2.0371 3.23098,3.14679 2.601206,2.372 3.720048,3.70727 4.404654,5.25929 0.441218,1.00023 0.662125,1.74572 0.704881,2.50504 h 3.404669 c 0.03261,-0.61757 0.140333,-1.21289 0.327144,-1.71834 0.679521,-1.83857 1.806043,-3.30436 4.286614,-5.57365 4.371804,-3.99941 5.204054,-4.97727 6.321994,-7.43044 0.88381,-1.93945 1.088819,-2.9384 1.171989,-5.71373 z m -4.163366,-11.39897 a 9.7971363,11.013578 0 0 1 -9.797136,11.01358 9.7971363,11.013578 0 0 1 -9.797136,-11.01358 9.7971363,11.013578 0 0 1 9.797136,-11.01358 9.7971363,11.013578 0 0 1 9.797136,11.01358 z" /><path
       id="secondary"
       d="m -41.541097,137.913 -2.096587,-3.43625 a 0.80336512,0.90311332 0 0 0 -1.352004,0 l -2.096588,3.43625 a 0.9797136,1.1013578 0 0 0 0.676001,1.65202 h 1.116872 v 6.60815 a 0.9797145,1.1013588 0 0 0 1.959429,0 v -6.60815 h 1.116873 a 0.9797136,1.1013578 0 0 0 0.676004,-1.65202 z"
       style="fill:#ffffff;fill-opacity:1;stroke-width:1.03876;opacity:1" /></g></svg>
