<?xml version="1.0" encoding="UTF-8" standalone="no"?>
<!-- Created with Inkscape (http://www.inkscape.org/) -->

<svg
   version="1.1"
   id="svg1"
   width="316.09857"
   height="357.65591"
   viewBox="0 0 316.09857 357.65591"
   sodipodi:docname="clock.svg"
   inkscape:version="1.2.2 (732a01da63, 2022-12-09)"
   xml:space="preserve"
   xmlns:inkscape="http://www.inkscape.org/namespaces/inkscape"
   xmlns:sodipodi="http://sodipodi.sourceforge.net/DTD/sodipodi-0.dtd"
   xmlns="http://www.w3.org/2000/svg"
   xmlns:svg="http://www.w3.org/2000/svg"><defs
     id="defs1" /><sodipodi:namedview
     id="namedview1"
     pagecolor="#ffffff"
     bordercolor="#cccccc"
     borderopacity="1"
     inkscape:showpageshadow="0"
     inkscape:pageopacity="1"
     inkscape:pagecheckerboard="0"
     inkscape:deskcolor="#d1d1d1"
     showgrid="false"
     inkscape:zoom="0.97403959"
     inkscape:cx="35.932831"
     inkscape:cy="173.50424"
     inkscape:window-width="1366"
     inkscape:window-height="705"
     inkscape:window-x="-8"
     inkscape:window-y="32"
     inkscape:window-maximized="1"
     inkscape:current-layer="g1" /><g
     inkscape:groupmode="layer"
     inkscape:label="Image"
     id="g1"
     transform="translate(-199.12567,5.4110742)"><path
       style="fill:#2d2d2f;fill-opacity:1"
       d="m 260.63852,351.77678 c -1.74006,-0.46008 -1.34432,-2.04799 4.95663,-19.88857 3.76622,-10.66372 6.8428,-19.88872 6.83686,-20.5 -0.006,-0.61129 -3.58048,-4.86838 -7.94339,-9.46021 -17.4183,-18.33219 -28.29474,-39.1349 -33.80212,-64.65122 -2.44579,-11.33164 -2.39698,-37.86571 0.0911,-49.5 5.79429,-27.09457 18.72473,-50.42616 38.12231,-68.78759 19.79985,-18.7422 43.50772,-30.019475 71.61214,-34.064185 12.39854,-1.78436 12.43245,-1.79661 13.0625,-4.71862 0.83549,-3.87482 1.0358,-23.82956 0.25951,-25.85253 -0.33483,-0.87258 -2.15466,-2.32006 -4.04405,-3.21663 -4.02838,-1.9116 -6.64496,-6.32568 -5.78376,-9.75699 2.54411,-10.13653 20.38581,-9.61035 21.24386,0.62651 0.36686,4.37669 -2.04029,8.53943 -5.42996,9.39018 -1.30751,0.32817 -2.37721,0.66038 -2.37712,0.73826 10e-5,0.0779 0.6751,3.66868 1.5,7.97956 0.82491,4.31088 1.49983,11.1875 1.49983,15.28138 0,5.09428 0.3945,7.5581 1.25,7.80678 0.6875,0.19985 6.69347,1.08082 13.34661,1.95773 52.95582,6.97973 95.79502,46.193805 108.18736,99.032345 2.25824,9.62868 2.60124,13.31562 2.61268,28.0838 0.01,12.54825 -0.4515,19.16517 -1.76129,25.26818 -5.3798,25.06734 -16.51667,46.248 -34.03621,64.73182 -4.17046,4.4 -7.56231,8.675 -7.53745,9.5 0.0249,0.825 3.10994,10.05 6.85573,20.5 3.74579,10.45 6.75573,19.07851 6.68876,19.17446 -0.067,0.096 -4.16827,0.31377 -9.11398,0.48404 l -8.99221,0.30957 -8.12916,-8.48403 c -4.47103,-4.66622 -9.38102,-9.98514 -10.91107,-11.81983 -3.21478,-3.85482 -2.94605,-3.87643 -16.29152,1.30993 -15.36124,5.96973 -26.17805,7.88947 -44.66825,7.92758 -20.62367,0.0425 -34.84276,-2.91398 -55.33077,-11.50458 l -3.33076,-1.39659 -4.54494,4.99973 c -2.49972,2.74984 -7.49088,8.07375 -11.09147,11.83089 l -6.54653,6.83118 -7.28439,0.16882 c -4.00642,0.0929 -8.13537,-0.0562 -9.17544,-0.33117 z m 117.51884,-29.912 c 39.06045,-7.63211 70.62875,-34.56615 83.84133,-71.53331 13.84463,-38.73559 5.34223,-82.02403 -22.05573,-112.29284 -16.66041,-18.40613 -41.49979,-31.81286 -65.42221,-35.31078 -12.95086,-1.89367 -34.46751,-0.7383 -45.97117,2.46849 -38.57407,10.753 -68.4607,40.75649 -78.79584,79.10392 -2.43255,9.02572 -2.69462,11.69198 -2.74986,27.97652 -0.0538,15.86472 0.22025,19.06764 2.31032,27 9.73855,36.96028 35.61854,65.56233 70.65281,78.08406 5.21691,1.86459 12.97066,4.02193 17.23055,4.79409 11.60681,2.10386 29.35076,1.97816 40.9598,-0.29015 z m -27.61854,-6.29231 c 0.0528,-1.26263 0.61618,-4.54569 1.25197,-7.29569 1.14146,-4.9372 1.20831,-5.00381 5.322,-5.30349 l 4.16603,-0.30349 1.15043,5.80349 c 0.63275,3.19192 1.23215,6.47849 1.33201,7.30349 0.14262,1.17827 -1.26622,1.56342 -6.56844,1.79569 -6.48227,0.28396 -6.74619,0.20463 -6.654,-2 z m -64.5733,-28.77265 c -2.69617,-2.73732 -4.70425,-5.15788 -4.46241,-5.37902 0.24184,-0.22113 2.9668,-2.00669 6.05546,-3.96789 l 5.61574,-3.56583 2.63426,2.74957 c 1.44884,1.51226 2.63425,3.06937 2.63425,3.46023 0,0.61627 -7.03718,11.6799 -7.42917,11.6799 -0.0803,0 -2.35197,-2.23963 -5.04813,-4.97696 z m 135.02066,-1.65559 -3.7398,-5.63255 3.04462,-3.04462 3.04462,-3.04462 5.5536,3.68739 c 3.05448,2.02806 5.5536,4.00325 5.5536,4.38931 0,0.89154 -8.19537,9.27764 -9.06663,9.27764 -0.35761,0 -2.33312,-2.53465 -4.39001,-5.63255 z m -67.752,-56.35586 c -7.58364,-2.28604 -11.79136,-8.41404 -11.79136,-17.17259 v -5.35874 l -19,-18.98026 c -15.24447,-15.22863 -19,-19.51143 -19,-21.66755 0,-3.0804 4.06082,-6.83245 7.39473,-6.83245 1.42614,0 8.36716,6.24864 21.10527,19 l 18.98026,19 h 6.51722 6.51723 l 25.48529,-25.5 c 20.69736,-20.7093 25.99113,-25.5 28.17779,-25.5 2.00052,0 3.41593,-1.02253 5.50736,-3.97865 1.54817,-2.18826 3.21156,-3.98826 3.69643,-4 0.48487,-0.0117 2.88445,1.98152 5.33241,4.42948 l 4.45083,4.45083 -4.08549,2.79917 c -2.24702,1.53954 -16.3466,15.10374 -31.33241,30.14267 -26.48377,26.57765 -27.2394,27.44591 -26.97847,31 0.59599,8.11776 -4.84679,15.97324 -12.5495,18.11249 -4.23108,1.17509 -4.7035,1.17821 -8.42759,0.0556 z M 252.44282,211.70939 c 0,-6.26001 0.19992,-7.00866 1.75,-6.55332 0.9625,0.28274 3.55,0.8223 5.75,1.19902 6.53483,1.11899 7.65357,2.06857 7.30647,6.20164 -0.30229,3.59936 -0.38833,3.66609 -6.30647,4.89096 -8.9783,1.85824 -8.5,2.18113 -8.5,-5.7383 z m 199.5,5.65012 c -4.91988,-1.16079 -5.00486,-1.24567 -5.30338,-5.29688 -0.32716,-4.44003 -0.2926,-4.46942 6.80338,-5.78585 1.925,-0.35712 4.2875,-0.87104 5.25,-1.14204 1.54807,-0.43588 1.75,0.32277 1.75,6.57465 0,7.95646 0.33407,7.7344 -8.5,5.65012 z m -170,-66.26565 c -2.75,-1.91232 -5.11722,-3.79265 -5.2605,-4.17851 -0.14327,-0.38585 1.74792,-2.67266 4.20266,-5.0818 5.11669,-5.02165 5.72231,-4.86458 10.10971,2.62195 l 2.64246,4.50901 -2.78426,2.90614 c -1.53134,1.59837 -3.03756,2.85979 -3.34716,2.80315 -0.3096,-0.0566 -2.81291,-1.66761 -5.56291,-3.57994 z m 70.1544,-32.06708 c -0.33067,-2.0625 -0.89443,-5.2125 -1.25281,-7 l -0.65159,-3.25 h 7.09362 c 5.22665,0 6.98582,0.32899 6.68405,1.25 -0.22526,0.6875 -0.91804,3.8375 -1.53951,7 l -1.12996,5.75 h -4.30129 c -4.19683,0 -4.31589,-0.0911 -4.90251,-3.75 z m -144.29124,19.6018 c -3.59136,-6.7118 -5.14333,-10.63735 -6.8895,-17.42625 -2.36582,-9.19804 -2.3911,-23.962195 -0.0547,-31.925555 4.04558,-13.78866 14.48603,-28.5169 26.9372,-38 3.61071,-2.75 6.43668,-5.43797 6.27994,-5.97327 -0.15674,-0.53531 -1.63804,-1.04133 -3.29179,-1.1245 -4.19532,-0.21099 -7.12402,-1.99303 -9.39411,-5.71605 -3.71352,-6.0903 -1.62783,-12.73306 5.08841,-16.20616 3.95269,-2.04402 7.21874,-1.852 10.34648,0.60828 5.09098,4.00456 6.8554,10.09496 4.45244,15.36887 -0.63934,1.40321 -0.94904,2.76468 -0.68822,3.0255 0.26082,0.26083 3.94661,-1.2702 8.19064,-3.40228 10.03887,-5.04322 21.45196,-8.08039 30.36461,-8.08039 h 7.06835 l 0.71063,-4.75 c 1.53334,-10.24917 5.37632,-19.90168 9.92354,-24.92521997 l 4.36731,-4.82478503 50.87212,-0.5 c 27.97967,-0.275 52.78279,-0.244434 55.11804,0.06792 9.05719,1.211465 15.78221,12.180435 19.73068,32.182075 0.52869,2.67816 0.72106,2.75 7.36386,2.75 8.85037,0 19.85558,2.8651 31.13477,8.10564 4.96962,2.30898 9.24919,3.98464 9.51016,3.72368 0.26096,-0.26097 -0.27352,-2.37869 -1.18773,-4.70605 -1.60338,-4.0818 -1.58478,-4.39094 0.52555,-8.73463 3.86401,-7.9533 12.0749,-9.19917 18.47134,-2.80274 3.69364,3.69365 4.1243,6.87894 1.62741,12.03682 -2.2501,4.64809 -6.07234,7.37728 -10.33191,7.37728 -3.6274,0 -3.9912,1.5223 -0.85009,3.5572 5.52563,3.57967 17.64445,16.12568 21.95514,22.72906 8.90835,13.64634 12.05085,29.899165 8.84251,45.732935 -1.91897,9.4705 -6.37028,20.83014 -8.75075,22.3317 -3.69958,2.33364 -23.21124,-4.61224 -42.89645,-15.27054 -42.30068,-22.90314 -83.87557,-55.017145 -83.9053,-64.811615 -0.007,-2.42223 13.39035,-15.37171 20.37759,-19.69584 3.91527,-2.423 10.26867,-5.45288 14.11867,-6.73306 3.85,-1.28018 7.16297,-2.41832 7.36215,-2.5292 0.83353,-0.46402 -2.15873,-14.12928 -4.06331,-18.55661 -1.13574,-2.6401 -3.38963,-5.9148 -5.00864,-7.27711 l -2.94365,-2.47692 h -50.47294 c -56.58636,0 -54.37136,-0.27339 -58.78272,7.25557 -2.66196,4.54324 -5.59089,14.43142 -5.59089,18.87508 0,2.25011 0.55198,2.82733 3.25,3.39863 4.92729,1.04335 12.62929,4.44862 18.68587,8.26153 5.66989,3.56949 16.57414,13.42513 18.18625,16.43739 6.83598,12.77314 -88.04434,80.588705 -119.31115,85.277455 -4.52993,0.6793 -4.70226,0.60838 -6.44781,-2.65384 z"
       id="path245" /></g></svg>