<?xml version="1.0" encoding="UTF-8" standalone="no"?>
<!-- Created with Inkscape (http://www.inkscape.org/) -->

<svg
   version="1.1"
   id="svg1"
   width="300"
   height="350"
   viewBox="0 0 300 350"
   sodipodi:docname="avtseven.svg"
   inkscape:version="1.2.2 (732a01da63, 2022-12-09)"
   xml:space="preserve"
   xmlns:inkscape="http://www.inkscape.org/namespaces/inkscape"
   xmlns:sodipodi="http://sodipodi.sourceforge.net/DTD/sodipodi-0.dtd"
   xmlns="http://www.w3.org/2000/svg"
   xmlns:svg="http://www.w3.org/2000/svg"><defs
     id="defs1" /><sodipodi:namedview
     id="namedview1"
     pagecolor="#ffffff"
     bordercolor="#cccccc"
     borderopacity="1"
     inkscape:showpageshadow="0"
     inkscape:pageopacity="1"
     inkscape:pagecheckerboard="0"
     inkscape:deskcolor="#d1d1d1"
     showgrid="false"
     inkscape:zoom="0.1721875"
     inkscape:cx="-589.47368"
     inkscape:cy="-365.88022"
     inkscape:window-width="1366"
     inkscape:window-height="705"
     inkscape:window-x="-8"
     inkscape:window-y="-8"
     inkscape:window-maximized="1"
     inkscape:current-layer="g1" /><g
     inkscape:groupmode="layer"
     inkscape:label="Image"
     id="g1"
     transform="translate(-731.76044,-17.422869)"><path
       style="fill:#000000;stroke-width:0.262177"
       d="m 891.07462,343.2702 c -0.93728,-1.72648 -1.81729,-3.10213 -1.95555,-3.05699 -0.13825,0.0452 -0.72819,0.78111 -1.31091,1.63549 -2.12038,3.10894 -3.8146,4.30906 -6.08328,4.30906 -1.47808,0 -2.85084,-0.7042 -4.17319,-2.14086 -1.45475,-1.5805 -2.29993,-2.86824 -5.04756,-7.69077 -1.31451,-2.30716 -2.48695,-4.35998 -2.60541,-4.5618 -0.16179,-0.27552 -0.49203,-0.0141 -1.32498,1.04871 -0.61021,0.77861 -1.59675,2.03625 -2.19226,2.79474 -2.00574,2.55471 -4.26487,3.53895 -6.96048,3.03255 -0.89062,-0.16731 -1.24071,-0.35412 -1.21888,-0.65029 0.017,-0.22855 0.99022,-1.89693 2.16301,-3.70753 1.17272,-1.81059 2.13226,-3.42246 2.13226,-3.58191 0,-0.71472 -0.86305,-0.47777 -2.39965,0.65882 -3.55238,2.6277 -5.78614,2.87412 -9.52943,1.05129 l -2.09741,-1.02137 -3.2772,0.0199 c -1.80252,0.011 -5.07639,0.10179 -7.27544,0.20195 -3.93754,0.1793 -3.99818,0.17377 -3.99818,-0.36529 0,-0.3315 1.55498,-2.32008 3.94291,-5.04253 3.75113,-4.27652 3.92162,-4.51871 3.50437,-4.97975 -0.24124,-0.26657 -0.57028,-0.40704 -0.73129,-0.31219 -0.16095,0.0948 -1.12537,0.73589 -2.14315,1.42455 -3.02981,2.05008 -4.39832,2.57999 -6.67024,2.58271 -2.80984,0.003 -4.58798,-0.8778 -6.83403,-3.38657 -0.92766,-1.03626 -2.09967,-2.09884 -2.60436,-2.36127 -1.40682,-0.73158 -5.27212,-1.59034 -7.15797,-1.59034 -0.92977,0 -2.05307,-0.0725 -2.49622,-0.16116 l -0.80574,-0.16114 0.64187,-1.7053 c 0.35304,-0.93791 0.64189,-1.84491 0.64189,-2.01556 0,-0.17065 -0.58991,-0.52239 -1.3109,-0.78166 -0.72098,-0.25927 -1.31088,-0.55527 -1.31088,-0.65778 0,-0.10257 1.76644,-2.82552 3.92544,-6.05112 3.01199,-4.50002 3.85865,-5.94519 3.6384,-6.2106 -0.15791,-0.19023 -0.38382,-0.34588 -0.50207,-0.34588 -0.11826,0 -1.09794,1.09773 -2.177,2.43942 -3.5051,4.3579 -5.7609,5.94889 -8.42415,5.94145 -1.45951,-0.004 -3.78185,-0.85376 -5.40168,-1.97629 -0.56713,-0.39302 -1.06875,-0.66758 -1.11468,-0.61011 -0.0459,0.0575 -0.46795,0.78737 -0.9378,1.62198 l -0.85429,1.51748 -0.82463,-0.52213 c -0.98857,-0.62591 -1.74843,-1.94729 -1.74416,-3.0331 10e-4,-0.43483 0.29814,-1.97041 0.65875,-3.41238 0.88499,-3.53884 0.61114,-4.63911 -1.54306,-6.19959 -1.22061,-0.88422 -1.9252,-0.93207 -3.31137,-0.2249 -1.11183,0.56722 -4.89678,1.48625 -5.13595,1.2471 -0.0808,-0.0808 0.0973,-0.96738 0.39593,-1.97008 0.29861,-1.00269 0.54293,-1.95782 0.54293,-2.12253 0,-0.19982 -0.71962,-0.30138 -2.16296,-0.30523 -1.60192,-0.004 -2.46897,-0.14379 -3.34276,-0.53796 -1.35713,-0.61223 -3.67046,-2.76534 -3.67046,-3.41625 0,-0.24217 0.50694,-1.01347 1.12654,-1.71401 3.71347,-4.19852 6.2144,-7.80504 6.2144,-8.9616 0,-0.65414 -0.93567,-2.40595 -1.28508,-2.40595 -0.49887,0 -2.50841,-2.05111 -2.93959,-3.00041 -0.64569,-1.42151 -0.63638,-4.12733 0.0295,-8.57485 0.2882,-1.92495 0.76395,-5.09264 1.05725,-7.0393 1.81452,-12.04382 1.80451,-11.81844 0.63386,-14.29301 -0.65472,-1.38394 -0.70037,-1.69002 -0.57636,-3.8647 0.11857,-2.07965 0.25578,-2.60025 1.14875,-4.35878 0.83652,-1.64737 1.24363,-2.14303 2.32497,-2.8308 0.72099,-0.45855 1.8418,-1.17241 2.49069,-1.58633 1.55149,-0.98967 3.17157,-3.42175 4.0636,-6.10028 0.39035,-1.17208 0.66804,-2.16629 0.6171,-2.20936 -0.051,-0.0431 -1.68534,0.61203 -3.63199,1.45577 -4.95332,2.14692 -6.37242,2.08315 -6.33974,-0.28489 0.011,-0.79818 0.72136,-2.40954 3.04597,-6.90951 1.66737,-3.22772 3.03158,-6.04795 3.03158,-6.26717 0,-0.23658 -0.63937,-0.67589 -1.57305,-1.08081 -1.83979,-0.79789 -1.77686,-0.48845 -1.03573,-5.093 0.29555,-1.83614 0.64746,-4.16428 0.78206,-5.17366 0.13458,-1.00939 0.54158,-3.8409 0.90443,-6.29225 0.75205,-5.0808 0.84183,-4.75899 -1.54186,-5.52731 -1.96834,-0.63444 -2.51721,-1.05069 -2.51721,-1.90901 0,-0.4063 0.77343,-2.23269 1.71874,-4.05865 1.70635,-3.29603 1.71436,-3.32153 1.11425,-3.54319 -4.32023,-1.59573 -5.36533,-2.07038 -6.11456,-2.77701 -0.83462,-0.78715 -1.56093,-2.60482 -1.38749,-3.47233 0.0445,-0.22273 0.93482,-0.89222 1.97842,-1.48777 4.00882,-2.28773 4.90681,-3.12543 6.32398,-5.89938 3.08785,-6.04413 4.80925,-12.49411 5.93009,-22.21966 0.90372,-7.84164 3.10277,-13.69148 7.00484,-18.63405 2.16174,-2.73819 5.90264,-5.77599 9.14126,-7.42318 1.55619,-0.79148 3.39213,-1.26037 3.39213,-0.86634 0,0.13095 -0.47194,1.64279 -1.04873,3.35965 -0.57679,1.71686 -1.04871,3.32379 -1.04871,3.57097 0,0.29109 0.41562,0.60812 1.1798,0.89997 0.64889,0.24781 1.17982,0.53789 1.17982,0.64461 0,0.10677 -0.76689,1.58456 -1.70418,3.28408 -0.93728,1.69951 -1.70415,3.16464 -1.70415,3.25584 0,0.34641 2.63676,2.15861 2.94938,2.02705 0.18031,-0.0759 1.62558,-1.07934 3.21181,-2.22987 1.58615,-1.15055 2.92166,-2.05635 2.96782,-2.0129 0.0459,0.0435 -0.23213,1.27709 -0.61835,2.7414 -0.38622,1.46429 -0.63396,2.73064 -0.55049,2.81407 0.0834,0.0835 0.93762,-0.36034 1.89822,-0.98621 l 1.74661,-1.13791 0.5953,0.74661 c 0.32741,0.41064 0.75427,0.68498 0.94858,0.60966 0.19431,-0.0753 1.57477,-1.09518 3.06784,-2.26634 1.49299,-1.17117 2.79074,-2.12967 2.8839,-2.13001 0.0932,-2.6e-4 0.13819,0.91401 0.10003,2.03188 l -0.0692,2.03247 0.80403,-0.91761 c 0.4422,-0.5047 2.17883,-2.68732 3.85914,-4.85027 4.3938,-5.65575 5.38373,-6.76143 7.35142,-8.21092 3.06106,-2.25481 5.47202,-3.20612 9.75647,-3.84964 2.99304,-0.44954 3.18629,-0.53226 6.84455,-2.92917 3.90713,-2.56001 5.86063,-3.31159 8.62112,-3.31696 1.45568,-0.003 2.55892,0.13857 3.18122,0.4077 0.94717,0.40961 0.95147,0.41876 0.73242,1.55238 -0.12114,0.62719 -0.22548,1.49262 -0.23176,1.92319 l -0.0113,0.78284 0.58986,-0.83051 c 1.04195,-1.46687 1.8216,-1.75394 4.09882,-1.50914 2.58648,0.27807 3.4771,0.27878 10.43206,0.009 l 5.81349,-0.22607 0.61128,-0.94611 c 1.34795,-2.08637 3.46747,-1.76043 10.64163,1.63638 5.14163,2.43443 6.40772,2.89682 9.10574,3.32534 2.62902,0.41758 4.93559,1.18334 7.34092,2.43721 2.91755,1.52084 6.22182,4.8645 10.37353,10.49702 4.67115,6.33726 4.20161,5.97357 4.11734,3.18898 -0.085,-2.80805 0.30098,-3.17849 1.40548,-1.34915 0.76509,1.26723 0.85416,1.30984 6.08841,2.91255 1.70943,0.52341 3.16713,0.89247 3.23945,0.82013 0.0729,-0.0723 -0.0541,-1.04122 -0.28066,-2.15308 -0.39514,-1.93785 -0.38035,-2.46713 0.0696,-2.46713 0.11339,0 1.41376,0.88978 2.88968,1.97727 2.93396,2.16173 3.20346,2.21599 4.33392,0.87255 0.99719,-1.18514 0.86967,-2.11338 -0.6439,-4.68506 -0.72096,-1.22501 -1.31097,-2.37657 -1.31097,-2.55903 0,-0.18245 0.53095,-0.58966 1.17981,-0.90492 0.64886,-0.31525 1.17981,-0.65744 1.17981,-0.76041 0,-0.10301 -0.59951,-1.75519 -1.33239,-3.67157 -1.22972,-3.21582 -1.29784,-3.50962 -0.88381,-3.81235 0.54364,-0.39753 1.47956,0.0296 4.83803,2.20818 7.0125,4.5489 10.95138,9.71708 12.83514,16.84106 0.28596,1.08147 0.93912,4.44389 1.4513,7.47204 1.14525,6.77004 2.06848,10.56835 4.6064,18.95047 2.12169,7.00727 2.8633,7.99736 7.00521,9.35246 2.88439,0.94368 3.63096,2.41501 2.25363,4.44187 -0.55744,0.82038 -1.2487,1.27875 -3.65061,2.42044 -1.62971,0.77464 -3.083,1.40843 -3.22951,1.40843 -0.6928,0 -0.47287,0.75049 1.00901,3.44234 0.8816,1.60168 1.67079,3.25071 1.75348,3.66449 0.22203,1.11017 -0.45896,1.94703 -2.00123,2.45928 -2.38027,0.79063 -2.46738,1.2992 -1.45263,8.47924 0.36015,2.54812 0.78466,5.63578 0.94321,6.86146 0.15854,1.22567 0.39481,2.86956 0.52498,3.65308 0.34734,2.09116 0.37219,2.03931 -1.40194,2.92863 -0.90126,0.45177 -1.68283,0.8614 -1.73671,0.9103 -0.0541,0.0489 0.74061,1.60302 1.76574,3.4536 1.02513,1.85058 2.16464,4.10465 2.53219,5.00905 0.67801,1.66854 1.79544,5.94548 1.64837,6.30901 -0.13679,0.33814 -6.71142,-1.25306 -8.11369,-1.96368 -0.72924,-0.36959 -1.38429,-0.61381 -1.45539,-0.54271 -0.20359,0.20367 0.68773,3.04277 1.43606,4.57384 0.79604,1.62881 2.12434,2.90803 4.01374,3.86548 1.79566,0.90992 3.79469,2.9478 4.55638,4.64477 0.9442,2.1041 1.0609,3.73343 0.43942,6.13959 -1.03252,3.99844 -1.19096,6.1519 -0.72923,9.91502 0.22997,1.87456 0.71908,4.94203 1.08684,6.8166 0.82518,4.20673 1.18931,7.55428 1.21183,11.14251 0.021,3.45739 -0.40023,4.6659 -2.01692,5.77815 -1.52781,1.05121 -2.28509,2.17362 -2.28509,3.38708 0,2.29233 2.67174,6.23894 5.51328,8.14414 1.39731,0.93689 1.78617,1.3421 1.85418,1.93246 0.12443,1.08088 -0.12465,1.84436 -0.9039,2.77042 -1.0736,1.27596 -2.13505,1.58368 -5.46272,1.58368 -1.61658,0 -3.00196,0.0627 -3.07859,0.13927 -0.0762,0.0766 0.1411,0.91154 0.4837,1.85542 0.34259,0.94389 0.56285,1.81319 0.48965,1.9318 -0.0729,0.11861 -0.72361,0.35724 -1.44501,0.53033 -0.72139,0.17306 -1.31174,0.39874 -1.31174,0.50151 0,0.10279 0.34844,1.21761 0.77439,2.47744 0.87829,2.59847 0.82596,2.70977 -1.14547,2.43953 -2.09265,-0.28681 -3.94064,-1.20823 -6.94404,-3.46238 -1.64396,-1.23394 -3.07661,-2.14933 -3.18359,-2.03417 -0.10709,0.11514 -0.56098,0.90432 -1.00901,1.75378 -1.03782,1.96774 -1.04434,2.94463 -0.0287,4.22345 0.43257,0.54435 0.78653,1.19201 0.78653,1.43925 0,1.70365 -3.36686,3.88722 -6.36474,4.12785 -0.94475,0.0759 -2.0253,0.0606 -2.40124,-0.0337 -0.90732,-0.22773 -4.31658,-3.27511 -6.44037,-5.75664 -0.93724,-1.09522 -1.85528,-1.99443 -2.0401,-1.99829 -0.95137,-0.0197 -0.36831,1.10714 3.13302,6.05473 2.0666,2.92032 3.84514,5.45282 3.95246,5.62779 0.12642,0.20639 -0.26453,0.6129 -1.11323,1.15752 -1.29717,0.83238 -1.30656,0.84843 -1.13609,1.92703 0.46018,2.91036 -0.12167,3.38322 -4.23797,3.44411 -3.49803,0.0518 -4.44223,0.49272 -7.7159,3.6037 -2.78309,2.64469 -4.2758,3.54827 -6.24739,3.78179 -1.15675,0.13699 -1.34752,0.25924 -1.99011,1.27489 -0.95183,1.50456 -1.20092,1.67984 -2.97403,2.09335 -2.05316,0.47879 -10.66979,2.14272 -12.14059,2.34438 -0.64888,0.089 -1.95307,0.56526 -2.89833,1.05842 -3.61273,1.88491 -5.57295,1.76416 -8.78618,-0.54122 -1.0869,-0.77985 -2.28571,-1.49556 -2.66401,-1.59049 l -0.68768,-0.17262 0.63065,1.02316 c 0.34684,0.56275 1.4922,2.3719 2.54519,4.02038 2.19785,3.44066 2.18074,3.68752 -0.26868,3.89066 -1.19003,0.0987 -1.64595,-0.007 -2.96279,-0.68465 -0.85599,-0.44072 -1.91031,-1.04263 -2.34289,-1.33758 -1.01432,-0.69159 -1.39977,-0.67924 -1.56806,0.0502 -0.85931,3.72608 -2.224,9.14536 -2.35724,9.36092 -0.49077,0.79406 -1.1289,0.1292 -2.76022,-2.87566 z m 3.18693,-187.59942 c 0.23878,-0.71047 0.88476,-2.75175 1.4356,-4.53618 1.28849,-4.17404 1.95406,-4.5449 2.3308,-1.29885 0.0974,0.83853 0.25384,1.52217 0.34784,1.5192 0.0939,-0.003 0.70182,-1.09373 1.3507,-2.42394 1.34357,-2.75429 2.28225,-3.60073 3.9933,-3.60073 1.30688,0 4.21836,1.16191 7.5926,3.03007 1.44649,0.80083 2.6826,1.40336 2.747,1.33898 0.0644,-0.0644 -1.716,-3.78166 -3.9564,-8.2606 l -4.07338,-8.14355 -1.38188,0.40863 c -0.76,0.22476 -1.55887,0.50059 -1.77516,0.61295 -0.21629,0.11237 -1.40357,0.45589 -2.63849,0.76339 l -2.24528,0.55908 -3.25218,-0.54582 c -3.69777,-0.62064 -5.15422,-0.53044 -6.96281,0.43118 -1.44684,0.76927 -1.6786,0.77488 -3.05264,0.074 -0.95465,-0.48703 -1.33338,-0.53152 -3.07008,-0.36059 -2.13912,0.21054 -2.09395,0.21042 -12.20602,0.0335 l -6.81664,-0.11929 -2.73879,-0.94097 c -1.50635,-0.51754 -2.87657,-0.94097 -3.04486,-0.94097 -0.1683,0 -0.74791,1.26828 -1.28801,2.8184 -0.98357,2.82289 -2.33441,5.57721 -5.35404,10.91711 -0.888,1.57035 -1.56141,2.9084 -1.49631,2.97343 0.25997,0.26001 1.30137,-0.29758 3.09823,-1.65889 5.72753,-4.33919 9.17013,-3.88828 11.85881,1.55326 0.5466,1.10619 1.08931,2.01124 1.20615,2.01124 0.1958,0 0.64662,-1.85497 0.82828,-3.4083 0.0523,-0.44526 0.23828,-0.65543 0.58074,-0.65543 0.42743,0 0.69681,0.67432 1.77269,4.43816 0.69779,2.441 1.33636,4.50565 1.41905,4.58811 0.26613,0.26533 1.38364,-1.26181 1.66518,-2.27565 0.15007,-0.54051 0.27354,-2.43168 0.27439,-4.20263 0,-3.62242 0.0818,-3.76766 1.70703,-3.08865 0.53911,0.22526 1.09425,0.40957 1.23372,0.40957 0.1466,0 0.21601,-0.73464 0.16455,-1.74358 -0.0559,-1.09897 0.017,-1.78039 0.197,-1.84313 0.1572,-0.0548 0.91676,0.74898 1.68793,1.78603 1.57342,2.11592 1.66398,2.08866 1.95753,-0.58908 l 0.16137,-1.47215 2.61672,-0.29754 c 3.91329,-0.445 3.55061,-0.62165 3.76478,1.83371 0.29588,3.39138 0.38856,3.44793 1.67946,1.02512 0.61764,-1.15923 1.21831,-2.10768 1.33473,-2.10768 0.40947,0 0.77908,0.6927 0.9543,1.7885 0.0974,0.60889 0.26698,1.16264 0.37689,1.23056 0.10985,0.0679 0.69914,-0.0527 1.30942,-0.26798 0.61021,-0.21532 1.15371,-0.39148 1.20771,-0.39148 0.0537,0 0.0982,1.29044 0.0982,2.86767 0,3.69676 0.88992,7.79751 1.64023,7.55786 0.17933,-0.0573 0.52137,-0.68547 0.76013,-1.39592 z M 834.96882,92.902836 c -6.43734,-0.71139 -13.29151,-3.05582 -17.90117,-6.12297 -6.71295,-4.466657 -10.15889,-10.917189 -10.92072,-20.442757 l -0.2349,-2.937108 -1.70392,-1.573061 c -1.93293,-1.784477 -2.2736,-2.331869 -2.2736,-3.653237 0,-1.26661 0.67796,-1.869716 2.53276,-2.253098 1.96564,-0.406287 2.89675,-1.082318 3.53205,-2.564372 1.83265,-4.275414 6.06136,-8.393554 10.79528,-10.512989 4.38765,-1.964396 11.49423,-3.650057 17.74722,-4.209564 3.54694,-0.317365 47.8055,-0.325387 74.19606,-0.01343 18.60146,0.21987 18.95552,0.242325 24.46916,1.551813 3.93416,0.934366 8.7299,2.985188 11.71133,5.008138 2.33257,1.582787 4.95518,4.555238 6.36121,7.210091 1.32864,2.508642 2.21686,3.350109 3.86358,3.659974 1.83706,0.345667 2.3424,0.676766 2.66225,1.744287 0.62192,2.075942 -0.74647,4.159829 -2.73335,4.162509 -0.92963,0.0014 -1.10782,0.453473 -1.49745,3.802551 -0.62545,5.376544 -1.60487,8.898019 -3.49261,12.558195 -3.91658,7.594222 -11.02889,12.373508 -21.15644,14.216538 -3.11335,0.56657 -10.38491,0.54649 -13.50216,-0.0372 -9.17191,-1.7177 -15.8201,-6.124036 -20.95806,-13.890791 -3.82472,-5.781607 -6.01889,-12.024095 -7.58257,-21.572501 l -0.84651,-5.16954 -6.86611,-0.06991 c -8.2829,-0.08432 -7.75843,-0.304677 -8.03544,3.375958 -0.75237,9.995131 -4.35308,19.211893 -10.39353,26.60453 -4.55496,5.574547 -10.57957,9.261074 -17.52104,10.721244 -2.30318,0.48449 -7.63402,0.69602 -10.25132,0.40677 z m 53.46872,-44.250285 c 0.79378,-4.213055 1.48175,-5.215363 5.54502,-8.078833 1.15696,-0.815312 2.05995,-1.525914 2.00679,-1.579118 -0.0902,-0.09019 -0.64386,-0.0082 -4.58697,0.678943 -8.38774,1.461747 -12.76513,1.435176 -21.62157,-0.131254 -3.19626,-0.565317 -3.3758,-0.505787 -1.63124,0.54091 2.15028,1.290141 3.15774,2.331198 4.09275,4.229355 0.57381,1.164804 0.83492,2.129324 0.92285,3.408303 0.0671,0.981074 0.16858,1.931245 0.22485,2.11149 0.0787,0.251926 1.79778,0.327727 7.43292,0.327727 h 7.33059 z"
       id="path4584" /></g></svg>
