<?xml version="1.0" encoding="UTF-8" standalone="no"?>
<!-- Created with Inkscape (http://www.inkscape.org/) -->

<svg
   version="1.1"
   id="svg1"
   width="300"
   height="350"
   viewBox="0 0 300 350"
   sodipodi:docname="avtwo.svg"
   inkscape:version="1.2.2 (732a01da63, 2022-12-09)"
   xml:space="preserve"
   xmlns:inkscape="http://www.inkscape.org/namespaces/inkscape"
   xmlns:sodipodi="http://sodipodi.sourceforge.net/DTD/sodipodi-0.dtd"
   xmlns="http://www.w3.org/2000/svg"
   xmlns:svg="http://www.w3.org/2000/svg"><defs
     id="defs1" /><sodipodi:namedview
     id="namedview1"
     pagecolor="#ffffff"
     bordercolor="#cccccc"
     borderopacity="1"
     inkscape:showpageshadow="0"
     inkscape:pageopacity="1"
     inkscape:pagecheckerboard="0"
     inkscape:deskcolor="#d1d1d1"
     showgrid="false"
     inkscape:zoom="0.08609375"
     inkscape:cx="-470.41742"
     inkscape:cy="1393.8294"
     inkscape:window-width="1366"
     inkscape:window-height="705"
     inkscape:window-x="-8"
     inkscape:window-y="-8"
     inkscape:window-maximized="1"
     inkscape:current-layer="g1" /><g
     inkscape:groupmode="layer"
     inkscape:label="Image"
     id="g1"
     transform="translate(-731.76044,-17.422869)"><path
       style="fill:#000000;stroke-width:0.343859"
       d="m 876.05564,359.01611 c -7.16227,-1.28978 -13.36425,-9.16537 -16.45964,-20.9013 l -0.38511,-1.46009 -2.66161,1.86503 c -7.12476,4.99245 -13.69133,7.02033 -21.47246,6.63108 -4.08311,-0.20426 -7.34913,-0.96078 -10.80876,-2.50369 l -1.99614,-0.89023 1.25059,-0.64944 c 3.33222,-1.73048 6.09138,-5.9695 7.0043,-10.76103 0.58676,-3.07966 0.68287,-7.10481 0.16964,-7.10481 -0.18912,0 -0.34386,0.14446 -0.34386,0.32101 0,0.67317 -5.51258,6.0907 -7.27046,7.1451 -2.5213,1.51231 -5.75415,2.29817 -8.36981,2.0346 -2.61226,-0.26323 -7.06099,-2.39886 -8.86725,-4.25676 l -1.29709,-1.33417 1.42045,-1.1415 c 2.9592,-2.37808 5.24688,-7.25852 6.29425,-13.42789 0.41989,-2.47328 0.72274,-6.86162 0.58995,-8.54832 -0.0203,-0.25721 -0.7241,0.46596 -1.56412,1.60704 -4.07621,5.53715 -10.71144,8.23474 -20.99542,8.53583 l -5.50173,0.16108 1.65384,-1.44671 c 4.92784,-4.31063 8.04088,-11.4809 8.40104,-19.35015 l 0.18689,-4.08339 -2.55351,2.02918 c -3.03895,2.41494 -7.06291,4.56733 -10.61106,5.67579 -2.22477,0.69502 -3.28726,0.80544 -7.73681,0.804 -4.33937,-10e-4 -5.58709,-0.12574 -7.86257,-0.78354 -3.27775,-0.94754 -4.74921,-1.65643 -4.00055,-1.92733 3.69922,-1.33848 4.81432,-1.8867 6.94233,-3.41307 5.24778,-3.76412 9.24016,-10.56383 11.64629,-19.8357 0.54177,-2.08766 1.30135,-6.87717 1.09066,-6.87717 -0.0931,0 -1.3174,1.00537 -2.72072,2.23415 -6.59448,5.77427 -11.70946,8.01054 -17.54923,7.67248 -2.09192,-0.1211 -3.24406,-0.39994 -4.9374,-1.19496 -2.10318,-0.98743 -4.44383,-2.65472 -4.44383,-3.16543 0,-0.13102 1.1008,-1.16173 2.44621,-2.29048 5.04575,-4.23315 10.76432,-11.48506 13.76877,-17.46063 3.23175,-6.42761 5.34461,-13.82928 5.68718,-19.92307 0.1143,-2.03307 0.0909,-3.69648 -0.0521,-3.69648 -0.14296,0 -0.82377,0.44618 -1.51292,0.99152 -2.06253,1.63213 -5.58579,3.41363 -7.9479,4.01878 -3.59219,0.92027 -8.71872,0.42254 -10.56762,-1.02601 -0.0383,-0.03 1.59629,-1.75244 3.63241,-3.82765 6.97405,-7.10793 13.08864,-17.71714 19.28525,-33.46118 l 0.72478,-1.84148 -1.29872,1.02992 c -0.71431,0.56646 -1.60821,1.3748 -1.98646,1.79631 -0.37824,0.42151 -1.63991,1.44729 -2.8037,2.27951 -4.39529,3.14302 -9.39818,4.6777 -12.84153,3.93924 -1.74372,-0.37397 -3.78277,-1.24747 -3.78277,-1.6205 0,-0.10736 1.55781,-1.67641 3.46178,-3.48678 9.53755,-9.06863 15.83409,-22.11715 15.7834,-32.70842 l -0.0109,-2.276 -0.72933,1.03157 c -0.40113,0.56737 -2.00383,2.29217 -3.56155,3.83289 -2.2115,2.18736 -3.49122,3.12785 -5.83904,4.29124 -2.84479,1.40966 -3.19423,1.49684 -6.48541,1.61811 -3.40013,0.1253 -7.11079,-0.5182 -7.60569,-1.31898 -0.10199,-0.16502 0.93963,-1.02372 2.31469,-1.90824 3.36811,-2.16655 8.72541,-7.6309 10.1715,-10.37473 2.2073,-4.18818 3.27555,-9.05803 2.68155,-12.22434 l -0.22808,-1.2158 -1.9677,1.31192 c -5.89047,3.9273 -12.21528,3.64952 -18.9386,-0.8318 -2.48389,-1.65558 -6.23954,-5.0029 -6.23954,-5.56113 0,-0.19116 0.58026,-0.55296 1.28947,-0.804 2.83116,-1.00213 8.51123,-3.87086 10.56247,-5.3346 7.55604,-5.39188 11.11131,-13.85556 13.39816,-31.89579 0.46274,-3.650417 0.93811,-7.642917 1.05636,-8.872207 1.53057,-15.911027 8.16504,-35.408047 16.72364,-49.146497 2.05836,-3.30412 5.19543,-7.24628 5.76642,-7.24628 0.14161,0 0.44623,2.35972 0.67692,5.24384 1.82025,22.75687 8.25654,37.36171 18.15518,41.196717 1.56844,0.60766 2.74832,0.78285 5.44129,0.80794 3.9627,0.0369 5.7847,-0.39209 9.4561,-2.226537 4.86716,-2.43191 7.92898,-4.91153 17.021,-13.78447 9.52793,-9.29836 14.61487,-12.34687 22.31194,-13.37117 7.05654,-0.93905 14.80546,1.94933 21.17072,7.89129 1.03169,0.96308 1.88274,1.74942 1.89122,1.74741 0.009,-0.002 1.49957,-1.43332 3.31353,-3.18069 5.33,-5.13435 9.40087,-7.10614 14.70483,-7.12253 6.69169,-0.0207 11.6934,2.5498 24.63552,12.66065 9.49647,7.41902 15.14046,10.70277 21.66308,12.6039 8.0698,2.35209 14.43724,1.06404 19.42348,-3.92912 3.81371,-3.81899 6.45774,-9.85842 7.98651,-18.24261 0.59353,-3.25509 0.72803,-5.41736 0.75436,-12.12798 0.0175,-4.49165 0.11774,-8.16664 0.22256,-8.16664 0.10483,0 0.91645,0.46031 1.80357,1.02292 6.54846,4.15293 10.97783,12.21487 13.11933,23.87848 1.42045,7.73667 1.68248,12.797 1.62186,31.319547 -0.0601,18.289737 0.067,20.197037 1.65384,24.908157 1.35194,4.01307 3.62257,7.877 6.85665,11.66773 2.0083,2.35405 6.9266,6.41598 9.8113,8.10302 2.5689,1.50232 2.5691,1.61432 0.01,4.17515 -2.7409,2.74097 -7.0728,4.38277 -12.54264,4.75375 -1.41842,0.0962 -2.61659,0.1819 -2.66261,0.19042 -0.0461,0.009 0.48166,0.7505 1.17268,1.64883 2.63321,3.42315 4.89057,9.42988 6.17047,16.41924 0.5058,2.76196 0.6316,5.23164 0.6395,12.55083 0.01,5.01174 -0.115,9.84262 -0.2677,10.7353 l -0.2774,1.62305 -1.0631,-1.2108 c -0.5846,-0.66593 -1.4966,-1.43499 -2.0265,-1.70901 -0.96673,-0.49993 -3.78759,-0.68837 -4.19564,-0.28027 -0.11991,0.11988 0.39352,0.91263 1.1409,1.76169 5.54684,6.30163 9.28024,16.4849 10.83694,29.55912 0.6237,5.23908 1.0603,17.61464 0.6891,19.53738 l -0.2629,1.36226 -0.4825,-1.85523 c -0.2653,-1.02039 -0.9049,-2.64512 -1.4215,-3.61052 -1.1193,-2.0921 -5.5425,-6.58612 -7.59852,-7.72018 l -1.46319,-0.80704 1.52318,3.04212 c 5.33053,10.64625 6.68843,25.72645 3.77253,41.89811 l -0.5579,3.09473 -0.5799,-1.92924 c -0.6947,-2.31133 -2.24372,-4.65817 -3.91698,-5.9344 -1.50586,-1.14859 -4.16135,-2.51758 -5.49366,-2.83225 l -0.99495,-0.23497 0.24317,2.46819 c 0.59981,6.08656 3.13721,10.91725 8.48129,16.14655 2.66653,2.60922 7.02843,5.73802 10.44443,7.49172 1.4244,0.73128 2.5905,1.43104 2.5914,1.55502 0,0.35155 -6.1154,3.26872 -8.5176,4.06149 -7.37456,2.43383 -15.03382,2.24054 -19.94318,-0.50333 -0.84703,-0.47343 -1.63666,-0.85972 -1.75468,-0.85842 -0.11802,0.001 -0.22885,1.58735 -0.24631,3.52455 -0.0503,5.58912 -1.62765,10.27489 -4.97653,14.78355 -0.80772,1.08745 -1.5845,1.97718 -1.72626,1.97718 -0.14163,0 -0.42425,-0.777 -0.62789,-1.72669 -0.75849,-3.53681 -3.50748,-7.63903 -7.8143,-11.66114 -1.43085,-1.33631 -2.70989,-2.42965 -2.84216,-2.42965 -0.45853,0 -1.70293,3.01644 -2.12103,5.14144 -0.9314,4.73428 0.41545,12.65051 3.36061,19.7523 0.65464,1.57843 0.74368,2.08712 0.40246,2.298 -0.241,0.14895 -1.83848,0.54196 -3.54994,0.87335 -4.67042,0.90431 -12.68679,0.82439 -17.38179,-0.17332 -3.93213,-0.83558 -9.49252,-2.91229 -12.11004,-4.52286 -0.91006,-0.55997 -1.80107,-1.01811 -1.98001,-1.01811 -0.56417,0 -1.38393,3.47066 -1.3752,5.82203 0.004,1.24225 0.16701,2.95495 0.36081,3.80599 0.56999,2.50255 2.87438,6.87411 4.93255,9.35728 l 1.91316,2.30817 -2.31798,0.74125 c -3.25019,1.03935 -8.80113,1.27524 -12.2023,0.51855 -4.87006,-1.08349 -9.82788,-4.00368 -13.99123,-8.2409 l -2.21245,-2.25172 -1.09938,3.28298 c -1.90726,5.69549 -5.17716,9.6022 -9.927,11.86023 -2.00675,0.95399 -5.58723,1.90363 -5.92056,1.5703 -0.0935,-0.0935 0.0687,-0.63162 0.36044,-1.1958 1.34878,-2.60825 1.26351,-6.95108 -0.19567,-9.96559 -0.87155,-1.80052 -5.58257,-6.73136 -6.23225,-6.52304 -0.22727,0.0729 -0.83105,0.89563 -1.34175,1.82836 -2.99426,5.4687 -2.90032,15.32712 0.23385,24.54196 0.45175,1.32819 0.71011,2.48365 0.57415,2.56769 -0.5502,0.34004 -4.45064,0.48277 -5.9271,0.21689 z m 18.08269,-241.40033 c 6.35711,-0.59883 12.75304,-2.48085 18.79356,-5.5301 5.58494,-2.81928 9.23091,-5.90952 9.23091,-7.82395 0,-2.93977 -4.1326,-4.616057 -19.14654,-7.766377 -8.18113,-1.71661 -9.84378,-2.28798 -12.66038,-4.35073 -4.20076,-3.07645 -6.57883,-3.94457 -9.19821,-3.35781 -0.80399,0.1801 -3.12517,1.41162 -5.15988,2.73762 -7.10081,4.62751 -11.10506,5.96923 -19.33401,6.47832 -5.74939,0.35568 -7.98463,0.8897 -10.08124,2.408467 -3.42284,2.4795 -3.23388,6.2084 0.48849,9.63957 4.06485,3.74684 15.22496,6.7699 29.70245,8.0458 2.40934,0.21234 13.16912,-0.0856 17.36485,-0.48081 z"
       id="path3975" /></g></svg>
