<?xml version="1.0" encoding="UTF-8" standalone="no"?>
<!-- Created with Inkscape (http://www.inkscape.org/) -->

<svg
   version="1.1"
   id="svg1"
   width="98.850761"
   height="156.76869"
   viewBox="0 0 98.850762 156.76869"
   sodipodi:docname="womanav1.svg"
   inkscape:version="1.2.2 (732a01da63, 2022-12-09)"
   xml:space="preserve"
   xmlns:inkscape="http://www.inkscape.org/namespaces/inkscape"
   xmlns:sodipodi="http://sodipodi.sourceforge.net/DTD/sodipodi-0.dtd"
   xmlns="http://www.w3.org/2000/svg"
   xmlns:svg="http://www.w3.org/2000/svg"><defs
     id="defs1" /><sodipodi:namedview
     id="namedview1"
     pagecolor="#ffffff"
     bordercolor="#cccccc"
     borderopacity="1"
     inkscape:showpageshadow="0"
     inkscape:pageopacity="1"
     inkscape:pagecheckerboard="0"
     inkscape:deskcolor="#d1d1d1"
     showgrid="false"
     inkscape:zoom="1"
     inkscape:cx="-26.5"
     inkscape:cy="9"
     inkscape:window-width="1366"
     inkscape:window-height="705"
     inkscape:window-x="-8"
     inkscape:window-y="32"
     inkscape:window-maximized="1"
     inkscape:current-layer="g1" /><g
     inkscape:groupmode="layer"
     inkscape:label="Image"
     id="g1"
     transform="translate(430.21595,184.0139)"><g
       id="g3732"
       transform="translate(-467.5591,188.3671)"><path
         style="fill:#d0d0d0;fill-opacity:1;stroke-width:0.16"
         d="m 96.254384,-226.43133 c 0.155675,-0.0406 0.371675,-0.0379 0.48,0.006 0.108325,0.0438 -0.01905,0.077 -0.283045,0.0738 -0.264,-0.003 -0.35263,-0.0391 -0.196955,-0.0797 z m 39.662216,-2.44912 c 0,-0.22 0.0363,-0.31 0.0807,-0.2 0.0444,0.11 0.0444,0.29 0,0.4 -0.0444,0.11 -0.0807,0.02 -0.0807,-0.2 z m -47.385261,-5.68 c 0.20668,-0.22 0.411781,-0.4 0.455781,-0.4 0.044,0 -0.0891,0.18 -0.295781,0.4 -0.20668,0.22 -0.41178,0.4 -0.45578,0.4 -0.044,0 0.0891,-0.18 0.29578,-0.4 z m 47.372631,-7.53333 c 0.008,-0.18639 0.0456,-0.22431 0.0967,-0.0967 0.0462,0.1155 0.0405,0.2535 -0.0126,0.30667 -0.0532,0.0532 -0.091,-0.0413 -0.084,-0.21 z m -19.53263,0.0329 c 0,-0.0332 0.126,-0.15922 0.28,-0.28 0.25377,-0.19902 0.25943,-0.19336 0.0604,0.0604 -0.20902,0.26652 -0.34041,0.35128 -0.34041,0.21959 z m -32.32,-10.09959 c 0.20668,-0.22 0.41178,-0.4 0.45578,-0.4 0.044,0 -0.0891,0.18 -0.29578,0.4 -0.20668,0.22 -0.411781,0.4 -0.455781,0.4 -0.044,0 0.0891,-0.18 0.295781,-0.4 z m 40.13959,-0.68 c -0.19902,-0.25377 -0.19336,-0.25943 0.0604,-0.0604 0.154,0.12078 0.28,0.24678 0.28,0.28 0,0.13169 -0.13139,0.0469 -0.34041,-0.21959 z m -38.53959,-1.06041 c 0,-0.0332 0.126,-0.15922 0.28,-0.28 0.253769,-0.19902 0.259428,-0.19336 0.06041,0.0604 -0.209019,0.26652 -0.340409,0.35128 -0.340409,0.21959 z m 1.759999,-4.96 c 0,-0.0332 0.126,-0.15922 0.28,-0.28 0.25377,-0.19902 0.259429,-0.19336 0.06041,0.0604 -0.209019,0.26652 -0.34041,0.35128 -0.34041,0.21959 z m -29.309999,-3.08889 c 0.1155,-0.0462 0.2535,-0.0405 0.306668,0.0126 0.05317,0.0532 -0.04134,0.091 -0.21,0.084 -0.186392,-0.008 -0.224304,-0.0456 -0.09667,-0.0967 z m 35.069999,-2.5307 c 1.361871,-1.364 2.512128,-2.48 2.556128,-2.48 0.044,0 -1.034257,1.116 -2.396128,2.48 -1.36187,1.364 -2.512128,2.48 -2.556128,2.48 -0.044,0 1.034258,-1.116 2.396128,-2.48 z m 5.858095,-6.02928 c 0.04621,-0.0748 0.151041,-0.0945 0.232961,-0.0439 0.209341,0.12938 0.18577,0.17984 -0.08402,0.17984 -0.12813,0 -0.195154,-0.0612 -0.148944,-0.13595 z m -48.845591,-29.97072 c 7.04e-4,-0.616 0.02963,-0.84839 0.06426,-0.51643 0.03464,0.33196 0.03406,0.83596 -0.0013,1.12 -0.03535,0.28404 -0.06368,0.0124 -0.06297,-0.60357 z m 28.138689,-29.6 c 0.0033,-0.264 0.03912,-0.35263 0.07969,-0.19696 0.04057,0.15568 0.0379,0.37168 -0.0059,0.48 -0.04383,0.10833 -0.07702,-0.019 -0.07376,-0.28304 z m 0.47407,-4.88 c 0,-0.22 0.03632,-0.31 0.0807,-0.2 0.04438,0.11 0.04438,0.29 0,0.4 -0.04439,0.11 -0.0807,0.02 -0.0807,-0.2 z m -0.95407,-5.04 c 0.0033,-0.264 0.03912,-0.35263 0.07969,-0.19696 0.04057,0.15568 0.0379,0.37168 -0.0059,0.48 -0.04383,0.10833 -0.07702,-0.019 -0.07376,-0.28304 z m 38.828398,-19.4 c -0.19902,-0.25377 -0.19336,-0.25943 0.0604,-0.0604 0.154,0.12078 0.28,0.24678 0.28,0.28 0,0.13169 -0.13139,0.0469 -0.34041,-0.21959 z"
         id="path3748" /><path
         style="fill:#b9b9b9;fill-opacity:1;stroke-width:0.16"
         d="m 106.05134,-230.00045 c 0.15928,-0.176 0.3256,-0.32 0.3696,-0.32 0.044,0 -0.0503,0.144 -0.2096,0.32 -0.15928,0.176 -0.3256,0.32 -0.3696,0.32 -0.044,0 0.0503,-0.144 0.2096,-0.32 z m -6.947369,-11.61333 c 0.0077,-0.18639 0.04559,-0.22431 0.09667,-0.0967 0.04622,0.1155 0.04054,0.2535 -0.01262,0.30667 -0.05317,0.0532 -0.09098,-0.0413 -0.08404,-0.21 z m -38.849586,-20.17755 c 0.155675,-0.0406 0.371675,-0.0379 0.48,0.006 0.108325,0.0438 -0.01905,0.077 -0.283045,0.0738 -0.264,-0.003 -0.35263,-0.0391 -0.196955,-0.0797 z m 40.436955,-10.50953 c 0,-0.0332 0.126,-0.15922 0.28,-0.28 0.25377,-0.19902 0.25943,-0.19336 0.0604,0.0604 -0.20902,0.26652 -0.34041,0.35128 -0.34041,0.21959 z m -22.067368,-51.71292 c 0.0077,-0.18639 0.04559,-0.22431 0.09667,-0.0967 0.04622,0.1155 0.04054,0.2535 -0.01262,0.30667 -0.05317,0.0532 -0.09098,-0.0413 -0.08404,-0.21 z m 0.344488,-0.22667 c 0,-0.308 0.03293,-0.434 0.07317,-0.28 0.04024,0.154 0.04024,0.406 0,0.56 -0.04024,0.154 -0.07317,0.028 -0.07317,-0.28 z m -0.491858,-2.24 c 0,-0.22 0.03632,-0.31 0.0807,-0.2 0.04439,0.11 0.04439,0.29 0,0.4 -0.04439,0.11 -0.0807,0.02 -0.0807,-0.2 z m 0.48593,-5.84 c 0.0033,-0.264 0.03912,-0.35263 0.07969,-0.19696 0.04057,0.15568 0.0379,0.37168 -0.0059,0.48 -0.04383,0.10833 -0.07702,-0.019 -0.07376,-0.28304 z m -0.80593,-0.4 c 0,-0.22 0.03632,-0.31 0.0807,-0.2 0.04438,0.11 0.04438,0.29 0,0.4 -0.04439,0.11 -0.0807,0.02 -0.0807,-0.2 z m -30.399998,-5.6 c 0,-0.22 0.03632,-0.31 0.0807,-0.2 0.04439,0.11 0.04439,0.29 0,0.4 -0.04439,0.11 -0.0807,0.02 -0.0807,-0.2 z m 29.925928,-5.04 c 0.0033,-0.264 0.03912,-0.35263 0.07969,-0.19696 0.04057,0.15568 0.0379,0.37168 -0.0059,0.48 -0.04383,0.10833 -0.07702,-0.019 -0.07376,-0.28304 z m 40.756698,-14.28 -0.38789,-0.44 0.44,0.38789 c 0.242,0.21334 0.44,0.41134 0.44,0.44 0,0.12548 -0.12957,0.0234 -0.49211,-0.38789 z m -1.20309,-1.2 -0.3048,-0.36 0.36,0.3048 c 0.33831,0.28643 0.43284,0.4152 0.3048,0.4152 -0.0304,0 -0.19236,-0.162 -0.36,-0.36 z"
         id="path3746" /><path
         style="fill:#a3a3a3;fill-opacity:1;stroke-width:0.16"
         d="m 49.301341,-215.70975 c 0.1155,-0.0462 0.2535,-0.0405 0.306666,0.0126 0.05317,0.0532 -0.04133,0.091 -0.21,0.084 -0.186391,-0.008 -0.224304,-0.0456 -0.09667,-0.0967 z m 86.602629,-13.74403 c 0.008,-0.18639 0.0456,-0.22431 0.0967,-0.0967 0.0462,0.1155 0.0405,0.2535 -0.0126,0.30667 -0.0532,0.0532 -0.091,-0.0413 -0.084,-0.21 z m -98.559997,-0.16 c 0.0077,-0.18639 0.04559,-0.22431 0.09667,-0.0967 0.04622,0.1155 0.04054,0.2535 -0.01263,0.30667 -0.05317,0.0532 -0.09098,-0.0413 -0.08404,-0.21 z m 98.747717,-2.86667 c 0.002,-0.352 0.0345,-0.47716 0.0728,-0.27813 0.0383,0.19902 0.0368,0.48702 -0.003,0.64 -0.0401,0.15297 -0.0714,-0.01 -0.0696,-0.36187 z m 0.008,-6 c 0,-0.484 0.03,-0.682 0.0667,-0.44 0.0367,0.242 0.0367,0.638 0,0.88 -0.0367,0.242 -0.0667,0.044 -0.0667,-0.44 z m -43.727951,0.10993 c 0,-0.0275 0.234,-0.26153 0.52,-0.52 l 0.52,-0.46993 -0.469934,0.52 c -0.438045,0.48471 -0.570066,0.59354 -0.570066,0.46993 z m 43.532631,-3.24326 c 0.008,-0.18639 0.0456,-0.22431 0.0967,-0.0967 0.0462,0.1155 0.0405,0.2535 -0.0126,0.30667 -0.0532,0.0532 -0.091,-0.0413 -0.084,-0.21 z m -14.02783,-13.86667 -0.3048,-0.36 0.36,0.3048 c 0.33831,0.28643 0.43284,0.4152 0.3048,0.4152 -0.0304,0 -0.19236,-0.162 -0.36,-0.36 z m 14.18783,-68.37333 c 0.008,-0.18639 0.0456,-0.22431 0.0967,-0.0967 0.0462,0.1155 0.0405,0.2535 -0.0126,0.30667 -0.0532,0.0532 -0.091,-0.0413 -0.084,-0.21 z m -58.067368,-11.90667 c 0,-0.22 0.03632,-0.31 0.0807,-0.2 0.04439,0.11 0.04439,0.29 0,0.4 -0.04439,0.11 -0.0807,0.02 -0.0807,-0.2 z m 0.62737,-1.69333 c 0.0077,-0.18639 0.04559,-0.22431 0.09667,-0.0967 0.04622,0.1155 0.04054,0.2535 -0.01262,0.30667 -0.05317,0.0532 -0.09098,-0.0413 -0.08404,-0.21 z m 39.166958,-20.82667 c -0.19902,-0.25377 -0.19336,-0.25943 0.0604,-0.0604 0.154,0.12078 0.28,0.24678 0.28,0.28 0,0.13169 -0.13139,0.0469 -0.34041,-0.21959 z m -38.08959,-14.0693 c 0.115499,-0.0462 0.253501,-0.0405 0.306667,0.0126 0.05317,0.0532 -0.04133,0.091 -0.21,0.084 -0.186392,-0.008 -0.224304,-0.0456 -0.09667,-0.0967 z m 6.88,0 c 0.115499,-0.0462 0.2535,-0.0405 0.306667,0.0126 0.05317,0.0532 -0.04134,0.091 -0.21,0.084 -0.186392,-0.008 -0.224304,-0.0456 -0.09667,-0.0967 z"
         id="path3744" /><path
         style="fill:#8c8c8c;fill-opacity:1;stroke-width:0.16"
         d="m 99.091339,-234.21052 c 0,-0.0275 0.234,-0.26153 0.52,-0.52 l 0.520001,-0.46993 -0.469935,0.52 c -0.438045,0.48471 -0.570066,0.59354 -0.570066,0.46993 z m -9.52,-1.38993 c 0.159279,-0.176 0.325597,-0.32 0.369597,-0.32 0.044,0 -0.05032,0.144 -0.209597,0.32 -0.159278,0.176 -0.325596,0.32 -0.369596,0.32 -0.044,0 0.05032,-0.144 0.209596,-0.32 z m 4.88,-5.02041 c 0,-0.0332 0.126,-0.15922 0.28,-0.28 0.25377,-0.19902 0.259429,-0.19336 0.06041,0.0604 -0.209019,0.26652 -0.34041,0.35128 -0.34041,0.21959 z m 29.209221,-4.88467 c -0.0493,-0.0798 0.0544,-0.10739 0.23056,-0.0613 0.3736,0.0977 0.42082,0.20642 0.0897,0.20642 -0.1268,0 -0.2709,-0.0653 -0.32022,-0.14508 z m -45.60922,-0.65492 c 0.159278,-0.176 0.325597,-0.32 0.369597,-0.32 0.044,0 -0.05032,0.144 -0.209597,0.32 -0.159279,0.176 -0.325597,0.32 -0.369597,0.32 -0.044,0 0.05032,-0.144 0.209597,-0.32 z m 44.69959,-8.44 c -0.19902,-0.25377 -0.19336,-0.25943 0.0604,-0.0604 0.154,0.12078 0.28,0.24678 0.28,0.28 0,0.13169 -0.13139,0.0469 -0.34041,-0.21959 z m -61.279999,-8.48 c -0.19902,-0.25377 -0.19336,-0.25943 0.06041,-0.0604 0.26652,0.20902 0.351277,0.34041 0.219591,0.34041 -0.03322,0 -0.159224,-0.126 -0.28,-0.28 z m 62.810339,-7.76 -0.46993,-0.52 0.52,0.46993 c 0.48471,0.43805 0.59354,0.57007 0.46993,0.57007 -0.0275,0 -0.26153,-0.234 -0.52,-0.52 z m -23.42993,-1.46041 c 0,-0.0332 0.126,-0.15922 0.28,-0.28 0.25377,-0.19902 0.25943,-0.19336 0.0604,0.0604 -0.20902,0.26652 -0.34041,0.35128 -0.34041,0.21959 z m -30.183206,-16.81959 c -4.8e-4,-0.792 0.02657,-1.13617 0.06012,-0.76483 0.03356,0.37135 0.03396,1.01935 9.6e-4,1.44 -0.03307,0.42066 -0.06052,0.11683 -0.06101,-0.67517 z m -15.693749,-4.19088 c 0.155675,-0.0406 0.371675,-0.0379 0.48,0.006 0.108325,0.0438 -0.01905,0.077 -0.283045,0.0738 -0.264,-0.003 -0.35263,-0.0391 -0.196955,-0.0797 z m 23.342217,-35.72912 c 0,-0.22 0.03632,-0.31 0.0807,-0.2 0.04438,0.11 0.04438,0.29 0,0.4 -0.04439,0.11 -0.0807,0.02 -0.0807,-0.2 z m 0.62737,-4.09333 c 0.0077,-0.18639 0.04559,-0.22431 0.09667,-0.0967 0.04622,0.1155 0.04054,0.2535 -0.01262,0.30667 -0.05317,0.0532 -0.09098,-0.0413 -0.08404,-0.21 z m -1.095512,-5.66667 c 0,-0.308 0.03293,-0.434 0.07317,-0.28 0.04024,0.154 0.04024,0.406 0,0.56 -0.04024,0.154 -0.07317,0.028 -0.07317,-0.28 z m -15.803699,-18.57064 c -0.05801,-0.0939 -0.07115,-0.20496 -0.02921,-0.24691 0.04194,-0.0419 0.11889,0.0349 0.171,0.17065 0.108189,0.28194 0.01598,0.33153 -0.141792,0.0763 z"
         id="path3742" /><path
         style="fill:#767676;fill-opacity:1;stroke-width:0.16"
         d="m 134.6366,-222.32045 c 0,-0.22 0.0363,-0.31 0.0807,-0.2 0.0444,0.11 0.0444,0.29 0,0.4 -0.0444,0.11 -0.0807,0.02 -0.0807,-0.2 z m -44.345261,-13.98041 c 0,-0.0332 0.126,-0.15922 0.28,-0.28 0.25377,-0.19902 0.259429,-0.19336 0.06041,0.0604 -0.209019,0.26652 -0.34041,0.35128 -0.34041,0.21959 z m 24.652631,-1.79292 c 0.008,-0.18639 0.0456,-0.22431 0.0967,-0.0967 0.0462,0.1155 0.0405,0.2535 -0.0126,0.30667 -0.0532,0.0532 -0.091,-0.0413 -0.084,-0.21 z m 6.4,-1.28 c 0.008,-0.18639 0.0456,-0.22431 0.0967,-0.0967 0.0462,0.1155 0.0405,0.2535 -0.0126,0.30667 -0.0532,0.0532 -0.091,-0.0413 -0.084,-0.21 z m -22.227368,-1.34667 c 0,-0.22 0.03632,-0.31 0.0807,-0.2 0.04439,0.11 0.04439,0.29 0,0.4 -0.04439,0.11 -0.0807,0.02 -0.0807,-0.2 z m 24.894738,-0.59292 c 0.198,-0.0381 0.522,-0.0381 0.72,0 0.198,0.0381 0.036,0.0693 -0.36,0.0693 -0.396,0 -0.558,-0.0312 -0.36,-0.0693 z m -16.08881,-6.52708 c 0.003,-0.264 0.0391,-0.35263 0.0797,-0.19696 0.0406,0.15568 0.0379,0.37168 -0.006,0.48 -0.0438,0.10833 -0.077,-0.019 -0.0738,-0.28304 z m -57.501189,-0.1893 c 0.1155,-0.0462 0.2535,-0.0405 0.306666,0.0126 0.05317,0.0532 -0.04133,0.091 -0.21,0.084 -0.186391,-0.008 -0.224304,-0.0456 -0.09667,-0.0967 z m 30.909999,-1.2507 c 0.20668,-0.22 0.41178,-0.4 0.45578,-0.4 0.044,0 -0.0891,0.18 -0.29578,0.4 -0.20668,0.22 -0.411781,0.4 -0.455781,0.4 -0.044,0 0.0891,-0.18 0.295781,-0.4 z m -34.067368,-1.29333 c 0.0077,-0.18639 0.04559,-0.22431 0.09667,-0.0967 0.04622,0.1155 0.04053,0.2535 -0.01263,0.30667 -0.05317,0.0532 -0.09098,-0.0413 -0.08404,-0.21 z m 33.427368,-2.20708 c 0,-0.0332 0.126,-0.15922 0.28,-0.28 0.253769,-0.19902 0.259428,-0.19336 0.06041,0.0604 -0.209019,0.26652 -0.340409,0.35128 -0.340409,0.21959 z m 35.37263,-0.99292 c 0.008,-0.18639 0.0456,-0.22431 0.0967,-0.0967 0.0462,0.1155 0.0405,0.2535 -0.0126,0.30667 -0.0532,0.0532 -0.091,-0.0413 -0.084,-0.21 z m 0,-0.96 c 0.008,-0.18639 0.0456,-0.22431 0.0967,-0.0967 0.0462,0.1155 0.0405,0.2535 -0.0126,0.30667 -0.0532,0.0532 -0.091,-0.0413 -0.084,-0.21 z m -64.799998,-0.8 c 0.0077,-0.18639 0.04559,-0.22431 0.09667,-0.0967 0.04622,0.1155 0.04053,0.2535 -0.01263,0.30667 -0.05317,0.0532 -0.09098,-0.0413 -0.08404,-0.21 z m 32.627368,-0.12708 c 0,-0.0332 0.126,-0.15922 0.28,-0.28 0.253769,-0.19902 0.259428,-0.19336 0.06041,0.0604 -0.209019,0.26652 -0.340409,0.35128 -0.340409,0.21959 z m -32.614736,-0.57959 c 0,-0.22 0.03632,-0.31 0.0807,-0.2 0.04438,0.11 0.04438,0.29 0,0.4 -0.04439,0.11 -0.0807,0.02 -0.0807,-0.2 z m 34.534736,-1.18041 c 0,-0.0332 0.126,-0.15922 0.28,-0.28 0.253769,-0.19902 0.259428,-0.19336 0.06041,0.0604 -0.209019,0.26652 -0.340409,0.35128 -0.340409,0.21959 z m -26.43,-4.36889 c 0.1155,-0.0462 0.2535,-0.0405 0.306668,0.0126 0.05317,0.0532 -0.04134,0.091 -0.21,0.084 -0.186392,-0.008 -0.224304,-0.0456 -0.09667,-0.0967 z m 40.509999,-9.71111 c 0,-0.0332 0.126001,-0.15922 0.280001,-0.28 0.25377,-0.19902 0.25943,-0.19336 0.0604,0.0604 -0.20902,0.26652 -0.340411,0.35128 -0.340411,0.21959 z m -34.439999,-2.60555 c 0.11,-0.0444 0.29,-0.0444 0.4,0 0.11,0.0444 0.02,0.0807 -0.2,0.0807 -0.22,0 -0.31,-0.0363 -0.2,-0.0807 z m -14.135201,-20.73404 -0.304798,-0.36 0.36,0.3048 c 0.338311,0.28643 0.432838,0.4152 0.304798,0.4152 -0.03036,0 -0.192361,-0.162 -0.36,-0.36 z m 16.705201,-1.5093 c 0.115499,-0.0462 0.253499,-0.0405 0.306667,0.0126 0.05317,0.0532 -0.04133,0.091 -0.21,0.084 -0.186392,-0.008 -0.224304,-0.0456 -0.09667,-0.0967 z m -17.852879,-1.6507 c 0,-0.308 0.03293,-0.434 0.07317,-0.28 0.04024,0.154 0.04024,0.406 0,0.56 -0.04024,0.154 -0.07317,0.028 -0.07317,-0.28 z m 28.468141,-25.12 c 0,-0.22 0.03632,-0.31 0.0807,-0.2 0.04439,0.11 0.04439,0.29 0,0.4 -0.04439,0.11 -0.0807,0.02 -0.0807,-0.2 z m 0.30737,-0.25333 c 0.0077,-0.18639 0.04559,-0.22431 0.09667,-0.0967 0.04622,0.1155 0.04054,0.2535 -0.01262,0.30667 -0.05317,0.0532 -0.09098,-0.0413 -0.08404,-0.21 z m -0.46737,-2.30667 c 0,-0.22 0.03632,-0.31 0.0807,-0.2 0.04439,0.11 0.04439,0.29 0,0.4 -0.04439,0.11 -0.0807,0.02 -0.0807,-0.2 z m 0.62737,-1.69333 c 0.0077,-0.18639 0.04559,-0.22431 0.09667,-0.0967 0.04622,0.1155 0.04054,0.2535 -0.01262,0.30667 -0.05317,0.0532 -0.09098,-0.0413 -0.08404,-0.21 z m 0,-0.64 c 0.0077,-0.18639 0.04559,-0.22431 0.09667,-0.0967 0.04622,0.1155 0.04054,0.2535 -0.01262,0.30667 -0.05317,0.0532 -0.09098,-0.0413 -0.08404,-0.21 z m 0,-1.12 c 0.0077,-0.18639 0.04559,-0.22431 0.09667,-0.0967 0.04622,0.1155 0.04054,0.2535 -0.01262,0.30667 -0.05317,0.0532 -0.09098,-0.0413 -0.08404,-0.21 z m -0.16,-4.48 c 0.0077,-0.18639 0.04559,-0.22431 0.09667,-0.0967 0.04622,0.1155 0.04054,0.2535 -0.01262,0.30667 -0.05317,0.0532 -0.09098,-0.0413 -0.08404,-0.21 z m -0.96,-1.28 c 0.0077,-0.18639 0.04559,-0.22431 0.09667,-0.0967 0.04622,0.1155 0.04054,0.2535 -0.01262,0.30667 -0.05317,0.0532 -0.09098,-0.0413 -0.08404,-0.21 z m -0.30144,-7.34667 c 0.0033,-0.264 0.03912,-0.35263 0.07969,-0.19696 0.04057,0.15568 0.0379,0.37168 -0.0059,0.48 -0.04383,0.10833 -0.07702,-0.019 -0.07376,-0.28304 z m -0.191192,-3.28 c 0,-0.088 0.07625,-0.16 0.169443,-0.16 0.09319,0 0.124944,0.072 0.07056,0.16 -0.05439,0.088 -0.130637,0.16 -0.169443,0.16 -0.03881,0 -0.07056,-0.072 -0.07056,-0.16 z"
         id="path3740" /><path
         style="fill:#606060;fill-opacity:1;stroke-width:0.16"
         d="m 44.181341,-215.70975 c 0.1155,-0.0462 0.2535,-0.0405 0.306667,0.0126 0.05317,0.0532 -0.04133,0.091 -0.21,0.084 -0.186391,-0.008 -0.224304,-0.0456 -0.09667,-0.0967 z m 4.32,0 c 0.1155,-0.0462 0.2535,-0.0405 0.306666,0.0126 0.05317,0.0532 -0.04133,0.091 -0.21,0.084 -0.18639,-0.008 -0.224304,-0.0456 -0.09667,-0.0967 z m -11.144737,-14.6107 c 0,-0.22 0.03632,-0.31 0.0807,-0.2 0.04439,0.11 0.04439,0.29 0,0.4 -0.04439,0.11 -0.0807,0.02 -0.0807,-0.2 z m 98.559996,0 c 0,-0.22 0.0363,-0.31 0.0807,-0.2 0.0444,0.11 0.0444,0.29 0,0.4 -0.0444,0.11 -0.0807,0.02 -0.0807,-0.2 z m 0.16593,-3.28 c 0.003,-0.264 0.0391,-0.35263 0.0797,-0.19696 0.0406,0.15568 0.0379,0.37168 -0.006,0.48 -0.0438,0.10833 -0.077,-0.019 -0.0738,-0.28304 z m -48.351191,-0.30041 c 0,-0.0332 0.126,-0.15922 0.28,-0.28 0.25377,-0.19902 0.259429,-0.19336 0.06041,0.0604 -0.209019,0.26652 -0.34041,0.35128 -0.34041,0.21959 z m 48.379851,-1.93959 c 3.2e-4,-0.968 0.0267,-1.34337 0.0586,-0.83416 0.0319,0.50921 0.0316,1.30121 -6.4e-4,1.76 -0.0322,0.45879 -0.0583,0.0422 -0.0579,-0.92584 z m -44.379851,-1.92 c 0.20668,-0.22 0.411781,-0.4 0.455781,-0.4 0.044,0 -0.0891,0.18 -0.295781,0.4 -0.20668,0.22 -0.41178,0.4 -0.45578,0.4 -0.044,0 0.0891,-0.18 0.29578,-0.4 z m 18.240001,-1.58041 c 0,-0.0332 0.126,-0.15922 0.28,-0.28 0.25377,-0.19902 0.25943,-0.19336 0.0604,0.0604 -0.20902,0.26652 -0.34041,0.35128 -0.34041,0.21959 z m -16.000001,-0.8 c 0,-0.0332 0.126,-0.15922 0.28,-0.28 0.25377,-0.19902 0.259429,-0.19336 0.06041,0.0604 -0.209019,0.26652 -0.34041,0.35128 -0.34041,0.21959 z m 41.945261,-0.57959 c 0,-0.22 0.0363,-0.31 0.0807,-0.2 0.0444,0.11 0.0444,0.29 0,0.4 -0.0444,0.11 -0.0807,0.02 -0.0807,-0.2 z m -22.74526,-1.82041 c 0,-0.0332 0.126,-0.15922 0.28,-0.28 0.25377,-0.19902 0.25943,-0.19336 0.0604,0.0604 -0.20902,0.26652 -0.34041,0.35128 -0.34041,0.21959 z m -37.12,-1.76 c 0,-0.0332 0.126,-0.15922 0.28,-0.28 0.253769,-0.19902 0.259429,-0.19336 0.06041,0.0604 -0.209019,0.26652 -0.340409,0.35128 -0.340409,0.21959 z m -31.347368,-1.31292 c 0.0077,-0.18639 0.04559,-0.22431 0.09667,-0.0967 0.04622,0.1155 0.04054,0.2535 -0.01263,0.30667 -0.05317,0.0532 -0.09098,-0.0413 -0.08404,-0.21 z m 32.627368,0.19292 c 0,-0.0332 0.126,-0.15922 0.28,-0.28 0.253769,-0.19902 0.259429,-0.19336 0.06041,0.0604 -0.209019,0.26652 -0.340409,0.35128 -0.340409,0.21959 z m 42.25263,-1.95292 c 0.008,-0.18639 0.0456,-0.22431 0.0967,-0.0967 0.0462,0.1155 0.0405,0.2535 -0.0126,0.30667 -0.0532,0.0532 -0.091,-0.0413 -0.084,-0.21 z m -17.77263,-0.60708 c 0,-0.0332 0.126,-0.15922 0.28,-0.28 0.25377,-0.19902 0.25943,-0.19336 0.0604,0.0604 -0.20902,0.26652 -0.34041,0.35128 -0.34041,0.21959 z m 7.21263,-1.47292 c 0.008,-0.18639 0.0456,-0.22431 0.0967,-0.0967 0.0462,0.1155 0.0405,0.2535 -0.0126,0.30667 -0.0532,0.0532 -0.091,-0.0413 -0.084,-0.21 z m -26.09263,-1.42667 c 0.20668,-0.22 0.41178,-0.4 0.45578,-0.4 0.044,0 -0.0891,0.18 -0.29578,0.4 -0.20668,0.22 -0.411781,0.4 -0.455781,0.4 -0.044,0 0.0891,-0.18 0.295781,-0.4 z m 32.29,-5.9493 c 0.1155,-0.0462 0.2535,-0.0405 0.30667,0.0126 0.0532,0.0532 -0.0413,0.091 -0.21,0.084 -0.1864,-0.008 -0.22431,-0.0456 -0.0967,-0.0967 z m -6.85,-0.3707 c -0.14421,-0.0932 -0.16394,-0.15608 -0.0494,-0.15755 0.1048,-10e-4 0.23505,0.0695 0.28944,0.15755 0.12277,0.19864 0.0674,0.19864 -0.24,0 z m -19.120001,-3.52 c 0.159279,-0.176 0.325597,-0.32 0.369597,-0.32 0.044,0 -0.05032,0.144 -0.209597,0.32 -0.159278,0.176 -0.325596,0.32 -0.369596,0.32 -0.044,0 0.05032,-0.144 0.209596,-0.32 z m 0.96,-0.96 c 0.159279,-0.176 0.325597,-0.32 0.369597,-0.32 0.044,0 -0.05032,0.144 -0.209597,0.32 -0.159278,0.176 -0.325596,0.32 -0.369596,0.32 -0.044,0 0.05032,-0.144 0.209596,-0.32 z m -34.294736,-0.8 c 0,-0.22 0.03632,-0.31 0.0807,-0.2 0.04439,0.11 0.04439,0.29 0,0.4 -0.04438,0.11 -0.0807,0.02 -0.0807,-0.2 z m 45.334737,-10.4 c -0.0544,-0.088 -0.0226,-0.16 0.0706,-0.16 0.0932,0 0.16944,0.072 0.16944,0.16 0,0.088 -0.0317,0.16 -0.0706,0.16 -0.0388,0 -0.11505,-0.072 -0.16944,-0.16 z m -30.627368,-14.17333 c 0.0077,-0.18639 0.04559,-0.22431 0.09667,-0.0967 0.04622,0.1155 0.04054,0.2535 -0.01262,0.30667 -0.05317,0.0532 -0.09098,-0.0413 -0.08404,-0.21 z m 0,-4.16 c 0.0077,-0.18639 0.04559,-0.22431 0.09667,-0.0967 0.04622,0.1155 0.04054,0.2535 -0.01262,0.30667 -0.05317,0.0532 -0.09098,-0.0413 -0.08404,-0.21 z m 65.452628,-27.26667 c 0,-0.22 0.0363,-0.31 0.0807,-0.2 0.0444,0.11 0.0444,0.29 0,0.4 -0.0444,0.11 -0.0807,0.02 -0.0807,-0.2 z m -0.0126,-4.73333 c 0.008,-0.18639 0.0456,-0.22431 0.0967,-0.0967 0.0462,0.1155 0.0405,0.2535 -0.0126,0.30667 -0.0532,0.0532 -0.091,-0.0413 -0.084,-0.21 z m -56.947378,-5.34667 c 0,-0.22 0.03632,-0.31 0.0807,-0.2 0.04439,0.11 0.04439,0.29 0,0.4 -0.04439,0.11 -0.0807,0.02 -0.0807,-0.2 z m -1.13263,-5.85333 c 0.0077,-0.18639 0.04559,-0.22431 0.09667,-0.0967 0.04622,0.1155 0.04054,0.2535 -0.01262,0.30667 -0.05317,0.0532 -0.09098,-0.0413 -0.08404,-0.21 z m 0.8,-1.92 c 0.0077,-0.18639 0.04559,-0.22431 0.09666,-0.0967 0.04622,0.1155 0.04054,0.2535 -0.01262,0.30667 -0.05317,0.0532 -0.09098,-0.0413 -0.08404,-0.21 z m -0.96,-1.28 c 0.0077,-0.18639 0.04559,-0.22431 0.09667,-0.0967 0.04622,0.1155 0.04054,0.2535 -0.01262,0.30667 -0.05317,0.0532 -0.09098,-0.0413 -0.08404,-0.21 z m -29.907368,-2.78667 c 0,-0.22 0.03632,-0.31 0.0807,-0.2 0.04439,0.11 0.04439,0.29 0,0.4 -0.04439,0.11 -0.0807,0.02 -0.0807,-0.2 z m 32.574736,-31.94596 c 0.11,-0.0444 0.29,-0.0444 0.4,0 0.11,0.0444 0.02,0.0807 -0.2,0.0807 -0.22,0 -0.31,-0.0363 -0.2,-0.0807 z m 5.28,0 c 0.11,-0.0444 0.29,-0.0444 0.4,0 0.11,0.0444 0.02,0.0807 -0.2,0.0807 -0.22,0 -0.31,-0.0363 -0.2,-0.0807 z"
         id="path3738" /><path
         style="fill:#494949;fill-opacity:1;stroke-width:0.16"
         d="m 134.62397,-222.89378 c 0.008,-0.18639 0.0456,-0.22431 0.0967,-0.0967 0.0462,0.1155 0.0405,0.2535 -0.0126,0.30667 -0.0532,0.0532 -0.091,-0.0413 -0.084,-0.21 z m 1.12,-5.28 c 0.008,-0.18639 0.0456,-0.22431 0.0967,-0.0967 0.0462,0.1155 0.0405,0.2535 -0.0126,0.30667 -0.0532,0.0532 -0.091,-0.0413 -0.084,-0.21 z m -16.73263,-6.14667 c 0.15928,-0.176 0.3256,-0.32 0.3696,-0.32 0.044,0 -0.0503,0.144 -0.2096,0.32 -0.15928,0.176 -0.3256,0.32 -0.3696,0.32 -0.044,0 0.0503,-0.144 0.2096,-0.32 z m -30.701906,-0.50928 c 0.04621,-0.0748 0.151041,-0.0945 0.232961,-0.0439 0.209341,0.12938 0.18577,0.17984 -0.08402,0.17984 -0.12813,0 -0.195154,-0.0612 -0.148944,-0.13595 z m 26.634536,-2.62405 c 0.008,-0.18639 0.0456,-0.22431 0.0967,-0.0967 0.0462,0.1155 0.0405,0.2535 -0.0126,0.30667 -0.0532,0.0532 -0.091,-0.0413 -0.084,-0.21 z m -21.54884,-2.34667 c -0.0633,-0.11 -0.05618,-0.14662 0.01584,-0.0814 0.07201,0.0652 0.245555,0.0292 0.385651,-0.08 0.225374,-0.17573 0.229421,-0.16635 0.03513,0.0814 -0.261725,0.33372 -0.287853,0.33851 -0.436619,0.08 z m -46.173789,-1.3493 c 0.1155,-0.0462 0.2535,-0.0405 0.306666,0.0126 0.05317,0.0532 -0.04133,0.091 -0.21,0.084 -0.18639,-0.008 -0.224304,-0.0456 -0.09667,-0.0967 z m -6.29,-1.0107 c 0.05439,-0.088 0.130636,-0.16 0.169443,-0.16 0.03881,0 0.07056,0.072 0.07056,0.16 0,0.088 -0.07625,0.16 -0.169443,0.16 -0.09319,0 -0.124944,-0.072 -0.07056,-0.16 z m 38.255668,-4.77465 c -0.04577,-0.074 0.183297,-0.38005 0.509038,-0.68 0.325741,-0.29994 0.43028,-0.36001 0.23231,-0.13348 -0.197969,0.22653 -0.305286,0.46653 -0.238481,0.53333 0.06681,0.0668 0.01346,0.0975 -0.118536,0.0681 -0.132,-0.0293 -0.222,0.0367 -0.2,0.14667 0.04563,0.22815 -0.06047,0.26577 -0.184331,0.0653 z m 3.584331,-7.76576 c 0,-0.0332 0.126,-0.15922 0.28,-0.28 0.253769,-0.19902 0.259428,-0.19336 0.06041,0.0604 -0.209019,0.26652 -0.340409,0.35128 -0.340409,0.21959 z m 4.159999,-0.48 c 0,-0.0332 0.126,-0.15922 0.28,-0.28 0.25377,-0.19902 0.259429,-0.19336 0.06041,0.0604 -0.209019,0.26652 -0.34041,0.35128 -0.34041,0.21959 z m 22.646831,-0.56853 c -0.0506,-0.0819 -0.0309,-0.18676 0.0439,-0.23297 0.0748,-0.0462 0.13595,0.0208 0.13595,0.14895 0,0.26979 -0.0505,0.29336 -0.17984,0.084 z m -24.96683,-0.65106 c 0.159278,-0.176 0.325596,-0.32 0.369596,-0.32 0.044,0 -0.05032,0.144 -0.209596,0.32 -0.159279,0.176 -0.325597,0.32 -0.369597,0.32 -0.044,0 0.05032,-0.144 0.209597,-0.32 z m 1.74379,-1.8 c -0.0633,-0.11 -0.05618,-0.14662 0.01584,-0.0814 0.07201,0.0652 0.245555,0.0292 0.385651,-0.08 0.225374,-0.17573 0.229421,-0.16635 0.03513,0.0814 -0.261724,0.33372 -0.287852,0.33851 -0.436619,0.08 z m 10.336209,-9.94041 c 0,-0.0332 0.126,-0.15922 0.28,-0.28 0.25377,-0.19902 0.259429,-0.19336 0.06041,0.0604 -0.209019,0.26652 -0.34041,0.35128 -0.34041,0.21959 z m -17.587367,-58.43292 c 0.0077,-0.18639 0.04559,-0.22431 0.09667,-0.0967 0.04622,0.1155 0.04054,0.2535 -0.01262,0.30667 -0.05317,0.0532 -0.09098,-0.0413 -0.08404,-0.21 z m -0.94737,-4.38667 c 0,-0.22 0.03632,-0.31 0.0807,-0.2 0.04438,0.11 0.04438,0.29 0,0.4 -0.04439,0.11 -0.0807,0.02 -0.0807,-0.2 z m 0.8,-3.36 c 0,-0.22 0.03632,-0.31 0.0807,-0.2 0.04438,0.11 0.04438,0.29 0,0.4 -0.04439,0.11 -0.0807,0.02 -0.0807,-0.2 z m -31.134974,-2.7669 c 0.06009,-0.1578 0.14955,-0.2466 0.198812,-0.19733 0.04926,0.0493 1.02e-4,0.17836 -0.109245,0.2869 -0.158019,0.15684 -0.176397,0.13846 -0.08957,-0.0896 z m 29.870061,-4.0331 c 0.0018,-0.352 0.03454,-0.47716 0.07281,-0.27813 0.03827,0.19902 0.03682,0.48702 -0.0032,0.64 -0.04005,0.15297 -0.07136,-0.01 -0.06958,-0.36187 z m 41.539241,-15.56 c -0.19902,-0.25377 -0.19336,-0.25943 0.0604,-0.0604 0.26652,0.20902 0.35128,0.34041 0.21959,0.34041 -0.0332,0 -0.15923,-0.126 -0.28,-0.28 z m -57.380979,-1.07963 c 0.06524,-0.072 0.03842,-0.22755 -0.05959,-0.34565 -0.11204,-0.135 -0.11788,-0.21472 -0.01573,-0.21472 0.249848,0 0.367356,0.45562 0.149722,0.58053 -0.106157,0.0609 -0.139637,0.0519 -0.0744,-0.0202 z m 54.586189,-1.72037 -0.3048,-0.36 0.36,0.3048 c 0.33831,0.28643 0.43284,0.4152 0.3048,0.4152 -0.0304,0 -0.19236,-0.162 -0.36,-0.36 z m -1.52521,-1.36 c -0.19902,-0.25377 -0.19336,-0.25943 0.0604,-0.0604 0.26652,0.20902 0.35128,0.34041 0.21959,0.34041 -0.0332,0 -0.15922,-0.126 -0.28,-0.28 z"
         id="path3736" /><path
         style="fill:#333333;fill-opacity:1;stroke-width:0.16"
         d="m 43.42558,-215.76212 c -1.664605,-0.17481 -3.38851,-0.43927 -3.483662,-0.53442 -0.220376,-0.22038 -1.893847,-8.64591 -2.229282,-11.22391 -0.159225,-1.22373 -0.272515,-3.19974 -0.275198,-4.8 -0.0038,-2.29167 0.04906,-2.91392 0.335938,-3.95145 0.518398,-1.87484 1.961758,-4.72398 2.290284,-4.52094 0.07921,0.049 0.106987,-0.007 0.06173,-0.12542 -0.04526,-0.11794 0.146675,-0.42768 0.426516,-0.68831 0.403443,-0.37575 0.485013,-0.40769 0.393926,-0.15424 -0.285679,0.79492 -0.444448,1.95794 -0.383089,2.80623 0.0784,1.0838 0.582289,1.94552 1.352778,2.3134 1.192122,0.5692 4.330488,-0.002 7.895819,-1.43682 2.272138,-0.91446 7.619494,-3.54778 10.059631,-4.9539 1.000797,-0.5767 1.849712,-1.04855 1.886479,-1.04855 0.03677,0 0.273086,-0.15248 0.525156,-0.33884 0.267743,-0.19795 0.541445,-0.28747 0.658244,-0.21528 0.114987,0.0711 0.159531,0.0582 0.104844,-0.0303 -0.0523,-0.0846 0.422576,-0.47216 1.055279,-0.86119 0.632701,-0.38902 2.216419,-1.41266 3.519372,-2.27474 1.302954,-0.86208 2.448079,-1.51854 2.544722,-1.45882 0.100808,0.0623 0.130538,0.0355 0.06974,-0.0629 -0.134452,-0.21755 1.936563,-1.68156 2.172494,-1.53575 0.09542,0.059 0.128566,0.0345 0.07367,-0.0543 -0.095,-0.15371 1.604128,-1.44199 1.815915,-1.37683 0.05562,0.0171 0.101125,-0.076 0.101125,-0.20688 0,-0.15678 -0.08646,-0.20046 -0.253334,-0.12799 -0.139333,0.0605 -0.374047,0.11504 -0.521586,0.12117 -0.147539,0.006 -0.239454,0.0578 -0.204256,0.11471 0.105728,0.17107 -3.431297,1.93677 -3.631659,1.81294 -0.105525,-0.0652 -0.142286,-0.045 -0.0854,0.0471 0.18036,0.29183 -8.38352,4.47753 -8.726833,4.26535 -0.09517,-0.0588 -0.12817,-0.0344 -0.07333,0.0544 0.11764,0.19035 0.06629,0.21504 -3.639862,1.75065 -1.578282,0.65394 -2.980088,1.14659 -3.115123,1.09477 -0.135037,-0.0518 -0.19086,-0.0396 -0.12405,0.0273 0.150387,0.15039 -1.625119,0.84895 -4.020519,1.58186 -2.113956,0.6468 -3.296877,0.7193 -3.906899,0.23945 -1.071915,-0.84317 -1.562343,-3.82621 -1.007032,-6.1253 0.355684,-1.4726 0.955153,-2.80083 1.899293,-4.20821 0.814993,-1.21487 0.851821,-1.20847 0.503932,0.0876 -0.129911,0.484 -0.235476,1.096 -0.234587,1.36 0.0025,0.74493 0.558087,1.79676 1.145284,2.16825 0.47098,0.29797 0.696787,0.32565 2.049303,0.25122 4.813054,-0.26489 17.492269,-5.18998 26.399999,-10.25477 1.364,-0.77554 2.858,-1.62128 3.32,-1.87941 0.462,-0.25813 0.84,-0.53592 0.84,-0.61731 0,-0.0814 -0.0301,-0.14798 -0.06688,-0.14798 -0.03679,0 -1.278786,0.5843 -2.76,1.29845 -8.192677,3.94999 -15.748157,6.9318 -20.802115,8.20967 -0.895947,0.22653 -1.924259,0.41188 -2.285139,0.41188 -0.776685,0 -1.833227,-0.40156 -1.685488,-0.64061 0.05687,-0.092 0.01614,-0.14753 -0.09053,-0.12335 -0.295489,0.067 -1.20213,-1.1965 -1.576417,-2.19687 -0.611689,-1.63489 -0.355492,-4.35813 0.586218,-6.2312 0.614317,-1.22188 1.182459,-2.01319 1.364598,-1.90062 0.09086,0.0561 0.121653,0.0316 0.06843,-0.0545 -0.134194,-0.21713 1.314076,-1.83995 1.525455,-1.70931 0.09936,0.0614 0.124871,0.0307 0.06075,-0.073 -0.06081,-0.0984 0.02496,-0.30751 0.190589,-0.46472 0.16563,-0.15721 0.571117,-0.53784 0.90108,-0.84584 l 0.599933,-0.56 -0.277239,0.64 c -0.432374,0.99813 -0.873248,2.3404 -0.873248,2.65867 0,0.19928 0.186264,0.3379 0.6,0.44652 0.98645,0.25898 7.080338,0.5323 7.080106,0.31755 -5.8e-5,-0.0535 -0.426026,-0.36015 -0.946595,-0.68146 -2.332592,-1.43976 -3.73664,-4.05293 -4.094893,-7.62128 -0.13061,-1.30093 0.06867,-1.86477 0.760365,-2.15134 0.28656,-0.11872 1.961017,-0.40342 3.721017,-0.63267 3.415117,-0.44483 6.566635,-1.00441 6.96,-1.23581 0.144483,-0.085 -0.538398,-0.1189 -1.715853,-0.0852 -1.075718,0.0308 -2.221443,0.0128 -2.546052,-0.04 l -0.590202,-0.0959 0.786054,-0.36166 c 0.432328,-0.19891 1.182053,-0.49135 1.666053,-0.64985 1.081712,-0.35426 1.235102,-0.62154 1.913824,-3.33476 0.912781,-3.64888 1.181221,-5.94555 1.193701,-10.21284 0.0093,-3.16796 -0.03707,-4.01497 -0.264778,-4.83977 -0.592358,-2.14567 -1.303624,-2.88778 -2.58971,-2.702 -0.35917,0.0519 -2.525037,0.62632 -4.813037,1.27653 -6.332865,1.7997 -8.267385,2.04353 -10.029377,1.26412 -0.912754,-0.40376 -2.095635,-1.4508 -1.979861,-1.7525 0.04706,-0.12265 0.02493,-0.18552 -0.0492,-0.13971 -0.370037,0.2287 -0.56714,-0.90134 -0.653499,-3.74667 -0.05703,-1.87901 -0.161237,-3.08517 -0.285345,-3.30274 -0.247324,-0.43359 -1.123558,-1.17726 -1.387105,-1.17726 -0.543017,0 -1.474483,-1.66087 -1.285278,-2.29174 0.05744,-0.19154 0.362876,-0.6179 0.678738,-0.94745 0.557014,-0.58117 0.564916,-0.60629 0.26261,-0.83491 -0.171427,-0.12965 -0.388214,-0.23801 -0.48175,-0.24081 -0.265243,-0.008 -1.049082,-0.89261 -0.912174,-1.02952 0.06723,-0.0672 0.02018,-0.0982 -0.104569,-0.0689 -0.28176,0.0662 -0.902443,-1.3233 -0.758565,-1.69824 0.05548,-0.14459 0.337349,-0.36168 0.626373,-0.48245 0.73155,-0.30566 1.093414,-0.75718 1.180964,-1.47356 0.09416,-0.77044 -0.332283,-1.4989 -1.083074,-1.85014 -0.296389,-0.13865 -1.015629,-0.47573 -1.59831,-0.74905 -1.957763,-0.91833 -3.020579,-1.96393 -3.020579,-2.97166 0,-0.56805 0.605682,-1.72166 0.830856,-1.5825 0.0993,0.0614 0.134269,0.0387 0.07876,-0.0511 -0.118685,-0.19204 2.103651,-3.02768 2.322899,-2.96396 0.0832,0.0242 0.107678,-0.0266 0.0544,-0.11278 -0.05328,-0.0862 0.237015,-0.60999 0.645102,-1.16396 1.005805,-1.36536 2.189438,-3.39225 2.804305,-4.80218 0.401606,-0.9209 0.524201,-1.45659 0.585033,-2.55633 0.07174,-1.29692 0.04441,-1.45972 -0.402913,-2.4 -0.263929,-0.55479 -0.814193,-1.39451 -1.222807,-1.86605 -1.168732,-1.34871 -1.324854,-1.79008 -0.40033,-1.13177 0.525869,0.37446 0.510803,0.40273 0.474757,-0.89089 -0.04039,-1.44964 0.257366,-4.43178 0.803241,-8.04469 0.269632,-1.78458 0.458695,-3.33258 0.420139,-3.44 -0.112791,-0.31425 -0.773264,2.02465 -1.068763,3.78476 l -0.271964,1.61993 -0.261931,-0.8 c -0.416641,-1.27252 -1.50574,-5.60715 -1.862264,-7.41184 -0.773782,-3.91679 -1.331743,-8.70885 -1.057401,-9.08151 0.178339,-0.24225 3.849994,-1.71277 11.128885,-4.45718 12.704475,-4.79006 19.434811,-6.36214 27.36,-6.3908 7.624823,-0.0276 14.71393,1.50433 21.359998,4.61577 3.37669,1.58083 8.88436,5.13018 8.62127,5.55586 -0.0685,0.1108 -0.0382,0.13433 0.0794,0.0617 0.71872,-0.44419 11.25327,10.40595 10.80597,11.1297 -0.0689,0.11143 -0.0471,0.14518 0.0535,0.083 0.18924,-0.11695 1.17655,1.17313 2.90915,3.80131 4.22061,6.40225 7.38895,13.62158 8.56356,19.51282 0.95251,4.77731 0.92856,8.81602 -0.0846,14.26121 -1.95527,10.50865 -7.92424,24.14187 -16.02401,36.59908 -0.63576,0.97778 -1.19017,1.67431 -1.2857,1.61527 -0.0978,-0.0604 -0.12047,-0.027 -0.0543,0.0801 0.0625,0.10116 0.76781,0.5119 1.56732,0.91277 4.51806,2.2653 7.61727,5.78494 10.94961,12.43498 3.15442,6.29496 4.77173,12.46705 5.35093,20.42056 0.23641,3.24636 0.10688,11.30886 -0.23419,14.57722 -0.3066,2.93808 -0.729,6.12444 -0.82454,6.21998 -0.0403,0.0403 -0.0734,-0.39902 -0.0734,-0.97636 0,-3.40534 -1.20851,-10.70605 -2.56304,-15.48362 -1.31876,-4.65136 -3.58467,-9.80555 -5.73273,-13.04 -0.58443,-0.88 -1.05309,-1.68923 -1.04148,-1.79828 0.0116,-0.10905 -0.0305,-0.16638 -0.0936,-0.12739 -0.13643,0.0843 -1.38706,-1.52122 -1.32917,-1.70638 0.022,-0.0704 -0.014,-0.11256 -0.08,-0.0937 -0.066,0.0188 -0.82938,-0.68319 -1.69641,-1.56 l -1.57641,-1.5942 -0.55273,2.08 c -1.38933,5.22825 -3.6944,8.98195 -8.45445,13.76768 -1.34263,1.34987 -3.58548,3.27232 -3.8177,3.27232 -0.29013,0 -0.01,-0.53059 0.80748,-1.52887 0.50038,-0.61112 0.95331,-1.14713 1.00652,-1.19113 0.0532,-0.044 0.72993,-0.85447 1.50382,-1.80104 0.79492,-0.97227 1.48153,-1.67502 1.5782,-1.61528 0.10238,0.0633 0.12433,0.03 0.0546,-0.0827 -0.0675,-0.10913 0.14328,-0.50681 0.5006,-0.94472 0.81733,-1.00166 2.44644,-3.20455 2.44644,-3.30809 0,-0.0451 0.26152,-0.49076 0.58115,-0.99043 1.1344,-1.77336 2.42721,-5.4282 2.70416,-7.6448 0.12559,-1.00519 -0.14841,-1.63218 -0.90982,-2.08196 -0.2556,-0.15098 -0.4132,-0.34995 -0.35359,-0.4464 0.0636,-0.10285 0.0334,-0.12817 -0.0738,-0.0619 -0.0998,0.0617 -0.63086,-0.18645 -1.18022,-0.55134 -1.26534,-0.84046 -3.3866,-1.91132 -3.78614,-1.91132 -0.2742,0 -2.24687,2.17351 -2.08369,2.29583 0.0341,0.0256 0.36501,0.13345 0.73537,0.23976 0.91404,0.26237 1.93746,1.07482 2.44953,1.94459 0.41553,0.70578 0.43818,0.7188 1.16098,0.66756 l 0.73717,-0.0523 0.1842,0.68407 c 0.29188,1.08394 0.12958,3.27853 -0.30898,4.17818 -0.46169,0.94708 -1.35094,1.847 -2.37686,2.40537 -0.95724,0.521 -3.59581,1.25218 -3.8815,1.07562 -0.15174,-0.0938 -0.18321,-0.47637 -0.12108,-1.47216 0.09,-1.44201 0.50202,-2.50425 1.57823,-4.06846 0.46315,-0.67317 0.48795,-0.76556 0.25182,-0.93822 -0.14405,-0.10534 -0.21123,-0.24221 -0.14928,-0.30416 0.062,-0.0619 0.002,-0.0702 -0.13336,-0.0182 -0.28446,0.10916 -1.15149,-0.5116 -1.01747,-0.72846 0.0494,-0.0799 -0.004,-0.10972 -0.11847,-0.0662 -0.12204,0.0464 -0.39663,-0.21944 -0.663,-0.64184 -0.25008,-0.39655 -0.50208,-0.71491 -0.56,-0.70746 -0.0579,0.007 -1.4089,1.64545 -3.00218,3.64 -1.59328,1.99455 -2.98463,3.60667 -3.0919,3.58249 -0.10726,-0.0242 -0.14941,0.0298 -0.0937,0.12002 0.13313,0.21541 -1.68278,2.4196 -1.88859,2.2924 -0.0871,-0.0538 -0.11482,-0.0274 -0.0615,0.0588 0.12616,0.20414 -1.461347,2.1677 -1.655531,2.04769 -0.08153,-0.0504 -0.113408,0.002 -0.07084,0.1167 0.04256,0.11457 -0.19253,0.49631 -0.522429,0.84831 -0.329899,0.352 -1.062814,1.18 -1.628701,1.84 -1.53263,1.78752 -2.768227,3.03521 -2.915601,2.94413 -0.07186,-0.0444 -0.09437,0.0138 -0.05002,0.12937 0.101053,0.26334 -4.63504,5.00055 -4.860232,4.86137 -0.08907,-0.055 -0.214054,-0.0158 -0.277731,0.0872 -0.07648,0.12375 -0.04604,0.14423 0.0897,0.0603 0.137464,-0.085 0.179667,-0.0534 0.1275,0.0953 -0.04289,0.12225 -0.195452,0.2124 -0.339035,0.20033 -0.143581,-0.0121 -0.227725,0.032 -0.186985,0.0979 0.150523,0.24355 -3.525615,3.42734 -3.777562,3.27163 -0.113238,-0.07 -0.147102,-0.0486 -0.08422,0.0531 0.142655,0.23082 -2.713389,2.49668 -2.957118,2.34605 -0.112525,-0.0695 -0.145495,-0.0474 -0.08208,0.0552 0.134451,0.21755 -1.936563,1.68156 -2.172494,1.53575 -0.09634,-0.0595 -0.127963,-0.0336 -0.07112,0.0584 0.105568,0.17082 -2.809911,2.13764 -5.09292,3.43576 -8.408733,4.78121 -18.095337,7.65631 -26.559999,7.88334 -1.32,0.0354 -3.005593,8e-4 -3.745761,-0.077 z m 6.039297,-14.24569 c 7.098927,-1.86873 13.453601,-4.68856 18.963865,-8.41505 0.955569,-0.64623 1.803353,-1.1342 1.883963,-1.08439 0.08061,0.0498 0.126779,0.0226 0.1026,-0.0604 -0.02418,-0.0831 0.928035,-0.89373 2.116035,-1.8015 1.188,-0.90777 2.196,-1.69221 2.24,-1.7432 0.044,-0.051 0.582713,-0.52367 1.197142,-1.0504 1.667567,-1.42954 2.340587,-2.03777 2.70237,-2.44221 0.179344,-0.2005 0.418457,-0.32909 0.531365,-0.28576 0.112905,0.0433 0.188148,-0.009 0.167203,-0.11547 -0.02094,-0.10683 0.06992,-0.17024 0.20192,-0.14091 0.132,0.0293 0.185341,-0.001 0.118536,-0.0681 -0.170008,-0.17 0.528524,-0.87782 0.744721,-0.75462 0.09721,0.0554 0.121279,0.0397 0.05349,-0.0349 -0.150467,-0.1655 0.999376,-1.37701 1.193219,-1.25721 0.07588,0.0469 0.11818,0.0213 0.094,-0.057 -0.07039,-0.22771 3.740154,-4.20554 3.921375,-4.09354 0.09131,0.0564 0.115934,0.0235 0.05551,-0.0743 -0.05972,-0.0966 0.2468,-0.55776 0.681168,-1.02472 0.434368,-0.46696 0.945874,-1.04771 1.136682,-1.29054 0.190806,-0.24284 0.42428,-0.39372 0.51883,-0.33528 0.09586,0.0592 0.125959,0.0319 0.06804,-0.0618 -0.05713,-0.0924 0.597744,-0.99009 1.455279,-1.99478 2.171365,-2.54398 4.311763,-5.15666 5.122854,-6.25322 0.408731,-0.55259 0.758128,-0.88168 0.865571,-0.81528 0.111125,0.0687 0.135645,0.0393 0.06398,-0.0766 -0.128712,-0.20826 0.669912,-1.24803 0.904398,-1.17749 0.08037,0.0242 0.109712,-0.015 0.0652,-0.087 -0.07148,-0.11566 0.595972,-1.01614 2.185941,-2.94914 0.267898,-0.3257 0.55764,-0.54858 0.643869,-0.49528 0.08818,0.0545 0.105907,0.0146 0.04052,-0.0912 -0.06913,-0.11186 0.315941,-0.71054 0.949877,-1.47679 0.58638,-0.70877 1.0315,-1.32331 0.98916,-1.36565 -0.0423,-0.0423 -0.46227,0.34109 -0.93319,0.85207 -0.47092,0.51098 -1.621473,1.72105 -2.556775,2.68905 -0.935303,0.968 -2.087931,2.18398 -2.561399,2.70217 -1.811872,1.98304 -8.798572,8.58576 -8.971783,8.47871 -0.101567,-0.0628 -0.134058,-0.0384 -0.07538,0.0565 0.142278,0.23021 -4.803266,4.73263 -5.03863,4.58716 -0.109871,-0.0679 -0.141189,-0.0439 -0.07742,0.0592 0.06096,0.0986 -0.669095,0.85296 -1.69528,1.75163 -3.159495,2.76688 -3.183501,2.78461 -3.468595,2.56237 -0.219357,-0.17099 -0.22652,-0.1629 -0.05284,0.0597 0.174356,0.22346 -0.111171,0.51043 -2.16,2.17087 -3.193871,2.58844 -5.200471,4.10497 -5.431478,4.10497 -0.105411,0 -0.177657,0.0518 -0.160545,0.11513 0.05708,0.21121 -3.245419,2.57257 -3.434475,2.45573 -0.108381,-0.067 -0.140447,-0.0434 -0.07811,0.0575 0.145255,0.23502 -5.411371,3.94972 -5.669528,3.79017 -0.120744,-0.0746 -0.155195,-0.0549 -0.08956,0.0513 0.174303,0.28203 -6.739906,4.39439 -10.034204,5.96804 -2.382536,1.13812 -2.309766,1.20389 0.510528,0.46147 z m 32.729122,-81.15264 c 0.298118,-0.638 0.981977,-2.07936 1.519686,-3.20302 0.537711,-1.12366 0.977655,-2.07241 0.977655,-2.10832 0,-0.0359 0.260211,-0.62855 0.578248,-1.31698 1.718819,-3.72058 3.742787,-9.39668 4.782303,-13.41168 1.025421,-3.96057 2.216525,-9.33024 4.081496,-18.4 0.532029,-2.58737 1.278795,-6.10057 1.845023,-8.68 0.04346,-0.198 0.007,-0.36 -0.08097,-0.36 -0.088,0 -0.20535,0.198 -0.260779,0.44 -0.87607,3.82486 -3.883129,13.16543 -6.142533,19.08 -4.204822,11.00722 -6.029998,17.26947 -7.444964,25.54394 -0.727459,4.25404 -0.725928,4.27958 0.14484,2.41606 z m -6.203373,-2.96 c -0.04525,-0.154 -0.343182,-1.468 -0.662069,-2.92 -1.979398,-9.01292 -4.538444,-17.20771 -9.857927,-31.56792 -0.873611,-2.35836 -1.538795,-4.37436 -1.478186,-4.48 0.06061,-0.10564 0.04932,-0.13674 -0.02509,-0.0691 -0.133502,0.12135 -0.800366,-1.50556 -1.608013,-3.92297 -0.227854,-0.682 -0.476621,-1.24 -0.552816,-1.24 -0.07649,0 -0.07361,0.19706 0.0064,0.44 0.07973,0.242 0.767085,2.528 1.527453,5.08 0.760368,2.552 1.945696,6.44 2.634062,8.64 0.688365,2.2 1.44277,4.612 1.676455,5.36 0.425883,1.36321 1.023936,3.20223 5.489427,16.88 1.321582,4.048 2.450054,7.522 2.507716,7.72 0.05766,0.198 0.17684,0.36 0.26484,0.36 0.088,0 0.122975,-0.126 0.07772,-0.28 z m 3.084181,-9.76574 c 0.01184,-0.94284 0.06184,-2.11026 0.111093,-2.59426 0.11683,-1.148 -0.203555,-9.06844 -0.479202,-11.84657 -0.308851,-3.1128 -0.953901,-7.67343 -1.085318,-7.67343 -0.06166,0 -0.07911,0.738 -0.03879,1.64 0.446699,9.99273 0.588408,12.96124 0.79244,16.6 0.130758,2.332 0.270453,4.636 0.310432,5.12 0.03998,0.484 0.08303,1.024 0.09566,1.2 0.06127,0.85355 0.274547,-0.92257 0.293683,-2.44574 z m 16.902036,97.25464 c -0.138752,-0.2245 0.370674,-2.315 0.906815,-3.72124 1.389217,-3.64375 4.571552,-6.43477 7.834042,-6.87072 1.9297,-0.25786 3.00623,0.18599 3.23585,1.33414 0.39974,1.99869 -0.39861,4.30218 -2.06781,5.96627 -1.24167,1.23787 -2.65194,2.05554 -4.5544,2.64061 -2.164358,0.66561 -5.123129,1.02531 -5.354497,0.65094 z m 20.180397,-6.0489 c -0.74157,-1.46765 -0.98597,-2.65378 -0.98078,-4.76 0.005,-1.91591 0.0391,-2.1535 0.43637,-3.01169 0.28254,-0.61042 0.49619,-0.89155 0.6196,-0.81528 0.11672,0.0721 0.14574,0.0475 0.0763,-0.0649 -0.0616,-0.0997 0.0533,-0.40514 0.25527,-0.67872 0.48352,-0.65478 2.21761,-2.06943 2.53672,-2.06943 0.27895,0 1.11061,0.80062 1.11061,1.06916 0,0.0944 0.10777,0.2611 0.23949,0.37042 0.35769,0.29686 0.88051,2.15498 0.88051,3.1294 0,0.4704 -0.0769,1.21388 -0.17091,1.65218 -0.18738,0.87373 -1.30563,2.84266 -1.57823,2.77884 -0.094,-0.022 -0.15286,0.023 -0.13086,0.0999 0.0678,0.23702 -1.00478,1.31603 -1.19271,1.19989 -0.0998,-0.0617 -0.13191,-0.0367 -0.0738,0.0574 0.0908,0.14694 -1.44451,1.48283 -1.7042,1.48283 -0.0556,0 -0.20116,-0.198 -0.32343,-0.44 z m -16.905901,-8.04675 c 0,-3.25515 1.470681,-6.46616 3.719061,-8.12006 1.07747,-0.79257 2.61275,-1.46124 3.63228,-1.58199 0.76979,-0.0912 0.80669,-0.0773 0.97651,0.36703 0.27526,0.72018 0.37643,3.0857 0.17262,4.03603 -0.43178,2.01333 -1.55642,3.56488 -3.42843,4.72986 -1.22152,0.76018 -3.74614,1.69588 -4.575641,1.69588 h -0.4964 z m 23.541931,-0.85231 c -1.38246,-0.5003 -2.80573,-2.58362 -3.04224,-4.45313 -0.20541,-1.6237 0.47015,-4.28781 1.0873,-4.28781 0.40963,0 1.85767,1.50335 2.27156,2.35831 0.20156,0.41638 0.3965,1.1721 0.4332,1.67938 0.0631,0.87208 0.0896,0.92236 0.48748,0.9232 0.75567,0.002 1.61877,0.32714 2.18462,0.82396 0.30531,0.26806 0.51399,0.55392 0.46374,0.63523 -0.0503,0.0813 -0.007,0.12806 0.0957,0.10388 0.2158,-0.0507 1.08731,1.3988 0.93349,1.55262 -0.0563,0.0563 -0.59604,0.27653 -1.19952,0.48948 -1.22007,0.43054 -2.80295,0.50504 -3.7153,0.17488 z"
         id="path3734" /></g></g></svg>
