<?xml version="1.0" encoding="UTF-8" standalone="no"?>
<!-- Created with Inkscape (http://www.inkscape.org/) -->

<svg
   version="1.1"
   id="svg1"
   width="104.07708"
   height="156.68977"
   viewBox="0 0 104.07708 156.68977"
   sodipodi:docname="womanav8.svg"
   inkscape:version="1.2.2 (732a01da63, 2022-12-09)"
   xml:space="preserve"
   xmlns:inkscape="http://www.inkscape.org/namespaces/inkscape"
   xmlns:sodipodi="http://sodipodi.sourceforge.net/DTD/sodipodi-0.dtd"
   xmlns="http://www.w3.org/2000/svg"
   xmlns:svg="http://www.w3.org/2000/svg"><defs
     id="defs1" /><sodipodi:namedview
     id="namedview1"
     pagecolor="#ffffff"
     bordercolor="#cccccc"
     borderopacity="1"
     inkscape:showpageshadow="0"
     inkscape:pageopacity="1"
     inkscape:pagecheckerboard="0"
     inkscape:deskcolor="#d1d1d1"
     showgrid="false"
     inkscape:zoom="1.9480792"
     inkscape:cx="203.53382"
     inkscape:cy="129.87152"
     inkscape:window-width="1366"
     inkscape:window-height="705"
     inkscape:window-x="-8"
     inkscape:window-y="32"
     inkscape:window-maximized="1"
     inkscape:current-layer="g1" /><g
     inkscape:groupmode="layer"
     inkscape:label="Image"
     id="g1"
     transform="translate(233.43201,440.82801)"><path
       style="fill:#231f20;fill-opacity:1;stroke-width:0.486138"
       d="m -193.13369,-292.88095 c -16.08549,-3.77387 -29.19008,-13.63718 -35.23917,-26.52316 -2.57634,-5.4882 -3.28072,-9.84306 -1.98937,-12.29913 0.87724,-1.66841 4.3566,-4.97112 6.72339,-6.38202 l 1.82302,-1.08674 v 1.55316 c 0,2.64681 1.88913,9.53089 3.86665,14.09031 5.39251,12.43306 13.22696,21.2559 23.32244,26.26479 3.20831,1.59181 4.95794,1.80501 5.86304,0.71442 1.07686,-1.29754 0.18435,-2.9054 -2.28977,-4.12502 -13.22289,-6.51825 -23.43353,-20.74075 -25.9096,-36.08966 -0.68733,-4.26081 -0.26261,-5.43589 2.82399,-7.81307 2.85807,-2.20117 3.59023,-2.17233 6.76204,0.26628 3.44268,2.64686 7.61246,4.75899 11.81265,5.98349 2.52163,0.73514 4.68194,0.91635 10.69504,0.89704 8.03385,-0.0257 10.43773,-0.47915 18.13387,-3.42001 3.52945,-1.34867 4.03019,-1.89065 3.54242,-3.83411 -0.40797,-1.62548 -1.70807,-1.58362 -7.27482,0.23427 -4.4934,1.46737 -11.78467,2.92672 -14.62256,2.92672 -3.40089,0 -10.85249,-1.63774 -13.87662,-3.04984 -4.6645,-2.17807 -10.29114,-8.02064 -12.98072,-13.47885 -4.02071,-8.1596 -5.19626,-12.00802 -5.93986,-19.44551 -0.22722,-2.27269 -0.96558,-5.6635 -1.6408,-7.53513 -3.54537,-9.82728 -3.70053,-21.85744 -0.36623,-28.39321 0.99157,-1.94363 3.55567,-4.42109 4.57573,-4.42109 0.32376,0 1.67424,-1.1139 3.00107,-2.47534 8.74092,-8.96892 18.36298,-13.08107 30.60841,-13.08107 6.25524,0 9.47896,0.53345 14.61632,2.41867 8.56193,3.14192 17.24188,10.51864 21.39538,18.18305 1.74921,3.22779 1.87163,3.71727 1.80882,7.23236 -0.0755,4.22217 -1.16899,8.05989 -4.05107,14.21685 -1.7026,3.63724 -5.29025,9.64431 -5.31795,8.90424 -0.007,-0.18279 0.42391,-2.91732 0.95725,-6.07672 1.73727,-10.29151 1.02779,-23.48121 -1.5331,-28.50117 -0.77794,-1.52494 -1.16873,-1.82608 -2.20797,-1.70148 -2.08313,0.24976 -2.40104,1.36595 -1.45427,5.10586 1.55931,6.15946 1.90498,10.53705 1.33183,16.86638 -1.09555,12.09793 -4.39034,24.20692 -7.46925,27.45094 -2.14522,2.26025 -8.7267,7.32269 -12.31366,9.47161 -1.64349,0.98459 -3.11326,2.11619 -3.26618,2.51466 -0.38624,1.00656 0.11827,2.11697 1.23284,2.71347 2.19946,1.17712 10.79825,-4.55394 18.63334,-12.41904 8.00952,-8.04019 13.6381,-16.49624 17.48828,-26.27331 1.79124,-4.54868 1.86217,-4.63164 2.28387,-2.67108 0.80058,3.72203 1.00766,10.64598 0.43754,14.62988 -1.42847,9.98207 -4.98384,17.13238 -11.94375,24.02051 l -3.4436,3.40808 1.47793,2.10362 c 1.34307,1.91167 1.47565,2.44352 1.45283,5.82854 -0.029,4.29384 -0.75602,6.19043 -3.95558,10.31804 -2.27783,2.93852 -2.6217,4.51558 -1.15572,5.30015 1.36736,0.73178 1.7324,0.64588 3.47057,-0.8167 2.09413,-1.76209 4.73049,-5.96106 5.617,-8.94629 0.63907,-2.15193 0.83854,-2.38533 1.78705,-2.09098 2.02875,0.62954 6.26888,3.95054 7.1749,5.6196 0.54169,0.99789 -0.63866,4.60871 -2.59978,7.95296 -4.27725,7.29394 -11.63278,13.01955 -20.03608,15.59629 -4.11269,1.26108 -13.72108,1.27058 -18.71631,0.0185 -12.74178,-3.19382 -21.7094,-11.06075 -25.80949,-22.64162 -1.41356,-3.99265 -2.45248,-5.0476 -4.27617,-4.34216 -1.06707,0.41276 -1.1375,0.64275 -0.87513,2.85804 0.63381,5.35158 4.25916,12.05409 9.32765,17.24491 12.53452,12.837 33.1598,16.44779 48.81385,8.54565 7.49802,-3.78499 14.51119,-11.26574 17.52652,-18.69502 0.96086,-2.36744 1.2052,-2.63565 2.00905,-2.20544 2.93863,1.5727 3.02381,6.58091 0.21265,12.50043 -3.04949,6.42136 -6.9027,11.16048 -12.89929,15.86506 -4.08116,3.20186 -4.22905,3.29266 -9.96582,6.11867 -8.95447,4.41112 -15.47716,5.85907 -26.1094,5.79599 -5.25562,-0.0312 -8.50254,-0.29475 -11.08014,-0.89949 z m 29.50108,-26.98001 c 6.26591,-1.32365 8.2277,-2.76363 6.96908,-5.11538 -0.65552,-1.22485 -2.22778,-1.26898 -4.9829,-0.13989 -1.61133,0.66034 -3.43591,0.84504 -8.15265,0.82528 -5.44963,-0.0227 -6.42175,-0.16276 -9.42021,-1.35606 -3.15705,-1.25641 -3.39425,-1.28468 -4.25371,-0.50687 -1.71666,1.55355 -0.83762,3.34924 2.25057,4.59745 5.92681,2.39554 11.65994,2.94815 17.58982,1.69547 z m -29.25801,-34.4414 c 6.74418,-2.74246 11.9728,-7.1549 12.22158,-10.31386 0.39746,-5.04689 -3.26588,-17.71099 -7.33705,-25.36399 -4.43944,-8.34526 -10.75518,-16.14134 -15.81206,-19.51819 -6.53397,-4.36323 -9.80804,-3.03187 -12.27559,4.99172 -1.46291,4.75678 -1.53371,12.39697 -0.13767,14.85564 0.85373,1.5036 0.94958,2.45007 0.82416,8.13774 -0.10848,4.91878 0.0544,7.15379 0.69085,9.47969 1.72227,6.29418 7.33031,16.68584 10.02241,18.57148 1.96075,1.37336 7.29322,0.99375 11.80337,-0.84023 z m 18.04079,-13.84452 c 1.34734,-0.89139 2.86487,-5.56028 4.38238,-13.48287 1.23912,-6.46938 1.1206,-17.55352 -0.25136,-23.50247 -1.57614,-6.83428 -2.70735,-8.54821 -4.87593,-7.38761 -1.1382,0.60914 -1.33394,2.51632 -0.48525,4.72852 0.9554,2.49039 1.88858,9.56144 1.89719,14.37591 0.009,5.45042 -0.99794,12.83774 -2.48962,18.25138 -1.52755,5.54376 -1.54425,5.70809 -0.66907,6.58325 0.86769,0.8677 1.63421,1.00118 2.49166,0.43389 z"
       id="path2077" /></g></svg>
