<?xml version="1.0" encoding="UTF-8" standalone="no"?>
<!-- Created with Inkscape (http://www.inkscape.org/) -->

<svg
   version="1.1"
   id="svg1"
   width="95.649132"
   height="134.12941"
   viewBox="0 0 95.649132 134.12941"
   sodipodi:docname="womanav6.svg"
   inkscape:version="1.2.2 (732a01da63, 2022-12-09)"
   xml:space="preserve"
   xmlns:inkscape="http://www.inkscape.org/namespaces/inkscape"
   xmlns:sodipodi="http://sodipodi.sourceforge.net/DTD/sodipodi-0.dtd"
   xmlns="http://www.w3.org/2000/svg"
   xmlns:svg="http://www.w3.org/2000/svg"><defs
     id="defs1" /><sodipodi:namedview
     id="namedview1"
     pagecolor="#c3c3c3"
     bordercolor="#cccccc"
     borderopacity="1"
     inkscape:showpageshadow="0"
     inkscape:pageopacity="1"
     inkscape:pagecheckerboard="0"
     inkscape:deskcolor="#d1d1d1"
     showgrid="false"
     inkscape:zoom="1.9480792"
     inkscape:cx="190.18734"
     inkscape:cy="64.165769"
     inkscape:window-width="1366"
     inkscape:window-height="705"
     inkscape:window-x="-8"
     inkscape:window-y="32"
     inkscape:window-maximized="1"
     inkscape:current-layer="g1" /><g
     inkscape:groupmode="layer"
     inkscape:label="Image"
     id="g1"
     transform="translate(228.55166,430.26792)"><path
       style="fill:#000000;fill-opacity:1;stroke-width:0.443027"
       d="m -205.03418,-318.59953 -22.77876,-22.46102 0.47208,-1.3542 c 1.73446,-4.97547 5.9939,-8.59596 12.66244,-10.76297 l 1.69002,-0.54919 2.51873,2.78486 c 2.74405,3.03396 8.09267,7.19589 11.05211,8.59996 1.02716,0.48733 1.86986,1.04219 1.87266,1.23305 0.003,0.19084 -0.47093,1.28734 -1.05271,2.43664 -1.56961,3.10075 -3.51287,9.00235 -3.08281,9.36237 0.33561,0.28096 11.76815,4.04214 12.72684,4.18699 0.21464,0.0324 0.6623,-1.10374 0.99481,-2.52483 0.50163,-2.14396 1.33366,-3.53916 4.88768,-8.19599 4.74859,-6.22207 6.8242,-8.29802 8.66471,-8.66613 1.26446,-0.25289 3.44814,0.33387 3.44814,0.92652 0,0.18214 -0.84729,1.09217 -1.88286,2.02229 l -1.88286,1.69114 1.55058,-0.27766 c 6.46899,-1.15838 14.43443,-4.79662 22.91185,-10.46508 2.48944,-1.66456 4.74455,-3.02648 5.01137,-3.02648 0.26681,0 1.96433,0.7213 3.77227,1.60288 3.51405,1.71353 6.16487,4.18216 7.68011,7.15229 l 0.89525,1.75482 -3.63269,3.50519 c -1.99798,1.92785 -5.62631,5.39445 -8.06296,7.70355 -4.32822,4.10166 -18.36122,17.47428 -27.67736,26.37491 -2.56496,2.45055 -5.85973,5.56965 -7.32171,6.93133 l -2.65816,2.47578 z m 4.28068,-27.62902 c -3.68718,-2.48579 -9.31675,-7.69819 -9.08033,-8.40745 0.12161,-0.36482 7.56038,-3.42068 8.35025,-3.4303 0.14573,-0.002 0.62881,0.80359 1.07348,1.78971 0.85661,1.89959 3.56649,4.97429 5.70677,6.47503 l 1.28591,0.90165 -1.26771,2.5036 c -0.72396,1.42978 -1.56053,2.49934 -1.95043,2.49366 -0.37551,-0.005 -2.22858,-1.05214 -4.11794,-2.3259 z m 31.78322,1.902 c 0.14748,-0.23864 0.0526,-0.83672 -0.21096,-1.32908 -0.38015,-0.71035 -0.34404,-0.89522 0.17489,-0.89522 2.05692,0 0.79378,-2.14251 -2.14841,-3.6441 -1.44304,-0.73649 -2.32976,-0.85433 -5.09481,-0.6771 -2.34231,0.15013 -3.01506,0.0914 -2.24012,-0.19554 0.60916,-0.22556 4.098,-0.3502 7.75296,-0.27697 l 6.6454,0.13314 5.80112,-3.05893 5.80112,-3.05895 2.08222,1.00799 2.08222,1.00798 -1.45946,1.08914 c -4.23578,3.161 -9.84941,6.29461 -16.46673,9.19199 -2.90605,1.27241 -3.10098,1.32299 -2.71944,0.70565 z m -6.94432,-3.85601 c 0.31981,-0.12798 0.70192,-0.11224 0.84913,0.035 0.14722,0.14722 -0.11445,0.25193 -0.58146,0.23269 -0.51611,-0.0213 -0.62109,-0.12623 -0.26767,-0.26766 z m -18.26518,-4.67569 c -2.66512,-2.27808 -4.2461,-4.77228 -4.2461,-6.69882 0,-1.69 1.07047,-2.9174 1.96449,-2.25249 3.41594,2.54057 6.50648,4.30045 8.88967,5.06212 2.72295,0.87027 2.71874,0.9074 -0.28365,2.49958 -1.54965,0.82179 -3.13379,1.87477 -3.52031,2.33997 -0.68064,0.81919 -0.76891,0.78927 -2.8041,-0.95036 z m 13.91799,-1.22404 c 0.60916,-0.19509 1.60597,-0.35099 2.21513,-0.34646 0.99486,0.008 0.97232,0.0427 -0.22151,0.34646 -0.731,0.186 -1.7278,0.34191 -2.21514,0.34645 -0.6943,0.006 -0.64637,-0.0685 0.22152,-0.34645 z m 9.52506,-0.003 c -0.97465,-0.21415 -2.76891,-0.42516 -3.98723,-0.46892 l -2.21513,-0.0795 2.65815,-0.37842 c 3.2416,-0.4615 4.65178,-1.04981 4.65178,-1.94068 0,-0.864 0.0531,-0.85781 -7.53145,-0.87824 -7.07764,-0.0191 -8.44218,-0.34939 -13.43902,-3.25328 -3.25323,-1.89059 -8.23281,-6.56221 -10.7057,-10.04364 -6.19928,-8.72747 -9.9683,-21.47802 -9.9683,-33.72253 0,-8.98415 1.44723,-11.45562 10.21053,-17.4367 8.50258,-5.80314 14.35965,-7.98072 21.46585,-7.98072 8.12117,0 15.75416,3.16712 21.46213,8.90519 7.50107,7.5406 8.73076,17.88996 3.78294,31.83805 -1.68933,4.76229 -5.08799,10.73268 -9.31953,16.3715 -2.01984,2.69157 -3.45949,4.89377 -3.19922,4.89377 0.26026,0 1.39087,-0.7313 2.51246,-1.62511 8.60388,-6.85657 14.70915,-19.6851 15.43049,-32.42293 l 0.26517,-4.68277 0.63035,1.7551 c 1.9812,5.51643 2.47743,8.76084 2.50456,16.37498 0.0352,9.87965 -1.07363,14.73443 -5.48356,24.00892 -2.40847,5.06524 -2.91193,5.51276 -10.20021,9.06705 -3.98649,1.94411 -6.42769,2.37954 -9.52506,1.69899 z m 2.21513,-5.5868 c 3.62613,-0.76989 8.32015,-3.02773 11.69249,-5.62414 2.39654,-1.84511 6.14646,-6.31579 5.68479,-6.77744 -0.13554,-0.13555 -1.50918,0.73142 -3.05252,1.92661 -5.85281,4.53249 -11.3155,7.25136 -20.02912,9.96884 -2.31359,0.72152 -2.84632,1.02977 -2.21513,1.28165 0.98336,0.39241 3.64723,0.13155 7.91949,-0.77552 z m -19.27164,-7.28633 c 2.13627,-0.48154 7.81622,-3.58088 11.07566,-6.04357 3.68785,-2.78638 4.36626,-5.76754 2.61519,-11.49203 -1.14416,-3.74043 -4.61418,-10.77753 -7.25537,-14.71366 -4.73608,-7.05814 -12.71238,-14.79318 -17.17915,-16.65952 -2.10031,-0.87756 -3.31695,-0.35281 -4.92383,2.12369 -3.01896,4.65282 -3.49031,10.05664 -1.87636,21.51142 0.99369,7.05252 1.37426,8.65981 2.83332,11.96621 2.40469,5.4493 7.30159,12.60756 9.1306,13.34708 1.26442,0.51122 3.19711,0.4975 5.57994,-0.0396 z m 18.89967,-11.66644 c 0.584,-1.48714 1.45485,-4.32603 1.93521,-6.30865 1.66147,-6.85728 0.97899,-18.71427 -1.46868,-25.51595 -0.84746,-2.35497 -1.37592,-2.63889 -1.04616,-0.56205 1.42916,9.00082 1.3538,17.66404 -0.24279,27.91065 -1.35102,8.67055 -1.38433,9.02124 -0.76189,8.02021 0.28737,-0.46217 1.00031,-2.05707 1.58431,-3.54421 z m -50.27554,20.76811 c -5.31234,-1.29552 -7.1292,-2.64123 -8.49523,-6.29226 -0.48802,-1.30438 -0.88732,-2.4638 -0.88732,-2.57649 0,-0.52232 4.68281,-0.12662 6.02196,0.50885 2.39885,1.13833 5.09266,4.66726 6.13427,8.03603 0.346,1.11902 0.44126,1.1079 -2.77368,0.32387 z m 5.97569,-1.83755 c -0.16244,-0.16244 -0.29534,-1.0515 -0.29534,-1.97569 0,-1.26236 0.30192,-1.9603 1.21378,-2.80583 1.52434,-1.41344 1.73044,-1.40623 2.01272,0.0704 0.25758,1.34747 -0.28637,3.07453 -1.33238,4.23036 -0.75455,0.83376 -1.13221,0.94732 -1.59878,0.48076 z m -7.38589,-9.45635 c -0.771,-1.86136 -0.34732,-5.3482 0.85502,-7.03672 0.79684,-1.11908 3.76771,-3.14776 4.60967,-3.14776 0.42749,0 0.60709,4.2092 0.23682,5.55022 -0.3851,1.39471 -4.06392,5.96846 -4.80064,5.96846 -0.19152,0 -0.59692,-0.60039 -0.90087,-1.3342 z m -5.04113,-6.64155 c -1.3835,-1.53137 -1.59789,-2.06038 -1.571,-3.87648 0.0172,-1.15671 0.17653,-2.47272 0.35424,-2.92449 0.29949,-0.7614 0.43109,-0.73054 1.80121,0.42233 2.15555,1.81378 2.82145,3.68031 2.19729,6.15906 -0.276,1.09613 -0.65433,1.99297 -0.84072,1.99297 -0.18638,0 -1.05984,-0.79803 -1.94102,-1.77339 z"
       id="path965" /></g></svg>
