<?xml version="1.0" encoding="UTF-8" standalone="no"?>
<!-- Created with Inkscape (http://www.inkscape.org/) -->

<svg
   version="1.1"
   id="svg1"
   width="101.23256"
   height="156.76875"
   viewBox="0 0 101.23256 156.76875"
   sodipodi:docname="womanav13.svg"
   inkscape:version="1.2.2 (732a01da63, 2022-12-09)"
   xml:space="preserve"
   xmlns:inkscape="http://www.inkscape.org/namespaces/inkscape"
   xmlns:sodipodi="http://sodipodi.sourceforge.net/DTD/sodipodi-0.dtd"
   xmlns="http://www.w3.org/2000/svg"
   xmlns:svg="http://www.w3.org/2000/svg"><defs
     id="defs1" /><sodipodi:namedview
     id="namedview1"
     pagecolor="#ffffff"
     bordercolor="#cccccc"
     borderopacity="1"
     inkscape:showpageshadow="0"
     inkscape:pageopacity="1"
     inkscape:pagecheckerboard="0"
     inkscape:deskcolor="#d1d1d1"
     showgrid="false"
     inkscape:zoom="2"
     inkscape:cx="26.75"
     inkscape:cy="43"
     inkscape:window-width="1366"
     inkscape:window-height="705"
     inkscape:window-x="-8"
     inkscape:window-y="32"
     inkscape:window-maximized="1"
     inkscape:current-layer="g1" /><g
     inkscape:groupmode="layer"
     inkscape:label="Image"
     id="g1"
     transform="translate(232.8272,442.81585)"><g
       id="g3419"
       transform="translate(-269.48485,-358.23968)"><path
         style="fill:#d0d0d0;fill-opacity:1;stroke-width:0.16"
         d="m 62.321307,66.978431 c 0.11,-0.04439 0.29,-0.04439 0.4,0 0.11,0.04439 0.02,0.0807 -0.2,0.0807 -0.22,0 -0.31,-0.03632 -0.2,-0.0807 z m 17.972632,-0.307368 c 0.0077,-0.186392 0.04559,-0.224304 0.09667,-0.09667 0.04622,0.115499 0.04054,0.253501 -0.01262,0.306667 -0.05317,0.05317 -0.09098,-0.04133 -0.08404,-0.21 z m -9.194538,-2.815944 c 0.04621,-0.07477 0.151042,-0.09452 0.232962,-0.04389 0.209341,0.129379 0.18577,0.179833 -0.08402,0.179833 -0.128129,0 -0.195153,-0.06117 -0.148944,-0.135944 z m 3.127168,-4.770723 c 0,-0.22 0.03632,-0.31 0.0807,-0.2 0.04439,0.11 0.04439,0.29 0,0.4 -0.04439,0.11 -0.0807,0.02 -0.0807,-0.2 z m -31.359999,-0.64 c 0,-0.22 0.03632,-0.31 0.0807,-0.2 0.04439,0.11 0.04439,0.29 0,0.4 -0.04439,0.11 -0.0807,0.02 -0.0807,-0.2 z m 84.10474,0.210702 c 0.1155,-0.04622 0.2535,-0.04054 0.30666,0.01262 0.0532,0.05317 -0.0413,0.09098 -0.21,0.08404 -0.18639,-0.0077 -0.2243,-0.04559 -0.0967,-0.09667 z m 5.98712,-6.290702 c 0,-0.308 0.0329,-0.434 0.0732,-0.28 0.0402,0.154 0.0402,0.406 0,0.56 -0.0402,0.154 -0.0732,0.028 -0.0732,-0.28 z m -79.877123,-0.72 c 0,-0.132 0.0283,-0.24 0.06288,-0.24 0.03458,0 0.104324,0.108 0.154979,0.24 0.05065,0.132 0.02235,0.24 -0.06288,0.24 -0.08524,0 -0.154979,-0.108 -0.154979,-0.24 z m -14.08,-2.24 c 0.206679,-0.22 0.41178,-0.4 0.45578,-0.4 0.044,0 -0.0891,0.18 -0.29578,0.4 -0.206679,0.22 -0.41178,0.4 -0.45578,0.4 -0.044,0 0.0891,-0.18 0.29578,-0.4 z m 18.53959,-1.96 c -0.199019,-0.25377 -0.19336,-0.259429 0.06041,-0.06041 0.26652,0.20902 0.351277,0.34041 0.21959,0.34041 -0.03322,0 -0.159224,-0.126 -0.28,-0.28 z m -13.29959,-1.585965 c 0.11,-0.04439 0.29,-0.04439 0.4,0 0.11,0.04439 0.02,0.0807 -0.2,0.0807 -0.22,0 -0.31,-0.03632 -0.2,-0.0807 z m 52.65959,-0.174035 c -0.199019,-0.25377 -0.19336,-0.259429 0.06041,-0.06041 0.154,0.120776 0.28,0.246776 0.28,0.28 0,0.131687 -0.13139,0.04693 -0.34041,-0.21959 z m -1.7517,-1.6 -0.38789,-0.44 0.44,0.38789 c 0.411246,0.362542 0.513374,0.49211 0.38789,0.49211 -0.02866,0 -0.22666,-0.198 -0.44,-0.44 z m -42.842627,-0.2 c 0,-0.22 0.03632,-0.31 0.0807,-0.2 0.04439,0.11 0.04439,0.29 0,0.4 -0.04439,0.11 -0.0807,0.02 -0.0807,-0.2 z m 11.474327,-3.16 c -0.199019,-0.25377 -0.19336,-0.259429 0.06041,-0.06041 0.154,0.120776 0.28,0.246776 0.28,0.28 0,0.131687 -0.13139,0.04693 -0.34041,-0.21959 z m -14.493828,-0.6 c 0.0012,-0.44 0.03227,-0.60101 0.06905,-0.3578 0.03678,0.24321 0.03579,0.60321 -0.0022,0.8 -0.03798,0.19679 -0.06807,-0.0022 -0.06687,-0.4422 z m 41.702128,-0.2 -0.38789,-0.44 0.44,0.38789 c 0.411246,0.362542 0.513374,0.49211 0.38789,0.49211 -0.02866,0 -0.22666,-0.198 -0.44,-0.44 z m 26.222113,-5.589298 c 0.1155,-0.04622 0.2535,-0.04054 0.30666,0.01262 0.0532,0.05317 -0.0413,0.09098 -0.21,0.08404 -0.18639,-0.0077 -0.2243,-0.04559 -0.0967,-0.09667 z M 95.460897,33.524396 c -0.199019,-0.25377 -0.19336,-0.259429 0.06041,-0.06041 0.154,0.120776 0.28,0.246776 0.28,0.28 0,0.131687 -0.13139,0.04693 -0.34041,-0.21959 z m 0.8083,-0.48 -0.38789,-0.44 0.44,0.38789 c 0.411246,0.362542 0.513374,0.49211 0.38789,0.49211 -0.02866,0 -0.22666,-0.198 -0.44,-0.44 z m -11.3683,-1.28 c -0.199019,-0.25377 -0.19336,-0.259429 0.06041,-0.06041 0.154,0.120776 0.28,0.246776 0.28,0.28 0,0.131687 -0.13139,0.04693 -0.34041,-0.21959 z m 14.56,-5.76 c -0.199019,-0.25377 -0.19336,-0.259429 0.06041,-0.06041 0.154,0.120776 0.28,0.246776 0.28,0.28 0,0.131687 -0.13139,0.04693 -0.34041,-0.21959 z m -3.5117,-5.6 -0.38789,-0.44 0.44,0.38789 c 0.411246,0.362542 0.513374,0.49211 0.38789,0.49211 -0.02866,0 -0.22666,-0.198 -0.44,-0.44 z m 6.071703,-4.48 c -0.19902,-0.25377 -0.19336,-0.259429 0.0604,-0.06041 0.26652,0.20902 0.35127,0.34041 0.21959,0.34041 -0.0332,0 -0.15923,-0.126 -0.28,-0.28 z m -54.03433,-14.92 c 0,-0.22 0.03632,-0.31 0.0807,-0.2 0.04439,0.11 0.04439,0.29 0,0.4 -0.04439,0.11 -0.0807,0.02 -0.0807,-0.2 z m 55.07954,-6.44 -0.3048,-0.36 0.36,0.3047984 c 0.198,0.1676384 0.36,0.3296384 0.36,0.36 0,0.12804 -0.12877,0.033512 -0.4152,-0.3047984 z m -2.64521,-4.88 c -0.19902,-0.25377 -0.19336,-0.259429 0.0604,-0.06041 0.154,0.120776 0.28,0.246776 0.28,0.28 0,0.1316868 -0.13139,0.04693 -0.34041,-0.21959 z m 18.14041,-5.590293 c 0.154,-0.04024 0.406,-0.04024 0.56,0 0.154,0.04024 0.028,0.07317 -0.28,0.07317 -0.308,0 -0.434,-0.03293 -0.28,-0.07317 z m 1.36,-0.0026 c 0.198,-0.03814 0.522,-0.03814 0.72,0 0.198,0.03814 0.036,0.06934 -0.36,0.06934 -0.396,0 -0.558,-0.0312 -0.36,-0.06934 z M 40.172519,-18.67558 c 0,-0.572 0.02904,-0.806 0.06453,-0.52 0.03549,0.286 0.03549,0.754 0,1.04 -0.03549,0.286 -0.06453,0.052 -0.06453,-0.52 z m 89.048381,-23.64 c -0.19902,-0.25377 -0.19336,-0.259429 0.0604,-0.06041 0.26652,0.20902 0.35127,0.34041 0.21959,0.34041 -0.0332,0 -0.15923,-0.126 -0.28,-0.28 z m -31.794331,-5.48 c 0,-0.22 0.03632,-0.31 0.0807,-0.2 0.04439,0.11 0.04439,0.29 0,0.4 -0.04439,0.11 -0.0807,0.02 -0.0807,-0.2 z m 23.200001,-16.16 c 0,-0.22 0.0363,-0.31 0.0807,-0.2 0.0444,0.11 0.0444,0.29 0,0.4 -0.0444,0.11 -0.0807,0.02 -0.0807,-0.2 z m -61.225263,-7.2 c 0.159278,-0.176 0.325597,-0.32 0.369597,-0.32 0.044,0 -0.05032,0.144 -0.209597,0.32 -0.159278,0.176 -0.325597,0.32 -0.369597,0.32 -0.044,0 0.05032,-0.144 0.209597,-0.32 z"
         id="path3435" /><path
         style="fill:#b9b9b9;fill-opacity:1;stroke-width:0.16"
         d="m 65.203173,63.291234 c 0.199025,-0.03827 0.487025,-0.03682 0.64,0.0032 0.152974,0.04005 -0.0099,0.07136 -0.361866,0.06958 -0.352,-0.0018 -0.47716,-0.03454 -0.278134,-0.07281 z m 72.530767,-4.300171 c 0.008,-0.186392 0.0456,-0.224304 0.0967,-0.09667 0.0462,0.115499 0.0405,0.253501 -0.0126,0.306667 -0.0532,0.05317 -0.091,-0.04133 -0.084,-0.21 z m -70.092633,0.03292 c 0,-0.03322 0.126,-0.159224 0.28,-0.28 0.25377,-0.199019 0.259429,-0.19336 0.06041,0.06041 -0.20902,0.26652 -0.34041,0.351277 -0.34041,0.21959 z M 42.86657,57.804396 c 0,-0.22 0.03632,-0.31 0.0807,-0.2 0.04439,0.11 0.04439,0.29 0,0.4 -0.04439,0.11 -0.0807,0.02 -0.0807,-0.2 z m 8.805929,-3.28 c 0.0033,-0.264 0.03912,-0.35263 0.07969,-0.196955 0.04057,0.155675 0.0379,0.371675 -0.0059,0.48 -0.04383,0.108325 -0.07702,-0.01904 -0.07376,-0.283045 z m 1.44,-2.24 c 0.0033,-0.264 0.03912,-0.35263 0.07969,-0.196955 0.04057,0.155675 0.0379,0.371675 -0.0059,0.48 -0.04383,0.108325 -0.07702,-0.01905 -0.07376,-0.283045 z m -0.0059,-1.2 c 0,-0.22 0.03632,-0.31 0.0807,-0.2 0.04439,0.11 0.04439,0.29 0,0.4 -0.04438,0.11 -0.0807,0.02 -0.0807,-0.2 z m 1.26737,-2.013333 c 0.0077,-0.186392 0.04559,-0.224304 0.09667,-0.09667 0.04622,0.115499 0.04054,0.253501 -0.01262,0.306667 -0.05317,0.05317 -0.09098,-0.04133 -0.08404,-0.21 z M 52.14657,48.204396 c 0,-0.22 0.03632,-0.31 0.0807,-0.2 0.04439,0.11 0.04439,0.29 0,0.4 -0.04439,0.11 -0.0807,0.02 -0.0807,-0.2 z m 34.514327,-14.84 c -0.199019,-0.25377 -0.19336,-0.259429 0.06041,-0.06041 0.154,0.120776 0.28,0.246776 0.28,0.28 0,0.131687 -0.13139,0.04693 -0.34041,-0.21959 z m 12.32,-7.84 c -0.199019,-0.25377 -0.19336,-0.259429 0.06041,-0.06041 0.154,0.120776 0.28,0.246776 0.28,0.28 0,0.131687 -0.13139,0.04693 -0.34041,-0.21959 z m -1.28,-3.52 c -0.199019,-0.25377 -0.19336,-0.259429 0.06041,-0.06041 0.154,0.120776 0.28,0.246776 0.28,0.28 0,0.131687 -0.13139,0.04693 -0.34041,-0.21959 z m 6.088303,-5.44 -0.38789,-0.44 0.44,0.38789 c 0.41124,0.362542 0.51337,0.49211 0.38789,0.49211 -0.0287,0 -0.22666,-0.198 -0.44,-0.44 z m -12.389506,-0.68261 c -0.05527,-0.08943 -0.178648,-0.11431 -0.274165,-0.05528 -0.106153,0.06561 -0.127417,0.0325 -0.0547,-0.08516 0.09109,-0.147395 0.171855,-0.148597 0.344722,-0.0051 0.22643,0.18792 0.286992,0.308178 0.155198,0.308178 -0.03881,0 -0.115782,-0.07317 -0.171056,-0.16261 z M 104.1009,-4.395604 c -0.19902,-0.2537696 -0.19336,-0.2594288 0.0604,-0.06041 0.26652,0.2090192 0.35127,0.3404096 0.21959,0.3404096 -0.0332,0 -0.15923,-0.126 -0.28,-0.28 z m -2.08,-2.08 c -0.19902,-0.2537696 -0.19336,-0.2594288 0.0604,-0.06041 0.154,0.120776 0.28,0.246776 0.28,0.28 0,0.1316864 -0.13139,0.04693 -0.34041,-0.2195904 z m 8.36567,-7.24 c 0,-0.22 0.0363,-0.31 0.0807,-0.2 0.0444,0.11 0.0444,0.29 0,0.4 -0.0444,0.11 -0.0807,0.02 -0.0807,-0.2 z m 15.84593,-6 c 0.003,-0.264 0.0391,-0.35263 0.0797,-0.196955 0.0406,0.155675 0.0379,0.371675 -0.006,0.48 -0.0438,0.108325 -0.077,-0.01904 -0.0738,-0.283045 z m 3.55361,-22.04 -0.3048,-0.36 0.36,0.304798 c 0.198,0.167639 0.36,0.329639 0.36,0.36 0,0.12804 -0.12877,0.03351 -0.4152,-0.304798 z m -3.12521,-3.12 c -0.19902,-0.25377 -0.19336,-0.259429 0.0604,-0.06041 0.154,0.120776 0.28,0.246776 0.28,0.28 0,0.131687 -0.13139,0.04693 -0.34041,-0.21959 z"
         id="path3433" /><path
         style="fill:#a3a3a3;fill-opacity:1;stroke-width:0.16"
         d="m 124.09131,72.095098 c 0.1155,-0.04622 0.2535,-0.04054 0.30666,0.01262 0.0532,0.05317 -0.0413,0.09098 -0.21,0.08404 -0.18639,-0.0077 -0.2243,-0.04559 -0.0967,-0.09667 z m 6.72,0 c 0.1155,-0.04622 0.2535,-0.04054 0.30666,0.01262 0.0532,0.05317 -0.0413,0.09098 -0.21,0.08404 -0.18639,-0.0077 -0.2243,-0.04559 -0.0967,-0.09667 z m 6.92263,-12.624035 c 0.008,-0.186392 0.0456,-0.224304 0.0967,-0.09667 0.0462,0.115499 0.0405,0.253501 -0.0126,0.306667 -0.0532,0.05317 -0.091,-0.04133 -0.084,-0.21 z m -85.920001,-7.2 c 0.0077,-0.186392 0.04559,-0.224304 0.09667,-0.09667 0.04622,0.115499 0.04054,0.253501 -0.01263,0.306667 -0.05317,0.05317 -0.09098,-0.04133 -0.08404,-0.21 z m 0.510946,-6.946667 c 0,-0.396 0.0312,-0.558 0.06934,-0.36 0.03814,0.198 0.03814,0.522 0,0.72 -0.03814,0.198 -0.06934,0.036 -0.06934,-0.36 z m 43.456012,-0.6 c -0.199019,-0.25377 -0.19336,-0.259429 0.06041,-0.06041 0.154,0.120776 0.28,0.246776 0.28,0.28 0,0.131687 -0.13139,0.04693 -0.34041,-0.21959 z m -43.46247,-1.8 c 0,-0.308 0.03293,-0.434 0.07317,-0.28 0.04024,0.154 0.04024,0.406 0,0.56 -0.04024,0.154 -0.07317,0.028 -0.07317,-0.28 z m 37.86247,-6.36 c -0.199019,-0.25377 -0.19336,-0.259429 0.06041,-0.06041 0.26652,0.20902 0.351277,0.34041 0.21959,0.34041 -0.03322,0 -0.159224,-0.126 -0.28,-0.28 z m -1.76,-1.6 c -0.199019,-0.25377 -0.19336,-0.259429 0.06041,-0.06041 0.26652,0.20902 0.351277,0.34041 0.21959,0.34041 -0.03322,0 -0.159224,-0.126 -0.28,-0.28 z m -4,-3.68 c -0.199019,-0.25377 -0.19336,-0.259429 0.06041,-0.06041 0.26652,0.20902 0.351277,0.34041 0.21959,0.34041 -0.03322,0 -0.159224,-0.126 -0.28,-0.28 z m -37.38247,-4.52 c 0,-0.308 0.03293,-0.434 0.07317,-0.28 0.04024,0.154 0.04024,0.406 0,0.56 -0.04024,0.154 -0.07317,0.028 -0.07317,-0.28 z m -2.104488,-1.853333 c 0.0077,-0.186392 0.04559,-0.224304 0.09667,-0.09667 0.04622,0.115499 0.04053,0.253501 -0.01263,0.306667 -0.05317,0.05317 -0.09098,-0.04133 -0.08404,-0.21 z m 50.058755,-5.466667 -0.551387,-0.6 0.6,0.551387 c 0.33,0.303263 0.6,0.573263 0.6,0.6 0,0.122179 -0.135395,0.0071 -0.648613,-0.551387 z m -2.166589,-2.16 -0.304798,-0.36 0.36,0.304798 c 0.33831,0.286436 0.432838,0.415202 0.304798,0.415202 -0.03036,0 -0.192361,-0.162 -0.36,-0.36 z m 9.994795,-0.56 c -0.19902,-0.25377 -0.19336,-0.259429 0.0604,-0.06041 0.154,0.120776 0.28,0.246776 0.28,0.28 0,0.131687 -0.13139,0.04693 -0.34041,-0.21959 z m -10.871703,-0.32 -0.38789,-0.44 0.44,0.38789 c 0.411246,0.362542 0.513374,0.49211 0.38789,0.49211 -0.02866,0 -0.22666,-0.198 -0.44,-0.44 z m 23.572113,-2.3946 c 0.242,-0.03666 0.638,-0.03666 0.88,0 0.242,0.03666 0.044,0.06665 -0.44,0.06665 -0.484,0 -0.682,-0.02999 -0.44,-0.06665 z m -18.120003,-61.3254 c 0,-0.088 0.07625,-0.16 0.169443,-0.16 0.09319,0 0.124944,0.072 0.07056,0.16 -0.05439,0.088 -0.130637,0.16 -0.169443,0.16 -0.03881,0 -0.07056,-0.072 -0.07056,-0.16 z m -9.95,-37.229298 c 0.115499,-0.04622 0.253501,-0.04054 0.306667,0.01263 0.05317,0.05317 -0.04133,0.09098 -0.21,0.08404 -0.186392,-0.0077 -0.224304,-0.04559 -0.09667,-0.09667 z m 6.88,0 c 0.115499,-0.04622 0.253501,-0.04054 0.306667,0.01263 0.05317,0.05317 -0.04133,0.09098 -0.21,0.08404 -0.186392,-0.0077 -0.224304,-0.04559 -0.09667,-0.09667 z"
         id="path3431" /><path
         style="fill:#8c8c8c;fill-opacity:1;stroke-width:0.16"
         d="m 132.08131,65.698431 c 0.11,-0.04439 0.29,-0.04439 0.4,0 0.11,0.04439 0.02,0.0807 -0.2,0.0807 -0.22,0 -0.31,-0.03632 -0.2,-0.0807 z m 2.09,-0.0033 c 0.1155,-0.04622 0.2535,-0.04054 0.30666,0.01262 0.0532,0.05317 -0.0413,0.09098 -0.21,0.08404 -0.18639,-0.0077 -0.2243,-0.04559 -0.0967,-0.09667 z m 3.58712,-5.490707 c 0,-0.308 0.0329,-0.434 0.0732,-0.28 0.0402,0.154 0.0402,0.406 0,0.56 -0.0403,0.154 -0.0732,0.028 -0.0732,-0.28 z m -15.26712,-1.549298 c 0.1155,-0.04622 0.2535,-0.04054 0.30666,0.01262 0.0532,0.05317 -0.0413,0.09098 -0.21,0.08404 -0.18639,-0.0077 -0.2243,-0.04559 -0.0967,-0.09667 z m -59.612883,-3.73073 c 0,-0.308 0.03293,-0.434 0.07317,-0.28 0.04024,0.154 0.04024,0.406 0,0.56 -0.04024,0.154 -0.07317,0.028 -0.07317,-0.28 z m -22.62712,-0.109298 c 0.1155,-0.04622 0.2535,-0.04054 0.306667,0.01262 0.05317,0.05317 -0.04133,0.09098 -0.21,0.08404 -0.186391,-0.0077 -0.224304,-0.04559 -0.09667,-0.09667 z m 18.27,-0.271112 c 0,-0.03322 0.126,-0.159224 0.28,-0.28 0.25377,-0.199019 0.259429,-0.19336 0.06041,0.06041 -0.20902,0.26652 -0.34041,0.351277 -0.34041,0.21959 z m -5.427368,-1.472923 c 0.0077,-0.186392 0.04559,-0.224304 0.09667,-0.09667 0.04622,0.115499 0.04054,0.253501 -0.01262,0.306667 -0.05317,0.05317 -0.09098,-0.04133 -0.08404,-0.21 z m -8.652632,-2.527077 c 0,-0.03322 0.126,-0.159224 0.28,-0.28 0.253769,-0.199019 0.259428,-0.19336 0.06041,0.06041 -0.209019,0.26652 -0.340409,0.351277 -0.34041,0.21959 z m 0.943258,-0.934659 c 0.335077,-0.380376 0.656742,-0.463062 0.656742,-0.168822 0,0.05347 -0.04866,0.04857 -0.10813,-0.01091 -0.05947,-0.05947 -0.293472,0.05453 -0.52,0.253333 l -0.41187,0.36147 z m 6.909374,-7.418264 c 0.0077,-0.186392 0.04559,-0.224304 0.09667,-0.09667 0.04622,0.115499 0.04053,0.253501 -0.01263,0.306667 -0.05317,0.05317 -0.09098,-0.04133 -0.08404,-0.21 z m 47.175258,-5.946667 -0.38789,-0.44 0.44,0.38789 c 0.411246,0.362542 0.513373,0.49211 0.38789,0.49211 -0.02866,0 -0.22666,-0.198 -0.44,-0.44 z m -3.2,-1.92 -0.38789,-0.44 0.44,0.38789 c 0.411246,0.362542 0.513374,0.49211 0.38789,0.49211 -0.02866,0 -0.22666,-0.198 -0.44,-0.44 z m 0.9517,-0.32 c -0.199019,-0.25377 -0.19336,-0.259429 0.06041,-0.06041 0.154,0.120776 0.28,0.246776 0.28,0.28 0,0.131687 -0.13139,0.04693 -0.34041,-0.21959 z m 23.393043,-4.613333 c 0.008,-0.186392 0.0456,-0.224304 0.0967,-0.09667 0.0462,0.115499 0.0405,0.253501 -0.0126,0.306667 -0.0532,0.05317 -0.091,-0.04133 -0.084,-0.21 z m 0,-3.04 c 0.008,-0.186392 0.0456,-0.224304 0.0967,-0.09667 0.0462,0.115499 0.0405,0.253501 -0.0126,0.306667 -0.0532,0.05317 -0.091,-0.04133 -0.084,-0.21 z m -75.680001,-0.96 c 0.0077,-0.186392 0.04559,-0.224304 0.09667,-0.09667 0.04622,0.115499 0.04053,0.253501 -0.01263,0.306667 -0.05317,0.05317 -0.09098,-0.04133 -0.08404,-0.21 z m 53.406958,-0.506667 c -0.199019,-0.25377 -0.19336,-0.259429 0.06041,-0.06041 0.154,0.120776 0.28,0.246776 0.28,0.28 0,0.131687 -0.13139,0.04693 -0.34041,-0.21959 z m -53.388398,-2.2 c 0.0033,-0.264 0.03912,-0.35263 0.07969,-0.196955 0.04057,0.155675 0.0379,0.371675 -0.0059,0.48 -0.04383,0.108325 -0.07702,-0.01905 -0.07376,-0.283045 z m 58.348401,-5.48 c -0.19902,-0.25377 -0.19336,-0.259429 0.0604,-0.06041 0.26652,0.20902 0.35127,0.34041 0.21959,0.34041 -0.0332,0 -0.15923,-0.126 -0.28,-0.28 z m 7.35041,-5.749298 c 0.1155,-0.04622 0.2535,-0.04054 0.30666,0.01262 0.0532,0.05317 -0.0413,0.09098 -0.21,0.08404 -0.18639,-0.0077 -0.2243,-0.04559 -0.0967,-0.09667 z m 2.92263,-8.4640348 c 0.008,-0.186392 0.0456,-0.224304 0.0967,-0.096667 0.0462,0.1154992 0.0405,0.2535008 -0.0126,0.3066672 -0.0532,0.053166 -0.091,-0.041334 -0.084,-0.21 z m 13.13263,-37.0266672 c 0,-0.22 0.0363,-0.31 0.0807,-0.2 0.0444,0.11 0.0444,0.29 0,0.4 -0.0444,0.11 -0.0807,0.02 -0.0807,-0.2 z"
         id="path3429" /><path
         style="fill:#767676;fill-opacity:1;stroke-width:0.16"
         d="m 46.491307,62.495098 c 0.1155,-0.04622 0.2535,-0.04054 0.306667,0.01262 0.05317,0.05317 -0.04133,0.09098 -0.21,0.08404 -0.186391,-0.0077 -0.224304,-0.04559 -0.09667,-0.09667 z m 78.390003,-3.676667 c 0.11,-0.04438 0.29,-0.04438 0.4,0 0.11,0.04439 0.02,0.0807 -0.2,0.0807 -0.22,0 -0.31,-0.03632 -0.2,-0.0807 z m -54.240003,-2.56 c 0.11,-0.04438 0.29,-0.04438 0.4,0 0.11,0.04439 0.02,0.0807 -0.2,0.0807 -0.22,0 -0.31,-0.03632 -0.2,-0.0807 z m 54.720003,0 c 0.11,-0.04438 0.29,-0.04438 0.4,0 0.11,0.04439 0.02,0.0807 -0.2,0.0807 -0.22,0 -0.31,-0.03632 -0.2,-0.0807 z m 2.08,0 c 0.11,-0.04438 0.29,-0.04438 0.4,0 0.11,0.04439 0.02,0.0807 -0.2,0.0807 -0.22,0 -0.31,-0.03632 -0.2,-0.0807 z M 52.133939,48.751063 c 0.0077,-0.186392 0.04559,-0.224304 0.09667,-0.09667 0.04622,0.115499 0.04054,0.253501 -0.01263,0.306667 -0.05317,0.05317 -0.09098,-0.04133 -0.08404,-0.21 z m -9.642632,-0.815965 c 0.1155,-0.04622 0.2535,-0.04054 0.306667,0.01262 0.05317,0.05317 -0.04133,0.09098 -0.21,0.08404 -0.186391,-0.0077 -0.224304,-0.04559 -0.09667,-0.09667 z m 20.414798,-4.730702 -0.304798,-0.36 0.36,0.304798 c 0.33831,0.286436 0.432838,0.415202 0.304798,0.415202 -0.03036,0 -0.192361,-0.162 -0.36,-0.36 z m -0.08521,-3.6 c -0.199019,-0.25377 -0.19336,-0.259429 0.06041,-0.06041 0.26652,0.20902 0.351277,0.34041 0.21959,0.34041 -0.03322,0 -0.159224,-0.126 -0.28,-0.28 z m 57.740415,-0.145965 c 0.11,-0.04438 0.29,-0.04438 0.4,0 0.11,0.04439 0.02,0.0807 -0.2,0.0807 -0.22,0 -0.31,-0.03632 -0.2,-0.0807 z M 83.620897,30.484396 c -0.199019,-0.25377 -0.19336,-0.259429 0.06041,-0.06041 0.154,0.120776 0.28,0.246776 0.28,0.28 0,0.131687 -0.13139,0.04693 -0.34041,-0.21959 z m -1.170171,-1.085088 c -0.170819,-0.129202 -0.233635,-0.234912 -0.13959,-0.234912 0.09404,0 0.260621,0.108 0.370171,0.24 0.249152,0.300211 0.170774,0.298482 -0.230581,-0.0051 z M 54.373939,21.711063 c 0.0077,-0.186392 0.04559,-0.224304 0.09667,-0.09667 0.04622,0.115499 0.04054,0.253501 -0.01262,0.306667 -0.05317,0.05317 -0.09098,-0.04133 -0.08404,-0.21 z m 50.781351,-3.786667 -0.79398,-0.84 0.84,0.793986 c 0.462,0.436691 0.84,0.814691 0.84,0.84 0,0.11939 -0.14823,-0.01344 -0.88602,-0.793986 z m -2.33439,-2.48 c -0.19902,-0.25377 -0.19336,-0.259429 0.0604,-0.06041 0.154,0.120776 0.28,0.246776 0.28,0.28 0,0.131687 -0.13139,0.04693 -0.34041,-0.21959 z m 5.44,-25.28 c -0.19902,-0.25377 -0.19336,-0.259429 0.0604,-0.06041 0.154,0.120776 0.28,0.246776 0.28,0.28 0,0.1316864 -0.13139,0.04693 -0.34041,-0.2195904 z m 2.14835,-2.44 c 0,-0.484 0.03,-0.682 0.0667,-0.44 0.0367,0.242 0.0367,0.638 0,0.88 -0.0367,0.242 -0.0667,0.044 -0.0667,-0.44 z m 19.79206,-25.18041 c 0,-0.03322 0.126,-0.159224 0.28,-0.28 0.25377,-0.199019 0.25943,-0.19336 0.0604,0.06041 -0.20902,0.26652 -0.34041,0.351277 -0.34041,0.21959 z M 60.281307,-71.856013 c 0,-0.03323 0.126,-0.159225 0.28,-0.28 0.25377,-0.199019 0.259429,-0.19336 0.06041,0.06041 -0.20902,0.26652 -0.34041,0.351277 -0.34041,0.21959 z"
         id="path3427" /><path
         style="fill:#606060;fill-opacity:1;stroke-width:0.16"
         d="m 124.88131,72.098431 c 0.11,-0.04439 0.29,-0.04439 0.4,0 0.11,0.04439 0.02,0.0807 -0.2,0.0807 -0.22,0 -0.31,-0.03632 -0.2,-0.0807 z m 5.12,0 c 0.11,-0.04439 0.29,-0.04439 0.4,0 0.11,0.04439 0.02,0.0807 -0.2,0.0807 -0.22,0 -0.31,-0.03632 -0.2,-0.0807 z M 79.321307,68.463986 c 0,-0.03322 0.126,-0.159224 0.28,-0.28 0.25377,-0.199019 0.259429,-0.19336 0.06041,0.06041 -0.20902,0.26652 -0.34041,0.351277 -0.34041,0.21959 z m -6.196955,-4.050468 c 0.155675,-0.04057 0.371675,-0.0379 0.48,0.0059 0.108325,0.04383 -0.01905,0.07702 -0.283045,0.07376 -0.264,-0.0033 -0.35263,-0.03912 -0.196955,-0.07969 z m -2.910413,-5.102455 c 0.0077,-0.186392 0.04559,-0.224304 0.09667,-0.09667 0.04622,0.115499 0.04054,0.253501 -0.01262,0.306667 -0.05317,0.05317 -0.09098,-0.04133 -0.08404,-0.21 z m -17.92,-12.64 c 0.0077,-0.186392 0.04559,-0.224304 0.09667,-0.09667 0.04622,0.115499 0.04053,0.253501 -0.01263,0.306667 -0.05317,0.05317 -0.09098,-0.04133 -0.08404,-0.21 z m 44.446958,-0.986667 c -0.199019,-0.25377 -0.19336,-0.259429 0.06041,-0.06041 0.154,0.120776 0.28,0.246776 0.28,0.28 0,0.131687 -0.13139,0.04693 -0.34041,-0.21959 z m -52.959999,-1.44 c -0.199019,-0.25377 -0.19336,-0.259429 0.06041,-0.06041 0.26652,0.20902 0.351277,0.34041 0.219591,0.34041 -0.03323,0 -0.159225,-0.126 -0.280001,-0.28 z m 49.690343,-1.68 -0.469934,-0.52 0.52,0.469934 c 0.286,0.258464 0.52,0.492464 0.52,0.52 0,0.12361 -0.132021,0.01478 -0.570066,-0.469934 z m -53.004671,-1.24 c 0,-0.22 0.03632,-0.31 0.0807,-0.2 0.04439,0.11 0.04439,0.29 0,0.4 -0.04439,0.11 -0.0807,0.02 -0.0807,-0.2 z m 51.474327,-0.28 c -0.199019,-0.25377 -0.19336,-0.259429 0.06041,-0.06041 0.154,0.120776 0.28,0.246776 0.28,0.28 0,0.131687 -0.13139,0.04693 -0.34041,-0.21959 z m 6.4083,-5.92 -0.38789,-0.44 0.44,0.38789 c 0.411246,0.362542 0.513374,0.49211 0.38789,0.49211 -0.02866,0 -0.22666,-0.198 -0.44,-0.44 z m -1.4483,-0.16 c -0.199019,-0.25377 -0.19336,-0.259429 0.06041,-0.06041 0.154,0.120776 0.28,0.246776 0.28,0.28 0,0.131687 -0.13139,0.04693 -0.34041,-0.21959 z M 109.85131,-3.9049016 c 0.1155,-0.046219 0.2535,-0.040536 0.30666,0.012624 0.0532,0.053166 -0.0413,0.090982 -0.21,0.084035 -0.18639,-0.00768 -0.2243,-0.04559 -0.0967,-0.096666 z m 0.85526,-1.0107024 c 0,-0.22 0.0363,-0.31 0.0807,-0.2 0.0444,0.11 0.0444,0.29 0,0.4 -0.0444,0.11 -0.0807,0.02 -0.0807,-0.2 z m -10.917373,-6.2 -0.38789,-0.44 0.44,0.38789 c 0.411243,0.362542 0.513373,0.49211 0.387893,0.49211 -0.0287,0 -0.22666,-0.198 -0.440003,-0.44 z m 10.437373,-4.68 c 0,-0.22 0.0363,-0.31 0.0807,-0.2 0.0444,0.11 0.0444,0.29 0,0.4 -0.0444,0.11 -0.0807,0.02 -0.0807,-0.2 z M 88.241307,-84.541569 c 0.11,-0.04439 0.29,-0.04439 0.4,0 0.11,0.04439 0.02,0.0807 -0.2,0.0807 -0.22,0 -0.31,-0.03632 -0.2,-0.0807 z m 5.28,0 c 0.11,-0.04439 0.29,-0.04439 0.4,0 0.11,0.04439 0.02,0.0807 -0.2,0.0807 -0.22,0 -0.31,-0.03632 -0.2,-0.0807 z"
         id="path3425" /><path
         style="fill:#494949;fill-opacity:1;stroke-width:0.16"
         d="m 78.771593,68.571297 c -0.08683,-0.228032 -0.06845,-0.24641 0.08957,-0.08957 0.109348,0.108534 0.158508,0.237638 0.109245,0.286901 -0.04926,0.04926 -0.138728,-0.03954 -0.198813,-0.197333 z m 54.512757,-2.877779 c 0.15568,-0.04057 0.37168,-0.0379 0.48,0.0059 0.10833,0.04383 -0.019,0.07702 -0.28304,0.07376 -0.264,-0.0033 -0.35263,-0.03912 -0.19696,-0.07969 z M 79.481307,65.103986 c 0,-0.03322 0.126,-0.159224 0.28,-0.28 0.25377,-0.199019 0.259429,-0.19336 0.06041,0.06041 -0.20902,0.26652 -0.34041,0.351277 -0.34041,0.21959 z M 67.248141,59.255452 c -0.05063,-0.08192 -0.03088,-0.186752 0.04389,-0.232962 0.07477,-0.04621 0.135944,0.02081 0.135944,0.148944 0,0.269788 -0.05045,0.293359 -0.179833,0.08402 z m 56.675029,-0.444218 c 0.19903,-0.03827 0.48703,-0.03682 0.64,0.0032 0.15298,0.04005 -0.01,0.07136 -0.36186,0.06958 -0.352,-0.0018 -0.47716,-0.03454 -0.27814,-0.07281 z m 1.92,0 c 0.19903,-0.03827 0.48703,-0.03682 0.64,0.0032 0.15298,0.04005 -0.01,0.07136 -0.36186,0.06958 -0.352,-0.0018 -0.47716,-0.03454 -0.27814,-0.07281 z m -62.373973,-18.566838 -0.38789,-0.44 0.44,0.38789 c 0.411246,0.362542 0.513374,0.49211 0.38789,0.49211 -0.02866,0 -0.22666,-0.198 -0.44,-0.44 z M 89.13464,38.18027 c 0,-0.15752 0.05391,-0.166048 0.213334,-0.03374 0.117333,0.09738 0.213333,0.192235 0.213333,0.210794 0,0.01856 -0.096,0.03374 -0.213333,0.03374 -0.117334,0 -0.213334,-0.09486 -0.213334,-0.210794 z M 42.299401,36.175119 c 0.04621,-0.07477 0.151042,-0.09452 0.232962,-0.04389 0.209341,0.129379 0.185769,0.179833 -0.08402,0.179833 -0.128129,0 -0.195154,-0.06117 -0.148944,-0.135944 z m 4.361497,-0.570723 c -0.199019,-0.25377 -0.19336,-0.259429 0.06041,-0.06041 0.26652,0.20902 0.351277,0.34041 0.219591,0.34041 -0.03322,0 -0.159225,-0.126 -0.280001,-0.28 z m 42.432231,-0.105755 c -0.144353,-0.173935 -0.139667,-0.253279 0.02041,-0.345653 0.114274,-0.06594 0.154394,-0.06098 0.08916,0.01104 -0.06524,0.07201 -0.03842,0.227555 0.05959,0.345651 0.09801,0.118098 0.142203,0.214722 0.0982,0.214722 -0.044,0 -0.164312,-0.101591 -0.26736,-0.225755 z m 6.687768,-3.094245 c -0.199019,-0.25377 -0.19336,-0.259429 0.06041,-0.06041 0.154,0.120776 0.28,0.246776 0.28,0.28 0,0.131687 -0.13139,0.04693 -0.34041,-0.21959 z m 24.872913,-4.6 c 6.4e-4,-0.616 0.0296,-0.848394 0.0643,-0.516432 0.0346,0.331963 0.034,0.835963 -10e-4,1.12 -0.0353,0.284038 -0.0637,0.01243 -0.063,-0.603568 z m -20.3077,-13.56 -0.3048,-0.36 0.36,0.304798 c 0.33831,0.286436 0.43284,0.415202 0.3048,0.415202 -0.0304,0 -0.19237,-0.162 -0.36,-0.36 z m -0.926709,-0.629277 c 0.04621,-0.07477 0.151042,-0.09452 0.232962,-0.04389 0.209341,0.129379 0.18577,0.179833 -0.08402,0.179833 -0.128129,0 -0.195153,-0.06117 -0.148944,-0.135944 z M 91.27368,2.0710632 c -0.04503,-0.1173344 0.0124,-0.2133344 0.127627,-0.2133344 0.115221,0 0.172653,0.096 0.127627,0.2133344 -0.04503,0.1173328 -0.102457,0.2133328 -0.127627,0.2133328 -0.02517,0 -0.0826,-0.096 -0.127627,-0.2133328 z m 13.70096,-5.4596288 c 0,-0.1281296 0.0612,-0.1951536 0.13594,-0.148944 0.0748,0.04621 0.0945,0.1510416 0.0439,0.2329616 -0.12938,0.2093408 -0.17983,0.1857696 -0.17983,-0.084018 z m 1.4735,-8.3959824 c -0.0506,-0.08192 -0.0309,-0.186752 0.0439,-0.232962 0.0748,-0.04621 0.13594,0.02081 0.13594,0.148944 0,0.269788 -0.0504,0.293359 -0.17983,0.08402 z m 11.24317,-4.280354 c 0.1155,-0.04622 0.2535,-0.04054 0.30666,0.01262 0.0532,0.05317 -0.0413,0.09098 -0.21,0.08404 -0.18639,-0.0077 -0.2243,-0.04559 -0.0967,-0.09667 z m 3.52,0 c 0.1155,-0.04622 0.2535,-0.04054 0.30666,0.01262 0.0532,0.05317 -0.0413,0.09098 -0.21,0.08404 -0.18639,-0.0077 -0.2243,-0.04559 -0.0967,-0.09667 z m -21.17,-16.850702 c 0.0544,-0.088 0.13063,-0.16 0.16944,-0.16 0.0388,0 0.0706,0.072 0.0706,0.16 0,0.088 -0.0763,0.16 -0.16945,0.16 -0.0932,0 -0.12494,-0.072 -0.0705,-0.16 z m 28.63247,-9.8 -0.63247,-0.68 0.68,0.632472 c 0.374,0.347859 0.68,0.653859 0.68,0.68 0,0.121053 -0.13934,-7.8e-5 -0.72753,-0.632472 z m -1.28254,-1.28 -0.46993,-0.52 0.52,0.469934 c 0.286,0.258464 0.52,0.492464 0.52,0.52 0,0.12361 -0.13202,0.01478 -0.57007,-0.469934 z m -30.309933,-5.550557 c 0,-0.08281 0.07118,-0.194547 0.158168,-0.24831 0.0907,-0.05606 0.11752,0.0082 0.06288,0.150557 -0.106367,0.277187 -0.22105,0.327902 -0.22105,0.09775 z m 25.612633,-1.862776 c 0.008,-0.186392 0.0456,-0.224304 0.0967,-0.09667 0.0462,0.115499 0.0405,0.253499 -0.0126,0.306667 -0.0532,0.05317 -0.091,-0.04133 -0.084,-0.21 z m -61.036151,-21.48 c -0.04532,-0.07333 0.01926,-0.133334 0.143518,-0.133334 0.124258,0 0.188842,0.06 0.143518,0.133334 -0.04532,0.07333 -0.109905,0.133333 -0.143518,0.133333 -0.03361,0 -0.0982,-0.06 -0.143518,-0.133333 z"
         id="path3423" /><path
         style="fill:#333333;fill-opacity:1;stroke-width:0.16"
         d="m 125.00131,72.099574 c -4.01361,-0.320016 -6.8623,-0.780911 -10.39439,-1.681725 -8.7795,-2.239098 -18.977762,-7.022416 -29.205613,-13.698381 -3.721218,-2.42893 -5.762283,-3.901934 -5.652605,-4.079397 0.05724,-0.09261 0.02448,-0.117177 -0.0746,-0.05594 -0.195383,0.120752 -1.44977,-0.745881 -5.632797,-3.891598 -1.54,-1.158109 -2.780216,-2.179063 -2.756035,-2.268786 0.02418,-0.08972 -0.02298,-0.121758 -0.104803,-0.07119 -0.08182,0.05057 -0.439792,-0.14208 -0.79549,-0.428107 -0.355698,-0.286028 -1.658763,-1.300559 -2.895701,-2.254514 -1.280961,-0.987909 -2.203686,-1.807749 -2.143753,-1.904722 0.05787,-0.09364 0.03312,-0.125692 -0.05501,-0.07123 -0.207674,0.12835 -1.052271,-0.749301 -0.891445,-0.926335 0.06723,-0.07401 0.03458,-0.08421 -0.07255,-0.02268 -0.208948,0.120006 -1.438076,-1.125251 -1.361241,-1.379106 0.02418,-0.07989 -0.02167,-0.104688 -0.101893,-0.05511 -0.294477,0.181997 -2.385222,-2.875977 -3.538053,-5.174844 -0.82687,-1.648868 -1.355096,-3.002301 -3.376558,-8.651514 -0.865952,-2.42 -1.577383,-4.243131 -1.580959,-4.051402 -0.01098,0.588776 1.569714,8.007704 2.173288,10.200236 0.964826,3.504811 1.892618,5.684096 3.291978,7.73251 0.256,0.374741 0.420229,0.754525 0.36495,0.843965 -0.05528,0.08944 -0.03121,0.142835 0.05348,0.118656 0.208906,-0.05965 1.168042,1.15708 1.055572,1.339059 -0.04926,0.0797 -0.02223,0.12512 0.06005,0.100941 0.211088,-0.06203 2.288993,2.207891 2.14914,2.347742 -0.06323,0.06323 -0.007,0.09096 0.125042,0.06163 0.132,-0.02933 0.222,0.03667 0.2,0.146667 -0.022,0.11 0.02481,0.182 0.104014,0.16 0.07921,-0.022 0.781208,0.502557 1.56,1.165682 2.133708,1.816808 3.855471,3.204254 5.049362,4.068923 0.590358,0.427563 1.029234,0.848813 0.975278,0.936112 -0.05486,0.08877 -0.0171,0.108669 0.08568,0.04514 0.23615,-0.145949 1.336057,0.685515 1.199382,0.906662 -0.05698,0.0922 -0.02672,0.119674 0.06761,0.06138 0.09392,-0.05805 0.7606,0.308827 1.481502,0.81528 0.720901,0.506451 1.557766,1.085507 1.859701,1.286791 0.316443,0.210955 0.502179,0.441684 0.438499,0.544721 -0.06775,0.109618 -0.03789,0.133895 0.07719,0.06277 0.108134,-0.06683 0.745804,0.2727 1.504721,0.801197 3.361378,2.340802 7.797061,5.534591 7.797061,5.614053 0,0.04845 -0.198,-0.04334 -0.44,-0.203979 -1.144368,-0.759627 -6.445432,-3.823199 -8.52,-4.923845 -5.104722,-2.708274 -8.592882,-4.130901 -13.6,-5.546691 -3.408171,-0.963679 -4.519582,-1.467482 -5.568819,-2.524354 -1.058728,-1.06643 -1.645002,-2.287739 -2.510519,-5.229843 -0.414209,-1.408 -1.038646,-3.532 -1.387635,-4.72 -0.930592,-3.16784 -1.424243,-4.64 -1.555909,-4.64 -0.06413,0 -0.02582,0.702 0.08513,1.56 0.11095,0.858 0.349838,2.748 0.530861,4.2 0.181022,1.452 0.471086,3.572493 0.644585,4.712205 0.173499,1.139712 0.425339,3.263712 0.559645,4.72 0.33308,3.611614 0.77181,4.937112 1.958021,5.915608 1.013862,0.836326 2.031577,0.942689 2.589347,0.270617 0.116355,-0.140198 0.28652,-0.208574 0.378147,-0.151947 0.09566,0.05912 0.118855,0.02572 0.05447,-0.07845 -0.130381,-0.210963 0.122689,-0.754347 0.590563,-1.268029 0.679913,-0.746483 2.305771,-0.252933 2.761744,0.838365 0.355697,0.851304 0.257221,2.616 -0.132541,2.375113 -0.09658,-0.05969 -0.118661,-0.02547 -0.05257,0.08147 0.165584,0.26792 -0.350985,1.056247 -0.907576,1.385032 -0.725049,0.428298 -1.529683,0.556791 -2.42755,0.38766 -2.813611,-0.530005 -5.36453,-3.373239 -5.636155,-6.282013 -0.153131,-1.63984 -0.373237,-1.439727 -0.373237,0.339334 0,3.214434 1.184736,5.995698 3.17693,7.458103 0.478764,0.351444 1.21686,0.680886 1.989201,0.887857 0.675392,0.180992 1.269559,0.329077 1.32037,0.329077 0.05081,0 0.04839,0.07118 -0.0054,0.158168 -0.05471,0.08853 0.005,0.118728 0.135669,0.06859 0.229131,-0.08792 0.705836,0.186804 2.224924,1.282244 2.828989,2.040032 6.552058,1.407407 7.9601,-1.352584 0.517094,-1.01359 0.565033,-1.762844 0.146806,-2.294532 -0.319056,-0.405615 -0.43345,-0.447285 -1.014126,-0.369416 -0.462148,0.06197 -0.784991,0.233795 -1.098488,0.584628 -0.724445,0.810725 -1.046605,0.241476 -0.432956,-0.765022 0.190877,-0.313072 0.39604,-0.482078 0.504124,-0.415278 0.107193,0.06625 0.138499,0.04184 0.07601,-0.05927 -0.16604,-0.268658 0.618288,-0.786781 1.517606,-1.002523 1.888472,-0.453039 3.635162,0.143374 4.313394,1.472819 0.412262,0.808099 0.355334,1.485734 -0.232723,2.770221 -0.452669,0.988758 -2.27494,3.01672 -2.56308,2.852387 -0.09812,-0.05596 -0.12536,-0.04316 -0.06054,0.02843 0.144616,0.15973 -0.830184,0.904757 -1.025694,0.783925 -0.07705,-0.04762 -0.120301,-6.4e-4 -0.09612,0.104384 0.06498,0.282256 -2.526293,1.54431 -3.976838,1.936878 -0.945226,0.25581 -1.737935,0.342496 -3.179197,0.34766 -1.678046,0.006 -2.076635,-0.0472 -3.162965,-0.422282 -2.115513,-0.730424 -3.478478,-1.74599 -4.931907,-3.674835 -1.627702,-2.160125 -2.418499,-4.061755 -2.724014,-6.550437 -0.149213,-1.215464 -0.133064,-2.034528 0.0892,-4.52416 0.303373,-3.398182 0.516927,-9.810342 0.341865,-10.264814 -0.101878,-0.26448 -0.128782,-0.26834 -0.258632,-0.0371 -0.07971,0.141947 -0.332971,0.85335 -0.562802,1.580896 -0.480582,1.521309 -1.261704,3.293013 -1.892048,4.291453 -2.595733,4.111534 -3.694521,7.335142 -3.274568,9.606878 0.18065,0.977224 0.706102,2.122242 1.30323,2.839878 0.921977,1.108045 0.941151,1.934952 0.05736,2.473848 -1.657336,1.010578 -4.007176,-0.48352 -4.591543,-2.919435 -0.50436,-2.102406 0.52922,-5.941065 2.441481,-9.067531 0.341759,-0.55876 0.596609,-1.090237 0.566335,-1.181059 -0.08485,-0.254557 -2.732869,2.663552 -3.762674,4.146457 -0.548868,0.790362 -1.096414,1.396644 -1.360973,1.506962 -0.520874,0.217202 -1.434796,0.100677 -1.972222,-0.251459 -0.537248,-0.352018 -1.075566,-1.485218 -1.077137,-2.267456 -0.0015,-0.740975 0.334222,-1.699752 0.548738,-1.567173 0.07678,0.04745 0.09886,-0.0199 0.04906,-0.149662 -0.108369,-0.282407 0.963438,-1.402788 1.712563,-1.790175 0.644728,-0.333403 2.644324,-0.697557 3.87079,-0.704925 2.194283,-0.01318 3.295496,-0.753403 4.323033,-2.905884 0.785955,-1.646418 0.970113,-2.777655 0.864052,-5.307674 -0.07836,-1.869323 -0.189518,-2.507326 -0.967284,-5.552024 -0.903739,-3.53784 -1.227713,-5.496368 -1.228499,-7.426667 -2.4e-4,-0.608666 -0.05214,-1.054981 -0.115306,-0.991811 -0.165347,0.165347 -0.666264,2.622763 -0.688665,3.378478 -0.01043,0.352 -0.0746,0.782394 -0.142599,0.956432 -0.10177,0.260486 -0.182484,0.159123 -0.45653,-0.57333 -0.466926,-1.247972 -0.677351,-2.995947 -0.677351,-5.62668 0,-1.274137 -0.06009,-2.1941 -0.137713,-2.108422 -0.07574,0.0836 -0.445149,0.960435 -0.820904,1.948523 -0.375755,0.988088 -0.744959,1.758349 -0.820454,1.71169 -0.0755,-0.04666 -0.101081,0.0095 -0.05686,0.124697 0.109324,0.284893 -2.531413,6.79988 -5.44771,13.440096 -0.607024,1.382154 -1.119578,2.497109 -1.13901,2.477677 -0.01943,-0.01943 0.25347,-1.474285 0.606447,-3.233006 0.890302,-4.435962 2.465862,-10.643123 3.988934,-15.715023 1.03504,-3.446728 5.000256,-15.6351116 6.541589,-20.107702 0.492187,-1.4282144 0.441152,-1.6869824 -0.690993,-3.5036096 -3.484658,-5.59144 -5.630633,-10.3879844 -6.528175,-14.5913424 -0.332861,-1.558856 -0.254451,-4.868792 0.154594,-6.525854 0.610378,-2.472677 2.861096,-9.703972 6.384961,-20.514146 3.318578,-10.180413 7.088426,-20.48248 8.372506,-22.88 1.090926,-2.036882 3.66495,-5.322614 4.005045,-5.112425 0.07924,0.04897 0.104065,-0.01522 0.05516,-0.142664 -0.05089,-0.132629 0.06495,-0.339485 0.27093,-0.483754 0.288016,-0.201735 0.409925,-0.213032 0.610747,-0.0566 0.214763,0.167292 0.222682,0.159218 0.05497,-0.05605 -0.163674,-0.210086 -0.09531,-0.349758 0.41521,-0.848264 0.336129,-0.328221 0.7123,-0.575048 0.835936,-0.548503 0.123633,0.02655 0.207145,-0.04067 0.185577,-0.149373 -0.104134,-0.524854 7.860386,-6.255921 8.40401,-6.047312 0.116502,0.04471 0.16679,0.0084 0.111752,-0.08064 -0.121712,-0.196933 3.859902,-2.134153 6.060525,-2.948696 8.996766,-3.330084 20.408579,-3.22578 30.58293,0.279528 2.88128,0.992672 8.3394,3.225115 13.68,5.595306 3.72651,1.653847 3.97209,1.789588 4.08721,2.25908 0.0619,0.25228 -1.67868,11.117015 -1.89251,11.813373 -0.0191,0.06216 -0.35461,-0.711844 -0.7456,-1.72 -0.391,-1.008153 -0.76313,-1.833006 -0.82695,-1.833006 -0.2481,0 -0.78215,1.105387 -0.78215,1.618885 0,0.297614 0.2091,1.189115 0.46466,1.981115 1.01266,3.138277 1.79952,5.88025 1.93922,6.757618 0.10283,0.645756 0.0816,1.3858 -0.0706,2.467608 -0.36386,2.585281 0.16097,4.110905 2.18061,6.338766 0.34104,0.376197 0.57558,0.755981 0.5212,0.843965 -0.0544,0.08798 -0.0364,0.140187 0.04,0.116008 0.24308,-0.07695 5.34871,5.183259 5.25867,5.417888 -0.046,0.119981 -0.014,0.218147 0.0713,0.218147 0.0852,0 0.15498,0.299203 0.15498,0.664898 0,0.937568 -0.52714,1.551657 -2.40545,2.802248 -1.5705,1.045646 -2.07455,1.635236 -2.07455,2.426619 0,0.628926 0.29159,1.104414 0.74743,1.218824 0.93007,0.233432 1.0811,0.768725 0.54806,1.942433 -0.23023,0.506936 -0.45011,0.716093 -0.97259,0.925146 -0.65864,0.263538 -0.66875,0.278776 -0.4145,0.624978 0.91939,1.251884 0.88445,2.084841 -0.12022,2.866633 -0.82063,0.638578 -0.8678,0.702069 -1.07353,1.445034 -0.13705,0.494904 -0.0824,0.949216 0.32004,2.660611 0.26692,1.135088 0.48531,2.29817 0.48531,2.584624 0,0.835282 -0.33189,1.71424 -0.89623,2.373549 -1.34023,1.565749 -5.6141,1.843601 -12.55947,0.816515 -1.22485,-0.181131 -2.2904,-0.290149 -2.36788,-0.242262 -0.0778,0.04809 -0.10218,1.31632 -0.0544,2.833054 0.0772,2.452696 0.0576,2.767053 -0.18329,2.943213 -0.40085,0.293109 -1.32281,0.124174 -2.54041,-0.465491 -0.59494,-0.288124 -1.11413,-0.491447 -1.15375,-0.451831 -0.0728,0.07277 0.20921,0.400581 1.87031,2.1743218 1.17092,1.2503152 2.18769,3.2061456 2.31543,4.4538896 0.16798,1.6408688 -0.47983,1.8041216 -2.74289,0.6912176 -1.52829,-0.7515632 -4.19786,-2.6783712 -4.12342,-2.976144 0.0242,-0.096726 -0.0235,-0.1341776 -0.10593,-0.083226 -0.48013,0.2967344 -8.317954,-8.099363 -8.100204,-8.677164 0.04318,-0.11457 0.01434,-0.168653 -0.06409,-0.120183 -0.07843,0.04847 -0.462723,-0.342669 -0.853992,-0.869197 -0.391271,-0.526529 -0.756152,-0.912574 -0.810848,-0.857878 -0.0547,0.0547 0.04242,0.29869 0.215827,0.542206 0.1734,0.243519 0.315272,0.483437 0.315272,0.533152 0,0.2982 2.154912,3.65936 4.165438,6.497112 0.96766,1.3658 3.439097,4.2174304 4.918387,5.6750016 0.8886,0.8755488 1.57313,1.6606736 1.52118,1.7447216 -0.0519,0.08405 -0.0137,0.1029184 0.085,0.041933 0.19991,-0.1235504 2.05542,1.3176688 1.98606,1.5426256 -0.0242,0.07843 0.0239,0.1006784 0.10678,0.04944 0.0829,-0.05124 0.57069,0.18524 1.08396,0.5255104 1.43298,0.9499808 4.14166,2.1038656 4.9387,2.1038656 0.14056,0 0.38658,0.07012 0.54672,0.1558224 0.2751,0.1472272 0.27695,0.19532 0.0336,0.872064 -0.24101,0.6702192 -0.23762,0.8118496 0.0528,2.2041776 0.38397,1.8410288 0.4089,4.1345424 0.0537,4.9395728 -0.35038,0.7940976 -1.24921,1.7837664 -1.5242,1.6782434 -0.12357,-0.04742 -0.18502,-0.02205 -0.13655,0.05637 0.13632,0.220576 -0.82935,0.494015 -1.73538,0.491389 -0.98726,-0.0029 -2.38813,-0.324606 -3.73612,-0.858093 -0.55,-0.21767 -1,-0.330569 -1,-0.250889 0,0.393782 4.72082,2.722909 6.64,3.275992 0.84484,0.243475 2.03515,0.448117 2.88,0.495136 2.15638,0.120014 2.06735,0.07486 2.561,1.298861 1.11945,2.775691 2.32759,7.153188 2.65665,9.625934 0.24284,1.824826 0.0998,5.899971 -0.246,7.008389 -0.53381,1.711022 -1.85031,2.486323 -3.62803,2.136579 -3.50458,-0.689485 -10.12981,-4.843406 -17.061943,-10.697584 -0.461076,-0.389378 -0.791951,-0.782984 -0.735279,-0.87468 0.05667,-0.0917 0.03122,-0.122334 -0.05657,-0.06808 -0.2186,0.135103 -1.998041,-1.474123 -1.866105,-1.687598 0.06688,-0.108221 0.02889,-0.123566 -0.103439,-0.04178 -0.145598,0.08999 -1.174033,-0.849772 -3.38472,-3.092868 -1.746566,-1.772171 -3.175574,-3.144928 -3.175574,-3.050572 0,0.191275 2.497552,3.567278 4.363531,5.898296 0.666872,0.83307 1.176538,1.572854 1.132589,1.643964 -0.04395,0.07111 -0.0074,0.109506 0.08127,0.08533 0.08864,-0.02418 0.607581,0.460035 1.153192,1.076035 0.545611,0.616 1.648435,1.828427 2.45072,2.694282 0.802288,0.865854 1.438918,1.645206 1.414738,1.731892 -0.0242,0.08669 0.0235,0.115924 0.10593,0.06497 0.0824,-0.05095 0.71423,0.434454 1.40397,1.07868 0.68974,0.644224 1.86607,1.698128 2.61407,2.342008 0.748,0.64388 1.34021,1.238473 1.31603,1.321321 -0.0242,0.08285 0.0296,0.105155 0.11955,0.04958 0.19161,-0.118424 2.02525,1.333704 1.96045,1.55256 -0.0242,0.08167 0.025,0.105893 0.10922,0.05383 0.0842,-0.05207 0.94065,0.435085 1.90312,1.082561 3.11752,2.097242 6.38332,3.544978 9.2841,4.115672 1.96569,0.386725 3.38746,-0.30368 3.87766,-1.882977 0.10694,-0.344522 0.21653,-2.04901 0.2549,-3.964373 0.0908,-4.533526 0.0814,-4.507573 0.96088,-2.64 1.77272,3.764224 5.28084,12.28049 6.8216,16.56 1.16688,3.241056 1.47133,4.482731 1.3244,5.401573 -0.12508,0.782168 -0.53395,1.600777 -0.73689,1.475349 -0.0832,-0.05145 -0.11307,0.0062 -0.0663,0.128208 0.19778,0.515412 -1.78907,1.467716 -3.40523,1.632136 -1.76346,0.179404 -2.37084,0.18904 -3.72353,0.05907 -4.95817,-0.476392 -11.73871,-3.011748 -17.56845,-6.569136 -2.40786,-1.469312 -4.84371,-3.178084 -4.74894,-3.33143 0.0407,-0.0658 -0.027,-0.109768 -0.15047,-0.0977 -0.73605,0.07195 -13.545117,-10.528749 -13.266622,-10.979365 0.06202,-0.100353 0.02675,-0.120451 -0.08748,-0.04985 -0.200082,0.123657 -1.8059,-1.279693 -5.095343,-4.452898 -0.994365,-0.959227 -1.839462,-1.712523 -1.877993,-1.67399 -0.11232,0.112318 3.956804,5.459132 5.60976,7.371204 0.831185,0.961482 1.462836,1.826477 1.403668,1.922212 -0.06063,0.0981 -0.034,0.128592 0.06102,0.06987 0.220024,-0.135982 2.634824,2.43034 2.496876,2.653546 -0.05801,0.09386 -0.03281,0.125746 0.05599,0.07086 0.207597,-0.128301 0.890453,0.590529 0.729443,0.767869 -0.06681,0.07358 -0.03962,0.08703 0.06041,0.02989 0.216274,-0.123542 0.587943,0.26944 0.416741,0.44064 -0.06524,0.06524 -0.03958,0.09461 0.05701,0.06528 0.20025,-0.06081 2.158837,1.704771 2.053362,1.851022 -0.03794,0.0526 -0.01912,0.05779 0.04181,0.01152 0.06094,-0.04627 0.474936,0.271029 0.92,0.705106 0.445064,0.434077 1.457208,1.342467 2.249208,2.018646 0.792,0.676179 1.426,1.282882 1.40889,1.348227 -0.01711,0.06535 0.0562,0.118813 0.162902,0.118813 0.106709,0 0.804708,0.470731 1.551108,1.046069 6.46646,4.984443 13.13309,8.020669 19.9971,9.10741 1.89106,0.299401 5.95885,0.260625 7.77833,-0.07415 1.58141,-0.290969 3.1058,-0.767068 3.69763,-1.154848 0.20519,-0.134446 0.46104,-0.193913 0.56856,-0.132147 0.10751,0.06177 0.15445,0.06574 0.10432,0.0088 -0.0501,-0.05691 0.28106,-0.487782 0.73601,-0.957485 0.73271,-0.756483 1.05349,-1.341318 1.46467,-2.67034 0.18178,-0.587567 1.03183,1.119764 1.59204,3.19764 0.34198,1.268428 0.45653,3.742561 0.23276,5.027508 -0.22081,1.268021 -0.62789,2.370072 -0.82945,2.245504 -0.0777,-0.048 -0.10116,0.01709 -0.0522,0.144639 0.10638,0.277206 -0.72742,0.938408 -1.51653,1.202613 -0.83847,0.280729 -3.86315,0.214568 -6.25675,-0.136861 -3.80977,-0.559352 -11.6843,-2.664309 -14.77671,-3.949994 -2.84091,-1.181121 0.74657,0.866627 4.72578,2.697503 6.40157,2.945424 11.56251,4.549268 17.16165,5.33326 0.96256,0.134776 1.79044,0.285392 1.83975,0.3347 0.25926,0.259262 -2.19391,1.346518 -4.11486,1.823723 -2.0942,0.520243 -5.96955,0.757033 -8.75498,0.534942 z M 105.64083,41.16362 c -0.0546,-0.08843 -0.5449,-0.460566 -1.08945,-0.826974 -1.90944,-1.284818 -6.110073,-4.982 -6.110073,-5.377784 0,-0.06296 -0.04773,-0.09856 -0.106072,-0.07911 -0.318602,0.106201 -6.718682,-7.102567 -10.117013,-11.395357 -0.766304,-0.968 -1.480589,-1.868 -1.587297,-2 -1.054487,-1.304402 -1.248906,-1.599349 -1.154704,-1.75177 0.05988,-0.09689 0.02192,-0.156374 -0.08436,-0.132195 -0.214056,0.0487 -1.415549,-1.469496 -4.397018,-5.556035 -1.091454,-1.496 -2.042721,-2.792 -2.113923,-2.88 -0.0712,-0.088 -0.448806,-0.617314 -0.839118,-1.1762512 C 77.65149,9.4292046 77.308824,9.0418494 77.280323,9.1273534 77.137367,9.5562238 85.369047,21.97331 87.434474,24.444395 c 0.07355,0.088 0.681777,0.844 1.351608,1.68 5.251782,6.554624 11.618778,12.439171 15.901568,14.696638 1.05966,0.558552 1.09436,0.571023 0.95318,0.342586 z m 4.80048,-19.064261 c -1.78081,-1.139929 -3.1321,-2.225949 -3.01182,-2.420566 0.0565,-0.09145 0.0231,-0.115551 -0.0756,-0.05454 -0.23323,0.144144 -2.29977,-1.802213 -2.16468,-2.038789 0.0569,-0.09959 0.0424,-0.125603 -0.0322,-0.05781 -0.1821,0.165551 -1.36931,-1.008108 -1.24345,-1.229256 0.0545,-0.0957 0.0421,-0.122604 -0.0275,-0.05979 -0.16351,0.147595 -1.20756,-1.020261 -1.08679,-1.21567 0.0503,-0.08139 0.0164,-0.101613 -0.0753,-0.04494 -0.14384,0.0889 -0.72328,-0.512707 -2.04272,-2.120872 -0.176,-0.214514 -0.54239,-0.647131 -0.814201,-0.961375 -1.542578,-1.7834 -6.091436,-7.7571452 -8.780837,-11.53135 -0.781618,-1.0968928 -1.052152,-1.3863872 -0.971887,-1.04 0.06117,0.264 0.393757,0.9282352 0.739074,1.4760784 0.644754,1.0229008 0.745427,1.2554752 0.46968,1.0850544 -0.09244,-0.057133 -0.116432,0.011008 -0.05773,0.1639728 0.06603,0.1720832 0.137954,0.201016 0.209981,0.084474 0.123334,-0.19956 2.179757,2.9889616 2.14192,3.321088 -0.0132,0.1158656 0.01525,0.171424 0.06321,0.1234608 0.04796,-0.047963 0.62596,0.6852368 1.284439,1.6293328 2.638808,3.7834058 5.097161,6.8231288 7.206221,8.9104048 0.70794,0.700625 1.25098,1.332409 1.20676,1.403964 -0.0442,0.07155 -0.0105,0.110314 0.075,0.08613 0.0855,-0.02418 0.54083,0.283157 1.0119,0.682973 1.98198,1.68219 4.13386,3.179968 5.81649,4.048472 1.58743,0.819369 1.6556,0.716923 0.16,-0.240447 z M 99.801307,13.707172 c 0,-0.132421 -0.310677,-0.207304 -0.381906,-0.09205 -0.04621,0.07477 0.02082,0.135944 0.148944,0.135944 0.128128,0 0.232962,-0.01975 0.232962,-0.04389 z m 0.418073,-46.742776 c -0.248849,-0.834523 -2.174153,-12.036054 -2.669596,-15.531859 -0.103818,-0.732523 -0.245229,-1.272523 -0.31425,-1.2 -0.426985,0.448651 2.405666,17.011859 2.909376,17.011859 0.0869,0 0.12039,-0.126 0.0745,-0.28 z M 76.061273,69.08934 c -0.758844,-0.27049 -0.867646,-0.374365 -1.046947,-0.999547 -0.145865,-0.508607 0.01642,-0.845397 0.407368,-0.845397 0.280088,0 0.859613,-0.783848 0.859613,-1.162685 0,-0.175742 -0.251634,-0.556851 -0.559186,-0.84691 -0.878296,-0.828339 -2.297256,-1.013978 -4.640814,-0.607139 -0.431635,0.07493 -0.392034,0.01931 0.393043,-0.552045 1.670895,-1.216024 3.676714,-1.672635 5.486218,-1.248901 1.783761,0.417706 3.143523,1.519482 2.651443,2.148387 -0.187325,0.239413 -0.180803,0.245898 0.05878,0.05843 0.238939,-0.186963 0.288706,-0.141629 0.439109,0.4 0.325971,1.173891 0.153899,1.971325 -0.605904,2.807935 -0.284848,0.313643 -0.452306,0.391131 -0.592975,0.274387 -0.142068,-0.117907 -0.189651,-0.08907 -0.172868,0.104784 0.01474,0.170131 -0.180639,0.342427 -0.536842,0.47344 -0.73139,0.269008 -1.37605,0.267581 -2.140034,-0.0047 z M 43.439791,45.575706 c -0.727755,-0.259691 -0.983363,-0.4434 -1.749142,-1.257121 -1.061324,-1.127771 -1.364814,-2.924917 -0.837557,-4.959671 0.398976,-1.539696 1.352411,-3.269696 1.687766,-3.062435 0.07523,0.0465 0.09839,-0.0155 0.05147,-0.137782 -0.107026,-0.278907 1.141899,-1.134279 1.47149,-1.007802 0.131189,0.05034 0.191134,0.0203 0.136355,-0.06833 -0.05935,-0.09602 0.210988,-0.158168 0.688029,-0.158168 1.902331,0 3.394364,2.141603 3.392212,4.86904 -0.0011,1.446333 -0.233964,2.27043 -0.801884,2.838352 -0.368234,0.368234 -0.592601,0.452608 -1.203569,0.452608 -0.73725,0 -0.7491,-0.008 -0.649124,-0.44 0.314953,-1.360818 0.300789,-1.561587 -0.147777,-2.094678 -0.395684,-0.470244 -0.508836,-0.514666 -1.203514,-0.472474 -0.421722,0.02561 -0.756712,0.0827 -0.744422,0.126861 0.01229,0.04416 -0.119667,0.293385 -0.293237,0.553833 -0.22483,0.337367 -0.314008,0.737605 -0.31011,1.391807 0.0045,0.761483 0.0888,1.035766 0.493497,1.606457 0.506954,0.714885 2.022159,1.648047 2.42499,1.493466 0.116964,-0.04488 0.170321,-0.0131 0.118571,0.07064 -0.110424,0.178669 -1.14139,0.485011 -1.602529,0.476176 -0.176,-0.0034 -0.590682,-0.10272 -0.921516,-0.220775 z"
         id="path3421" /></g></g></svg>
