<?xml version="1.0" encoding="UTF-8" standalone="no"?>
<!-- Created with Inkscape (http://www.inkscape.org/) -->

<svg
   version="1.1"
   id="svg1"
   width="103.97828"
   height="156.7802"
   viewBox="0 0 103.97828 156.78019"
   sodipodi:docname="womanav15.svg"
   inkscape:version="1.2.2 (732a01da63, 2022-12-09)"
   xml:space="preserve"
   xmlns:inkscape="http://www.inkscape.org/namespaces/inkscape"
   xmlns:sodipodi="http://sodipodi.sourceforge.net/DTD/sodipodi-0.dtd"
   xmlns="http://www.w3.org/2000/svg"
   xmlns:svg="http://www.w3.org/2000/svg"><defs
     id="defs1" /><sodipodi:namedview
     id="namedview1"
     pagecolor="#ffffff"
     bordercolor="#cccccc"
     borderopacity="1"
     inkscape:showpageshadow="0"
     inkscape:pageopacity="1"
     inkscape:pagecheckerboard="0"
     inkscape:deskcolor="#d1d1d1"
     showgrid="false"
     inkscape:zoom="0.35355339"
     inkscape:cx="-196.57568"
     inkscape:cy="104.6518"
     inkscape:window-width="1366"
     inkscape:window-height="705"
     inkscape:window-x="-8"
     inkscape:window-y="32"
     inkscape:window-maximized="1"
     inkscape:current-layer="g1" /><g
     inkscape:groupmode="layer"
     inkscape:label="Image"
     id="g1"
     transform="translate(248.07196,451.57696)"><g
       id="g3651"
       transform="translate(-282.84271,-79.195959)"><path
         style="fill:#d0d0d0;fill-opacity:1;stroke-width:0.16"
         d="m 107.86134,-243.70975 c 0.1155,-0.0462 0.2535,-0.0405 0.30667,0.0126 0.0532,0.0532 -0.0413,0.091 -0.21,0.084 -0.18639,-0.008 -0.2243,-0.0456 -0.0967,-0.0967 z m 5.96264,-4.94403 c 0.008,-0.18639 0.0456,-0.22431 0.0967,-0.0967 0.0462,0.1155 0.0405,0.2535 -0.0126,0.30667 -0.0532,0.0532 -0.091,-0.0413 -0.084,-0.21 z m -3.24264,-17.93597 c 0.1155,-0.0462 0.2535,-0.0405 0.30667,0.0126 0.0532,0.0532 -0.0413,0.091 -0.21,0.084 -0.18639,-0.008 -0.2243,-0.0456 -0.0967,-0.0967 z m 20.21527,-27.4107 c 0,-0.22 0.0363,-0.31 0.0807,-0.2 0.0444,0.11 0.0444,0.29 0,0.4 -0.0444,0.11 -0.0807,0.02 -0.0807,-0.2 z m -0.8,-4.8 c 0,-0.22 0.0363,-0.31 0.0807,-0.2 0.0444,0.11 0.0444,0.29 0,0.4 -0.0444,0.11 -0.0807,0.02 -0.0807,-0.2 z m -92.972635,-7.77333 c 0.0077,-0.18639 0.04559,-0.22431 0.09667,-0.0967 0.04622,0.1155 0.04053,0.2535 -0.01263,0.30667 -0.05317,0.0532 -0.09098,-0.0413 -0.08404,-0.21 z m 67.987365,-7.96955 c 0,-0.0346 0.11174,-0.10576 0.24831,-0.15817 0.14239,-0.0546 0.20661,-0.0278 0.15056,0.0629 -0.094,0.15204 -0.39887,0.22487 -0.39887,0.0953 z m -3.97473,-8.41712 c 0,-0.22 0.0363,-0.31 0.0807,-0.2 0.0444,0.11 0.0444,0.29 0,0.4 -0.0444,0.11 -0.0807,0.02 -0.0807,-0.2 z m 0.8,-6.4 c 0,-0.22 0.0363,-0.31 0.0807,-0.2 0.0444,0.11 0.0444,0.29 0,0.4 -0.0444,0.11 -0.0807,0.02 -0.0807,-0.2 z m -0.17263,-3.61333 c 0.008,-0.18639 0.0456,-0.22431 0.0967,-0.0967 0.0462,0.1155 0.0405,0.2535 -0.0126,0.30667 -0.0532,0.0532 -0.091,-0.0413 -0.084,-0.21 z m -41.932637,-26.68708 c 0,-0.0332 0.126,-0.15922 0.28,-0.28 0.25377,-0.19902 0.259429,-0.19336 0.06041,0.0604 -0.20902,0.26652 -0.34041,0.35128 -0.34041,0.21959 z"
         id="path3667" /><path
         style="fill:#b9b9b9;fill-opacity:1;stroke-width:0.16"
         d="m 124.06398,-235.37378 c 0.008,-0.18639 0.0456,-0.22431 0.0967,-0.0967 0.0462,0.1155 0.0405,0.2535 -0.0126,0.30667 -0.0532,0.0532 -0.091,-0.0413 -0.084,-0.21 z m -6.68959,-0.65755 c 0.15567,-0.0406 0.37167,-0.0379 0.48,0.006 0.10832,0.0438 -0.019,0.077 -0.28305,0.0738 -0.264,-0.003 -0.35263,-0.0391 -0.19695,-0.0797 z m -10.80118,-14.88228 c 0.19902,-0.0383 0.48702,-0.0368 0.64,0.003 0.15297,0.0401 -0.01,0.0714 -0.36187,0.0696 -0.352,-0.002 -0.47716,-0.0345 -0.27813,-0.0728 z m -0.26924,-26.54017 c 0.008,-0.18639 0.0456,-0.22431 0.0967,-0.0967 0.0462,0.1155 0.0405,0.2535 -0.0126,0.30667 -0.0532,0.0532 -0.091,-0.0413 -0.084,-0.21 z m 0,-3.84 c 0.008,-0.18639 0.0456,-0.22431 0.0967,-0.0967 0.0462,0.1155 0.0405,0.2535 -0.0126,0.30667 -0.0532,0.0532 -0.091,-0.0413 -0.084,-0.21 z m -69.261435,-31.02667 c 0.0033,-0.264 0.03912,-0.35263 0.07969,-0.19696 0.04057,0.15568 0.0379,0.37168 -0.0059,0.48 -0.04383,0.10833 -0.07702,-0.019 -0.07376,-0.28304 z m 64.301445,-16.65333 c 0.008,-0.18639 0.0456,-0.22431 0.0967,-0.0967 0.0462,0.1155 0.0405,0.2535 -0.0126,0.30667 -0.0532,0.0532 -0.091,-0.0413 -0.084,-0.21 z m 0.16,-2.08 c 0.008,-0.18639 0.0456,-0.22431 0.0967,-0.0967 0.0462,0.1155 0.0405,0.2535 -0.0126,0.30667 -0.0532,0.0532 -0.091,-0.0413 -0.084,-0.21 z m -28.160005,-0.32 c 0.0077,-0.18639 0.04559,-0.22431 0.09667,-0.0967 0.04622,0.1155 0.04054,0.2535 -0.01262,0.30667 -0.05317,0.0532 -0.09098,-0.0413 -0.08404,-0.21 z m 56.492635,-0.0667 c 0,-0.22 0.0363,-0.31 0.0807,-0.2 0.0444,0.11 0.0444,0.29 0,0.4 -0.0444,0.11 -0.0807,0.02 -0.0807,-0.2 z m -27.83407,-2.16 c 0.003,-0.264 0.0391,-0.35263 0.0797,-0.19696 0.0406,0.15568 0.0379,0.37168 -0.006,0.48 -0.0438,0.10833 -0.077,-0.019 -0.0738,-0.28304 z m -0.17856,-1.61333 c 0.008,-0.18639 0.0456,-0.22431 0.0967,-0.0967 0.0462,0.1155 0.0405,0.2535 -0.0126,0.30667 -0.0532,0.0532 -0.091,-0.0413 -0.084,-0.21 z"
         id="path3665" /><path
         style="fill:#a3a3a3;fill-opacity:1;stroke-width:0.16"
         d="m 117.82398,-242.57378 c 0.008,-0.18639 0.0456,-0.22431 0.0967,-0.0967 0.0462,0.1155 0.0405,0.2535 -0.0126,0.30667 -0.0532,0.0532 -0.091,-0.0413 -0.084,-0.21 z m -7.89077,-0.49983 c 0.19902,-0.0383 0.48702,-0.0368 0.64,0.003 0.15297,0.0401 -0.01,0.0714 -0.36187,0.0696 -0.352,-0.002 -0.47716,-0.0345 -0.27813,-0.0728 z m -1.19967,-0.64165 c 0.24321,-0.0368 0.60321,-0.0358 0.8,0.002 0.19679,0.038 -0.002,0.0681 -0.4422,0.0669 -0.44,-0.001 -0.60101,-0.0323 -0.3578,-0.0691 z m 9.10307,-2.76519 c 0,-0.22 0.0363,-0.31 0.0807,-0.2 0.0444,0.11 0.0444,0.29 0,0.4 -0.0444,0.11 -0.0807,0.02 -0.0807,-0.2 z m -7.38527,-5.98041 c 0,-0.0332 0.126,-0.15922 0.28,-0.28 0.25377,-0.19902 0.25943,-0.19336 0.0604,0.0604 -0.20902,0.26652 -0.34041,0.35128 -0.34041,0.21959 z m 22.48,-53.05959 c 0.15928,-0.176 0.3256,-0.32 0.3696,-0.32 0.044,0 -0.0503,0.144 -0.2096,0.32 -0.15928,0.176 -0.32559,0.32 -0.36959,0.32 -0.044,0 0.0503,-0.144 0.20959,-0.32 z m -31.90736,-18.49333 c 0.008,-0.18639 0.0456,-0.22431 0.0967,-0.0967 0.0462,0.1155 0.0405,0.2535 -0.0126,0.30667 -0.0532,0.0532 -0.091,-0.0413 -0.084,-0.21 z m -12.042637,-48.33597 c 0.115499,-0.0462 0.253501,-0.0405 0.306667,0.0126 0.05317,0.0532 -0.04133,0.091 -0.21,0.084 -0.186392,-0.008 -0.224304,-0.0456 -0.09667,-0.0967 z m 7.52,0 c 0.115499,-0.0462 0.253501,-0.0405 0.306667,0.0126 0.05317,0.0532 -0.04133,0.091 -0.21,0.084 -0.186392,-0.008 -0.224304,-0.0456 -0.09667,-0.0967 z"
         id="path3663" /><path
         style="fill:#8c8c8c;fill-opacity:1;stroke-width:0.16"
         d="m 113.82398,-248.01378 c 0.008,-0.18639 0.0456,-0.22431 0.0967,-0.0967 0.0462,0.1155 0.0405,0.2535 -0.0126,0.30667 -0.0532,0.0532 -0.091,-0.0413 -0.084,-0.21 z m -14.827839,-26.82667 -0.304798,-0.36 0.36,0.3048 c 0.33831,0.28643 0.432838,0.4152 0.304798,0.4152 -0.03036,0 -0.192361,-0.162 -0.36,-0.36 z m 2.175199,-17.40944 c 0,-0.0932 0.072,-0.12495 0.16,-0.0706 0.088,0.0544 0.16,0.13064 0.16,0.16944 0,0.0388 -0.072,0.0706 -0.16,0.0706 -0.088,0 -0.16,-0.0763 -0.16,-0.16944 z m 0.65264,-36.40389 c 0.008,-0.18639 0.0456,-0.22431 0.0967,-0.0967 0.0462,0.1155 0.0405,0.2535 -0.0126,0.30667 -0.0532,0.0532 -0.091,-0.0413 -0.084,-0.21 z m 0.17263,-2.62667 c 0,-0.22 0.0363,-0.31 0.0807,-0.2 0.0444,0.11 0.0444,0.29 0,0.4 -0.0444,0.11 -0.0807,0.02 -0.0807,-0.2 z m 0,-0.96 c 0,-0.22 0.0363,-0.31 0.0807,-0.2 0.0444,0.11 0.0444,0.29 0,0.4 -0.0444,0.11 -0.0807,0.02 -0.0807,-0.2 z m -0.0126,-2.01333 c 0.008,-0.18639 0.0456,-0.22431 0.0967,-0.0967 0.0462,0.1155 0.0405,0.2535 -0.0126,0.30667 -0.0532,0.0532 -0.091,-0.0413 -0.084,-0.21 z m 0,-0.64 c 0.008,-0.18639 0.0456,-0.22431 0.0967,-0.0967 0.0462,0.1155 0.0405,0.2535 -0.0126,0.30667 -0.0532,0.0532 -0.091,-0.0413 -0.084,-0.21 z m 0.0126,-0.70667 c 0,-0.22 0.0363,-0.31 0.0807,-0.2 0.0444,0.11 0.0444,0.29 0,0.4 -0.0444,0.11 -0.0807,0.02 -0.0807,-0.2 z"
         id="path3661" /><path
         style="fill:#767676;fill-opacity:1;stroke-width:0.16"
         d="m 119.37134,-229.62641 c 0.11,-0.0444 0.29,-0.0444 0.4,0 0.11,0.0444 0.02,0.0807 -0.2,0.0807 -0.22,0 -0.31,-0.0363 -0.2,-0.0807 z m 4.69264,-4.46737 c 0.008,-0.18639 0.0456,-0.22431 0.0967,-0.0967 0.0462,0.1155 0.0405,0.2535 -0.0126,0.30667 -0.0532,0.0532 -0.091,-0.0413 -0.084,-0.21 z m 0.0245,-2.14667 c 0,-0.308 0.0329,-0.434 0.0732,-0.28 0.0402,0.154 0.0402,0.406 0,0.56 -0.0403,0.154 -0.0732,0.028 -0.0732,-0.28 z M 113.664,-264.97378 c 0.008,-0.18639 0.0456,-0.22431 0.0967,-0.0967 0.0462,0.1155 0.0405,0.2535 -0.0126,0.30667 -0.0532,0.0532 -0.091,-0.0413 -0.084,-0.21 z m -65.953046,-12.66667 c -0.199019,-0.25377 -0.19336,-0.25943 0.06041,-0.0604 0.154,0.12078 0.28,0.24678 0.28,0.28 0,0.13169 -0.13139,0.0469 -0.340409,-0.21959 z m 58.433036,-1.57333 c 0.008,-0.18639 0.0456,-0.22431 0.0967,-0.0967 0.0462,0.1155 0.0405,0.2535 -0.0126,0.30667 -0.0532,0.0532 -0.091,-0.0413 -0.084,-0.21 z m -69.084681,-28.86667 c 0,-0.484 0.02999,-0.682 0.06665,-0.44 0.03666,0.242 0.03666,0.638 0,0.88 -0.03666,0.242 -0.06665,0.044 -0.06665,-0.44 z m 0.0016,-2.64 c 8.96e-4,-0.528 0.03077,-0.72471 0.06638,-0.43713 0.03561,0.28757 0.03487,0.71957 -0.0016,0.96 -0.03651,0.24042 -0.06564,0.005 -0.06475,-0.52287 z m 0.123052,-3.05333 c 0.0077,-0.18639 0.04559,-0.22431 0.09667,-0.0967 0.04622,0.1155 0.04053,0.2535 -0.01263,0.30667 -0.05317,0.0532 -0.09098,-0.0413 -0.08404,-0.21 z m 64.160009,-15.84 c 0.008,-0.18639 0.0456,-0.22431 0.0967,-0.0967 0.0462,0.1155 0.0405,0.2535 -0.0126,0.30667 -0.0532,0.0532 -0.091,-0.0413 -0.084,-0.21 z m -40.812641,-30.68708 c 0,-0.0332 0.126,-0.15922 0.28,-0.28 0.25377,-0.19902 0.259429,-0.19336 0.06041,0.0604 -0.20902,0.26652 -0.34041,0.35128 -0.34041,0.21959 z"
         id="path3659" /><path
         style="fill:#606060;fill-opacity:1;stroke-width:0.16"
         d="m 129.34397,-220.97378 c 0.008,-0.18639 0.0456,-0.22431 0.0967,-0.0967 0.0462,0.1155 0.0405,0.2535 -0.0126,0.30667 -0.0532,0.0532 -0.091,-0.0413 -0.084,-0.21 z m -21.96263,-22.89597 c 0.1155,-0.0462 0.2535,-0.0405 0.30667,0.0126 0.0532,0.0532 -0.0413,0.091 -0.21,0.084 -0.18639,-0.008 -0.2243,-0.0456 -0.0967,-0.0967 z m 10.44264,-3.34403 c 0.008,-0.18639 0.0456,-0.22431 0.0967,-0.0967 0.0462,0.1155 0.0405,0.2535 -0.0126,0.30667 -0.0532,0.0532 -0.091,-0.0413 -0.084,-0.21 z m -4.49264,-10.78667 c 0,-0.088 0.0763,-0.16 0.16945,-0.16 0.0932,0 0.12494,0.072 0.0706,0.16 -0.0544,0.088 -0.13063,0.16 -0.16944,0.16 -0.0388,0 -0.0706,-0.072 -0.0706,-0.16 z m -15.615199,-14.76 -0.304798,-0.36 0.36,0.3048 c 0.33831,0.28643 0.432838,0.4152 0.304798,0.4152 -0.03036,0 -0.192361,-0.162 -0.36,-0.36 z m -1.036908,-1.04 -0.38789,-0.44 0.44,0.38789 c 0.411246,0.36254 0.513374,0.49211 0.38789,0.49211 -0.02866,0 -0.22666,-0.198 -0.44,-0.44 z m -47.848299,-2.72 c -0.199019,-0.25377 -0.19336,-0.25943 0.06041,-0.0604 0.26652,0.20902 0.351277,0.34041 0.219591,0.34041 -0.03323,0 -0.159225,-0.126 -0.28,-0.28 z m 75.580406,-12.9546 c 0.242,-0.0367 0.638,-0.0367 0.88,0 0.242,0.0367 0.044,0.0667 -0.44,0.0667 -0.484,0 -0.682,-0.03 -0.44,-0.0667 z m 8.89959,-20.3254 c -0.19902,-0.25377 -0.19336,-0.25943 0.0604,-0.0604 0.26652,0.20902 0.35128,0.34041 0.21959,0.34041 -0.0332,0 -0.15922,-0.126 -0.28,-0.28 z m -28.61959,-4.10041 c 0,-0.0332 0.126,-0.15922 0.28,-0.28 0.25377,-0.19902 0.25943,-0.19336 0.0604,0.0604 -0.20902,0.26652 -0.34041,0.35128 -0.34041,0.21959 z m -3.65473,-11.29959 c 0,-0.22 0.0363,-0.31 0.0807,-0.2 0.0444,0.11 0.0444,0.29 0,0.4 -0.0444,0.11 -0.0807,0.02 -0.0807,-0.2 z m 0.14737,-2.33333 c 0.008,-0.18639 0.0456,-0.22431 0.0967,-0.0967 0.0462,0.1155 0.0405,0.2535 -0.0126,0.30667 -0.0532,0.0532 -0.091,-0.0413 -0.084,-0.21 z m -28.000005,-4.16 c 0.0077,-0.18639 0.04559,-0.22431 0.09667,-0.0967 0.04622,0.1155 0.04054,0.2535 -0.01262,0.30667 -0.05317,0.0532 -0.09098,-0.0413 -0.08404,-0.21 z m 57.772635,-7.42667 c 0,-0.22 0.0363,-0.31 0.0807,-0.2 0.0444,0.11 0.0444,0.29 0,0.4 -0.0444,0.11 -0.0807,0.02 -0.0807,-0.2 z m -73.785267,-17.82041 c 0,-0.0332 0.126,-0.15922 0.28,-0.28 0.25377,-0.19902 0.259429,-0.19336 0.06041,0.0604 -0.20902,0.26652 -0.34041,0.35128 -0.34041,0.21959 z m 75.532637,-2.43292 c 0.008,-0.18639 0.0456,-0.22431 0.0967,-0.0967 0.0462,0.1155 0.0405,0.2535 -0.0126,0.30667 -0.0532,0.0532 -0.091,-0.0413 -0.084,-0.21 z m -42.922637,-12.97597 c 0.115499,-0.0462 0.253501,-0.0405 0.306667,0.0126 0.05317,0.0532 -0.04133,0.091 -0.21,0.084 -0.186392,-0.008 -0.224304,-0.0456 -0.09667,-0.0967 z"
         id="path3657" /><path
         style="fill:#494949;fill-opacity:1;stroke-width:0.16"
         d="m 128.87661,-223.44045 c 0,-0.22 0.0363,-0.31 0.0807,-0.2 0.0444,0.11 0.0444,0.29 0,0.4 -0.0444,0.11 -0.0807,0.02 -0.0807,-0.2 z m -6.32717,-7.22928 c 0.0462,-0.0748 0.15104,-0.0945 0.23296,-0.0439 0.20934,0.12938 0.18577,0.17984 -0.084,0.17984 -0.12813,0 -0.19515,-0.0612 -0.14894,-0.13595 z m 1.52717,-6.37072 c 0,-0.22 0.0363,-0.31 0.0807,-0.2 0.0444,0.11 0.0444,0.29 0,0.4 -0.0444,0.11 -0.0807,0.02 -0.0807,-0.2 z m -28.825267,-1.92944 c 0,-0.0932 0.072,-0.12495 0.16,-0.0706 0.088,0.0544 0.16,0.13064 0.16,0.16944 0,0.0388 -0.072,0.0706 -0.16,0.0706 -0.088,0 -0.16,-0.0762 -0.16,-0.16944 z m 21.132627,-6.00389 c 0.008,-0.18639 0.0456,-0.22431 0.0967,-0.0967 0.0462,0.1155 0.0405,0.2535 -0.0126,0.30667 -0.0532,0.0532 -0.091,-0.0413 -0.084,-0.21 z m -7.07304,-11.54667 c -0.19902,-0.25377 -0.19336,-0.25943 0.0604,-0.0604 0.26652,0.20902 0.35128,0.34041 0.21959,0.34041 -0.0332,0 -0.15922,-0.126 -0.28,-0.28 z m 1.90041,-9.90596 c 0.11,-0.0444 0.29,-0.0444 0.4,0 0.11,0.0444 0.02,0.0807 -0.2,0.0807 -0.22,0 -0.31,-0.0363 -0.2,-0.0807 z m -13.217866,-5.70737 c -0.132305,-0.15942 -0.123777,-0.21334 0.03374,-0.21334 0.115936,0 0.210793,0.096 0.210793,0.21334 0,0.11733 -0.01518,0.21333 -0.03374,0.21333 -0.01856,0 -0.113416,-0.096 -0.210794,-0.21333 z m 31.337866,-18.40708 c 0,-0.0332 0.126,-0.15922 0.28,-0.28 0.25377,-0.19902 0.25943,-0.19336 0.0604,0.0604 -0.20902,0.26652 -0.34041,0.35128 -0.34041,0.21959 z m -37.435363,-8.89334 c -0.129452,-0.0819 -0.193712,-0.19051 -0.1428,-0.24142 0.05091,-0.0509 0.183641,0.0172 0.294956,0.1513 0.230816,0.27812 0.186559,0.30433 -0.152156,0.0901 z m -54.872002,-9.85958 c 0.0077,-0.18639 0.04559,-0.22431 0.09667,-0.0967 0.04622,0.1155 0.04053,0.2535 -0.01263,0.30667 -0.05317,0.0532 -0.09098,-0.0413 -0.08404,-0.21 z m 64.799995,-18.72 c 0.008,-0.18639 0.0456,-0.22431 0.0967,-0.0967 0.0462,0.1155 0.0405,0.2535 -0.0126,0.30667 -0.0532,0.0532 -0.091,-0.0413 -0.084,-0.21 z m 0.17856,-2.22667 c 0.003,-0.264 0.0391,-0.35263 0.0797,-0.19696 0.0406,0.15568 0.0379,0.37168 -0.006,0.48 -0.0438,0.10833 -0.077,-0.019 -0.0738,-0.28304 z m -0.49856,-2.09333 c 0.008,-0.18639 0.0456,-0.22431 0.0967,-0.0967 0.0462,0.1155 0.0405,0.2535 -0.0126,0.30667 -0.0532,0.0532 -0.091,-0.0413 -0.084,-0.21 z"
         id="path3655" /><path
         style="fill:#333333;fill-opacity:1;stroke-width:0.16"
         d="m 34.771343,-215.67744 c 0,-0.0423 0.181978,-1.42835 0.404395,-3.08 2.208362,-16.39914 7.375583,-30.43126 16.159584,-43.88301 0.545907,-0.836 2.046339,-3.12992 3.33429,-5.09761 1.287952,-1.96768 2.341731,-3.67923 2.341731,-3.80343 0,-0.1242 -0.162,-0.29307 -0.36,-0.37527 -0.198,-0.0822 -0.91948,-0.37599 -1.603288,-0.65287 -1.278662,-0.51774 -3.461827,-1.7824 -4.541542,-2.63082 -5.231994,-4.11118 -9.503389,-11.85981 -11.805897,-21.41677 -0.449741,-1.86673 -1.118355,-5.783 -1.287836,-7.54323 -0.05931,-0.616 -0.137096,-1.372 -0.172856,-1.68 -0.08246,-0.7102 -0.08648,-6.63957 -0.0049,-7.28 0.03361,-0.264 0.111968,-1.056 0.174121,-1.76 0.606453,-6.86918 3.55585,-16.19491 7.691555,-24.32 2.145685,-4.21546 5.552916,-9.77167 5.871521,-9.57476 0.09659,0.0597 0.121504,0.028 0.05833,-0.0742 -0.129732,-0.20992 0.797365,-1.55101 1.072212,-1.55101 0.103512,0 0.188299,-0.11052 0.188414,-0.24561 1.17e-4,-0.13508 0.167021,-0.45908 0.370901,-0.72 0.203878,-0.26091 0.767613,-0.9971 1.252742,-1.63596 0.499941,-0.65837 0.956555,-1.11552 1.054032,-1.05528 0.09475,0.0586 0.126133,0.0321 0.06989,-0.0589 -0.161175,-0.26078 2.544105,-3.30551 2.79772,-3.14876 0.07219,0.0446 0.09225,-0.0205 0.04457,-0.14479 -0.0947,-0.24677 3.046003,-3.26329 3.317941,-3.18675 0.08591,0.0242 0.112832,-0.0262 0.05983,-0.11197 -0.116603,-0.18867 0.462853,-0.52839 0.624885,-0.36636 0.0629,0.0629 0.09037,0.0145 0.06104,-0.10759 -0.07109,-0.29587 2.664293,-2.44053 5.058077,-3.96575 4.168062,-2.65573 8.148096,-4.35711 13.20859,-5.64638 10.743717,-2.73721 22.024005,-1.88928 33.703575,2.53347 4.11392,1.55783 18.11594,7.47249 18.48884,7.80995 0.19187,0.17364 0.28758,0.48932 0.28758,0.94848 0,1.17468 -1.3011,9.16221 -2.05516,12.61672 -0.25165,1.15287 -0.25967,1.49178 -0.0778,3.28547 0.11154,1.1 0.27215,2.324 0.3569,2.72 0.20853,0.97434 -0.03,3.38768 -0.6256,6.32811 -0.56364,2.78288 -0.58745,3.52499 -0.15773,4.91626 0.34532,1.11802 1.73102,3.22668 3.79744,5.7787 0.63377,0.78269 1.11312,1.48648 1.06522,1.56397 -0.0479,0.0775 -0.0122,0.1211 0.0792,0.0969 0.22606,-0.0598 2.98349,3.30214 3.37968,4.12055 0.39006,0.80577 0.39248,1.09563 0.016,1.92442 -0.39163,0.86221 -1.42271,1.71875 -2.89419,2.40425 -0.66221,0.3085 -1.33296,0.63218 -1.49054,0.71929 -0.15758,0.0871 -0.3667,0.10881 -0.46472,0.0482 -0.10117,-0.0625 -0.1337,-0.0381 -0.0753,0.0565 0.0566,0.0916 -0.0154,0.26475 -0.16006,0.38472 -0.14467,0.11997 -0.35676,0.44237 -0.47133,0.71645 -0.31661,0.75742 -0.0213,1.56819 0.91332,2.50776 0.4315,0.43378 0.78455,0.91608 0.78455,1.07177 0,0.57303 -0.52311,1.50689 -1.31043,2.33937 -0.62568,0.66156 -0.78845,0.93704 -0.72012,1.21877 0.0486,0.20021 0.16005,0.64436 0.24776,0.98701 0.26772,1.04591 -0.0426,1.65842 -1.23559,2.43896 -0.56011,0.36645 -1.15364,0.87142 -1.31895,1.12216 -0.40168,0.60925 -0.38735,1.71299 0.0443,3.41588 0.48263,1.9038 0.48832,4.0014 0.0133,4.90281 -0.50153,0.95171 -1.48896,1.73255 -2.57702,2.03785 -1.19423,0.33508 -3.9939,0.34086 -5.87896,0.0121 -1.25064,-0.21809 -8.0105,-1.85788 -9.50328,-2.30528 -0.91276,-0.27356 -1.66648,-0.2014 -2.28572,0.21883 -0.31312,0.21249 -0.61117,0.35649 -0.66233,0.32 -0.0511,-0.0365 -0.0615,-0.0229 -0.0231,0.0302 0.0385,0.0531 -0.2167,0.51648 -0.56702,1.02969 -0.8182,1.19867 -1.33817,2.49057 -1.82108,4.52458 -0.9291,3.9133 -1.0658,8.52816 -0.31842,10.74914 0.56567,1.681 2.34233,4.89451 3.685,6.66522 0.66246,0.87364 0.6715,0.90085 0.25901,0.78011 -1.99187,-0.58308 -6.69679,-2.84592 -6.62344,-3.18556 0.0242,-0.11195 -0.0314,-0.15699 -0.12345,-0.10008 -0.0921,0.0569 -0.63813,-0.23242 -1.21343,-0.64295 -6.187624,-4.41539 -13.912795,-16.77801 -19.544272,-31.27674 -2.51929,-6.48613 -5.770567,-15.99708 -8.532471,-24.96 -1.279124,-4.15101 -1.251931,-4.07175 -1.3599,-3.96378 -0.290391,0.29039 2.384884,11.61978 4.484449,18.99098 0.662226,2.32496 1.180229,4.25101 1.151115,4.28013 -0.05294,0.0529 -3.166163,-6.26876 -3.756193,-7.62733 -0.171984,-0.396 -0.615503,-1.368 -0.985599,-2.16 -2.416587,-5.17147 -5.802846,-13.72214 -7.857094,-19.84 -0.38869,-1.15757 -0.721578,-1.93138 -0.750638,-1.74488 -0.112834,0.72414 2.07788,8.82491 3.825236,14.14488 3.193796,9.72377 7.076754,18.5712 12.835266,29.24552 1.295294,2.40103 2.305242,4.44616 2.244326,4.54472 -0.06408,0.10369 -0.03894,0.13482 0.05966,0.0739 0.100832,-0.0623 0.578928,0.6299 1.170887,1.69528 1.398867,2.51761 3.624825,6.21046 5.210068,8.64347 0.738389,1.13327 1.294399,2.13836 1.235578,2.23353 -0.05882,0.0952 -0.03377,0.12782 0.05566,0.0725 0.08944,-0.0553 0.578162,0.4916 1.086056,1.21528 0.507894,0.72368 1.435845,1.95047 2.06211,2.72619 0.626266,0.77573 1.138666,1.47773 1.138666,1.56 0,0.0823 0.05053,0.13159 0.11229,0.10959 0.163443,-0.0582 1.407627,1.19069 1.322844,1.32787 -0.03938,0.0637 0.04942,0.21403 0.197341,0.334 0.227661,0.18464 0.248536,0.18424 0.135967,-0.003 -0.09246,-0.15348 -0.06525,-0.19615 0.08929,-0.14 0.12225,0.0444 0.198272,0.17975 0.168939,0.30075 -0.02933,0.121 0.0017,0.165 0.06891,0.0978 0.06723,-0.0672 0.307232,0.0519 0.533334,0.26481 0.686501,0.64635 3.465035,2.46071 4.776225,3.11884 2.19678,1.10263 4.77214,1.80734 7.39486,2.0235 1.93156,0.1592 2.4,0.45274 2.4,1.50394 0,1.10172 -1.67282,4.89537 -3.20357,7.26511 -0.72442,1.12147 -0.83887,1.23135 -1.08321,1.04 -0.24405,-0.19111 -0.25061,-0.18507 -0.0614,0.0566 0.18027,0.23033 0.15864,0.34242 -0.14545,0.75372 -0.19646,0.26573 -0.41693,0.44623 -0.48993,0.40112 -0.073,-0.0451 -0.0964,0.0126 -0.052,0.12832 0.0979,0.25514 -0.9185,1.33295 -1.5792,1.67462 -0.94191,0.48708 -1.75449,0.24573 -7.865182,-2.33613 -8.214758,-3.47085 -17.728312,-7.21222 -18.339237,-7.21222 -0.07742,0 -0.140763,0.072 -0.140763,0.16 0,0.088 0.067,0.16 0.148885,0.16 0.213947,0 2.532361,1.10411 8.779269,4.181 3.618705,1.78238 5.449705,2.76538 5.375278,2.88581 -0.06817,0.1103 -0.04201,0.13883 0.06605,0.0721 0.09841,-0.0608 2.215536,0.92319 4.704722,2.18669 4.671838,2.37141 5.489998,2.67454 7.217998,2.67432 2.61118,-3.2e-4 5.11788,-2.56669 6.29016,-6.43987 0.12652,-0.418 0.26114,-0.76 0.29917,-0.76 0.15117,0 1.07128,3.27669 1.6811,5.98674 1.62487,7.22093 1.62646,10.97506 0.005,12.86546 -0.17554,0.20472 -0.39496,0.32537 -0.48759,0.26811 -0.0926,-0.0572 -0.14865,-0.011 -0.12448,0.10287 0.0264,0.12436 -0.32325,0.33538 -0.87603,0.52866 -0.506,0.17692 -0.92,0.38644 -0.92,0.46559 0,0.26701 1.99019,-0.0671 2.84133,-0.47707 0.92778,-0.44683 1.48654,-1.07493 1.91386,-2.15135 0.44607,-1.12365 0.38911,-7.56499 -0.0947,-10.70901 -0.33017,-2.14568 -1.2068,-6.84697 -1.39561,-7.48457 -0.17451,-0.58929 1.30009,2.37046 1.9429,3.89974 1.48685,3.53725 2.41288,6.50079 3.02001,9.66483 0.52358,2.72858 0.62599,4.04075 0.41677,5.34009 -0.4873,3.02646 -2.20057,4.00987 -5.92457,3.40067 -1.72664,-0.28245 -4.327,-1.04869 -6.56,-1.93302 -2.99836,-1.18742 -10.814232,-5.40582 -10.614555,-5.72891 0.06105,-0.0988 0.02721,-0.12081 -0.08196,-0.0533 -0.238486,0.14739 -2.600462,-1.18857 -2.47119,-1.39774 0.05343,-0.0865 0.01681,-0.10754 -0.08138,-0.0469 -0.2408,0.14882 -4.053271,-1.97527 -3.923173,-2.18578 0.05882,-0.0952 0.02328,-0.11609 -0.08428,-0.0496 -0.265832,0.16429 -3.124188,-1.36731 -2.865378,-1.53536 0.13617,-0.0884 0.09772,-0.11793 -0.118074,-0.0906 -0.176,0.0223 -2.588,-1.08891 -5.36,-2.46926 -5.821174,-2.89875 -10.346244,-4.90065 -15.168948,-6.71078 -3.331493,-1.25042 -4.942594,-1.64538 -2.897316,-0.71026 1.021791,0.46717 8.009773,3.78034 9.139412,4.33321 0.326232,0.15967 0.549107,0.36156 0.495278,0.44866 -0.05383,0.0871 -0.01909,0.10967 0.07719,0.0502 0.232405,-0.14363 2.602836,1.03563 2.480288,1.23392 -0.05244,0.0849 -0.01254,0.1031 0.08867,0.0406 0.19259,-0.11903 3.453139,1.53455 7.76503,3.93801 2.96346,1.65184 3.177816,1.79143 3.019383,1.96627 -0.06544,0.0722 -0.03156,0.0811 0.07529,0.0197 0.234834,-0.13485 4.55937,2.43637 4.435322,2.63709 -0.04742,0.0767 0.0075,0.10529 0.122096,0.0635 0.265366,-0.0968 3.517797,2.07266 3.363434,2.24354 -0.06332,0.0701 -0.03082,0.0792 0.07221,0.0202 0.222541,-0.12743 7.673061,4.96336 7.608691,5.19887 -0.0242,0.0885 0.0246,0.11852 0.10835,0.0667 0.0838,-0.0518 1.07555,0.50912 2.20397,1.24643 1.1284,0.73731 3.2002,2.01152 4.60398,2.83159 4.14828,2.42337 6.32542,3.25321 8.56767,3.26566 1.01723,0.006 1.34622,-0.0658 2.16,-0.46924 0.528,-0.26174 1.01935,-0.45796 1.09189,-0.43603 0.0725,0.0219 0.093,-0.023 0.0455,-0.0999 -0.0475,-0.0769 0.0603,-0.29718 0.2396,-0.48962 0.68206,-0.7321 0.99455,-1.77167 1.07043,-3.56105 0.0643,-1.51653 -0.13199,-4.13547 -0.39365,-5.25173 -0.19472,-0.83066 0.23582,-0.036 1.42725,2.6342 2.76069,6.18728 4.50107,10.49402 6.75666,16.72 0.89081,2.45885 1.67112,4.74376 1.68022,4.92 0.001,0.022 -22.24595,0.04 -49.437945,0.04 -27.192,0 -49.44,-0.0346 -49.44,-0.077 z m 93.276827,-2.84301 c 0.8001,-0.40878 1.2254,-1.0938 1.38018,-2.22309 0.10347,-0.75491 -0.19765,-3.01691 -0.40162,-3.01691 -0.0636,0 -0.11997,0.45386 -0.12519,1.00858 -0.0151,1.60541 -0.54802,2.35144 -1.67968,2.3514 -2.40747,-10e-5 -9.64746,-4.03963 -20.37052,-11.36567 -6.42631,-4.39048 -7.271717,-4.99826 -7.173507,-5.15717 0.05811,-0.094 0.026,-0.11902 -0.07373,-0.0574 -0.09717,0.0601 -1.416697,-0.72042 -2.932277,-1.73439 -2.653152,-1.77504 -3.638849,-2.2507 -2.300486,-1.11013 0.352,0.29998 0.620216,0.62263 0.596035,0.71699 -0.02418,0.0944 0.02982,0.12596 0.12,0.0702 0.09018,-0.0557 0.163965,-0.0251 0.163965,0.0681 0,0.0932 0.09453,0.16944 0.210066,0.16944 0.296776,0 1.099752,0.8743 0.952174,1.03675 -0.06723,0.074 -0.03122,0.0821 0.08003,0.0181 0.12648,-0.0728 0.725981,0.32392 1.6,1.05892 0.768754,0.64648 1.541733,1.29367 1.717733,1.43821 2.581567,2.12002 3.100397,2.59034 3.013177,2.73147 -0.0619,0.1001 -0.0241,0.11751 0.0951,0.0438 0.23998,-0.14831 1.16609,0.68771 1.02131,0.92196 -0.0555,0.0899 -0.0189,0.11069 0.0835,0.0474 0.10547,-0.0652 1.01112,0.55471 2.14472,1.46801 5.93423,4.78101 12.72193,9.28433 16.12668,10.6993 2.8614,1.18915 4.55249,1.42907 5.7523,0.81608 z m -15.93358,-24.81431 c 1.1883,-0.77861 1.70775,-2.45285 1.79504,-5.78569 0.0707,-2.69736 -0.0426,-2.68118 -0.56027,0.08 -0.41846,2.23222 -1.21263,3.97157 -2.15251,4.71436 -0.58304,0.46078 -0.68951,0.48564 -2.08,0.48564 -0.80603,0 -2.00551,-0.0515 -2.66551,-0.11447 l -1.2,-0.11446 0.96,0.32386 c 2.42092,0.8167 5.00888,0.99677 5.90325,0.41076 z m -11.53419,-49.49736 c -0.633015,-0.41151 -1.107892,-0.81785 -1.055278,-0.90299 0.05262,-0.0851 0.02524,-0.11126 -0.06083,-0.0581 -0.194293,0.12008 -1.73025,-0.95291 -1.740224,-1.21569 -0.004,-0.10537 -0.104432,-0.1701 -0.223181,-0.14385 -0.118749,0.0263 -0.403477,-0.12184 -0.632728,-0.32909 -0.229249,-0.20724 -0.704819,-0.58708 -1.056819,-0.84409 -0.352,-0.257 -1.414,-1.13525 -2.36,-1.95166 -1.61684,-1.39534 -2.017882,-1.64987 -1.480037,-0.93932 0.126383,0.16697 0.184968,0.37609 0.130191,0.46472 -0.05478,0.0886 -0.02454,0.11477 0.06719,0.0581 0.191435,-0.11831 1.43,1.32303 1.34932,1.57023 -0.02933,0.0899 -0.0016,0.11168 0.06163,0.0485 0.06323,-0.0632 0.627227,0.36011 1.253333,0.94075 1.365217,1.26608 2.931131,2.34628 4.661212,3.21541 1.422301,0.71451 1.650441,0.80869 1.997161,0.82444 0.132,0.006 -0.27792,-0.3258 -0.91094,-0.73731 z m 4.42948,-21.24657 c 0.10875,-0.13103 0.27269,-0.1919 0.36431,-0.13528 0.1013,0.0626 0.11814,0.0246 0.043,-0.0971 -0.0786,-0.12718 0.13531,-0.47125 0.58733,-0.94472 0.79911,-0.83703 3.30155,-3.96556 4.62704,-5.78469 0.79741,-1.09438 3.05529,-4.42626 5.97315,-8.81437 0.61966,-0.93191 2.67299,-4.40006 4.56295,-7.70702 1.88996,-3.30695 3.50309,-5.97136 3.58472,-5.9209 0.0816,0.0504 0.0992,0.0121 0.0391,-0.0851 -0.0601,-0.0973 0.72075,-1.83581 1.73528,-3.86339 1.01453,-2.02758 1.84459,-3.77137 1.84459,-3.87509 0,-0.3038 -0.99457,-2.37409 -1.14052,-2.37409 -0.0732,0 -1.39551,2.538 -2.93837,5.64 -5.49735,11.05265 -10.31857,19.92782 -13.75446,25.32 -3.13594,4.92143 -4.62899,7.05842 -4.88794,6.99604 -0.10037,-0.0242 -0.13499,0.0329 -0.0769,0.12684 0.0581,0.0939 -0.15259,0.48584 -0.46811,0.87089 -0.31551,0.38505 -0.57367,0.74197 -0.57367,0.79316 0,0.1774 0.28177,0.0919 0.47854,-0.14517 z m -3.76064,-8.68176 c 0.56449,-3.75563 0.7479,-5.81232 0.83262,-9.33661 0.11158,-4.64207 -0.10948,-5.47453 -0.40752,-1.5346 -0.10781,1.42517 -0.22686,2.91521 -0.26456,3.31121 -0.0377,0.396 -0.14327,1.98 -0.2346,3.52 -0.0913,1.54 -0.20355,3.25 -0.2494,3.8 -0.0975,1.17004 0.15546,1.35775 0.32346,0.24 z"
         id="path3653" /></g></g></svg>
