<?xml version="1.0" encoding="UTF-8" standalone="no"?>
<!-- Created with Inkscape (http://www.inkscape.org/) -->

<svg
   version="1.1"
   id="svg1"
   width="104.07708"
   height="156.68977"
   viewBox="0 0 104.07708 156.68977"
   sodipodi:docname="womanav5.svg"
   inkscape:version="1.2.2 (732a01da63, 2022-12-09)"
   xml:space="preserve"
   xmlns:inkscape="http://www.inkscape.org/namespaces/inkscape"
   xmlns:sodipodi="http://sodipodi.sourceforge.net/DTD/sodipodi-0.dtd"
   xmlns="http://www.w3.org/2000/svg"
   xmlns:svg="http://www.w3.org/2000/svg"><defs
     id="defs1" /><sodipodi:namedview
     id="namedview1"
     pagecolor="#ffffff"
     bordercolor="#cccccc"
     borderopacity="1"
     inkscape:showpageshadow="0"
     inkscape:pageopacity="1"
     inkscape:pagecheckerboard="0"
     inkscape:deskcolor="#d1d1d1"
     showgrid="false"
     inkscape:zoom="2.755"
     inkscape:cx="29.038113"
     inkscape:cy="115.06352"
     inkscape:window-width="1366"
     inkscape:window-height="705"
     inkscape:window-x="-8"
     inkscape:window-y="32"
     inkscape:window-maximized="1"
     inkscape:current-layer="g1" /><g
     inkscape:groupmode="layer"
     inkscape:label="Image"
     id="g1"
     transform="translate(233.43201,440.82801)"><path
       style="fill:#000000;stroke-width:0.16"
       d="m -227.84323,-284.39596 c -0.0829,-0.15499 -0.17554,-1.37748 -0.20577,-2.71664 l -0.0549,-2.43484 0.48,-0.4557 c 0.264,-0.25063 1.236,-0.76783 2.16,-1.14934 2.27592,-0.9397 5.43653,-2.52127 7.4105,-3.70822 1.41377,-0.8501 6.47081,-4.2238 7.6295,-5.08987 0.22,-0.16444 1.48,-1.05878 2.8,-1.98743 1.32,-0.92864 2.724,-1.93052 3.12,-2.2264 2.72409,-2.03531 11.92333,-7.87704 15.92,-10.10956 10.61913,-5.9318 17.30321,-8.16122 24.4,-8.13842 6.78442,0.0218 12.6872,2.29515 18.45102,7.10613 6.0267,5.03039 10.08691,12.35709 12.65623,22.83835 0.66773,2.72394 1.41293,7.02763 1.34277,7.75478 l -0.05,0.51844 -47.95423,0.0403 c -45.64723,0.0383 -47.96148,0.0267 -48.10505,-0.24154 z m 22.88758,-4.61208 c 1.17243,-0.31535 2.50198,-0.67243 2.95455,-0.7935 2.47859,-0.6631 10.45589,-3.41754 14.39729,-4.97117 2.25796,-0.89005 5.60567,-2.29896 8.13986,-3.42573 0.44,-0.19563 1.088,-0.48365 1.44,-0.64004 0.352,-0.1564 2.152,-0.96517 4,-1.79729 6.94013,-3.125 10.4976,-4.21998 15.00736,-4.61924 3.41239,-0.30211 2.69243,-0.50864 -1.44736,-0.4152 -3.09212,0.0698 -3.92899,0.14385 -5.56,0.49203 -3.46043,0.73872 -6.95124,2.06605 -12.48,4.74533 -2.84515,1.37878 -7.34951,3.5036 -8.8,4.15117 -6.30814,2.81627 -9.78147,4.17254 -16.88,6.59133 -1.54,0.52475 -2.8684,1.02194 -2.952,1.10488 -0.22029,0.21854 -0.15947,0.20675 2.1803,-0.42257 z m -22.2683,-2.25192 c 0,-0.0372 1.08608,-1.18644 2.41351,-2.55388 2.60263,-2.68108 3.01729,-3.31716 3.02298,-4.63716 0.003,-0.66852 -0.15411,-1.13749 -0.86696,-2.58997 -1.53557,-3.12881 -1.91586,-5.08751 -1.17505,-6.05213 0.48892,-0.63663 0.44653,-0.61518 2.68552,-1.35867 2.21308,-0.73489 4.52197,-1.71912 6.4976,-2.76978 1.49852,-0.79693 4.22051,-2.52361 4.22164,-2.67797 4.8e-4,-0.0577 -0.91724,0.28684 -2.03924,0.76556 -1.65096,0.70442 -5.95491,2.29928 -6.20493,2.29928 -0.0335,0 0.0445,-0.29875 0.17336,-0.66388 0.16914,-0.4794 0.22799,-1.3057 0.21179,-2.97357 -0.031,-3.19491 -0.14746,-3.05961 3.13978,-3.64878 2.95221,-0.52913 6.2826,-1.92452 9.11805,-3.82033 0.86047,-0.57532 1.63804,-1.00058 1.72794,-0.94502 0.0899,0.0556 0.11695,0.0258 0.0601,-0.0662 -0.0568,-0.092 0.0753,-0.28429 0.2937,-0.42737 1.21323,-0.79494 6.11266,-5.08828 10.22505,-8.96014 1.22366,-1.15209 2.28566,-2.07671 2.36,-2.05471 0.0743,0.022 0.11716,-0.0238 0.0952,-0.10183 -0.022,-0.078 1.40091,-1.608 3.16202,-3.4 1.76111,-1.79199 4.05267,-4.20697 5.09234,-5.36661 1.40916,-1.57176 1.96971,-2.09314 2.20225,-2.04836 0.17196,0.0331 0.26916,-0.009 0.2166,-0.0942 -0.0524,-0.0848 -0.16235,-0.11283 -0.24427,-0.0622 -0.37603,0.2324 -0.0872,-0.2422 0.49106,-0.80683 0.352,-0.34372 0.64,-0.69329 0.64,-0.77683 0,-0.17842 -0.64616,0.42318 -6.08,5.66073 -4.72299,4.55237 -5.79816,5.56181 -8.96,8.41222 -5.08884,4.58762 -9.93497,8.68478 -12.1321,10.25709 -1.4784,1.05798 -3.67566,2.37237 -3.78429,2.26374 -0.036,-0.036 0.37005,-0.42351 0.9023,-0.86119 1.53834,-1.26499 3.50706,-3.43237 3.91659,-4.31182 0.2059,-0.44217 0.37507,-1.04548 0.37593,-1.34069 8e-4,-0.29521 -0.36741,-1.41121 -0.81838,-2.48 -2.05251,-4.86442 -1.99823,-5.2599 1.09497,-7.97779 2.05899,-1.80916 5.33175,-5.16395 6.59455,-6.75983 3.48798,-4.40799 5.44128,-8.39479 7.44986,-15.20563 2.19463,-7.44168 3.2007,-15.00778 3.54233,-26.64 0.0556,-1.892 0.0619,-3.404 0.0141,-3.36 -0.0478,0.044 -0.2402,1.412 -0.42749,3.04 -0.70707,6.1463 -1.31223,10.8618 -1.62214,12.64 -0.47661,2.73463 -1.85636,9.34881 -1.88992,9.05973 -0.009,-0.0772 -0.23349,-2.41715 -0.49897,-5.2 -0.524,-5.49277 -0.7666,-7.54026 -1.30098,-10.97973 -0.39338,-2.53196 -0.70397,-3.27053 -0.53828,-1.28 0.11131,1.33723 1.31612,12.6051 1.43706,13.44 0.17057,1.17752 0.3232,4.3422 0.3048,6.32 -0.0336,3.61018 -0.78692,6.74444 -2.38985,9.94308 -1.42721,2.84798 -7.27006,11.28532 -7.27006,10.49829 0,-0.71802 -0.3955,-3.16733 -0.73782,-4.56922 -0.22131,-0.90632 -0.37983,-1.80524 -0.35228,-1.9976 0.0315,-0.21961 0.30664,-0.49099 0.73956,-0.72935 0.83243,-0.45833 0.79658,-0.60316 -0.0649,-0.26221 -0.55161,0.21832 -0.58855,0.21876 -0.31624,0.004 0.56412,-0.44541 0.15261,-0.4191 -1.28526,0.0822 -8.4541,2.94736 -11.19841,3.6195 -14.2061,3.47932 -2.22403,-0.10367 -3.4407,-0.75791 -4.38334,-2.3571 -0.54408,-0.92302 -0.656,-2.81605 -0.28919,-4.89116 0.3345,-1.89238 0.32174,-2.52303 -0.0665,-3.28403 -0.32998,-0.64685 -0.5099,-0.79849 -1.75794,-1.48181 -1.61908,-0.88645 -1.90695,-2.59026 -0.67502,-3.99514 0.29223,-0.33325 0.36328,-0.26052 -0.90852,-0.92995 -1.72515,-0.90805 -2.06493,-1.99931 -1.06181,-3.41022 0.86272,-1.21344 1.13309,-2.0551 0.90484,-2.81691 -0.33064,-1.10357 -0.8371,-1.52342 -2.70579,-2.24306 -0.94253,-0.36298 -2.00772,-0.83124 -2.36708,-1.04057 -0.89581,-0.52182 -1.76877,-1.52809 -2.00254,-2.30836 -0.3174,-1.05938 -0.0338,-1.64416 1.79584,-3.70334 2.84525,-3.20215 4.18494,-4.95699 5.60864,-7.34661 1.74415,-2.92752 2.12513,-5.09828 1.33789,-7.62326 -0.42202,-1.35354 -0.48006,-1.44223 -1.70168,-2.59987 -1.30227,-1.23408 -1.57312,-1.70036 -0.88776,-1.52835 0.6865,0.17231 0.87329,-0.22524 0.69254,-1.47394 -0.11533,-0.79667 -0.10035,-1.5736 0.0551,-2.85458 0.34742,-2.86386 0.34256,-2.89107 -1.01694,-5.68 -1.47469,-3.02524 -2.87113,-6.50814 -3.84906,-9.6 -0.97679,-3.08834 -1.27566,-4.60352 -1.17779,-5.97134 0.10739,-1.50087 0.35569,-1.72602 2.59796,-2.35563 2.8026,-0.78696 4.62839,-1.57542 10.65695,-4.60216 6.36908,-3.19771 8.63965,-4.27953 11.89318,-5.66657 6.20547,-2.64549 11.04061,-4.02433 17.05111,-4.86249 2.81477,-0.39252 9.20693,-0.39409 12.08,-0.003 8.14207,1.1084 15.08745,3.86815 21.48469,8.53693 7.71996,5.63413 14.01388,12.78452 18.30861,20.80005 0.44109,0.82323 0.73913,1.55935 0.674,1.66472 -0.0695,0.11252 -0.0482,0.14652 0.0529,0.0841 0.43535,-0.26906 3.38607,6.97041 4.75059,11.65537 4.77188,16.38385 4.74242,34.14466 -0.079,47.62084 -3.03351,8.47888 -6.39386,12.89233 -12.72152,16.70833 -1.04173,0.62823 -1.92029,1.22095 -1.95236,1.31715 -0.0321,0.0962 0.18029,0.29726 0.4719,0.4468 0.64184,0.32915 1.62619,1.135 1.18707,0.97182 -0.16673,-0.062 -0.85073,-0.25682 -1.52,-0.43302 -4.40298,-1.15917 -9.43472,-1.06362 -14.25686,0.27076 -1.55939,0.43151 -2.32905,0.81787 -1.28,0.64254 2.16125,-0.3612 3.71471,-0.45464 6.38736,-0.38418 2.51922,0.0664 3.21166,0.14134 4.53967,0.49123 5.9898,1.57812 10.57529,5.68604 12.44372,11.14773 0.28952,0.8463 2.72833,12.47776 2.64058,12.59377 -0.014,0.0186 -0.23424,-0.44942 -0.48931,-1.04 -1.13542,-2.6289 -2.95543,-5.38552 -4.96546,-7.52076 -4.09257,-4.34751 -10.10291,-7.68433 -16.22994,-9.01051 -2.23267,-0.48326 -6.47021,-0.59394 -8.67363,-0.22655 -3.60784,0.60155 -7.73471,2.14546 -14.77299,5.52673 -9.77913,4.69802 -16.51149,7.42674 -23.48,9.51679 -0.77,0.23094 -1.4,0.45971 -1.4,0.50838 0,0.33886 5.58762,-1.08403 9.82893,-2.50294 1.84192,-0.61621 3.37286,-1.09645 3.4021,-1.06721 0.10938,0.10938 -6.7805,4.47465 -12.91103,8.18014 -9.81575,5.93293 -13.93199,8.49029 -17.72,11.00919 -1.518,1.00941 -2.76,1.80487 -2.76,1.76769 z m 39.00116,-32.19071 c 5.48559,-2.54565 10.33611,-5.55302 14.10291,-8.74395 2.343,-1.98481 6.02417,-5.76342 8.33593,-8.5566 0.396,-0.47847 1.1188,-1.34098 1.60623,-1.9167 6.98301,-8.2479 12.49145,-16.59572 16.21076,-24.56676 1.46542,-3.14063 2.5263,-5.68 2.37294,-5.68 -0.063,0 -0.5326,0.8899 -1.0435,1.97756 -3.66529,7.803 -9.8383,17.46021 -15.45082,24.17164 -3.6114,4.31848 -9.1087,9.9852 -9.47005,9.76188 -0.11262,-0.0696 -0.1538,-0.0538 -0.0975,0.0373 0.16672,0.26976 -4.11326,4.12912 -4.38968,3.95829 -0.0805,-0.0498 -0.12655,-0.0148 -0.10237,0.0777 0.0343,0.13124 -1.66189,1.55155 -3.79604,3.17861 -0.088,0.0671 -0.36646,0.28188 -0.61881,0.47731 -0.25234,0.19542 -0.54034,0.30876 -0.64,0.25185 -0.0997,-0.0569 -0.12719,-0.0439 -0.0612,0.0288 0.13627,0.15026 -1.19461,1.15141 -3.87999,2.91871 -1.012,0.66602 -2.128,1.40052 -2.48,1.63223 -0.352,0.23171 -1.308,0.80641 -2.12443,1.27711 -1.45892,0.84112 -2.01205,1.26688 -1.28472,0.98888 0.20303,-0.0776 1.46767,-0.65087 2.8103,-1.27393 z m 38.41723,-22.66401 c 1.72346,-1.64109 3.99793,-4.24405 5.32779,-6.09723 1.64698,-2.2951 4.12346,-6.46277 3.84026,-6.46277 -0.0701,0 -0.28065,0.27247 -0.46782,0.60549 -0.51867,0.92285 -3.48674,5.04912 -4.85994,6.75638 -1.7908,2.22645 -3.81248,4.52246 -5.4318,6.16886 -0.78479,0.79791 -1.42688,1.50473 -1.42688,1.57072 0,0.1845 1.34449,-0.94755 3.01839,-2.54145 z m -13.84529,-35.53028 c 1.10818,-5.63803 0.51284,-17.82614 -1.25882,-25.7711 -0.45024,-2.01908 -1.45122,-5.31732 -1.69062,-5.57062 -0.19614,-0.20753 -0.20294,-0.25042 0.32984,2.08048 0.94965,4.15467 1.76029,9.73564 1.99741,13.75152 0.052,0.88 0.13587,2.05812 0.18645,2.61805 0.1223,1.35366 0.11035,10.87687 -0.0162,12.90195 -0.11781,1.88555 0.0802,1.88104 0.45193,-0.0103 z m -36.78074,-4.35581 c -3.81614,-7.87032 -19.77999,-30.07879 -25.48813,-35.45839 -0.27107,-0.25547 -0.44787,-0.54347 -0.39289,-0.64 0.055,-0.0965 0.0403,-0.12136 -0.0327,-0.0552 -0.073,0.0662 -0.26496,6.4e-4 -0.42664,-0.14569 -0.5571,-0.50417 -0.51012,-0.0476 0.0564,0.54828 1.69516,1.78304 3.80359,4.71399 9.81009,13.63706 1.56976,2.332 3.45721,5.12412 4.19433,6.20472 0.73711,1.08059 1.29592,2.03638 1.24179,2.12396 -0.0541,0.0876 -0.0289,0.13946 0.0561,0.11528 0.085,-0.0242 1.21755,1.46804 2.51688,3.31604 4.11962,5.85925 9.08974,12.43404 9.16533,12.12447 0.0291,-0.11916 -0.28615,-0.91591 -0.70055,-1.77056 z"
       id="path827" /></g></svg>
