<?xml version="1.0" encoding="UTF-8" standalone="no"?>
<!-- Created with Inkscape (http://www.inkscape.org/) -->

<svg
   version="1.1"
   id="svg1"
   width="99.009872"
   height="120.20638"
   viewBox="0 0 99.009873 120.20638"
   sodipodi:docname="womanav9.svg"
   inkscape:version="1.2.2 (732a01da63, 2022-12-09)"
   xml:space="preserve"
   xmlns:inkscape="http://www.inkscape.org/namespaces/inkscape"
   xmlns:sodipodi="http://sodipodi.sourceforge.net/DTD/sodipodi-0.dtd"
   xmlns="http://www.w3.org/2000/svg"
   xmlns:svg="http://www.w3.org/2000/svg"><defs
     id="defs1" /><sodipodi:namedview
     id="namedview1"
     pagecolor="#ffffff"
     bordercolor="#cccccc"
     borderopacity="1"
     inkscape:showpageshadow="0"
     inkscape:pageopacity="1"
     inkscape:pagecheckerboard="0"
     inkscape:deskcolor="#d1d1d1"
     showgrid="false"
     inkscape:zoom="1.3775"
     inkscape:cx="-24.682395"
     inkscape:cy="102.35935"
     inkscape:window-width="1366"
     inkscape:window-height="705"
     inkscape:window-x="-8"
     inkscape:window-y="32"
     inkscape:window-maximized="1"
     inkscape:current-layer="g1" /><g
     inkscape:groupmode="layer"
     inkscape:label="Image"
     id="g1"
     transform="translate(216.14957,566.26716)"><g
       id="g2588"
       transform="matrix(0.97375108,0,0,0.97375108,-217.73869,-44.970604)"
       style="fill:#231f20;fill-opacity:1"><path
         style="fill:#231f20;fill-opacity:1;stroke-width:0.16"
         d="m -2.970909,-257.22788 c 0,-0.0332 0.126,-0.15922 0.28,-0.28 0.253769,-0.19902 0.2594282,-0.19336 0.060409,0.0604 -0.209019,0.26652 -0.3404088,0.35128 -0.3404088,0.21959 z m 43.01,-1.00889 c 0.115499,-0.0462 0.253501,-0.0405 0.306667,0.0126 0.05317,0.0532 -0.04133,0.091 -0.21,0.084 -0.186392,-0.008 -0.224304,-0.0456 -0.09667,-0.0967 z m -37.73,-0.26077 c 0,-0.0275 0.234,-0.26153 0.52,-0.52 l 0.52,-0.46993 -0.4699346,0.52 c -0.4380449,0.48471 -0.5700654,0.59354 -0.5700654,0.46993 z m 8.8,-0.65034 c 0,-0.0332 0.126,-0.15922 0.28,-0.28 0.25377,-0.19902 0.259429,-0.19336 0.06041,0.0604 -0.20902,0.26652 -0.34041,0.35128 -0.34041,0.21959 z m -14.64,-0.73959 c 0.1592778,-0.176 0.325596,-0.32 0.369596,-0.32 0.044,0 -0.050318,0.144 -0.209596,0.32 -0.1592778,0.176 -0.325596,0.32 -0.369596,0.32 -0.044,0 0.050318,-0.144 0.209596,-0.32 z m 43.165842,-0.91841 c 0.509212,-0.0319 1.301212,-0.0315 1.76,6.4e-4 0.458787,0.0322 0.04216,0.0583 -0.925842,0.0579 -0.968,-3.2e-4 -1.343371,-0.0267 -0.834158,-0.0586 z m -48.5132104,-2.05492 c 0.00768,-0.18639 0.04559,-0.22431 0.096667,-0.0967 0.046219,0.1155 0.040535,0.2535 -0.012632,0.30667 -0.053167,0.0532 -0.090982,-0.0413 -0.084035,-0.21 z m 8.3873684,-0.0667 c 0.15927776,-0.176 0.325596,-0.32 0.369596,-0.32 0.044,0 -0.0503182,0.144 -0.209596,0.32 -0.15927776,0.176 -0.325596,0.32 -0.369596,0.32 -0.044,0 0.0503182,-0.144 0.209596,-0.32 z m -7.7347368,-7.36 c 0,-0.22 0.036316,-0.31 0.080702,-0.2 0.044386,0.11 0.044386,0.29 0,0.4 -0.044386,0.11 -0.080702,0.02 -0.080702,-0.2 z m 40.4977818,-2.67088 c 0.155675,-0.0406 0.371675,-0.0379 0.48,0.006 0.108325,0.0438 -0.01904,0.077 -0.283045,0.0738 -0.264,-0.003 -0.35263,-0.0391 -0.196955,-0.0797 z m -7.913045,-1.91842 c 0.115499,-0.0462 0.253499,-0.0405 0.306667,0.0126 0.05317,0.0532 -0.04133,0.091 -0.21,0.084 -0.186392,-0.008 -0.224304,-0.0456 -0.09667,-0.0967 z m 3.030997,-2.557 c 0.110549,-0.0446 0.153424,-0.15801 0.09528,-0.25209 -0.06248,-0.1011 -0.03018,-0.12437 0.079,-0.0569 0.279183,0.17255 0.221354,0.41693 -0.09528,0.40265 -0.16892,-0.008 -0.200261,-0.0448 -0.079,-0.0937 z m -25.6561989,-17.2137 -0.3047981,-0.36 0.36,0.3048 c 0.3383112,0.28643 0.4328386,0.4152 0.3047981,0.4152 -0.030361,0 -0.1923611,-0.162 -0.36,-0.36 z m 4.0747931,-0.72 c -0.1990194,-0.25377 -0.1933602,-0.25943 0.060409,-0.0604 0.2665197,0.20902 0.3512766,0.34041 0.2195912,0.34041 -0.033225,0 -0.159225,-0.126 -0.28,-0.28 z m 24.8852068,-2.32 -0.304798,-0.36 0.36,0.3048 c 0.33831,0.28643 0.432838,0.4152 0.304798,0.4152 -0.03036,0 -0.192361,-0.162 -0.36,-0.36 z m -27.1252068,-0.08 c -0.1990194,-0.25377 -0.1933602,-0.25943 0.060409,-0.0604 0.2665197,0.20902 0.3512766,0.34041 0.2195912,0.34041 -0.033225,0 -0.159225,-0.126 -0.28,-0.28 z m 85.1104088,-11.1893 c 0.115499,-0.0462 0.253501,-0.0405 0.306667,0.0126 0.05317,0.0532 -0.04133,0.091 -0.21,0.084 -0.186392,-0.008 -0.224304,-0.0456 -0.09667,-0.0967 z m -20.61,-11.79111 c 0,-0.0332 0.126,-0.15922 0.28,-0.28 0.25377,-0.19902 0.259429,-0.19336 0.06041,0.0604 -0.20902,0.26652 -0.34041,0.35128 -0.34041,0.21959 z m -70.6828795,-2.33959 c 0,-0.308 0.032927,-0.434 0.073172,-0.28 0.040244,0.154 0.040244,0.406 0,0.56 -0.040245,0.154 -0.073172,0.028 -0.073172,-0.28 z m 76.2828795,-2.78041 c 0,-0.0332 0.126,-0.15922 0.28,-0.28 0.25377,-0.19902 0.259429,-0.19336 0.06041,0.0604 -0.20902,0.26652 -0.34041,0.35128 -0.34041,0.21959 z m -75.8273685,-5.15292 c 0.00768,-0.18639 0.045591,-0.22431 0.096667,-0.0967 0.046219,0.1155 0.040535,0.2535 -0.012632,0.30667 -0.053167,0.0532 -0.090982,-0.0413 -0.084035,-0.21 z m 95.1873685,-12.60708 c 0,-0.0332 0.126,-0.15922 0.28,-0.28 0.25377,-0.19902 0.259429,-0.19336 0.06041,0.0604 -0.20902,0.26652 -0.34041,0.35128 -0.34041,0.21959 z M 52.74944,-347.4875 c 0.0018,-0.352 0.03454,-0.47716 0.07281,-0.27813 0.03827,0.19902 0.03682,0.48702 -0.0032,0.64 -0.04005,0.15297 -0.07136,-0.01 -0.06958,-0.36187 z m -0.667717,-2.09333 c 0.0077,-0.18639 0.04559,-0.22431 0.09667,-0.0967 0.04622,0.1155 0.04054,0.2535 -0.01262,0.30667 -0.05317,0.0532 -0.09098,-0.0413 -0.08404,-0.21 z M 1.7148532,-354.6875 c 0.0012,-0.44 0.032274,-0.60101 0.069051,-0.3578 0.036777,0.24321 0.035794,0.60321 -0.00218,0.8 -0.037978,0.19679 -0.068068,-0.002 -0.066867,-0.4422 z m 0.1268693,-3.21333 c 0.00768,-0.18639 0.045591,-0.22431 0.096667,-0.0967 0.046219,0.1155 0.040535,0.2535 -0.012632,0.30667 -0.053167,0.0532 -0.090982,-0.0413 -0.084035,-0.21 z m 36.3326305,-1.98667 c 0,-0.22 0.03632,-0.31 0.0807,-0.2 0.04438,0.11 0.04438,0.29 0,0.4 -0.04439,0.11 -0.0807,0.02 -0.0807,-0.2 z m 15.058316,-1.76 c 0,-0.396 0.0312,-0.558 0.06934,-0.36 0.03814,0.198 0.03814,0.522 0,0.72 -0.03814,0.198 -0.06934,0.036 -0.06934,-0.36 z m -14.430946,-8.25333 c 0.0077,-0.18639 0.04559,-0.22431 0.09667,-0.0967 0.04622,0.1155 0.04054,0.2535 -0.01262,0.30667 -0.05317,0.0532 -0.09098,-0.0413 -0.08404,-0.21 z m 13.28,-2.56 c 0.0077,-0.18639 0.04559,-0.22431 0.09667,-0.0967 0.04622,0.1155 0.04054,0.2535 -0.01262,0.30667 -0.05317,0.0532 -0.09098,-0.0413 -0.08404,-0.21 z m -22.24,-0.32 c 0.0077,-0.18639 0.04559,-0.22431 0.09667,-0.0967 0.04622,0.1155 0.04054,0.2535 -0.01262,0.30667 -0.05317,0.0532 -0.09098,-0.0413 -0.08404,-0.21 z m 24.01856,-3.82667 c 0.0033,-0.264 0.03912,-0.35263 0.07969,-0.19696 0.04057,0.15568 0.0379,0.37168 -0.0059,0.48 -0.04383,0.10833 -0.07702,-0.019 -0.07376,-0.28304 z m -22.72,-1.92 c 0.0033,-0.264 0.03912,-0.35263 0.07969,-0.19696 0.04057,0.15568 0.0379,0.37168 -0.0059,0.48 -0.04383,0.10833 -0.07702,-0.019 -0.07376,-0.28304 z m 78.988397,-1.8 c -0.19902,-0.25377 -0.19336,-0.25943 0.0604,-0.0604 0.26652,0.20902 0.35128,0.34041 0.21959,0.34041 -0.0332,0 -0.15922,-0.126 -0.28,-0.28 z m -95.899589,-3.4 c 0.159278,-0.176 0.325597,-0.32 0.369597,-0.32 0.044,0 -0.05032,0.144 -0.209597,0.32 -0.159278,0.176 -0.325597,0.32 -0.369597,0.32 -0.044,0 0.05032,-0.144 0.209597,-0.32 z m 16.763578,-0.96 c 0,-0.396 0.0312,-0.558 0.06934,-0.36 0.03814,0.198 0.03814,0.522 0,0.72 -0.03814,0.198 -0.06934,0.036 -0.06934,-0.36 z m -15.883578,0.08 c 0.20668,-0.22 0.411781,-0.4 0.455781,-0.4 0.044,0 -0.0891,0.18 -0.295781,0.4 -0.20668,0.22 -0.411781,0.4 -0.455781,0.4 -0.044,0 0.0891,-0.18 0.295781,-0.4 z m 16.012632,-4.49333 c 0.0077,-0.18639 0.04559,-0.22431 0.09667,-0.0967 0.04622,0.1155 0.04054,0.2535 -0.01262,0.30667 -0.05317,0.0532 -0.09098,-0.0413 -0.08404,-0.21 z"
         id="path2604" /><path
         style="fill:#231f20;fill-opacity:1;stroke-width:0.16"
         d="m -0.730909,-252.74788 c 0,-0.0332 0.126,-0.15922 0.28,-0.28 0.25376896,-0.19902 0.25942816,-0.19336 0.0604088,0.0604 -0.20901904,0.26652 -0.3404088,0.35128 -0.3404088,0.21959 z m 42.6,-2.77419 c 0.242,-0.0367 0.638,-0.0367 0.88,0 0.242,0.0367 0.044,0.0667 -0.44,0.0667 -0.484,0 -0.682,-0.03 -0.44,-0.0667 z m 2.24,0 c 0.242,-0.0367 0.638,-0.0367 0.88,0 0.242,0.0367 0.044,0.0667 -0.44,0.0667 -0.484,0 -0.682,-0.03 -0.44,-0.0667 z m -46.28,-2.50581 c 0,-0.0332 0.126,-0.15922 0.28,-0.28 0.253769,-0.19902 0.2594282,-0.19336 0.060409,0.0604 -0.209019,0.26652 -0.3404088,0.35128 -0.3404088,0.21959 z m 38.05,-5.32889 c 0.115499,-0.0462 0.253501,-0.0405 0.306667,0.0126 0.05317,0.0532 -0.04133,0.091 -0.21,0.084 -0.186392,-0.008 -0.224304,-0.0456 -0.09667,-0.0967 z m 1.27,-6.23666 c 0.11,-0.0444 0.29,-0.0444 0.4,0 0.11,0.0444 0.02,0.0807 -0.2,0.0807 -0.22,0 -0.31,-0.0363 -0.2,-0.0807 z m 1.2,-0.009 c 0.242,-0.0367 0.638,-0.0367 0.88,0 0.242,0.0367 0.044,0.0667 -0.44,0.0667 -0.484,0 -0.682,-0.03 -0.44,-0.0667 z m -2.47,-3.3547 c 0.115499,-0.0462 0.253501,-0.0405 0.306667,0.0126 0.05317,0.0532 -0.04133,0.091 -0.21,0.084 -0.186392,-0.008 -0.224304,-0.0456 -0.09667,-0.0967 z m -19.36,-9.44 c 0.115499,-0.0462 0.253499,-0.0405 0.306667,0.0126 0.05317,0.0532 -0.04133,0.091 -0.21,0.084 -0.186392,-0.008 -0.224304,-0.0456 -0.09667,-0.0967 z m 33.76959,-10.0907 c -0.199019,-0.25377 -0.19336,-0.25943 0.06041,-0.0604 0.154,0.12078 0.28,0.24678 0.28,0.28 0,0.13169 -0.13139,0.0469 -0.34041,-0.21959 z m -44.9599988,-3.36 c -0.1990194,-0.25377 -0.1933602,-0.25943 0.060409,-0.0604 0.2665197,0.20902 0.3512766,0.34041 0.2195912,0.34041 -0.033225,0 -0.159225,-0.126 -0.28,-0.28 z m 39.2852068,-2.32 -0.304798,-0.36 0.36,0.3048 c 0.33831,0.28643 0.432838,0.4152 0.304798,0.4152 -0.03036,0 -0.192361,-0.162 -0.36,-0.36 z m -22.476908,-3.6 -0.38789,-0.44 0.44,0.38789 c 0.411246,0.36254 0.513374,0.49211 0.38789,0.49211 -0.02866,0 -0.22666,-0.198 -0.44,-0.44 z m 69.00923,-9.32 c 0,-0.308 0.03293,-0.434 0.07317,-0.28 0.04024,0.154 0.04024,0.406 0,0.56 -0.04024,0.154 -0.07317,0.028 -0.07317,-0.28 z m 6.16288,-7.46596 c 0.11,-0.0444 0.29,-0.0444 0.4,0 0.11,0.0444 0.02,0.0807 -0.2,0.0807 -0.22,0 -0.31,-0.0363 -0.2,-0.0807 z m -27.16,-5.39445 c 0,-0.0332 0.126,-0.15922 0.28,-0.28 0.25377,-0.19902 0.259429,-0.19336 0.06041,0.0604 -0.20902,0.26652 -0.34041,0.35128 -0.34041,0.21959 z m 8.32,-6.24 c 0,-0.0332 0.126,-0.15922 0.28,-0.28 0.25377,-0.19902 0.259429,-0.19336 0.06041,0.0604 -0.20902,0.26652 -0.34041,0.35128 -0.34041,0.21959 z m -1.76,-0.48 c 0,-0.0332 0.126,-0.15922 0.28,-0.28 0.25377,-0.19902 0.259429,-0.19336 0.06041,0.0604 -0.20902,0.26652 -0.34041,0.35128 -0.34041,0.21959 z m 3.36,-0.96 c 0,-0.0332 0.126,-0.15922 0.28,-0.28 0.25377,-0.19902 0.259429,-0.19336 0.06041,0.0604 -0.20902,0.26652 -0.34041,0.35128 -0.34041,0.21959 z m 20.652629,-0.99292 c 0.008,-0.18639 0.0456,-0.22431 0.0967,-0.0967 0.0462,0.1155 0.0405,0.2535 -0.0126,0.30667 -0.0532,0.0532 -0.091,-0.0413 -0.084,-0.21 z m -102.7199975,-0.32 c 0.00768,-0.18639 0.045591,-0.22431 0.096667,-0.0967 0.046219,0.1155 0.040535,0.2535 -0.012632,0.30667 -0.053167,0.0532 -0.090983,-0.0413 -0.084035,-0.21 z m 89.1073685,-5.08708 c 0,-0.0332 0.126,-0.15922 0.28,-0.28 0.25377,-0.19902 0.259429,-0.19336 0.06041,0.0604 -0.20902,0.26652 -0.34041,0.35128 -0.34041,0.21959 z m -34.196422,-13.37959 c 0,-0.396 0.0312,-0.558 0.06934,-0.36 0.03814,0.198 0.03814,0.522 0,0.72 -0.03814,0.198 -0.06934,0.036 -0.06934,-0.36 z m -51.0709465,0.0667 c 0.00768,-0.18639 0.045591,-0.22431 0.096667,-0.0967 0.046219,0.1155 0.040535,0.2535 -0.012632,0.30667 -0.053167,0.0532 -0.090982,-0.0413 -0.084035,-0.21 z m 50.0800005,-0.32 c 0.0077,-0.18639 0.04559,-0.22431 0.09667,-0.0967 0.04622,0.1155 0.04054,0.2535 -0.01262,0.30667 -0.05317,0.0532 -0.09098,-0.0413 -0.08404,-0.21 z M 38.032669,-362.9278 c 0,-0.396 0.0312,-0.558 0.06934,-0.36 0.03814,0.198 0.03814,0.522 0,0.72 -0.03814,0.198 -0.06934,0.036 -0.06934,-0.36 z m -31.5323862,-4.88 c 0.00326,-0.264 0.03912,-0.35263 0.079687,-0.19696 0.040567,0.15568 0.037899,0.37168 -0.00593,0.48 -0.043828,0.10833 -0.07702,-0.019 -0.073759,-0.28304 z m 58.4488082,0.24 c -0.05439,-0.088 -0.02264,-0.16 0.07056,-0.16 0.09319,0 0.169443,0.072 0.169443,0.16 0,0.088 -0.03175,0.16 -0.07056,0.16 -0.03881,0 -0.115056,-0.072 -0.169443,-0.16 z m -25.987368,-0.41333 c 0.0077,-0.18639 0.04559,-0.22431 0.09667,-0.0967 0.04622,0.1155 0.04054,0.2535 -0.01262,0.30667 -0.05317,0.0532 -0.09098,-0.0413 -0.08404,-0.21 z m -0.929054,-1.02667 c 0,-0.396 0.0312,-0.558 0.06934,-0.36 0.03814,0.198 0.03814,0.522 0,0.72 -0.03814,0.198 -0.06934,0.036 -0.06934,-0.36 z m 15.513542,-0.48 c 0,-0.308 0.03293,-0.434 0.07317,-0.28 0.04024,0.154 0.04024,0.406 0,0.56 -0.04024,0.154 -0.07317,0.028 -0.07317,-0.28 z m -1.624488,-1.05333 c 0.0077,-0.18639 0.04559,-0.22431 0.09667,-0.0967 0.04622,0.1155 0.04054,0.2535 -0.01262,0.30667 -0.05317,0.0532 -0.09098,-0.0413 -0.08404,-0.21 z m -22.22144,-4.46667 c 0.0033,-0.264 0.03912,-0.35263 0.07969,-0.19696 0.04057,0.15568 0.0379,0.37168 -0.0059,0.48 -0.04383,0.10833 -0.07702,-0.019 -0.07376,-0.28304 z m 8.79407,-0.4 c 0,-0.22 0.03632,-0.31 0.0807,-0.2 0.04439,0.11 0.04439,0.29 0,0.4 -0.04439,0.11 -0.0807,0.02 -0.0807,-0.2 z m -7.21263,-0.73333 c 0.0077,-0.18639 0.04559,-0.22431 0.09667,-0.0967 0.04622,0.1155 0.04054,0.2535 -0.01262,0.30667 -0.05317,0.0532 -0.09098,-0.0413 -0.08404,-0.21 z m 22.73263,-2.94667 c 0,-0.22 0.03632,-0.31 0.0807,-0.2 0.04438,0.11 0.04438,0.29 0,0.4 -0.04439,0.11 -0.0807,0.02 -0.0807,-0.2 z m -24.31407,-1.04 c 0.0033,-0.264 0.03912,-0.35263 0.07969,-0.19696 0.04057,0.15568 0.0379,0.37168 -0.0059,0.48 -0.04383,0.10833 -0.07702,-0.019 -0.07376,-0.28304 z"
         id="path2602" /><path
         style="fill:#231f20;fill-opacity:1;stroke-width:0.16"
         d="m 16.789091,-255.24747 c 0.159278,-0.176 0.325597,-0.32 0.369597,-0.32 0.044,0 -0.05032,0.144 -0.209597,0.32 -0.159278,0.176 -0.325597,0.32 -0.369597,0.32 -0.044,0 0.05032,-0.144 0.209597,-0.32 z m 23.89,-2.9893 c 0.115499,-0.0462 0.253501,-0.0405 0.306667,0.0126 0.05317,0.0532 -0.04133,0.091 -0.21,0.084 -0.186392,-0.008 -0.224304,-0.0456 -0.09667,-0.0967 z m -49.7173684,-1.90403 c 0.00768,-0.18639 0.04559,-0.22431 0.096667,-0.0967 0.046219,0.1155 0.040535,0.2535 -0.012632,0.30667 -0.053167,0.0532 -0.090982,-0.0413 -0.084035,-0.21 z m 6.1473684,-0.38667 c 0.1592778,-0.176 0.325596,-0.32 0.369596,-0.32 0.044,0 -0.050318,0.144 -0.209596,0.32 -0.1592778,0.176 -0.325596,0.32 -0.369596,0.32 -0.044,0 0.050318,-0.144 0.209596,-0.32 z m 41,-0.26596 c 0.11,-0.0444 0.29,-0.0444 0.4,0 0.11,0.0444 0.02,0.0807 -0.2,0.0807 -0.22,0 -0.31,-0.0363 -0.2,-0.0807 z m 4.8,0 c 0.11,-0.0444 0.29,-0.0444 0.4,0 0.11,0.0444 0.02,0.0807 -0.2,0.0807 -0.22,0 -0.31,-0.0363 -0.2,-0.0807 z m -44.76,-0.77404 c 0.2985253,-0.308 0.5787734,-0.56 0.6227734,-0.56 0.044,0 -0.1642481,0.252 -0.4627734,0.56 -0.2985253,0.308 -0.5787734,0.56 -0.6227734,0.56 -0.044,0 0.1642481,-0.252 0.4627734,-0.56 z m -7.0147368,-0.72 c 0,-0.22 0.036316,-0.31 0.080702,-0.2 0.044386,0.11 0.044386,0.29 0,0.4 -0.044386,0.11 -0.080702,0.02 -0.080702,-0.2 z m 43.6247368,-3.9493 c 0.115499,-0.0462 0.253501,-0.0405 0.306667,0.0126 0.05317,0.0532 -0.04133,0.091 -0.21,0.084 -0.186392,-0.008 -0.224304,-0.0456 -0.09667,-0.0967 z m 5.59,0.003 c 0.11,-0.0444 0.29,-0.0444 0.4,0 0.11,0.0444 0.02,0.0807 -0.2,0.0807 -0.22,0 -0.31,-0.0363 -0.2,-0.0807 z m 1.45,-3.20333 c 0.115499,-0.0462 0.253501,-0.0405 0.306667,0.0126 0.05317,0.0532 -0.04133,0.091 -0.21,0.084 -0.186392,-0.008 -0.224304,-0.0456 -0.09667,-0.0967 z m 36.48959,-4.9707 c -0.199019,-0.25377 -0.19336,-0.25943 0.06041,-0.0604 0.154,0.12078 0.28,0.24678 0.28,0.28 0,0.13169 -0.13139,0.0469 -0.34041,-0.21959 z m -61.28959,-0.4693 c 0.115499,-0.0462 0.253499,-0.0405 0.306667,0.0126 0.05317,0.0532 -0.04133,0.091 -0.21,0.084 -0.186392,-0.008 -0.224304,-0.0456 -0.09667,-0.0967 z m 6.72,0 c 0.115499,-0.0462 0.253499,-0.0405 0.306667,0.0126 0.05317,0.0532 -0.04133,0.091 -0.21,0.084 -0.186392,-0.008 -0.224304,-0.0456 -0.09667,-0.0967 z m -10.72,-7.52 c 0.115499,-0.0462 0.253499,-0.0405 0.306667,0.0126 0.05317,0.0532 -0.04133,0.091 -0.21,0.084 -0.186392,-0.008 -0.224304,-0.0456 -0.09667,-0.0967 z m 16.96959,-16.0107 c -0.199019,-0.25377 -0.19336,-0.25943 0.06041,-0.0604 0.154,0.12078 0.28,0.24678 0.28,0.28 0,0.13169 -0.13139,0.0469 -0.34041,-0.21959 z m -3.594792,-3.6 -0.304798,-0.36 0.36,0.3048 c 0.33831,0.28643 0.432838,0.4152 0.304798,0.4152 -0.03036,0 -0.192361,-0.162 -0.36,-0.36 z m 57.055202,0.13959 c 0,-0.0332 0.126,-0.15922 0.28,-0.28 0.25377,-0.19902 0.259429,-0.19336 0.06041,0.0604 -0.20902,0.26652 -0.34041,0.35128 -0.34041,0.21959 z M -2.752472,-315.9678 c 4.16e-4,-0.88 0.027285,-1.21959 0.059708,-0.75464 0.032423,0.46495 0.032082,1.18495 -7.52e-4,1.6 -0.032845,0.41505 -0.059372,0.0346 -0.058956,-0.84536 z m 67.871849,-2.0469 c 0.06009,-0.1578 0.149551,-0.2466 0.198813,-0.19733 0.04926,0.0493 1.03e-4,0.17836 -0.109245,0.2869 -0.158019,0.15684 -0.176396,0.13846 -0.08957,-0.0896 z m 2.149714,-1.93351 c 0,-0.0332 0.126,-0.15922 0.28,-0.28 0.25377,-0.19902 0.259429,-0.19336 0.06041,0.0604 -0.20902,0.26652 -0.34041,0.35128 -0.34041,0.21959 z m -69.7347368,-5.85959 c 0,-0.22 0.036316,-0.31 0.080702,-0.2 0.044386,0.11 0.044386,0.29 0,0.4 -0.044386,0.11 -0.080702,0.02 -0.080702,-0.2 z m 75.2547368,-0.96 c 0.159278,-0.176 0.325597,-0.32 0.369597,-0.32 0.044,0 -0.05032,0.144 -0.209597,0.32 -0.159278,0.176 -0.325597,0.32 -0.369597,0.32 -0.044,0 0.05032,-0.144 0.209597,-0.32 z m 2.16,-0.22041 c 0,-0.0332 0.126,-0.15922 0.28,-0.28 0.25377,-0.19902 0.259429,-0.19336 0.06041,0.0604 -0.20902,0.26652 -0.34041,0.35128 -0.34041,0.21959 z m -77.2673685,-1.31292 c 0.00768,-0.18639 0.045591,-0.22431 0.096667,-0.0967 0.046219,0.1155 0.040535,0.2535 -0.012632,0.30667 -0.053167,0.0532 -0.090982,-0.0413 -0.084035,-0.21 z m 58.8673685,-1.49723 c 0,-0.0828 0.07118,-0.19454 0.158168,-0.24831 0.0907,-0.0561 0.11752,0.008 0.06288,0.15056 -0.106367,0.27719 -0.22105,0.3279 -0.22105,0.0978 z m 23.04,-3.58985 c 0,-0.0332 0.126,-0.15922 0.28,-0.28 0.25377,-0.19902 0.259429,-0.19336 0.06041,0.0604 -0.20902,0.26652 -0.34041,0.35128 -0.34041,0.21959 z M 52.241723,-347.1808 c 0.0077,-0.18639 0.04559,-0.22431 0.09667,-0.0967 0.04622,0.1155 0.04054,0.2535 -0.01262,0.30667 -0.05317,0.0532 -0.09098,-0.0413 -0.08404,-0.21 z m -0.46737,-7.10667 c 0,-0.22 0.03632,-0.31 0.0807,-0.2 0.04439,0.11 0.04439,0.29 0,0.4 -0.04439,0.11 -0.0807,0.02 -0.0807,-0.2 z m 1.28593,-1.52 c 0.0033,-0.264 0.03912,-0.35263 0.07969,-0.19696 0.04057,0.15568 0.0379,0.37168 -0.0059,0.48 -0.04383,0.10833 -0.07702,-0.019 -0.07376,-0.28304 z m -14.73856,-1.45333 c 0.0077,-0.18639 0.04559,-0.22431 0.09667,-0.0967 0.04622,0.1155 0.04054,0.2535 -0.01262,0.30667 -0.05317,0.0532 -0.09098,-0.0413 -0.08404,-0.21 z m 13.28,-0.8 c 0.0077,-0.18639 0.04559,-0.22431 0.09667,-0.0967 0.04622,0.1155 0.04054,0.2535 -0.01262,0.30667 -0.05317,0.0532 -0.09098,-0.0413 -0.08404,-0.21 z m 0.04222,-1.58667 c 6.4e-4,-0.704 0.02871,-0.9721 0.06251,-0.59577 0.0338,0.37633 0.03332,0.95233 -0.0011,1.28 -0.03438,0.32767 -0.06203,0.0198 -0.06145,-0.68423 z m 1.58227,-0.72 c 0,-0.308 0.03293,-0.434 0.07317,-0.28 0.04024,0.154 0.04024,0.406 0,0.56 -0.04025,0.154 -0.07317,0.028 -0.07317,-0.28 z m -1.577269,-2.48 c 3.2e-4,-0.968 0.02671,-1.34337 0.05856,-0.83416 0.03185,0.50921 0.03155,1.30121 -6.4e-4,1.76 -0.03221,0.45879 -0.05827,0.0422 -0.05791,-0.92584 z m 0.125411,-5.2 c 0,-0.22 0.03632,-0.31 0.0807,-0.2 0.04439,0.11 0.04439,0.29 0,0.4 -0.04439,0.11 -0.0807,0.02 -0.0807,-0.2 z m -43.0140508,-4.8 c 0,-0.572 0.02904,-0.806 0.064533,-0.52 0.035491,0.286 0.035491,0.754 0,1.04 -0.035493,0.286 -0.064533,0.052 -0.064533,-0.52 z m 29.8940508,0 c 0,-0.22 0.03632,-0.31 0.0807,-0.2 0.04438,0.11 0.04438,0.29 0,0.4 -0.04439,0.11 -0.0807,0.02 -0.0807,-0.2 z m 15.04593,-0.08 c 0.0033,-0.264 0.03912,-0.35263 0.07969,-0.19696 0.04057,0.15568 0.0379,0.37168 -0.0059,0.48 -0.04383,0.10833 -0.07702,-0.019 -0.07376,-0.28304 z m -22.57856,-6.57333 c 0.0077,-0.18639 0.04559,-0.22431 0.09667,-0.0967 0.04622,0.1155 0.04054,0.2535 -0.01262,0.30667 -0.05317,0.0532 -0.09098,-0.0413 -0.08404,-0.21 z m 79.486955,-0.34667 c -0.19902,-0.25377 -0.19336,-0.25943 0.0604,-0.0604 0.26652,0.20902 0.35128,0.34041 0.21959,0.34041 -0.0332,0 -0.15922,-0.126 -0.28,-0.28 z m -56.446955,-1.57333 c 0.0077,-0.18639 0.04559,-0.22431 0.09667,-0.0967 0.04622,0.1155 0.04054,0.2535 -0.01262,0.30667 -0.05317,0.0532 -0.09098,-0.0413 -0.08404,-0.21 z m 0.584362,-7.9195 c 0.05658,-0.21635 0.129104,-0.28887 0.169048,-0.16904 0.03848,0.11543 -0.0061,0.28594 -0.09909,0.37892 -0.118731,0.11873 -0.139554,0.0563 -0.06996,-0.20988 z m 2.253006,-15.13647 c 0.115499,-0.0462 0.253501,-0.0405 0.306667,0.0126 0.05317,0.0532 -0.04133,0.091 -0.21,0.084 -0.186392,-0.008 -0.224304,-0.0456 -0.09667,-0.0967 z m 7.36,0 c 0.115499,-0.0462 0.253501,-0.0405 0.306667,0.0126 0.05317,0.0532 -0.04133,0.091 -0.21,0.084 -0.186392,-0.008 -0.224304,-0.0456 -0.09667,-0.0967 z"
         id="path2600" /><path
         style="fill:#231f20;fill-opacity:1;stroke-width:0.16"
         d="m -0.250909,-253.22788 c 0,-0.0332 0.126,-0.15922 0.28,-0.28 0.25376896,-0.19902 0.25942816,-0.19336 0.0604088,0.0604 -0.20901904,0.26652 -0.3404088,0.35128 -0.3404088,0.21959 z m 12.45,-27.08889 c 0.115499,-0.0462 0.253499,-0.0405 0.306667,0.0126 0.05317,0.0532 -0.04133,0.091 -0.21,0.084 -0.186392,-0.008 -0.224304,-0.0456 -0.09667,-0.0967 z m 5.28,0 c 0.115499,-0.0462 0.253499,-0.0405 0.306667,0.0126 0.05317,0.0532 -0.04133,0.091 -0.21,0.084 -0.186392,-0.008 -0.224304,-0.0456 -0.09667,-0.0967 z m 36.00959,-12.9707 c -0.199019,-0.25377 -0.19336,-0.25943 0.06041,-0.0604 0.154,0.12078 0.28,0.24678 0.28,0.28 0,0.13169 -0.13139,0.0469 -0.34041,-0.21959 z m -21.6,-3.36 c -0.199019,-0.25377 -0.19336,-0.25943 0.06041,-0.0604 0.154,0.12078 0.28,0.24678 0.28,0.28 0,0.13169 -0.13139,0.0469 -0.34041,-0.21959 z m 12.16,-2.08 c -0.199019,-0.25377 -0.19336,-0.25943 0.06041,-0.0604 0.154,0.12078 0.28,0.24678 0.28,0.28 0,0.13169 -0.13139,0.0469 -0.34041,-0.21959 z m 20.42041,-8.52 c 0.159278,-0.176 0.325597,-0.32 0.369597,-0.32 0.044,0 -0.05032,0.144 -0.209597,0.32 -0.159278,0.176 -0.325597,0.32 -0.369597,0.32 -0.044,0 0.05032,-0.144 0.209597,-0.32 z m 29.36,-5.98041 c 0,-0.0332 0.126,-0.15922 0.28,-0.28 0.25377,-0.19902 0.259429,-0.19336 0.06041,0.0604 -0.20902,0.26652 -0.34041,0.35128 -0.34041,0.21959 z m 4.29,-5.32889 c 0.115499,-0.0462 0.253501,-0.0405 0.306667,0.0126 0.05317,0.0532 -0.04133,0.091 -0.21,0.084 -0.186392,-0.008 -0.224304,-0.0456 -0.09667,-0.0967 z m 4.855259,-2.7707 c 0,-0.22 0.0363,-0.31 0.0807,-0.2 0.0444,0.11 0.0444,0.29 0,0.4 -0.0444,0.11 -0.0807,0.02 -0.0807,-0.2 z m -105.5849097,-0.56 c 0.00178,-0.352 0.034542,-0.47716 0.072812,-0.27813 0.038271,0.19902 0.036818,0.48702 -0.00323,0.64 -0.040047,0.15297 -0.07136,-0.01 -0.069584,-0.36187 z m 55.3567707,-24.24 c 0,-0.308 0.03293,-0.434 0.07317,-0.28 0.04024,0.154 0.04024,0.406 0,0.56 -0.04024,0.154 -0.07317,0.028 -0.07317,-0.28 z m 46.20288,-3.26041 c 0,-0.0332 0.126,-0.15922 0.28,-0.28 0.25377,-0.19902 0.259429,-0.19336 0.06041,0.0604 -0.20902,0.26652 -0.34041,0.35128 -0.34041,0.21959 z m -47.027368,-1.63292 c 0.0077,-0.18639 0.04559,-0.22431 0.09667,-0.0967 0.04622,0.1155 0.04054,0.2535 -0.01262,0.30667 -0.05317,0.0532 -0.09098,-0.0413 -0.08404,-0.21 z m -50.0800005,-0.96 c 0.00768,-0.18639 0.045591,-0.22431 0.096667,-0.0967 0.046219,0.1155 0.040535,0.2535 -0.012632,0.30667 -0.053167,0.0532 -0.090982,-0.0413 -0.084035,-0.21 z m 36.3200005,-7.04 c 0.0077,-0.18639 0.04559,-0.22431 0.09667,-0.0967 0.04622,0.1155 0.04054,0.2535 -0.01262,0.30667 -0.05317,0.0532 -0.09098,-0.0413 -0.08404,-0.21 z m 1.28,-3.52 c 0.0077,-0.18639 0.04559,-0.22431 0.09667,-0.0967 0.04622,0.1155 0.04054,0.2535 -0.01262,0.30667 -0.05317,0.0532 -0.09098,-0.0413 -0.08404,-0.21 z m 13.93856,-1.90667 c 0.0033,-0.264 0.03912,-0.35263 0.07969,-0.19696 0.04057,0.15568 0.0379,0.37168 -0.0059,0.48 -0.04383,0.10833 -0.07702,-0.019 -0.07376,-0.28304 z m -14.41856,-4.01333 c 0.0077,-0.18639 0.04559,-0.22431 0.09667,-0.0967 0.04622,0.1155 0.04054,0.2535 -0.01262,0.30667 -0.05317,0.0532 -0.09098,-0.0413 -0.08404,-0.21 z m -0.16,-2.24 c 0.0077,-0.18639 0.04559,-0.22431 0.09667,-0.0967 0.04622,0.1155 0.04054,0.2535 -0.01262,0.30667 -0.05317,0.0532 -0.09098,-0.0413 -0.08404,-0.21 z m -0.64,-2.24 c 0.0077,-0.18639 0.04559,-0.22431 0.09667,-0.0967 0.04622,0.1155 0.04054,0.2535 -0.01262,0.30667 -0.05317,0.0532 -0.09098,-0.0413 -0.08404,-0.21 z m -25.932632,-8.60708 c 0,-0.0332 0.126,-0.15922 0.28,-0.28 0.25377,-0.19902 0.259429,-0.19336 0.06041,0.0604 -0.20902,0.26652 -0.34041,0.35128 -0.34041,0.21959 z m 18.905262,-6.49959 c 0,-0.22 0.03632,-0.31 0.0807,-0.2 0.04438,0.11 0.04438,0.29 0,0.4 -0.04439,0.11 -0.0807,0.02 -0.0807,-0.2 z"
         id="path2598" /><path
         style="fill:#231f20;fill-opacity:1;stroke-width:0.16"
         d="m 45.799091,-255.51677 c 0.115499,-0.0462 0.253501,-0.0405 0.306667,0.0126 0.05317,0.0532 -0.04133,0.091 -0.21,0.084 -0.186392,-0.008 -0.224304,-0.0456 -0.09667,-0.0967 z m -37.25,-1.07111 c 0,-0.0332 0.126,-0.15922 0.28,-0.28 0.2537696,-0.19902 0.2594288,-0.19336 0.06041,0.0604 -0.2090192,0.26652 -0.3404096,0.35128 -0.3404096,0.21959 z m 1.68,-1.69959 c 0.159278,-0.176 0.325597,-0.32 0.369597,-0.32 0.044,0 -0.05032,0.144 -0.209597,0.32 -0.159278,0.176 -0.325597,0.32 -0.369597,0.32 -0.044,0 0.05032,-0.144 0.209597,-0.32 z m -16.56,-3.26041 c 0,-0.0332 0.126,-0.15922 0.28,-0.28 0.253769,-0.19902 0.2594282,-0.19336 0.060409,0.0604 -0.209019,0.26652 -0.3404088,0.35128 -0.3404088,0.21959 z m 43.484229,-1.81695 c 0.376326,-0.0338 0.952326,-0.0333 1.28,10e-4 0.327673,0.0344 0.01977,0.062 -0.684229,0.0615 -0.704,-6.4e-4 -0.972098,-0.0287 -0.595771,-0.0625 z m -3.684229,-9.59556 c 0.198,-0.0381 0.522,-0.0381 0.72,0 0.198,0.0381 0.036,0.0693 -0.36,0.0693 -0.396,0 -0.558,-0.0312 -0.36,-0.0693 z m 1.45,0.004 c 0.115499,-0.0462 0.253501,-0.0405 0.306667,0.0126 0.05317,0.0532 -0.04133,0.091 -0.21,0.084 -0.186392,-0.008 -0.224304,-0.0456 -0.09667,-0.0967 z m -19.52,-4.96 c 0.115499,-0.0462 0.253499,-0.0405 0.306667,0.0126 0.05317,0.0532 -0.04133,0.091 -0.21,0.084 -0.186392,-0.008 -0.224304,-0.0456 -0.09667,-0.0967 z m 7.51,0.003 c 0.11,-0.0444 0.29,-0.0444 0.4,0 0.11,0.0444 0.02,0.0807 -0.2,0.0807 -0.22,0 -0.31,-0.0363 -0.2,-0.0807 z m -10.71,-4.48334 c 0.115499,-0.0462 0.253499,-0.0405 0.306667,0.0126 0.05317,0.0532 -0.04133,0.091 -0.21,0.084 -0.186392,-0.008 -0.224304,-0.0456 -0.09667,-0.0967 z m 5.28,0 c 0.115499,-0.0462 0.253499,-0.0405 0.306667,0.0126 0.05317,0.0532 -0.04133,0.091 -0.21,0.084 -0.186392,-0.008 -0.224304,-0.0456 -0.09667,-0.0967 z m 30.901387,-11.85069 -0.551387,-0.6 0.6,0.55139 c 0.33,0.30326 0.6,0.57326 0.6,0.6 0,0.12218 -0.135395,0.007 -0.648613,-0.55139 z m -1.358915,-1.36 -0.632472,-0.68 0.68,0.63247 c 0.374,0.34786 0.68,0.65386 0.68,0.68 0,0.12105 -0.139336,-8e-5 -0.727528,-0.63247 z m -18.887674,-4.64 -0.304798,-0.36 0.36,0.3048 c 0.198,0.16764 0.36,0.32964 0.36,0.36 0,0.12804 -0.128766,0.0335 -0.415202,-0.3048 z m -0.725208,-0.72 c -0.199019,-0.25377 -0.19336,-0.25943 0.06041,-0.0604 0.154,0.12078 0.28,0.24678 0.28,0.28 0,0.13169 -0.13139,0.0469 -0.34041,-0.21959 z m 66.605672,-15.56 c 0,-0.22 0.03632,-0.31 0.0807,-0.2 0.04439,0.11 0.04439,0.29 0,0.4 -0.04439,0.11 -0.0807,0.02 -0.0807,-0.2 z m 4.734738,-2.03292 c 0.198,-0.0381 0.522,-0.0381 0.72,0 0.198,0.0381 0.036,0.0693 -0.36,0.0693 -0.396,0 -0.558,-0.0312 -0.36,-0.0693 z m -101.2147368,-6.44708 c 0,-0.22 0.036316,-0.31 0.080702,-0.2 0.044386,0.11 0.044386,0.29 0,0.4 -0.044386,0.11 -0.080702,0.02 -0.080702,-0.2 z m 73.8947368,-0.38041 c 0,-0.0332 0.126,-0.15922 0.28,-0.28 0.25377,-0.19902 0.259429,-0.19336 0.06041,0.0604 -0.20902,0.26652 -0.34041,0.35128 -0.34041,0.21959 z m 6.24,-6.25959 c 0.20668,-0.22 0.411781,-0.4 0.455781,-0.4 0.044,0 -0.0891,0.18 -0.295781,0.4 -0.20668,0.22 -0.411781,0.4 -0.455781,0.4 -0.044,0 0.0891,-0.18 0.295781,-0.4 z m 4.96,-2.22041 c 0,-0.0332 0.126,-0.15922 0.28,-0.28 0.25377,-0.19902 0.259429,-0.19336 0.06041,0.0604 -0.20902,0.26652 -0.34041,0.35128 -0.34041,0.21959 z m 5.92,-5.44 c 0,-0.0332 0.126,-0.15922 0.28,-0.28 0.25377,-0.19902 0.259429,-0.19336 0.06041,0.0604 -0.20902,0.26652 -0.34041,0.35128 -0.34041,0.21959 z m 14.159999,-0.41959 c 0.15928,-0.176 0.3256,-0.32 0.3696,-0.32 0.044,0 -0.0503,0.144 -0.2096,0.32 -0.15928,0.176 -0.3256,0.32 -0.3696,0.32 -0.044,0 0.0503,-0.144 0.2096,-0.32 z m -5.199999,-8.24 c 0.477987,-0.484 0.905069,-0.88 0.949069,-0.88 0.044,0 -0.311082,0.396 -0.789069,0.88 -0.477987,0.484 -0.905069,0.88 -0.949069,0.88 -0.044,0 0.311082,-0.396 0.789069,-0.88 z m -44.596422,-2.16 c 0,-0.396 0.0312,-0.558 0.06934,-0.36 0.03814,0.198 0.03814,0.522 0,0.72 -0.03814,0.198 -0.06934,0.036 -0.06934,-0.36 z m 46.606708,0.1131 c 0.06009,-0.1578 0.149551,-0.2466 0.198813,-0.19733 0.04926,0.0493 1.03e-4,0.17836 -0.109245,0.2869 -0.158019,0.15684 -0.176396,0.13846 -0.08957,-0.0896 z m -47.745024,-3.4731 c 0,-0.22 0.03632,-0.31 0.0807,-0.2 0.04439,0.11 0.04439,0.29 0,0.4 -0.04439,0.11 -0.0807,0.02 -0.0807,-0.2 z m -13.748142,-8 c 0,-0.308 0.03293,-0.434 0.07317,-0.28 0.04024,0.154 0.04024,0.406 0,0.56 -0.04024,0.154 -0.07317,0.028 -0.07317,-0.28 z m 36.849714,-3.18894 c -0.05063,-0.0819 -0.03088,-0.18676 0.04389,-0.23297 0.07477,-0.0462 0.135944,0.0208 0.135944,0.14895 0,0.26979 -0.05045,0.29336 -0.179833,0.084 z m -35.754202,-1.86439 c 0.0077,-0.18639 0.04559,-0.22431 0.09667,-0.0967 0.04622,0.1155 0.04054,0.2535 -0.01262,0.30667 -0.05317,0.0532 -0.09098,-0.0413 -0.08404,-0.21 z m 14.424488,-1.82667 c 0,-0.308 0.03293,-0.434 0.07317,-0.28 0.04024,0.154 0.04024,0.406 0,0.56 -0.04024,0.154 -0.07317,0.028 -0.07317,-0.28 z m -1.771858,-0.48 c 0,-0.22 0.03632,-0.31 0.0807,-0.2 0.04439,0.11 0.04439,0.29 0,0.4 -0.04439,0.11 -0.0807,0.02 -0.0807,-0.2 z m -13.76,-1.44 c 0,-0.22 0.03632,-0.31 0.0807,-0.2 0.04438,0.11 0.04438,0.29 0,0.4 -0.04439,0.11 -0.0807,0.02 -0.0807,-0.2 z m 13.90737,-0.89333 c 0.0077,-0.18639 0.04559,-0.22431 0.09667,-0.0967 0.04622,0.1155 0.04054,0.2535 -0.01262,0.30667 -0.05317,0.0532 -0.09098,-0.0413 -0.08404,-0.21 z m -22.24,-2.88 c 0.0077,-0.18639 0.04559,-0.22431 0.09667,-0.0967 0.04622,0.1155 0.04054,0.2535 -0.01262,0.30667 -0.05317,0.0532 -0.09098,-0.0413 -0.08404,-0.21 z m 24.33263,-4.22667 c 0,-0.22 0.03632,-0.31 0.0807,-0.2 0.04438,0.11 0.04438,0.29 0,0.4 -0.04439,0.11 -0.0807,0.02 -0.0807,-0.2 z m 0.14737,-2.49333 c 0.0077,-0.18639 0.04559,-0.22431 0.09667,-0.0967 0.04622,0.1155 0.04054,0.2535 -0.01262,0.30667 -0.05317,0.0532 -0.09098,-0.0413 -0.08404,-0.21 z m -24.48,-0.32 c 0.0077,-0.18639 0.04559,-0.22431 0.09667,-0.0967 0.04622,0.1155 0.04054,0.2535 -0.01262,0.30667 -0.05317,0.0532 -0.09098,-0.0413 -0.08404,-0.21 z m -12.732632,-5.18667 c 0.159278,-0.176 0.325597,-0.32 0.369597,-0.32 0.044,0 -0.05032,0.144 -0.209597,0.32 -0.159278,0.176 -0.325597,0.32 -0.369597,0.32 -0.044,0 0.05032,-0.144 0.209597,-0.32 z"
         id="path2596" /><path
         style="fill:#231f20;fill-opacity:1;stroke-width:0.16"
         d="m -8.010909,-252.36747 c 0.1592778,-0.176 0.325596,-0.32 0.369596,-0.32 0.044,0 -0.050318,0.144 -0.209596,0.32 -0.1592778,0.176 -0.325596,0.32 -0.369596,0.32 -0.044,0 0.050318,-0.144 0.209596,-0.32 z m 1.6,-1.6 c 0.4333838,-0.44 0.8239706,-0.8 0.8679706,-0.8 0.044,0 -0.2745868,0.36 -0.7079706,0.8 -0.4333838,0.44 -0.8239706,0.8 -0.8679706,0.8 -0.044,0 0.2745868,-0.36 0.7079706,-0.8 z m 1.6,-1.6 c 0.3437189,-0.352 0.6609434,-0.64 0.7049434,-0.64 0.044,0 -0.2012245,0.288 -0.5449434,0.64 -0.3437189,0.352 -0.6609434,0.64 -0.7049434,0.64 -0.044,0 0.2012245,-0.288 0.5449434,-0.64 z m 13.84,-1.50041 c 0,-0.0332 0.126,-0.15922 0.28,-0.28 0.2537696,-0.19902 0.2594288,-0.19336 0.06041,0.0604 -0.2090192,0.26652 -0.3404096,0.35128 -0.3404096,0.21959 z m 32.523045,-1.17047 c 0.155675,-0.0406 0.371675,-0.0379 0.48,0.006 0.108325,0.0438 -0.01904,0.077 -0.283045,0.0738 -0.264,-0.003 -0.35263,-0.0391 -0.196955,-0.0797 z m 4.64,0 c 0.155675,-0.0406 0.371675,-0.0379 0.48,0.006 0.108325,0.0438 -0.01904,0.077 -0.283045,0.0738 -0.264,-0.003 -0.35263,-0.0391 -0.196955,-0.0797 z m -55.2304134,-1.26245 c 0.00768,-0.18639 0.04559,-0.22431 0.096667,-0.0967 0.046219,0.1155 0.040535,0.2535 -0.012632,0.30667 -0.053167,0.0532 -0.090982,-0.0413 -0.084035,-0.21 z m 46.3573684,-1.29597 c 0.115499,-0.0462 0.253501,-0.0405 0.306667,0.0126 0.05317,0.0532 -0.04133,0.091 -0.21,0.084 -0.186392,-0.008 -0.224304,-0.0456 -0.09667,-0.0967 z m 6.39,0.003 c 0.11,-0.0444 0.29,-0.0444 0.4,0 0.11,0.0444 0.02,0.0807 -0.2,0.0807 -0.22,0 -0.31,-0.0363 -0.2,-0.0807 z m -52.5873684,-0.78736 c 0.00768,-0.18639 0.04559,-0.22431 0.096667,-0.0967 0.046219,0.1155 0.040535,0.2535 -0.012632,0.30667 -0.053167,0.0532 -0.090982,-0.0413 -0.084035,-0.21 z m 0.9473684,-2.51674 c 0,-0.0275 0.234,-0.26153 0.52,-0.52 l 0.52,-0.46993 -0.4699346,0.52 c -0.4380449,0.48471 -0.5700654,0.59354 -0.5700654,0.46993 z m 44.765363,-2.30807 c 0.464951,-0.0324 1.184951,-0.0321 1.6,8e-4 0.41505,0.0328 0.03464,0.0594 -0.845363,0.0589 -0.88,-4.8e-4 -1.219587,-0.0273 -0.754637,-0.0597 z m 4.164637,-3.03116 c 0.115499,-0.0462 0.253501,-0.0405 0.306667,0.0126 0.05317,0.0532 -0.04133,0.091 -0.21,0.084 -0.186392,-0.008 -0.224304,-0.0456 -0.09667,-0.0967 z m -1.41,-2.94014 c 0,-0.0932 0.072,-0.12495 0.16,-0.0706 0.088,0.0544 0.16,0.13064 0.16,0.16944 0,0.0388 -0.072,0.0706 -0.16,0.0706 -0.088,0 -0.16,-0.0763 -0.16,-0.16944 z m 40.384798,-0.35056 -0.304798,-0.36 0.36,0.3048 c 0.33831,0.28643 0.432838,0.4152 0.304798,0.4152 -0.03036,0 -0.192361,-0.162 -0.36,-0.36 z m -62.101753,-2.15088 c 0.155675,-0.0406 0.371675,-0.0379 0.48,0.006 0.108325,0.0438 -0.01905,0.077 -0.283045,0.0738 -0.264,-0.003 -0.35263,-0.0391 -0.196955,-0.0797 z m 5.206955,0.002 c 0.115499,-0.0462 0.253499,-0.0405 0.306667,0.0126 0.05317,0.0532 -0.04133,0.091 -0.21,0.084 -0.186392,-0.008 -0.224304,-0.0456 -0.09667,-0.0967 z m -4.327134,-3.20666 c 0.287576,-0.0356 0.719576,-0.0349 0.96,0.002 0.240424,0.0365 0.0051,0.0657 -0.522866,0.0648 -0.528,-9.6e-4 -0.72471,-0.0308 -0.437134,-0.0664 z M 3.7286822,-292.48747 c -0.1990194,-0.25377 -0.1933602,-0.25943 0.060409,-0.0604 0.2665197,0.20902 0.3512766,0.34041 0.2195912,0.34041 -0.033225,0 -0.159225,-0.126 -0.28,-0.28 z m -1.1082045,-1.12 -0.5513867,-0.6 0.6,0.55139 c 0.33,0.30326 0.6,0.57326 0.6,0.6 0,0.12218 -0.1353946,0.007 -0.6486133,-0.55139 z m 66.1012453,-0.13333 c 0.0077,-0.18639 0.04559,-0.22431 0.09667,-0.0967 0.04622,0.1155 0.04054,0.2535 -0.01262,0.30667 -0.05317,0.0532 -0.09098,-0.0413 -0.08404,-0.21 z m -62.2730408,-1.14667 c -0.1990194,-0.25377 -0.1933602,-0.25943 0.060409,-0.0604 0.2665197,0.20902 0.3512766,0.34041 0.2195912,0.34041 -0.033225,0 -0.159225,-0.126 -0.28,-0.28 z m 21.4399988,-1.28 c -0.199019,-0.25377 -0.19336,-0.25943 0.06041,-0.0604 0.154,0.12078 0.28,0.24678 0.28,0.28 0,0.13169 -0.13139,0.0469 -0.34041,-0.21959 z m 22.56,-0.16 c -0.199019,-0.25377 -0.19336,-0.25943 0.06041,-0.0604 0.154,0.12078 0.28,0.24678 0.28,0.28 0,0.13169 -0.13139,0.0469 -0.34041,-0.21959 z m 23.70041,-29.86041 c 0,-0.0332 0.126,-0.15922 0.28,-0.28 0.25377,-0.19902 0.259429,-0.19336 0.06041,0.0604 -0.20902,0.26652 -0.34041,0.35128 -0.34041,0.21959 z m -76.4488082,-1.29959 c 0.00326,-0.264 0.03912,-0.35263 0.079687,-0.19696 0.040567,0.15568 0.037899,0.37168 -0.00593,0.48 -0.043828,0.10833 -0.07702,-0.019 -0.073759,-0.28304 z m 0.1414397,-2.25333 c 0.00768,-0.18639 0.045591,-0.22431 0.096667,-0.0967 0.046219,0.1155 0.040535,0.2535 -0.012632,0.30667 -0.053167,0.0532 -0.090982,-0.0413 -0.084035,-0.21 z m 81.2673685,-0.92708 c 0,-0.0332 0.126,-0.15922 0.28,-0.28 0.25377,-0.19902 0.259429,-0.19336 0.06041,0.0604 -0.20902,0.26652 -0.34041,0.35128 -0.34041,0.21959 z m 1.6,-1.44 c 0,-0.0332 0.126,-0.15922 0.28,-0.28 0.25377,-0.19902 0.259429,-0.19336 0.06041,0.0604 -0.20902,0.26652 -0.34041,0.35128 -0.34041,0.21959 z m 3.52,-3.2 c 0,-0.0332 0.126,-0.15922 0.28,-0.28 0.25377,-0.19902 0.259429,-0.19336 0.06041,0.0604 -0.20902,0.26652 -0.34041,0.35128 -0.34041,0.21959 z m -41.673166,-1.36853 c -0.05063,-0.0819 -0.03088,-0.18676 0.04389,-0.23297 0.07477,-0.0462 0.135944,0.0208 0.135944,0.14895 0,0.26979 -0.05045,0.29336 -0.179833,0.084 z m 51.193166,-7.53106 c 0.159278,-0.176 0.325597,-0.32 0.369597,-0.32 0.044,0 -0.05032,0.144 -0.209597,0.32 -0.159278,0.176 -0.325597,0.32 -0.369597,0.32 -0.044,0 0.05032,-0.144 0.209597,-0.32 z m -41.507368,-2.49333 c 0.0077,-0.18639 0.04559,-0.22431 0.09667,-0.0967 0.04622,0.1155 0.04054,0.2535 -0.01262,0.30667 -0.05317,0.0532 -0.09098,-0.0413 -0.08404,-0.21 z m 0.827717,-7.50667 c 0.0018,-0.352 0.03454,-0.47716 0.07281,-0.27813 0.03827,0.19902 0.03682,0.48702 -0.0032,0.64 -0.04005,0.15297 -0.07136,-0.01 -0.06958,-0.36187 z m -1.467717,-2.25333 c 0.0077,-0.18639 0.04559,-0.22431 0.09667,-0.0967 0.04622,0.1155 0.04054,0.2535 -0.01262,0.30667 -0.05317,0.0532 -0.09098,-0.0413 -0.08404,-0.21 z m 1.61856,-1.90667 c 0.0033,-0.264 0.03912,-0.35263 0.07969,-0.19696 0.04057,0.15568 0.0379,0.37168 -0.0059,0.48 -0.04383,0.10833 -0.07702,-0.019 -0.07376,-0.28304 z m -13.93856,-6.41333 c 0.0077,-0.18639 0.04559,-0.22431 0.09667,-0.0967 0.04622,0.1155 0.04054,0.2535 -0.01262,0.30667 -0.05317,0.0532 -0.09098,-0.0413 -0.08404,-0.21 z m 12.350946,-0.70667 c 0,-0.396 0.0312,-0.558 0.06934,-0.36 0.03814,0.198 0.03814,0.522 0,0.72 -0.03814,0.198 -0.06934,0.036 -0.06934,-0.36 z m 2.073542,-6.24 c 0,-0.308 0.03293,-0.434 0.07317,-0.28 0.04024,0.154 0.04024,0.406 0,0.56 -0.04024,0.154 -0.07317,0.028 -0.07317,-0.28 z m -22.264488,-3.29333 c 0.0077,-0.18639 0.04559,-0.22431 0.09667,-0.0967 0.04622,0.1155 0.04054,0.2535 -0.01262,0.30667 -0.05317,0.0532 -0.09098,-0.0413 -0.08404,-0.21 z m 83.006957,-1.30667 c -0.19902,-0.25377 -0.19336,-0.25943 0.0604,-0.0604 0.26652,0.20902 0.35128,0.34041 0.21959,0.34041 -0.0332,0 -0.15922,-0.126 -0.28,-0.28 z m -4.96,-4.48 c -0.19902,-0.25377 -0.19336,-0.25943 0.0604,-0.0604 0.26652,0.20902 0.35128,0.34041 0.21959,0.34041 -0.0332,0 -0.15922,-0.126 -0.28,-0.28 z m -96.219589,-1.8 c 0.343718,-0.352 0.660944,-0.64 0.704944,-0.64 0.044,0 -0.201226,0.288 -0.544944,0.64 -0.343718,0.352 -0.660944,0.64 -0.704944,0.64 -0.044,0 0.201226,-0.288 0.544944,-0.64 z m 3.04,-3.04 c 0.159278,-0.176 0.325597,-0.32 0.369597,-0.32 0.044,0 -0.05032,0.144 -0.209597,0.32 -0.159278,0.176 -0.325597,0.32 -0.369597,0.32 -0.044,0 0.05032,-0.144 0.209597,-0.32 z m 41.403045,-18.83088 c 0.155675,-0.0406 0.371675,-0.0379 0.48,0.006 0.108325,0.0438 -0.01904,0.077 -0.283045,0.0738 -0.264,-0.003 -0.35263,-0.0391 -0.196955,-0.0797 z m 5.836955,0.005 c 0.11,-0.0444 0.29,-0.0444 0.4,0 0.11,0.0444 0.02,0.0807 -0.2,0.0807 -0.22,0 -0.31,-0.0363 -0.2,-0.0807 z"
         id="path2594" /><path
         style="fill:#231f20;fill-opacity:1;stroke-width:0.16"
         d="m 92.679091,-248.15677 c 0.115499,-0.0462 0.253501,-0.0405 0.306667,0.0126 0.05317,0.0532 -0.04133,0.091 -0.21,0.084 -0.186392,-0.008 -0.224304,-0.0456 -0.09667,-0.0967 z m -1.6,-0.16 c 0.115499,-0.0462 0.253501,-0.0405 0.306667,0.0126 0.05317,0.0532 -0.04133,0.091 -0.21,0.084 -0.186392,-0.008 -0.224304,-0.0456 -0.09667,-0.0967 z m -92.61,-3.79111 c 0,-0.0332 0.126,-0.15922 0.28,-0.28 0.25376896,-0.19902 0.25942816,-0.19336 0.060409,0.0604 -0.209019,0.26652 -0.3404088,0.35128 -0.3404088,0.21959 z m 7.1284458,-0.0859 c -0.051516,-0.0834 -0.025466,-0.19371 0.057889,-0.24522 0.083355,-0.0515 0.1937037,-0.0255 0.2452198,0.0579 0.051516,0.0834 0.025466,0.19371 -0.057889,0.24522 -0.083355,0.0515 -0.1937037,0.0255 -0.2452198,-0.0579 z m -8.4884458,-5.29367 c 0.1592778,-0.176 0.325596,-0.32 0.369596,-0.32 0.044,0 -0.050318,0.144 -0.209596,0.32 -0.1592778,0.176 -0.325596,0.32 -0.369596,0.32 -0.044,0 0.050318,-0.144 0.209596,-0.32 z m 6,-1.66041 c 0,-0.0332 0.126,-0.15922 0.28,-0.28 0.253769,-0.19902 0.2594282,-0.19336 0.060409,0.0604 -0.209019,0.26652 -0.3404088,0.35128 -0.3404088,0.21959 z m -3.84,-0.32 c 0,-0.0332 0.126,-0.15922 0.28,-0.28 0.25376896,-0.19902 0.25942816,-0.19336 0.0604088,0.0604 -0.20901904,0.26652 -0.3404088,0.35128 -0.3404088,0.21959 z m -6.24,-1.44 c 0,-0.0332 0.126,-0.15922 0.28,-0.28 0.253769,-0.19902 0.2594282,-0.19336 0.060409,0.0604 -0.209019,0.26652 -0.3404088,0.35128 -0.3404088,0.21959 z m 1.12,-1.12 c 0,-0.0332 0.126,-0.15922 0.28,-0.28 0.253769,-0.19902 0.2594282,-0.19336 0.060409,0.0604 -0.209019,0.26652 -0.3404088,0.35128 -0.3404088,0.21959 z m -2.2147368,-8.89959 c 0,-0.22 0.036316,-0.31 0.080702,-0.2 0.044386,0.11 0.044386,0.29 0,0.4 -0.044386,0.11 -0.080702,0.02 -0.080702,-0.2 z m 0.2328307,-0.98928 c 0.04621,-0.0748 0.1510425,-0.0945 0.2329618,-0.0439 0.2093411,0.12938 0.1857693,0.17984 -0.084017,0.17984 -0.128129,0 -0.1951539,-0.0612 -0.1489443,-0.13595 z m 32.6719061,-2.80002 c 0.115499,-0.0462 0.253499,-0.0405 0.306667,0.0126 0.05317,0.0532 -0.04133,0.091 -0.21,0.084 -0.186392,-0.008 -0.224304,-0.0456 -0.09667,-0.0967 z m -2.24,-0.16 c 0.115499,-0.0462 0.253499,-0.0405 0.306667,0.0126 0.05317,0.0532 -0.04133,0.091 -0.21,0.084 -0.186392,-0.008 -0.224304,-0.0456 -0.09667,-0.0967 z m -6.09,-5.43666 c 0.11,-0.0444 0.29,-0.0444 0.4,0 0.11,0.0444 0.02,0.0807 -0.2,0.0807 -0.22,0 -0.31,-0.0363 -0.2,-0.0807 z m 54.267758,-8.73404 c -0.08639,-0.28227 -0.101368,-0.60694 -0.02445,-0.53003 0.116762,0.11676 0.198298,0.57003 0.102539,0.57003 -0.03621,0 -0.07135,-0.018 -0.07809,-0.04 z m -21.279868,-4.08 -0.38789,-0.44 0.44,0.38789 c 0.411246,0.36254 0.513374,0.49211 0.38789,0.49211 -0.02866,0 -0.22666,-0.198 -0.44,-0.44 z m 2.7117,-1.44 c -0.199019,-0.25377 -0.19336,-0.25943 0.06041,-0.0604 0.154,0.12078 0.28,0.24678 0.28,0.28 0,0.13169 -0.13139,0.0469 -0.34041,-0.21959 z m -23.926257,-1.07296 c 0,-0.12813 0.06117,-0.19516 0.135944,-0.14895 0.07477,0.0462 0.09452,0.15105 0.04389,0.23297 -0.129379,0.20934 -0.179833,0.18577 -0.179833,-0.084 z m 17.206257,-1.48704 c -0.199019,-0.25377 -0.19336,-0.25943 0.06041,-0.0604 0.154,0.12078 0.28,0.24678 0.28,0.28 0,0.13169 -0.13139,0.0469 -0.34041,-0.21959 z m -21.827118,-2.96 -0.632472,-0.68 0.68,0.63247 c 0.374,0.34786 0.68,0.65386 0.68,0.68 0,0.12105 -0.139336,-8e-5 -0.727528,-0.63247 z m 55.887528,-0.55292 c 0.198,-0.0381 0.522,-0.0381 0.72,0 0.198,0.0381 0.036,0.0693 -0.36,0.0693 -0.396,0 -0.558,-0.0312 -0.36,-0.0693 z m -54.06041,-2.40708 c -0.199019,-0.25377 -0.19336,-0.25943 0.06041,-0.0604 0.154,0.12078 0.28,0.24678 0.28,0.28 0,0.13169 -0.13139,0.0469 -0.34041,-0.21959 z m 37.485672,-1.48 c 0,-0.22 0.03632,-0.31 0.0807,-0.2 0.04438,0.11 0.04438,0.29 0,0.4 -0.04439,0.11 -0.0807,0.02 -0.0807,-0.2 z m -41.165672,-2.68 c -0.199019,-0.25377 -0.19336,-0.25943 0.06041,-0.0604 0.154,0.12078 0.28,0.24678 0.28,0.28 0,0.13169 -0.13139,0.0469 -0.34041,-0.21959 z m 64.50041,-0.90041 c 0,-0.0332 0.126,-0.15922 0.28,-0.28 0.25377,-0.19902 0.259429,-0.19336 0.06041,0.0604 -0.20902,0.26652 -0.34041,0.35128 -0.34041,0.21959 z m -65.78041,-0.69959 c -0.194289,-0.24774 -0.190243,-0.25712 0.03513,-0.0814 0.140096,0.10924 0.31364,0.14524 0.385651,0.08 0.07201,-0.0652 0.07914,-0.0286 0.01584,0.0814 -0.148767,0.25851 -0.174895,0.25372 -0.436619,-0.08 z m -23.1669585,-4.45333 c 0.00768,-0.18639 0.045591,-0.22431 0.096667,-0.0967 0.046219,0.1155 0.040535,0.2535 -0.012632,0.30667 -0.053167,0.0532 -0.090982,-0.0413 -0.084035,-0.21 z m 0.033131,-7.34667 c 0.0012,-0.44 0.032274,-0.60101 0.069051,-0.3578 0.036777,0.24321 0.035794,0.60321 -0.00218,0.8 -0.037978,0.19679 -0.068068,-0.002 -0.066867,-0.4422 z m 0.1268693,-3.69333 c 0.00768,-0.18639 0.045591,-0.22431 0.096667,-0.0967 0.046219,0.1155 0.040535,0.2535 -0.012632,0.30667 -0.053167,0.0532 -0.090983,-0.0413 -0.084035,-0.21 z m 73.1073682,-0.28708 c 0,-0.0332 0.126,-0.15922 0.28,-0.28 0.25377,-0.19902 0.259429,-0.19336 0.06041,0.0604 -0.20902,0.26652 -0.34041,0.35128 -0.34041,0.21959 z m 2.859021,-3.03431 c 0.09801,-0.1181 0.142827,-0.2501 0.09959,-0.29333 -0.04323,-0.0432 0.02969,-0.0786 0.162055,-0.0786 0.205201,0 0.201547,0.0432 -0.0248,0.29334 -0.30408,0.336 -0.506117,0.40306 -0.236846,0.0786 z m 2.347813,0.0658 c -0.05063,-0.0819 -0.03088,-0.18676 0.04389,-0.23297 0.07477,-0.0462 0.135944,0.0208 0.135944,0.14895 0,0.26979 -0.05045,0.29336 -0.179833,0.084 z m -1.151284,-1.26404 c 0.145832,-0.16114 0.228991,-0.34114 0.184799,-0.4 -0.04419,-0.0589 -0.03219,-0.0709 0.02667,-0.0267 0.05886,0.0442 0.256859,-0.0443 0.44,-0.19659 0.183141,-0.15232 0.08486,-0.008 -0.218403,0.31965 -0.303263,0.32812 -0.584421,0.59659 -0.624797,0.59659 -0.04038,0 0.0459,-0.13184 0.191734,-0.29298 z m -76.6829182,-2.84035 c 0.00768,-0.18639 0.045591,-0.22431 0.096667,-0.0967 0.046219,0.1155 0.040535,0.2535 -0.012632,0.30667 -0.053167,0.0532 -0.090983,-0.0413 -0.084035,-0.21 z m 80.3607012,-0.78667 c 0,-0.132 0.03538,-0.20462 0.07861,-0.16139 0.04324,0.0432 0.193236,-0.01 0.333332,-0.11724 0.156072,-0.12 0.136679,-0.0575 -0.05008,0.16139 -0.36158,0.42379 -0.361869,0.42389 -0.361869,0.11724 z m -79.8807012,-4.97333 c 0.00768,-0.18639 0.045591,-0.22431 0.096667,-0.0967 0.046219,0.1155 0.040535,0.2535 -0.012632,0.30667 -0.053167,0.0532 -0.090982,-0.0413 -0.084035,-0.21 z m 91.1873682,-2.84708 c 0,-0.0332 0.126,-0.15922 0.28,-0.28 0.25377,-0.19902 0.259429,-0.19336 0.06041,0.0604 -0.20902,0.26652 -0.34041,0.35128 -0.34041,0.21959 z m -36.934738,-4.41959 c 0,-0.22 0.03632,-0.31 0.0807,-0.2 0.04438,0.11 0.04438,0.29 0,0.4 -0.04439,0.11 -0.0807,0.02 -0.0807,-0.2 z m 41.639536,-0.12276 c 0.36158,-0.42379 0.361869,-0.42389 0.361869,-0.11724 0,0.132 -0.03538,0.20462 -0.07861,0.16139 -0.04324,-0.0432 -0.193236,0.01 -0.333332,0.11724 -0.156072,0.12 -0.136679,0.0575 0.05008,-0.16139 z m -42.292166,-3.49057 c 0.0077,-0.18639 0.04559,-0.22431 0.09667,-0.0967 0.04622,0.1155 0.04054,0.2535 -0.01262,0.30667 -0.05317,0.0532 -0.09098,-0.0413 -0.08404,-0.21 z m 0.827717,-0.46667 c 0.0018,-0.352 0.03454,-0.47716 0.07281,-0.27813 0.03827,0.19902 0.03682,0.48702 -0.0032,0.64 -0.04005,0.15297 -0.07136,-0.01 -0.06958,-0.36187 z m -0.987717,-1.45333 c 0.0077,-0.18639 0.04559,-0.22431 0.09667,-0.0967 0.04622,0.1155 0.04054,0.2535 -0.01262,0.30667 -0.05317,0.0532 -0.09098,-0.0413 -0.08404,-0.21 z m -50.0522824,-2.86667 c 0.00178,-0.352 0.034542,-0.47716 0.072812,-0.27813 0.038271,0.19902 0.036818,0.48702 -0.00323,0.64 -0.040047,0.15297 -0.07136,-0.01 -0.069584,-0.36187 z m 0,-3.04 c 0.00178,-0.352 0.034542,-0.47716 0.072812,-0.27813 0.038271,0.19902 0.036818,0.48702 -0.00323,0.64 -0.040047,0.15297 -0.07136,-0.01 -0.069584,-0.36187 z m 51.3322824,-2.89333 c 0.0077,-0.18639 0.04559,-0.22431 0.09667,-0.0967 0.04622,0.1155 0.04054,0.2535 -0.01262,0.30667 -0.05317,0.0532 -0.09098,-0.0413 -0.08404,-0.21 z m -15.2,-1.44 c 0.0077,-0.18639 0.04559,-0.22431 0.09667,-0.0967 0.04622,0.1155 0.04054,0.2535 -0.01262,0.30667 -0.05317,0.0532 -0.09098,-0.0413 -0.08404,-0.21 z m 15.390946,-2.46667 c 0,-0.396 0.0312,-0.558 0.06934,-0.36 0.03814,0.198 0.03814,0.522 0,0.72 -0.03814,0.198 -0.06934,0.036 -0.06934,-0.36 z m -13.950946,-0.25333 c 0.0077,-0.18639 0.04559,-0.22431 0.09667,-0.0967 0.04622,0.1155 0.04054,0.2535 -0.01262,0.30667 -0.05317,0.0532 -0.09098,-0.0413 -0.08404,-0.21 z m -32.9600002,-3.2 c 0.00768,-0.18639 0.045591,-0.22431 0.096667,-0.0967 0.046219,0.1155 0.040535,0.2535 -0.012632,0.30667 -0.053167,0.0532 -0.090982,-0.0413 -0.084035,-0.21 z m 32.4800002,-2.88 c 0.0077,-0.18639 0.04559,-0.22431 0.09667,-0.0967 0.04622,0.1155 0.04054,0.2535 -0.01262,0.30667 -0.05317,0.0532 -0.09098,-0.0413 -0.08404,-0.21 z m 12.96,-2.56 c 0.0077,-0.18639 0.04559,-0.22431 0.09667,-0.0967 0.04622,0.1155 0.04054,0.2535 -0.01262,0.30667 -0.05317,0.0532 -0.09098,-0.0413 -0.08404,-0.21 z m -22.24,-1.6 c 0.0077,-0.18639 0.04559,-0.22431 0.09667,-0.0967 0.04622,0.1155 0.04054,0.2535 -0.01262,0.30667 -0.05317,0.0532 -0.09098,-0.0413 -0.08404,-0.21 z m 8.48,-0.32 c 0.0077,-0.18639 0.04559,-0.22431 0.09667,-0.0967 0.04622,0.1155 0.04054,0.2535 -0.01262,0.30667 -0.05317,0.0532 -0.09098,-0.0413 -0.08404,-0.21 z m 15.69856,-1.10667 c 0.0033,-0.264 0.03912,-0.35263 0.07969,-0.19696 0.04057,0.15568 0.0379,0.37168 -0.0059,0.48 -0.04383,0.10833 -0.07702,-0.019 -0.07376,-0.28304 z m -15.551192,-1.2 c 0,-0.088 0.07625,-0.16 0.169443,-0.16 0.09319,0 0.124944,0.072 0.07056,0.16 -0.05439,0.088 -0.130637,0.16 -0.169443,0.16 -0.03881,0 -0.07056,-0.072 -0.07056,-0.16 z m 15.711192,-1.36 c 0.0033,-0.264 0.03912,-0.35263 0.07969,-0.19696 0.04057,0.15568 0.0379,0.37168 -0.0059,0.48 -0.04383,0.10833 -0.07702,-0.019 -0.07376,-0.28304 z m -22.72593,-0.24 c 0,-0.22 0.03632,-0.31 0.0807,-0.2 0.04438,0.11 0.04438,0.29 0,0.4 -0.04439,0.11 -0.0807,0.02 -0.0807,-0.2 z m -0.1395,-3.12 c 0.0013,-0.44 0.03228,-0.60101 0.06905,-0.3578 0.03678,0.24321 0.03579,0.60321 -0.0022,0.8 -0.03798,0.19679 -0.06807,-0.002 -0.06687,-0.4422 z m -1.47313,-0.97333 c 0.0077,-0.18639 0.04559,-0.22431 0.09667,-0.0967 0.04622,0.1155 0.04054,0.2535 -0.01262,0.30667 -0.05317,0.0532 -0.09098,-0.0413 -0.08404,-0.21 z m 24.81263,-2.94667 c 0,-0.22 0.03632,-0.31 0.0807,-0.2 0.04439,0.11 0.04439,0.29 0,0.4 -0.04439,0.11 -0.0807,0.02 -0.0807,-0.2 z m -38.346875,-0.32261 c -0.05527,-0.0894 -0.185523,-0.11389 -0.289443,-0.0543 -0.103918,0.0596 -0.132861,0.0466 -0.06431,-0.0287 0.207084,-0.22755 0.542037,-0.21289 0.542037,0.0237 0,0.26371 -0.05186,0.28005 -0.18828,0.0593 z m 14.986875,-2.07739 c 0,-0.22 0.03632,-0.31 0.0807,-0.2 0.04438,0.11 0.04438,0.29 0,0.4 -0.04439,0.11 -0.0807,0.02 -0.0807,-0.2 z"
         id="path2592" /></g><path
       d="m -149.70456,-446.55638 c -2.8265,-0.79222 -7.76663,-2.18259 -9.14462,-2.57373 -4.78204,-1.35728 -10.34819,-2.51841 -13.19526,-2.75259 -0.54008,-0.0445 -1.12006,-0.10324 -1.28884,-0.13076 -0.40192,-0.0655 -4.75837,-0.0652 -5.15535,2.5e-4 -0.16878,0.0279 -0.72114,0.0873 -1.22747,0.13193 -3.17349,0.28025 -7.63402,1.59467 -10.40522,3.06617 -0.44547,0.23655 -0.8298,0.41024 -0.85407,0.38596 -0.12581,-0.1258 1.76184,-1.8508 2.66703,-2.43722 3.51355,-2.27619 7.26293,-3.21378 12.82702,-3.20762 5.48922,0.006 10.82895,1.07747 17.55282,3.52185 3.79963,1.38126 10.00379,4.10982 10.00379,4.39956 0,0.0573 -0.0138,0.0981 -0.0307,0.091 -0.0169,-0.008 -0.80399,-0.22982 -1.74914,-0.49473 z m 10.43347,0.0661 c -5.88923,-0.67117 -11.1344,-2.47205 -20.43731,-7.01696 -6.35111,-3.10283 -8.54876,-4.16551 -8.92826,-4.3173 -0.21855,-0.0873 -0.36191,-0.21629 -0.31859,-0.28639 0.0452,-0.0731 0.0194,-0.0908 -0.0608,-0.0413 -0.0768,0.0474 -0.67909,-0.11627 -1.33849,-0.36388 -3.54754,-1.33197 -6.24669,-1.82152 -10.03666,-1.82036 -2.26127,7.4e-4 -3.48703,0.12077 -5.64635,0.55312 -3.52224,0.70521 -7.47346,2.26803 -10.67895,4.22381 -0.74262,0.45311 -1.41926,0.82674 -1.50365,0.8303 -0.0844,0.004 -0.12871,0.0312 -0.0985,0.0614 0.0302,0.0303 -0.61881,0.5454 -1.44227,1.14484 -0.82347,0.59943 -2.1259,1.61377 -2.89428,2.25404 -0.76838,0.64028 -1.45355,1.12923 -1.52261,1.08656 -0.0691,-0.0427 -0.0907,-0.0211 -0.0481,0.0477 0.0987,0.15965 -0.35162,0.57554 -0.51428,0.47501 -0.0671,-0.0415 -0.16197,-0.0107 -0.21082,0.0683 -0.0555,0.0897 -0.0356,0.11088 0.0529,0.0561 0.25359,-0.15671 0.15004,-0.004 -0.24695,0.36424 l -0.38867,0.36051 0.46368,-0.85757 c 0.54882,-1.01506 1.27862,-1.91968 2.80949,-3.48252 1.59718,-1.63056 2.62127,-2.51046 2.79606,-2.40244 0.0889,0.055 0.11473,0.0387 0.0654,-0.0411 -0.10196,-0.16498 0.51741,-0.66761 0.69071,-0.56051 0.07,0.0432 0.0926,0.0225 0.0501,-0.0463 -0.14638,-0.23686 2.68986,-2.10229 4.79326,-3.15254 7.56469,-3.77725 16.23246,-4.38573 24.09142,-1.69124 2.20549,0.75618 7.30057,3.14098 7.1682,3.35515 -0.0339,0.0548 0.0103,0.0736 0.0982,0.0415 0.0879,-0.032 1.40262,0.60485 2.92161,1.41516 7.56311,4.03463 11.74648,5.94203 19.01202,8.66854 1.51146,0.56721 2.83712,1.0833 2.94592,1.14689 0.24647,0.14403 0.27296,0.14521 -1.64338,-0.0732 z m -72.23638,-2.07767 c 0,-0.23373 0.95595,-1.88527 1.56363,-2.70139 1.69022,-2.27 3.87409,-4.38739 6.84451,-6.63616 1.59856,-1.2102 2.88029,-2.03056 3.02897,-1.93867 0.0777,0.0481 0.10543,0.0316 0.0629,-0.0373 -0.10192,-0.1649 2.20119,-1.4716 4.16296,-2.36192 3.00438,-1.36348 5.60971,-2.1921 8.5339,-2.71416 1.86506,-0.33298 5.69009,-0.43122 7.41041,-0.19032 1.31135,0.18363 1.19907,0.22741 -1.28884,0.50257 -3.74631,0.41436 -6.85674,1.09157 -9.67052,2.10554 -0.82933,0.29885 -1.56974,0.50513 -1.64536,0.4584 -0.0756,-0.0467 -0.10374,-0.0304 -0.0625,0.0363 0.0412,0.0666 -0.24021,0.24981 -0.62546,0.40682 -2.07553,0.8459 -5.69159,2.86309 -7.7347,4.31471 -0.56082,0.39847 -1.08029,0.68702 -1.15437,0.64123 -0.0742,-0.0459 -0.10021,-0.0275 -0.0579,0.0411 0.0422,0.0684 -0.45299,0.53259 -1.10054,1.03163 -0.64755,0.49901 -1.23975,0.96256 -1.31601,1.03007 -0.0763,0.0675 -0.70952,0.61318 -1.40726,1.21258 -0.69774,0.59942 -2.20075,1.93889 -3.34004,2.97661 -1.9418,1.76869 -2.20378,1.98533 -2.20378,1.82232 z m 13.13359,-0.61961 c 0.53103,-0.87637 1.31356,-1.83092 2.1174,-2.58286 1.15753,-1.08282 2.27977,-1.91654 2.44354,-1.81532 0.0857,0.053 0.10841,0.0339 0.0574,-0.0487 -0.18387,-0.29749 3.59686,-2.34456 5.56988,-3.01578 4.25626,-1.448 8.89813,-1.69625 13.14647,-0.70305 1.99601,0.46663 4.81957,1.43557 4.70825,1.61569 -0.0381,0.0615 0.0114,0.081 0.10992,0.0432 0.0985,-0.0379 0.39137,0.0462 0.65079,0.1869 l 0.47167,0.25562 -0.42961,-0.0566 c -0.23629,-0.0312 -1.14768,-0.16554 -2.02532,-0.29853 -2.93413,-0.44465 -4.37274,-0.53811 -7.27656,-0.47279 -3.02034,0.068 -4.47286,0.24526 -6.80344,0.83044 -4.3448,1.09096 -8.20037,2.93802 -11.75816,5.63289 -1.27015,0.96209 -1.31797,0.98297 -0.98226,0.42896 z m 57.75257,0.0474 c -3.02007,-1.15569 -3.94338,-1.52142 -5.2781,-2.09064 -2.16913,-0.92508 -6.9464,-3.35743 -9.28704,-4.72849 -2.81114,-1.64666 -6.22699,-3.87485 -6.14633,-4.00932 0.0366,-0.0611 -6.1e-4,-0.0696 -0.0828,-0.0187 -0.0822,0.0507 -0.24263,0.0136 -0.35652,-0.0827 -0.24579,-0.20781 -2.46381,-1.52261 -2.7609,-1.63663 -0.11361,-0.0436 -0.17041,-0.14252 -0.12622,-0.21983 0.0442,-0.0773 0.035,-0.0995 -0.0204,-0.0493 -0.0554,0.0502 -0.54757,-0.15095 -1.09371,-0.447 -2.54054,-1.37715 -6.92948,-3.48757 -9.48486,-4.56079 -0.61989,-0.26035 -1.09467,-0.52579 -1.05506,-0.58987 0.0396,-0.0641 0.01,-0.078 -0.0666,-0.0309 -0.17008,0.10515 -7.19053,-2.78467 -11.71296,-4.82134 -4.6768,-2.10618 -10.95619,-5.53939 -10.6824,-5.84049 0.0521,-0.0574 0.0262,-0.0648 -0.0577,-0.0165 -0.12565,0.0723 -0.8254,-0.32071 -1.4433,-0.81055 -0.0675,-0.0536 -0.48179,-0.35575 -0.9206,-0.67162 -1.3262,-0.95457 -2.70542,-2.14117 -2.63022,-2.26283 0.0389,-0.063 0.0252,-0.10013 -0.0304,-0.0826 -0.31819,0.10023 -2.37939,-2.08292 -3.61778,-3.83198 -1.76529,-2.49322 -2.90731,-5.27276 -3.48901,-8.49186 -0.41252,-2.28281 -0.3438,-7.53069 0.1974,-15.07463 0.32444,-4.52246 1.07598,-11.82805 1.17984,-11.4691 0.0183,0.0633 0.20245,0.9712 0.40919,2.01761 1.16349,5.88879 3.47762,11.9229 6.85193,17.86643 0.99165,1.7467 2.74758,4.57044 3.29747,5.30271 0.16506,0.21981 0.26533,0.45593 0.22282,0.52472 -0.0425,0.0688 -0.0241,0.10993 0.0408,0.0913 0.065,-0.0185 0.43918,0.40816 0.83163,0.94824 2.3851,3.28241 5.66416,6.9352 8.977,10.00014 0.82519,0.76344 1.46568,1.44415 1.42331,1.51271 -0.0438,0.0708 -0.0163,0.0872 0.0639,0.0376 0.18035,-0.11149 1.26116,0.78291 1.16035,0.96021 -0.0414,0.0727 -0.0312,0.0924 0.0226,0.0439 0.14027,-0.12673 0.81987,0.38773 0.7218,0.5464 -0.045,0.0727 -0.0264,0.0981 0.0413,0.0562 0.0677,-0.0418 0.22815,0.0192 0.35651,0.13545 0.12837,0.11639 0.38706,0.31018 0.57487,0.43075 0.1878,0.12058 0.31451,0.26284 0.28157,0.31612 -0.0329,0.0533 0.009,0.0969 0.0941,0.0969 0.12244,0 2.90777,1.9935 3.14933,2.25402 0.0338,0.0364 0.36517,0.26875 0.73648,0.51629 1.70635,1.13764 2.6363,1.83352 2.60532,1.94959 -0.0185,0.0695 0.0188,0.094 0.0831,0.0541 0.0643,-0.0398 0.85274,0.40376 1.75218,0.98552 0.89945,0.58175 1.82868,1.18275 2.06497,1.33556 0.23628,0.15281 2.14192,1.34501 4.23475,2.6493 2.09283,1.30433 4.44036,2.79224 5.21674,3.30648 0.77637,0.51425 1.86564,1.22993 2.4206,1.59039 0.55495,0.36047 0.9745,0.71125 0.93232,0.7795 -0.0438,0.0708 -0.0156,0.0863 0.0658,0.0359 0.17294,-0.10682 0.90864,0.39123 0.81105,0.54915 -0.038,0.0616 0.006,0.0832 0.0974,0.0481 0.0916,-0.0352 0.52256,0.18798 0.95767,0.49586 0.4351,0.30789 2.172,1.50009 3.85977,2.64934 1.68776,1.14924 3.05702,2.13541 3.04279,2.1915 -0.0142,0.0561 0.041,0.0947 0.12274,0.0858 0.0817,-0.009 0.97215,0.47487 1.97868,1.07511 1.94603,1.16052 5.50899,2.94742 5.73003,2.87373 0.0728,-0.0242 -0.30037,-0.32842 -0.8293,-0.67591 -2.13153,-1.40029 -3.6603,-2.50749 -3.62839,-2.62783 0.0186,-0.07 -0.0152,-0.097 -0.0749,-0.0601 -0.0863,0.0533 -1.62358,-0.9841 -2.27809,-1.53727 -0.0746,-0.0631 -0.42465,-0.32578 -0.77785,-0.58377 -0.35319,-0.25801 -0.60175,-0.51377 -0.55235,-0.56837 0.0494,-0.0546 0.0332,-0.0671 -0.036,-0.0281 -0.15268,0.0864 -2.95686,-1.97996 -2.90915,-2.14375 0.0185,-0.0637 -0.0207,-0.0821 -0.0872,-0.0412 -0.13608,0.0841 -1.18831,-0.64022 -1.14809,-0.79032 0.0142,-0.053 -0.0686,-0.0892 -0.18412,-0.0803 -0.1155,0.009 -0.19618,-0.0528 -0.1793,-0.13719 0.0169,-0.0844 -0.0137,-0.13962 -0.0679,-0.12274 -0.18267,0.0569 -2.47608,-1.53188 -2.39673,-1.66028 0.0431,-0.0698 0.0196,-0.0905 -0.0523,-0.046 -0.0719,0.0445 -0.92274,-0.46038 -1.89085,-1.12175 -0.96812,-0.66138 -2.93554,-1.97342 -4.37205,-2.91564 -6.39275,-4.19306 -9.29216,-6.16767 -9.26086,-6.307 0.0185,-0.0826 -0.0241,-0.11435 -0.0947,-0.0707 -0.20106,0.12426 -3.53022,-2.31756 -3.46494,-2.54143 0.0186,-0.0635 -0.0139,-0.0863 -0.0721,-0.0502 -0.16078,0.0994 -0.65258,-0.29048 -0.5585,-0.44274 0.049,-0.0793 0.0254,-0.0981 -0.0583,-0.0464 -0.17742,0.1097 -1.14447,-0.65421 -1.04074,-0.82207 0.0422,-0.0683 0.0236,-0.0913 -0.0413,-0.0511 -0.20896,0.12912 -4.26633,-3.29123 -4.14228,-3.49196 0.037,-0.0599 0.0217,-0.0938 -0.0339,-0.0756 -0.17442,0.0573 -1.02346,-0.66168 -0.94024,-0.79633 0.0435,-0.0704 0.0249,-0.0945 -0.0415,-0.0535 -0.15949,0.0986 -1.54746,-1.30872 -1.42428,-1.44411 0.0524,-0.0577 0.0361,-0.0711 -0.0364,-0.0299 -0.16596,0.0942 -2.05812,-1.79404 -1.92801,-1.92414 0.0527,-0.0527 0.0368,-0.0775 -0.0353,-0.055 -0.25786,0.0804 -4.05113,-4.22637 -3.91558,-4.4457 0.0416,-0.0674 0.002,-0.10731 -0.0869,-0.0887 -0.0899,0.0187 -0.15504,-0.0616 -0.14573,-0.17976 0.009,-0.11746 -0.0277,-0.18594 -0.0822,-0.15228 -0.11946,0.0739 -1.20434,-1.25179 -2.46319,-3.00977 -1.50517,-2.10195 -1.72381,-2.44986 -1.63246,-2.59767 0.0517,-0.0836 0.0329,-0.1073 -0.0465,-0.0582 -0.0801,0.0496 -0.52091,-0.54339 -1.1037,-1.48469 -1.45624,-2.35201 -1.65126,-2.71255 -1.55316,-2.87126 0.0512,-0.0828 0.0375,-0.11305 -0.0319,-0.0702 -0.14592,0.0902 -0.64613,-0.79235 -1.91734,-3.38283 -2.63687,-5.3734 -4.45875,-10.81378 -5.29211,-15.80292 -0.33655,-2.01482 -0.60718,-5.62166 -0.50656,-6.75107 0.0331,-0.37131 0.0907,-1.18697 0.12799,-1.81258 0.17587,-2.94862 1.1178,-6.42255 2.61207,-9.63354 0.30631,-0.65824 0.59861,-1.19678 0.64954,-1.19678 0.0509,0 0.0968,0.9478 0.10183,2.10624 0.0204,4.64544 1.01496,9.09804 3.32832,14.8999 1.27445,3.19631 3.32233,7.47649 4.99895,10.44808 0.43538,0.77166 0.74468,1.45273 0.69571,1.53198 -0.0485,0.0785 -0.0373,0.11125 0.0249,0.0728 0.0622,-0.0385 0.4498,0.49158 0.8614,1.17782 1.94354,3.24033 3.69718,6.00554 5.74296,9.05569 0.33193,0.49489 0.6035,0.97046 0.6035,1.05682 0,0.0864 0.0258,0.13128 0.0572,0.0998 0.10145,-0.10145 0.53432,0.54135 0.45309,0.6728 -0.0432,0.0698 -0.0243,0.11185 0.0419,0.0932 0.0662,-0.0185 0.60446,0.65672 1.1961,1.5006 4.17475,5.95459 8.65162,11.45264 12.87899,15.81672 0.94515,0.97572 1.70464,1.82073 1.68776,1.87778 -0.0169,0.0571 0.0169,0.09 0.075,0.073 0.0581,-0.0168 0.84525,0.61485 1.74914,1.40385 2.92146,2.5501 5.2371,4.27601 7.82543,5.83252 1.66091,0.9988 4.29529,2.33238 5.74291,2.90716 1.25716,0.49915 3.56299,1.13755 3.68133,1.01921 0.3175,-0.31749 -1.11093,-1.91183 -2.00693,-2.24004 -3.77262,-1.38187 -6.4421,-2.97839 -10.48511,-6.2707 -2.00846,-1.63552 -3.56414,-3.10285 -3.46307,-3.2664 0.0439,-0.0711 0.0243,-0.0948 -0.0438,-0.0528 -0.1793,0.11077 -3.63732,-3.43299 -3.52586,-3.61333 0.0512,-0.0828 0.0377,-0.11316 -0.0315,-0.0704 -0.17121,0.10575 -1.67112,-1.59775 -1.56208,-1.77418 0.0515,-0.0834 0.0343,-0.10898 -0.0417,-0.062 -0.21189,0.13094 -5.8051,-6.78616 -7.64281,-9.45183 -0.10052,-0.1458 -0.69437,-0.96109 -1.31969,-1.81177 -0.62531,-0.85067 -1.92957,-2.71989 -2.89835,-4.15379 -10.40581,-15.40194 -15.39343,-26.47883 -16.5776,-36.81698 -0.35114,-3.06557 -0.18046,-4.76385 0.65751,-6.54212 0.53012,-1.12497 1.56277,-2.55675 1.75731,-2.43652 0.072,0.0445 0.0973,0.0265 0.0562,-0.0399 -0.0986,-0.15947 1.18622,-1.42437 1.32163,-1.30118 0.0576,0.0524 0.0618,0.0211 0.009,-0.0697 -0.0631,-0.1091 0.0859,-0.35119 0.44062,-0.71578 0.54774,-0.56296 1.32411,-1.18132 1.16989,-0.93179 -0.047,0.0761 -0.0323,0.17131 0.0328,0.21153 0.0651,0.0401 0.0982,-0.0313 0.0736,-0.15894 -0.054,-0.28043 1.313,-1.68872 1.51689,-1.56271 0.0861,0.0533 0.10466,0.008 0.0522,-0.12927 -0.063,-0.16413 -0.0336,-0.19352 0.13053,-0.13054 0.11649,0.0447 0.18097,0.0314 0.14327,-0.0296 -0.0774,-0.12528 2.08555,-1.95951 3.89786,-3.30544 2.70539,-2.00919 7.38773,-4.81135 7.70844,-4.61314 0.0874,0.054 0.1165,0.0401 0.0709,-0.0337 -0.13463,-0.21783 3.52156,-1.81573 6.14941,-2.68752 4.64864,-1.54221 9.35309,-2.29636 14.38883,-2.30663 4.82177,-0.01 8.92955,0.6458 13.42383,2.14252 2.46177,0.81985 6.49822,2.62709 8.0237,3.59246 0.28557,0.18072 0.54855,0.32859 0.58439,0.32859 0.0933,0 1.89698,1.13021 3.1925,2.00047 2.47893,1.6652 6.86562,5.17897 6.73316,5.3933 -0.0462,0.0747 -0.0241,0.0963 0.0511,0.0498 0.11754,-0.0726 0.69202,0.35791 1.62391,1.21707 0.16877,0.15561 1.16302,1.04308 2.20944,1.97219 2.71709,2.41247 3.7497,3.40044 3.70285,3.54279 -0.0225,0.0684 6.2e-4,0.0828 0.0514,0.032 0.0508,-0.0508 0.19328,-7.6e-4 0.31666,0.11065 0.18405,0.16656 0.19686,0.23824 0.0714,0.3992 -0.13551,0.17374 -0.12845,0.17691 0.0618,0.0277 0.19797,-0.15525 0.2706,-0.10813 0.2263,0.14689 -0.01,0.0557 0.0418,0.0645 0.11436,0.0196 0.0726,-0.0449 0.39399,0.15817 0.71427,0.45117 1.01811,0.93136 1.40031,1.2499 2.74733,2.28974 1.87903,1.45055 1.89767,1.4888 1.36902,2.81022 -0.99084,2.47671 -6.11571,10.1866 -6.58032,9.89947 -0.0786,-0.0485 -0.0971,-0.0245 -0.0454,0.0591 0.048,0.0776 -0.0475,0.32083 -0.21204,0.54063 -0.50516,0.67483 -0.66799,1.09717 -1.12912,2.92884 -0.24466,0.97182 -0.54529,2.07074 -0.66808,2.44204 -0.12279,0.37133 -0.53665,1.64174 -0.9197,2.82318 -0.38303,1.18143 -0.77585,2.27083 -0.87291,2.42087 -0.0971,0.15004 -0.49381,0.47375 -0.88166,0.71932 -0.38784,0.2456 -0.82347,0.55493 -0.96806,0.68741 -0.14459,0.13246 -0.35325,0.25412 -0.46367,0.27033 -0.11044,0.0161 -0.20557,0.0813 -0.2114,0.14452 -0.006,0.0633 -0.15889,0.30838 -0.34011,0.54466 -0.92944,1.21188 -1.23813,2.22576 -1.24775,4.0983 -0.0106,2.07066 0.26869,3.70558 1.18139,6.91462 0.80792,2.84063 0.70589,3.78949 -0.48055,4.46938 -0.46416,0.26597 -0.66351,0.29292 -2.34841,0.31735 -1.01266,0.0147 -1.95777,0.0285 -2.10025,0.0307 -0.14248,0.003 -0.45678,0.13816 -0.69845,0.30215 -0.29032,0.19702 -0.45578,0.24909 -0.48766,0.15344 -0.0265,-0.0795 -0.0621,0.0348 -0.0789,0.25417 -0.0635,0.82474 -0.0497,1.46549 0.0476,2.21097 0.0853,0.65364 0.0678,0.80451 -0.11636,1.00803 -0.25089,0.27723 -0.75909,0.45914 -1.5266,0.54643 -0.298,0.034 -0.6018,0.12162 -0.6751,0.19495 -0.0733,0.0734 -0.13329,0.51262 -0.13329,0.97622 0,0.71389 -0.0438,0.88954 -0.28627,1.14786 -0.29977,0.31937 -1.07324,0.57267 -1.76271,0.57724 -0.62868,0.004 -1.40406,0.41302 -1.63677,0.86303 -0.11207,0.21671 -0.4152,1.04494 -0.67362,1.84048 -0.48115,1.4812 -0.80113,2.13015 -0.99212,2.01212 -0.0593,-0.0367 -0.0782,0.0107 -0.0418,0.10563 0.0912,0.2377 -0.70863,0.91439 -1.51974,1.28572 -0.6066,0.2777 -0.77191,0.29873 -1.90817,0.24258 -1.34855,-0.0666 -2.3573,-0.36414 -3.88309,-1.14519 -1.21616,-0.62256 -2.4744,-1.46318 -2.36688,-1.58127 0.0529,-0.0579 0.0318,-0.0688 -0.0467,-0.0239 -0.19252,0.11017 -2.15474,-1.25008 -2.04932,-1.42066 0.0494,-0.0799 0.0244,-0.097 -0.063,-0.043 -0.0842,0.0521 -0.49047,-0.16438 -0.97025,-0.517 -0.99413,-0.73065 -1.25898,-0.87038 -1.50042,-0.79157 -0.50181,0.16379 -1.45176,1.35368 -1.70759,2.13886 -0.19193,0.58904 -0.0252,1.2235 0.53604,2.03934 0.23144,0.33646 0.38259,0.64996 0.33587,0.69666 -0.0467,0.0468 -0.0297,0.067 0.0378,0.045 0.12863,-0.0419 1.5379,1.41087 1.98361,2.04479 0.84253,1.19826 1.32476,2.57474 1.45775,4.16094 0.0985,1.17527 0.35478,1.81007 1.01762,2.5209 0.2762,0.29622 0.47594,0.58103 0.44385,0.63297 -0.0321,0.052 0.006,0.13436 0.0854,0.18321 0.0898,0.0555 0.11082,0.0356 0.0561,-0.0528 -0.0482,-0.0779 -0.0429,-0.13845 0.0117,-0.13446 0.1577,0.012 1.30567,1.44589 1.9098,2.38632 1.18152,1.8392 2.06801,4.05486 2.53982,6.34788 0.13471,0.65469 0.33001,1.394 0.43401,1.64291 0.10666,0.25524 0.87367,1.15396 1.75927,2.06135 1.83482,1.87994 2.53083,2.71328 2.41827,2.89541 -0.0446,0.0722 -0.0179,0.1159 0.0591,0.0973 0.36215,-0.0872 2.5563,3.5889 3.57765,5.99398 0.49512,1.16592 2.6833,7.45913 2.6833,7.71718 0,0.10516 -0.13785,0.0665 -1.16609,-0.32704 z m -16.87409,-52.33173 c 0.50829,-0.47082 1.2816,-1.18945 1.71846,-1.59695 2.86003,-2.66787 4.67219,-4.23778 4.8003,-4.1586 0.0864,0.0534 0.11119,0.036 0.062,-0.0436 -0.0928,-0.15009 3.90865,-3.79109 4.10826,-3.73822 0.07,0.0185 0.0971,-0.0151 0.0602,-0.0749 -0.0369,-0.0597 0.7737,-0.87018 1.80139,-1.80097 2.06295,-1.86848 4.22287,-3.84916 4.81771,-4.41794 2.46561,-2.3576 2.91674,-2.75515 3.0438,-2.68237 0.0794,0.0455 0.10279,0.0369 0.052,-0.0192 -0.12381,-0.13647 0.27538,-0.56644 0.43456,-0.46808 0.0689,0.0426 0.0921,0.0238 0.0516,-0.0418 -0.0986,-0.1596 3.27098,-3.51372 3.40623,-3.39056 0.0582,0.053 0.0692,0.0324 0.0244,-0.0459 -0.0453,-0.0793 0.0888,-0.28547 0.3026,-0.46534 0.21119,-0.17771 0.35335,-0.35372 0.31591,-0.39117 -0.0374,-0.0374 -0.40729,0.21426 -0.82191,0.55931 -0.41462,0.34505 -0.80657,0.59478 -0.87099,0.55497 -0.0644,-0.0398 -0.10196,-0.0192 -0.0834,0.0458 0.0457,0.16026 -0.88767,0.89608 -1.02728,0.8098 -0.0611,-0.0377 -0.096,-0.0119 -0.0774,0.0584 0.0488,0.18393 -2.84447,2.48716 -3.00201,2.3898 -0.073,-0.045 -0.0971,-0.0249 -0.0538,0.0451 0.0985,0.15931 -2.45835,2.28062 -2.62482,2.17772 -0.0672,-0.0414 -0.10701,-0.003 -0.0884,0.087 0.0185,0.0894 -0.0394,0.14739 -0.12883,0.12884 -0.0894,-0.0185 -0.13288,0.0142 -0.0966,0.073 0.0779,0.12603 -1.9324,1.80196 -2.16147,1.80196 -0.0864,0 -0.15704,0.0735 -0.15704,0.16333 0,0.21354 -0.43045,0.52575 -0.5894,0.42751 -0.068,-0.0421 -0.0886,-0.0197 -0.0457,0.0496 0.0428,0.0693 -0.32147,0.4767 -0.80958,0.90531 -0.4881,0.42862 -1.43794,1.27803 -2.11075,1.88758 -0.67282,0.60955 -1.33021,1.20302 -1.46087,1.31885 -0.13066,0.11579 -0.29296,0.17631 -0.36068,0.13446 -0.0677,-0.0419 -0.0874,-0.0183 -0.0438,0.0522 0.10296,0.16661 -2.48314,2.63267 -2.65162,2.52854 -0.0705,-0.0435 -0.0935,-0.023 -0.0511,0.0454 0.10051,0.16263 -0.77176,1.03489 -0.93438,0.93439 -0.0695,-0.043 -0.0872,-0.0165 -0.0401,0.0597 0.0484,0.0784 -0.38278,0.6239 -1.00944,1.27712 -0.60169,0.62718 -1.30174,1.37359 -1.55566,1.65867 -0.25393,0.28507 -0.51775,0.48367 -0.58627,0.44133 -0.0697,-0.0431 -0.0871,-0.0164 -0.0395,0.0606 0.0478,0.0775 -0.19977,0.44851 -0.56537,0.84752 -0.92309,1.00742 -3.04142,3.56912 -3.04142,3.67797 0,0.0504 0.26237,-0.15658 0.58305,-0.4596 0.32067,-0.30302 0.99892,-0.93614 1.50721,-1.40698 z m -4.67942,-3.66774 c 1.33971,-2.46798 3.33965,-7.21361 5.11137,-12.12875 0.48495,-1.34534 0.87941,-2.26588 0.95178,-2.22115 0.0704,0.0435 0.0856,0.015 0.0353,-0.0665 -0.0929,-0.1503 0.78592,-2.97883 0.90303,-2.90645 0.0373,0.023 0.0722,-0.0771 0.0774,-0.2225 0.005,-0.14545 0.43147,-1.61774 0.94714,-3.27175 1.31003,-4.20191 2.66361,-9.63779 2.51266,-10.09065 -0.0284,-0.0853 -0.34268,0.72792 -0.69834,1.80709 -0.93193,2.8277 -2.34624,6.76507 -4.12185,11.47497 -3.83691,10.17757 -6.89418,19.02573 -6.57389,19.02573 0.0524,0 0.4373,-0.63007 0.85532,-1.40013 z m -1.63431,-9.64708 c 1.61741,-5.43209 3.03252,-11.75907 3.84355,-17.18452 0.26472,-1.77087 0.87091,-6.68336 0.87091,-7.05775 0,-0.47492 -0.15267,-0.0302 -0.49101,1.43021 -0.1931,0.83354 -0.54827,2.33025 -0.78927,3.32604 -0.24099,0.99578 -0.63511,2.62525 -0.87582,3.62102 -0.2407,0.99578 -0.68612,2.83239 -0.98982,4.08134 -1.62452,6.68084 -3.63477,16.58176 -3.59569,17.70948 0.0121,0.34761 1.14767,-2.97206 2.02715,-5.92582 z m -13.01494,-2.22139 c -1.03449,-6.98238 -1.87011,-14.39802 -2.33616,-20.73223 -0.0373,-0.50633 -0.12037,-1.61103 -0.18469,-2.45492 -0.0643,-0.84388 -0.15405,-2.18336 -0.19938,-2.9766 -0.0453,-0.79326 -0.13257,-1.44229 -0.19387,-1.44229 -0.0613,0 -0.0992,0.069 -0.0843,0.15344 0.0257,0.14511 -0.12049,2.603 -0.20984,3.52897 -0.0688,0.71269 -0.0565,7.61575 0.0153,8.66139 0.35625,5.1826 1.29669,10.75986 2.5238,14.96733 0.61759,2.1176 0.99036,3.27184 1.04047,3.22174 0.0298,-0.0299 -0.13727,-1.34693 -0.37134,-2.92683 z m 8.20769,-5.94125 c 0.0449,-1.41773 0.16085,-4.86997 0.25773,-7.67168 0.0969,-2.80168 0.20685,-6.00536 0.24438,-7.1193 0.0652,-1.93478 0.17595,-4.19687 0.42972,-8.77638 0.13114,-2.36646 0.32152,-4.95809 0.49404,-6.72519 0.30152,-3.0885 0.0991,-2.57498 -0.79484,2.01619 -1.71903,8.82897 -2.10996,18.47155 -1.1685,28.82233 0.1317,1.44796 0.2455,2.71839 0.2529,2.82318 0.0515,0.72946 0.21678,-1.22744 0.28457,-3.36915 z m -13.59709,-2.17876 c -0.34244,-1.36956 -1.76609,-9.87402 -2.21411,-13.22642 -0.26541,-1.98602 -0.38183,-3.0426 -0.62883,-5.70724 -0.29425,-3.17439 -0.34099,-7.73401 -0.11387,-11.10857 0.0905,-1.34516 -0.10194,-0.86357 -0.53967,1.35021 -0.646,3.26717 -0.79234,5.08481 -0.72482,9.00269 0.10654,6.18143 0.90056,10.20214 3.7304,18.88952 0.19207,0.58965 0.39663,1.07296 0.45458,1.07404 0.058,7.6e-4 0.0743,-0.12233 0.0363,-0.27423 z m -33.34764,75.22279 c 0.25789,-0.75069 0.6748,-1.53459 1.21292,-2.28062 0.94291,-1.30721 1.2857,-1.7078 1.40062,-1.63677 0.0774,0.0479 0.0907,0.019 0.0337,-0.0734 -0.11401,-0.18446 0.65031,-1.01696 0.8311,-0.90522 0.0719,0.0445 0.0834,0.0127 0.028,-0.077 -0.13436,-0.21741 2.67624,-3.01597 2.89937,-2.88692 0.0904,0.0523 0.12334,0.0498 0.0733,-0.005 -0.12449,-0.13741 0.14891,-0.44653 0.30799,-0.34821 0.0705,0.0436 0.0915,0.0203 0.0469,-0.052 -0.16036,-0.25948 4.07997,-3.44267 4.3575,-3.27115 0.0824,0.0509 0.10935,0.0347 0.064,-0.0386 -0.0984,-0.15928 0.33,-0.44204 2.9265,-1.93142 2.28441,-1.31035 2.52491,-1.47629 1.96239,-1.35402 -1.11299,0.24191 -3.58573,1.01559 -4.77421,1.4938 -2.4588,0.98929 -5.58546,2.81343 -6.96881,4.06566 -0.18016,0.16309 -0.38867,0.25876 -0.46334,0.21262 -0.0747,-0.0463 -0.12058,-0.034 -0.10203,0.0272 0.0186,0.0611 -0.29769,0.40762 -0.70275,0.77007 -0.98294,0.87956 -2.45525,2.35611 -3.17863,3.18775 -0.55017,0.63252 -0.58295,0.65189 -0.51963,0.30688 0.0372,-0.20253 0.10312,-1.00345 0.14655,-1.77983 l 0.079,-1.41158 0.86802,-0.88383 c 0.47741,-0.48609 0.92209,-0.8504 0.98817,-0.80957 0.0661,0.0409 0.0863,0.0197 0.045,-0.0473 -0.0413,-0.0668 0.30889,-0.43743 0.77824,-0.82355 5.45923,-4.49115 13.76722,-6.89733 21.90569,-6.34438 1.21519,0.0826 2.40078,0.18936 2.63465,0.23737 0.39262,0.0805 0.34557,0.10396 -0.61373,0.30557 -4.41549,0.92781 -8.76065,2.73579 -12.88441,5.36106 -1.53096,0.9746 -3.82927,2.61314 -4.43918,3.16476 -0.19518,0.17654 -0.38888,0.2584 -0.47926,0.20254 -0.0877,-0.0542 -0.12043,-0.0431 -0.0776,0.0262 0.10453,0.16914 -1.35297,1.42615 -1.5281,1.31789 -0.083,-0.0513 -0.10857,-0.034 -0.0618,0.0417 0.044,0.0711 -0.12701,0.30807 -0.37996,0.5265 -0.25294,0.21844 -1.393,1.28729 -2.53346,2.37524 -1.14047,1.08795 -2.12501,1.96291 -2.18788,1.94436 -0.0629,-0.0185 -0.0854,0.0131 -0.05,0.0703 0.0354,0.0573 -0.37638,0.54195 -0.91505,1.07708 l -0.97938,0.97297 z m 0.15207,-13.23576 c 0.11214,-1.30173 0.16215,-1.49199 0.36002,-1.36972 0.086,0.0532 0.10953,0.0346 0.0593,-0.0465 -0.10655,-0.17241 1.36628,-1.40871 1.54594,-1.29769 0.0748,0.0462 0.0981,0.0257 0.0531,-0.047 -0.0999,-0.16171 1.81093,-1.40742 3.29479,-2.14791 2.45415,-1.22468 5.82946,-2.28667 8.71501,-2.74206 0.92847,-0.14652 2.05952,-0.21265 3.62103,-0.21169 2.43969,9.5e-4 3.79556,0.16736 5.89183,0.72078 1.24666,0.32912 3.52861,1.13133 3.61479,1.27078 0.0286,0.0463 -0.33179,0.0432 -0.80096,-0.008 -3.3985,-0.36313 -7.81186,-0.35397 -10.57641,0.022 -4.70224,0.63938 -9.03709,2.21903 -12.52335,4.56358 -0.38932,0.26182 -0.76353,0.44162 -0.83158,0.39956 -0.0681,-0.0421 -0.10856,-0.0261 -0.09,0.0357 0.0263,0.0877 -2.26751,1.99273 -2.39938,1.99273 -0.0176,0 0.0121,-0.51092 0.0659,-1.1354 z m 0.46467,-4.44585 c 0,-0.0992 0.0808,-0.74824 0.17967,-1.44228 0.0988,-0.69401 0.32298,-2.28373 0.49814,-3.53267 0.59162,-4.21856 2.18716,-13.09052 2.58998,-14.40149 0.0528,-0.17171 0.17674,-0.0398 0.52907,0.5632 0.25309,0.43311 0.63764,1.04541 0.85456,1.36069 0.21692,0.31528 0.35527,0.63655 0.30745,0.71392 -0.0503,0.0814 -0.033,0.1073 0.0411,0.0615 0.14806,-0.0915 0.83039,0.74899 0.83064,1.02319 8e-5,0.10121 0.0587,0.1841 0.13019,0.1841 0.20775,0 1.53217,1.54897 1.44501,1.69001 -0.0434,0.0703 -0.0232,0.0933 0.0449,0.0513 0.13995,-0.0865 0.68693,0.44113 0.59029,0.5694 -0.0344,0.0456 -0.0262,0.0559 0.0183,0.0226 0.12945,-0.0967 0.41539,0.19811 0.32853,0.33867 -0.0435,0.0703 -0.0252,0.0947 0.0404,0.054 0.0657,-0.0406 0.47162,0.23335 0.9021,0.60878 2.53742,2.21297 4.96001,3.85257 8.84128,5.9838 l 2.03047,1.11494 -3.13519,0.005 c -2.71191,0.004 -3.33405,0.0419 -4.60814,0.27953 -3.80783,0.71007 -7.67977,2.19159 -11.27035,4.31239 -0.57728,0.34098 -1.08084,0.61995 -1.11902,0.61995 -0.0382,0 -0.0694,-0.0812 -0.0694,-0.18041 z"
       style="fill:#000000;fill-opacity:1;stroke-width:0.126055"
       id="path1247" /></g></svg>
