<?xml version="1.0" encoding="UTF-8" standalone="no"?>
<!-- Created with Inkscape (http://www.inkscape.org/) -->

<svg
   version="1.1"
   id="svg1"
   width="124.18794"
   height="156.7715"
   viewBox="0 0 124.18794 156.7715"
   sodipodi:docname="womanav17.svg"
   inkscape:version="1.2.2 (732a01da63, 2022-12-09)"
   xml:space="preserve"
   xmlns:inkscape="http://www.inkscape.org/namespaces/inkscape"
   xmlns:sodipodi="http://sodipodi.sourceforge.net/DTD/sodipodi-0.dtd"
   xmlns="http://www.w3.org/2000/svg"
   xmlns:svg="http://www.w3.org/2000/svg"><defs
     id="defs1" /><sodipodi:namedview
     id="namedview1"
     pagecolor="#ffffff"
     bordercolor="#cccccc"
     borderopacity="1"
     inkscape:showpageshadow="0"
     inkscape:pageopacity="1"
     inkscape:pagecheckerboard="0"
     inkscape:deskcolor="#d1d1d1"
     showgrid="false"
     inkscape:zoom="0.35355339"
     inkscape:cx="349.31075"
     inkscape:cy="93.338095"
     inkscape:window-width="1366"
     inkscape:window-height="705"
     inkscape:window-x="-8"
     inkscape:window-y="32"
     inkscape:window-maximized="1"
     inkscape:current-layer="g1" /><g
     inkscape:groupmode="layer"
     inkscape:label="Image"
     id="g1"
     transform="translate(793.84127,438.64219)"><g
       id="g3696"
       transform="translate(-818.48529,-66.261226)"><path
         style="fill:#d0d0d0;fill-opacity:1;stroke-width:0.16"
         d="m 40.851378,-237.26086 c 0,-0.0332 0.126,-0.15922 0.28,-0.28 0.25377,-0.19902 0.259429,-0.19336 0.06041,0.0604 -0.20902,0.26652 -0.34041,0.35128 -0.34041,0.21959 z m 63.010002,-3.72889 c 0.1155,-0.0462 0.2535,-0.0405 0.30667,0.0126 0.0532,0.0532 -0.0413,0.091 -0.21,0.084 -0.1864,-0.008 -0.22431,-0.0456 -0.0967,-0.0967 z m 5.75,0.003 c 0.11,-0.0444 0.29,-0.0444 0.4,0 0.11,0.0444 0.02,0.0807 -0.2,0.0807 -0.22,0 -0.31,-0.0363 -0.2,-0.0807 z m -54.360002,-8.91444 c 0,-0.0332 0.126,-0.15922 0.28,-0.28 0.25377,-0.19902 0.259429,-0.19336 0.06041,0.0604 -0.20902,0.26652 -0.34041,0.35128 -0.34041,0.21959 z m 56.080002,-24.89959 c 0.15928,-0.176 0.32559,-0.32 0.36959,-0.32 0.044,0 -0.0503,0.144 -0.20959,0.32 -0.15928,0.176 -0.3256,0.32 -0.3696,0.32 -0.044,0 0.0503,-0.144 0.2096,-0.32 z m -49.34737,-0.57333 c 0.0077,-0.18639 0.04559,-0.22431 0.09667,-0.0967 0.04622,0.1155 0.04054,0.2535 -0.01262,0.30667 -0.05317,0.0532 -0.09098,-0.0413 -0.08404,-0.21 z m 1.787717,-4.30667 c 0.0018,-0.352 0.03454,-0.47716 0.07281,-0.27813 0.03827,0.19902 0.03682,0.48702 -0.0032,0.64 -0.04005,0.15297 -0.07136,-0.01 -0.06958,-0.36187 z m 49.239653,-0.14041 c 0,-0.0332 0.126,-0.15922 0.28,-0.28 0.25377,-0.19902 0.25943,-0.19336 0.0604,0.0604 -0.20902,0.26652 -0.34041,0.35128 -0.34041,0.21959 z m -64.190002,-10.76889 c 0.115499,-0.0462 0.253499,-0.0405 0.306667,0.0126 0.05317,0.0532 -0.04133,0.091 -0.21,0.084 -0.186392,-0.008 -0.224304,-0.0456 -0.09667,-0.0967 z m 30.59,-14.44126 c 0,-0.0828 0.07118,-0.19454 0.158168,-0.24831 0.0907,-0.0561 0.11752,0.008 0.06288,0.15056 -0.106367,0.27719 -0.22105,0.3279 -0.22105,0.0978 z m -12.439651,-9.68944 c 0.0018,-0.352 0.03454,-0.47716 0.07281,-0.27813 0.03827,0.19902 0.03682,0.48702 -0.0032,0.64 -0.04005,0.15297 -0.07136,-0.01 -0.06958,-0.36187 z m -0.163229,-3.6 c 0,-0.308 0.03293,-0.434 0.07317,-0.28 0.04024,0.154 0.04024,0.406 0,0.56 -0.04024,0.154 -0.07317,0.028 -0.07317,-0.28 z m -0.184488,-3.13333 c 0.0077,-0.18639 0.04559,-0.22431 0.09667,-0.0967 0.04622,0.1155 0.04054,0.2535 -0.01262,0.30667 -0.05317,0.0532 -0.09098,-0.0413 -0.08404,-0.21 z m 15.68,-2.08 c 0.0077,-0.18639 0.04559,-0.22431 0.09667,-0.0967 0.04622,0.1155 0.04054,0.2535 -0.01262,0.30667 -0.05317,0.0532 -0.09098,-0.0413 -0.08404,-0.21 z m 1.76,-4.96 c 0.0077,-0.18639 0.04559,-0.22431 0.09667,-0.0967 0.04622,0.1155 0.04054,0.2535 -0.01262,0.30667 -0.05317,0.0532 -0.09098,-0.0413 -0.08404,-0.21 z m 0.01263,-7.26667 c 0,-0.22 0.03632,-0.31 0.0807,-0.2 0.04439,0.11 0.04439,0.29 0,0.4 -0.04439,0.11 -0.0807,0.02 -0.0807,-0.2 z m 42.27954,-16.2 -0.3048,-0.36 0.36,0.3048 c 0.33831,0.28643 0.43284,0.4152 0.3048,0.4152 -0.0304,0 -0.19237,-0.162 -0.36,-0.36 z"
         id="path3712" /><path
         style="fill:#b9b9b9;fill-opacity:1;stroke-width:0.16"
         d="m 138.78401,-217.77378 c 0.008,-0.18639 0.0456,-0.22431 0.0967,-0.0967 0.0462,0.1155 0.0405,0.2535 -0.0126,0.30667 -0.0532,0.0532 -0.091,-0.0413 -0.084,-0.21 z m -3.29263,-7.42667 c -0.0544,-0.088 -0.0226,-0.16 0.0705,-0.16 0.0932,0 0.16945,0.072 0.16945,0.16 0,0.088 -0.0317,0.16 -0.0706,0.16 -0.0388,0 -0.11505,-0.072 -0.16944,-0.16 z m -32.59,-2.5093 c 0.1155,-0.0462 0.2535,-0.0405 0.30667,0.0126 0.0532,0.0532 -0.0413,0.091 -0.21,0.084 -0.1864,-0.008 -0.22431,-0.0456 -0.0967,-0.0967 z m 12.64,0 c 0.1155,-0.0462 0.2535,-0.0405 0.30667,0.0126 0.0532,0.0532 -0.0413,0.091 -0.21,0.084 -0.1864,-0.008 -0.22431,-0.0456 -0.0967,-0.0967 z m -10.57,-0.15666 c 0.11,-0.0444 0.29,-0.0444 0.4,0 0.11,0.0444 0.02,0.0807 -0.2,0.0807 -0.22,0 -0.31,-0.0363 -0.2,-0.0807 z m 8.65,-0.003 c 0.1155,-0.0462 0.2535,-0.0405 0.30667,0.0126 0.0532,0.0532 -0.0413,0.091 -0.21,0.084 -0.1864,-0.008 -0.22431,-0.0456 -0.0967,-0.0967 z m -5.13,-0.15667 c 0.11,-0.0444 0.29,-0.0444 0.4,0 0.11,0.0444 0.02,0.0807 -0.2,0.0807 -0.22,0 -0.31,-0.0363 -0.2,-0.0807 z m 1.0422,-0.009 c 0.24321,-0.0368 0.60321,-0.0358 0.8,0.002 0.19679,0.038 -0.002,0.0681 -0.4422,0.0669 -0.44,-0.001 -0.60101,-0.0323 -0.3578,-0.0691 z m -3.2722,-15.67449 c 0.1155,-0.0462 0.2535,-0.0405 0.30667,0.0126 0.0532,0.0532 -0.0413,0.091 -0.21,0.084 -0.1864,-0.008 -0.22431,-0.0456 -0.0967,-0.0967 z m -46.98474,-21.9707 c 0,-0.22 0.03632,-0.31 0.0807,-0.2 0.04438,0.11 0.04438,0.29 0,0.4 -0.04439,0.11 -0.0807,0.02 -0.0807,-0.2 z m 51.33474,-8.4 c 0.20668,-0.22 0.41178,-0.4 0.45578,-0.4 0.044,0 -0.0891,0.18 -0.29578,0.4 -0.20668,0.22 -0.41178,0.4 -0.45578,0.4 -0.044,0 0.0891,-0.18 0.29578,-0.4 z m 26.8,-3.76 c 0.34372,-0.352 0.66094,-0.64 0.70494,-0.64 0.044,0 -0.20122,0.288 -0.54494,0.64 -0.34372,0.352 -0.66095,0.64 -0.70495,0.64 -0.044,0 0.20123,-0.288 0.54495,-0.64 z m -83.470002,-13.2293 c 0.115499,-0.0462 0.253499,-0.0405 0.306667,0.0126 0.05317,0.0532 -0.04133,0.091 -0.21,0.084 -0.186392,-0.008 -0.224304,-0.0456 -0.09667,-0.0967 z M 67.58401,-321.1336 c 0.0077,-0.18639 0.04559,-0.22431 0.09667,-0.0967 0.04622,0.1155 0.04054,0.2535 -0.01262,0.30667 -0.05317,0.0532 -0.09098,-0.0413 -0.08404,-0.21 z m 15.68,-12.48 c 0.0077,-0.18639 0.04559,-0.22431 0.09667,-0.0967 0.04622,0.1155 0.04054,0.2535 -0.01262,0.30667 -0.05317,0.0532 -0.09098,-0.0413 -0.08404,-0.21 z m -38.08,-4.8 c 0.0077,-0.18639 0.04559,-0.22431 0.09667,-0.0967 0.04622,0.1155 0.04054,0.2535 -0.01262,0.30667 -0.05317,0.0532 -0.09098,-0.0413 -0.08404,-0.21 z m 38.41263,-0.70667 c 0,-0.22 0.03632,-0.31 0.0807,-0.2 0.04439,0.11 0.04439,0.29 0,0.4 -0.04439,0.11 -0.0807,0.02 -0.0807,-0.2 z m 43.95433,-11.48 c -0.19902,-0.25377 -0.19336,-0.25943 0.0604,-0.0604 0.154,0.12078 0.28,0.24678 0.28,0.28 0,0.13169 -0.13139,0.0469 -0.34041,-0.21959 z m -80.28696,-8.77333 c 0.0077,-0.18639 0.04559,-0.22431 0.09667,-0.0967 0.04622,0.1155 0.04054,0.2535 -0.01262,0.30667 -0.05317,0.0532 -0.09098,-0.0413 -0.08404,-0.21 z m -0.16,-1.6 c 0.0077,-0.18639 0.04559,-0.22431 0.09667,-0.0967 0.04622,0.1155 0.04054,0.2535 -0.01262,0.30667 -0.05317,0.0532 -0.09098,-0.0413 -0.08404,-0.21 z"
         id="path3710" /><path
         style="fill:#a3a3a3;fill-opacity:1;stroke-width:0.16"
         d="m 137.07618,-219.16045 -0.3048,-0.36 0.36,0.3048 c 0.33831,0.28643 0.43284,0.4152 0.3048,0.4152 -0.0304,0 -0.19237,-0.162 -0.36,-0.36 z m -106.304802,-4.02041 c 0,-0.0332 0.126,-0.15922 0.28,-0.28 0.253769,-0.19902 0.259428,-0.19336 0.06041,0.0604 -0.209019,0.26652 -0.340409,0.35128 -0.340409,0.21959 z m 10.69,-5.64889 c 0.115499,-0.0462 0.253499,-0.0405 0.306667,0.0126 0.05317,0.0532 -0.04133,0.091 -0.21,0.084 -0.186392,-0.008 -0.224304,-0.0456 -0.09667,-0.0967 z m -0.33,-1.44644 c 0.286,-0.0355 0.754,-0.0355 1.04,0 0.286,0.0355 0.052,0.0645 -0.52,0.0645 -0.572,0 -0.806,-0.029 -0.52,-0.0645 z m 89.704802,-1.36426 -0.3048,-0.36 0.36,0.3048 c 0.33831,0.28643 0.43284,0.4152 0.3048,0.4152 -0.0304,0 -0.19237,-0.162 -0.36,-0.36 z m -1.36521,-1.36 c -0.19902,-0.25377 -0.19336,-0.25943 0.0604,-0.0604 0.154,0.12078 0.28,0.24678 0.28,0.28 0,0.13169 -0.13139,0.0469 -0.34041,-0.21959 z m 0.64,-2.24 c -0.19902,-0.25377 -0.19336,-0.25943 0.0604,-0.0604 0.154,0.12078 0.28,0.24678 0.28,0.28 0,0.13169 -0.13139,0.0469 -0.34041,-0.21959 z m -69.979592,-32.36 c 0.159278,-0.176 0.325597,-0.32 0.369597,-0.32 0.044,0 -0.05032,0.144 -0.209597,0.32 -0.159278,0.176 -0.325597,0.32 -0.369597,0.32 -0.044,0 0.05032,-0.144 0.209597,-0.32 z m 58.363042,-1.23088 c 0.15568,-0.0406 0.37168,-0.0379 0.48,0.006 0.10833,0.0438 -0.019,0.077 -0.28304,0.0738 -0.264,-0.003 -0.35263,-0.0391 -0.19696,-0.0797 z m -11.08973,-5.20912 c 0.39232,-0.418 0.73432,-0.76 0.76,-0.76 0.12014,0 -0.007,0.14365 -0.71331,0.80669 l -0.76,0.71331 z m 2.72669,-2.76 c 0.29852,-0.308 0.57877,-0.56 0.62277,-0.56 0.044,0 -0.16425,0.252 -0.46277,0.56 -0.29853,0.308 -0.57877,0.56 -0.62277,0.56 -0.044,0 0.16424,-0.252 0.46277,-0.56 z m 38.57263,-23.85333 c 0.008,-0.18639 0.0456,-0.22431 0.0967,-0.0967 0.0462,0.1155 0.0405,0.2535 -0.0126,0.30667 -0.0532,0.0532 -0.091,-0.0413 -0.084,-0.21 z m 0,-5.44 c 0.008,-0.18639 0.0456,-0.22431 0.0967,-0.0967 0.0462,0.1155 0.0405,0.2535 -0.0126,0.30667 -0.0532,0.0532 -0.091,-0.0413 -0.084,-0.21 z m -80.44013,-2.06667 c 6.4e-4,-0.616 0.02963,-0.84839 0.06427,-0.51643 0.03463,0.33196 0.03405,0.83596 -0.0013,1.12 -0.03535,0.28404 -0.06368,0.0124 -0.06297,-0.60357 z m -31.112911,-0.84 c -0.199019,-0.25377 -0.19336,-0.25943 0.06041,-0.0604 0.154,0.12078 0.28,0.24678 0.28,0.28 0,0.13169 -0.13139,0.0469 -0.340409,-0.21959 z m 31.118089,-1.96 c 0,-0.836 0.02697,-1.178 0.05993,-0.76 0.03296,0.418 0.03296,1.102 0,1.52 -0.03296,0.418 -0.05993,0.076 -0.05993,-0.76 z m -1.325048,-2.33333 c 0.0077,-0.18639 0.04559,-0.22431 0.09667,-0.0967 0.04622,0.1155 0.04054,0.2535 -0.01262,0.30667 -0.05317,0.0532 -0.09098,-0.0413 -0.08404,-0.21 z m 1.13263,-2.14667 c 0,-0.22 0.03632,-0.31 0.0807,-0.2 0.04439,0.11 0.04439,0.29 0,0.4 -0.04439,0.11 -0.0807,0.02 -0.0807,-0.2 z m -0.16,-2.24 c 0,-0.22 0.03632,-0.31 0.0807,-0.2 0.04439,0.11 0.04439,0.29 0,0.4 -0.04439,0.11 -0.0807,0.02 -0.0807,-0.2 z m 16.14737,-19.45333 c 0.0077,-0.18639 0.04559,-0.22431 0.09667,-0.0967 0.04622,0.1155 0.04054,0.2535 -0.01262,0.30667 -0.05317,0.0532 -0.09098,-0.0413 -0.08404,-0.21 z"
         id="path3708" /><path
         style="fill:#8c8c8c;fill-opacity:1;stroke-width:0.16"
         d="m 38.270969,-231.24045 c -0.199019,-0.25377 -0.19336,-0.25943 0.06041,-0.0604 0.26652,0.20902 0.351277,0.34041 0.219591,0.34041 -0.03323,0 -0.159225,-0.126 -0.28,-0.28 z m 90.645211,-5.2 -0.3048,-0.36 0.36,0.3048 c 0.198,0.16764 0.36,0.32964 0.36,0.36 0,0.12804 -0.12877,0.0335 -0.4152,-0.3048 z m -24.18176,-4.55088 c 0.15568,-0.0406 0.37168,-0.0379 0.48,0.006 0.10833,0.0438 -0.019,0.077 -0.28304,0.0738 -0.264,-0.003 -0.35263,-0.0391 -0.19696,-0.0797 z m 3.75696,0.005 c 0.11,-0.0444 0.29,-0.0444 0.4,0 0.11,0.0444 0.02,0.0807 -0.2,0.0807 -0.22,0 -0.31,-0.0363 -0.2,-0.0807 z m -3.72,-30.61403 c 0.15928,-0.176 0.32559,-0.32 0.36959,-0.32 0.044,0 -0.0503,0.144 -0.20959,0.32 -0.15928,0.176 -0.3256,0.32 -0.3696,0.32 -0.044,0 0.0503,-0.144 0.2096,-0.32 z m 4.32,-0.96 c 0.15928,-0.176 0.32559,-0.32 0.36959,-0.32 0.044,0 -0.0503,0.144 -0.20959,0.32 -0.15928,0.176 -0.3256,0.32 -0.3696,0.32 -0.044,0 0.0503,-0.144 0.2096,-0.32 z m -64.430002,-18.0293 c 0.115499,-0.0462 0.253499,-0.0405 0.306667,0.0126 0.05317,0.0532 -0.04133,0.091 -0.21,0.084 -0.186392,-0.008 -0.224304,-0.0456 -0.09667,-0.0967 z m 3.36,0 c 0.115499,-0.0462 0.253499,-0.0405 0.306667,0.0126 0.05317,0.0532 -0.04133,0.091 -0.21,0.084 -0.186392,-0.008 -0.224304,-0.0456 -0.09667,-0.0967 z m 1.92,-0.16 c 0.115499,-0.0462 0.253499,-0.0405 0.306667,0.0126 0.05317,0.0532 -0.04133,0.091 -0.21,0.084 -0.186392,-0.008 -0.224304,-0.0456 -0.09667,-0.0967 z m 16.86712,-26.4507 c 0,-0.308 0.03293,-0.434 0.07317,-0.28 0.04024,0.154 0.04024,0.406 0,0.56 -0.04024,0.154 -0.07317,0.028 -0.07317,-0.28 z m -0.184488,-2.97333 c 0.0077,-0.18639 0.04559,-0.22431 0.09667,-0.0967 0.04622,0.1155 0.04054,0.2535 -0.01262,0.30667 -0.05317,0.0532 -0.09098,-0.0413 -0.08404,-0.21 z m -0.16,-2.88 c 0.0077,-0.18639 0.04559,-0.22431 0.09667,-0.0967 0.04622,0.1155 0.04054,0.2535 -0.01262,0.30667 -0.05317,0.0532 -0.09098,-0.0413 -0.08404,-0.21 z m 17.61263,-4.54667 c 0,-0.22 0.03632,-0.31 0.0807,-0.2 0.04439,0.11 0.04439,0.29 0,0.4 -0.04439,0.11 -0.0807,0.02 -0.0807,-0.2 z m 0.178316,-4.48 c 0,-0.396 0.0312,-0.558 0.06934,-0.36 0.03814,0.198 0.03814,0.522 0,0.72 -0.03814,0.198 -0.06934,0.036 -0.06934,-0.36 z m -0.683578,-8.64944 c 0,-0.2692 0.06234,-0.45092 0.138542,-0.40382 0.128892,0.0797 0.05858,0.89326 -0.0772,0.89326 -0.03374,0 -0.06135,-0.22025 -0.06135,-0.48944 z m 32.250282,-3.87746 c 0.0601,-0.1578 0.14955,-0.2466 0.19882,-0.19733 0.0493,0.0493 10e-5,0.17836 -0.10925,0.2869 -0.15802,0.15684 -0.17639,0.13846 -0.0896,-0.0896 z m 9.89452,-7.9931 -0.3048,-0.36 0.36,0.3048 c 0.198,0.16764 0.36,0.32964 0.36,0.36 0,0.12804 -0.12877,0.0335 -0.4152,-0.3048 z"
         id="path3706" /><path
         style="fill:#767676;fill-opacity:1;stroke-width:0.16"
         d="m 138.62401,-219.69378 c 0.008,-0.18639 0.0456,-0.22431 0.0967,-0.0967 0.0462,0.1155 0.0405,0.2535 -0.0126,0.30667 -0.0532,0.0532 -0.091,-0.0413 -0.084,-0.21 z m -36.20263,-8.01597 c 0.1155,-0.0462 0.2535,-0.0405 0.30667,0.0126 0.0532,0.0532 -0.0413,0.091 -0.21,0.084 -0.1864,-0.008 -0.22431,-0.0456 -0.0967,-0.0967 z m 1.76,-0.16 c 0.1155,-0.0462 0.2535,-0.0405 0.30667,0.0126 0.0532,0.0532 -0.0413,0.091 -0.21,0.084 -0.1864,-0.008 -0.22431,-0.0456 -0.0967,-0.0967 z m 7.27,-0.16099 c 0.154,-0.0402 0.406,-0.0402 0.56,0 0.154,0.0402 0.028,0.0732 -0.28,0.0732 -0.308,0 -0.434,-0.0329 -0.28,-0.0732 z m -73.614739,-4.52971 c 0,-0.22 0.03632,-0.31 0.0807,-0.2 0.04439,0.11 0.04439,0.29 0,0.4 -0.04439,0.11 -0.0807,0.02 -0.0807,-0.2 z m 1.974737,-3.68 c 0.159278,-0.176 0.325596,-0.32 0.369596,-0.32 0.044,0 -0.05032,0.144 -0.209596,0.32 -0.159278,0.176 -0.325596,0.32 -0.369596,0.32 -0.044,0 0.05032,-0.144 0.209596,-0.32 z m 65.810002,-7.4693 c 0.1155,-0.0462 0.2535,-0.0405 0.30667,0.0126 0.0532,0.0532 -0.0413,0.091 -0.21,0.084 -0.1864,-0.008 -0.22431,-0.0456 -0.0967,-0.0967 z m 2.79,-0.16726 c 0.33,-0.0345 0.87,-0.0345 1.2,0 0.33,0.0345 0.06,0.0628 -0.6,0.0628 -0.66,0 -0.93,-0.0282 -0.6,-0.0628 z m -3.24,-28.10385 c 0,-0.0332 0.126,-0.15922 0.28,-0.28 0.25377,-0.19902 0.25943,-0.19336 0.0604,0.0604 -0.20902,0.26652 -0.34041,0.35128 -0.34041,0.21959 z m -49.716957,-19.25047 c 0.155675,-0.0406 0.371675,-0.0379 0.48,0.006 0.108325,0.0438 -0.01905,0.077 -0.283045,0.0738 -0.264,-0.003 -0.35263,-0.0391 -0.196955,-0.0797 z m -16.383454,-1.28912 c -0.199019,-0.25377 -0.19336,-0.25943 0.06041,-0.0604 0.154,0.12078 0.28,0.24678 0.28,0.28 0,0.13169 -0.13139,0.0469 -0.340409,-0.21959 z m 27.073041,-34.53333 c 0.0077,-0.18639 0.04559,-0.22431 0.09667,-0.0967 0.04622,0.1155 0.04054,0.2535 -0.01262,0.30667 -0.05317,0.0532 -0.09098,-0.0413 -0.08404,-0.21 z m -24.012632,-1.56708 c 0,-0.0332 0.126,-0.15922 0.28,-0.28 0.25377,-0.19902 0.259429,-0.19336 0.06041,0.0604 -0.20902,0.26652 -0.34041,0.35128 -0.34041,0.21959 z m 41.132632,-5.63292 c 0.0077,-0.18639 0.04559,-0.22431 0.09667,-0.0967 0.04622,0.1155 0.04054,0.2535 -0.01262,0.30667 -0.05317,0.0532 -0.09098,-0.0413 -0.08404,-0.21 z m 0.17856,-2.70667 c 0.0033,-0.264 0.03912,-0.35263 0.07969,-0.19696 0.04057,0.15568 0.0379,0.37168 -0.0059,0.48 -0.04383,0.10833 -0.07702,-0.019 -0.07376,-0.28304 z m -38.219981,-2.8 c 0,-0.572 0.02904,-0.806 0.06453,-0.52 0.03549,0.286 0.03549,0.754 0,1.04 -0.03549,0.286 -0.06453,0.052 -0.06453,-0.52 z m 1.912367,-22.56 c 0,-0.396 0.0312,-0.558 0.06934,-0.36 0.03814,0.198 0.03814,0.522 0,0.72 -0.03814,0.198 -0.06934,0.036 -0.06934,-0.36 z m -0.01832,-2.08 c 0,-0.22 0.03632,-0.31 0.0807,-0.2 0.04439,0.11 0.04439,0.29 0,0.4 -0.04439,0.11 -0.0807,0.02 -0.0807,-0.2 z"
         id="path3704" /><path
         style="fill:#606060;fill-opacity:1;stroke-width:0.16"
         d="m 30.741378,-216.02975 c 0.1155,-0.0462 0.2535,-0.0405 0.306667,0.0126 0.05317,0.0532 -0.04133,0.091 -0.21,0.084 -0.186391,-0.008 -0.224304,-0.0456 -0.09667,-0.0967 z m 4.16,0 c 0.1155,-0.0462 0.2535,-0.0405 0.306667,0.0126 0.05317,0.0532 -0.04133,0.091 -0.21,0.084 -0.186391,-0.008 -0.224304,-0.0456 -0.09667,-0.0967 z m 72.072202,-12.00551 c 0.24321,-0.0368 0.60321,-0.0358 0.8,0.002 0.19679,0.038 -0.002,0.0681 -0.4422,0.0669 -0.44,-0.001 -0.60101,-0.0323 -0.3578,-0.0691 z m -53.962202,-19.4656 c 0,-0.0332 0.126,-0.15922 0.28,-0.28 0.25377,-0.19902 0.259429,-0.19336 0.06041,0.0604 -0.20902,0.26652 -0.34041,0.35128 -0.34041,0.21959 z m 1.68,-1.69959 c 0.159278,-0.176 0.325597,-0.32 0.369597,-0.32 0.044,0 -0.05032,0.144 -0.209597,0.32 -0.159278,0.176 -0.325597,0.32 -0.369597,0.32 -0.044,0 0.05032,-0.144 0.209597,-0.32 z m 6.13959,-40.6 c -0.199019,-0.25377 -0.19336,-0.25943 0.06041,-0.0604 0.26652,0.20902 0.351277,0.34041 0.21959,0.34041 -0.03322,0 -0.159224,-0.126 -0.28,-0.28 z m -21.86247,-11.56 c 0,-0.308 0.03293,-0.434 0.07317,-0.28 0.04024,0.154 0.04024,0.406 0,0.56 -0.04024,0.154 -0.07317,0.028 -0.07317,-0.28 z m 109.748142,0 c 0,-0.22 0.0363,-0.31 0.0807,-0.2 0.0444,0.11 0.0444,0.29 0,0.4 -0.0444,0.11 -0.0807,0.02 -0.0807,-0.2 z m -80.65263,-3.29333 c 0.0077,-0.18639 0.04559,-0.22431 0.09667,-0.0967 0.04622,0.1155 0.04054,0.2535 -0.01262,0.30667 -0.05317,0.0532 -0.09098,-0.0413 -0.08404,-0.21 z m 80.65263,-0.70667 c 0,-0.22 0.0363,-0.31 0.0807,-0.2 0.0444,0.11 0.0444,0.29 0,0.4 -0.0444,0.11 -0.0807,0.02 -0.0807,-0.2 z m -80.49263,-1.21333 c 0.0077,-0.18639 0.04559,-0.22431 0.09667,-0.0967 0.04622,0.1155 0.04054,0.2535 -0.01262,0.30667 -0.05317,0.0532 -0.09098,-0.0413 -0.08404,-0.21 z m 0.02772,-6.70667 c 0.0018,-0.352 0.03454,-0.47716 0.07281,-0.27813 0.03827,0.19902 0.03682,0.48702 -0.0032,0.64 -0.04005,0.15297 -0.07136,-0.01 -0.06958,-0.36187 z m -1.455087,-2.64 c 0,-0.22 0.03632,-0.31 0.0807,-0.2 0.04439,0.11 0.04439,0.29 0,0.4 -0.04439,0.11 -0.0807,0.02 -0.0807,-0.2 z m 1.26737,-0.25333 c 0.0077,-0.18639 0.04559,-0.22431 0.09667,-0.0967 0.04622,0.1155 0.04054,0.2535 -0.01262,0.30667 -0.05317,0.0532 -0.09098,-0.0413 -0.08404,-0.21 z m 15.04,-16.16 c 0.0077,-0.18639 0.04559,-0.22431 0.09667,-0.0967 0.04622,0.1155 0.04054,0.2535 -0.01262,0.30667 -0.05317,0.0532 -0.09098,-0.0413 -0.08404,-0.21 z m -37.6,-2.24 c 0.0077,-0.18639 0.04559,-0.22431 0.09667,-0.0967 0.04622,0.1155 0.04054,0.2535 -0.01262,0.30667 -0.05317,0.0532 -0.09098,-0.0413 -0.08404,-0.21 z m 38.4,-5.12 c 0.0077,-0.18639 0.04559,-0.22431 0.09667,-0.0967 0.04622,0.1155 0.04054,0.2535 -0.01262,0.30667 -0.05317,0.0532 -0.09098,-0.0413 -0.08404,-0.21 z m 40.938757,-13.78667 -0.55139,-0.6 0.6,0.55139 c 0.55847,0.51321 0.67356,0.64861 0.55139,0.64861 -0.0267,0 -0.29674,-0.27 -0.6,-0.6 z m -2.5635,-2.56 -0.38789,-0.44 0.44,0.38789 c 0.242,0.21334 0.44,0.41134 0.44,0.44 0,0.12548 -0.12957,0.0234 -0.49211,-0.38789 z m -46.257889,-15.9893 c 0.115499,-0.0462 0.253501,-0.0405 0.306667,0.0126 0.05317,0.0532 -0.04133,0.091 -0.21,0.084 -0.186392,-0.008 -0.224304,-0.0456 -0.09667,-0.0967 z m 3.91,-0.32099 c 0.154,-0.0403 0.406,-0.0403 0.56,0 0.154,0.0402 0.028,0.0732 -0.28,0.0732 -0.308,0 -0.434,-0.0329 -0.28,-0.0732 z m 6.083045,-5.9e-4 c 0.155675,-0.0406 0.371675,-0.0379 0.48,0.006 0.108325,0.0438 -0.01904,0.077 -0.283045,0.0738 -0.264,-0.003 -0.35263,-0.0391 -0.196955,-0.0797 z"
         id="path3702" /><path
         style="fill:#494949;fill-opacity:1;stroke-width:0.16"
         d="m 24.691378,-217.74086 c 0,-0.0332 0.126,-0.15922 0.28,-0.28 0.253769,-0.19902 0.259428,-0.19336 0.06041,0.0604 -0.209019,0.26652 -0.340409,0.35128 -0.340409,0.21959 z m 113.932632,-1.31292 c 0.008,-0.18639 0.0456,-0.22431 0.0967,-0.0967 0.0462,0.1155 0.0405,0.2535 -0.0126,0.30667 -0.0532,0.0532 -0.091,-0.0413 -0.084,-0.21 z m -109.772632,-2.36708 c 0,-0.0332 0.126,-0.15922 0.28,-0.28 0.253769,-0.19902 0.259428,-0.19336 0.06041,0.0604 -0.209019,0.26652 -0.340409,0.35128 -0.340409,0.21959 z m 2.4,-2.08 c 0,-0.0332 0.126,-0.15922 0.28,-0.28 0.253769,-0.19902 0.259428,-0.19336 0.06041,0.0604 -0.209019,0.26652 -0.340409,0.35128 -0.340409,0.21959 z m 98.379592,-12.37959 c -0.19902,-0.25377 -0.19336,-0.25943 0.0604,-0.0604 0.154,0.12078 0.28,0.24678 0.28,0.28 0,0.13169 -0.13139,0.0469 -0.34041,-0.21959 z m -88.459592,-1.54041 c 0,-0.0332 0.126,-0.15922 0.28,-0.28 0.25377,-0.19902 0.259429,-0.19336 0.06041,0.0604 -0.20902,0.26652 -0.34041,0.35128 -0.34041,0.21959 z m 62.040002,-3.40555 c 0.11,-0.0444 0.29,-0.0444 0.4,0 0.11,0.0444 0.02,0.0807 -0.2,0.0807 -0.22,0 -0.31,-0.0363 -0.2,-0.0807 z m 7.21,-0.003 c 0.1155,-0.0462 0.2535,-0.0405 0.30667,0.0126 0.0532,0.0532 -0.0413,0.091 -0.21,0.084 -0.1864,-0.008 -0.22431,-0.0456 -0.0967,-0.0967 z m -4.16577,-0.16807 c 0.37632,-0.0338 0.95232,-0.0333 1.28,0.001 0.32767,0.0344 0.0198,0.062 -0.68423,0.0615 -0.704,-6.4e-4 -0.9721,-0.0287 -0.59577,-0.0625 z m -55.910899,-3.9556 c 0,-0.12813 0.06117,-0.19515 0.135944,-0.14894 0.07477,0.0462 0.09452,0.15104 0.04389,0.23296 -0.129379,0.20934 -0.179833,0.18577 -0.179833,-0.084 z m 5.003149,-4.70037 c -0.04532,-0.0733 0.01926,-0.13333 0.143518,-0.13333 0.124258,0 0.188842,0.06 0.143518,0.13333 -0.04532,0.0733 -0.109905,0.13333 -0.143518,0.13333 -0.03361,0 -0.0982,-0.06 -0.143518,-0.13333 z m 31.423518,-8.08708 c 0,-0.0332 0.109648,-0.15141 0.243662,-0.26263 0.203736,-0.16908 0.227149,-0.15919 0.142882,0.0604 -0.08606,0.22428 -0.386544,0.38147 -0.386544,0.20222 z m -10.143518,-6.95292 c -0.04532,-0.0733 0.01926,-0.13334 0.143518,-0.13334 0.124258,0 0.188842,0.06 0.143518,0.13334 -0.04532,0.0733 -0.109905,0.13333 -0.143518,0.13333 -0.03361,0 -0.0982,-0.06 -0.143518,-0.13333 z m 31.83035,-7.05561 c -0.0506,-0.0819 -0.0309,-0.18676 0.0439,-0.23297 0.0748,-0.0462 0.13595,0.0208 0.13595,0.14895 0,0.26979 -0.0505,0.29336 -0.17984,0.084 z m 7.41276,-7.97106 c -0.19902,-0.25377 -0.19336,-0.25943 0.0604,-0.0604 0.154,0.12078 0.28,0.24678 0.28,0.28 0,0.13169 -0.13139,0.0469 -0.34041,-0.21959 z m -26.131146,-10.42633 c -0.05152,-0.0834 -0.02547,-0.19371 0.05789,-0.24522 0.08336,-0.0515 0.193704,-0.0255 0.24522,0.0579 0.05152,0.0834 0.02547,0.19371 -0.05789,0.24522 -0.08336,0.0515 -0.193704,0.0255 -0.24522,-0.0579 z m -43.968446,-0.45082 c 0.374,-0.0337 0.986,-0.0337 1.36,0 0.374,0.0337 0.068,0.0612 -0.68,0.0612 -0.748,0 -1.054,-0.0276 -0.68,-0.0612 z m 5.29,-0.31215 c 0.115499,-0.0462 0.253499,-0.0405 0.306667,0.0126 0.05317,0.0532 -0.04133,0.091 -0.21,0.084 -0.186392,-0.008 -0.224304,-0.0456 -0.09667,-0.0967 z m 3.51,-0.31666 c 0.11,-0.0444 0.29,-0.0444 0.4,0 0.11,0.0444 0.02,0.0807 -0.2,0.0807 -0.22,0 -0.31,-0.0363 -0.2,-0.0807 z M 36.08257,-311.52045 c 0.0033,-0.264 0.03912,-0.35263 0.07969,-0.19696 0.04057,0.15568 0.0379,0.37168 -0.0059,0.48 -0.04383,0.10833 -0.07702,-0.019 -0.07376,-0.28304 z m 30.80249,-0.55984 c -0.046,-0.17591 -0.0184,-0.36016 0.06134,-0.40944 0.07974,-0.0493 0.144979,0.0946 0.144979,0.31984 0,0.49024 -0.09119,0.52985 -0.206318,0.0896 z m -29.233682,-1.20724 c 0,-0.0186 0.096,-0.11341 0.213333,-0.21079 0.159418,-0.1323 0.213334,-0.12378 0.213334,0.0337 0,0.11594 -0.096,0.2108 -0.213334,0.2108 -0.117333,0 -0.213333,-0.0152 -0.213333,-0.0337 z m 28.99712,-6.15292 c 0,-0.308 0.03293,-0.434 0.07317,-0.28 0.04024,0.154 0.04024,0.406 0,0.56 -0.04024,0.154 -0.07317,0.028 -0.07317,-0.28 z m -0.171858,-2.72 c 0,-0.22 0.03632,-0.31 0.0807,-0.2 0.04438,0.11 0.04438,0.29 0,0.4 -0.04439,0.11 -0.0807,0.02 -0.0807,-0.2 z m -0.16,-2.4 c 0,-0.22 0.03632,-0.31 0.0807,-0.2 0.04438,0.11 0.04438,0.29 0,0.4 -0.04439,0.11 -0.0807,0.02 -0.0807,-0.2 z m 17.74737,-2.17333 c 0.0077,-0.18639 0.04559,-0.22431 0.09667,-0.0967 0.04622,0.1155 0.04054,0.2535 -0.01262,0.30667 -0.05317,0.0532 -0.09098,-0.0413 -0.08404,-0.21 z m -42.15615,-1.48 c -0.04532,-0.0733 0.01926,-0.13334 0.143518,-0.13334 0.124258,0 0.188842,0.06 0.143518,0.13334 -0.04532,0.0733 -0.109905,0.13333 -0.143518,0.13333 -0.03361,0 -0.0982,-0.06 -0.143518,-0.13333 z m 42.354729,-1.94667 c 0,-0.572 0.02904,-0.806 0.06453,-0.52 0.03549,0.286 0.03549,0.754 0,1.04 -0.03549,0.286 -0.06453,0.052 -0.06453,-0.52 z m -18.771211,-2.40944 c 0,-0.0932 0.072,-0.12495 0.16,-0.0706 0.088,0.0544 0.16,0.13064 0.16,0.16944 0,0.0388 -0.072,0.0706 -0.16,0.0706 -0.088,0 -0.16,-0.0763 -0.16,-0.16944 z m 18.769579,-1.99056 c 9.6e-4,-0.528 0.03077,-0.72471 0.06638,-0.43713 0.03561,0.28757 0.03487,0.71957 -0.0016,0.96 -0.03651,0.24042 -0.06564,0.005 -0.06475,-0.52287 z m 31.732563,-10.72 c 0.0506,-0.132 0.12039,-0.24 0.15498,-0.24 0.0346,0 0.0629,0.108 0.0629,0.24 0,0.132 -0.0697,0.24 -0.15498,0.24 -0.0852,0 -0.11354,-0.108 -0.0629,-0.24 z m 4.35745,-12.52 c -0.19902,-0.25377 -0.19336,-0.25943 0.0604,-0.0604 0.154,0.12078 0.28,0.24678 0.28,0.28 0,0.13169 -0.13139,0.0469 -0.34041,-0.21959 z m -32.489592,-14.3893 c 0.115499,-0.0462 0.253501,-0.0405 0.306667,0.0126 0.05317,0.0532 -0.04133,0.091 -0.21,0.084 -0.186392,-0.008 -0.224304,-0.0456 -0.09667,-0.0967 z"
         id="path3700" /><path
         style="fill:#333333;fill-opacity:1;stroke-width:0.16"
         d="m 50.051378,-216.1688 c 0.616,-0.30212 1.225805,-0.51004 1.355123,-0.46203 0.129317,0.048 0.182591,0.0348 0.118386,-0.0294 -0.06421,-0.0642 1.377989,-0.88327 3.204877,-1.82014 3.58848,-1.84027 6.258368,-3.40046 9.620692,-5.62201 1.176493,-0.77733 2.204276,-1.37303 2.283964,-1.32378 0.07969,0.0493 0.125102,0.0162 0.100923,-0.0734 -0.02418,-0.0896 0.948104,-0.87998 2.160632,-1.75639 1.212528,-0.87641 2.526131,-1.85695 2.919117,-2.17897 0.4046,-0.33154 0.795025,-0.53574 0.900124,-0.47079 0.105944,0.0655 0.142676,0.0453 0.08558,-0.0471 -0.05501,-0.089 1.175862,-1.17488 2.735278,-2.41304 1.559416,-1.23817 4.088823,-3.26159 5.620906,-4.4965 1.532083,-1.23491 2.857208,-2.20104 2.944721,-2.14696 0.08751,0.0541 0.112784,0.0234 0.05616,-0.0682 -0.139728,-0.22608 0.311808,-0.57987 0.551229,-0.4319 0.117536,0.0726 0.149851,0.0507 0.08351,-0.0566 -0.06004,-0.0971 0.150129,-0.37528 0.472091,-0.62473 0.319173,-0.24728 0.867587,-0.68363 1.218699,-0.96966 0.351112,-0.28603 0.70533,-0.47867 0.787151,-0.42811 0.08182,0.0506 0.128982,0.0142 0.104803,-0.0808 -0.05518,-0.21684 2.923942,-2.58502 3.108454,-2.47098 0.07453,0.0461 0.115725,0.0134 0.09155,-0.0726 -0.02418,-0.086 1.000035,-0.95402 2.276035,-1.92894 1.276,-0.97492 2.5104,-1.91996 2.74311,-2.10009 0.232711,-0.18014 0.649213,-0.48747 0.925559,-0.68296 0.276347,-0.19549 2.066246,-1.48425 3.977558,-2.8639 1.91131,-1.37965 3.72681,-2.68107 4.03444,-2.89206 0.30764,-0.21097 1.55495,-1.08095 2.77182,-1.93327 1.21686,-0.85232 2.28999,-1.50177 2.38472,-1.44322 0.11015,0.0681 0.12503,0.0301 0.0413,-0.10546 -0.0959,-0.15515 -0.0574,-0.18369 0.14359,-0.10655 0.15574,0.0598 0.23423,0.0401 0.18138,-0.0454 -0.0513,-0.0829 0.55171,-0.58439 1.3399,-1.11437 0.78819,-0.52998 1.47863,-1.03731 1.53431,-1.1274 0.1604,-0.25953 -0.22838,-0.1907 -0.69295,0.12269 -0.86081,0.58069 -2.10853,1.17003 -2.2682,1.07135 -0.0904,-0.0559 -0.14465,-0.0226 -0.12047,0.0741 0.0426,0.17025 -0.41905,0.43509 -4.67603,2.68251 -9.905601,5.22952 -15.247813,8.56608 -23.674804,14.78645 -1.097139,0.80985 -2.083139,1.47245 -2.191112,1.47245 -0.107973,0 -0.182313,0.0525 -0.165201,0.11667 0.05584,0.2094 -1.486679,1.29025 -1.675141,1.17378 -0.105717,-0.0653 -0.139722,-0.0429 -0.08041,0.0531 0.05685,0.092 -0.915393,0.94069 -2.175278,1.8989 -1.252934,0.95292 -3.106064,2.38616 -4.118064,3.18498 -3.395507,2.68022 -4.480742,3.45768 -4.666354,3.34296 -0.108219,-0.0669 -0.139496,-0.0426 -0.07649,0.0593 0.125397,0.2029 -0.759298,0.88149 -0.928554,0.71223 -0.0634,-0.0634 -0.09127,-0.0337 -0.06194,0.0661 0.07168,0.24377 -3.042006,2.49277 -3.262505,2.35649 -0.09732,-0.0601 -0.128052,-0.0336 -0.06994,0.0604 0.120922,0.19566 -4.346618,3.16555 -7.174224,4.76921 -7.16021,4.06089 -12.885757,5.9342 -19.87331,6.50224 -3.513657,0.28564 -7.293815,-0.17547 -9.622822,-1.1738 l -0.711251,-0.30488 0.383692,-0.41513 c 0.21103,-0.22832 1.679691,-1.54031 3.263691,-2.91553 1.584,-1.37522 3.298711,-2.88331 3.810469,-3.3513 0.81152,-0.74213 0.964926,-0.82394 1.2,-0.64 0.235305,0.18412 0.244655,0.17897 0.07363,-0.0405 -0.166937,-0.21428 0.0643,-0.48145 1.563981,-1.80699 0.967936,-0.85554 1.831875,-1.51103 1.919865,-1.45665 0.08799,0.0544 0.140199,0.0154 0.116018,-0.0865 -0.02418,-0.10197 0.220268,-0.40324 0.543218,-0.6695 l 0.587182,-0.4841 1.012818,0.27536 c 1.509045,0.41027 5.466708,0.49778 7.923055,0.17519 6.535809,-0.85835 11.694485,-2.55629 19.009763,-6.25693 1.76,-0.89035 3.975723,-2.06741 4.923829,-2.61569 0.948107,-0.54828 1.805232,-0.94656 1.904721,-0.88508 0.09949,0.0615 0.138223,0.0428 0.08607,-0.0416 -0.05215,-0.0844 0.962724,-0.79057 2.255279,-1.5693 2.452489,-1.47757 9.359067,-5.99358 10.569649,-6.91119 0.384754,-0.29164 0.764538,-0.49009 0.843965,-0.441 0.07943,0.0491 0.124629,0.02 0.10045,-0.0646 -0.02418,-0.0846 0.748035,-0.71793 1.716035,-1.40733 0.968,-0.6894 1.852374,-1.34273 1.965275,-1.45186 0.421245,-0.40715 1.685544,-1.24927 1.817669,-1.21071 0.07538,0.022 0.119056,-0.0234 0.09706,-0.10091 -0.022,-0.0775 0.878,-0.87624 2,-1.77498 1.762931,-1.41215 2.285274,-1.92411 1.963107,-1.92411 -0.09412,0 -1.112566,0.64798 -4.643107,2.95415 -4.905034,3.20399 -11.027859,7.04697 -13.76,8.63643 -0.88,0.51196 -1.868456,1.10151 -2.19657,1.31012 -0.328113,0.20862 -0.624883,0.3793 -0.659488,0.3793 -0.03461,0 -0.774148,0.40498 -1.64343,0.89995 -2.136509,1.21653 -7.379638,3.83414 -10.001107,4.99301 -5.867135,2.59365 -11.656437,4.50489 -17.099405,5.64505 -2.210782,0.4631 -6.366311,0.53218 -7.120378,0.11837 -0.811057,-0.44509 -1.088084,-0.87354 -1.165073,-1.80193 -0.06162,-0.74311 2.56e-4,-0.99495 0.453298,-1.84495 0.57331,-1.07564 3.084835,-3.61471 3.389342,-3.42652 0.09545,0.059 0.126437,0.0323 0.0695,-0.0598 -0.131522,-0.21281 2.71536,-2.65789 2.935934,-2.52157 0.09092,0.0562 0.14552,0.0174 0.121341,-0.0863 -0.02418,-0.10365 0.532035,-0.65702 1.236035,-1.22971 0.704,-0.57269 1.46,-1.18834 1.68,-1.36812 0.22,-0.17977 0.843066,-0.71176 1.384589,-1.18218 0.95272,-0.82763 1.316936,-1.05375 1.080133,-0.67059 -0.0713,0.11537 -0.04383,0.14125 0.07317,0.069 0.103032,-0.0637 0.151734,-0.17338 0.108226,-0.24378 -0.04351,-0.0704 0.366651,-0.51542 0.911467,-0.98894 0.544816,-0.47352 1.241393,-1.09045 1.547952,-1.37095 0.306558,-0.2805 0.626349,-0.46738 0.710645,-0.41528 0.0843,0.0521 0.109465,0.0239 0.05593,-0.0628 -0.09898,-0.16015 1.608146,-1.95845 1.72009,-1.81196 0.03362,0.044 0.121131,0.0145 0.194465,-0.0657 0.07747,-0.0846 0.04953,-0.0974 -0.06667,-0.0306 -0.377288,0.21712 -0.19935,-0.0975 0.486702,-0.86055 1.096053,-1.21908 2.680048,-3.54943 3.646732,-5.36502 0.491388,-0.92291 0.952932,-1.62406 1.025652,-1.55812 0.07272,0.0659 0.08308,0.0342 0.02302,-0.0706 -0.152402,-0.26582 0.495776,-0.82655 1.172205,-1.01408 0.311131,-0.0863 1.393691,-0.38047 2.405691,-0.65381 1.012,-0.27335 2.505379,-0.74567 3.318621,-1.04962 0.813241,-0.30394 1.562366,-0.50086 1.664721,-0.4376 0.102356,0.0632 0.144359,0.0475 0.09334,-0.0351 -0.05102,-0.0825 0.675859,-0.50426 1.61528,-0.93712 2.31125,-1.06499 5.982579,-2.98103 5.889773,-3.07384 -0.04134,-0.0413 -0.711144,0.17815 -1.488451,0.48775 -1.961952,0.78144 -5.29596,1.90834 -7.100187,2.39986 -2.051983,0.55903 -5.164312,1.22399 -5.728804,1.22399 -0.548174,0 -1.358936,-0.58682 -1.239779,-0.89734 0.04618,-0.12035 0.0062,-0.20169 -0.08878,-0.18074 -0.233082,0.0514 -1.296044,-1.69209 -1.628106,-2.67042 -0.602318,-1.77457 -0.283541,-2.45016 1.97185,-4.17895 2.391592,-1.8332 2.540323,-2.24433 1.463657,-4.04585 -1.162832,-1.94569 -1.221464,-3.07942 -0.220561,-4.2648 1.025032,-1.21396 1.170363,-2.1877 0.752497,-5.0419 -0.723587,-4.94241 -0.920966,-5.61344 -2.086747,-7.09434 -0.591258,-0.75108 -0.964699,-1.04318 -1.903946,-1.48923 -1.620065,-0.76936 -2.923323,-0.83172 -7.844382,-0.37533 -4.41408,0.40938 -8.103077,0.37824 -9.753093,-0.0823 -3.706461,-1.03457 -4.840679,-3.36624 -3.620865,-7.44358 0.931006,-3.11197 0.843496,-3.84354 -0.62432,-5.2192 -0.983078,-0.92137 -1.281722,-1.43829 -1.281722,-2.21856 0,-0.68533 0.26425,-1.25077 0.512749,-1.09719 0.101885,0.063 0.131728,0.0365 0.07049,-0.0626 -0.05841,-0.0945 0.1513,-0.38411 0.466031,-0.64354 l 0.572238,-0.47169 -0.879418,-0.87941 c -0.931031,-0.93104 -1.129805,-1.43271 -1.033709,-2.60891 0.04562,-0.55841 0.143127,-0.69161 0.838674,-1.14569 0.432878,-0.28259 0.864878,-0.46954 0.96,-0.41543 0.09512,0.0541 0.121821,0.0417 0.05933,-0.0276 -0.06249,-0.0693 -0.0085,-0.32924 0.12,-0.57771 0.509368,-0.98501 0.108795,-1.91669 -1.451689,-3.37645 -0.56776,-0.53111 -0.985706,-1.04103 -0.92877,-1.13315 0.05989,-0.0969 0.0266,-0.11996 -0.07899,-0.0547 -0.203308,0.12565 -1.070172,-0.77802 -1.50022,-1.56392 -0.150312,-0.27469 -0.276312,-0.81494 -0.28,-1.20056 -0.01195,-1.24907 0.218292,-1.47598 4.313293,-4.25097 0.396,-0.26835 0.756,-0.52639 0.8,-0.57343 0.342831,-0.36647 1.02798,-0.77135 1.163527,-0.68758 0.09125,0.0564 0.122203,0.0318 0.06878,-0.0546 -0.108769,-0.17599 1.293837,-1.41132 1.60542,-1.41396 0.10975,-9.6e-4 0.208105,-0.0729 0.218566,-0.16 0.01046,-0.0871 0.505934,-0.6709 1.101048,-1.2974 1.824597,-1.92083 2.528838,-3.84476 2.33509,-6.37927 -0.376831,-4.92946 -0.272605,-6.33982 0.697737,-9.44164 0.41193,-1.31679 2.048451,-5.49229 2.893319,-7.38216 1.019656,-2.28085 1.499768,-3.23764 1.595076,-3.17873 0.194221,0.12003 0.630327,1.89374 1.042722,4.24089 0.901874,5.13302 2.565298,11.57971 4.819042,18.67646 0.397619,1.25205 0.670584,2.36117 0.60659,2.46472 -0.06615,0.10703 -0.04776,0.14587 0.04264,0.09 0.09092,-0.0562 0.419152,0.66963 0.766643,1.69528 0.83673,2.46967 3.208388,8.79906 4.419106,11.79354 0.551488,1.364 1.951654,5 3.11148,8.08 1.159824,3.08 2.172774,5.58516 2.250998,5.56703 0.332556,-0.0771 0.442722,-1.71419 0.449994,-6.68703 0.0078,-5.30723 -0.102706,-7.2343 -0.729157,-12.72 -0.482766,-4.22746 -1.502305,-9.43022 -1.928261,-9.84 -0.113785,-0.10946 -0.137329,-0.0589 -0.07454,0.16 0.08874,0.30941 0.477488,3.87254 0.654622,6 0.448437,5.38591 0.897551,15.39455 0.617445,13.76 -0.305974,-1.78552 -4.531478,-16.25157 -6.052267,-20.72 -0.1198,-0.352 -0.588342,-1.792 -1.041205,-3.2 -1.700777,-5.2879 -3.971166,-11.53172 -6.196121,-17.04 -1.270533,-3.14544 -4.038999,-9.17262 -4.158412,-9.0532 -0.03857,0.0386 0.152674,0.97563 0.424997,2.08234 0.655603,2.66436 0.643349,2.98533 -0.172464,4.51726 -0.367179,0.68948 -0.789061,1.56997 -0.937515,1.95664 l -0.269917,0.70303 -0.416409,-2.22303 c -0.579648,-3.0945 -0.754055,-4.81412 -0.758488,-7.47861 -0.0042,-2.5098 0.119252,-3.02315 0.790681,-3.28847 0.230584,-0.0911 1.321643,-0.3092 2.424575,-0.48462 2.362028,-0.37567 4.929868,-0.91533 10.71467,-2.25179 7.890814,-1.82301 11.187966,-2.39624 16.96,-2.9486 4.381582,-0.4193 10.034528,-0.18092 14.782238,0.62337 8.076533,1.3682 15.681433,4.58544 22.031273,9.32029 2.77707,2.07075 3.99488,3.10238 3.88059,3.2873 -0.0592,0.0958 -0.0268,0.12012 0.0757,0.0567 0.2262,-0.1398 1.17637,0.6895 1.04099,0.90856 -0.0551,0.0892 -0.0243,0.11527 0.0686,0.0579 0.2091,-0.12923 2.63526,2.10934 2.50846,2.31451 -0.0504,0.0816 -0.0234,0.12856 0.0601,0.10438 0.25535,-0.0739 1.33062,0.99525 1.21085,1.20402 -0.0606,0.10561 -0.0512,0.13864 0.0208,0.0734 0.17913,-0.16228 0.58204,0.1941 0.45388,0.40146 -0.0566,0.0916 -0.0323,0.12293 0.054,0.0696 0.20308,-0.1255 2.18138,1.86534 2.01696,2.02975 -0.0685,0.0685 -0.0165,0.1005 0.11551,0.0712 0.14716,-0.0327 0.23151,0.0543 0.21806,0.22495 -0.0121,0.15305 0.0374,0.24164 0.10981,0.19686 0.51691,-0.31947 9.93324,12.34211 9.67644,13.01133 -0.0444,0.11558 -0.0168,0.17069 0.0612,0.12246 0.17447,-0.10783 0.67804,0.67803 2.60868,4.07107 5.29806,9.31117 8.64385,18.83594 9.47032,26.96 0.64176,6.3084 -0.3594,12.223 -2.99809,17.712 -1.10752,2.30385 -2.33495,4.314 -2.55221,4.17973 -0.095,-0.0587 -0.11488,-0.0222 -0.0474,0.087 0.23521,0.38059 -4.46102,6.42096 -4.89599,6.29731 -0.0851,-0.0242 -0.11477,0.0206 -0.066,0.0995 0.17226,0.27873 -3.3256,3.31213 -5.61787,4.87192 -2.53782,1.72687 -5.68951,3.22901 -8.45846,4.03142 -1.58427,0.4591 -4.13623,0.88116 -5.32789,0.88116 -1.24065,0 -1.29522,0.17838 -0.69091,2.25836 1.58653,5.46068 4.06859,10.17402 8.50024,16.14164 1.56311,2.10486 3.75886,5.3541 4.64932,6.88 1.13328,1.94199 2.90311,5.63084 2.81354,5.86425 -0.0498,0.12982 -0.0194,0.18923 0.069,0.13462 0.087,-0.0538 0.15841,-0.0755 0.15872,-0.0483 3.2e-4,0.0272 0.22267,0.58944 0.49415,1.24944 2.22961,5.42035 3.58765,11.27839 4.06158,17.52 l 0.0972,1.28 -1.03903,-1.02774 c -0.57147,-0.56526 -0.99538,-1.09839 -0.94202,-1.18472 0.0534,-0.0863 0.0241,-0.11194 -0.0649,-0.0569 -0.0891,0.0551 -0.64528,-0.28504 -1.23599,-0.75576 -0.59071,-0.47072 -1.71473,-1.23512 -2.49781,-1.69865 -0.78309,-0.46353 -1.37889,-0.91544 -1.32401,-1.00424 0.0549,-0.0888 0.0213,-0.11292 -0.0747,-0.0536 -0.096,0.0593 -0.7011,-0.13711 -1.34472,-0.43652 -2.11624,-0.98446 -2.59189,-1.17804 -4.3199,-1.75808 -5.52959,-1.85609 -11.42599,-2.64757 -18.2103,-2.44438 -1.892,0.0567 -3.62,0.13242 -3.84,0.16835 -0.22,0.0359 -0.976,0.11165 -1.68,0.16826 -5.226615,0.42028 -14.513716,2.3139 -22.640001,4.61624 -1.1,0.31165 -3.836,1.08289 -6.08,1.71386 -2.244,0.63098 -4.679931,1.3191 -5.413181,1.52918 -2.410603,0.69062 -8.211203,2.10537 -11.306819,2.75769 -3.064142,0.6457 -7.447226,1.47509 -7.702274,1.45748 -0.07575,-0.005 0.366274,-0.25671 0.982274,-0.55884 z m 85.524222,-9.63165 c -1.03184,-3.92572 -3.66599,-8.15346 -6.80422,-10.92058 -1.30371,-1.14953 -4.46438,-3.20951 -6.23056,-4.06079 -4.25007,-2.04847 -7.99944,-2.93694 -12.88944,-3.05435 -5.15877,-0.12387 -10.641495,0.93834 -16.640002,3.22376 -3.847581,1.46592 -9.327312,4.28008 -12.760694,6.55336 -0.462383,0.30614 -0.900383,0.51974 -0.973333,0.47465 -0.07295,-0.0451 -0.13264,0.0229 -0.13264,0.15099 0,0.12813 0.05048,0.23296 0.112173,0.23296 0.06169,0 1.291694,-0.56695 2.733332,-1.25988 6.629388,-3.18647 12.557501,-5.0921 18.781164,-6.03733 2.57386,-0.39091 8.21942,-0.47307 10.8,-0.15717 4.83752,0.59218 9.22599,1.95545 12.73355,3.95566 3.33827,1.90368 6.22123,4.43036 8.4762,7.42869 0.83091,1.10482 1.29879,1.82062 2.73883,4.19003 0.12034,0.198 0.24596,0.36 0.27915,0.36 0.0332,0 -0.0674,-0.486 -0.22351,-1.08 z m -47.440987,-32.5321 c 0.659333,-0.36186 1.272293,-0.60011 1.377184,-0.53528 0.103963,0.0643 0.147042,0.0489 0.09573,-0.0341 -0.101645,-0.16446 3.830155,-2.39234 4.158894,-2.35655 0.110831,0.0121 0.167578,-0.033 0.126104,-0.10008 -0.04147,-0.0671 0.517301,-0.46551 1.241722,-0.88534 0.724421,-0.41984 2.564675,-1.58163 4.089456,-2.58176 1.524787,-1.00012 2.849907,-1.77046 2.944727,-1.71186 0.0957,0.0592 0.12659,0.0324 0.0694,-0.0601 -0.0566,-0.0917 0.45423,-0.58273 1.13528,-1.09128 0.68105,-0.50856 1.57858,-1.20599 1.99452,-1.54985 0.43897,-0.36289 0.83532,-0.57632 0.94472,-0.50871 0.10842,0.067 0.14609,0.0479 0.0887,-0.045 -0.14353,-0.23224 0.62391,-0.90793 0.86322,-0.76002 0.11486,0.071 0.15563,0.0552 0.0981,-0.0379 -0.14565,-0.23566 0.93948,-1.23195 1.17994,-1.08334 0.11608,0.0717 0.15794,0.057 0.10077,-0.0355 -0.093,-0.15046 1.19077,-1.54624 1.33807,-1.45483 0.0387,0.024 0.0534,0.0147 0.0327,-0.0206 -0.0206,-0.0353 0.69936,-0.82739 1.6,-1.76019 0.90065,-0.93279 2.2077,-2.39662 2.90456,-3.25296 1.08472,-1.33296 1.30342,-1.52861 1.52,-1.35981 0.22284,0.17367 0.2271,0.16414 0.0357,-0.08 -0.19108,-0.2438 -0.12163,-0.40753 0.57697,-1.36 2.18816,-2.98335 4.54505,-6.85831 6.70042,-11.01616 0.82492,-1.59133 1.49986,-2.95248 1.49986,-3.02479 0,-0.0723 -0.144,-10e-4 -0.32,0.15812 -0.176,0.15928 -0.32,0.34652 -0.32,0.4161 0,0.13146 -2.00218,3.0758 -3.41629,5.0239 -2.25447,3.10579 -6.61486,8.40444 -6.87465,8.35393 -0.096,-0.0187 -0.17779,0.0577 -0.18179,0.16961 -0.0117,0.32781 -1.85796,2.28874 -2.04567,2.17273 -0.10649,-0.0658 -0.12378,-0.0292 -0.0458,0.0969 0.0844,0.13656 -0.83296,1.16186 -2.81366,3.14472 -2.59122,2.59407 -3.47236,3.38116 -3.08684,2.75739 0.0713,-0.11537 0.0438,-0.14125 -0.0732,-0.069 -0.10303,0.0637 -0.15056,0.17528 -0.10562,0.24799 0.11703,0.18936 -2.17051,2.2559 -2.36447,2.13603 -0.0888,-0.0549 -0.11626,-0.0267 -0.061,0.0627 0.20256,0.32775 -6.748594,5.93992 -11.571015,9.34211 -3.048182,2.15047 -3.487386,2.42383 -3.691595,2.29762 -0.12456,-0.077 -0.157119,-0.0564 -0.0879,0.0556 0.06367,0.10302 -0.09004,0.28133 -0.365132,0.42359 -0.448053,0.2317 -0.789832,0.56795 -0.577284,0.56795 0.05334,0 0.631652,-0.29344 1.285141,-0.6521 z m 2.998087,-33.2834 c 3.64599,-4.7411 6.856528,-9.44231 9.33171,-13.6645 0.77382,-1.32 2.56706,-4.704 3.98497,-7.52 3.44953,-6.85085 5.41042,-11.45948 7.67722,-18.04359 0.62934,-1.82798 1.20542,-3.26798 1.28017,-3.2 0.0748,0.068 0.085,0.035 0.0228,-0.0732 -0.0622,-0.10823 0.21086,-1.33223 0.60682,-2.72 0.39595,-1.38778 1.00527,-3.67523 1.35405,-5.08323 1.16374,-4.69802 1.10233,-4.76833 -0.34933,-0.39993 -2.27461,6.84485 -5.0653,13.51388 -9.09178,21.727 -1.24029,2.52992 -1.96879,3.84804 -2.08652,3.77528 -0.11233,-0.0694 -0.1365,-0.04 -0.0638,0.0777 0.19257,0.31158 -6.563243,13.51865 -6.830658,13.35338 -0.09741,-0.0602 -0.118457,-0.0252 -0.05074,0.0844 0.105432,0.1706 -1.054286,2.51625 -2.53019,5.11758 -0.316847,0.55845 -0.576085,1.04167 -0.576085,1.07382 0,0.12151 -3.720406,6.40228 -3.935446,6.64379 -0.123888,0.13914 -0.175895,0.30234 -0.11557,0.36267 0.06033,0.0603 0.155779,0.0545 0.212118,-0.013 0.05634,-0.0675 0.578439,-0.74165 1.16022,-1.49817 z m -11.018703,-14.78463 c 2.030431,-6.23834 3.285197,-12.31967 3.961528,-19.19987 0.270155,-2.74824 0.267667,-10.58071 -0.0043,-13.52 -0.203715,-2.2017 -0.260664,-2.54203 -0.399371,-2.38667 -0.03273,0.0367 -0.108086,1.36267 -0.167446,2.94667 -0.333768,8.90645 -1.948799,22.21527 -3.941463,32.48 -0.536928,2.76586 -0.433883,2.706 0.551048,-0.32013 z"
         id="path3698" /></g></g></svg>
