<?xml version="1.0" encoding="UTF-8" standalone="no"?>
<!-- Created with Inkscape (http://www.inkscape.org/) -->

<svg
   version="1.1"
   id="svg1"
   width="94.015709"
   height="131.65292"
   viewBox="0 0 94.015709 131.65292"
   sodipodi:docname="womanav11.svg"
   inkscape:version="1.2.2 (732a01da63, 2022-12-09)"
   xml:space="preserve"
   xmlns:inkscape="http://www.inkscape.org/namespaces/inkscape"
   xmlns:sodipodi="http://sodipodi.sourceforge.net/DTD/sodipodi-0.dtd"
   xmlns="http://www.w3.org/2000/svg"
   xmlns:svg="http://www.w3.org/2000/svg"><defs
     id="defs1" /><sodipodi:namedview
     id="namedview1"
     pagecolor="#ffffff"
     bordercolor="#cccccc"
     borderopacity="1"
     inkscape:showpageshadow="0"
     inkscape:pageopacity="1"
     inkscape:pagecheckerboard="0"
     inkscape:deskcolor="#d1d1d1"
     showgrid="false"
     inkscape:zoom="1.4142136"
     inkscape:cx="69.296465"
     inkscape:cy="53.740115"
     inkscape:window-width="1366"
     inkscape:window-height="705"
     inkscape:window-x="-8"
     inkscape:window-y="32"
     inkscape:window-maximized="1"
     inkscape:current-layer="g1" /><g
     inkscape:groupmode="layer"
     inkscape:label="Image"
     id="g1"
     transform="translate(228.03639,427.66423)"><g
       id="g3146"
       transform="matrix(0.83972736,0,0,0.83972736,-337.77932,-148.88649)"
       style="fill:#000000"><path
         style="fill:#000000;fill-opacity:1;stroke-width:0.16"
         d="m 139.02212,-176.32546 c 0,-0.22 0.0363,-0.31 0.0807,-0.2 0.0444,0.11 0.0444,0.29 0,0.4 -0.0444,0.11 -0.0807,0.02 -0.0807,-0.2 z m 71.09474,-44.48 c -0.0544,-0.088 -0.0226,-0.16 0.0706,-0.16 0.0932,0 0.16944,0.072 0.16944,0.16 0,0.088 -0.0318,0.16 -0.0706,0.16 -0.0388,0 -0.11505,-0.072 -0.16944,-0.16 z m -60.59,-3.6293 c 0.1155,-0.0462 0.2535,-0.0405 0.30667,0.0126 0.0532,0.0532 -0.0413,0.091 -0.21,0.084 -0.18639,-0.008 -0.22431,-0.0456 -0.0967,-0.0967 z m 60.7348,-1.3707 -0.3048,-0.36 0.36,0.3048 c 0.33831,0.28643 0.43284,0.4152 0.3048,0.4152 -0.0304,0 -0.19236,-0.162 -0.36,-0.36 z m -67.92521,-4.08 c -0.19902,-0.25377 -0.19336,-0.25943 0.0604,-0.0604 0.26652,0.20902 0.35128,0.34041 0.21959,0.34041 -0.0332,0 -0.15922,-0.126 -0.28,-0.28 z m 6.58041,0.11056 c 0,-0.0932 0.072,-0.12495 0.16,-0.0706 0.088,0.0544 0.16,0.13064 0.16,0.16944 0,0.0388 -0.072,0.0706 -0.16,0.0706 -0.088,0 -0.16,-0.0763 -0.16,-0.16944 z m 70.85,-1.53986 c 0.1155,-0.0462 0.2535,-0.0405 0.30667,0.0126 0.0532,0.0532 -0.0413,0.091 -0.21,0.084 -0.18639,-0.008 -0.22431,-0.0456 -0.0967,-0.0967 z m -79.51041,-0.6507 c -0.19902,-0.25377 -0.19336,-0.25943 0.0604,-0.0604 0.154,0.12078 0.28,0.24678 0.28,0.28 0,0.13169 -0.13139,0.0469 -0.34041,-0.21959 z m 63.3683,-0.48 -0.38789,-0.44 0.44,0.38789 c 0.41125,0.36254 0.51337,0.49211 0.38789,0.49211 -0.0287,0 -0.22666,-0.198 -0.44,-0.44 z m 32.25211,-25.16 c 0.15928,-0.176 0.3256,-0.32 0.3696,-0.32 0.044,0 -0.0503,0.144 -0.2096,0.32 -0.15928,0.176 -0.3256,0.32 -0.3696,0.32 -0.044,0 0.0503,-0.144 0.2096,-0.32 z m -5.31642,-17.44 c 0,-0.396 0.0312,-0.558 0.0693,-0.36 0.0381,0.198 0.0381,0.522 0,0.72 -0.0381,0.198 -0.0693,0.036 -0.0693,-0.36 z m 2.84905,-12.09333 c 0.008,-0.18639 0.0456,-0.22431 0.0967,-0.0967 0.0462,0.1155 0.0405,0.2535 -0.0126,0.30667 -0.0532,0.0532 -0.091,-0.0413 -0.084,-0.21 z m 0.17263,-4.54667 c 0,-0.22 0.0363,-0.31 0.0807,-0.2 0.0444,0.11 0.0444,0.29 0,0.4 -0.0444,0.11 -0.0807,0.02 -0.0807,-0.2 z m 0.45474,-8.54041 c 0,-0.0332 0.126,-0.15922 0.28,-0.28 0.25377,-0.19902 0.25943,-0.19336 0.0604,0.0604 -0.20902,0.26652 -0.34041,0.35128 -0.34041,0.21959 z m -87.36,-10.4 c 0,-0.0332 0.126,-0.15922 0.28,-0.28 0.25377,-0.19902 0.25943,-0.19336 0.0604,0.0604 -0.20902,0.26652 -0.34041,0.35128 -0.34041,0.21959 z m 1.76,-1.92 c 0,-0.0332 0.126,-0.15922 0.28,-0.28 0.25377,-0.19902 0.25943,-0.19336 0.0604,0.0604 -0.20902,0.26652 -0.34041,0.35128 -0.34041,0.21959 z"
         id="path3162" /><path
         style="fill:#000000;fill-opacity:1;stroke-width:0.16"
         d="m 240.71686,-175.79142 c 0.11,-0.0444 0.29,-0.0444 0.4,0 0.11,0.0444 0.02,0.0807 -0.2,0.0807 -0.22,0 -0.31,-0.0363 -0.2,-0.0807 z m -92.56881,-46.53404 c 0.003,-0.264 0.0391,-0.35263 0.0797,-0.19696 0.0406,0.15568 0.0379,0.37168 -0.006,0.48 -0.0438,0.10833 -0.077,-0.019 -0.0738,-0.28304 z m 75.16881,-10.22041 c 0,-0.0332 0.126,-0.15922 0.28,-0.28 0.25377,-0.19902 0.25943,-0.19336 0.0604,0.0604 -0.20902,0.26652 -0.34041,0.35128 -0.34041,0.21959 z m -80.56,-1.21959 c -0.0544,-0.088 -0.0226,-0.16 0.0706,-0.16 0.0932,0 0.16944,0.072 0.16944,0.16 0,0.088 -0.0317,0.16 -0.0706,0.16 -0.0388,0 -0.11505,-0.072 -0.16944,-0.16 z m 88.25263,-16.57333 c 0.008,-0.18639 0.0456,-0.22431 0.0967,-0.0967 0.0462,0.1155 0.0405,0.2535 -0.0126,0.30667 -0.0532,0.0532 -0.091,-0.0413 -0.084,-0.21 z m -31.02737,-15.42667 c 0,-0.22 0.0363,-0.31 0.0807,-0.2 0.0444,0.11 0.0444,0.29 0,0.4 -0.0444,0.11 -0.0807,0.02 -0.0807,-0.2 z m 34.54737,-23.13333 c 0.008,-0.18639 0.0456,-0.22431 0.0967,-0.0967 0.0462,0.1155 0.0405,0.2535 -0.0126,0.30667 -0.0532,0.0532 -0.091,-0.0413 -0.084,-0.21 z m 0,-4.96 c 0.008,-0.18639 0.0456,-0.22431 0.0967,-0.0967 0.0462,0.1155 0.0405,0.2535 -0.0126,0.30667 -0.0532,0.0532 -0.091,-0.0413 -0.084,-0.21 z m -2.1993,-4.76 c 0,-0.11734 0.0949,-0.21334 0.2108,-0.21334 0.15752,0 0.16604,0.0539 0.0337,0.21334 -0.0974,0.11733 -0.19224,0.21333 -0.21079,0.21333 -0.0186,0 -0.0338,-0.096 -0.0338,-0.21333 z m 2.66667,-2.56708 c 0,-0.0332 0.126,-0.15922 0.28,-0.28 0.25377,-0.19902 0.25943,-0.19336 0.0604,0.0604 -0.20902,0.26652 -0.34041,0.35128 -0.34041,0.21959 z m 1.92,-2.08 c 0,-0.0332 0.126,-0.15922 0.28,-0.28 0.25377,-0.19902 0.25943,-0.19336 0.0604,0.0604 -0.20902,0.26652 -0.34041,0.35128 -0.34041,0.21959 z m 4.97263,-2.43292 c 0.008,-0.18639 0.0456,-0.22431 0.0967,-0.0967 0.0462,0.1155 0.0405,0.2535 -0.0126,0.30667 -0.0532,0.0532 -0.091,-0.0413 -0.084,-0.21 z m -91.37263,-8.94667 c 0.20668,-0.22 0.41178,-0.4 0.45578,-0.4 0.044,0 -0.0891,0.18 -0.29578,0.4 -0.20668,0.22 -0.41178,0.4 -0.45578,0.4 -0.044,0 0.0891,-0.18 0.29578,-0.4 z"
         id="path3160" /><path
         style="fill:#000000;fill-opacity:1;stroke-width:0.16"
         d="m 138.939,-175.44546 c 0.0507,-0.132 0.12039,-0.24 0.15498,-0.24 0.0346,0 0.0629,0.108 0.0629,0.24 0,0.132 -0.0697,0.24 -0.15498,0.24 -0.0852,0 -0.11353,-0.108 -0.0629,-0.24 z m 78.27745,-39.72 c -0.19902,-0.25377 -0.19336,-0.25943 0.0604,-0.0604 0.154,0.12078 0.28,0.24678 0.28,0.28 0,0.13169 -0.13139,0.0469 -0.34041,-0.21959 z m -0.96,-2.24 c -0.19902,-0.25377 -0.19336,-0.25943 0.0604,-0.0604 0.154,0.12078 0.28,0.24678 0.28,0.28 0,0.13169 -0.13139,0.0469 -0.34041,-0.21959 z m -1.66966,-1.68 -0.46993,-0.52 0.52,0.46993 c 0.48471,0.43805 0.59354,0.57007 0.46993,0.57007 -0.0275,0 -0.26153,-0.234 -0.52,-0.52 z m -6.48204,-9.04 -0.38789,-0.44 0.44,0.38789 c 0.41125,0.36254 0.51337,0.49211 0.38789,0.49211 -0.0287,0 -0.22666,-0.198 -0.44,-0.44 z m -1.28,-1.28 -0.38789,-0.44 0.44,0.38789 c 0.41125,0.36254 0.51337,0.49211 0.38789,0.49211 -0.0287,0 -0.22666,-0.198 -0.44,-0.44 z m -65.4483,-1.44 c -0.19902,-0.25377 -0.19336,-0.25943 0.0604,-0.0604 0.26652,0.20902 0.35128,0.34041 0.21959,0.34041 -0.0332,0 -0.15922,-0.126 -0.28,-0.28 z m -10.52696,-38.69333 c 0.008,-0.18639 0.0456,-0.22431 0.0967,-0.0967 0.0462,0.1155 0.0405,0.2535 -0.0126,0.30667 -0.0532,0.0532 -0.091,-0.0413 -0.084,-0.21 z m 18.94737,-44.38667 c 0.15928,-0.176 0.3256,-0.32 0.3696,-0.32 0.044,0 -0.0503,0.144 -0.2096,0.32 -0.15928,0.176 -0.3256,0.32 -0.3696,0.32 -0.044,0 0.0503,-0.144 0.2096,-0.32 z m 36.05,-18.0293 c 0.1155,-0.0462 0.2535,-0.0405 0.30667,0.0126 0.0532,0.0532 -0.0413,0.091 -0.21,0.084 -0.18639,-0.008 -0.22431,-0.0456 -0.0967,-0.0967 z"
         id="path3158" /><path
         style="fill:#000000;fill-opacity:1;stroke-width:0.16"
         d="m 238.80686,-187.15476 c 0.1155,-0.0462 0.2535,-0.0405 0.30667,0.0126 0.0532,0.0532 -0.0413,0.091 -0.21,0.084 -0.18639,-0.008 -0.22431,-0.0456 -0.0967,-0.0967 z m 0.15,-0.95666 c 0.11,-0.0444 0.29,-0.0444 0.4,0 0.11,0.0444 0.02,0.0807 -0.2,0.0807 -0.22,0 -0.31,-0.0363 -0.2,-0.0807 z m 1.68576,-2.37404 c 0.001,-0.44 0.0323,-0.60101 0.0691,-0.3578 0.0368,0.24321 0.0358,0.60321 -0.002,0.8 -0.038,0.19679 -0.0681,-0.002 -0.0669,-0.4422 z m -24.86617,-27.4 c -0.19902,-0.25377 -0.19336,-0.25943 0.0604,-0.0604 0.154,0.12078 0.28,0.24678 0.28,0.28 0,0.13169 -0.13139,0.0469 -0.34041,-0.21959 z m 8.99304,-21.41333 c 0.008,-0.18639 0.0456,-0.22431 0.0967,-0.0967 0.0462,0.1155 0.0405,0.2535 -0.0126,0.30667 -0.0532,0.0532 -0.091,-0.0413 -0.084,-0.21 z m 3.69263,-5.82667 c 0,-0.22 0.0363,-0.31 0.0807,-0.2 0.0444,0.11 0.0444,0.29 0,0.4 -0.0444,0.11 -0.0807,0.02 -0.0807,-0.2 z m 4.10474,-27.3093 c 0.1155,-0.0462 0.2535,-0.0405 0.30667,0.0126 0.0532,0.0532 -0.0413,0.091 -0.21,0.084 -0.18639,-0.008 -0.22431,-0.0456 -0.0967,-0.0967 z m 0.84263,-20.94403 c 0.008,-0.18639 0.0456,-0.22431 0.0967,-0.0967 0.0462,0.1155 0.0405,0.2535 -0.0126,0.30667 -0.0532,0.0532 -0.091,-0.0413 -0.084,-0.21 z m 4.62737,-11.82667 c 0.20668,-0.22 0.41178,-0.4 0.45578,-0.4 0.044,0 -0.0891,0.18 -0.29578,0.4 -0.20668,0.22 -0.41178,0.4 -0.45578,0.4 -0.044,0 0.0891,-0.18 0.29578,-0.4 z"
         id="path3156" /><path
         style="fill:#000000;fill-opacity:1;stroke-width:0.16"
         d="m 241.46166,-181.16546 -0.3048,-0.36 0.36,0.3048 c 0.33831,0.28643 0.43284,0.4152 0.3048,0.4152 -0.0304,0 -0.19236,-0.162 -0.36,-0.36 z m -100.7048,-20.17007 c 0,-0.0275 0.234,-0.26153 0.52,-0.52 l 0.52,-0.46993 -0.46993,0.52 c -0.43805,0.48471 -0.57007,0.59354 -0.57007,0.46993 z m 1.28,-1.28 c 0,-0.0275 0.234,-0.26153 0.52,-0.52 l 0.52,-0.46993 -0.46993,0.52 c -0.43805,0.48471 -0.57007,0.59354 -0.57007,0.46993 z m -2.06737,-0.36326 c 0.008,-0.18639 0.0456,-0.22431 0.0967,-0.0967 0.0462,0.1155 0.0405,0.2535 -0.0126,0.30667 -0.0532,0.0532 -0.091,-0.0413 -0.084,-0.21 z m 4.14737,-1.74667 c 0.29853,-0.308 0.57877,-0.56 0.62277,-0.56 0.044,0 -0.16424,0.252 -0.46277,0.56 -0.29853,0.308 -0.57877,0.56 -0.62277,0.56 -0.044,0 0.16424,-0.252 0.46277,-0.56 z m 1.36,-1.36 c 0.15928,-0.176 0.3256,-0.32 0.3696,-0.32 0.044,0 -0.0503,0.144 -0.2096,0.32 -0.15928,0.176 -0.3256,0.32 -0.3696,0.32 -0.044,0 0.0503,-0.144 0.2096,-0.32 z m -0.4,-10.46041 c 0,-0.0332 0.126,-0.15922 0.28,-0.28 0.25377,-0.19902 0.25943,-0.19336 0.0604,0.0604 -0.20902,0.26652 -0.34041,0.35128 -0.34041,0.21959 z m 68.38993,-3.65959 -0.46993,-0.52 0.52,0.46993 c 0.48471,0.43805 0.59354,0.57007 0.46993,0.57007 -0.0275,0 -0.26153,-0.234 -0.52,-0.52 z m -2.17034,-2.32 c -0.19902,-0.25377 -0.19336,-0.25943 0.0604,-0.0604 0.154,0.12078 0.28,0.24678 0.28,0.28 0,0.13169 -0.13139,0.0469 -0.34041,-0.21959 z m -3.52307,-10.96052 c 0.0806,-0.0806 0.31688,-0.11978 0.52503,-0.087 0.32027,0.0504 0.29773,0.0729 -0.14658,0.14657 -0.31795,0.0527 -0.46721,0.0292 -0.37845,-0.0595 z m 29.15611,-26.45281 c 0.008,-0.18639 0.0456,-0.22431 0.0967,-0.0967 0.0462,0.1155 0.0405,0.2535 -0.0126,0.30667 -0.0532,0.0532 -0.091,-0.0413 -0.084,-0.21 z m -2.4,-34.72 c 0.008,-0.18639 0.0456,-0.22431 0.0967,-0.0967 0.0462,0.1155 0.0405,0.2535 -0.0126,0.30667 -0.0532,0.0532 -0.091,-0.0413 -0.084,-0.21 z m 1.34737,-7.42667 c 0.15928,-0.176 0.3256,-0.32 0.3696,-0.32 0.044,0 -0.0503,0.144 -0.2096,0.32 -0.15928,0.176 -0.3256,0.32 -0.3696,0.32 -0.044,0 0.0503,-0.144 0.2096,-0.32 z m 6.01263,-4.41333 c 0.008,-0.18639 0.0456,-0.22431 0.0967,-0.0967 0.0462,0.1155 0.0405,0.2535 -0.0126,0.30667 -0.0532,0.0532 -0.091,-0.0413 -0.084,-0.21 z"
         id="path3154" /><path
         style="fill:#000000;fill-opacity:1;stroke-width:0.16"
         d="m 148.36369,-208.4744 c -0.0506,-0.0819 -0.0309,-0.18676 0.0439,-0.23297 0.0748,-0.0462 0.13595,0.0208 0.13595,0.14895 0,0.26979 -0.0505,0.29336 -0.17984,0.084 z m 64.37276,-12.45106 c -0.19902,-0.25377 -0.19336,-0.25943 0.0604,-0.0604 0.154,0.12078 0.28,0.24678 0.28,0.28 0,0.13169 -0.13139,0.0469 -0.34041,-0.21959 z m -3.42966,-6 -0.46993,-0.52 0.52,0.46993 c 0.286,0.25847 0.52,0.49247 0.52,0.52 0,0.12361 -0.13202,0.0148 -0.57007,-0.46993 z m -4.00513,-4 -0.3048,-0.36 0.36,0.3048 c 0.33831,0.28643 0.43284,0.4152 0.3048,0.4152 -0.0304,0 -0.19236,-0.162 -0.36,-0.36 z m 19.48639,-5.32 c 0.003,-0.264 0.0391,-0.35263 0.0797,-0.19696 0.0406,0.15568 0.0379,0.37168 -0.006,0.48 -0.0438,0.10833 -0.077,-0.019 -0.0738,-0.28304 z m 0.0184,-1.76 c 9.6e-4,-0.528 0.0308,-0.72471 0.0664,-0.43713 0.0356,0.28757 0.0349,0.71957 -0.002,0.96 -0.0365,0.24042 -0.0656,0.005 -0.0647,-0.52287 z m -93.95695,-21.13333 c 0.008,-0.18639 0.0456,-0.22431 0.0967,-0.0967 0.0462,0.1155 0.0405,0.2535 -0.0126,0.30667 -0.0532,0.0532 -0.091,-0.0413 -0.084,-0.21 z m -0.14737,-2.14667 c 0,-0.22 0.0363,-0.31 0.0807,-0.2 0.0444,0.11 0.0444,0.29 0,0.4 -0.0444,0.11 -0.0807,0.02 -0.0807,-0.2 z m 69.36838,-3.68 c -0.046,-0.176 -0.0184,-0.32 0.0613,-0.32 0.0798,0 0.14502,0.144 0.14502,0.32 0,0.176 -0.0276,0.32 -0.0613,0.32 -0.0337,0 -0.099,-0.144 -0.14502,-0.32 z m -69.38101,-2.01333 c 0.008,-0.18639 0.0456,-0.22431 0.0967,-0.0967 0.0462,0.1155 0.0405,0.2535 -0.0126,0.30667 -0.0532,0.0532 -0.091,-0.0413 -0.084,-0.21 z m 0.16,-2.08 c 0.008,-0.18639 0.0456,-0.22431 0.0967,-0.0967 0.0462,0.1155 0.0405,0.2535 -0.0126,0.30667 -0.0532,0.0532 -0.091,-0.0413 -0.084,-0.21 z m 102.57263,-19.74667 c 0,-0.22 0.0363,-0.31 0.0807,-0.2 0.0444,0.11 0.0444,0.29 0,0.4 -0.0444,0.11 -0.0807,0.02 -0.0807,-0.2 z m 1.29186,-2.56 c 0,-0.308 0.0329,-0.434 0.0732,-0.28 0.0403,0.154 0.0403,0.406 0,0.56 -0.0402,0.154 -0.0732,0.028 -0.0732,-0.28 z m -40.67712,-0.48944 c 0,-0.0932 0.072,-0.12495 0.16,-0.0706 0.088,0.0544 0.16,0.13064 0.16,0.16944 0,0.0388 -0.072,0.0706 -0.16,0.0706 -0.088,0 -0.16,-0.0763 -0.16,-0.16944 z m 42.4,-11.75056 c 0.20668,-0.22 0.41178,-0.4 0.45578,-0.4 0.044,0 -0.0891,0.18 -0.29578,0.4 -0.20668,0.22 -0.41178,0.4 -0.45578,0.4 -0.044,0 0.0891,-0.18 0.29578,-0.4 z m -49.79,-28.3493 c 0.1155,-0.0462 0.2535,-0.0405 0.30667,0.0126 0.0532,0.0532 -0.0413,0.091 -0.21,0.084 -0.18639,-0.008 -0.22431,-0.0456 -0.0967,-0.0967 z m 4.95,0.003 c 0.11,-0.0444 0.29,-0.0444 0.4,0 0.11,0.0444 0.02,0.0807 -0.2,0.0807 -0.22,0 -0.31,-0.0363 -0.2,-0.0807 z"
         id="path3152" /><path
         style="fill:#000000;fill-opacity:1;stroke-width:0.16"
         d="m 138.84949,-175.93879 c 0.008,-0.18639 0.0456,-0.22431 0.0967,-0.0967 0.0462,0.1155 0.0405,0.2535 -0.0126,0.30667 -0.0532,0.0532 -0.091,-0.0413 -0.084,-0.21 z m 100.32,-10.88 c 0.008,-0.18639 0.0456,-0.22431 0.0967,-0.0967 0.0462,0.1155 0.0405,0.2535 -0.0126,0.30667 -0.0532,0.0532 -0.091,-0.0413 -0.084,-0.21 z m -98.27304,-11.06667 c -0.19902,-0.25377 -0.19336,-0.25943 0.0604,-0.0604 0.26652,0.20902 0.35128,0.34041 0.21959,0.34041 -0.0332,0 -0.15922,-0.126 -0.28,-0.28 z m 88.06617,-4.76 c 0.001,-0.44 0.0323,-0.60101 0.0691,-0.3578 0.0368,0.24321 0.0358,0.60321 -0.002,0.8 -0.038,0.19679 -0.0681,-0.002 -0.0669,-0.4422 z m -83.94928,-3.41333 c -0.0453,-0.0733 0.0193,-0.13334 0.14352,-0.13334 0.12426,0 0.18884,0.06 0.14352,0.13334 -0.0453,0.0733 -0.10991,0.13333 -0.14352,0.13333 -0.0336,0 -0.0982,-0.06 -0.14352,-0.13333 z m 3.73128,-2.30667 c -0.10807,-0.35312 -0.0699,-0.54667 0.10777,-0.54667 0.14994,0 0.16998,0.0595 0.0633,0.18806 -0.0858,0.10343 -0.1087,0.23543 -0.0508,0.29333 0.0579,0.0579 0.0573,0.10528 -0.001,0.10528 -0.0587,0 -0.11217,-0.018 -0.1189,-0.04 z m 70.02253,-5.3531 c -0.0868,-0.22803 -0.0684,-0.24641 0.0896,-0.0896 0.10935,0.10854 0.15851,0.23764 0.10925,0.2869 -0.0493,0.0493 -0.13873,-0.0395 -0.19881,-0.19733 z m -2.72346,-2.59584 c -0.0506,-0.0819 -0.0309,-0.18676 0.0439,-0.23297 0.0748,-0.0462 0.13595,0.0208 0.13595,0.14895 0,0.26979 -0.0505,0.29336 -0.17984,0.084 z m -1.9535,-1.84402 c 0,-0.12813 0.0612,-0.19516 0.13595,-0.14895 0.0748,0.0462 0.0945,0.15105 0.0439,0.23297 -0.12938,0.20934 -0.17984,0.18577 -0.17984,-0.084 z m -2.6865,-1.03598 c -0.0506,-0.0819 -0.0309,-0.18676 0.0439,-0.23297 0.0748,-0.0462 0.13595,0.0208 0.13595,0.14895 0,0.26979 -0.0505,0.29336 -0.17984,0.084 z m -1.2627,-6.86439 c -0.22634,-0.25011 -0.23,-0.29334 -0.0248,-0.29334 0.13237,0 0.20529,0.0354 0.16206,0.0786 -0.0432,0.0432 0.002,0.17523 0.0996,0.29333 0.26927,0.32445 0.0672,0.25739 -0.23685,-0.0786 z m -65.6508,-3.29963 c 0,-0.12813 0.0612,-0.19516 0.13595,-0.14895 0.0748,0.0462 0.0945,0.15105 0.0439,0.23297 -0.12938,0.20934 -0.17984,0.18577 -0.17984,-0.084 z m 5.03667,-0.0363 c 0.1155,-0.0462 0.2535,-0.0405 0.30667,0.0126 0.0532,0.0532 -0.0413,0.091 -0.21,0.084 -0.18639,-0.008 -0.22431,-0.0456 -0.0967,-0.0967 z m 54.28182,-2.99646 c -0.14435,-0.17393 -0.13966,-0.25327 0.0204,-0.34565 0.11427,-0.0659 0.15439,-0.061 0.0892,0.011 -0.0652,0.072 -0.0384,0.22756 0.0596,0.34565 0.098,0.1181 0.1422,0.21472 0.0982,0.21472 -0.044,0 -0.16431,-0.10159 -0.26736,-0.22575 z m -60.27849,-0.4872 c 0,-0.12813 0.0612,-0.19516 0.13595,-0.14895 0.0748,0.0462 0.0945,0.15105 0.0439,0.23297 -0.12938,0.20934 -0.17984,0.18577 -0.17984,-0.084 z m 1.16315,-0.22037 c -0.0453,-0.0733 0.0193,-0.13334 0.14352,-0.13334 0.12426,0 0.18884,0.06 0.14352,0.13334 -0.0453,0.0733 -0.10991,0.13333 -0.14352,0.13333 -0.0336,0 -0.0982,-0.06 -0.14352,-0.13333 z m 87.55352,-39.01597 c 0.1155,-0.0462 0.2535,-0.0405 0.30667,0.0126 0.0532,0.0532 -0.0413,0.091 -0.21,0.084 -0.18639,-0.008 -0.22431,-0.0456 -0.0967,-0.0967 z m 0.97326,-27.12577 c 0.33507,-0.38037 0.65674,-0.46306 0.65674,-0.16882 0,0.0535 -0.0487,0.0486 -0.10813,-0.0109 -0.0595,-0.0595 -0.29347,0.0545 -0.52,0.25333 l -0.41187,0.36147 z m 0.97674,-1.00493 c 0.20668,-0.22 0.41178,-0.4 0.45578,-0.4 0.044,0 -0.0891,0.18 -0.29578,0.4 -0.20668,0.22 -0.41178,0.4 -0.45578,0.4 -0.044,0 0.0891,-0.18 0.29578,-0.4 z m 2.35838,-2.48691 c 0.10911,-0.11762 0.31371,-0.23078 0.45466,-0.25146 0.14096,-0.0207 0.20768,0.011 0.14829,0.0704 -0.0594,0.0594 -0.156,0.10909 -0.21466,0.11044 -0.0587,0.001 -0.21467,0.0659 -0.34667,0.14347 -0.19451,0.1143 -0.2024,0.10049 -0.0416,-0.0728 z m 2.60162,-3.5735 c 0,-0.0332 0.126,-0.15922 0.28,-0.28 0.25377,-0.19902 0.25943,-0.19336 0.0604,0.0604 -0.20902,0.26652 -0.34041,0.35128 -0.34041,0.21959 z m -90.56,-6.25959 c 0.20668,-0.22 0.41178,-0.4 0.45578,-0.4 0.044,0 -0.0891,0.18 -0.29578,0.4 -0.20668,0.22 -0.41178,0.4 -0.45578,0.4 -0.044,0 0.0891,-0.18 0.29578,-0.4 z"
         id="path3150" /><path
         style="fill:#000000;fill-opacity:1;stroke-width:0.16"
         d="m 134.51686,-175.44266 c 0,-0.47141 1.43135,-5.81549 2.16488,-8.0828 1.02086,-3.15542 2.30739,-6.42366 2.48535,-6.31368 0.0804,0.0497 0.10738,-0.0106 0.06,-0.13396 -0.11903,-0.31017 1.21108,-3.17041 1.41557,-3.04402 0.0945,0.0584 0.1148,0.0222 0.0481,-0.0858 -0.18406,-0.29782 2.08163,-4.54899 4.59299,-8.61791 0.24581,-0.39826 0.41518,-0.75587 0.37637,-0.79468 -0.15592,-0.15591 -3.20266,3.62839 -4.49796,5.58682 -0.33349,0.50422 -0.68024,0.8711 -0.77056,0.81528 -0.0955,-0.059 -0.11555,-0.0228 -0.0479,0.0867 0.0643,0.10398 -0.11618,0.56253 -0.40322,1.02472 -0.28574,0.46009 -0.86557,1.48453 -1.28852,2.27653 -0.42294,0.792 -0.77037,1.38552 -0.77206,1.31893 -0.008,-0.29746 1.23588,-3.23588 2.03317,-4.80471 0.77743,-1.52977 0.90696,-1.70241 1.1404,-1.52 0.23357,0.1825 0.23918,0.1749 0.0496,-0.0672 -0.11758,-0.15015 -0.15986,-0.36615 -0.094,-0.48 0.81975,-1.41629 2.05497,-3.14434 2.18857,-3.06177 0.0995,0.0615 0.12119,0.0275 0.053,-0.0829 -0.22482,-0.36377 5.08711,-7.03125 5.52028,-6.929 0.12425,0.0293 0.17254,-4e-5 0.10731,-0.0653 -0.0652,-0.0652 -0.0384,-0.21523 0.0596,-0.33333 0.13615,-0.16405 0.11918,-0.21472 -0.0719,-0.21472 -0.13758,0 -0.29537,0.0732 -0.35064,0.16261 -0.0553,0.0894 -0.16931,0.12008 -0.25341,0.0681 -0.0841,-0.052 -0.13312,-0.0262 -0.10894,0.0573 0.0784,0.27054 -2.62369,2.56829 -2.94697,2.50603 -0.16369,-0.0315 -0.25472,0.0121 -0.20229,0.0969 0.0524,0.0848 0.18036,0.10626 0.28428,0.0476 0.10392,-0.0587 -0.0565,0.15338 -0.35641,0.47117 -0.29995,0.31779 -0.61707,0.53348 -0.70472,0.4793 -0.0877,-0.0542 -0.11523,-0.0271 -0.0613,0.0602 0.12549,0.20304 -1.06751,1.37853 -1.23206,1.21397 -0.0678,-0.0678 -0.0993,-0.0152 -0.0699,0.11675 0.0323,0.14545 -0.0412,0.21899 -0.18667,0.18667 -0.132,-0.0293 -0.18499,0.002 -0.11776,0.0689 0.16474,0.16475 -0.68841,1.0395 -0.89145,0.91402 -0.0881,-0.0545 -0.11623,-0.0278 -0.0625,0.0592 0.0538,0.087 -0.21329,0.46352 -0.5935,0.83666 -0.67248,0.66 -0.69398,0.66833 -0.79087,0.30651 -0.17494,-0.65329 -0.10961,-2.72183 0.13809,-4.37194 0.28326,-1.88706 0.85109,-3.94125 1.6091,-5.82109 0.67765,-1.68054 2.14457,-4.05479 2.43611,-3.94291 0.11651,0.0447 0.16408,0.007 0.10727,-0.0848 -0.13592,-0.21992 0.23639,-0.65565 0.44831,-0.52468 0.0929,0.0574 0.11916,0.0262 0.0594,-0.0704 -0.12698,-0.20545 1.58982,-1.72607 1.91268,-1.69411 0.12188,0.0121 0.19029,-0.0287 0.15202,-0.0907 -0.11209,-0.18136 0.85428,-0.68093 1.07335,-0.55488 0.10982,0.0632 0.14593,0.0556 0.0802,-0.0168 -0.0657,-0.0725 0.0963,-0.26294 0.36,-0.4233 0.56143,-0.34142 0.57608,-0.46781 0.16045,-1.3836 -0.17157,-0.37803 -0.35874,-1.04009 -0.41593,-1.47123 -0.11815,-0.89067 0.0362,-1.97661 0.26116,-1.83757 0.0826,0.051 0.11115,-0.009 0.0636,-0.13268 -0.0551,-0.14362 0.0866,-0.29714 0.39041,-0.42299 0.39405,-0.16322 0.63477,-0.15165 1.38554,0.0666 0.49974,0.14528 0.94056,0.23221 0.97959,0.19318 0.039,-0.039 -0.70671,-0.48485 -1.6572,-0.99071 -1.94385,-1.03454 -4.06375,-2.41811 -5.72816,-3.73855 -2.33634,-1.8535 -6.19427,-6.13494 -5.92324,-6.57347 0.0589,-0.0952 0.0254,-0.15338 -0.0744,-0.1292 -0.1803,0.0437 -0.55514,-0.50433 -1.39265,-2.03604 -1.89392,-3.46375 -3.8416,-9.53953 -4.83938,-15.09641 -1.04234,-5.80506 -1.33451,-12.68767 -0.75152,-17.70359 0.59319,-5.10364 1.76399,-10.85726 3.07678,-15.12 0.95575,-3.10343 3.75951,-11.52976 4.25904,-12.8 1.00746,-2.56182 3.042,-6.17514 3.36471,-5.97569 0.0936,0.0578 0.12617,0.034 0.0725,-0.0529 -0.11922,-0.19289 0.65517,-1.37075 0.83011,-1.26263 0.0686,0.0424 0.12476,-0.0154 0.12476,-0.12844 0,-0.33601 1.68634,-2.33811 1.87759,-2.22918 0.0967,0.0551 0.12387,0.0427 0.0605,-0.0275 -0.22521,-0.24928 1.86848,-2.71623 2.15498,-2.53917 0.10276,0.0635 0.12238,0.0283 0.0497,-0.0893 -0.13312,-0.21539 0.85763,-1.30641 4.11892,-4.53575 1.13336,-1.12226 2.13725,-1.99313 2.23087,-1.93527 0.0936,0.0579 0.12531,0.0325 0.0704,-0.0563 -0.14353,-0.23224 0.62391,-0.90793 0.86323,-0.76002 0.12062,0.0745 0.1556,0.0552 0.0905,-0.05 -0.13085,-0.21171 1.9674,-1.98246 2.18775,-1.84628 0.087,0.0538 0.10993,0.0196 0.0509,-0.076 -0.12976,-0.20996 0.52439,-0.70294 0.74876,-0.56428 0.0873,0.0539 0.11339,0.0248 0.0581,-0.0647 -0.1576,-0.255 3.07706,-2.50657 6.21112,-4.32344 6.02043,-3.49013 12.84522,-5.8755 19.91799,-6.96164 2.90097,-0.4455 8.1637,-0.47709 10.96201,-0.0658 4.05487,0.59595 8.16453,1.72383 12.32495,3.38254 3.25361,1.29717 6.02947,2.61649 5.91042,2.80913 -0.0506,0.0819 0.0111,0.10928 0.13708,0.0609 0.26239,-0.10069 3.9128,1.86637 7.21841,3.88969 1.23703,0.75717 5.20114,3.33351 8.80914,5.7252 3.608,2.39168 6.72402,4.43497 6.92448,4.54063 0.2018,0.10636 0.31574,0.27097 0.25528,0.3688 -0.0634,0.10252 -0.0364,0.13169 0.0643,0.0695 0.0954,-0.059 0.53474,0.10581 0.97631,0.36616 0.44156,0.26035 1.47262,0.80652 2.29125,1.2137 1.98622,0.98793 1.97484,0.98086 1.92446,1.1949 -0.0242,0.10273 0.03,0.1411 0.1203,0.0853 0.31473,-0.19452 0.51678,0.7789 0.43127,2.07773 -0.15096,2.29281 -1.75925,7.49984 -3.70643,12 -0.84986,1.96411 -2.97216,6.22572 -3.3466,6.72 -0.23546,0.31083 -0.24019,0.30854 -0.165,-0.08 0.12274,-0.63426 0.12392,-6.68431 0.002,-7.92 -0.16759,-1.69228 -0.58717,-3.92 -0.7383,-3.92 -0.0737,0 -0.17916,0.0732 -0.23443,0.16261 -0.0553,0.0894 -0.18553,0.11389 -0.28945,0.0543 -0.10391,-0.0596 -0.13684,-0.0506 -0.0732,0.0198 0.0637,0.0704 -0.004,0.33011 -0.14939,0.57701 -0.24692,0.418 -0.24688,0.58998 4.8e-4,2.49755 0.14611,1.12675 0.30964,2.73264 0.36342,3.56864 0.12102,1.88147 -0.14955,5.86178 -0.57626,8.47734 -0.17666,1.08284 -0.29729,1.99272 -0.26807,2.02194 0.0292,0.0292 0.42761,-0.0892 0.8853,-0.26308 0.74971,-0.28486 1.49239,-0.36052 1.49239,-0.36052 0,0 -0.105,0.13604 -0.38321,0.4621 -0.50231,0.56198 0.0454,0.43089 0.26989,0.44426 0.10243,0.006 0.19117,-0.0149 0.19117,-0.0149 0,0 -0.0187,0.058 -0.14607,0.1846 -1.41589,1.10636 -3.22138,1.9342 -4.00277,3.59361 -0.35598,0.79993 -0.54701,2.79487 -0.36205,3.7808 0.14764,0.78699 0.74766,1.31173 1.66465,1.45582 l 0.74475,0.11703 -0.66538,0.13702 c -0.36597,0.0753 -0.74952,0.22552 -0.74803,0.35238 0.003,0.25142 0.38411,0.14266 0.65524,0.24335 -0.27052,0.0799 -0.57481,0.24873 -0.76183,0.3312 0,0.26308 1.8832,4.45004 2.58938,5.75702 0.3566,0.66 1.08267,1.803 1.61347,2.53999 0.58785,0.81621 0.97136,1.51366 0.98113,1.78427 0.009,0.24436 0.07,0.41111 0.13602,0.37057 0.066,-0.0405 0.12,0.26165 0.12,0.67155 0,1.94439 -1.56554,3.32746 -4.71256,4.16326 -0.84699,0.22495 -1.25367,0.43659 -1.70371,0.88663 -0.99135,0.99136 -1.00619,1.88088 -0.056,3.35577 0.61166,0.94939 0.68488,1.47949 0.28625,2.07236 -0.47222,0.70233 -1.5561,1.63956 -2.25401,1.94904 -0.374,0.16584 -0.68,0.3263 -0.68,0.35657 0,0.0303 0.14242,0.36891 0.31649,0.75252 0.42861,0.94458 0.41038,1.97695 -0.0491,2.77747 -0.21244,0.37015 -0.47853,0.63107 -0.63109,0.61882 -0.14508,-0.0116 -0.2486,0.0372 -0.23005,0.10851 0.0185,0.0713 -0.29028,0.30245 -0.68628,0.5136 -0.47496,0.25325 -0.88336,0.64754 -1.2,1.15853 -0.47555,0.76743 -0.48036,0.79843 -0.51947,3.3448 -0.0594,3.87146 -0.57743,5.12416 -2.52055,6.09574 -0.89673,0.44837 -1.07067,0.47854 -2.63998,0.45782 -1.90783,-0.0252 -3.34006,-0.27036 -7.44,-1.27359 -3.21242,-0.78606 -4.56,-1.00347 -4.56,-0.7357 0,0.0949 0.0769,0.22012 0.17091,0.27821 0.094,0.0581 0.13259,0.20548 0.0858,0.32752 -0.0468,0.12205 -0.0229,0.20477 0.0532,0.18382 0.19947,-0.0549 2.58512,3.08816 2.4769,3.26327 -0.0498,0.0806 -0.0161,0.12679 0.075,0.10261 0.23956,-0.0636 3.24556,3.86229 3.11681,4.07061 -0.0602,0.0975 -0.0349,0.12967 0.0572,0.0727 0.14956,-0.0924 1.16576,1.19239 7.04224,8.90391 0.99383,1.30417 1.75871,2.44929 1.69973,2.54472 -0.059,0.0954 -0.037,0.13009 0.0489,0.077 0.21602,-0.1335 2.02016,2.24185 1.87775,2.47227 -0.0669,0.10827 -0.0438,0.14089 0.0562,0.0791 0.17791,-0.10996 3.19194,3.82096 3.7107,4.83953 0.56276,1.10496 0.80871,2.27725 0.80871,3.85457 0,0.9844 0.0722,1.63596 0.2,1.80519 0.11,0.14565 1.208,0.73952 2.44,1.31972 3.19439,1.50436 5.8507,2.96988 5.73178,3.16229 -0.0594,0.0961 -0.022,0.11485 0.0904,0.0453 0.33185,-0.20509 2.03049,1.22958 1.8334,1.54849 -0.0437,0.0706 0.007,0.10865 0.11235,0.0845 0.26719,-0.0613 0.90284,1.22251 1.12433,2.27075 0.10165,0.48108 0.15169,1.44693 0.11121,2.14633 -0.0638,1.10154 -0.12511,1.31344 -0.45855,1.58418 -0.32101,0.26064 -0.54504,0.29769 -1.34897,0.22304 -2.73418,-0.25385 -9.79754,-2.69406 -14.94125,-5.16181 -1.1799,-0.56608 -2.17327,-1.00124 -2.20748,-0.96702 -0.0342,0.0342 0.39117,0.40433 0.94528,0.82249 0.55412,0.41816 0.9877,0.82815 0.96352,0.91108 -0.0242,0.0829 0.0295,0.10539 0.11926,0.0499 0.13083,-0.0809 2.41421,1.33406 2.7247,1.68839 0.10065,0.11486 2.2504,1.43919 6.16,3.79482 4.71638,2.84172 8.4665,5.38592 9.12711,6.1921 1.21915,1.48781 1.34851,3.66799 0.27659,4.66141 -0.71048,0.65845 -1.5021,0.46779 -3.7237,-0.89686 -1.25972,-0.7738 -7.43426,-4.52807 -7.58075,-4.60928 -0.0774,-0.0429 -0.11342,-0.004 -0.08,0.086 0.074,0.1999 2.15264,1.97048 3.30429,2.81462 0.46423,0.34027 0.79085,0.69021 0.73244,0.78472 -0.0613,0.0993 -0.0299,0.12391 0.0752,0.059 0.21654,-0.13383 2.62333,1.63692 2.49879,1.83843 -0.0476,0.0771 0.007,0.10654 0.12173,0.0656 0.11457,-0.041 0.46031,0.13789 0.76831,0.39753 l 0.56,0.47206 -49.72,0.004 c -48.46726,0.004 -49.72007,-0.003 -49.72007,-0.29498 0,-0.7239 1.01811,-5.90673 1.98418,-10.10072 0.19318,-0.83868 0.19752,-0.98377 0.0224,-0.74952 -0.53069,0.70983 -1.91684,6.95477 -2.25282,10.14952 l -0.10517,1 h -2.14429 c -1.78811,0 -2.14429,-0.0394 -2.14429,-0.2372 z m 83.05377,-39.52698 c -0.79637,-0.7677 -1.40212,-1.46994 -1.34613,-1.56054 0.059,-0.0956 0.0234,-0.11626 -0.0849,-0.0493 -0.21387,0.13218 -1.98438,-1.30912 -1.85844,-1.51289 0.0445,-0.072 -0.003,-0.18305 -0.1064,-0.24673 -0.117,-0.0723 -0.14447,-0.0464 -0.0732,0.069 0.0628,0.1016 0.0752,0.18472 0.0275,0.18472 -0.20017,0 -3.43547,-2.61768 -3.36874,-2.72565 0.0402,-0.065 -0.0522,-0.10835 -0.20521,-0.0963 -0.15391,0.0121 -0.25863,-0.0728 -0.23432,-0.18995 0.0242,-0.11654 -0.0213,-0.17152 -0.10119,-0.12218 -0.0798,0.0493 -0.33362,-0.0585 -0.56396,-0.23972 -0.81671,-0.64243 -0.4027,-0.0952 0.70131,0.92691 0.61606,0.57038 1.08289,1.09729 1.03739,1.17091 -0.0455,0.0736 0.002,0.18596 0.1046,0.24964 0.117,0.0723 0.14447,0.0464 0.0732,-0.0689 -0.25321,-0.40969 0.15143,-0.11951 1.71031,1.22656 0.89893,0.77621 2.22752,1.86452 2.95244,2.41847 0.72492,0.55395 1.27918,1.07005 1.23169,1.14689 -0.0475,0.0768 0.007,0.10615 0.12197,0.0652 0.11457,-0.041 0.45985,0.13429 0.76729,0.38952 1.05189,0.87327 0.66344,0.361 -0.78521,-1.0355 z m 1.17994,-0.51582 c -1.5394,-2.39261 -5.28224,-7.12123 -7.54159,-9.52786 -0.56171,-0.59832 -0.97788,-1.15811 -0.92481,-1.24396 0.0531,-0.0859 0.025,-0.13632 -0.0623,-0.11214 -0.2178,0.0603 -6.4393,-6.12352 -6.33333,-6.29499 0.0467,-0.0756 -0.01,-0.10111 -0.12513,-0.0568 -0.11552,0.0443 -0.56501,-0.28532 -0.99886,-0.73256 -1.14672,-1.18209 -1.51029,-1.31193 -0.78885,-0.28172 1.46495,2.09191 1.17567,1.7206 3.77857,4.85001 1.09791,1.32 2.65893,3.13792 3.46894,4.03981 0.92528,1.03025 1.42991,1.71423 1.35753,1.84 -0.0634,0.11011 -0.0563,0.14681 0.0157,0.0816 0.17913,-0.16228 0.58205,0.1941 0.45389,0.40146 -0.0566,0.0916 -0.0315,0.12245 0.0558,0.0685 0.2367,-0.14629 1.39321,1.09811 1.24437,1.33893 -0.0723,0.11691 -0.0575,0.15865 0.0356,0.10107 0.20305,-0.12549 1.37853,1.06751 1.21398,1.23206 -0.0678,0.0678 -0.0391,0.0993 0.0638,0.0699 0.10286,-0.0293 1.07486,0.81432 2.16,1.87477 2.67231,2.61154 3.54489,3.31274 2.92669,2.3519 z m -74.08054,-13.78894 c 0.0506,-0.0819 0.0309,-0.18676 -0.0439,-0.23297 -0.0748,-0.0462 -0.13595,0.0208 -0.13595,0.14895 0,0.26979 0.0505,0.29336 0.17984,0.084 z m 5.20683,-0.078 c 0,-0.0368 -0.27,-0.23015 -0.6,-0.42962 -1.91275,-1.15614 -6.42722,-4.19467 -6.36993,-4.28737 0.0373,-0.0603 -0.0827,-0.12097 -0.26659,-0.13482 -0.27832,-0.021 -0.22224,0.089 0.33469,0.65652 0.36797,0.37493 0.61342,0.74286 0.54543,0.81762 -0.068,0.0748 -0.0321,0.0832 0.0797,0.0188 0.22333,-0.12868 1.26573,0.6609 1.19276,0.90346 -0.0242,0.0804 0.0178,0.10797 0.0933,0.0613 0.0755,-0.0466 0.41926,0.1099 0.76396,0.34789 1.32091,0.91198 4.22673,2.31871 4.22673,2.04619 z m -4.89648,-3.74638 c 0.0453,-0.0733 -0.0193,-0.13334 -0.14352,-0.13334 -0.12426,0 -0.18884,0.06 -0.14352,0.13334 0.0453,0.0733 0.10991,0.13333 0.14352,0.13333 0.0336,0 0.0982,-0.06 0.14352,-0.13333 z m 55.06007,-33.75285 c -0.88183,-6.71217 -2.04319,-12.46936 -3.70238,-18.35382 -0.90653,-3.21507 -2.14218,-7.01236 -2.24757,-6.90698 -0.0439,0.0439 0.25534,1.54399 0.66507,3.33344 0.40973,1.78945 1.06003,4.65754 1.4451,6.37354 0.38508,1.716 1.06567,4.74 1.51244,6.72 0.78985,3.50046 1.85393,8.37472 2.25293,10.32 0.31986,1.55942 0.36254,0.70695 0.0744,-1.48618 z m 31.98703,-31.08899 c -0.0944,-0.15276 1.51933,-1.52072 1.72333,-1.46087 0.0824,0.0242 0.11033,-0.02 0.062,-0.0981 -0.12987,-0.21013 2.46877,-2.92026 2.68288,-2.798 0.0996,0.0569 0.12775,0.0445 0.0625,-0.0275 -0.14541,-0.16051 0.18348,-0.58861 0.36568,-0.476 0.0719,0.0445 0.18292,-0.003 0.2466,-0.10648 0.0765,-0.12375 0.046,-0.14423 -0.0897,-0.0603 -0.39658,0.2451 -0.0812,-0.21173 0.79604,-1.15294 1.92227,-2.06253 2.82382,-3.19412 2.66853,-3.34941 -0.0878,-0.0878 -4.31344,4.06814 -5.7204,5.62611 -1.23984,1.37291 -3.18813,3.75781 -3.18813,3.90258 0,0.0675 0.10483,0.12278 0.23296,0.12278 0.12813,0 0.19908,-0.0548 0.15766,-0.12184 z m 8.02836,113.52668 c -1.63969,-0.57286 -3.798,-1.6713 -3.67499,-1.87033 0.0612,-0.0991 0.03,-0.12398 -0.0746,-0.0594 -0.2528,0.15624 -1.18592,-0.35333 -1.04993,-0.57336 0.0671,-0.1086 0.0371,-0.13286 -0.0772,-0.0623 -0.15106,0.0934 -2.90232,-1.42153 -2.90232,-1.59807 0,-0.0268 0.51184,0.13019 1.13743,0.34876 1.41102,0.49298 3.43056,0.96533 4.72121,1.10424 0.96503,0.10387 0.98117,0.11378 1.16073,0.71312 0.10016,0.33428 0.28898,0.69649 0.4196,0.8049 0.13063,0.10841 0.19117,0.27207 0.13455,0.3637 -0.0566,0.0916 -0.0267,0.11945 0.0666,0.0618 0.13171,-0.0814 0.95564,0.48222 1.62659,1.11269 0.16661,0.15656 -0.47978,0.006 -1.48769,-0.34585 z"
         id="path3148"
         sodipodi:nodetypes="csscscsssscsscssscscsssscscsscsscscscccssssscscccscsssccssssscssssssccssccssscccccccccscsscsssccssscsssscscsccsssscccscccssccsccsscssssssssssccsscsssssssssccsssssssssscccscssssssssssssscsccccsccsssscscccccsccssssscsscsssscsccssssscssssscssccscssscsscccccccscscsccsssssssssssssscscscccccsssscccccscsssssssscc" /></g></g></svg>
