<?xml version="1.0" encoding="UTF-8" standalone="no"?>
<!-- Created with Inkscape (http://www.inkscape.org/) -->

<svg
   version="1.1"
   id="svg1"
   width="100.81776"
   height="130.78087"
   viewBox="0 0 100.81776 130.78087"
   sodipodi:docname="womanav12.svg"
   inkscape:version="1.2.2 (732a01da63, 2022-12-09)"
   xml:space="preserve"
   xmlns:inkscape="http://www.inkscape.org/namespaces/inkscape"
   xmlns:sodipodi="http://sodipodi.sourceforge.net/DTD/sodipodi-0.dtd"
   xmlns="http://www.w3.org/2000/svg"
   xmlns:svg="http://www.w3.org/2000/svg"><defs
     id="defs1" /><sodipodi:namedview
     id="namedview1"
     pagecolor="#ffffff"
     bordercolor="#cccccc"
     borderopacity="1"
     inkscape:showpageshadow="0"
     inkscape:pageopacity="1"
     inkscape:pagecheckerboard="0"
     inkscape:deskcolor="#d1d1d1"
     showgrid="false"
     inkscape:zoom="0.35355339"
     inkscape:cx="193.74726"
     inkscape:cy="121.62237"
     inkscape:window-width="1366"
     inkscape:window-height="705"
     inkscape:window-x="-8"
     inkscape:window-y="32"
     inkscape:window-maximized="1"
     inkscape:current-layer="g1" /><g
     inkscape:groupmode="layer"
     inkscape:label="Image"
     id="g1"
     transform="translate(231.64498,430.45967)"><g
       id="g3310"
       transform="matrix(0.83416343,0,0,0.83416343,-58.417129,-85.149651)"><path
         style="fill:#d0d0d0;fill-opacity:1;stroke-width:0.16"
         d="m -196.62042,-285.06883 c 0,-0.0275 0.234,-0.26153 0.52,-0.52 l 0.52,-0.46993 -0.46993,0.52 c -0.43805,0.48471 -0.57007,0.59354 -0.57007,0.46993 z m 1.6,-1.61034 c 0,-0.0332 0.126,-0.15922 0.28,-0.28 0.25377,-0.19902 0.25943,-0.19336 0.0604,0.0604 -0.20902,0.26652 -0.34041,0.35128 -0.34041,0.21959 z m 1.44,-3.50966 c 0,-0.0275 0.234,-0.26153 0.52,-0.52 l 0.52,-0.46993 -0.46993,0.52 c -0.43805,0.48471 -0.57007,0.59354 -0.57007,0.46993 z m 21.96304,-5.82081 c 0.15568,-0.0406 0.37168,-0.0379 0.48,0.006 0.10833,0.0438 -0.019,0.077 -0.28304,0.0738 -0.264,-0.003 -0.35263,-0.0391 -0.19696,-0.0797 z m 18.49655,-2.56912 c -0.19902,-0.25377 -0.19336,-0.25943 0.0604,-0.0604 0.154,0.12078 0.28,0.24678 0.28,0.28 0,0.13169 -0.13139,0.0469 -0.34041,-0.21959 z m -5.92,-5.28 c -0.19902,-0.25377 -0.19336,-0.25943 0.0604,-0.0604 0.26652,0.20902 0.35128,0.34041 0.21959,0.34041 -0.0332,0 -0.15922,-0.126 -0.28,-0.28 z m -4.48,-4.48 c -0.19902,-0.25377 -0.19336,-0.25943 0.0604,-0.0604 0.154,0.12078 0.28,0.24678 0.28,0.28 0,0.13169 -0.13139,0.0469 -0.34041,-0.21959 z m 7.36,-6.56 c -0.19902,-0.25377 -0.19336,-0.25943 0.0604,-0.0604 0.26652,0.20902 0.35128,0.34041 0.21959,0.34041 -0.0332,0 -0.15922,-0.126 -0.28,-0.28 z m -1.76,-1.6 c -0.19902,-0.25377 -0.19336,-0.25943 0.0604,-0.0604 0.26652,0.20902 0.35128,0.34041 0.21959,0.34041 -0.0332,0 -0.15922,-0.126 -0.28,-0.28 z m -3.91479,-3.92 -0.3048,-0.36 0.36,0.3048 c 0.33831,0.28643 0.43284,0.4152 0.3048,0.4152 -0.0304,0 -0.19236,-0.162 -0.36,-0.36 z m 13.6,-0.8 -0.3048,-0.36 0.36,0.3048 c 0.33831,0.28643 0.43284,0.4152 0.3048,0.4152 -0.0304,0 -0.19236,-0.162 -0.36,-0.36 z m -15.60521,-1.36 c -0.19902,-0.25377 -0.19336,-0.25943 0.0604,-0.0604 0.26652,0.20902 0.35128,0.34041 0.21959,0.34041 -0.0332,0 -0.15922,-0.126 -0.28,-0.28 z m 12.0083,-2.24 -0.38789,-0.44 0.44,0.38789 c 0.41125,0.36254 0.51337,0.49211 0.38789,0.49211 -0.0287,0 -0.22666,-0.198 -0.44,-0.44 z m -47.65526,-2.85333 c 0.008,-0.18639 0.0456,-0.22431 0.0967,-0.0967 0.0462,0.1155 0.0405,0.2535 -0.0126,0.30667 -0.0532,0.0532 -0.091,-0.0413 -0.084,-0.21 z m 43.09217,-0.10667 -0.3048,-0.36 0.36,0.3048 c 0.33831,0.28643 0.43284,0.4152 0.3048,0.4152 -0.0304,0 -0.19236,-0.162 -0.36,-0.36 z m -43.22122,-2.84 c 0,-0.396 0.0312,-0.558 0.0693,-0.36 0.0381,0.198 0.0381,0.522 0,0.72 -0.0381,0.198 -0.0693,0.036 -0.0693,-0.36 z m -0.0309,-5.05333 c 0.008,-0.18639 0.0456,-0.22431 0.0967,-0.0967 0.0462,0.1155 0.0405,0.2535 -0.0126,0.30667 -0.0532,0.0532 -0.091,-0.0413 -0.084,-0.21 z m 0.0186,-0.78667 c 0.003,-0.264 0.0391,-0.35263 0.0797,-0.19696 0.0406,0.15568 0.0379,0.37168 -0.006,0.48 -0.0438,0.10833 -0.077,-0.019 -0.0738,-0.28304 z m 0.15407,-2.8 c 0,-0.22 0.0363,-0.31 0.0807,-0.2 0.0444,0.11 0.0444,0.29 0,0.4 -0.0444,0.11 -0.0807,0.02 -0.0807,-0.2 z m 76.45474,-6.94041 c 0,-0.0332 0.126,-0.15922 0.28,-0.28 0.25377,-0.19902 0.25943,-0.19336 0.0604,0.0604 -0.20902,0.26652 -0.34041,0.35128 -0.34041,0.21959 z m 3.04,-4.96 c 0,-0.0332 0.126,-0.15922 0.28,-0.28 0.25377,-0.19902 0.25943,-0.19336 0.0604,0.0604 -0.20902,0.26652 -0.34041,0.35128 -0.34041,0.21959 z m 2.4,-0.32 c 0,-0.0332 0.126,-0.15922 0.28,-0.28 0.25377,-0.19902 0.25943,-0.19336 0.0604,0.0604 -0.20902,0.26652 -0.34041,0.35128 -0.34041,0.21959 z m 4.32,-4.64 c 0,-0.0332 0.126,-0.15922 0.28,-0.28 0.25377,-0.19902 0.25943,-0.19336 0.0604,0.0604 -0.20902,0.26652 -0.34041,0.35128 -0.34041,0.21959 z m 4.32,-7.52 c 0,-0.0332 0.126,-0.15922 0.28,-0.28 0.25377,-0.19902 0.25943,-0.19336 0.0604,0.0604 -0.20902,0.26652 -0.34041,0.35128 -0.34041,0.21959 z m -47.78156,-36.17959 c 4.8e-4,-0.88 0.0273,-1.21959 0.0597,-0.75464 0.0324,0.46495 0.0321,1.18495 -8e-4,1.6 -0.0328,0.41505 -0.0593,0.0346 -0.0589,-0.84536 z m 0.27419,-0.97333 c 0.008,-0.18639 0.0456,-0.22431 0.0967,-0.0967 0.0462,0.1155 0.0405,0.2535 -0.0126,0.30667 -0.0532,0.0532 -0.091,-0.0413 -0.084,-0.21 z"
         id="path3326" /><path
         style="fill:#b9b9b9;fill-opacity:1;stroke-width:0.16"
         d="m -173.45042,-295.84806 c 0.1155,-0.0462 0.2535,-0.0405 0.30667,0.0126 0.0532,0.0532 -0.0413,0.091 -0.21,0.084 -0.18639,-0.008 -0.22431,-0.0456 -0.0967,-0.0967 z m 8.32,0 c 0.1155,-0.0462 0.2535,-0.0405 0.30667,0.0126 0.0532,0.0532 -0.0413,0.091 -0.21,0.084 -0.18639,-0.008 -0.22431,-0.0456 -0.0967,-0.0967 z m -2.48696,-0.16158 c 0.15568,-0.0406 0.37168,-0.0379 0.48,0.006 0.10833,0.0438 -0.019,0.077 -0.28304,0.0738 -0.264,-0.003 -0.35263,-0.0391 -0.19696,-0.0797 z m 1.95195,-11.12912 -0.95499,-1 1,0.95499 c 0.92892,0.88711 1.07322,1.04501 0.95499,1.04501 -0.0248,0 -0.47475,-0.45 -1,-1 z m 13.8246,0.08 c -0.19902,-0.25377 -0.19336,-0.25943 0.0604,-0.0604 0.154,0.12078 0.28,0.24678 0.28,0.28 0,0.13169 -0.13139,0.0469 -0.34041,-0.21959 z m -3.91479,-3.92 -0.3048,-0.36 0.36,0.3048 c 0.198,0.16764 0.36,0.32964 0.36,0.36 0,0.12804 -0.12877,0.0335 -0.4152,-0.3048 z m -3.68,-7.04 -0.3048,-0.36 0.36,0.3048 c 0.33831,0.28643 0.43284,0.4152 0.3048,0.4152 -0.0304,0 -0.19236,-0.162 -0.36,-0.36 z m 9.83479,-4.56 c -0.19902,-0.25377 -0.19336,-0.25943 0.0604,-0.0604 0.26652,0.20902 0.35128,0.34041 0.21959,0.34041 -0.0332,0 -0.15922,-0.126 -0.28,-0.28 z m 51.233042,-5.41333 c 0.0077,-0.18639 0.04559,-0.22431 0.09667,-0.0967 0.04622,0.1155 0.04054,0.2535 -0.01262,0.30667 -0.05317,0.0532 -0.09098,-0.0413 -0.08404,-0.21 z m -22.012632,-20.70667 c 0.15928,-0.176 0.3256,-0.32 0.3696,-0.32 0.044,0 -0.0503,0.144 -0.2096,0.32 -0.15928,0.176 -0.3256,0.32 -0.3696,0.32 -0.044,0 0.0503,-0.144 0.2096,-0.32 z m 3.52,-3.52 c 0.15928,-0.176 0.3256,-0.32 0.3696,-0.32 0.044,0 -0.0503,0.144 -0.2096,0.32 -0.15928,0.176 -0.3256,0.32 -0.3696,0.32 -0.044,0 0.0503,-0.144 0.2096,-0.32 z m -28.86737,-27.29333 c 0.008,-0.18639 0.0456,-0.22431 0.0967,-0.0967 0.0462,0.1155 0.0405,0.2535 -0.0126,0.30667 -0.0532,0.0532 -0.091,-0.0413 -0.084,-0.21 z m -0.17263,-2.31611 c 0,-0.1812 0.0689,-0.28689 0.15301,-0.23488 0.0842,0.052 0.11246,0.20026 0.0629,0.32944 -0.12691,0.33074 -0.21589,0.29177 -0.21589,-0.0946 z"
         id="path3324" /><path
         style="fill:#a3a3a3;fill-opacity:1;stroke-width:0.16"
         d="m -170.89042,-298.88806 c 0.1155,-0.0462 0.2535,-0.0405 0.30667,0.0126 0.0532,0.0532 -0.0413,0.091 -0.21,0.084 -0.18639,-0.008 -0.22431,-0.0456 -0.0967,-0.0967 z m -8.01,-0.15666 c 0.11,-0.0444 0.29,-0.0444 0.4,0 0.11,0.0444 0.02,0.0807 -0.2,0.0807 -0.22,0 -0.31,-0.0363 -0.2,-0.0807 z m 4.56,-0.009 c 0.242,-0.0367 0.638,-0.0367 0.88,0 0.242,0.0367 0.044,0.0666 -0.44,0.0666 -0.484,0 -0.682,-0.03 -0.44,-0.0666 z m 51.64,-0.37484 c 0,-0.0932 0.072,-0.12495 0.16,-0.0706 0.088,0.0544 0.16,0.13064 0.16,0.16944 0,0.0388 -0.072,0.0706 -0.16,0.0706 -0.088,0 -0.16,-0.0763 -0.16,-0.16944 z m -37.46041,-5.55056 c -0.19902,-0.25377 -0.19336,-0.25943 0.0604,-0.0604 0.154,0.12078 0.28,0.24678 0.28,0.28 0,0.13169 -0.13139,0.0469 -0.34041,-0.21959 z m 0.0852,-13.68 -0.3048,-0.36 0.36,0.3048 c 0.33831,0.28643 0.43284,0.4152 0.3048,0.4152 -0.0304,0 -0.19236,-0.162 -0.36,-0.36 z m -1.03691,-1.04 -0.38789,-0.44 0.44,0.38789 c 0.41125,0.36254 0.51337,0.49211 0.38789,0.49211 -0.0287,0 -0.22666,-0.198 -0.44,-0.44 z m 12.16,-2.24 -0.38789,-0.44 0.44,0.38789 c 0.41125,0.36254 0.51337,0.49211 0.38789,0.49211 -0.0287,0 -0.22666,-0.198 -0.44,-0.44 z m -1.4365,-1.44 -0.55139,-0.6 0.6,0.55139 c 0.33,0.30326 0.6,0.57326 0.6,0.6 0,0.12218 -0.1354,0.007 -0.64861,-0.55139 z m -8.0118,-6.24 c -0.19902,-0.25377 -0.19336,-0.25943 0.0604,-0.0604 0.154,0.12078 0.28,0.24678 0.28,0.28 0,0.13169 -0.13139,0.0469 -0.34041,-0.21959 z m -2.14966,-2.16 -0.46993,-0.52 0.52,0.46993 c 0.48471,0.43805 0.59354,0.57007 0.46993,0.57007 -0.0275,0 -0.26153,-0.234 -0.52,-0.52 z m 42.65007,-21.78041 c 0,-0.0332 0.126,-0.15922 0.28,-0.28 0.25377,-0.19902 0.25943,-0.19336 0.0604,0.0604 -0.20902,0.26652 -0.34041,0.35128 -0.34041,0.21959 z m -18.27,-60.36889 c 0.1155,-0.0462 0.2535,-0.0405 0.30667,0.0126 0.0532,0.0532 -0.0413,0.091 -0.21,0.084 -0.18639,-0.008 -0.22431,-0.0456 -0.0967,-0.0967 z"
         id="path3322" /><path
         style="fill:#8c8c8c;fill-opacity:1;stroke-width:0.16"
         d="m -114.57042,-276.80806 c 0.1155,-0.0462 0.2535,-0.0405 0.30667,0.0126 0.0532,0.0532 -0.0413,0.091 -0.21,0.084 -0.18639,-0.008 -0.22431,-0.0456 -0.0967,-0.0967 z m -77.89,-14.51111 c 0,-0.0332 0.126,-0.15922 0.28,-0.28 0.25377,-0.19902 0.25943,-0.19336 0.0604,0.0604 -0.20902,0.26652 -0.34041,0.35128 -0.34041,0.21959 z m 22.44483,-4.69739 c 0.42065,-0.0331 1.06865,-0.0327 1.44,9.6e-4 0.37134,0.0335 0.0272,0.0606 -0.76483,0.0601 -0.792,-4.8e-4 -1.09583,-0.0279 -0.67517,-0.061 z m 8.74656,-10.0822 -0.55139,-0.6 0.6,0.55139 c 0.33,0.30326 0.6,0.57326 0.6,0.6 0,0.12218 -0.1354,0.007 -0.64861,-0.55139 z m -5.6118,-2.24 c -0.19902,-0.25377 -0.19336,-0.25943 0.0604,-0.0604 0.26652,0.20902 0.35128,0.34041 0.21959,0.34041 -0.0332,0 -0.15922,-0.126 -0.28,-0.28 z m -32.71908,-25 c 0,-1.012 0.026,-1.426 0.0577,-0.92 0.0317,0.506 0.0317,1.334 0,1.84 -0.0317,0.506 -0.0577,0.092 -0.0577,-0.92 z m 0.12475,-5.12 c 0,-0.22 0.0363,-0.31 0.0807,-0.2 0.0444,0.11 0.0444,0.29 0,0.4 -0.0444,0.11 -0.0807,0.02 -0.0807,-0.2 z m 75.97474,-7.26041 c 0,-0.0332 0.126,-0.15922 0.28,-0.28 0.25377,-0.19902 0.25943,-0.19336 0.0604,0.0604 -0.20902,0.26652 -0.34041,0.35128 -0.34041,0.21959 z m -33.25474,-51.93959 c 0,-0.22 0.0363,-0.31 0.0807,-0.2 0.0444,0.11 0.0444,0.29 0,0.4 -0.0444,0.11 -0.0807,0.02 -0.0807,-0.2 z m -0.0126,-4.25333 c 0.008,-0.18639 0.0456,-0.22431 0.0967,-0.0967 0.0462,0.1155 0.0405,0.2535 -0.0126,0.30667 -0.0532,0.0532 -0.091,-0.0413 -0.084,-0.21 z"
         id="path3320" /><path
         style="fill:#767676;fill-opacity:1;stroke-width:0.16"
         d="m -120.09738,-278.56964 c 0.15568,-0.0406 0.37168,-0.0379 0.48,0.006 0.10833,0.0438 -0.019,0.077 -0.28304,0.0738 -0.264,-0.003 -0.35263,-0.0391 -0.19696,-0.0797 z m 0.87696,0.005 c 0.11,-0.0444 0.29,-0.0444 0.4,0 0.11,0.0444 0.02,0.0807 -0.2,0.0807 -0.22,0 -0.31,-0.0363 -0.2,-0.0807 z m -77.88,-5.87444 c 0,-0.0332 0.126,-0.15922 0.28,-0.28 0.25377,-0.19902 0.25943,-0.19336 0.0604,0.0604 -0.20902,0.26652 -0.34041,0.35128 -0.34041,0.21959 z m 24.13,-11.40889 c 0.1155,-0.0462 0.2535,-0.0405 0.30667,0.0126 0.0532,0.0532 -0.0413,0.091 -0.21,0.084 -0.18639,-0.008 -0.22431,-0.0456 -0.0967,-0.0967 z m 7.2,0 c 0.1155,-0.0462 0.2535,-0.0405 0.30667,0.0126 0.0532,0.0532 -0.0413,0.091 -0.21,0.084 -0.18639,-0.008 -0.22431,-0.0456 -0.0967,-0.0967 z m 14.4948,-10.6507 -0.3048,-0.36 0.36,0.3048 c 0.33831,0.28643 0.43284,0.4152 0.3048,0.4152 -0.0304,0 -0.19236,-0.162 -0.36,-0.36 z m -15.04,-4.96 -0.3048,-0.36 0.36,0.3048 c 0.33831,0.28643 0.43284,0.4152 0.3048,0.4152 -0.0304,0 -0.19236,-0.162 -0.36,-0.36 z m 9.76,-0.32 -0.3048,-0.36 0.36,0.3048 c 0.33831,0.28643 0.43284,0.4152 0.3048,0.4152 -0.0304,0 -0.19236,-0.162 -0.36,-0.36 z m 1.19479,-14.96 c -0.19902,-0.25377 -0.19336,-0.25943 0.0604,-0.0604 0.26652,0.20902 0.35128,0.34041 0.21959,0.34041 -0.0332,0 -0.15922,-0.126 -0.28,-0.28 z m -2.2282,-2.08 -0.55139,-0.6 0.6,0.55139 c 0.33,0.30326 0.6,0.57326 0.6,0.6 0,0.12218 -0.1354,0.007 -0.64861,-0.55139 z m -4.24659,-4.24 -0.3048,-0.36 0.36,0.3048 c 0.198,0.16764 0.36,0.32964 0.36,0.36 0,0.12804 -0.12877,0.0335 -0.4152,-0.3048 z m 16.12046,-45.72 c 0,-0.22 0.0363,-0.31 0.0807,-0.2 0.0444,0.11 0.0444,0.29 0,0.4 -0.0444,0.11 -0.0807,0.02 -0.0807,-0.2 z m -35.38526,-15.92 c 0.20668,-0.22 0.41178,-0.4 0.45578,-0.4 0.044,0 -0.0891,0.18 -0.29578,0.4 -0.20668,0.22 -0.41178,0.4 -0.45578,0.4 -0.044,0 0.0891,-0.18 0.29578,-0.4 z"
         id="path3318" /><path
         style="fill:#606060;fill-opacity:1;stroke-width:0.16"
         d="m -104.9033,-279.09876 c 0,-0.308 0.0329,-0.434 0.0732,-0.28 0.0403,0.154 0.0403,0.406 0,0.56 -0.0402,0.154 -0.0732,0.028 -0.0732,-0.28 z m -40.6037,-1.93064 c -0.058,-0.0939 -0.0623,-0.21386 -0.009,-0.26667 0.0528,-0.0528 0.096,-0.008 0.096,0.10009 0,0.10786 0.0831,0.14473 0.18472,0.0819 0.11445,-0.0707 0.14129,-0.0439 0.0706,0.0706 -0.14146,0.22889 -0.20742,0.2316 -0.34186,0.0141 z m 29.41016,-2.86936 c 0,-0.396 0.0312,-0.558 0.0693,-0.36 0.0381,0.198 0.0381,0.522 0,0.72 -0.0381,0.198 -0.0693,0.036 -0.0693,-0.36 z m -65.67358,-14.9893 c 0.1155,-0.0462 0.2535,-0.0405 0.30667,0.0126 0.0532,0.0532 -0.0413,0.091 -0.21,0.084 -0.18639,-0.008 -0.22431,-0.0456 -0.0967,-0.0967 z m 2.07,-0.15666 c 0.11,-0.0444 0.29,-0.0444 0.4,0 0.11,0.0444 0.02,0.0807 -0.2,0.0807 -0.22,0 -0.31,-0.0363 -0.2,-0.0807 z m 6.8,-0.004 c 0.154,-0.0402 0.406,-0.0402 0.56,0 0.154,0.0402 0.028,0.0732 -0.28,0.0732 -0.308,0 -0.434,-0.0329 -0.28,-0.0732 z m 16.57959,-2.4097 c -0.19902,-0.25377 -0.19336,-0.25943 0.0604,-0.0604 0.154,0.12078 0.28,0.24678 0.28,0.28 0,0.13169 -0.13139,0.0469 -0.34041,-0.21959 z m 13.76,-1.76 c -0.19902,-0.25377 -0.19336,-0.25943 0.0604,-0.0604 0.154,0.12078 0.28,0.24678 0.28,0.28 0,0.13169 -0.13139,0.0469 -0.34041,-0.21959 z m -12.96,-11.2 c -0.19902,-0.25377 -0.19336,-0.25943 0.0604,-0.0604 0.26652,0.20902 0.35128,0.34041 0.21959,0.34041 -0.0332,0 -0.15922,-0.126 -0.28,-0.28 z m 46.38228,-0.31316 c 0.19902,-0.0383 0.48702,-0.0368 0.64,0.003 0.15297,0.04 -0.01,0.0714 -0.36187,0.0696 -0.352,-0.002 -0.47716,-0.0345 -0.27813,-0.0728 z m -37.80348,-5.32945 c -0.0553,-0.0894 -0.17865,-0.11431 -0.27417,-0.0553 -0.10615,0.0656 -0.12742,0.0325 -0.0547,-0.0852 0.0911,-0.14739 0.17186,-0.14859 0.34472,-0.005 0.22644,0.18792 0.287,0.30817 0.1552,0.30817 -0.0388,0 -0.11578,-0.0732 -0.17105,-0.16261 z m -17.2188,-15.47739 c -0.19902,-0.25377 -0.19336,-0.25943 0.0604,-0.0604 0.154,0.12078 0.28,0.24678 0.28,0.28 0,0.13169 -0.13139,0.0469 -0.34041,-0.21959 z m 72.845672,-4.84 c 0,-0.22 0.03632,-0.31 0.0807,-0.2 0.04438,0.11 0.04438,0.29 0,0.4 -0.04439,0.11 -0.0807,0.02 -0.0807,-0.2 z m -28.345262,-8.85007 c 0,-0.0275 0.234,-0.26153 0.52,-0.52 l 0.52,-0.46993 -0.46993,0.52 c -0.43805,0.48471 -0.57007,0.59354 -0.57007,0.46993 z m 1.36,-1.38993 c 0.15928,-0.176 0.3256,-0.32 0.3696,-0.32 0.044,0 -0.0503,0.144 -0.2096,0.32 -0.15928,0.176 -0.3256,0.32 -0.3696,0.32 -0.044,0 0.0503,-0.144 0.2096,-0.32 z m 3.04,-3.2 c 0.15928,-0.176 0.3256,-0.32 0.3696,-0.32 0.044,0 -0.0503,0.144 -0.2096,0.32 -0.15928,0.176 -0.3256,0.32 -0.3696,0.32 -0.044,0 0.0503,-0.144 0.2096,-0.32 z m 1.52,-1.66041 c 0,-0.0332 0.126,-0.15922 0.28,-0.28 0.25377,-0.19902 0.25943,-0.19336 0.0604,0.0604 -0.20902,0.26652 -0.34041,0.35128 -0.34041,0.21959 z m -32.14737,-25.31292 c 0.008,-0.18639 0.0456,-0.22431 0.0967,-0.0967 0.0462,0.1155 0.0405,0.2535 -0.0126,0.30667 -0.0532,0.0532 -0.091,-0.0413 -0.084,-0.21 z m -0.066,-2.25334 c -0.0587,-0.0587 -0.10667,-0.18106 -0.10667,-0.272 0,-0.10025 0.0745,-0.0908 0.18933,0.024 0.10414,0.10414 0.15214,0.22654 0.10667,0.272 -0.0455,0.0455 -0.13067,0.0347 -0.18933,-0.024 z m -32.10667,-14.67374 c 0,-0.0332 0.126,-0.15922 0.28,-0.28 0.25377,-0.19902 0.25943,-0.19336 0.0604,0.0604 -0.20902,0.26652 -0.34041,0.35128 -0.34041,0.21959 z m 21.29263,-4.99292 c 0.008,-0.18639 0.0456,-0.22431 0.0967,-0.0967 0.0462,0.1155 0.0405,0.2535 -0.0126,0.30667 -0.0532,0.0532 -0.091,-0.0413 -0.084,-0.21 z m 19.55041,-11.21755 c 0.15568,-0.0406 0.37168,-0.0379 0.48,0.006 0.10833,0.0438 -0.019,0.077 -0.28304,0.0738 -0.264,-0.003 -0.35263,-0.0391 -0.19696,-0.0797 z"
         id="path3316" /><path
         style="fill:#494949;fill-opacity:1;stroke-width:0.16"
         d="m -113.93855,-276.81192 c 0.19902,-0.0383 0.48702,-0.0368 0.64,0.003 0.15297,0.0401 -0.01,0.0714 -0.36187,0.0696 -0.352,-0.002 -0.47716,-0.0345 -0.27813,-0.0728 z m -81.48187,-9.32684 c 0.15928,-0.176 0.3256,-0.32 0.3696,-0.32 0.044,0 -0.0503,0.144 -0.2096,0.32 -0.15928,0.176 -0.3256,0.32 -0.3696,0.32 -0.044,0 0.0503,-0.144 0.2096,-0.32 z m 58.57648,-12.13333 c -0.0453,-0.0733 0.0193,-0.13334 0.14352,-0.13334 0.12426,0 0.18884,0.06 0.14352,0.13334 -0.0453,0.0733 -0.10991,0.13333 -0.14352,0.13333 -0.0336,0 -0.0982,-0.06 -0.14352,-0.13333 z m -17.12,-1.12 c -0.0453,-0.0733 0.0193,-0.13334 0.14352,-0.13334 0.12426,0 0.18884,0.06 0.14352,0.13334 -0.0453,0.0733 -0.10991,0.13333 -0.14352,0.13333 -0.0336,0 -0.0982,-0.06 -0.14352,-0.13333 z m -40.81648,-1.78667 c 0.15928,-0.176 0.3256,-0.32 0.3696,-0.32 0.044,0 -0.0503,0.144 -0.2096,0.32 -0.15928,0.176 -0.3256,0.32 -0.3696,0.32 -0.044,0 0.0503,-0.144 0.2096,-0.32 z m 0.6512,-0.46187 c -0.0482,-0.078 0.0375,-0.24003 0.19056,-0.36 0.24579,-0.19269 0.25508,-0.18842 0.0796,0.0366 -0.10924,0.1401 -0.15124,0.3021 -0.0933,0.36 0.0579,0.0579 0.0615,0.10528 0.008,0.10528 -0.0535,0 -0.13668,-0.0638 -0.18491,-0.14187 z m 30.60839,-3.33813 c -0.19902,-0.25377 -0.19336,-0.25943 0.0604,-0.0604 0.154,0.12078 0.28,0.24678 0.28,0.28 0,0.13169 -0.13139,0.0469 -0.34041,-0.21959 z m 14.88,-3.52 c -0.19902,-0.25377 -0.19336,-0.25943 0.0604,-0.0604 0.26652,0.20902 0.35128,0.34041 0.21959,0.34041 -0.0332,0 -0.15922,-0.126 -0.28,-0.28 z m -2.4,-2.08 c -0.19902,-0.25377 -0.19336,-0.25943 0.0604,-0.0604 0.154,0.12078 0.28,0.24678 0.28,0.28 0,0.13169 -0.13139,0.0469 -0.34041,-0.21959 z m -8.37276,-4.02894 c -0.0506,-0.0819 -0.0309,-0.18676 0.0439,-0.23297 0.0748,-0.0462 0.13595,0.0208 0.13595,0.14895 0,0.26979 -0.0505,0.29336 -0.17984,0.084 z m 5.81276,-10.53106 c -0.19902,-0.25377 -0.19336,-0.25943 0.0604,-0.0604 0.154,0.12078 0.28,0.24678 0.28,0.28 0,0.13169 -0.13139,0.0469 -0.34041,-0.21959 z m -3.12626,-2.67296 c 0,-0.12813 0.0612,-0.19516 0.13595,-0.14895 0.0748,0.0462 0.0945,0.15105 0.0439,0.23297 -0.12938,0.20934 -0.17984,0.18577 -0.17984,-0.084 z m 1.45147,-0.92704 -0.3048,-0.36 0.36,0.3048 c 0.33831,0.28643 0.43284,0.4152 0.3048,0.4152 -0.0304,0 -0.19236,-0.162 -0.36,-0.36 z m -44.19361,-0.68 c 0.003,-0.264 0.0391,-0.35263 0.0797,-0.19696 0.0406,0.15568 0.0379,0.37168 -0.006,0.48 -0.0438,0.10833 -0.077,-0.019 -0.0738,-0.28304 z m 36.6872,-4.56261 c -0.0553,-0.0894 -0.17865,-0.11431 -0.27417,-0.0553 -0.10615,0.0656 -0.12742,0.0325 -0.0547,-0.0852 0.0911,-0.14739 0.17186,-0.14859 0.34472,-0.005 0.22644,0.18792 0.287,0.30817 0.1552,0.30817 -0.0388,0 -0.11578,-0.0732 -0.17105,-0.16261 z m -36.6872,-3.27739 c 0.003,-0.264 0.0391,-0.35263 0.0797,-0.19696 0.0406,0.15568 0.0379,0.37168 -0.006,0.48 -0.0438,0.10833 -0.077,-0.019 -0.0738,-0.28304 z m 0.15407,-2.64 c 0,-0.22 0.0363,-0.31 0.0807,-0.2 0.0444,0.11 0.0444,0.29 0,0.4 -0.0444,0.11 -0.0807,0.02 -0.0807,-0.2 z m 75.33474,-6.94041 c 0,-0.0332 0.126,-0.15922 0.28,-0.28 0.25377,-0.19902 0.25943,-0.19336 0.0604,0.0604 -0.20902,0.26652 -0.34041,0.35128 -0.34041,0.21959 z m 3.52,-1.6 c 0,-0.0332 0.126,-0.15922 0.28,-0.28 0.25377,-0.19902 0.25943,-0.19336 0.0604,0.0604 -0.20902,0.26652 -0.34041,0.35128 -0.34041,0.21959 z m -25.58737,-34.43292 c 0.008,-0.18639 0.0456,-0.22431 0.0967,-0.0967 0.0462,0.1155 0.0405,0.2535 -0.0126,0.30667 -0.0532,0.0532 -0.091,-0.0413 -0.084,-0.21 z m -33.64979,-13.2 c 0.33302,-0.37937 0.93966,-0.60196 0.7341,-0.26936 -0.0489,0.0792 -0.13043,0.10253 -0.18109,0.0519 -0.0507,-0.0507 -0.27745,0.0706 -0.50398,0.26936 l -0.41187,0.36146 z m 1.15716,-1.16708 c 0,-0.0332 0.126,-0.15922 0.28,-0.28 0.25377,-0.19902 0.25943,-0.19336 0.0604,0.0604 -0.20902,0.26652 -0.34041,0.35128 -0.34041,0.21959 z m 22.09263,-4.67292 c 0.008,-0.18639 0.0456,-0.22431 0.0967,-0.0967 0.0462,0.1155 0.0405,0.2535 -0.0126,0.30667 -0.0532,0.0532 -0.091,-0.0413 -0.084,-0.21 z"
         id="path3314" /><path
         style="fill:#333333;fill-opacity:1;stroke-width:0.16"
         d="m -207.58774,-257.53876 c 0.0433,-0.198 0.19465,-1.188 0.33627,-2.2 0.80695,-5.76607 2.43458,-13.6002 4.08873,-19.68 1.25582,-4.61572 3.6435,-11.58916 4.08335,-11.9258 0.6031,-0.46157 3.38874,-1.81853 5.17897,-2.5228 2.55283,-1.00427 6.06056,-2.06926 8.74843,-2.65612 2.72058,-0.594 3.06973,-0.61595 1.54747,-0.0973 -3.51575,1.19791 -7.12338,3.45387 -9.6915,6.06038 -0.53194,0.53989 -1.02954,0.96361 -1.10578,0.94161 -0.0762,-0.022 -0.1214,0.014 -0.10034,0.08 0.0211,0.066 -0.37514,0.67757 -0.88043,1.35904 -1.30851,1.76474 -2.25019,3.26961 -3.0009,4.79563 l -0.65198,1.32533 0.52199,-0.56 c 0.2871,-0.308 0.58383,-0.54022 0.65941,-0.51604 0.0756,0.0242 0.0957,-0.0236 0.0446,-0.10614 -0.10664,-0.17255 1.05196,-1.49331 2.78899,-3.17934 3.4833,-3.38102 7.99854,-5.93894 13.44,-7.61388 7.85448,-2.41769 16.1222,-2.47961 24.56806,-0.184 4.67505,1.27069 8.6137,2.96647 17.55362,7.55768 0.24293,0.12476 0.40119,0.29236 0.35169,0.37244 -0.0495,0.0801 0.004,0.11118 0.11832,0.0691 0.11457,-0.0421 1.20651,0.45889 2.42652,1.11328 1.22002,0.65439 3.60786,1.89449 5.30632,2.75577 1.69846,0.86129 3.05452,1.62032 3.01348,1.68673 -0.041,0.0664 0.0237,0.083 0.1438,0.0369 0.12014,-0.0461 1.11388,0.33984 2.20831,0.85766 1.09444,0.51782 2.09788,0.98317 2.22988,1.03412 0.132,0.0509 0.852,0.35397 1.6,0.67339 2.4186,1.03282 6.61036,2.61194 8.01015,3.01758 2.12399,0.61551 3.92943,0.81164 5.36308,0.58262 1.73464,-0.27711 2.70428,-0.94007 3.39015,-2.31789 0.42565,-0.85507 0.5555,-2.00034 0.38094,-3.36 -0.0791,-0.616 -0.12652,-1.14038 -0.10543,-1.16529 0.0717,-0.0846 1.32045,2.1168 2.61243,4.60529 2.24296,4.32019 4.745946,10.20908 6.692448,15.74562 0.646928,1.84009 1.176232,3.44209 1.176232,3.56 0,0.17877 -9.39569,0.21438 -56.56305,0.21438 h -56.56305 z m 99.35932,-3.13958 c -0.0836,-0.0768 -1.34,-0.69811 -2.792,-1.38075 -3.96491,-1.86407 -9.66275,-4.87664 -15.28,-8.07887 -2.77924,-1.58436 -14.30591,-8.2858 -18.47295,-10.73989 -0.56813,-0.33459 -1.07153,-0.56977 -1.11867,-0.52263 -0.0471,0.0471 0.0251,0.14775 0.1606,0.22356 1.28562,0.71948 6.68764,4.45106 6.59351,4.55465 -0.0674,0.0742 -0.0374,0.0861 0.0666,0.0265 0.10434,-0.0598 1.00839,0.42357 2.01711,1.0785 3.06428,1.9895 7.88167,4.93315 10.83379,6.61994 7.06598,4.03738 11.46745,6.14739 16.24,7.78524 1.71303,0.58789 1.99614,0.65798 1.752,0.43379 z m -7.592,-16.28407 c -1.51414,-0.22741 -2.56499,-0.4826 -4.29374,-1.04271 -1.08556,-0.35172 -1.94956,-0.65797 -1.92,-0.68056 0.0296,-0.0226 0.65363,0.0329 1.38684,0.12324 3.20248,0.39475 5.73158,-0.79062 6.6063,-3.09632 0.95437,-2.51567 -0.76002,-7.09461 -4.94218,-13.2 -1.47286,-2.15018 -3.77796,-5.06532 -3.84978,-4.86862 -0.0289,0.0792 0.087,0.34301 0.25756,0.58629 1.14576,1.63428 3.93862,7.00994 3.77743,7.27076 -0.0615,0.0996 -0.0411,0.13729 0.0453,0.0839 0.19488,-0.12045 1.38745,2.5135 2.01379,4.44771 0.55008,1.69869 0.75554,3.99919 0.44203,4.94916 -0.27536,0.83434 -1.0613,1.67424 -1.91816,2.04985 -1.35961,0.59598 -4.4648,0.36436 -6.80542,-0.50763 -1.87027,-0.69677 -5.29566,-2.49929 -9.04,-4.75707 -3.72582,-2.24662 -11.28,-7.20392 -11.28,-7.40231 0,-0.0799 -0.0655,-0.20533 -0.14565,-0.27867 -0.0846,-0.0775 -0.0974,-0.0495 -0.0306,0.0667 0.0633,0.11 0.0742,0.2 0.0243,0.2 -0.1784,0 -1.44746,-0.99297 -1.41695,-1.10868 0.0171,-0.0649 -0.0574,-0.11799 -0.16549,-0.11799 -0.38396,0 -4.53623,-3.19557 -4.46562,-3.43673 0.022,-0.0751 -0.014,-0.1213 -0.08,-0.10261 -0.255,0.0722 -0.84515,-0.37669 -0.73883,-0.56202 0.0606,-0.10558 0.0525,-0.1399 -0.0179,-0.0763 -0.18104,0.16362 -1.38734,-0.82733 -1.25931,-1.03449 0.058,-0.0939 0.0308,-0.12453 -0.0604,-0.0681 -0.22589,0.1396 -1.03324,-0.51558 -0.90033,-0.73063 0.06,-0.0972 0.0317,-0.12586 -0.0652,-0.066 -0.0943,0.0583 -0.94558,-0.59661 -1.89179,-1.45528 -0.94621,-0.85867 -1.99671,-1.80127 -2.33444,-2.09466 -0.33774,-0.29339 -0.56643,-0.61052 -0.5082,-0.70472 0.0582,-0.0942 0.0355,-0.12781 -0.0505,-0.0747 -0.20797,0.12853 -2.81865,-2.5048 -2.6581,-2.68117 0.0687,-0.0755 0.0438,-0.0909 -0.0555,-0.0343 -0.15996,0.0913 -2.16565,-1.94483 -3.75473,-3.81174 -0.29962,-0.352 -0.62358,-0.712 -0.71991,-0.8 -0.81522,-0.74469 -3.26533,-3.78977 -3.17149,-3.94162 0.0699,-0.11304 0.0471,-0.14519 -0.0572,-0.0807 -0.2333,0.14419 -3.6148,-4.15334 -3.46226,-4.40017 0.0688,-0.1113 0.0463,-0.14412 -0.0556,-0.0811 -0.18768,0.116 -1.4868,-1.59459 -3.50588,-4.61633 -1.99054,-2.97901 -3.05882,-4.75232 -4.64951,-7.71798 -0.73358,-1.36768 -1.20446,-1.93958 -0.77111,-0.93654 0.13651,0.31599 0.35987,0.84452 0.49634,1.17452 0.65599,1.58624 3.90129,8.17797 4.93486,10.02352 0.48776,0.87093 0.842,1.65605 0.7872,1.74472 -0.0548,0.0887 -0.0306,0.11857 0.0537,0.0664 0.0843,-0.0521 0.39501,0.31477 0.69042,0.81528 0.82412,1.39628 3.36836,5.25811 4.28447,6.50327 0.45048,0.61228 0.77692,1.1814 0.72543,1.26472 -0.0515,0.0833 -0.0184,0.10498 0.0736,0.0481 0.092,-0.0568 0.29527,0.094 0.45178,0.33528 1.05859,1.63176 6.12228,6.80333 8.51704,8.6985 0.67837,0.53685 1.2094,1.05801 1.18007,1.15811 -0.0293,0.10011 -0.005,0.13333 0.0549,0.0738 0.13215,-0.13215 3.35847,2.24471 3.35847,2.47422 0,0.0899 0.12745,0.18218 0.28323,0.20504 0.29772,0.0437 1.66613,1.02736 5.63677,4.05193 4.07832,3.10658 4.68822,3.65575 3.24007,2.91744 -0.32318,-0.16477 -0.5364,-0.35631 -0.47383,-0.42565 0.0626,-0.0693 0.0305,-0.0784 -0.0714,-0.0202 -0.10181,0.0582 -0.96581,-0.24586 -1.92,-0.67578 -6.73865,-3.03619 -11.99541,-4.58217 -18.37488,-5.40392 -2.84198,-0.36608 -11.76414,-0.41765 -14.16,-0.0819 -4.42971,0.62087 -8.41835,1.75335 -11.65222,3.30837 -1.0022,0.48192 -1.89757,0.82962 -1.9897,0.77268 -0.0921,-0.0569 -0.12853,-0.0384 -0.0809,0.0412 0.0477,0.0796 -0.5067,0.54578 -1.23191,1.03596 l -1.31856,0.89124 0.28053,-0.89124 c 0.82454,-2.61951 1.71525,-4.6224 2.70155,-6.0748 0.36773,-0.5415 0.73846,-0.94137 0.82385,-0.8886 0.0854,0.0528 0.13546,0.0352 0.11128,-0.039 -0.0811,-0.24911 0.65561,-1.0403 0.85434,-0.91748 0.11308,0.0699 0.14921,0.0503 0.0885,-0.048 -0.15569,-0.25191 0.94734,-1.11329 2.25012,-1.75716 0.6397,-0.31616 1.1631,-0.66446 1.1631,-0.77401 0,-0.10955 -0.45922,-0.8726 -1.0205,-1.69567 -4.15255,-6.08944 -6.82569,-13.14435 -7.53887,-19.89649 -0.0558,-0.528 -0.13048,-1.176 -0.16603,-1.44 -0.20399,-1.51481 -0.25774,-8.17377 -0.0878,-10.88 0.66346,-10.5672 2.47922,-20.82848 5.93143,-33.52 1.99378,-7.3298 4.15436,-12.21139 7.62513,-17.22808 0.55862,-0.80744 1.1059,-1.56344 1.21617,-1.68 0.11027,-0.11656 0.41146,-0.49412 0.66931,-0.83903 1.19005,-1.59185 4.53054,-5.09689 4.73638,-4.96968 0.073,0.0451 0.18479,-0.002 0.24847,-0.10532 0.0765,-0.12375 0.046,-0.14423 -0.0897,-0.0603 -0.81519,0.50382 1.68038,-1.94674 3.84612,-3.77674 1.75606,-1.48384 3.87323,-3.01293 4.03405,-2.91353 0.0909,0.0562 0.11936,0.0278 0.0632,-0.0631 -0.21732,-0.35163 5.13618,-3.63758 8.83955,-5.42568 6.58727,-3.18054 12.40363,-4.71061 19.74267,-5.19359 7.31677,-0.48151 14.78541,0.77618 22.45604,3.78152 3.83565,1.5028 11.38546,5.49205 11.14137,5.887 -0.053,0.0858 -0.0176,0.10725 0.0788,0.0477 0.22164,-0.13698 3.91332,2.26617 3.78937,2.46673 -0.0505,0.0816 0.002,0.11399 0.11657,0.0719 0.25557,-0.0939 5.505768,3.70201 5.444345,3.9363 -0.02418,0.0922 0.02087,0.12764 0.100106,0.0787 0.07924,-0.049 0.711022,0.31856 1.403965,0.81675 2.170956,1.5608 4.850254,3.25872 7.339894,4.65143 2.726922,1.52544 2.966302,1.71464 3.463314,2.73737 0.284376,0.58518 0.357704,1.00709 0.351025,2.0197 -0.01967,2.982 -1.342465,8.66027 -3.78324,16.24 -0.43979,1.36575 -1.533861,4.24503 -2.011952,5.29487 -0.176609,0.38782 -0.583382,1.60513 -0.903939,2.70513 -0.640387,2.19751 -1.645742,4.96421 -2.53852,6.98592 -0.317178,0.71826 -0.576688,1.55667 -0.576688,1.86315 0,0.98049 0.596234,2.53648 2.242454,5.85216 0.88345,1.77936 1.556765,3.32151 1.496256,3.42699 -0.06051,0.10548 -0.05156,0.13887 0.01988,0.0742 0.345643,-0.31286 1.521654,3.13688 1.520808,4.46118 -0.0011,1.66208 -0.954596,2.58104 -3.478196,3.35209 -1.676891,0.51235 -2.281206,0.99276 -2.281206,1.81348 0,0.33041 0.144,1.01928 0.32,1.53083 0.176,0.51155 0.32,1.10356 0.32,1.31557 0,0.51939 -0.29465,1.03898 -0.512749,0.90419 -0.108893,-0.0673 -0.131241,-0.0357 -0.05824,0.0825 0.156154,0.25266 -0.872392,1.16262 -1.184134,1.04761 -0.129317,-0.0477 -0.184437,-0.0361 -0.122487,0.0259 0.06195,0.062 -1e-4,0.19507 -0.137889,0.29583 -0.218663,0.15989 -0.225291,0.30536 -0.05212,1.14376 0.224295,1.08593 0.146317,1.57979 -0.348833,2.20927 -0.452895,0.57576 -1.544464,1.25622 -1.789494,1.11553 -0.10673,-0.0613 -0.14249,-0.0543 -0.0795,0.0155 0.063,0.0698 -0.0547,0.26009 -0.26171,0.42288 -0.47662,0.37492 -1.71549,2.35536 -2.36063,3.77369 -0.27215,0.59832 -0.83294,2.05985 -1.2462,3.24785 -0.41327,1.188 -0.82722,2.14482 -0.91989,2.12627 -0.0927,-0.0186 -0.15896,0.0868 -0.14732,0.23417 0.0144,0.18254 -0.2592,0.38289 -0.85882,0.62881 -1.93218,0.79244 -4.97201,0.37618 -10.24,-1.40221 -1.5385,-0.51937 -2.29005,-0.68625 -3.25699,-0.72319 -1.19739,-0.0457 -1.27403,-0.0275 -1.61623,0.38407 -0.19758,0.23764 -0.44137,0.58828 -0.54175,0.7792 -0.3471,0.66016 -1.94503,5.25047 -1.94503,5.58739 0,0.18599 0.17643,0.58281 0.39207,0.88182 2.4056,3.33575 3.24194,4.82505 4.08258,7.26996 0.73825,2.14711 1.4662,3.35119 3.39281,5.61195 0.68349,0.80204 1.19092,1.51558 1.12762,1.58566 -0.0633,0.0701 -0.0309,0.0792 0.0721,0.0203 0.22549,-0.1291 1.20123,1.00051 1.06067,1.22794 -0.0535,0.0865 -0.0273,0.1141 0.0582,0.0612 0.21604,-0.13351 2.17656,2.24828 2.03679,2.47445 -0.0619,0.10023 -0.0417,0.13803 0.0452,0.0843 0.191,-0.11805 0.99413,0.91587 2.21219,2.84789 2.31494,3.6718 3.07723,6.20764 2.46989,8.21629 -0.1158,0.38296 -0.51223,1.03184 -0.88096,1.44196 -1.22188,1.35903 -2.9786,1.95464 -5.66278,1.91996 -0.92751,-0.012 -1.86638,-0.0488 -2.08638,-0.0819 z m -14.08,-15.63833 c 0,-0.0341 -1.00036,-0.85904 -2.22302,-1.83321 -3.23961,-2.58122 -4.51159,-3.71173 -4.39269,-3.90412 0.0589,-0.0954 0.03,-0.12366 -0.0659,-0.0644 -0.21426,0.13242 -3.01778,-2.25776 -2.94502,-2.51082 0.0293,-0.10201 0.001,-0.13355 -0.0621,-0.0701 -0.10965,0.10966 -1.31834,-0.82308 -2.71126,-2.09226 -0.352,-0.32073 -1.252,-1.1015 -2,-1.73504 -0.748,-0.63354 -1.576,-1.34116 -1.84,-1.57249 -0.264,-0.23132 -1.12249,-0.97297 -1.90776,-1.6481 -0.78527,-0.67513 -1.83085,-1.58751 -2.32351,-2.02751 -0.49267,-0.44 -1.32341,-1.16 -1.84611,-1.6 -3.68509,-3.10208 -7.14286,-6.3178 -7.01529,-6.52421 0.0562,-0.0909 0.0256,-0.11797 -0.0678,-0.0602 -0.18756,0.11592 -4.1436,-3.97972 -4.07951,-4.22346 0.022,-0.0837 -0.014,-0.13475 -0.08,-0.11352 -0.12049,0.0388 -1.64,-1.51621 -1.64,-1.67827 0,-0.0476 -0.21572,-0.31742 -0.47939,-0.59968 -0.26366,-0.28225 -0.43254,-0.58899 -0.37528,-0.68164 0.0573,-0.0926 0.0292,-0.12212 -0.0625,-0.0655 -0.22608,0.13972 -0.57987,-0.31181 -0.4319,-0.55123 0.0718,-0.11619 0.0508,-0.14987 -0.0534,-0.0855 -0.20312,0.12554 -0.87406,-0.66824 -0.74346,-0.87957 0.0493,-0.0798 0.017,-0.12537 -0.0718,-0.10119 -0.0889,0.0242 -0.67673,-0.64004 -1.30638,-1.47604 -0.98309,-1.30526 -1.98367,-2.78016 -5.079,-7.48668 -0.93803,-1.4263 -0.75753,-0.80828 0.37145,1.2718 3.33149,6.1381 8.56809,13.72025 12.99112,18.81002 0.5521,0.63532 0.98509,1.24732 0.9622,1.36 -0.0229,0.11267 0.0389,0.19003 0.13722,0.17191 0.0984,-0.0181 0.56381,0.41388 1.03433,0.96 2.08869,2.4243 8.71582,8.86131 10.77354,10.46446 0.4005,0.31202 0.68221,0.6417 0.62601,0.73262 -0.0562,0.0909 -0.0308,0.12119 0.0565,0.0673 0.22437,-0.13866 0.87852,0.35432 0.74876,0.56428 -0.0647,0.10469 -0.0328,0.12769 0.0802,0.0579 0.24129,-0.14912 1.49878,0.83733 1.35792,1.06525 -0.058,0.0939 -0.0316,0.12503 0.0586,0.0693 0.0903,-0.0558 1.37938,0.70892 2.86473,1.69933 1.48534,0.99041 3.32786,2.15226 4.0945,2.58189 0.76663,0.42962 1.3495,0.85292 1.29527,0.94066 -0.0542,0.0877 -0.0241,0.11352 0.0669,0.0573 0.091,-0.0562 1.16413,0.38573 2.38473,0.98215 3.77234,1.8433 3.89926,1.89956 3.89926,1.72869 z m -20.03716,-30.50378 c -1.86618,-1.88449 -3.12902,-3.27952 -3.064,-3.38472 0.0614,-0.0993 0.0391,-0.13474 -0.0502,-0.0796 -0.17489,0.10809 -1.27398,-1.11837 -1.20869,-1.34877 0.022,-0.0776 -0.0219,-0.12314 -0.0975,-0.10114 -0.29978,0.0872 -6.47706,-7.18221 -6.31964,-7.43693 0.0586,-0.0949 0.0344,-0.12786 -0.0539,-0.0733 -0.23591,0.1458 -6.57888,-7.89204 -6.4889,-8.22276 0.022,-0.0809 -0.0264,-0.12902 -0.10744,-0.10702 -0.2006,0.0544 -1.46555,-1.64954 -1.35606,-1.82669 0.048,-0.0777 0.0156,-0.12145 -0.072,-0.0973 -0.13558,0.0374 -0.68944,-0.62866 -1.69302,-2.03604 -0.12551,-0.176 -0.66878,-0.91544 -1.20728,-1.64319 -0.54611,-0.73805 -0.92947,-1.40347 -0.8669,-1.50473 0.0686,-0.11106 0.0408,-0.13739 -0.0718,-0.0678 -0.18608,0.11501 -2.88073,-3.84213 -4.72874,-6.94425 -2.66686,-4.47666 -5.53823,-11.009 -6.89233,-15.68 -0.40013,-1.38024 -0.72441,-2.11712 -0.72441,-1.64611 0,0.42419 1.48348,6.0806 2.1312,8.12611 2.42153,7.64729 6.12341,15.0435 10.97117,21.92 0.74445,1.056 1.67202,2.32946 2.06127,2.82991 0.42737,0.54947 0.66002,0.98708 0.58732,1.10472 -0.0744,0.12037 -0.0536,0.15352 0.0544,0.0868 0.21685,-0.13401 1.34921,1.31318 1.20724,1.54289 -0.0561,0.0908 -0.0284,0.11967 0.0615,0.064 0.17686,-0.1093 2.84582,2.98677 2.84582,3.30122 0,0.10475 0.072,0.19151 0.16,0.1928 0.30213,0.004 1.87412,1.81301 1.75016,2.01358 -0.0717,0.1161 -0.0524,0.15202 0.0483,0.0898 0.19071,-0.11786 4.30524,4.00028 4.23763,4.24135 -0.0242,0.0862 0.0173,0.11885 0.0922,0.0726 0.19412,-0.11998 2.14646,1.88976 1.9962,2.05489 -0.0685,0.0752 -0.0386,0.0876 0.0664,0.0274 0.11337,-0.065 0.86065,0.49306 1.84032,1.37435 0.90719,0.81609 2.45887,2.15736 3.44818,2.9806 0.98931,0.82325 1.75204,1.57237 1.69497,1.66473 -0.0599,0.0969 -0.0271,0.12053 0.0775,0.0559 0.23018,-0.14226 1.16912,0.53923 1.03715,0.75277 -0.0542,0.0876 -0.0182,0.10965 0.08,0.049 0.0981,-0.0607 0.48007,0.10823 0.84873,0.37528 0.36866,0.26706 0.71742,0.48556 0.77501,0.48556 0.0576,0 -1.32385,-1.44259 -3.06989,-3.20576 z m 15.81692,-12.59424 c -0.24447,-1.83112 -2.53983,-10.9924 -4.41971,-17.64 -3.59261,-12.70416 -5.54364,-20.57547 -6.80145,-27.44 -0.49518,-2.70246 -0.53554,-2.8764 -0.64262,-2.76931 -0.068,0.068 -0.009,1.02964 0.33163,5.40931 0.88564,11.38549 3.72142,23.86747 7.90002,34.77279 0.99415,2.59453 3.52366,8.42721 3.65471,8.42721 0.0434,0 0.0332,-0.342 -0.0226,-0.76 z m 6.47613,-6.40561 c 0.11526,0.0251 0.21284,-0.0353 0.21684,-0.13413 0.0114,-0.28321 1.67494,-1.52677 1.87605,-1.40247 0.10204,0.0631 0.13673,0.0406 0.0797,-0.0517 -0.14157,-0.22908 0.46783,-0.74435 0.70615,-0.59706 0.12071,0.0746 0.15351,0.0536 0.0862,-0.0553 -0.0618,-0.10006 0.28908,-0.50669 0.81531,-0.94472 3.84066,-3.19696 9.99026,-9.65605 15.73704,-16.52904 1.4811,-1.77136 2.19047,-2.65183 3.66678,-4.55122 2.93909,-3.78138 6.885885,-9.29603 8.802134,-12.29876 0.803324,-1.25879 0.96118,-1.60764 0.796415,-1.76 -0.159581,-0.14756 -0.180211,-0.14525 -0.09234,0.0104 0.06823,0.12083 -0.224195,0.60409 -0.736527,1.21719 -0.467328,0.55923 -1.124392,1.35239 -1.460142,1.76258 -0.340562,0.41607 -0.687501,0.69818 -0.78472,0.6381 -0.107458,-0.0664 -0.12811,-0.033 -0.05387,0.0871 0.147288,0.23831 -0.367978,0.84772 -0.597058,0.70614 -0.08983,-0.0555 -0.117193,-0.0263 -0.06079,0.065 0.139603,0.22588 -0.515579,1.03324 -0.730632,0.90033 -0.09455,-0.0584 -0.12815,-0.0354 -0.07467,0.0511 0.05348,0.0865 -0.122819,0.42432 -0.391784,0.75062 -0.420686,0.51036 -0.525856,0.5645 -0.752526,0.38738 -0.23329,-0.18229 -0.23917,-0.17482 -0.0513,0.0652 0.23682,0.30254 0.26114,0.27303 -8.2834,10.04893 -6.37566,7.29445 -8.52757,9.68523 -8.67681,9.64 -0.0726,-0.022 -0.11397,0.0249 -0.092,0.10413 0.022,0.0793 -1.004,1.31616 -2.28,2.74863 -3.22297,3.6182 -6.81729,7.61432 -7.59096,8.43952 -0.6702,0.71485 -0.99872,1.24731 -0.5319,0.8621 0.13705,-0.11308 0.34348,-0.18508 0.45875,-0.16 z m -23.59955,-36.84985 c -2.91797,-8.81281 -4.58817,-16.40223 -5.15504,-23.42454 -0.10441,-1.29336 -0.13151,-1.38297 -0.26613,-0.88 -0.21887,0.81771 -0.0275,7.47448 0.26698,9.28627 0.89557,5.51033 2.38827,10.12128 5.61138,17.33362 0.23101,0.51694 0.45394,0.90598 0.49538,0.86453 0.0414,-0.0414 -0.38721,-1.47239 -0.95257,-3.17988 z"
         id="path3312" /></g></g></svg>
