<?xml version="1.0" encoding="UTF-8" standalone="no"?>
<!-- Created with Inkscape (http://www.inkscape.org/) -->

<svg
   version="1.1"
   id="svg1"
   width="115.14347"
   height="156.78046"
   viewBox="0 0 115.14347 156.78045"
   sodipodi:docname="womanav14.svg"
   inkscape:version="1.2.2 (732a01da63, 2022-12-09)"
   xml:space="preserve"
   xmlns:inkscape="http://www.inkscape.org/namespaces/inkscape"
   xmlns:sodipodi="http://sodipodi.sourceforge.net/DTD/sodipodi-0.dtd"
   xmlns="http://www.w3.org/2000/svg"
   xmlns:svg="http://www.w3.org/2000/svg"><defs
     id="defs1" /><sodipodi:namedview
     id="namedview1"
     pagecolor="#ffffff"
     bordercolor="#cccccc"
     borderopacity="1"
     inkscape:showpageshadow="0"
     inkscape:pageopacity="1"
     inkscape:pagecheckerboard="0"
     inkscape:deskcolor="#d1d1d1"
     showgrid="false"
     inkscape:zoom="1"
     inkscape:cx="381.5"
     inkscape:cy="124"
     inkscape:window-width="1366"
     inkscape:window-height="705"
     inkscape:window-x="-8"
     inkscape:window-y="32"
     inkscape:window-maximized="1"
     inkscape:current-layer="g1" /><g
     inkscape:groupmode="layer"
     inkscape:label="Image"
     id="g1"
     transform="translate(228.22862,442.00044)"><g
       id="g3523"
       transform="translate(-272.94322,-90.509668)"><path
         style="fill:#d0d0d0;fill-opacity:1;stroke-width:0.16"
         d="m 139.59139,-204.41952 c 0.1155,-0.0462 0.2535,-0.0405 0.30667,0.0126 0.0532,0.0532 -0.0413,0.091 -0.21,0.084 -0.18639,-0.008 -0.22431,-0.0456 -0.0967,-0.0967 z m -1.76,-7.84 c 0.1155,-0.0462 0.2535,-0.0405 0.30667,0.0126 0.0532,0.0532 -0.0413,0.091 -0.21,0.084 -0.18639,-0.008 -0.22431,-0.0456 -0.0967,-0.0967 z m -25.74211,-9.9307 -0.38789,-0.44 0.44,0.38789 c 0.41125,0.36254 0.51337,0.49211 0.38789,0.49211 -0.0287,0 -0.22666,-0.198 -0.44,-0.44 z m 25.8259,-4.52 c 0,-0.66 0.0283,-0.93 0.0628,-0.6 0.0345,0.33 0.0345,0.87 0,1.2 -0.0345,0.33 -0.0628,0.06 -0.0628,-0.6 z m -37.02603,-8.52 c -0.007,-0.022 -0.037,-0.17002 -0.0672,-0.32893 -0.0441,-0.23221 -0.0107,-0.25221 0.17048,-0.10187 0.12397,0.10288 0.18594,0.2509 0.13772,0.32893 -0.0828,0.13402 -0.21421,0.18954 -0.24104,0.10187 z m -37.90776,-2.09007 c 0,-0.0275 0.234,-0.26153 0.52,-0.52 l 0.52,-0.46993 -0.469934,0.52 c -0.438045,0.48471 -0.570066,0.59354 -0.570066,0.46993 z m 35.49959,-3.90993 c -0.199019,-0.25377 -0.19336,-0.25943 0.06041,-0.0604 0.154,0.12078 0.28,0.24678 0.28,0.28 0,0.13169 -0.13139,0.0469 -0.34041,-0.21959 z m -43.01959,-2.98041 c 0,-0.0332 0.126,-0.15922 0.28,-0.28 0.253769,-0.19902 0.259428,-0.19336 0.06041,0.0604 -0.209019,0.26652 -0.340409,0.35128 -0.340409,0.21959 z m 0.8,-0.8 c 0,-0.0332 0.126,-0.15922 0.28,-0.28 0.253769,-0.19902 0.259428,-0.19336 0.06041,0.0604 -0.209019,0.26652 -0.340409,0.35128 -0.340409,0.21959 z m 18.85,-1.00889 c 0.115499,-0.0462 0.253499,-0.0405 0.306667,0.0126 0.05317,0.0532 -0.04133,0.091 -0.21,0.084 -0.186392,-0.008 -0.224304,-0.0456 -0.09667,-0.0967 z m 1.76,0 c 0.115499,-0.0462 0.253499,-0.0405 0.306667,0.0126 0.05317,0.0532 -0.04133,0.091 -0.21,0.084 -0.186392,-0.008 -0.224304,-0.0456 -0.09667,-0.0967 z m 39.84959,-3.6907 c -0.19902,-0.25377 -0.19336,-0.25943 0.0604,-0.0604 0.26652,0.20902 0.35128,0.34041 0.21959,0.34041 -0.0332,0 -0.15922,-0.126 -0.28,-0.28 z m -2.88,-2.88 c -0.19902,-0.25377 -0.19336,-0.25943 0.0604,-0.0604 0.154,0.12078 0.28,0.24678 0.28,0.28 0,0.13169 -0.13139,0.0469 -0.34041,-0.21959 z m -45.61959,-0.30596 c 0.11,-0.0444 0.29,-0.0444 0.4,0 0.11,0.0444 0.02,0.0807 -0.2,0.0807 -0.22,0 -0.31,-0.0363 -0.2,-0.0807 z m -0.08,-0.48864 c 0.242,-0.0367 0.638,-0.0367 0.88,0 0.242,0.0367 0.044,0.0666 -0.44,0.0666 -0.484,0 -0.682,-0.03 -0.44,-0.0666 z m -8.53211,-7.0454 -0.38789,-0.44 0.44,0.38789 c 0.411246,0.36254 0.513374,0.49211 0.38789,0.49211 -0.02866,0 -0.22666,-0.198 -0.44,-0.44 z m -1.44,-1.44 -0.38789,-0.44 0.44,0.38789 c 0.411246,0.36254 0.513374,0.49211 0.38789,0.49211 -0.02866,0 -0.22666,-0.198 -0.44,-0.44 z m 58.73211,-21.70288 c 0,-0.0346 0.11174,-0.10576 0.24831,-0.15817 0.14239,-0.0546 0.20661,-0.0278 0.15056,0.0629 -0.094,0.15204 -0.39887,0.22487 -0.39887,0.0953 z m 2.72,-2.23753 c 0,-0.0332 0.126,-0.15922 0.28,-0.28 0.25377,-0.19902 0.25943,-0.19336 0.0604,0.0604 -0.20902,0.26652 -0.34041,0.35128 -0.34041,0.21959 z m -73.894737,-3.29959 c 0,-0.22 0.03632,-0.31 0.0807,-0.2 0.04439,0.11 0.04439,0.29 0,0.4 -0.04439,0.11 -0.0807,0.02 -0.0807,-0.2 z m 79.094737,-2.72 c 0.15928,-0.176 0.3256,-0.32 0.3696,-0.32 0.044,0 -0.0503,0.144 -0.2096,0.32 -0.15928,0.176 -0.3256,0.32 -0.3696,0.32 -0.044,0 0.0503,-0.144 0.2096,-0.32 z m -79.107368,-1.21333 c 0.0077,-0.18639 0.04559,-0.22431 0.09667,-0.0967 0.04622,0.1155 0.04053,0.2535 -0.01263,0.30667 -0.05317,0.0532 -0.09098,-0.0413 -0.08404,-0.21 z m 64.639998,-5.44 c 0.008,-0.18639 0.0456,-0.22431 0.0967,-0.0967 0.0462,0.1155 0.0405,0.2535 -0.0126,0.30667 -0.0532,0.0532 -0.091,-0.0413 -0.084,-0.21 z m 21.98737,-1.18667 c 0.15928,-0.176 0.3256,-0.32 0.3696,-0.32 0.044,0 -0.0503,0.144 -0.2096,0.32 -0.15928,0.176 -0.3256,0.32 -0.3696,0.32 -0.044,0 0.0503,-0.144 0.2096,-0.32 z m -54.627368,-2.65333 c 0.0077,-0.18639 0.04559,-0.22431 0.09667,-0.0967 0.04622,0.1155 0.04054,0.2535 -0.01262,0.30667 -0.05317,0.0532 -0.09098,-0.0413 -0.08404,-0.21 z m 31.199998,-1.12 c 0.008,-0.18639 0.0456,-0.22431 0.0967,-0.0967 0.0462,0.1155 0.0405,0.2535 -0.0126,0.30667 -0.0532,0.0532 -0.091,-0.0413 -0.084,-0.21 z m 27.18737,-0.12708 c 0,-0.0332 0.126,-0.15922 0.28,-0.28 0.25377,-0.19902 0.25943,-0.19336 0.0604,0.0604 -0.20902,0.26652 -0.34041,0.35128 -0.34041,0.21959 z m -58.534738,-1.21959 c 0,-0.22 0.03632,-0.31 0.0807,-0.2 0.04438,0.11 0.04438,0.29 0,0.4 -0.04439,0.11 -0.0807,0.02 -0.0807,-0.2 z m 62.934738,-2.08 c 0.15928,-0.176 0.3256,-0.32 0.3696,-0.32 0.044,0 -0.0503,0.144 -0.2096,0.32 -0.15928,0.176 -0.3256,0.32 -0.3696,0.32 -0.044,0 0.0503,-0.144 0.2096,-0.32 z m -82.947368,-1.21333 c 0.0077,-0.18639 0.04559,-0.22431 0.09667,-0.0967 0.04622,0.1155 0.04053,0.2535 -0.01263,0.30667 -0.05317,0.0532 -0.09098,-0.0413 -0.08404,-0.21 z m 53.599998,-1.12 c 0.008,-0.18639 0.0456,-0.22431 0.0967,-0.0967 0.0462,0.1155 0.0405,0.2535 -0.0126,0.30667 -0.0532,0.0532 -0.091,-0.0413 -0.084,-0.21 z m 32.14737,-1.87674 c 0,-0.0275 0.234,-0.26153 0.52,-0.52 l 0.52,-0.46993 -0.46993,0.52 c -0.43805,0.48471 -0.57007,0.59354 -0.57007,0.46993 z m -64.774738,-6.18993 c 0,-0.22 0.03632,-0.31 0.0807,-0.2 0.04439,0.11 0.04439,0.29 0,0.4 -0.04439,0.11 -0.0807,0.02 -0.0807,-0.2 z m 22.387368,-0.89333 c 0.008,-0.18639 0.0456,-0.22431 0.0967,-0.0967 0.0462,0.1155 0.0405,0.2535 -0.0126,0.30667 -0.0532,0.0532 -0.091,-0.0413 -0.084,-0.21 z m -40.289052,-0.70667 c 0,-0.396 0.0312,-0.558 0.06934,-0.36 0.03814,0.198 0.03814,0.522 0,0.72 -0.03814,0.198 -0.06934,0.036 -0.06934,-0.36 z m 16.947614,-1.04 c 0.0033,-0.264 0.03912,-0.35263 0.07969,-0.19696 0.04057,0.15568 0.0379,0.37168 -0.0059,0.48 -0.04383,0.10833 -0.07702,-0.019 -0.07376,-0.28304 z m 0.14144,-2.41333 c 0.0077,-0.18639 0.04559,-0.22431 0.09667,-0.0967 0.04622,0.1155 0.04054,0.2535 -0.01262,0.30667 -0.05317,0.0532 -0.09098,-0.0413 -0.08404,-0.21 z m 21.29263,-3.42667 c 0,-0.22 0.03632,-0.31 0.0807,-0.2 0.04438,0.11 0.04438,0.29 0,0.4 -0.04439,0.11 -0.0807,0.02 -0.0807,-0.2 z m 0.30737,-9.85333 c 0.0077,-0.18639 0.04559,-0.22431 0.09667,-0.0967 0.04622,0.1155 0.04054,0.2535 -0.01262,0.30667 -0.05317,0.0532 -0.09098,-0.0413 -0.08404,-0.21 z m -10.86737,-2.14667 c 0,-0.22 0.03632,-0.31 0.0807,-0.2 0.04439,0.11 0.04439,0.29 0,0.4 -0.04439,0.11 -0.0807,0.02 -0.0807,-0.2 z m 0.14737,-2.97333 c 0.0077,-0.18639 0.04559,-0.22431 0.09667,-0.0967 0.04622,0.1155 0.04054,0.2535 -0.01262,0.30667 -0.05317,0.0532 -0.09098,-0.0413 -0.08404,-0.21 z"
         id="path3539" /><path
         style="fill:#b9b9b9;fill-opacity:1;stroke-width:0.16"
         d="m 48.126653,-198.71022 c 0,-0.22 0.03632,-0.31 0.0807,-0.2 0.04439,0.11 0.04439,0.29 0,0.4 -0.04439,0.11 -0.0807,0.02 -0.0807,-0.2 z m -3.04,-6.56 c 0,-0.22 0.03632,-0.31 0.0807,-0.2 0.04439,0.11 0.04439,0.29 0,0.4 -0.04439,0.11 -0.0807,0.02 -0.0807,-0.2 z m 98.894737,-1.23029 c 0.154,-0.0403 0.406,-0.0403 0.56,0 0.154,0.0402 0.028,0.0732 -0.28,0.0732 -0.308,0 -0.434,-0.0329 -0.28,-0.0732 z m -12.07813,-10.88287 c 0.19902,-0.0383 0.48702,-0.0368 0.64,0.003 0.15297,0.04 -0.01,0.0714 -0.36187,0.0696 -0.352,-0.002 -0.47716,-0.0345 -0.27813,-0.0728 z m 10.13076,-2.06017 c 0.008,-0.18639 0.0456,-0.22431 0.0967,-0.0967 0.0462,0.1155 0.0405,0.2535 -0.0126,0.30667 -0.0532,0.0532 -0.091,-0.0413 -0.084,-0.21 z m -28.02474,-0.66667 -0.38789,-0.44 0.44,0.38789 c 0.41125,0.36254 0.51337,0.49211 0.38789,0.49211 -0.0287,0 -0.22666,-0.198 -0.44,-0.44 z m 21.94474,-8.77333 c 0.008,-0.18639 0.0456,-0.22431 0.0967,-0.0967 0.0462,0.1155 0.0405,0.2535 -0.0126,0.30667 -0.0532,0.0532 -0.091,-0.0413 -0.084,-0.21 z m -31.23304,-5.78667 c -0.19902,-0.25377 -0.19336,-0.25943 0.0604,-0.0604 0.154,0.12078 0.28,0.24678 0.28,0.28 0,0.13169 -0.13139,0.0469 -0.34041,-0.21959 z m -9.09959,-0.84944 c 0,-0.0932 0.072,-0.12495 0.16,-0.0706 0.088,0.0544 0.16,0.13064 0.16,0.16944 0,0.0388 -0.072,0.0706 -0.16,0.0706 -0.088,0 -0.16,-0.0762 -0.16,-0.16944 z m -0.50041,-0.59056 c -0.199019,-0.25377 -0.19336,-0.25943 0.06041,-0.0604 0.26652,0.20902 0.351277,0.34041 0.21959,0.34041 -0.03322,0 -0.159224,-0.126 -0.28,-0.28 z m 28.02041,-0.74041 c 0,-0.0332 0.126,-0.15922 0.28,-0.28 0.25377,-0.19902 0.25943,-0.19336 0.0604,0.0604 -0.20902,0.26652 -0.34041,0.35128 -0.34041,0.21959 z m 4.03119,-0.49959 c 0.003,-0.264 0.0391,-0.35263 0.0797,-0.19696 0.0406,0.15568 0.0379,0.37168 -0.006,0.48 -0.0438,0.10833 -0.077,-0.019 -0.0738,-0.28304 z m -34.4516,-1 c -0.199019,-0.25377 -0.19336,-0.25943 0.06041,-0.0604 0.26652,0.20902 0.351277,0.34041 0.21959,0.34041 -0.03322,0 -0.159224,-0.126 -0.28,-0.28 z m 34.4516,-0.76 c 0.003,-0.264 0.0391,-0.35263 0.0797,-0.19696 0.0406,0.15568 0.0379,0.37168 -0.006,0.48 -0.0438,0.10833 -0.077,-0.019 -0.0738,-0.28304 z m -29.1716,-2.6 c -0.199019,-0.25377 -0.19336,-0.25943 0.06041,-0.0604 0.154,0.12078 0.28,0.24678 0.28,0.28 0,0.13169 -0.13139,0.0469 -0.34041,-0.21959 z m -41.09959,-3.94041 c 0,-0.0332 0.126,-0.15922 0.28,-0.28 0.253769,-0.19902 0.259428,-0.19336 0.06041,0.0604 -0.209019,0.26652 -0.340409,0.35128 -0.340409,0.21959 z m 50.54789,-0.85959 -0.38789,-0.44 0.44,0.38789 c 0.41125,0.36254 0.51337,0.49211 0.38789,0.49211 -0.0287,0 -0.22666,-0.198 -0.44,-0.44 z m 16.18474,-0.29333 c 0.008,-0.18639 0.0456,-0.22431 0.0967,-0.0967 0.0462,0.1155 0.0405,0.2535 -0.0126,0.30667 -0.0532,0.0532 -0.091,-0.0413 -0.084,-0.21 z m -19.55304,-3.06667 c -0.19902,-0.25377 -0.19336,-0.25943 0.0604,-0.0604 0.26652,0.20902 0.35128,0.34041 0.21959,0.34041 -0.0332,0 -0.15922,-0.126 -0.28,-0.28 z m -43.33959,-6.2 c 0.20668,-0.22 0.411781,-0.4 0.455781,-0.4 0.044,0 -0.0891,0.18 -0.295781,0.4 -0.206679,0.22 -0.41178,0.4 -0.45578,0.4 -0.044,0 0.0891,-0.18 0.29578,-0.4 z m 59.39119,-0.64 c 0.003,-0.264 0.0391,-0.35263 0.0797,-0.19696 0.0406,0.15568 0.0379,0.37168 -0.006,0.48 -0.0438,0.10833 -0.077,-0.019 -0.0738,-0.28304 z m -0.67119,-29.58041 c 0,-0.0332 0.126,-0.15922 0.28,-0.28 0.25377,-0.19902 0.25943,-0.19336 0.0604,0.0604 -0.20902,0.26652 -0.34041,0.35128 -0.34041,0.21959 z m -9.3875,-3.37959 c 6.4e-4,-0.616 0.0296,-0.84839 0.0643,-0.51643 0.0346,0.33196 0.0341,0.83596 -10e-4,1.12 -0.0354,0.28404 -0.0637,0.0124 -0.063,-0.60357 z m -50.248922,-4.88 c 0,-0.396 0.0312,-0.558 0.06934,-0.36 0.03814,0.198 0.03814,0.522 0,0.72 -0.03814,0.198 -0.06934,0.036 -0.06934,-0.36 z m 49.116772,-2.48 c 0.002,-0.352 0.0345,-0.47716 0.0728,-0.27813 0.0383,0.19902 0.0368,0.48702 -0.003,0.64 -0.04,0.15297 -0.0714,-0.01 -0.0696,-0.36187 z m 43.17228,-0.49333 c 0.008,-0.18639 0.0456,-0.22431 0.0967,-0.0967 0.0462,0.1155 0.0405,0.2535 -0.0126,0.30667 -0.0532,0.0532 -0.091,-0.0413 -0.084,-0.21 z m -20.81263,-1.08708 c 0,-0.0332 0.126,-0.15922 0.28,-0.28 0.25377,-0.19902 0.25943,-0.19336 0.0604,0.0604 -0.20902,0.26652 -0.34041,0.35128 -0.34041,0.21959 z m 3.36,-2.09959 c 0.29852,-0.308 0.57877,-0.56 0.62277,-0.56 0.044,0 -0.16425,0.252 -0.46277,0.56 -0.29852,0.308 -0.57877,0.56 -0.62277,0.56 -0.044,0 0.16425,-0.252 0.46277,-0.56 z m -24.14737,-0.17333 c 0.008,-0.18639 0.0456,-0.22431 0.0967,-0.0967 0.0462,0.1155 0.0405,0.2535 -0.0126,0.30667 -0.0532,0.0532 -0.091,-0.0413 -0.084,-0.21 z m -53.092281,-0.46667 c 0.0018,-0.352 0.03454,-0.47716 0.07281,-0.27813 0.03827,0.19902 0.03682,0.48702 -0.0032,0.64 -0.04005,0.15297 -0.07136,-0.01 -0.06958,-0.36187 z m 0.0032,-4.08 c 0,-0.396 0.0312,-0.558 0.06934,-0.36 0.03814,0.198 0.03814,0.522 0,0.72 -0.03814,0.198 -0.06934,0.036 -0.06934,-0.36 z m 53.569051,-1.69333 c 0.008,-0.18639 0.0456,-0.22431 0.0967,-0.0967 0.0462,0.1155 0.0405,0.2535 -0.0126,0.30667 -0.0532,0.0532 -0.091,-0.0413 -0.084,-0.21 z m -33.564683,-1.50667 c 0,-0.484 0.02999,-0.682 0.06665,-0.44 0.03666,0.242 0.03666,0.638 0,0.88 -0.03666,0.242 -0.06665,0.044 -0.06665,-0.44 z m -17.124368,-0.16 c 0,-0.396 0.0312,-0.558 0.06934,-0.36 0.03814,0.198 0.03814,0.522 0,0.72 -0.03814,0.198 -0.06934,0.036 -0.06934,-0.36 z m 0.153542,-4.48 c 0,-0.308 0.03293,-0.434 0.07317,-0.28 0.04024,0.154 0.04024,0.406 0,0.56 -0.04024,0.154 -0.07317,0.028 -0.07317,-0.28 z m 16.968642,-2.96 c 0.0013,-0.44 0.03227,-0.60101 0.06905,-0.3578 0.03678,0.24321 0.03579,0.60321 -0.0022,0.8 -0.03798,0.19679 -0.06807,-0.002 -0.06687,-0.4422 z m 21.88687,-3.21333 c 0.0077,-0.18639 0.04559,-0.22431 0.09667,-0.0967 0.04622,0.1155 0.04054,0.2535 -0.01262,0.30667 -0.05317,0.0532 -0.09098,-0.0413 -0.08404,-0.21 z m -10.08,-0.64 c 0.0077,-0.18639 0.04559,-0.22431 0.09667,-0.0967 0.04622,0.1155 0.04054,0.2535 -0.01262,0.30667 -0.05317,0.0532 -0.09098,-0.0413 -0.08404,-0.21 z m -28.46737,-2.62667 c 0,-0.22 0.03632,-0.31 0.0807,-0.2 0.04438,0.11 0.04438,0.29 0,0.4 -0.04439,0.11 -0.0807,0.02 -0.0807,-0.2 z m 26.70737,-7.45333 c 0.0077,-0.18639 0.04559,-0.22431 0.09667,-0.0967 0.04622,0.1155 0.04054,0.2535 -0.01262,0.30667 -0.05317,0.0532 -0.09098,-0.0413 -0.08404,-0.21 z m 12.16,-0.8 c 0.0077,-0.18639 0.04559,-0.22431 0.09667,-0.0967 0.04622,0.1155 0.04054,0.2535 -0.01262,0.30667 -0.05317,0.0532 -0.09098,-0.0413 -0.08404,-0.21 z m -0.761421,-1.02667 c 0,-0.572 0.02904,-0.806 0.06453,-0.52 0.03549,0.286 0.03549,0.754 0,1.04 -0.03549,0.286 -0.06453,0.052 -0.06453,-0.52 z m 0.294051,-6.72 c 0,-0.22 0.03632,-0.31 0.0807,-0.2 0.04439,0.11 0.04439,0.29 0,0.4 -0.04439,0.11 -0.0807,0.02 -0.0807,-0.2 z"
         id="path3537" /><path
         style="fill:#a3a3a3;fill-opacity:1;stroke-width:0.16"
         d="m 44.781739,-198.95022 c 0.0018,-0.352 0.03454,-0.47716 0.07281,-0.27813 0.03827,0.19902 0.03682,0.48702 -0.0032,0.64 -0.04005,0.15297 -0.07136,-0.01 -0.06958,-0.36187 z m 0.452283,-8.17333 c 0.0077,-0.18639 0.04559,-0.22431 0.09667,-0.0967 0.04622,0.1155 0.04053,0.2535 -0.01263,0.30667 -0.05317,0.0532 -0.09098,-0.0413 -0.08404,-0.21 z m 71.815258,-9.94667 -0.38789,-0.44 0.44,0.38789 c 0.41125,0.36254 0.51337,0.49211 0.38789,0.49211 -0.0287,0 -0.22666,-0.198 -0.44,-0.44 z m -10.56,-13.12 -0.38789,-0.44 0.44,0.38789 c 0.41125,0.36254 0.51337,0.49211 0.38789,0.49211 -0.0287,0 -0.22666,-0.198 -0.44,-0.44 z m 13.90211,-5.7493 c 0.1155,-0.0462 0.2535,-0.0405 0.30667,0.0126 0.0532,0.0532 -0.0413,0.091 -0.21,0.084 -0.18639,-0.008 -0.22431,-0.0456 -0.0967,-0.0967 z m -18.39041,-1.2907 c -0.19902,-0.25377 -0.19336,-0.25943 0.0604,-0.0604 0.154,0.12078 0.28,0.24678 0.28,0.28 0,0.13169 -0.13139,0.0469 -0.34041,-0.21959 z m -0.96,-0.96 c -0.19902,-0.25377 -0.19336,-0.25943 0.0604,-0.0604 0.154,0.12078 0.28,0.24678 0.28,0.28 0,0.13169 -0.13139,0.0469 -0.34041,-0.21959 z m -0.71479,-0.72 -0.3048,-0.36 0.36,0.3048 c 0.33831,0.28643 0.43284,0.4152 0.3048,0.4152 -0.0304,0 -0.19236,-0.162 -0.36,-0.36 z m -38.7048,-0.28 c 0.159278,-0.176 0.325597,-0.32 0.369597,-0.32 0.044,0 -0.05032,0.144 -0.209597,0.32 -0.159278,0.176 -0.325597,0.32 -0.369597,0.32 -0.044,0 0.05032,-0.144 0.209597,-0.32 z m 37.66789,-0.76 -0.38789,-0.44 0.44,0.38789 c 0.411246,0.36254 0.513374,0.49211 0.38789,0.49211 -0.02866,0 -0.22666,-0.198 -0.44,-0.44 z m -36.54789,-0.36 c 0.159278,-0.176 0.325597,-0.32 0.369597,-0.32 0.044,0 -0.05032,0.144 -0.209597,0.32 -0.159278,0.176 -0.325597,0.32 -0.369597,0.32 -0.044,0 0.05032,-0.144 0.209597,-0.32 z m 35.42789,-0.76 -0.38789,-0.44 0.44,0.38789 c 0.411246,0.36254 0.513374,0.49211 0.38789,0.49211 -0.02866,0 -0.22666,-0.198 -0.44,-0.44 z m -41.66789,-1.64 c 0.159278,-0.176 0.325596,-0.32 0.369596,-0.32 0.044,0 -0.05032,0.144 -0.209596,0.32 -0.159278,0.176 -0.325596,0.32 -0.369596,0.32 -0.044,0 0.05032,-0.144 0.209596,-0.32 z m 59.0248,-8.2 -0.3048,-0.36 0.36,0.3048 c 0.33831,0.28643 0.43284,0.4152 0.3048,0.4152 -0.0304,0 -0.19236,-0.162 -0.36,-0.36 z m -13.04521,-0.72 c -0.19902,-0.25377 -0.19336,-0.25943 0.0604,-0.0604 0.26652,0.20902 0.35128,0.34041 0.21959,0.34041 -0.0332,0 -0.15922,-0.126 -0.28,-0.28 z m 12.24521,-0.08 -0.3048,-0.36 0.36,0.3048 c 0.198,0.16764 0.36,0.32964 0.36,0.36 0,0.12804 -0.12877,0.0335 -0.4152,-0.3048 z m -16.40521,-0.4 c -0.199019,-0.25377 -0.19336,-0.25943 0.06041,-0.0604 0.26652,0.20902 0.351277,0.34041 0.21959,0.34041 -0.03322,0 -0.159224,-0.126 -0.28,-0.28 z m -39.359999,-8.96 c -0.199019,-0.25377 -0.19336,-0.25943 0.06041,-0.0604 0.26652,0.20902 0.351277,0.34041 0.219591,0.34041 -0.03322,0 -0.159225,-0.126 -0.28,-0.28 z m 86.445669,-4.68 c 0,-0.22 0.0363,-0.31 0.0807,-0.2 0.0444,0.11 0.0444,0.29 0,0.4 -0.0444,0.11 -0.0807,0.02 -0.0807,-0.2 z m 0.0243,-1.84 c 9.6e-4,-0.528 0.0308,-0.72471 0.0664,-0.43713 0.0356,0.28757 0.0349,0.71957 -0.002,0.96 -0.0365,0.24042 -0.0656,0.005 -0.0647,-0.52287 z m 10.83042,-14.54041 c 0,-0.0332 0.126,-0.15922 0.28,-0.28 0.25377,-0.19902 0.25943,-0.19336 0.0604,0.0604 -0.20902,0.26652 -0.34041,0.35128 -0.34041,0.21959 z m -34.48,-5.69959 c 0.15928,-0.176 0.3256,-0.32 0.3696,-0.32 0.044,0 -0.0503,0.144 -0.2096,0.32 -0.15928,0.176 -0.3256,0.32 -0.3696,0.32 -0.044,0 0.0503,-0.144 0.2096,-0.32 z m -62.116422,-1.12 c 0,-0.396 0.0312,-0.558 0.06934,-0.36 0.03814,0.198 0.03814,0.522 0,0.72 -0.03814,0.198 -0.06934,0.036 -0.06934,-0.36 z m -13.92,-1.28 c 0,-0.396 0.0312,-0.558 0.06934,-0.36 0.03814,0.198 0.03814,0.522 0,0.72 -0.03814,0.198 -0.06934,0.036 -0.06934,-0.36 z m 77.716422,-0.24 c 0.29852,-0.308 0.57877,-0.56 0.62277,-0.56 0.044,0 -0.16425,0.252 -0.46277,0.56 -0.29852,0.308 -0.57877,0.56 -0.62277,0.56 -0.044,0 0.16425,-0.252 0.46277,-0.56 z m 1.52,-0.4 c 0.15928,-0.176 0.3256,-0.32 0.3696,-0.32 0.044,0 -0.0503,0.144 -0.2096,0.32 -0.15928,0.176 -0.3256,0.32 -0.3696,0.32 -0.044,0 0.0503,-0.144 0.2096,-0.32 z m -79.236422,-1.12 c 0,-0.396 0.0312,-0.558 0.06934,-0.36 0.03814,0.198 0.03814,0.522 0,0.72 -0.03814,0.198 -0.06934,0.036 -0.06934,-0.36 z m 81.076422,-0.70041 c 0,-0.0332 0.126,-0.15922 0.28,-0.28 0.25377,-0.19902 0.25943,-0.19336 0.0604,0.0604 -0.20902,0.26652 -0.34041,0.35128 -0.34041,0.21959 z m 0.64,-0.64 c 0,-0.0332 0.126,-0.15922 0.28,-0.28 0.25377,-0.19902 0.25943,-0.19336 0.0604,0.0604 -0.20902,0.26652 -0.34041,0.35128 -0.34041,0.21959 z m -17.23642,-1.21959 c 0,-0.396 0.0312,-0.558 0.0693,-0.36 0.0381,0.198 0.0381,0.522 0,0.72 -0.0381,0.198 -0.0693,0.036 -0.0693,-0.36 z m 19.71642,-1.28 c 0.15928,-0.176 0.3256,-0.32 0.3696,-0.32 0.044,0 -0.0503,0.144 -0.2096,0.32 -0.15928,0.176 -0.3256,0.32 -0.3696,0.32 -0.044,0 0.0503,-0.144 0.2096,-0.32 z m -19.26737,-6.97333 c 0.008,-0.18639 0.0456,-0.22431 0.0967,-0.0967 0.0462,0.1155 0.0405,0.2535 -0.0126,0.30667 -0.0532,0.0532 -0.091,-0.0413 -0.084,-0.21 z m -50.53551,-0.54667 c 0,-0.308 0.03293,-0.434 0.07317,-0.28 0.04024,0.154 0.04024,0.406 0,0.56 -0.04024,0.154 -0.07317,0.028 -0.07317,-0.28 z m 80.92288,-4.06041 c 0,-0.0332 0.126,-0.15922 0.28,-0.28 0.25377,-0.19902 0.25943,-0.19336 0.0604,0.0604 -0.20902,0.26652 -0.34041,0.35128 -0.34041,0.21959 z m -62.227368,-5.47292 c 0.0077,-0.18639 0.04559,-0.22431 0.09667,-0.0967 0.04622,0.1155 0.04054,0.2535 -0.01262,0.30667 -0.05317,0.0532 -0.09098,-0.0413 -0.08404,-0.21 z m -18.24,-4.96 c 0.0077,-0.18639 0.04559,-0.22431 0.09667,-0.0967 0.04622,0.1155 0.04053,0.2535 -0.01263,0.30667 -0.05317,0.0532 -0.09098,-0.0413 -0.08404,-0.21 z m 38.56,-3.68 c 0.0077,-0.18639 0.04559,-0.22431 0.09667,-0.0967 0.04622,0.1155 0.04054,0.2535 -0.01262,0.30667 -0.05317,0.0532 -0.09098,-0.0413 -0.08404,-0.21 z m -20.761421,-1.18667 c 0,-0.572 0.02904,-0.806 0.06453,-0.52 0.03549,0.286 0.03549,0.754 0,1.04 -0.03549,0.286 -0.06453,0.052 -0.06453,-0.52 z m -0.665949,-0.32 c 0,-0.22 0.03632,-0.31 0.0807,-0.2 0.04439,0.11 0.04439,0.29 0,0.4 -0.04439,0.11 -0.0807,0.02 -0.0807,-0.2 z m 10.72593,-6.32 c 0.0033,-0.264 0.03912,-0.35263 0.07969,-0.19696 0.04057,0.15568 0.0379,0.37168 -0.0059,0.48 -0.04383,0.10833 -0.07702,-0.019 -0.07376,-0.28304 z m 11.34144,0.14667 c 0.0077,-0.18639 0.04559,-0.22431 0.09667,-0.0967 0.04622,0.1155 0.04054,0.2535 -0.01262,0.30667 -0.05317,0.0532 -0.09098,-0.0413 -0.08404,-0.21 z m -12.48,-2.88 c 0.0077,-0.18639 0.04559,-0.22431 0.09667,-0.0967 0.04622,0.1155 0.04054,0.2535 -0.01262,0.30667 -0.05317,0.0532 -0.09098,-0.0413 -0.08404,-0.21 z m -25.052632,-0.22667 c 0.159278,-0.176 0.325597,-0.32 0.369597,-0.32 0.044,0 -0.05032,0.144 -0.209597,0.32 -0.159278,0.176 -0.325597,0.32 -0.369597,0.32 -0.044,0 0.05032,-0.144 0.209597,-0.32 z m 2.64,-2.62041 c 0,-0.0332 0.126,-0.15922 0.28,-0.28 0.25377,-0.19902 0.259429,-0.19336 0.06041,0.0604 -0.20902,0.26652 -0.34041,0.35128 -0.34041,0.21959 z m 23.565762,-1.77959 c 0.0013,-0.44 0.03227,-0.60101 0.06905,-0.3578 0.03678,0.24321 0.03579,0.60321 -0.0022,0.8 -0.03799,0.19679 -0.06807,-0.002 -0.06687,-0.4422 z m 10.8595,0.4 c 0,-0.22 0.03632,-0.31 0.0807,-0.2 0.04439,0.11 0.04439,0.29 0,0.4 -0.04439,0.11 -0.0807,0.02 -0.0807,-0.2 z m -12.01263,-2.65333 c 0.0077,-0.18639 0.04559,-0.22431 0.09667,-0.0967 0.04622,0.1155 0.04054,0.2535 -0.01262,0.30667 -0.05317,0.0532 -0.09098,-0.0413 -0.08404,-0.21 z m 26.517368,-12.49597 c 0.1155,-0.0462 0.2535,-0.0405 0.30667,0.0126 0.0532,0.0532 -0.0413,0.091 -0.21,0.084 -0.18639,-0.008 -0.22431,-0.0456 -0.0967,-0.0967 z"
         id="path3535" /><path
         style="fill:#8c8c8c;fill-opacity:1;stroke-width:0.16"
         d="m 44.926653,-202.07022 c 0,-0.22 0.03632,-0.31 0.0807,-0.2 0.04439,0.11 0.04439,0.29 0,0.4 -0.04439,0.11 -0.0807,0.02 -0.0807,-0.2 z m 72.754327,-14.36 c -0.19902,-0.25377 -0.19336,-0.25943 0.0604,-0.0604 0.154,0.12078 0.28,0.24678 0.28,0.28 0,0.13169 -0.13139,0.0469 -0.34041,-0.21959 z m -4.55479,-4.56 -0.3048,-0.36 0.36,0.3048 c 0.33831,0.28643 0.43284,0.4152 0.3048,0.4152 -0.0304,0 -0.19236,-0.162 -0.36,-0.36 z m 24.74783,-4.05333 c 0.008,-0.18639 0.0456,-0.22431 0.0967,-0.0967 0.0462,0.1155 0.0405,0.2535 -0.0126,0.30667 -0.0532,0.0532 -0.091,-0.0413 -0.084,-0.21 z m -1.88905,-2.94667 c 0,-0.396 0.0312,-0.558 0.0693,-0.36 0.0381,0.198 0.0381,0.522 0,0.72 -0.0381,0.198 -0.0693,0.036 -0.0693,-0.36 z m -26.94399,0.2 c -0.19902,-0.25377 -0.19336,-0.25943 0.0604,-0.0604 0.154,0.12078 0.28,0.24678 0.28,0.28 0,0.13169 -0.13139,0.0469 -0.34041,-0.21959 z m 34.32521,-5.84 -0.3048,-0.36 0.36,0.3048 c 0.33831,0.28643 0.43284,0.4152 0.3048,0.4152 -0.0304,0 -0.19236,-0.162 -0.36,-0.36 z m -37.84521,-0.24 c -0.19902,-0.25377 -0.19336,-0.25943 0.0604,-0.0604 0.154,0.12078 0.28,0.24678 0.28,0.28 0,0.13169 -0.13139,0.0469 -0.34041,-0.21959 z m 25.28,-9.76 c -0.19902,-0.25377 -0.19336,-0.25943 0.0604,-0.0604 0.154,0.12078 0.28,0.24678 0.28,0.28 0,0.13169 -0.13139,0.0469 -0.34041,-0.21959 z m -24.16,-3.68 c -0.19902,-0.25377 -0.19336,-0.25943 0.0604,-0.0604 0.154,0.12078 0.28,0.24678 0.28,0.28 0,0.13169 -0.13139,0.0469 -0.34041,-0.21959 z m -1.1117,-1.12 -0.38789,-0.44 0.44,0.38789 c 0.41125,0.36254 0.51337,0.49211 0.38789,0.49211 -0.0287,0 -0.22666,-0.198 -0.44,-0.44 z m -0.88309,-0.88 -0.3048,-0.36 0.36,0.3048 c 0.33831,0.28643 0.43284,0.4152 0.3048,0.4152 -0.0304,0 -0.19236,-0.162 -0.36,-0.36 z m -34.9748,-4.0693 c 0.115499,-0.0462 0.253499,-0.0405 0.306667,0.0126 0.05317,0.0532 -0.04133,0.091 -0.21,0.084 -0.186392,-0.008 -0.224304,-0.0456 -0.09667,-0.0967 z m 49.31,-31.79111 c 0,-0.0332 0.126,-0.15922 0.28,-0.28 0.25377,-0.19902 0.25943,-0.19336 0.0604,0.0604 -0.20902,0.26652 -0.34041,0.35128 -0.34041,0.21959 z m -9.00201,-2.29959 c -0.0335,-0.066 -0.0103,-0.336 0.0516,-0.6 0.11064,-0.47193 0.11285,-0.46991 0.13146,0.12 0.018,0.56971 -0.0488,0.74467 -0.18308,0.48 z m -64.265358,-3.65333 c 0.0077,-0.18639 0.04559,-0.22431 0.09667,-0.0967 0.04622,0.1155 0.04053,0.2535 -0.01263,0.30667 -0.05317,0.0532 -0.09098,-0.0413 -0.08404,-0.21 z m 14.110946,-2.14667 c 0,-0.396 0.0312,-0.558 0.06934,-0.36 0.03814,0.198 0.03814,0.522 0,0.72 -0.03814,0.198 -0.06934,0.036 -0.06934,-0.36 z m 50.547612,-4.24 c 0.003,-0.264 0.0391,-0.35263 0.0797,-0.19696 0.0406,0.15568 0.0379,0.37168 -0.006,0.48 -0.0438,0.10833 -0.077,-0.019 -0.0738,-0.28304 z m 41.75407,-0.56 c 0,-0.22 0.0363,-0.31 0.0807,-0.2 0.0444,0.11 0.0444,0.29 0,0.4 -0.0444,0.11 -0.0807,0.02 -0.0807,-0.2 z m -16.34526,-3.76 c 0.20668,-0.22 0.41178,-0.4 0.45578,-0.4 0.044,0 -0.0891,0.18 -0.29578,0.4 -0.20668,0.22 -0.41178,0.4 -0.45578,0.4 -0.044,0 0.0891,-0.18 0.29578,-0.4 z m -0.8,-0.62041 c 0,-0.0332 0.126,-0.15922 0.28,-0.28 0.25377,-0.19902 0.25943,-0.19336 0.0604,0.0604 -0.20902,0.26652 -0.34041,0.35128 -0.34041,0.21959 z m -57.427368,-1.47292 c 0.0077,-0.18639 0.04559,-0.22431 0.09667,-0.0967 0.04622,0.1155 0.04054,0.2535 -0.01262,0.30667 -0.05317,0.0532 -0.09098,-0.0413 -0.08404,-0.21 z m 60.787368,-2.04708 c 0,-0.0332 0.126,-0.15922 0.28,-0.28 0.25377,-0.19902 0.25943,-0.19336 0.0604,0.0604 -0.20902,0.26652 -0.34041,0.35128 -0.34041,0.21959 z m -78.036422,-1.37959 c 0,-0.396 0.0312,-0.558 0.06934,-0.36 0.03814,0.198 0.03814,0.522 0,0.72 -0.03814,0.198 -0.06934,0.036 -0.06934,-0.36 z m -2.750946,-1.37333 c 0.0077,-0.18639 0.04559,-0.22431 0.09667,-0.0967 0.04622,0.1155 0.04053,0.2535 -0.01263,0.30667 -0.05317,0.0532 -0.09098,-0.0413 -0.08404,-0.21 z m 53.759998,-1.6 c 0.008,-0.18639 0.0456,-0.22431 0.0967,-0.0967 0.0462,0.1155 0.0405,0.2535 -0.0126,0.30667 -0.0532,0.0532 -0.091,-0.0413 -0.084,-0.21 z m -32.639998,-5.12 c 0.0077,-0.18639 0.04559,-0.22431 0.09667,-0.0967 0.04622,0.1155 0.04054,0.2535 -0.01262,0.30667 -0.05317,0.0532 -0.09098,-0.0413 -0.08404,-0.21 z m -18.067369,-1.82667 c 0,-0.22 0.03632,-0.31 0.0807,-0.2 0.04439,0.11 0.04439,0.29 0,0.4 -0.04439,0.11 -0.0807,0.02 -0.0807,-0.2 z m 17.907369,-1.05333 c 0.0077,-0.18639 0.04559,-0.22431 0.09667,-0.0967 0.04622,0.1155 0.04054,0.2535 -0.01262,0.30667 -0.05317,0.0532 -0.09098,-0.0413 -0.08404,-0.21 z m 20.8,-0.48 c 0.0077,-0.18639 0.04559,-0.22431 0.09667,-0.0967 0.04622,0.1155 0.04054,0.2535 -0.01262,0.30667 -0.05317,0.0532 -0.09098,-0.0413 -0.08404,-0.21 z m -21.74737,-1.98667 c 0,-0.22 0.03632,-0.31 0.0807,-0.2 0.04438,0.11 0.04438,0.29 0,0.4 -0.04439,0.11 -0.0807,0.02 -0.0807,-0.2 z m 79.494738,-5.02041 c 0,-0.0332 0.126,-0.15922 0.28,-0.28 0.25377,-0.19902 0.25943,-0.19336 0.0604,0.0604 -0.20902,0.26652 -0.34041,0.35128 -0.34041,0.21959 z m -68.467368,-0.83292 c 0.0077,-0.18639 0.04559,-0.22431 0.09667,-0.0967 0.04622,0.1155 0.04054,0.2535 -0.01262,0.30667 -0.05317,0.0532 -0.09098,-0.0413 -0.08404,-0.21 z m 68.467368,-0.44708 c 0,-0.0332 0.126,-0.15922 0.28,-0.28 0.25377,-0.19902 0.25943,-0.19336 0.0604,0.0604 -0.20902,0.26652 -0.34041,0.35128 -0.34041,0.21959 z m -58.188789,-2.01959 c 0,-0.572 0.02904,-0.806 0.06453,-0.52 0.03549,0.286 0.03549,0.754 0,1.04 -0.03549,0.286 -0.06453,0.052 -0.06453,-0.52 z m 0.601421,-4.73333 c 0.0077,-0.18639 0.04559,-0.22431 0.09667,-0.0967 0.04622,0.1155 0.04054,0.2535 -0.01262,0.30667 -0.05317,0.0532 -0.09098,-0.0413 -0.08404,-0.21 z m -10.88,-6.08 c 0.0077,-0.18639 0.04559,-0.22431 0.09667,-0.0967 0.04622,0.1155 0.04054,0.2535 -0.01262,0.30667 -0.05317,0.0532 -0.09098,-0.0413 -0.08404,-0.21 z m -0.01263,-7.74667 c -0.205104,-0.13255 -0.199288,-0.15546 0.04,-0.15755 0.154,-0.001 0.28,0.0695 0.28,0.15755 0,0.19514 -0.01805,0.19514 -0.32,0 z m 7.49,-3.6293 c 0.115499,-0.0462 0.253501,-0.0405 0.306667,0.0126 0.05317,0.0532 -0.04133,0.091 -0.21,0.084 -0.186392,-0.008 -0.224304,-0.0456 -0.09667,-0.0967 z"
         id="path3533" /><path
         style="fill:#767676;fill-opacity:1;stroke-width:0.16"
         d="m 48.126653,-200.15022 c 0,-0.22 0.03632,-0.31 0.0807,-0.2 0.04439,0.11 0.04439,0.29 0,0.4 -0.04439,0.11 -0.0807,0.02 -0.0807,-0.2 z m 92.894737,-4.11574 c 0.286,-0.0355 0.754,-0.0355 1.04,0 0.286,0.0355 0.052,0.0645 -0.52,0.0645 -0.572,0 -0.806,-0.029 -0.52,-0.0645 z m 2.44,-9.38467 c 0,-0.0332 0.126,-0.15922 0.28,-0.28 0.25377,-0.19902 0.25943,-0.19336 0.0604,0.0604 -0.20902,0.26652 -0.34041,0.35128 -0.34041,0.21959 z m -1.40881,-4.97959 c 0.003,-0.264 0.0391,-0.35263 0.0797,-0.19696 0.0406,0.15568 0.0379,0.37168 -0.006,0.48 -0.0438,0.10833 -0.077,-0.019 -0.0738,-0.28304 z m -8.35119,-2.70041 c 0,-0.0332 0.126,-0.15922 0.28,-0.28 0.25377,-0.19902 0.25943,-0.19336 0.0604,0.0604 -0.20902,0.26652 -0.34041,0.35128 -0.34041,0.21959 z m -21.46041,-3.57959 c -0.19902,-0.25377 -0.19336,-0.25943 0.0604,-0.0604 0.154,0.12078 0.28,0.24678 0.28,0.28 0,0.13169 -0.13139,0.0469 -0.34041,-0.21959 z m -3.75479,-3.44 -0.3048,-0.36 0.36,0.3048 c 0.33831,0.28643 0.43284,0.4152 0.3048,0.4152 -0.0304,0 -0.19236,-0.162 -0.36,-0.36 z m -2.87487,-2.72 -0.46993,-0.52 0.52,0.46993 c 0.48471,0.43805 0.59354,0.57007 0.46993,0.57007 -0.0275,0 -0.26153,-0.234 -0.52,-0.52 z m -2.88,-5.44 -0.46993,-0.52 0.52,0.46993 c 0.286,0.25847 0.52,0.49247 0.52,0.52 0,0.12361 -0.13202,0.0148 -0.57007,-0.46993 z m -40.54993,0.13959 c 0,-0.0332 0.126,-0.15922 0.28,-0.28 0.25377,-0.19902 0.259429,-0.19336 0.06041,0.0604 -0.20902,0.26652 -0.34041,0.35128 -0.34041,0.21959 z m 64.98526,-1.85959 c 0,-0.22 0.0363,-0.31 0.0807,-0.2 0.0444,0.11 0.0444,0.29 0,0.4 -0.0444,0.11 -0.0807,0.02 -0.0807,-0.2 z m -30.59737,-4.44 -0.38789,-0.44 0.44,0.38789 c 0.411246,0.36254 0.513374,0.49211 0.38789,0.49211 -0.02866,0 -0.22666,-0.198 -0.44,-0.44 z m -39.18789,-0.92 c 0.206679,-0.22 0.41178,-0.4 0.45578,-0.4 0.044,0 -0.0891,0.18 -0.29578,0.4 -0.206679,0.22 -0.41178,0.4 -0.45578,0.4 -0.044,0 0.0891,-0.18 0.29578,-0.4 z m 66.29485,-1.76 c 6.4e-4,-0.704 0.0287,-0.9721 0.0625,-0.59577 0.0338,0.37633 0.0333,0.95233 -0.001,1.28 -0.0344,0.32767 -0.062,0.0198 -0.0614,-0.68423 z m -21.33838,-2.44 -1.35647,-1.4 1.4,1.35647 c 0.77,0.74605 1.4,1.37605 1.4,1.4 0,0.11641 -0.18369,-0.0562 -1.44353,-1.35647 z m -33.83647,-2.6 c -0.305338,-0.13121 -0.303504,-0.13802 0.04,-0.14875 0.198,-0.006 0.36,0.0608 0.36,0.14875 0,0.088 -0.018,0.15494 -0.04,0.14875 -0.022,-0.006 -0.184,-0.0731 -0.36,-0.14875 z m -7.12,-6.30041 c 0,-0.0332 0.126,-0.15922 0.28,-0.28 0.25377,-0.19902 0.259429,-0.19336 0.06041,0.0604 -0.20902,0.26652 -0.34041,0.35128 -0.34041,0.21959 z m 84.02526,-9.69959 c 0,-0.22 0.0363,-0.31 0.0807,-0.2 0.0444,0.11 0.0444,0.29 0,0.4 -0.0444,0.11 -0.0807,0.02 -0.0807,-0.2 z m -23.06526,-22.96 c 0.29852,-0.308 0.57877,-0.56 0.62277,-0.56 0.044,0 -0.16425,0.252 -0.46277,0.56 -0.29852,0.308 -0.57877,0.56 -0.62277,0.56 -0.044,0 0.16425,-0.252 0.46277,-0.56 z m 4.48,-4.62041 c 0,-0.0332 0.126,-0.15922 0.28,-0.28 0.25377,-0.19902 0.25943,-0.19336 0.0604,0.0604 -0.20902,0.26652 -0.34041,0.35128 -0.34041,0.21959 z m -66.836422,-3.45959 c 0,-0.396 0.0312,-0.558 0.06934,-0.36 0.03814,0.198 0.03814,0.522 0,0.72 -0.03814,0.198 -0.06934,0.036 -0.06934,-0.36 z m 70.036422,0.10993 c 0,-0.0275 0.234,-0.26153 0.52,-0.52 l 0.52,-0.46993 -0.46993,0.52 c -0.43805,0.48471 -0.57007,0.59354 -0.57007,0.46993 z m -52.147368,-2.12326 c 0.0077,-0.18639 0.04559,-0.22431 0.09667,-0.0967 0.04622,0.1155 0.04054,0.2535 -0.01262,0.30667 -0.05317,0.0532 -0.09098,-0.0413 -0.08404,-0.21 z m 32.652628,-0.54667 c 0,-0.22 0.0363,-0.31 0.0807,-0.2 0.0444,0.11 0.0444,0.29 0,0.4 -0.0444,0.11 -0.0807,0.02 -0.0807,-0.2 z m -1.6,-4.32 c 0,-0.22 0.0363,-0.31 0.0807,-0.2 0.0444,0.11 0.0444,0.29 0,0.4 -0.0444,0.11 -0.0807,0.02 -0.0807,-0.2 z m 28.93474,-1.18041 c 0,-0.0332 0.126,-0.15922 0.28,-0.28 0.25377,-0.19902 0.25943,-0.19336 0.0604,0.0604 -0.20902,0.26652 -0.34041,0.35128 -0.34041,0.21959 z m -60.448808,-1.29959 c 0.0033,-0.264 0.03912,-0.35263 0.07969,-0.19696 0.04057,0.15568 0.0379,0.37168 -0.0059,0.48 -0.04383,0.10833 -0.07702,-0.019 -0.07376,-0.28304 z m 64.528808,-1.52 c 0.15928,-0.176 0.3256,-0.32 0.3696,-0.32 0.044,0 -0.0503,0.144 -0.2096,0.32 -0.15928,0.176 -0.3256,0.32 -0.3696,0.32 -0.044,0 0.0503,-0.144 0.2096,-0.32 z m -62.787368,-1.37333 c 0.0077,-0.18639 0.04559,-0.22431 0.09667,-0.0967 0.04622,0.1155 0.04054,0.2535 -0.01262,0.30667 -0.05317,0.0532 -0.09098,-0.0413 -0.08404,-0.21 z m 62.707368,0.0329 c 0,-0.0332 0.126,-0.15922 0.28,-0.28 0.25377,-0.19902 0.25943,-0.19336 0.0604,0.0604 -0.20902,0.26652 -0.34041,0.35128 -0.34041,0.21959 z m -81.40288,-2.17959 c 0,-0.308 0.03293,-0.434 0.07317,-0.28 0.04024,0.154 0.04024,0.406 0,0.56 -0.04024,0.154 -0.07317,0.028 -0.07317,-0.28 z m 16.966458,-5.76 c 0,-0.396 0.0312,-0.558 0.06934,-0.36 0.03814,0.198 0.03814,0.522 0,0.72 -0.03814,0.198 -0.06934,0.036 -0.06934,-0.36 z m -16.670946,-3.61333 c 0.0077,-0.18639 0.04559,-0.22431 0.09667,-0.0967 0.04622,0.1155 0.04054,0.2535 -0.01262,0.30667 -0.05317,0.0532 -0.09098,-0.0413 -0.08404,-0.21 z m 0,-0.8 c 0.0077,-0.18639 0.04559,-0.22431 0.09667,-0.0967 0.04622,0.1155 0.04054,0.2535 -0.01262,0.30667 -0.05317,0.0532 -0.09098,-0.0413 -0.08404,-0.21 z m 17.630946,-3.26667 c 0,-0.396 0.0312,-0.558 0.06934,-0.36 0.03814,0.198 0.03814,0.522 0,0.72 -0.03814,0.198 -0.06934,0.036 -0.06934,-0.36 z m 10.369054,0.38667 c 0.0077,-0.18639 0.04559,-0.22431 0.09667,-0.0967 0.04622,0.1155 0.04054,0.2535 -0.01262,0.30667 -0.05317,0.0532 -0.09098,-0.0413 -0.08404,-0.21 z m -10.372283,-3.02667 c 0.0018,-0.352 0.03454,-0.47716 0.07281,-0.27813 0.03827,0.19902 0.03682,0.48702 -0.0032,0.64 -0.04005,0.15297 -0.07136,-0.01 -0.06958,-0.36187 z m 20.452283,-2.89333 c 0.0077,-0.18639 0.04559,-0.22431 0.09667,-0.0967 0.04622,0.1155 0.04054,0.2535 -0.01262,0.30667 -0.05317,0.0532 -0.09098,-0.0413 -0.08404,-0.21 z m 0.8,-0.96 c 0.0077,-0.18639 0.04559,-0.22431 0.09667,-0.0967 0.04622,0.1155 0.04054,0.2535 -0.01262,0.30667 -0.05317,0.0532 -0.09098,-0.0413 -0.08404,-0.21 z m -0.754195,-2.86667 c 4.8e-4,-0.88 0.02728,-1.21959 0.05971,-0.75464 0.03242,0.46495 0.03208,1.18495 -8e-4,1.6 -0.03284,0.41505 -0.05937,0.0346 -0.05895,-0.84536 z m -0.02725,-4.64 c 0.0033,-0.264 0.03912,-0.35263 0.07969,-0.19695 0.04057,0.15567 0.0379,0.37167 -0.0059,0.48 -0.04382,0.10832 -0.07701,-0.019 -0.07375,-0.28305 z m 0.30144,-0.33333 c 0.0077,-0.18639 0.04559,-0.22431 0.09667,-0.0967 0.04622,0.1155 0.04054,0.2535 -0.01262,0.30667 -0.05317,0.0532 -0.09098,-0.0413 -0.08404,-0.21 z m -10.4,-2.56 c 0.0077,-0.18639 0.04559,-0.22431 0.09667,-0.0967 0.04622,0.1155 0.04054,0.2535 -0.01262,0.30667 -0.05317,0.0532 -0.09098,-0.0413 -0.08404,-0.21 z"
         id="path3531" /><path
         style="fill:#606060;fill-opacity:1;stroke-width:0.16"
         d="m 44.784968,-197.59022 c 0,-0.396 0.0312,-0.558 0.06934,-0.36 0.03814,0.198 0.03814,0.522 0,0.72 -0.03814,0.198 -0.06934,0.036 -0.06934,-0.36 z m 67.701222,-24.04 -0.3048,-0.36 0.36,0.3048 c 0.33831,0.28643 0.43284,0.4152 0.3048,0.4152 -0.0304,0 -0.19236,-0.162 -0.36,-0.36 z m 25.38783,-7.25333 c 0.008,-0.18639 0.0456,-0.22431 0.0967,-0.0967 0.0462,0.1155 0.0405,0.2535 -0.0126,0.30667 -0.0532,0.0532 -0.091,-0.0413 -0.084,-0.21 z m -32.99304,-6.58667 c -0.19902,-0.25377 -0.19336,-0.25943 0.0604,-0.0604 0.26652,0.20902 0.35128,0.34041 0.21959,0.34041 -0.0332,0 -0.15922,-0.126 -0.28,-0.28 z m -40.93959,-2.66041 c 0,-0.0332 0.126,-0.15922 0.28,-0.28 0.25377,-0.19902 0.259429,-0.19336 0.06041,0.0604 -0.20902,0.26652 -0.34041,0.35128 -0.34041,0.21959 z m 61.16358,-4.73959 c 0,-0.396 0.0312,-0.558 0.0693,-0.36 0.0381,0.198 0.0381,0.522 0,0.72 -0.0381,0.198 -0.0693,0.036 -0.0693,-0.36 z m -48.71358,-1.3893 c 0.115499,-0.0462 0.253499,-0.0405 0.306667,0.0126 0.05317,0.0532 -0.04133,0.091 -0.21,0.084 -0.186392,-0.008 -0.224304,-0.0456 -0.09667,-0.0967 z m 32.32959,-1.1307 c -0.19902,-0.25377 -0.19336,-0.25943 0.0604,-0.0604 0.154,0.12078 0.28,0.24678 0.28,0.28 0,0.13169 -0.13139,0.0469 -0.34041,-0.21959 z m -55.646958,-0.61333 c 0.0077,-0.18639 0.04559,-0.22431 0.09667,-0.0967 0.04622,0.1155 0.04053,0.2535 -0.01263,0.30667 -0.05317,0.0532 -0.09098,-0.0413 -0.08404,-0.21 z m 64.446958,-3.06667 c -0.19902,-0.25377 -0.19336,-0.25943 0.0604,-0.0604 0.154,0.12078 0.28,0.24678 0.28,0.28 0,0.13169 -0.13139,0.0469 -0.34041,-0.21959 z m -5.67479,-3.76 -0.3048,-0.36 0.36,0.3048 c 0.198,0.16764 0.36,0.32964 0.36,0.36 0,0.12804 -0.12877,0.0335 -0.4152,-0.3048 z m -46.1848,-0.066 c 0.11,-0.0444 0.29,-0.0444 0.4,0 0.11,0.0444 0.02,0.0807 -0.2,0.0807 -0.22,0 -0.31,-0.0363 -0.2,-0.0807 z m 45.22993,-0.89404 -0.46993,-0.52 0.52,0.46993 c 0.48471,0.43805 0.59354,0.57007 0.46993,0.57007 -0.0275,0 -0.26153,-0.234 -0.52,-0.52 z m 13.66007,-12.8693 c 0.1155,-0.0462 0.2535,-0.0405 0.30667,0.0126 0.0532,0.0532 -0.0413,0.091 -0.21,0.084 -0.18639,-0.008 -0.22431,-0.0456 -0.0967,-0.0967 z m 26.92263,-10.06403 c 0.008,-0.18639 0.0456,-0.22431 0.0967,-0.0967 0.0462,0.1155 0.0405,0.2535 -0.0126,0.30667 -0.0532,0.0532 -0.091,-0.0413 -0.084,-0.21 z m -35.05263,-6.36955 c 0,-0.0346 0.11174,-0.10576 0.24831,-0.15817 0.14239,-0.0546 0.20661,-0.0278 0.15056,0.0629 -0.094,0.15204 -0.39887,0.22487 -0.39887,0.0953 z m -56.88,-4.09712 c 0.05439,-0.088 0.130636,-0.16 0.169443,-0.16 0.03881,0 0.07056,0.072 0.07056,0.16 0,0.088 -0.07625,0.16 -0.169443,0.16 -0.09319,0 -0.124944,-0.072 -0.07056,-0.16 z m 50.39342,-0.0106 c -0.058,-0.0939 -0.0712,-0.20496 -0.0292,-0.2469 0.0419,-0.0419 0.11889,0.0349 0.171,0.17064 0.10819,0.28194 0.016,0.33153 -0.14179,0.0763 z m -50.288157,-0.62936 c 0,-0.22 0.03632,-0.31 0.0807,-0.2 0.04439,0.11 0.04439,0.29 0,0.4 -0.04439,0.11 -0.0807,0.02 -0.0807,-0.2 z m 65.574737,-4.54041 c 0,-0.0332 0.126,-0.15922 0.28,-0.28 0.25377,-0.19902 0.25943,-0.19336 0.0604,0.0604 -0.20902,0.26652 -0.34041,0.35128 -0.34041,0.21959 z m -14.99642,-0.89959 c 0,-0.396 0.0312,-0.558 0.0693,-0.36 0.0381,0.198 0.0381,0.522 0,0.72 -0.0381,0.198 -0.0693,0.036 -0.0693,-0.36 z m 20.91642,-3.76 c 0.29852,-0.308 0.57877,-0.56 0.62277,-0.56 0.044,0 -0.16425,0.252 -0.46277,0.56 -0.29852,0.308 -0.57877,0.56 -0.62277,0.56 -0.044,0 0.16425,-0.252 0.46277,-0.56 z m 0.8,-0.78041 c 0,-0.0332 0.126,-0.15922 0.28,-0.28 0.25377,-0.19902 0.25943,-0.19336 0.0604,0.0604 -0.20902,0.26652 -0.34041,0.35128 -0.34041,0.21959 z m 1.28,-2.86966 c 0,-0.0275 0.234,-0.26153 0.52,-0.52 l 0.52,-0.46993 -0.46993,0.52 c -0.43805,0.48471 -0.57007,0.59354 -0.57007,0.46993 z m -73.08288,-0.90993 c 0,-0.308 0.03293,-0.434 0.07317,-0.28 0.04024,0.154 0.04024,0.406 0,0.56 -0.04024,0.154 -0.07317,0.028 -0.07317,-0.28 z m 79.48288,-4.22041 c 0,-0.0332 0.126,-0.15922 0.28,-0.28 0.25377,-0.19902 0.25943,-0.19336 0.0604,0.0604 -0.20902,0.26652 -0.34041,0.35128 -0.34041,0.21959 z m -17.92,-5.37959 c 0,-0.088 0.0763,-0.16 0.16944,-0.16 0.0932,0 0.12495,0.072 0.0706,0.16 -0.0544,0.088 -0.13064,0.16 -0.16944,0.16 -0.0388,0 -0.0706,-0.072 -0.0706,-0.16 z m -10.22737,-0.41333 c 0.008,-0.18639 0.0456,-0.22431 0.0967,-0.0967 0.0462,0.1155 0.0405,0.2535 -0.0126,0.30667 -0.0532,0.0532 -0.091,-0.0413 -0.084,-0.21 z m 32.78737,-0.60708 c 0,-0.0332 0.126,-0.15922 0.28,-0.28 0.25377,-0.19902 0.25943,-0.19336 0.0604,0.0604 -0.20902,0.26652 -0.34041,0.35128 -0.34041,0.21959 z m -65.427368,-1.31292 c 0.0077,-0.18639 0.04559,-0.22431 0.09667,-0.0967 0.04622,0.1155 0.04054,0.2535 -0.01262,0.30667 -0.05317,0.0532 -0.09098,-0.0413 -0.08404,-0.21 z m -0.32,-5.6 c 0.0077,-0.18639 0.04559,-0.22431 0.09667,-0.0967 0.04622,0.1155 0.04054,0.2535 -0.01262,0.30667 -0.05317,0.0532 -0.09098,-0.0413 -0.08404,-0.21 z m 20.49263,-4.38667 c 0,-0.22 0.03632,-0.31 0.0807,-0.2 0.04438,0.11 0.04438,0.29 0,0.4 -0.04439,0.11 -0.0807,0.02 -0.0807,-0.2 z m -21.29263,-0.25333 c 0.0077,-0.18639 0.04559,-0.22431 0.09667,-0.0967 0.04622,0.1155 0.04054,0.2535 -0.01262,0.30667 -0.05317,0.0532 -0.09098,-0.0413 -0.08404,-0.21 z m 22.559998,-0.96 c 0.008,-0.18639 0.0456,-0.22431 0.0967,-0.0967 0.0462,0.1155 0.0405,0.2535 -0.0126,0.30667 -0.0532,0.0532 -0.091,-0.0413 -0.084,-0.21 z m -0.16,-1.44 c 0.008,-0.18639 0.0456,-0.22431 0.0967,-0.0967 0.0462,0.1155 0.0405,0.2535 -0.0126,0.30667 -0.0532,0.0532 -0.091,-0.0413 -0.084,-0.21 z m -0.319998,-3.68 c 0.0077,-0.18639 0.04559,-0.22431 0.09667,-0.0967 0.04622,0.1155 0.04054,0.2535 -0.01262,0.30667 -0.05317,0.0532 -0.09098,-0.0413 -0.08404,-0.21 z m -11.34737,-0.70667 c 0,-0.22 0.03632,-0.31 0.0807,-0.2 0.04439,0.11 0.04439,0.29 0,0.4 -0.04439,0.11 -0.0807,0.02 -0.0807,-0.2 z m 0.0364,-2.4 c 0,-1.1 0.02556,-1.55 0.05681,-1 0.03124,0.55 0.03124,1.45 0,2 -0.03124,0.55 -0.05681,0.1 -0.05681,-1 z m -25.261658,-0.32 c 0.159278,-0.176 0.325597,-0.32 0.369597,-0.32 0.044,0 -0.05032,0.144 -0.209597,0.32 -0.159278,0.176 -0.325597,0.32 -0.369597,0.32 -0.044,0 0.05032,-0.144 0.209597,-0.32 z m 25.225262,-2.08 c 0,-0.22 0.03632,-0.31 0.0807,-0.2 0.04439,0.11 0.04439,0.29 0,0.4 -0.04439,0.11 -0.0807,0.02 -0.0807,-0.2 z m 10.86737,-1.85333 c 0.0077,-0.18639 0.04559,-0.22431 0.09667,-0.0967 0.04622,0.1155 0.04054,0.2535 -0.01262,0.30667 -0.05317,0.0532 -0.09098,-0.0413 -0.08404,-0.21 z m -12,-2.56 c 0.0077,-0.18639 0.04559,-0.22431 0.09667,-0.0967 0.04622,0.1155 0.04054,0.2535 -0.01262,0.30667 -0.05317,0.0532 -0.09098,-0.0413 -0.08404,-0.21 z m 21.877364,-11.69597 c 0.1155,-0.0462 0.2535,-0.0405 0.30667,0.0126 0.0532,0.0532 -0.0413,0.091 -0.21,0.084 -0.18639,-0.008 -0.22431,-0.0456 -0.0967,-0.0967 z m 4,0 c 0.1155,-0.0462 0.2535,-0.0405 0.30667,0.0126 0.0532,0.0532 -0.0413,0.091 -0.21,0.084 -0.18639,-0.008 -0.22431,-0.0456 -0.0967,-0.0967 z"
         id="path3529" /><path
         style="fill:#494949;fill-opacity:1;stroke-width:0.16"
         d="m 44.932582,-201.03022 c 0.0033,-0.264 0.03912,-0.35263 0.07969,-0.19696 0.04057,0.15568 0.0379,0.37168 -0.0059,0.48 -0.04383,0.10833 -0.07702,-0.019 -0.07376,-0.28304 z m 3.2,0 c 0.0033,-0.264 0.03912,-0.35263 0.07969,-0.19696 0.04057,0.15568 0.0379,0.37168 -0.0059,0.48 -0.04383,0.10833 -0.07702,-0.019 -0.07376,-0.28304 z m 0.14144,-2.09333 c 0.0077,-0.18639 0.04559,-0.22431 0.09667,-0.0967 0.04622,0.1155 0.04053,0.2535 -0.01263,0.30667 -0.05317,0.0532 -0.09098,-0.0413 -0.08404,-0.21 z m -3.187369,-0.70667 c 0,-0.22 0.03632,-0.31 0.0807,-0.2 0.04439,0.11 0.04439,0.29 0,0.4 -0.04439,0.11 -0.0807,0.02 -0.0807,-0.2 z m 104.131697,-4.72366 c -0.16908,-0.20374 -0.15919,-0.22715 0.0604,-0.14288 0.14445,0.0554 0.26263,0.16507 0.26263,0.24366 0,0.20575 -0.0926,0.17686 -0.32304,-0.10078 z m -33.27508,-9.43434 c -0.30999,-0.32997 -0.41732,-0.36416 -0.62789,-0.2 -0.22579,0.17602 -0.22904,0.16623 -0.0292,-0.0882 0.21253,-0.27065 0.24951,-0.2625 0.68,0.14994 0.25039,0.23988 0.45525,0.45868 0.45525,0.48621 0,0.11818 -0.12719,0.0256 -0.47812,-0.34793 z m 19.67812,-0.46241 c 0,-0.0332 0.126,-0.15922 0.28,-0.28 0.25377,-0.19902 0.25943,-0.19336 0.0604,0.0604 -0.20902,0.26652 -0.34041,0.35128 -0.34041,0.21959 z m -20.7352,-0.61959 -0.3048,-0.36 0.36,0.3048 c 0.198,0.16764 0.36,0.32964 0.36,0.36 0,0.12804 -0.12877,0.0335 -0.4152,-0.3048 z m -4.28671,-4.46928 c 0.0462,-0.0748 0.15105,-0.0945 0.23297,-0.0439 0.20934,0.12938 0.18577,0.17984 -0.084,0.17984 -0.12813,0 -0.19516,-0.0612 -0.14895,-0.13595 z m 27.27454,-0.86405 c 0.008,-0.18639 0.0456,-0.22431 0.0967,-0.0967 0.0462,0.1155 0.0405,0.2535 -0.0126,0.30667 -0.0532,0.0532 -0.091,-0.0413 -0.084,-0.21 z m -33.31304,-7.70667 c -0.19902,-0.25377 -0.19336,-0.25943 0.0604,-0.0604 0.154,0.12078 0.28,0.24678 0.28,0.28 0,0.13169 -0.13139,0.0469 -0.34041,-0.21959 z m 3.87223,-0.26576 c -0.14435,-0.17393 -0.13966,-0.25327 0.0204,-0.34565 0.11427,-0.0659 0.15439,-0.061 0.0892,0.011 -0.0652,0.072 -0.0384,0.22756 0.0596,0.34565 0.098,0.1181 0.1422,0.21472 0.0982,0.21472 -0.044,0 -0.16431,-0.10159 -0.26736,-0.22575 z m -5.21683,-1.09424 -0.95499,-1 1,0.95499 c 0.92892,0.88711 1.07322,1.04501 0.95499,1.04501 -0.0247,0 -0.47475,-0.45 -1,-1 z m 23.76501,0.61959 c 0,-0.0332 0.126,-0.15922 0.28,-0.28 0.25377,-0.19902 0.25943,-0.19336 0.0604,0.0604 -0.20902,0.26652 -0.34041,0.35128 -0.34041,0.21959 z m -20.86352,-1.51292 c -0.0453,-0.0733 0.0193,-0.13334 0.14352,-0.13334 0.12426,0 0.18884,0.06 0.14352,0.13334 -0.0453,0.0733 -0.10991,0.13333 -0.14352,0.13333 -0.0336,0 -0.0982,-0.06 -0.14352,-0.13333 z m -9.759998,-0.32 c -0.04532,-0.0733 0.02243,-0.13334 0.150556,-0.13334 0.128128,0 0.232962,0.06 0.232962,0.13334 0,0.0733 -0.06775,0.13333 -0.150557,0.13333 -0.08281,0 -0.18764,-0.06 -0.232961,-0.13333 z m 4.935988,-0.70667 -0.63247,-0.68 0.68,0.63247 c 0.374,0.34786 0.68,0.65386 0.68,0.68 0,0.12105 -0.13934,-8e-5 -0.72753,-0.63247 z m -38.5625,-1.2033 c 0.05461,-0.0546 0.211806,-0.11581 0.349323,-0.13599 0.137515,-0.0202 0.205347,0.008 0.150737,0.0626 -0.05461,0.0546 -0.211806,0.11581 -0.349323,0.13599 -0.137515,0.0202 -0.205347,-0.008 -0.150737,-0.0626 z m 0.821235,-0.97857 c -0.04823,-0.078 0.03753,-0.24003 0.190557,-0.36 0.245787,-0.19269 0.255073,-0.18842 0.07963,0.0366 -0.109237,0.1401 -0.151237,0.3021 -0.09333,0.36 0.0579,0.0579 0.06153,0.10528 0.008,0.10528 -0.05347,0 -0.13668,-0.0638 -0.184904,-0.14187 z m -9.604372,-5.12707 c -0.05063,-0.0819 -0.03088,-0.18676 0.04389,-0.23297 0.07477,-0.0462 0.135944,0.0208 0.135944,0.14895 0,0.26979 -0.05045,0.29336 -0.179834,0.084 z m 41.513167,-0.42347 c 0,-0.0156 0.09845,-0.11011 0.218771,-0.20997 0.164922,-0.13687 0.261666,-0.12988 0.393034,0.0284 0.135781,0.1636 0.08747,0.20997 -0.218771,0.20997 -0.216168,0 -0.393034,-0.0128 -0.393034,-0.0284 z m 29.61263,-0.64092 c 0.008,-0.18639 0.0456,-0.22431 0.0967,-0.0967 0.0462,0.1155 0.0405,0.2535 -0.0126,0.30667 -0.0532,0.0532 -0.091,-0.0413 -0.084,-0.21 z m -30.002344,-0.65977 c -0.08683,-0.22803 -0.06845,-0.24641 0.08957,-0.0896 0.109348,0.10854 0.158508,0.23764 0.109245,0.2869 -0.04926,0.0493 -0.138728,-0.0395 -0.198813,-0.19733 z m 9.094514,-1.5269 -0.3048,-0.36 0.36,0.3048 c 0.33831,0.28643 0.43284,0.4152 0.3048,0.4152 -0.0304,0 -0.19236,-0.162 -0.36,-0.36 z m -28.4248,-0.23292 c 0.198,-0.0381 0.522,-0.0381 0.72,0 0.198,0.0381 0.036,0.0693 -0.36,0.0693 -0.396,0 -0.558,-0.0312 -0.36,-0.0693 z m 24.82789,-3.36708 -0.38789,-0.44 0.44,0.38789 c 0.41125,0.36254 0.51337,0.49211 0.38789,0.49211 -0.0287,0 -0.22666,-0.198 -0.44,-0.44 z m -1.7683,-1.92 c -0.199019,-0.25377 -0.19336,-0.25943 0.06041,-0.0604 0.154,0.12078 0.28,0.24678 0.28,0.28 0,0.13169 -0.13139,0.0469 -0.34041,-0.21959 z m -32.416545,-1.43088 c 0.155675,-0.0406 0.371675,-0.0379 0.48,0.006 0.108325,0.0438 -0.01905,0.077 -0.283045,0.0738 -0.264,-0.003 -0.35263,-0.0391 -0.196955,-0.0797 z m 47.136545,-0.16912 c -0.19902,-0.25377 -0.19336,-0.25943 0.0604,-0.0604 0.26652,0.20902 0.35128,0.34041 0.21959,0.34041 -0.0332,0 -0.15922,-0.126 -0.28,-0.28 z m -3.2612,-1.32261 c -0.0553,-0.0894 -0.16255,-0.12426 -0.23839,-0.0774 -0.0758,0.0469 -0.17921,0.0184 -0.22971,-0.0633 -0.12987,-0.21015 0.35391,-0.11646 0.58333,0.11296 0.10471,0.10471 0.14423,0.19038 0.0878,0.19038 -0.0564,0 -0.14778,-0.0732 -0.20305,-0.16261 z m -50.231557,-5.74633 c -0.05063,-0.0819 -0.03088,-0.18676 0.04389,-0.23297 0.07477,-0.0462 0.135944,0.0208 0.135944,0.14895 0,0.26979 -0.05045,0.29336 -0.179834,0.084 z m 79.875037,-0.76422 c 0.19902,-0.0383 0.48702,-0.0368 0.64,0.003 0.15297,0.0401 -0.01,0.0714 -0.36187,0.0696 -0.352,-0.002 -0.47716,-0.0345 -0.27813,-0.0728 z m -81.390048,-0.7526 c -0.144352,-0.17393 -0.139668,-0.25327 0.02041,-0.34565 0.114273,-0.0659 0.154394,-0.061 0.08916,0.011 -0.06524,0.072 -0.03842,0.22756 0.05959,0.34565 0.09801,0.1181 0.142203,0.21472 0.0982,0.21472 -0.044,0 -0.164312,-0.10159 -0.26736,-0.22575 z m 53.508178,-6.33424 c -0.0544,-0.088 -0.0226,-0.16 0.0706,-0.16 0.0932,0 0.16944,0.072 0.16944,0.16 0,0.088 -0.0318,0.16 -0.0706,0.16 -0.0388,0 -0.11505,-0.072 -0.16944,-0.16 z m 37.53263,-4.41333 c 0.008,-0.18639 0.0456,-0.22431 0.0967,-0.0967 0.0462,0.1155 0.0405,0.2535 -0.0126,0.30667 -0.0532,0.0532 -0.091,-0.0413 -0.084,-0.21 z m 0.78737,-2.36708 c 0,-0.0332 0.126,-0.15922 0.28,-0.28 0.25377,-0.19902 0.25943,-0.19336 0.0604,0.0604 -0.20902,0.26652 -0.34041,0.35128 -0.34041,0.21959 z m -33.14098,-9.27431 c 0.098,-0.1181 0.12483,-0.2801 0.0596,-0.36 -0.0652,-0.0799 -0.052,-0.0906 0.0295,-0.0238 0.0815,0.0668 0.33347,-0.0405 0.56,-0.23848 0.22653,-0.19797 0.16375,-0.0906 -0.13952,0.23854 -0.52132,0.56584 -0.89302,0.84576 -0.50959,0.38376 z m -71.326388,-4.35861 c 0.0077,-0.18639 0.04559,-0.22431 0.09667,-0.0967 0.04622,0.1155 0.04053,0.2535 -0.01263,0.30667 -0.05317,0.0532 -0.09098,-0.0413 -0.08404,-0.21 z m 13.950946,-3.26667 c 0,-0.396 0.0312,-0.558 0.06934,-0.36 0.03814,0.198 0.03814,0.522 0,0.72 -0.03814,0.198 -0.06934,0.036 -0.06934,-0.36 z m -13.950946,-2.01333 c 0.0077,-0.18639 0.04559,-0.22431 0.09667,-0.0967 0.04622,0.1155 0.04053,0.2535 -0.01263,0.30667 -0.05317,0.0532 -0.09098,-0.0413 -0.08404,-0.21 z m 63.039998,-1.6 c 0.008,-0.18639 0.0456,-0.22431 0.0967,-0.0967 0.0462,0.1155 0.0405,0.2535 -0.0126,0.30667 -0.0532,0.0532 -0.091,-0.0413 -0.084,-0.21 z m 1.6,-4 c 0.008,-0.18639 0.0456,-0.22431 0.0967,-0.0967 0.0462,0.1155 0.0405,0.2535 -0.0126,0.30667 -0.0532,0.0532 -0.091,-0.0413 -0.084,-0.21 z m -53.119998,-0.16 c 0.0077,-0.18639 0.04559,-0.22431 0.09667,-0.0967 0.04622,0.1155 0.04053,0.2535 -0.01263,0.30667 -0.05317,0.0532 -0.09098,-0.0413 -0.08404,-0.21 z m 76.307368,-0.12708 c 0,-0.0332 0.126,-0.15922 0.28,-0.28 0.25377,-0.19902 0.25943,-0.19336 0.0604,0.0604 -0.20902,0.26652 -0.34041,0.35128 -0.34041,0.21959 z m 3.04,-3.18966 c 0,-0.0275 0.234,-0.26153 0.52,-0.52 l 0.52,-0.46993 -0.46993,0.52 c -0.43805,0.48471 -0.57007,0.59354 -0.57007,0.46993 z m -25.90737,-1.32326 c 0.008,-0.18639 0.0456,-0.22431 0.0967,-0.0967 0.0462,0.1155 0.0405,0.2535 -0.0126,0.30667 -0.0532,0.0532 -0.091,-0.0413 -0.084,-0.21 z m -1.92,-1.12 c 0.008,-0.18639 0.0456,-0.22431 0.0967,-0.0967 0.0462,0.1155 0.0405,0.2535 -0.0126,0.30667 -0.0532,0.0532 -0.091,-0.0413 -0.084,-0.21 z m -48.609052,-0.86667 c 0,-0.396 0.0312,-0.558 0.06934,-0.36 0.03814,0.198 0.03814,0.522 0,0.72 -0.03814,0.198 -0.06934,0.036 -0.06934,-0.36 z m 52.969752,0.24704 c 0,-0.12813 0.0612,-0.19516 0.13595,-0.14895 0.0748,0.0462 0.0945,0.15105 0.0439,0.23297 -0.12938,0.20934 -0.17984,0.18577 -0.17984,-0.084 z m 26.82667,-0.46745 c 0,-0.0332 0.126,-0.15922 0.28,-0.28 0.25377,-0.19902 0.25943,-0.19336 0.0604,0.0604 -0.20902,0.26652 -0.34041,0.35128 -0.34041,0.21959 z m -82.707368,-1.15292 c 0.0077,-0.18639 0.04559,-0.22431 0.09667,-0.0967 0.04622,0.1155 0.04053,0.2535 -0.01263,0.30667 -0.05317,0.0532 -0.09098,-0.0413 -0.08404,-0.21 z m 82.922918,-0.67965 c 0.14583,-0.16114 0.22899,-0.34114 0.1848,-0.4 -0.0442,-0.0589 -0.033,-0.0716 0.0249,-0.0284 0.0579,0.0432 0.2199,-0.008 0.36,-0.11389 0.1401,-0.10587 0.0433,0.0387 -0.21521,0.32139 -0.25847,0.28264 -0.50363,0.51389 -0.5448,0.51389 -0.0412,0 0.0445,-0.13184 0.19028,-0.29298 z m 2.26445,-0.82702 c 0.15928,-0.176 0.3256,-0.32 0.3696,-0.32 0.044,0 -0.0503,0.144 -0.2096,0.32 -0.15928,0.176 -0.3256,0.32 -0.3696,0.32 -0.044,0 0.0503,-0.144 0.2096,-0.32 z m -31.26737,-0.73333 c 0.008,-0.18639 0.0456,-0.22431 0.0967,-0.0967 0.0462,0.1155 0.0405,0.2535 -0.0126,0.30667 -0.0532,0.0532 -0.091,-0.0413 -0.084,-0.21 z m -32.159998,-0.48 c 0.0077,-0.18639 0.04559,-0.22431 0.09667,-0.0967 0.04622,0.1155 0.04054,0.2535 -0.01262,0.30667 -0.05317,0.0532 -0.09098,-0.0413 -0.08404,-0.21 z m 65.187368,-0.70667 c 0.15928,-0.176 0.3256,-0.32 0.3696,-0.32 0.044,0 -0.0503,0.144 -0.2096,0.32 -0.15928,0.176 -0.3256,0.32 -0.3696,0.32 -0.044,0 0.0503,-0.144 0.2096,-0.32 z m 1.29648,-3.01333 c -0.0453,-0.0733 0.0193,-0.13334 0.14352,-0.13334 0.12426,0 0.18884,0.06 0.14352,0.13334 -0.0453,0.0733 -0.10991,0.13333 -0.14352,0.13333 -0.0336,0 -0.0982,-0.06 -0.14352,-0.13333 z m -85.043848,-1.56 c 0.0077,-0.18639 0.04559,-0.22431 0.09667,-0.0967 0.04622,0.1155 0.04053,0.2535 -0.01263,0.30667 -0.05317,0.0532 -0.09098,-0.0413 -0.08404,-0.21 z m 0,-0.8 c 0.0077,-0.18639 0.04559,-0.22431 0.09667,-0.0967 0.04622,0.1155 0.04053,0.2535 -0.01263,0.30667 -0.05317,0.0532 -0.09098,-0.0413 -0.08404,-0.21 z m 18.09263,-0.0667 c 0,-0.22 0.03632,-0.31 0.0807,-0.2 0.04439,0.11 0.04439,0.29 0,0.4 -0.04439,0.11 -0.0807,0.02 -0.0807,-0.2 z m 69.894738,-1.20708 c 0,-0.0186 0.096,-0.11341 0.21333,-0.21079 0.15942,-0.1323 0.21334,-0.12378 0.21334,0.0337 0,0.11594 -0.096,0.2108 -0.21334,0.2108 -0.11733,0 -0.21333,-0.0152 -0.21333,-0.0337 z m -71.187368,-1.28625 c 0.0077,-0.18639 0.04559,-0.22431 0.09667,-0.0967 0.04622,0.1155 0.04054,0.2535 -0.01262,0.30667 -0.05317,0.0532 -0.09098,-0.0413 -0.08404,-0.21 z m 1.13263,-0.86667 c 0,-0.22 0.03632,-0.31 0.0807,-0.2 0.04439,0.11 0.04439,0.29 0,0.4 -0.04439,0.11 -0.0807,0.02 -0.0807,-0.2 z m -17.741684,-0.48 c 0,-0.396 0.0312,-0.558 0.06934,-0.36 0.03814,0.198 0.03814,0.522 0,0.72 -0.03814,0.198 -0.06934,0.036 -0.06934,-0.36 z m 16.769054,-1.69333 c 0.0077,-0.18639 0.04559,-0.22431 0.09667,-0.0967 0.04622,0.1155 0.04054,0.2535 -0.01262,0.30667 -0.05317,0.0532 -0.09098,-0.0413 -0.08404,-0.21 z m 73.683848,0.12 c -0.0453,-0.0733 0.0193,-0.13334 0.14352,-0.13334 0.12426,0 0.18884,0.06 0.14352,0.13334 -0.0453,0.0733 -0.10991,0.13333 -0.14352,0.13333 -0.0336,0 -0.0982,-0.06 -0.14352,-0.13333 z m -52.370718,-5.22667 c 0.0013,-0.44 0.03227,-0.60101 0.06905,-0.3578 0.03678,0.24321 0.03579,0.60321 -0.0022,0.8 -0.03798,0.19679 -0.06807,-0.002 -0.06687,-0.4422 z m 20.521068,-1.82894 c -0.0506,-0.0819 -0.0309,-0.18676 0.0439,-0.23297 0.0748,-0.0462 0.13595,0.0208 0.13595,0.14895 0,0.26979 -0.0505,0.29336 -0.17984,0.084 z m -32.184664,-6.81106 c 3.2e-4,-1.144 0.02576,-1.59101 0.05663,-0.99335 0.03087,0.59766 0.03064,1.53366 -4.8e-4,2.08 -0.03115,0.54634 -0.0564,0.0574 -0.05612,-1.08665 z m 11.674628,-1.92 c -4.8e-4,-0.792 0.02657,-1.13617 0.06012,-0.76483 0.03356,0.37135 0.03396,1.01935 9.6e-4,1.44 -0.03314,0.42066 -0.0606,0.11683 -0.06108,-0.67517 z m -10.265602,-1.28 c 0.0033,-0.264 0.03912,-0.35263 0.07969,-0.19695 0.04057,0.15567 0.0379,0.37167 -0.0059,0.48 -0.04382,0.10832 -0.07701,-0.0191 -0.07375,-0.28305 z m 6.178808,-12.3493 c 0.115499,-0.0462 0.253501,-0.0405 0.306667,0.0126 0.05317,0.0532 -0.04133,0.091 -0.21,0.084 -0.186392,-0.008 -0.224304,-0.0456 -0.09667,-0.0967 z"
         id="path3527" /><path
         style="fill:#333333;fill-opacity:1;stroke-width:0.16"
         d="m 44.818308,-197.07022 c 0.674386,-15.34688 2.059576,-25.02575 4.725663,-33.02007 1.425755,-4.27516 3.005505,-7.37326 5.333615,-10.45993 1.243271,-1.64836 4.70062,-5.09081 4.998172,-4.97663 0.121986,0.0468 0.204657,0.003 0.183713,-0.0971 -0.05229,-0.25024 2.928898,-2.2378 3.200311,-2.13365 0.120026,0.0461 0.174805,0.0135 0.121731,-0.0724 -0.12587,-0.20366 2.911392,-1.64033 4.465856,-2.11242 0.666064,-0.20228 1.211699,-0.42792 1.212523,-0.50143 0.0021,-0.18796 -2.217444,0.0283 -3.848006,0.37499 -3.785274,0.80475 -6.913354,2.70438 -9.924319,6.02686 -0.544189,0.60049 -1.069607,1.0918 -1.167595,1.0918 -0.09799,0 -0.178255,0.108 -0.178371,0.24 -3.2e-4,0.37117 -0.898578,1.60753 -1.084457,1.49265 -0.09086,-0.0562 -0.118716,-0.0269 -0.06191,0.065 0.140283,0.22699 -0.698983,1.70119 -0.870717,1.52945 -0.07516,-0.0752 0.07686,-0.68553 0.338725,-1.35991 0.491223,-1.26505 0.689833,-2.30516 0.945745,-4.95281 0.29031,-3.00352 1.489333,-4.452 4.673267,-5.64555 0.676771,-0.25369 0.748097,-0.33161 0.824411,-0.90057 0.139746,-1.04189 0.75956,-2.08051 2.044425,-3.42585 1.57097,-1.64491 1.703048,-1.88925 1.326086,-2.45317 -0.157824,-0.2361 -0.269158,-0.48862 -0.247408,-0.56116 0.02175,-0.0725 -0.02545,-0.0917 -0.104881,-0.0426 -0.208123,0.12862 -1.645285,-1.18079 -1.519452,-1.38439 0.06281,-0.10162 0.02947,-0.12361 -0.08251,-0.0544 -0.223272,0.13799 -1.674199,-1.29204 -1.536681,-1.51455 0.05047,-0.0817 -0.01182,-0.10873 -0.138418,-0.0602 -0.267892,0.1028 -0.958701,-0.77212 -0.781713,-0.99005 0.0634,-0.0781 0.0499,-0.0886 -0.03001,-0.0233 -0.182634,0.14911 -0.60294,-0.18351 -0.481067,-0.3807 0.04957,-0.0802 0.01867,-0.12605 -0.06867,-0.10187 -0.08734,0.0242 -0.680621,-0.60394 -1.318401,-1.39581 -4.571154,-5.67559 -8.32348,-13.98044 -9.507479,-21.04246 -0.346872,-2.06894 -0.476102,-6.10191 -0.262307,-8.18599 0.36572,-3.56503 2.036525,-10.94028 3.490274,-15.40673 2.21127,-6.79382 4.590652,-11.75877 8.015256,-16.72505 1.823939,-2.64504 4.622636,-5.9729 4.886169,-5.81003 0.08852,0.0547 0.117434,0.0291 0.06425,-0.057 -0.128527,-0.20796 2.344971,-2.65842 2.521353,-2.49787 0.07546,0.0687 0.09043,0.043 0.03327,-0.0571 -0.127187,-0.22265 1.919098,-2.06358 4.292624,-3.86184 0.088,-0.0667 0.366462,-0.28112 0.618806,-0.47655 0.252343,-0.19542 0.540343,-0.30876 0.64,-0.25185 0.09966,0.0569 0.129615,0.0464 0.06657,-0.0235 -0.345413,-0.38254 5.786111,-3.98558 9.550635,-5.6122 2.944741,-1.2724 7.443167,-2.79217 8.264647,-2.79217 0.358491,0 0.360179,0.028 0.06103,1.01406 -0.129167,0.42573 -0.377045,1.54173 -0.550842,2.48 -0.921475,4.97472 -1.000053,10.33773 -0.240667,16.42594 0.467926,3.75149 1.405893,8.4 1.694936,8.4 0.08605,0 0.118493,-0.126 0.0721,-0.28 -0.04639,-0.154 -0.248039,-1.72 -0.448111,-3.48 -0.324577,-2.85528 -0.363654,-3.95839 -0.362739,-10.24 0.0011,-7.3468 0.13445,-9.65991 0.726819,-12.6046 0.573327,-2.85002 1.296328,-4.1298 2.65344,-4.69684 1.482984,-0.61963 8.590211,-0.83899 11.966821,-0.36935 1.00106,0.13924 1.51858,0.11862 2.93113,-0.11679 2.1956,-0.3659 6.4402,-0.365 8.88073,0.002 8.15837,1.22646 16.73618,4.66365 24.35469,9.75911 2.75969,1.84576 8.02812,5.94897 7.96,6.19949 -0.022,0.0809 0.0151,0.1291 0.0824,0.1071 0.0673,-0.022 1.38132,0.90591 2.92,2.06201 1.53867,1.15611 3.91359,2.79897 5.27759,3.65081 2.79928,1.7482 3.12346,2.01046 3.35596,2.71495 0.38643,1.17088 -0.63227,6.06729 -2.66456,12.80737 -0.3972,1.31732 -0.85306,2.75732 -1.01302,3.2 -0.15995,0.44267 -0.41259,1.30886 -0.56142,1.92486 -0.44906,1.85867 -1.27126,4.21531 -2.14852,6.15822 -0.45649,1.01102 -0.93208,2.27102 -1.05685,2.8 -0.86553,3.66943 0.76047,9.44795 4.04068,14.35979 0.6681,1.11452 0.98954,1.22432 0.7715,2.22109 -0.21804,0.99677 -1.42906,1.4568 -3.20377,1.98644 -1.58008,0.47156 -2.34461,0.94853 -2.73717,1.70766 -0.23693,0.45817 -0.23554,0.57531 0.018,1.51181 0.17249,0.63723 0.23502,1.22716 0.16796,1.58462 -0.12804,0.68249 -1.08366,1.79343 -1.80103,2.09375 -0.51152,0.21414 -0.51194,0.21531 -0.28,0.77041 0.12775,0.30576 0.22875,0.79225 0.22443,1.08107 -0.0106,0.70639 -0.91573,1.61613 -2.0779,2.0884 -0.48717,0.19797 -1.13517,0.55494 -1.44,0.79327 l -0.55425,0.43332 -0.0912,2.28508 c -0.0793,1.98646 -0.14391,2.40007 -0.4945,3.16507 -1.10682,2.41519 -3.88405,3.30192 -7.33541,2.34209 -2.14068,-0.59532 -4.10452,-1.41661 -8.07246,-3.37596 -2.02753,-1.00118 -3.93017,-1.86228 -4.22809,-1.91356 -0.79725,-0.13723 -1.7132,0.16942 -2.4239,0.8115 -0.88219,0.797 -1.21911,1.41109 -1.49182,2.71903 -0.24482,1.17414 -0.82717,2.48837 -1.48531,3.352 -0.45722,0.59998 -0.45919,0.64949 -0.0608,1.52743 0.37846,0.83405 0.40648,1.62208 0.0896,2.52017 -0.27748,0.78648 -0.22439,0.97488 0.40613,1.44104 0.26396,0.19516 0.42795,0.43124 0.3675,0.52906 -0.0628,0.10161 -0.0364,0.13168 0.0621,0.0708 0.23001,-0.14216 1.1613,0.96885 1.68661,2.01209 0.7295,1.44876 1.08469,3.1716 1.18016,5.72432 0.0955,2.55233 -0.086,3.65801 -0.85341,5.2 -1.1302,2.27094 -2.75332,2.7712 -5.24944,1.61792 -3.05934,-1.4135 -6.76942,-4.36219 -11.68893,-9.2901 -2.99883,-3.00396 -4.48847,-4.67415 -4.45489,-4.99486 0.0121,-0.11523 -0.0309,-0.17685 -0.0955,-0.13693 -0.25733,0.15904 -3.276779,-3.67275 -3.108583,-3.94489 0.06385,-0.10332 0.0404,-0.13658 -0.05482,-0.0777 -0.215437,0.13315 -1.845536,-2.09517 -1.702273,-2.32698 0.06133,-0.0992 0.03583,-0.13084 -0.05852,-0.0725 -0.215603,0.13325 -0.730868,-0.64576 -0.58415,-0.88315 0.06468,-0.10466 0.03991,-0.13604 -0.05909,-0.0749 -0.194536,0.12023 -2.213011,-2.97502 -4.211187,-6.45768 -5.043485,-8.79039 -8.706992,-19.58399 -10.724916,-31.59823 -1.440216,-8.57471 -2.222878,-17.76042 -2.222878,-26.08877 0,-3.54735 -0.157352,-4.77451 -0.373291,-2.91123 -0.550091,4.74662 -0.661719,7.34833 -0.664173,15.48 -0.0025,8.37002 0.07463,10.15491 0.653637,15.12 1.174355,10.07037 3.874296,19.11267 8.330107,27.89815 0.819594,1.61598 1.443843,3.01311 1.387222,3.10472 -0.05674,0.0918 -0.02637,0.11925 0.06769,0.0611 0.213032,-0.13167 1.035702,1.30162 0.891728,1.5536 -0.05732,0.10033 -0.04754,0.13128 0.02173,0.0688 0.06927,-0.0625 0.602815,0.62208 1.185653,1.52128 2.359298,3.63991 4.40928,6.41306 7.347958,9.94009 0.360986,0.43326 0.618453,0.84905 0.572149,0.92397 -0.0463,0.0749 -0.01539,0.11643 0.0687,0.0923 0.145205,-0.0418 3.632657,3.66366 3.685687,3.91604 0.0139,0.066 0.0679,0.11298 0.12016,0.10439 0.1842,-0.0303 1.01252,0.86644 0.92747,1.00406 -0.0474,0.0767 0.009,0.11969 0.12569,0.0955 0.11654,-0.0242 0.19389,0.046 0.17189,0.15604 -0.022,0.11 0.0164,0.182 0.0854,0.16 0.21777,-0.0695 3.87246,3.27403 3.76638,3.44568 -0.0569,0.0921 -0.0229,0.11536 0.0778,0.0531 0.20439,-0.12632 2.53394,1.772 2.46649,2.0099 -0.0242,0.0853 0.0216,0.11456 0.10166,0.0651 0.0801,-0.0495 0.84059,0.41559 1.69,1.03353 2.68365,1.95235 4.8248,3.14729 6.8923,3.84646 1.4146,0.47838 3.40122,0.5296 4.21943,0.1088 0.29669,-0.15259 0.62069,-0.23105 0.72,-0.17435 0.0993,0.0567 0.12755,0.0445 0.0628,-0.0271 -0.0648,-0.0716 0.15948,-0.43096 0.4984,-0.79864 1.27276,-1.38078 1.80209,-4.02225 1.4773,-7.372 -0.10298,-1.06201 -0.2617,-2.20063 -0.35271,-2.53027 -0.091,-0.32963 -0.14178,-0.67048 -0.11279,-0.75743 0.0737,-0.22124 3.57759,2.01643 3.52365,2.25032 -0.0242,0.10485 0.0298,0.14505 0.11993,0.0893 0.22411,-0.13851 1.83486,1.12561 2.89946,2.2755 2.55162,2.75606 4.66232,9.61318 4.69165,15.24201 0.0112,2.14651 -0.0353,2.63339 -0.34583,3.62071 -0.65918,2.09601 -1.92991,3.47306 -3.6773,3.98496 -2.67032,0.78227 -7.34137,-0.81535 -13.29459,-4.54709 -3.47806,-2.18021 -10.23558,-7.3649 -10.03086,-7.69615 0.0429,-0.0695 -0.0217,-0.11643 -0.14354,-0.10437 -0.32286,0.032 -2.03966,-1.48866 -1.91268,-1.69411 0.0622,-0.10059 0.033,-0.12753 -0.0696,-0.0642 -0.15826,0.0978 -1.81669,-1.28092 -4.11271,-3.41911 -0.44,-0.40976 -1.88,-1.74271 -3.199996,-2.96212 -1.32,-1.21941 -2.788149,-2.58193 -3.262552,-3.02783 -0.814501,-0.76556 -0.987859,-0.75087 -0.290162,0.0246 0.249647,0.27747 0.278944,0.40439 0.133735,0.57936 -0.149162,0.17973 -0.12324,0.22022 0.131033,0.20469 0.38016,-0.0232 8.209612,7.70377 8.056672,7.95124 -0.056,0.0907 -0.0167,0.10852 0.0916,0.0416 0.17139,-0.10593 0.51593,0.18731 2.93161,2.49506 0.24598,0.23499 0.84267,0.76509 1.32599,1.178 0.48332,0.41291 0.83239,0.82577 0.77572,0.91747 -0.0567,0.0917 -0.0301,0.12164 0.059,0.0665 0.22232,-0.1374 2.6368,1.95364 2.50398,2.16855 -0.0655,0.10593 -0.0301,0.12466 0.0925,0.0489 0.12117,-0.0749 0.39583,0.0587 0.70473,0.34262 1.19067,1.09459 5.17407,4.11479 7.06617,5.35755 4.04697,2.65811 7.39131,4.25051 10.36289,4.93426 4.37589,1.00689 6.97049,-0.50859 7.90129,-4.61507 0.3881,-1.71223 0.46415,-6.00044 0.14516,-8.18609 -0.33754,-2.3128 -1.02789,-5.07217 -1.76129,-7.04 -0.31157,-0.836 -0.56684,-1.54193 -0.56727,-1.56872 -4.8e-4,-0.0268 0.52122,0.22238 1.15922,0.55375 4.01058,2.08298 6.99293,4.61911 8.97082,7.62857 2.67582,4.07141 6.98558,14.50559 10.51121,25.44827 1.65126,5.12513 3.03797,9.89432 3.03797,10.44826 0,0.17277 -10.11485,0.20987 -57.21339,0.20987 H 44.714602 Z m 4.005375,-4.14192 c 1.967773,-13.20468 4.629318,-21.87178 8.861915,-28.85808 0.613113,-1.012 1.196836,-1.82022 1.297164,-1.79604 0.100327,0.0242 0.137714,-0.0284 0.08308,-0.11676 -0.178218,-0.28836 2.885575,-4.22933 3.157378,-4.06135 0.09219,0.057 0.12128,0.0286 0.06465,-0.063 -0.136459,-0.22079 0.221323,-0.49344 0.572882,-0.43655 0.153651,0.0249 0.317573,-0.0166 0.364273,-0.0922 0.0467,-0.0756 -0.06328,-0.10884 -0.244409,-0.074 -0.328187,0.0632 -0.328139,0.0618 0.01386,-0.41853 0.206966,-0.29065 0.434536,-0.44688 0.573355,-0.39361 0.1266,0.0486 0.190981,0.0249 0.14307,-0.0526 -0.146248,-0.23663 1.866213,-1.99406 3.647111,-3.18492 3.623974,-2.42331 6.726448,-3.45613 10.343379,-3.44335 3.497354,0.0124 6.76465,1.11715 10.944557,3.70076 2.085382,1.28897 3.214345,2.10225 3.222715,2.32156 0.004,0.10481 0.09819,0.17116 0.20932,0.14745 0.19296,-0.0412 3.728643,2.69515 4.17063,3.22771 0.286088,0.34472 0.477898,0.32189 0.449621,-0.0535 -0.0128,-0.1699 -0.08565,-0.27036 -0.161901,-0.22323 -0.196017,0.12114 -0.926097,-0.60036 -0.805289,-0.79583 0.05488,-0.0888 0.03061,-0.11871 -0.05394,-0.0665 -0.08455,0.0523 -0.437674,-0.19901 -0.784722,-0.55837 -1.533193,-1.58758 -4.756928,-4.19253 -6.840384,-5.52738 -0.676174,-0.43323 -1.188878,-0.82821 -1.139342,-0.87774 0.04954,-0.0495 -0.0047,-0.0831 -0.120602,-0.0745 -0.304299,0.0225 -3.883336,-1.75146 -3.713269,-1.84048 0.07843,-0.0411 0.05241,-0.0526 -0.05783,-0.0257 -0.110237,0.0269 -0.830237,-0.1561 -1.6,-0.40667 -4.232242,-1.37767 -8.404674,-1.12804 -12.599568,0.75382 -0.704,0.31582 -1.66209,0.81383 -2.129088,1.10668 -0.466998,0.29285 -0.928123,0.48361 -1.024722,0.4239 -0.09901,-0.0612 -0.130547,-0.0356 -0.07228,0.0587 0.05684,0.092 -0.0593,0.27379 -0.258098,0.40404 -0.198794,0.13026 -0.78869,0.60142 -1.310878,1.04702 -0.522189,0.4456 -1.02492,0.76736 -1.117183,0.71502 -0.09226,-0.0523 -0.116304,-0.0382 -0.05343,0.0315 0.06287,0.0696 -0.574877,0.85519 -1.417226,1.74565 -7.217264,7.62947 -11.044728,17.69196 -12.939799,34.01902 -0.273669,2.3578 -0.507327,7.66181 -0.330314,7.49808 0.0606,-0.056 0.355493,-1.74805 0.655315,-3.76 z m 95.037707,-3.17983 c 2.10232,-0.44335 3.8051,-1.52663 5.05132,-3.21358 0.71328,-0.96553 0.71085,-0.9589 0.39683,-1.0794 -0.14948,-0.0574 -0.20234,-0.0121 -0.14879,0.12748 0.11047,0.28787 -1.13232,1.13301 -2.30207,1.56549 -1.2764,0.47191 -3.74314,0.4694 -5.67108,-0.006 -4.36043,-1.07469 -9.623,-3.47692 -14.33691,-6.54445 -3.7474,-2.43857 -10.0362,-7.29798 -9.84502,-7.60732 0.0605,-0.0978 0.0296,-0.12346 -0.0725,-0.0603 -0.22462,0.13883 -1.0152,-0.53301 -0.8816,-0.74918 0.0546,-0.0883 0.0209,-0.11221 -0.0748,-0.053 -0.186,0.11496 -2.41779,-1.75906 -5.70409,-4.78969 -1.7629,-1.62575 -1.99491,-1.89736 -1.81619,-2.12615 0.18332,-0.23466 0.175,-0.23882 -0.079,-0.0395 -0.15612,0.12254 -0.3152,0.19454 -0.35349,0.16 -0.0383,-0.0345 -1.90257,-1.88875 -4.14283,-4.12047 -2.58364,-2.57378 -4.142824,-4.01463 -4.263588,-3.94 -0.106414,0.0658 -0.126203,0.16177 -0.04486,0.21767 0.493958,0.33944 3.887648,4.53215 3.792748,4.68571 -0.0651,0.10526 -0.0434,0.1404 0.0506,0.0823 0.0903,-0.0558 0.83941,0.70462 1.66472,1.68983 0.82532,0.98521 2.4211,2.85852 3.54619,4.16292 1.16627,1.35214 1.99818,2.44838 1.93528,2.55017 -0.0621,0.10054 -0.0385,0.13414 0.0541,0.0769 0.0904,-0.0559 0.54805,0.31098 1.01692,0.81528 0.46886,0.5043 1.52454,1.62646 2.34594,2.49369 1.29672,1.36907 1.46637,1.61146 1.2878,1.84 -0.17771,0.22745 -0.17196,0.23698 0.0424,0.0702 0.20837,-0.16219 0.55365,0.0905 2.16,1.58048 4.64403,4.30776 9.08821,7.43554 13.70552,9.64583 5.02939,2.40756 9.31971,3.27499 12.68645,2.565 z m -2.56,-8.0596 c 0.352,-0.0977 0.9531,-0.35768 1.33578,-0.5778 0.38268,-0.22013 0.77181,-0.35324 0.86472,-0.29582 0.0929,0.0574 0.12261,0.0294 0.066,-0.0622 -0.0566,-0.0916 0.0157,-0.26475 0.16074,-0.38472 0.4787,-0.39597 1.00967,-1.77331 1.00932,-2.61813 -4.8e-4,-0.99582 -0.25748,-1.97259 -1.03166,-3.92 -0.71623,-1.80167 -3.41694,-7.2 -3.60206,-7.2 -0.0709,0 0.0779,0.64323 0.33069,1.4294 1.36011,4.22944 1.81709,7.14053 1.43706,9.1546 -0.51359,2.72191 -2.18263,3.99509 -5.49982,4.19539 -0.59908,0.0362 -1.12579,0.10231 -1.17045,0.14697 -0.10741,0.10742 1.86685,0.42048 2.9797,0.4725 1.00554,0.047 2.18987,-0.0821 3.12,-0.34021 z m -15.91448,-19.53251 c 0.31104,-0.0892 0.89447,-0.37075 1.29651,-0.62572 1.86189,-1.18078 2.07896,-3.74439 0.7367,-8.70042 -0.28004,-1.034 -0.56532,-1.88 -0.63395,-1.88 -0.1744,0 -0.15394,0.34849 0.1174,2 0.42625,2.59426 0.25432,5.35315 -0.4154,6.66592 -0.47418,0.92946 -1.3674,1.68507 -2.56484,2.1697 -0.6039,0.24441 -1.09888,0.50879 -1.09997,0.58752 -0.002,0.16711 1.7375,0.0198 2.56355,-0.217 z m -8.50264,-17.75817 c -1.43855,-1.34884 -3.31966,-3.33403 -5.08656,-5.36797 -0.48485,-0.55812 -2.3547,-2.93171 -3.40319,-4.32 -2.8534,-3.77815 -7.87227,-12.23597 -7.56033,-12.7407 0.0674,-0.10906 0.0481,-0.1464 -0.0456,-0.0884 -0.18299,0.11309 -1.607282,-2.79713 -3.177114,-6.49173 -1.316099,-3.09744 -1.48728,-3.45636 -1.499814,-3.14466 -0.0133,0.33069 1.210098,3.91822 2.341237,6.86553 1.879951,4.89844 4.154111,9.55732 6.470691,13.25598 0.51534,0.82278 0.89582,1.56257 0.84552,1.64396 -0.0503,0.0814 -0.0237,0.1282 0.059,0.10402 0.0828,-0.0242 0.74369,0.78404 1.46868,1.79604 0.72499,1.012 1.63461,2.21148 2.02138,2.66552 0.7083,0.83148 0.87223,1.13063 0.50322,0.91827 -0.11,-0.0633 -0.152,-0.0615 -0.0933,0.004 0.0587,0.0654 0.13709,0.095 0.17427,0.0657 0.0372,-0.0293 0.78118,0.62437 1.65333,1.45267 0.87215,0.82831 2.16173,1.93628 2.86573,2.46216 0.704,0.52588 1.26022,1.02352 1.23604,1.10588 -0.0242,0.0824 0.033,0.10219 0.127,0.0441 0.094,-0.0581 0.27249,-0.0214 0.39657,0.0815 0.24206,0.20089 2.18736,1.27089 2.32039,1.27632 0.044,0.002 -0.6837,-0.71281 -1.61712,-1.58802 z m -38.22288,-1.26655 c 0,-0.22751 -2.082536,-1.08851 -3.694922,-1.52762 -2.06935,-0.56356 -4.397057,-0.89173 -6.332872,-0.89286 -1.550883,-9.6e-4 -3.252206,0.25112 -3.252206,0.48174 0,0.0592 1.098,0.15329 2.44,0.20898 1.342,0.0557 3.196,0.21478 4.12,0.35354 1.843914,0.27688 5.60755,1.08188 6.24,1.33465 0.22,0.0879 0.418,0.16443 0.44,0.17001 0.022,0.006 0.04,-0.0522 0.04,-0.12844 z m 32.53448,-19.94677 c -4.42253,-12.78718 -6.5363,-21.51747 -8.52129,-35.19465 -1.3604,-9.37355 -2.64537,-20.80161 -2.986392,-26.56 -0.34822,-5.87988 -0.470849,-7.17496 -0.686163,-7.2466 -0.309024,-0.1028 -0.154016,14.79735 0.204144,19.62341 0.953591,12.84928 2.572091,24.21779 4.593191,32.26319 1.25263,4.98633 3.00729,9.72687 5.50768,14.88 1.09775,2.26238 2.80232,5.40536 2.88612,5.32157 0.0287,-0.0288 -0.42003,-1.41787 -0.99729,-3.08692 z m 5.62713,-12.23726 c 0.0553,-0.0894 0.16931,-0.12008 0.25341,-0.0681 0.0841,0.052 0.13312,0.0207 0.10894,-0.0695 -0.0242,-0.0902 0.31604,-0.46204 0.75604,-0.82625 0.44,-0.3642 1.77195,-1.57372 2.95989,-2.68783 1.18794,-1.11411 2.5264,-2.36718 2.97436,-2.78462 0.44797,-0.41743 0.86802,-0.70543 0.93345,-0.64 0.0654,0.0654 0.095,0.0404 0.0656,-0.0557 -0.0699,-0.2288 11.0659,-11.52157 11.29276,-11.452 0.0956,0.0293 0.12016,-4.8e-4 0.0545,-0.0661 -0.0657,-0.0657 0.29229,-0.5577 0.79553,-1.09333 3.05748,-3.25435 4.5911,-4.80901 4.70929,-4.77389 0.074,0.022 0.11663,-0.0191 0.0946,-0.0912 -0.0675,-0.22132 5.35456,-6.10628 5.52747,-5.99942 0.0898,0.0555 0.11316,0.0211 0.0524,-0.0772 -0.1274,-0.20614 8.95777,-11.01473 9.20245,-10.94813 0.0888,0.0242 0.11029,-0.0389 0.0477,-0.1402 -0.0684,-0.11058 0.37335,-0.6482 1.10553,-1.34562 l 1.21935,-1.16145 -0.46291,-0.19174 c -0.6475,-0.26821 -0.87765,-0.10847 -2.40966,1.6724 -0.721,0.83811 -1.36446,1.49074 -1.42992,1.45029 -0.0655,-0.0405 -0.11903,0.0136 -0.11903,0.12024 0,0.26865 -5.34955,6.68098 -5.49743,6.58959 -0.0658,-0.0407 -0.2178,0.0471 -0.33777,0.19501 -0.18464,0.22766 -0.18424,0.24853 0.003,0.13596 0.446,-0.26867 0.0744,0.238 -1.39468,1.90154 -0.83205,0.9422 -1.56959,1.64493 -1.66472,1.58614 -0.10486,-0.0648 -0.12362,-0.0292 -0.0486,0.0922 0.15221,0.24628 -0.68879,1.16188 -0.93724,1.02038 -0.0965,-0.055 -0.12352,-0.0424 -0.06,0.0279 0.14931,0.16523 -0.34171,0.7512 -2.31256,2.75973 -0.88307,0.89995 -1.67912,1.59083 -1.769,1.53528 -0.0899,-0.0555 -0.11742,-0.0266 -0.0612,0.0644 0.13077,0.2116 -1.59445,2.06173 -1.85627,1.99068 -0.10809,-0.0293 -0.14476,-0.002 -0.0815,0.0617 0.0633,0.0633 -0.75683,1.0417 -1.82247,2.17427 -1.65566,1.75966 -1.97498,2.03112 -2.19505,1.866 -0.21449,-0.16093 -0.22471,-0.15635 -0.0612,0.0274 0.22284,0.25039 0.22584,0.24692 -4.12084,4.76205 -2.1889,2.27373 -2.69431,2.72335 -2.87767,2.56 -0.1834,-0.16337 -0.19157,-0.15603 -0.0465,0.0419 0.14265,0.19467 -0.22936,0.66308 -1.96962,2.48 -1.18003,1.232 -2.23464,2.216 -2.3436,2.18667 -0.10895,-0.0293 -0.14263,0.002 -0.0748,0.0699 0.16455,0.16455 -1.01093,1.35755 -1.21397,1.23206 -0.0873,-0.0539 -0.1115,-0.0217 -0.0538,0.0717 0.12813,0.20733 -2.59401,3.11181 -2.79818,2.98563 -0.0799,-0.0494 -0.12547,0.006 -0.10129,0.12212 0.0242,0.11654 -0.046,0.19389 -0.15603,0.17189 -0.11,-0.022 -0.182,0.0467 -0.16,0.15273 0.022,0.106 -0.05,0.196 -0.16,0.2 -0.11,0.004 -0.182,0.0555 -0.16,0.11438 0.0713,0.19104 -0.72153,0.92611 -0.88798,0.82324 -0.0888,-0.0549 -0.11771,-0.029 -0.0642,0.0575 0.0535,0.0865 -0.12064,0.42166 -0.38693,0.74472 -0.26629,0.32306 -0.41118,0.58738 -0.32196,0.58738 0.0892,0 0.20743,-0.0732 0.2627,-0.16261 z m -56.816882,-12.47739 c 0.0568,-1.892 0.172175,-5.384 0.256401,-7.76 0.08423,-2.376 0.188716,-5.4 0.232202,-6.72 0.04349,-1.32 0.159808,-4.668 0.258495,-7.44 0.09869,-2.772 0.154398,-5.364 0.123801,-5.76 -0.0553,-0.7157 -0.05865,-0.71045 -0.56134,0.88 -3.002206,9.49854 -3.732503,19.53828 -2.124027,29.2 0.328777,1.97488 1.170839,5.77414 1.383025,6.24 0.111144,0.24402 0.245568,-2.44793 0.431443,-8.64 z m 50.482692,-1.85191 c 0.49471,-8.7147 1.34883,-17.5287 2.97578,-30.70809 0.21727,-1.76 0.43703,-3.452 0.48837,-3.76 0.0624,-0.37453 0.0401,-0.50701 -0.0673,-0.4 -0.3679,0.36653 -3.01099,12.87188 -3.78751,17.92 -0.93285,6.06443 -1.21073,9.28709 -1.21408,14.08 -0.002,2.464 0.0725,5.272 0.16494,6.24 0.21895,2.2927 0.81547,6.81268 0.93966,7.12 0.0533,0.132 0.14697,-1.45736 0.20806,-3.53191 0.0611,-2.07454 0.19251,-5.20654 0.29205,-6.96 z m 4.1441,-11.90809 c 2.1032,-6.66538 3.40905,-11.60035 4.42063,-16.70607 0.64687,-3.26489 0.61074,-3.01932 0.42753,-2.90609 -0.0772,0.0477 -0.22536,0.42994 -0.3293,0.84944 -0.10394,0.4195 -0.79212,2.88672 -1.52928,5.48272 -2.01767,7.10544 -4.4011,16.3492 -4.4011,17.069 0,0.4732 0.43553,-0.69591 1.41152,-3.789 z m 8.00466,-3.16 c 0.4285,-0.858 1.09009,-2.33026 1.47019,-3.27168 0.38011,-0.94143 0.7613,-1.6683 0.84709,-1.61528 0.088,0.0544 0.10474,0.0135 0.0384,-0.0939 -0.0647,-0.10464 0.17289,-0.99777 0.52791,-1.98472 1.3544,-3.76521 2.48515,-7.58055 2.39087,-8.06721 -0.0279,-0.14374 -0.61474,1.28082 -1.3042,3.1657 -1.36461,3.73063 -3.06627,8.33322 -4.10648,11.10704 -0.81267,2.16708 -0.86145,2.32 -0.74008,2.32 0.0535,0 0.4478,-0.702 0.8763,-1.56 z m 28.88734,-9.13333 c 0.0453,-0.0733 -0.0193,-0.13334 -0.14352,-0.13334 -0.12426,0 -0.18884,0.06 -0.14352,0.13334 0.0453,0.0733 0.10991,0.13333 0.14352,0.13333 0.0336,0 0.0982,-0.06 0.14352,-0.13333 z m -101.342051,85.77698 c -0.0018,-0.23726 0.619539,-1.90831 1.10907,-2.98289 0.223928,-0.49155 0.411042,-0.72318 0.506819,-0.6274 0.09578,0.0958 -0.17421,0.82649 -0.731293,1.97924 -0.485719,1.00507 -0.883788,1.73904 -0.884596,1.63105 z"
         id="path3525"
         sodipodi:nodetypes="sssscccsscssscscssssssscssccccsccssssccccccccsscssssscsssscsssssssssscczsscssscsscscsssssssssssscssscsscscscsssscssscsssssccsscscscsssssscssscscsscssccscsssssscsssscsscsssssccsssscsssscsccscsscscsscsssscsscccssssssssccsscsscscsscsccscssscscscssssssssccscccsssscsscsssscccsssssscccssscssssssssscsssssccccsscsscccscsscssscccsssssscsccscssccscsssscscssscssccccsscsscsccccscssscssssccssssscssscsccscscsccssssssscsscscsssccssssscsssc" /></g></g></svg>
