<?xml version="1.0" encoding="UTF-8" standalone="no"?>
<!-- Created with Inkscape (http://www.inkscape.org/) -->

<svg
   version="1.1"
   id="svg1"
   width="104.07708"
   height="156.68977"
   viewBox="0 0 104.07708 156.68977"
   sodipodi:docname="womanav7.svg"
   inkscape:version="1.2.2 (732a01da63, 2022-12-09)"
   xml:space="preserve"
   xmlns:inkscape="http://www.inkscape.org/namespaces/inkscape"
   xmlns:sodipodi="http://sodipodi.sourceforge.net/DTD/sodipodi-0.dtd"
   xmlns="http://www.w3.org/2000/svg"
   xmlns:svg="http://www.w3.org/2000/svg"><defs
     id="defs1" /><sodipodi:namedview
     id="namedview1"
     pagecolor="#ffffff"
     bordercolor="#cccccc"
     borderopacity="1"
     inkscape:showpageshadow="0"
     inkscape:pageopacity="1"
     inkscape:pagecheckerboard="0"
     inkscape:deskcolor="#d1d1d1"
     showgrid="false"
     inkscape:zoom="0.2435099"
     inkscape:cx="-4.1066092"
     inkscape:cy="32.852874"
     inkscape:window-width="1366"
     inkscape:window-height="705"
     inkscape:window-x="-8"
     inkscape:window-y="32"
     inkscape:window-maximized="1"
     inkscape:current-layer="g1" /><g
     inkscape:groupmode="layer"
     inkscape:label="Image"
     id="g1"
     transform="translate(233.43201,440.82801)"><path
       style="fill:#000000;fill-opacity:1;stroke-width:0.453626"
       d="m -215.48759,-290.51649 c 0.29243,-1.53134 1.76299,-11.59042 2.76877,-18.93887 1.25237,-9.15042 2.78335,-18.83953 3.24336,-20.52658 0.15314,-0.56136 0.0988,-1.02065 -0.12078,-1.02065 -0.51047,0 -1.55931,4.15156 -3.78303,14.97458 -0.94768,4.61238 -1.42457,7.61065 -2.52447,15.87199 -0.93985,7.05899 -0.90051,6.95986 -2.62465,6.61502 -0.78241,-0.15639 -1.64154,-0.53511 -1.90919,-0.8414 -0.32286,-0.3695 -0.42422,-3.27224 -0.3011,-8.62501 0.17897,-7.78541 0.21692,-8.05813 1.08104,-7.78387 1.19697,0.3799 3.13538,-0.49178 4.13858,-1.8611 1.06358,-1.45166 0.32793,-1.4364 -1.04184,0.0217 -1.12054,1.19278 -2.73481,1.5314 -2.70309,0.56702 0.01,-0.31187 1.3371,-1.54146 2.94856,-2.73247 1.92327,-1.42142 2.92993,-2.48037 2.92993,-3.08214 0,-0.99977 0.61605,-3.72531 2.98532,-13.20745 0.853,-3.41391 1.55094,-6.31768 1.55094,-6.45283 0,-0.13514 -0.61002,-0.12364 -1.3556,0.0255 -1.73382,0.34676 -3.50135,-0.77208 -4.32178,-2.73567 -0.33644,-0.80521 -0.74055,-3.18788 -0.89803,-5.2948 -0.23876,-3.19446 -0.14969,-4.09443 0.53618,-5.41798 0.888,-1.71349 3.99744,-3.55533 6.08233,-3.60275 l 1.17714,-0.0269 0.29792,-6.9178 c 0.30907,-7.17617 1.15827,-13.8931 2.25105,-17.8048 0.73234,-2.62154 3.19803,-8.04761 4.48345,-9.86637 0.48489,-0.68613 0.68284,-1.24748 0.43987,-1.24748 -0.24297,0 -1.07338,0.9536 -1.8454,2.11909 -1.58933,2.39944 -1.82421,2.29816 -0.53423,-0.23038 0.75146,-1.47297 5.60506,-5.51772 6.62113,-5.51772 0.17322,0 -0.30097,0.70165 -1.05392,1.55923 -2.19047,2.49483 -4.51613,7.79151 -5.14471,11.71708 -0.45112,2.81745 -0.44985,4.31697 0.006,7.48483 0.8329,5.78353 1.42238,5.72422 1.42969,-0.14375 0.004,-2.73197 0.12404,-5.40638 0.26802,-5.94314 0.24798,-0.92424 0.32654,-0.93877 1.48455,-0.27415 2.99397,1.7183 8.88827,-1.05406 17.78569,-8.36544 2.97636,-2.44578 6.22388,-5.04501 7.21671,-5.77604 0.99283,-0.73102 1.71504,-1.41926 1.6049,-1.5294 -0.34459,-0.34458 -4.29602,2.14883 -11.36351,7.17055 -6.3214,4.49162 -11.97526,7.72895 -13.43838,7.69466 -0.8615,-0.0202 -1.95387,-0.92966 -2.62127,-2.18233 -0.74138,-1.39154 0.31049,-4.7426 2.5457,-8.11003 1.82394,-2.74791 2.6094,-3.43573 1.95355,-1.7107 -0.24873,0.65424 -0.45224,2.09483 -0.45224,3.20132 0,2.59127 0.61763,2.61629 5.7072,0.23123 8.79431,-4.12115 17.12263,-12.94948 21.31607,-22.59583 1.78034,-4.09542 1.57949,-5.4287 -0.2439,-1.61906 -4.07921,8.52268 -13.72431,18.44591 -23.26378,23.93462 l -2.15472,1.23978 0.002,-1.29058 c 9.2e-4,-0.70983 0.23369,-2.1071 0.51622,-3.10506 l 0.51371,-1.81454 0.50442,1.45431 c 1.12346,3.23906 1.49646,2.55514 1.27853,-2.3445 -0.11714,-2.62907 -0.0651,-4.78013 0.11543,-4.78013 0.1805,0 0.84716,0.40826 1.48152,0.90726 0.88724,0.69791 1.79348,0.89698 3.92737,0.86273 l 2.77398,-0.0446 -1.82443,-0.52249 c -2.3823,-0.68228 -3.53987,-1.55169 -4.47042,-3.35768 -0.41779,-0.81084 -0.826,-1.47428 -0.90712,-1.47428 -0.0812,0 -0.73928,0.1872 -1.46263,0.41613 -3.83127,1.21222 -5.16809,0.77403 -5.17378,-1.69599 -9.3e-4,-0.66828 -0.30773,-1.79977 -0.68044,-2.51437 -0.37269,-0.71465 -0.67763,-1.70594 -0.67763,-2.20287 0,-0.49692 -0.50856,-1.30357 -1.13015,-1.7925 0,0 -1.04214,-0.32096 -1.13014,-0.88896 -0.0881,-0.56801 1.13014,-1.66316 1.13014,-1.66316 0.62159,-0.91473 1.13015,-1.87061 1.13015,-2.12417 0,-0.25357 -0.82699,-2.09439 -1.83776,-4.09072 -2.13337,-4.21366 -2.97411,-8.84643 -1.60538,-8.84643 2.72616,0 5.76246,3.47865 9.66385,11.07177 2.94736,5.73628 3.30676,6.2245 2.15997,2.93425 -2.61228,-7.49495 -5.94813,-12.72343 -9.22102,-14.45261 -0.91005,-0.48081 -1.33488,-0.88322 -0.9441,-0.89424 0.39078,-0.0117 3.26333,-1.03512 6.38346,-2.27579 3.12011,-1.24064 7.11274,-2.50262 8.87248,-2.80439 2.80371,-0.48077 3.58534,-0.44598 6.31808,0.28135 5.22352,1.39028 8.69434,3.32701 12.22231,6.82009 3.73903,3.70207 5.09437,5.98267 7.11056,11.96499 1.3901,4.12455 1.47147,4.72865 1.47418,10.94313 0.002,5.16405 -0.17534,7.11374 -0.82616,9.07251 -0.45598,1.37223 -0.90991,2.75285 -1.00877,3.06806 -0.11924,0.38021 -0.87726,0.0406 -2.2521,-1.00878 -3.08886,-2.35777 -7.54354,-3.49672 -9.97084,-2.54927 -0.70289,0.27433 -0.39824,0.43324 1.36087,0.70987 l 2.26649,0.35639 -1.43955,0.60626 c -2.45049,1.03196 -2.10855,1.51293 0.53995,0.75951 3.28561,-0.9347 5.23024,-0.37455 8.09532,2.33179 3.62717,3.42619 6.27855,10.27712 10.02057,25.8923 0.89686,3.74242 2.02431,8.43744 2.50551,10.4334 0.93084,3.86111 1.72993,7.5968 2.9595,13.83559 0.41796,2.1207 1.0372,5.18268 1.37608,6.80439 0.3389,1.6217 0.74405,3.93325 0.90033,5.13674 l 0.28416,2.18814 -2.87967,-2.26305 c -3.10659,-2.44134 -9.14025,-5.68892 -10.02285,-5.39472 -0.29847,0.0995 -0.0329,0.44494 0.59019,0.76769 2.08189,1.07835 9.72947,6.28211 11.56009,7.86596 1.60177,1.38587 1.80257,1.78307 1.75815,3.47766 -0.0437,1.66976 -0.35344,2.22017 -2.43457,4.32748 l -2.3844,2.41438 0.51593,4.46206 c 0.28375,2.45411 0.75699,6.23599 1.05162,8.40416 0.4382,3.22464 0.42373,4.17412 -0.0794,5.21669 l -0.6152,1.27457 -0.30854,-1.718 c -0.38518,-2.14471 -1.82905,-3.69795 -7.09997,-7.63779 -5.91568,-4.42178 -6.04743,-4.63269 -6.04743,-9.68076 v -4.17137 l -2.26812,0.69601 c -1.24749,0.3828 -2.26814,0.94723 -2.26814,1.25432 0,0.30708 0.28752,1.94954 0.63891,3.64994 0.35143,1.7004 0.7671,4.11228 0.92373,5.35976 0.28365,2.25902 1.08202,7.35082 2.32176,14.80784 0.35852,2.1565 0.65186,4.24883 0.65186,4.64968 0,0.65201 -1.33891,0.72883 -12.70152,0.72883 h -12.70152 v -7.18831 c 0,-3.95358 -0.15314,-9.10792 -0.34023,-11.45406 -0.29069,-3.6448 -0.37324,-2.61498 -0.56703,7.07493 l -0.22682,11.34065 -5.1033,0.12825 -5.10327,0.12825 0.008,-2.3964 c 0.004,-1.31802 0.30701,-9.03065 0.67233,-17.13923 0.79439,-17.6317 0.81618,-19.50591 0.2268,-19.50591 -0.27055,0 -0.45858,1.78489 -0.46591,4.42286 -0.008,2.43257 -0.20237,6.36209 -0.43469,8.73229 -0.23229,2.37019 -0.53964,7.47348 -0.68299,11.34065 -0.14336,3.86716 -0.37432,8.71529 -0.5133,10.77362 l -0.25267,3.74241 h -4.26874 -4.26873 v -2.77681 c 0,-1.52724 0.29097,-6.17124 0.64655,-10.32 0.35559,-4.14874 0.73503,-9.38036 0.84317,-11.6258 l 0.19662,-4.08264 -0.58373,3.40219 c -0.77551,4.51974 -2.46346,18.85998 -2.46346,20.9285 0,0.90165 -0.12749,2.27731 -0.28353,3.05698 l -0.28353,1.41758 h -3.83514 -3.83516 z m 18.2812,-52.8474 c -0.16137,-4.05429 -0.42547,-7.847 -0.58699,-8.42824 l -0.29364,-1.05684 8.63859,0.14949 c 4.75122,0.0823 8.55388,0.0133 8.45035,-0.15389 -0.10351,-0.16692 -1.21709,-0.52416 -2.47459,-0.79385 -2.575,-0.55222 -15.69008,-0.67532 -15.99354,-0.15007 -0.10819,0.1872 0.0744,1.8712 0.4057,3.74241 0.33126,1.87121 0.84032,5.80074 1.13127,8.73231 0.29095,2.93155 0.63862,5.33009 0.77257,5.33009 0.134,0 0.11159,-3.31713 -0.0498,-7.37141 z m 42.12027,-6.67723 c -0.37818,-0.61188 -5.88523,-2.20105 -10.34481,-2.98518 -5.1217,-0.90057 -13.26887,-1.3647 -13.63232,-0.77663 -0.4241,0.68621 13.18499,3.0685 23.65516,4.14086 0.3266,0.0335 0.47148,-0.13705 0.32197,-0.37905 z m -48.52057,-0.97487 c 1.92141,-0.48381 2.76751,-1.30703 1.34336,-1.30703 -1.59482,0 -7.03962,1.124 -7.03962,1.45322 0,0.52762 3.36312,0.44133 5.69626,-0.14624 z m 19.15642,-11.16873 c 3.15895,-2.39665 11.89104,-11.23542 11.89104,-12.03631 0,-0.21047 -2.90889,2.136 -6.46418,5.21436 -3.55531,3.07838 -8.14827,6.98642 -10.20657,8.68454 -2.05833,1.69815 -3.74243,3.19146 -3.74243,3.31849 0,0.47894 5.34468,-2.77039 8.52214,-5.18108 z m 13.25191,4.41178 c 3.5193,-0.685 12.80722,-3.12249 13.10121,-3.43823 0.15448,-0.16595 -1.14818,-0.19191 -2.89463,-0.0578 -3.34551,0.25679 -13.10774,3.14545 -13.66228,4.04272 -0.22254,0.36009 -0.0537,0.41759 0.54613,0.18604 0.47754,-0.18433 1.78683,-0.51405 2.90957,-0.73258 z m -2.9517,-21.20059 c 3.32362,-3.29057 6.85574,-7.70122 6.4734,-8.08358 -0.22571,-0.22569 -7.42188,7.33626 -9.41931,9.89809 -1.76497,2.26368 -0.19913,1.29921 2.94591,-1.81451 z m -5.82449,-28.94252 c 1.20923,-1.13586 1.79033,-1.85825 1.29136,-1.60536 -1.386,0.70252 -4.60624,3.6342 -4.01311,3.6535 0.28771,0.01 1.51251,-0.91229 2.72175,-2.04814 z m 10.08577,-6.10009 c 0.69969,-1.37223 1.53188,-3.75269 1.84927,-5.28993 0.65445,-3.16974 0.47486,-8.94923 -0.30225,-9.72633 -0.38674,-0.38676 -0.45426,-0.0499 -0.26811,1.3378 0.35165,2.62173 -0.67365,8.72016 -2.19828,13.07514 -1.90211,5.43318 -1.63332,5.60957 0.91937,0.60332 z m -6.80216,-3.36982 c 0.84623,-1.65192 1.44833,-3.09376 1.33798,-3.20413 -0.18491,-0.1849 -4.92801,7.47046 -5.31568,8.57976 -0.5186,1.48401 2.67379,-2.83036 3.9777,-5.37563 z m -2.02798,-2.21732 c 0.39388,-1.69843 0.69449,-4.55535 0.66802,-6.34869 l -0.048,-3.26064 -0.6244,4.30946 c -1.05295,7.26754 -1.23095,8.85468 -0.96631,8.61682 0.14012,-0.12596 0.57692,-1.61852 0.97082,-3.31695 z m -34.66667,64.8179 c 0,-0.69908 1.58995,-2.62259 2.67334,-3.23415 l 1.18249,-0.66751 -1.80871,0.11791 c -1.44526,0.0941 -1.84072,-0.0485 -1.96806,-0.70967 -0.2656,-1.37909 0.27045,-2.72001 1.71877,-4.29947 0.75766,-0.82626 1.3815,-1.94897 1.38632,-2.49493 0.006,-0.54596 0.27541,-2.01333 0.60132,-3.2608 0.58175,-2.22669 0.59828,-2.1397 0.90504,4.76307 0.1719,3.86717 0.42564,7.54153 0.56395,8.16527 0.23757,1.07144 0.14336,1.1351 -1.70765,1.15303 -1.07752,0.01 -2.31635,0.18549 -2.75296,0.38877 -0.43661,0.20338 -0.79385,0.23866 -0.79385,0.0785 z"
       id="path638"
       sodipodi:nodetypes="sssssssssssssssssssssscsssssssssscsssssssssssssssccscscssscsssscssszsssssssssssssssscsscsssssssscsssssscssscssscssssssscsssccccsssssscccssscssscccssscssssssssssssssssssssssssssssssssssssssssssssssssscssssscssssssssss" /></g></svg>
