<?xml version="1.0" encoding="UTF-8" standalone="no"?>
<!-- Created with Inkscape (http://www.inkscape.org/) -->

<svg
   version="1.1"
   id="svg1"
   width="104.07708"
   height="156.68977"
   viewBox="0 0 104.07708 156.68977"
   sodipodi:docname="womanav10.svg"
   inkscape:version="1.2.2 (732a01da63, 2022-12-09)"
   xml:space="preserve"
   xmlns:inkscape="http://www.inkscape.org/namespaces/inkscape"
   xmlns:sodipodi="http://sodipodi.sourceforge.net/DTD/sodipodi-0.dtd"
   xmlns="http://www.w3.org/2000/svg"
   xmlns:svg="http://www.w3.org/2000/svg"><defs
     id="defs1" /><sodipodi:namedview
     id="namedview1"
     pagecolor="#ffffff"
     bordercolor="#cccccc"
     borderopacity="1"
     inkscape:showpageshadow="0"
     inkscape:pageopacity="1"
     inkscape:pagecheckerboard="0"
     inkscape:deskcolor="#d1d1d1"
     showgrid="false"
     inkscape:zoom="0.97403959"
     inkscape:cx="433.7606"
     inkscape:cy="106.77184"
     inkscape:window-width="1366"
     inkscape:window-height="705"
     inkscape:window-x="-8"
     inkscape:window-y="32"
     inkscape:window-maximized="1"
     inkscape:current-layer="g1" /><g
     inkscape:groupmode="layer"
     inkscape:label="Image"
     id="g1"
     transform="translate(233.43201,440.82801)"><g
       id="g2988"
       transform="matrix(0.78913968,0,0,0.78913968,-38.291745,-108.15809)"
       style="fill:#000000"><path
         style="fill:#000000;fill-opacity:1;stroke-width:0.16"
         d="m -165.54019,-248.3359 c 0.1155,-0.0462 0.2535,-0.0405 0.30667,0.0126 0.0532,0.0532 -0.0413,0.091 -0.21,0.084 -0.18639,-0.008 -0.22431,-0.0456 -0.0967,-0.0967 z m 33.44,-10.08 c 0.1155,-0.0462 0.2535,-0.0405 0.30667,0.0126 0.0532,0.0532 -0.0413,0.091 -0.21,0.084 -0.18639,-0.008 -0.22431,-0.0456 -0.0967,-0.0967 z m -21.89,-1.7307 c 0.20668,-0.22 0.41178,-0.4 0.45578,-0.4 0.044,0 -0.0891,0.18 -0.29578,0.4 -0.20668,0.22 -0.41178,0.4 -0.45578,0.4 -0.044,0 0.0891,-0.18 0.29578,-0.4 z m -24.68,-4.02596 c 0.11,-0.0444 0.29,-0.0444 0.4,0 0.11,0.0444 0.02,0.0807 -0.2,0.0807 -0.22,0 -0.31,-0.0363 -0.2,-0.0807 z m 45.77959,-11.05404 c -0.19902,-0.25377 -0.19336,-0.25943 0.0604,-0.0604 0.154,0.12078 0.28,0.24678 0.28,0.28 0,0.13169 -0.13139,0.0469 -0.34041,-0.21959 z m -26.05959,-1.86041 c 0,-0.0332 0.126,-0.15922 0.28,-0.28 0.25377,-0.19902 0.25943,-0.19336 0.0604,0.0604 -0.20902,0.26652 -0.34041,0.35128 -0.34041,0.21959 z m 21.93263,-3.55292 c 0.008,-0.18639 0.0456,-0.22431 0.0967,-0.0967 0.0462,0.1155 0.0405,0.2535 -0.0126,0.30667 -0.0532,0.0532 -0.091,-0.0413 -0.084,-0.21 z m -52.84263,-1.13597 c 0.1155,-0.0462 0.2535,-0.0405 0.30667,0.0126 0.0532,0.0532 -0.0413,0.091 -0.21,0.084 -0.18639,-0.008 -0.22431,-0.0456 -0.0967,-0.0967 z m 3.83,0.003 c 0.11,-0.0444 0.29,-0.0444 0.4,0 0.11,0.0444 0.02,0.0807 -0.2,0.0807 -0.22,0 -0.31,-0.0363 -0.2,-0.0807 z m 43.25263,-7.18737 c 0.008,-0.18639 0.0456,-0.2243 0.0967,-0.0967 0.0462,0.11549 0.0405,0.2535 -0.0126,0.30666 -0.0532,0.0532 -0.091,-0.0413 -0.084,-0.21 z m -29.64263,-2.89596 c 0.1155,-0.0462 0.2535,-0.0405 0.30667,0.0126 0.0532,0.0532 -0.0413,0.091 -0.21,0.084 -0.18639,-0.008 -0.22431,-0.0456 -0.0967,-0.0967 z m 12.35,-2.35111 c 0,-0.0332 0.126,-0.15922 0.28,-0.28 0.25377,-0.19902 0.25943,-0.19336 0.0604,0.0604 -0.20902,0.26652 -0.34041,0.35128 -0.34041,0.21959 z m 10.28576,-1.45959 c 10e-4,-0.44 0.0323,-0.60101 0.069,-0.3578 0.0368,0.24321 0.0358,0.60321 -0.002,0.8 -0.038,0.19679 -0.0681,-0.002 -0.0669,-0.4422 z m 7.0195,0.4 c 0,-0.22 0.0363,-0.31 0.0807,-0.2 0.0444,0.11 0.0444,0.29 0,0.4 -0.0444,0.11 -0.0807,0.02 -0.0807,-0.2 z m -85.82526,-2.02596 c 0.11,-0.0444 0.29,-0.0444 0.4,0 0.11,0.0444 0.02,0.0807 -0.2,0.0807 -0.22,0 -0.31,-0.0363 -0.2,-0.0807 z m 0.88,-0.004 c 0.154,-0.0402 0.406,-0.0402 0.56,0 0.154,0.0402 0.028,0.0732 -0.28,0.0732 -0.308,0 -0.434,-0.0329 -0.28,-0.0732 z m 92.90789,-1.1297 -0.38789,-0.44 0.44,0.38789 c 0.242,0.21334 0.44,0.41134 0.44,0.44 0,0.12548 -0.12957,0.0234 -0.49211,-0.38789 z m -16.16,-10.72 -0.38789,-0.44 0.44,0.38789 c 0.242,0.21334 0.44,0.41134 0.44,0.44 0,0.12548 -0.12957,0.0234 -0.49211,-0.38789 z m -67.05789,-4.6293 c 0.1155,-0.0462 0.2535,-0.0405 0.30667,0.0126 0.0532,0.0532 -0.0413,0.091 -0.21,0.084 -0.18639,-0.008 -0.22431,-0.0456 -0.0967,-0.0967 z m 68.63,-8.47666 c 0.11,-0.0444 0.29,-0.0444 0.4,0 0.11,0.0444 0.02,0.0807 -0.2,0.0807 -0.22,0 -0.31,-0.0363 -0.2,-0.0807 z m 8.52,-10.19445 c 0,-0.0332 0.126,-0.15922 0.28,-0.28 0.25377,-0.19902 0.25943,-0.19336 0.0604,0.0604 -0.20902,0.26652 -0.34041,0.35128 -0.34041,0.21959 z m -34.83424,-24.49959 c 0.001,-0.44 0.0323,-0.60101 0.0691,-0.3578 0.0368,0.24321 0.0358,0.60321 -0.002,0.8 -0.038,0.19679 -0.0681,-0.002 -0.0669,-0.4422 z m 0.007,-15.36 c 6.4e-4,-0.616 0.0296,-0.84839 0.0643,-0.51643 0.0346,0.33196 0.0341,0.83596 -0.001,1.12 -0.0353,0.28404 -0.0637,0.0124 -0.063,-0.60357 z"
         id="path3004" /><path
         style="fill:#000000;fill-opacity:1;stroke-width:0.16"
         d="m -175.94019,-252.0159 c 0.1155,-0.0462 0.2535,-0.0405 0.30667,0.0126 0.0532,0.0532 -0.0413,0.091 -0.21,0.084 -0.18639,-0.008 -0.22431,-0.0456 -0.0967,-0.0967 z m 6.24,0 c 0.1155,-0.0462 0.2535,-0.0405 0.30667,0.0126 0.0532,0.0532 -0.0413,0.091 -0.21,0.084 -0.18639,-0.008 -0.22431,-0.0456 -0.0967,-0.0967 z m -4.65,-2.23666 c 0.11,-0.0444 0.29,-0.0444 0.4,0 0.11,0.0444 0.02,0.0807 -0.2,0.0807 -0.22,0 -0.31,-0.0363 -0.2,-0.0807 z m 4.96,0 c 0.11,-0.0444 0.29,-0.0444 0.4,0 0.11,0.0444 0.02,0.0807 -0.2,0.0807 -0.22,0 -0.31,-0.0363 -0.2,-0.0807 z m 43.53959,-4.81404 c -0.19902,-0.25377 -0.19336,-0.25943 0.0604,-0.0604 0.154,0.12078 0.28,0.24678 0.28,0.28 0,0.13169 -0.13139,0.0469 -0.34041,-0.21959 z m -110.73959,-9.11292 c 0.198,-0.0381 0.522,-0.0381 0.72,0 0.198,0.0381 0.036,0.0693 -0.36,0.0693 -0.396,0 -0.558,-0.0312 -0.36,-0.0693 z m 73.48,-21.70749 c 0,-0.0332 0.126,-0.15922 0.28,-0.28 0.25377,-0.19902 0.25943,-0.19336 0.0604,0.0604 -0.20902,0.26652 -0.34041,0.35128 -0.34041,0.21959 z m 13.29263,-4.83292 c 0.008,-0.18639 0.0456,-0.22431 0.0967,-0.0967 0.0462,0.1155 0.0405,0.2535 -0.0126,0.30667 -0.0532,0.0532 -0.091,-0.0413 -0.084,-0.21 z m -14.01263,-1.18667 c 0.15928,-0.176 0.3256,-0.32 0.3696,-0.32 0.044,0 -0.0503,0.144 -0.2096,0.32 -0.15928,0.176 -0.3256,0.32 -0.3696,0.32 -0.044,0 0.0503,-0.144 0.2096,-0.32 z m 2.48,-3.42041 c 0,-0.0332 0.126,-0.15922 0.28,-0.28 0.25377,-0.19902 0.25943,-0.19336 0.0604,0.0604 -0.20902,0.26652 -0.34041,0.35128 -0.34041,0.21959 z m -59.18737,-46.11292 c 0.008,-0.18639 0.0456,-0.22431 0.0967,-0.0967 0.0462,0.1155 0.0405,0.2535 -0.0126,0.30667 -0.0532,0.0532 -0.091,-0.0413 -0.084,-0.21 z m 45.6,-19.2 c 0.008,-0.18639 0.0456,-0.22431 0.0967,-0.0967 0.0462,0.1155 0.0405,0.2535 -0.0126,0.30667 -0.0532,0.0532 -0.091,-0.0413 -0.084,-0.21 z m -0.14144,-3.66667 c 0.003,-0.264 0.0391,-0.35263 0.0797,-0.19696 0.0406,0.15568 0.0379,0.37168 -0.006,0.48 -0.0438,0.10833 -0.077,-0.019 -0.0738,-0.28304 z m 38.86144,-10.41333 c 0.008,-0.18639 0.0456,-0.22431 0.0967,-0.0967 0.0462,0.1155 0.0405,0.2535 -0.0126,0.30667 -0.0532,0.0532 -0.091,-0.0413 -0.084,-0.21 z m -7.45263,-3.10667 c 0.15928,-0.176 0.3256,-0.32 0.3696,-0.32 0.044,0 -0.0503,0.144 -0.2096,0.32 -0.15928,0.176 -0.3256,0.32 -0.3696,0.32 -0.044,0 0.0503,-0.144 0.2096,-0.32 z"
         id="path3002" /><path
         style="fill:#000000;fill-opacity:1;stroke-width:0.16"
         d="m -173.46715,-245.29748 c 0.15568,-0.0406 0.37168,-0.0379 0.48,0.006 0.10833,0.0438 -0.019,0.077 -0.28304,0.0738 -0.264,-0.003 -0.35263,-0.0391 -0.19696,-0.0797 z m 6.96696,0.002 c 0.1155,-0.0462 0.2535,-0.0405 0.30667,0.0126 0.0532,0.0532 -0.0413,0.091 -0.21,0.084 -0.18639,-0.008 -0.22431,-0.0456 -0.0967,-0.0967 z m 46.44263,-10.54403 c 0.008,-0.1864 0.0456,-0.22431 0.0967,-0.0967 0.0462,0.1155 0.0405,0.2535 -0.0126,0.30667 -0.0532,0.0532 -0.091,-0.0413 -0.084,-0.21 z m -63.40263,-8.33599 c 0.1155,-0.0462 0.2535,-0.0405 0.30667,0.0126 0.0532,0.0532 -0.0413,0.091 -0.21,0.084 -0.18639,-0.008 -0.22431,-0.0456 -0.0967,-0.0967 z m -59.79737,-3.82403 c 0.008,-0.18639 0.0456,-0.22431 0.0967,-0.0967 0.0462,0.1155 0.0405,0.2535 -0.0126,0.30667 -0.0532,0.0532 -0.091,-0.0413 -0.084,-0.21 z m 102.70737,-2.86667 c 0.20668,-0.22 0.41178,-0.4 0.45578,-0.4 0.044,0 -0.0891,0.18 -0.29578,0.4 -0.20668,0.22 -0.41178,0.4 -0.45578,0.4 -0.044,0 0.0891,-0.18 0.29578,-0.4 z m 11.75247,-0.92 -0.63247,-0.68 0.68,0.63247 c 0.63239,0.58819 0.75352,0.72753 0.63247,0.72753 -0.0261,0 -0.33214,-0.306 -0.68,-0.68 z m -30.55247,-4.92 c 0.15928,-0.176 0.3256,-0.32 0.3696,-0.32 0.044,0 -0.0503,0.144 -0.2096,0.32 -0.15928,0.176 -0.3256,0.32 -0.3696,0.32 -0.044,0 0.0503,-0.144 0.2096,-0.32 z m 22.34526,-8.64 c 0,-0.22 0.0363,-0.31 0.0807,-0.2 0.0444,0.11 0.0444,0.29 0,0.4 -0.0444,0.11 -0.0807,0.02 -0.0807,-0.2 z m -4.65263,-0.25333 c 0.008,-0.18639 0.0456,-0.22431 0.0967,-0.0967 0.0462,0.1155 0.0405,0.2535 -0.0126,0.30667 -0.0532,0.0532 -0.091,-0.0413 -0.084,-0.21 z m -21.93263,-3.80708 c 0,-0.0332 0.126,-0.15922 0.28,-0.28 0.25377,-0.19902 0.25943,-0.19336 0.0604,0.0604 -0.20902,0.26652 -0.34041,0.35128 -0.34041,0.21959 z m -8.35,-2.44889 c 0.1155,-0.0462 0.2535,-0.0405 0.30667,0.0126 0.0532,0.0532 -0.0413,0.091 -0.21,0.084 -0.18639,-0.008 -0.22431,-0.0456 -0.0967,-0.0967 z m -44.72696,-20.48158 c 0.15568,-0.0406 0.37168,-0.0379 0.48,0.006 0.10833,0.0438 -0.019,0.077 -0.28304,0.0738 -0.264,-0.003 -0.35263,-0.0391 -0.19696,-0.0797 z m 74.04959,-17.74245 c 0.008,-0.18639 0.0456,-0.22431 0.0967,-0.0967 0.0462,0.1155 0.0405,0.2535 -0.0126,0.30667 -0.0532,0.0532 -0.091,-0.0413 -0.084,-0.21 z m -78.08,-7.52 c 0.008,-0.18639 0.0456,-0.22431 0.0967,-0.0967 0.0462,0.1155 0.0405,0.2535 -0.0126,0.30667 -0.0532,0.0532 -0.091,-0.0413 -0.084,-0.21 z m 0.0126,-0.86667 c 0,-0.22 0.0363,-0.31 0.0807,-0.2 0.0444,0.11 0.0444,0.29 0,0.4 -0.0444,0.11 -0.0807,0.02 -0.0807,-0.2 z m 0,-2.88 c 0,-0.22 0.0363,-0.31 0.0807,-0.2 0.0444,0.11 0.0444,0.29 0,0.4 -0.0444,0.11 -0.0807,0.02 -0.0807,-0.2 z m 0.006,-0.88 c 0.003,-0.264 0.0391,-0.35263 0.0797,-0.19696 0.0406,0.15568 0.0379,0.37168 -0.006,0.48 -0.0438,0.10833 -0.077,-0.019 -0.0738,-0.28304 z m 45.11406,-10.16 c 0,-0.22 0.0363,-0.31 0.0807,-0.2 0.0444,0.11 0.0444,0.29 0,0.4 -0.0444,0.11 -0.0807,0.02 -0.0807,-0.2 z m -0.15407,-3.28 c 0.003,-0.264 0.0391,-0.35263 0.0797,-0.19696 0.0406,0.15568 0.0379,0.37168 -0.006,0.48 -0.0438,0.10833 -0.077,-0.019 -0.0738,-0.28304 z m 0.006,-18.32 c 0,-0.308 0.0329,-0.434 0.0732,-0.28 0.0403,0.154 0.0403,0.406 0,0.56 -0.0402,0.154 -0.0732,0.028 -0.0732,-0.28 z m 32.57288,-14.0293 c 0.1155,-0.0462 0.2535,-0.0405 0.30667,0.0126 0.0532,0.0532 -0.0413,0.091 -0.21,0.084 -0.18639,-0.008 -0.22431,-0.0456 -0.0967,-0.0967 z m -58.05,-5.71111 c 0,-0.0332 0.126,-0.15922 0.28,-0.28 0.25377,-0.19902 0.25943,-0.19336 0.0604,0.0604 -0.20902,0.26652 -0.34041,0.35128 -0.34041,0.21959 z m 26.85,-8.20889 c 0.1155,-0.0462 0.2535,-0.0405 0.30667,0.0126 0.0532,0.0532 -0.0413,0.091 -0.21,0.084 -0.18639,-0.008 -0.22431,-0.0456 -0.0967,-0.0967 z"
         id="path3000" /><path
         style="fill:#000000;fill-opacity:1;stroke-width:0.16"
         d="m -126.08539,-261.8666 -0.3048,-0.36 0.36,0.3048 c 0.33831,0.28643 0.43284,0.4152 0.3048,0.4152 -0.0304,0 -0.19236,-0.162 -0.36,-0.36 z m -19.9438,-3.2663 c 0.11055,-0.0446 0.15342,-0.15801 0.0953,-0.25209 -0.063,-0.10195 -0.03,-0.12428 0.0816,-0.0553 0.22027,0.13614 0.088,0.41929 -0.18733,0.40104 -0.13639,-0.009 -0.13343,-0.0357 0.0104,-0.0937 z m -40.481,-0.15966 c 0.11,-0.0444 0.29,-0.0444 0.4,0 0.11,0.0444 0.02,0.0807 -0.2,0.0807 -0.22,0 -0.31,-0.0363 -0.2,-0.0807 z m 4.65,-0.003 c 0.1155,-0.0462 0.2535,-0.0405 0.30667,0.0126 0.0532,0.0532 -0.0413,0.091 -0.21,0.084 -0.18639,-0.008 -0.22431,-0.0456 -0.0967,-0.0967 z m 22.67,-7.73071 c 0.34372,-0.352 0.66094,-0.64 0.70494,-0.64 0.044,0 -0.20122,0.288 -0.54494,0.64 -0.34372,0.352 -0.66094,0.64 -0.70494,0.64 -0.044,0 0.20122,-0.288 0.54494,-0.64 z m 16.43119,-16.72 c 0.003,-0.264 0.0391,-0.35263 0.0797,-0.19696 0.0406,0.15568 0.0379,0.37168 -0.006,0.48 -0.0438,0.10833 -0.077,-0.019 -0.0738,-0.28304 z m -0.0186,-4.49333 c 0.008,-0.18639 0.0456,-0.22431 0.0967,-0.0967 0.0462,0.1155 0.0405,0.2535 -0.0126,0.30667 -0.0532,0.0532 -0.091,-0.0413 -0.084,-0.21 z m -84.68976,-5.46263 c 0.28757,-0.0356 0.71957,-0.0349 0.96,0.002 0.24042,0.0365 0.005,0.0656 -0.52287,0.0647 -0.528,-9.6e-4 -0.72471,-0.0308 -0.43713,-0.0664 z m 3.84713,-2.71334 c 0.1155,-0.0462 0.2535,-0.0405 0.30667,0.0126 0.0532,0.0532 -0.0413,0.091 -0.21,0.084 -0.18639,-0.008 -0.22431,-0.0456 -0.0967,-0.0967 z m 4.31,-11.35666 c 0.11,-0.0444 0.29,-0.0444 0.4,0 0.11,0.0444 0.02,0.0807 -0.2,0.0807 -0.22,0 -0.31,-0.0363 -0.2,-0.0807 z m 2.00304,-0.005 c 0.15568,-0.0406 0.37168,-0.0379 0.48,0.006 0.10833,0.0438 -0.019,0.077 -0.28304,0.0738 -0.264,-0.003 -0.35263,-0.0391 -0.19696,-0.0797 z m 69.03983,-8.48508 c 0.28757,-0.0356 0.71957,-0.0349 0.96,0.002 0.24042,0.0365 0.005,0.0656 -0.52287,0.0647 -0.528,-9.6e-4 -0.72471,-0.0308 -0.43713,-0.0664 z m 6.12976,-4.77737 c 0.008,-0.18639 0.0456,-0.22431 0.0967,-0.0967 0.0462,0.1155 0.0405,0.2535 -0.0126,0.30667 -0.0532,0.0532 -0.091,-0.0413 -0.084,-0.21 z m -78.4,-8 c 0.008,-0.18639 0.0456,-0.22431 0.0967,-0.0967 0.0462,0.1155 0.0405,0.2535 -0.0126,0.30667 -0.0532,0.0532 -0.091,-0.0413 -0.084,-0.21 z m 44.8,-20 c 0.008,-0.18639 0.0456,-0.22431 0.0967,-0.0967 0.0462,0.1155 0.0405,0.2535 -0.0126,0.30667 -0.0532,0.0532 -0.091,-0.0413 -0.084,-0.21 z m -0.10467,-8.86667 c 0,-1.892 0.0231,-2.666 0.0514,-1.72 0.0283,0.946 0.0283,2.494 0,3.44 -0.0283,0.946 -0.0514,0.172 -0.0514,-1.72 z m 37.37204,-1.02041 c 0,-0.0332 0.126,-0.15922 0.28,-0.28 0.25377,-0.19902 0.25943,-0.19336 0.0604,0.0604 -0.20902,0.26652 -0.34041,0.35128 -0.34041,0.21959 z m -36.58621,-4.89959 c 0,-0.66 0.0282,-0.93 0.0628,-0.6 0.0345,0.33 0.0345,0.87 0,1.2 -0.0345,0.33 -0.0628,0.06 -0.0628,-0.6 z"
         id="path2998" /><path
         style="fill:#000000;fill-opacity:1;stroke-width:0.16"
         d="m -172.82435,-254.26501 c 0.50921,-0.0319 1.30121,-0.0316 1.76,6.4e-4 0.45879,0.0322 0.0422,0.0583 -0.92584,0.0579 -0.968,-3.2e-4 -1.34337,-0.0267 -0.83416,-0.0586 z m 23.31416,-2.342 c 0,-0.0332 0.126,-0.15922 0.28,-0.28 0.25377,-0.19902 0.25943,-0.19336 0.0604,0.0604 -0.20902,0.26652 -0.34041,0.35128 -0.34041,0.21959 z m -3.84,-2.56 c 0,-0.0332 0.126,-0.15922 0.28,-0.28 0.25377,-0.19902 0.25943,-0.19336 0.0604,0.0604 -0.20902,0.26652 -0.34041,0.35128 -0.34041,0.21959 z m 19.65,-3.08889 c 0.1155,-0.0462 0.2535,-0.0405 0.30667,0.0126 0.0532,0.0532 -0.0413,0.091 -0.21,0.084 -0.18639,-0.008 -0.22431,-0.0456 -0.0967,-0.0967 z m 7.04959,-0.1707 c -0.19902,-0.25377 -0.19336,-0.25943 0.0604,-0.0604 0.154,0.12078 0.28,0.24678 0.28,0.28 0,0.13169 -0.13139,0.0469 -0.34041,-0.21959 z m -90.44311,-9.45333 c -0.0453,-0.0733 0.0193,-0.13334 0.14352,-0.13334 0.12426,0 0.18884,0.06 0.14352,0.13334 -0.0453,0.0733 -0.10991,0.13333 -0.14352,0.13333 -0.0336,0 -0.0982,-0.06 -0.14352,-0.13333 z m 56.30352,-3.38667 c 0.15928,-0.176 0.3256,-0.32 0.3696,-0.32 0.044,0 -0.0503,0.144 -0.2096,0.32 -0.15928,0.176 -0.3256,0.32 -0.3696,0.32 -0.044,0 0.0503,-0.144 0.2096,-0.32 z m 0.56,-0.54041 c 0,-0.0332 0.126,-0.15922 0.28,-0.28 0.25377,-0.19902 0.25943,-0.19336 0.0604,0.0604 -0.20902,0.26652 -0.34041,0.35128 -0.34041,0.21959 z m -29.08,-2.61419 c 0.242,-0.0367 0.638,-0.0367 0.88,0 0.242,0.0367 0.044,0.0666 -0.44,0.0666 -0.484,0 -0.682,-0.03 -0.44,-0.0666 z m 3.29,-0.1547 c 0.1155,-0.0462 0.2535,-0.0405 0.30667,0.0126 0.0532,0.0532 -0.0413,0.091 -0.21,0.084 -0.18639,-0.008 -0.22431,-0.0456 -0.0967,-0.0967 z m -1.76713,-3.20666 c 0.28757,-0.0356 0.71957,-0.0349 0.96,0.002 0.24042,0.0365 0.005,0.0656 -0.52287,0.0647 -0.528,-9.6e-4 -0.72471,-0.0308 -0.43713,-0.0664 z m 23.55713,-6.98445 c 0,-0.0332 0.126,-0.15922 0.28,-0.28 0.25377,-0.19902 0.25943,-0.19336 0.0604,0.0604 -0.20902,0.26652 -0.34041,0.35128 -0.34041,0.21959 z m 2.08,-2.09959 c 0.20668,-0.22 0.41178,-0.4 0.45578,-0.4 0.044,0 -0.0891,0.18 -0.29578,0.4 -0.20668,0.22 -0.41178,0.4 -0.45578,0.4 -0.044,0 0.0891,-0.18 0.29578,-0.4 z m -55.9578,-21.47481 c 0.24321,-0.0368 0.60321,-0.0358 0.8,0.002 0.19679,0.038 -0.002,0.0681 -0.4422,0.0669 -0.44,-10e-4 -0.60101,-0.0323 -0.3578,-0.0691 z m 78.5978,-24.84519 c 0.15928,-0.176 0.3256,-0.32 0.3696,-0.32 0.044,0 -0.0503,0.144 -0.2096,0.32 -0.15928,0.176 -0.3256,0.32 -0.3696,0.32 -0.044,0 0.0503,-0.144 0.2096,-0.32 z m -80.86737,-9.37333 c 0.008,-0.18639 0.0456,-0.22431 0.0967,-0.0967 0.0462,0.1155 0.0405,0.2535 -0.0126,0.30667 -0.0532,0.0532 -0.091,-0.0413 -0.084,-0.21 z m 44.96,-3.2 c 0.008,-0.18639 0.0456,-0.22431 0.0967,-0.0967 0.0462,0.1155 0.0405,0.2535 -0.0126,0.30667 -0.0532,0.0532 -0.091,-0.0413 -0.084,-0.21 z m 0.48,-15.52 c 0.008,-0.18639 0.0456,-0.22431 0.0967,-0.0967 0.0462,0.1155 0.0405,0.2535 -0.0126,0.30667 -0.0532,0.0532 -0.091,-0.0413 -0.084,-0.21 z m 38.74449,-14.46667 c 0,-0.308 0.0329,-0.434 0.0732,-0.28 0.0403,0.154 0.0403,0.406 0,0.56 -0.0402,0.154 -0.0732,0.028 -0.0732,-0.28 z"
         id="path2996" /><path
         style="fill:#000000;fill-opacity:1;stroke-width:0.16"
         d="m -172.67019,-245.29689 c 0.154,-0.0403 0.406,-0.0403 0.56,0 0.154,0.0402 0.028,0.0732 -0.28,0.0732 -0.308,0 -0.434,-0.0329 -0.28,-0.0732 z m 5.04,0.004 c 0.11,-0.0444 0.29,-0.0444 0.4,0 0.11,0.0444 0.02,0.0807 -0.2,0.0807 -0.22,0 -0.31,-0.0363 -0.2,-0.0807 z m -7.19,-0.16333 c 0.1155,-0.0462 0.2535,-0.0405 0.30667,0.0126 0.0532,0.0532 -0.0413,0.091 -0.21,0.084 -0.18639,-0.008 -0.22431,-0.0456 -0.0967,-0.0967 z m 0.31187,-6.40386 c 0.19902,-0.0383 0.48702,-0.0368 0.64,0.003 0.15297,0.04 -0.01,0.0714 -0.36187,0.0696 -0.352,-0.002 -0.47716,-0.0345 -0.27813,-0.0728 z m 3.04,0 c 0.19902,-0.0383 0.48702,-0.0368 0.64,0.003 0.15297,0.04 -0.01,0.0714 -0.36187,0.0696 -0.352,-0.002 -0.47716,-0.0345 -0.27813,-0.0728 z m -4.15187,-2.55615 c 0.1155,-0.0462 0.2535,-0.0405 0.30667,0.0126 0.0532,0.0532 -0.0413,0.091 -0.21,0.084 -0.18639,-0.008 -0.22431,-0.0456 -0.0967,-0.0967 z m 55.56263,-0.78403 c 0.008,-0.18639 0.0456,-0.22431 0.0967,-0.0967 0.0462,0.1155 0.0405,0.2535 -0.0126,0.30667 -0.0532,0.0532 -0.091,-0.0413 -0.084,-0.21 z m -4.99304,-0.34667 c -0.19902,-0.25377 -0.19336,-0.25943 0.0604,-0.0604 0.154,0.12078 0.28,0.24678 0.28,0.28 0,0.13169 -0.13139,0.0469 -0.34041,-0.21959 z m -118.19433,-11.72 c 0,-0.22 0.0363,-0.31 0.0807,-0.2 0.0444,0.11 0.0444,0.29 0,0.4 -0.0444,0.11 -0.0807,0.02 -0.0807,-0.2 z m 99.01474,-0.54041 c 0,-0.0332 0.126,-0.15922 0.28,-0.28 0.25377,-0.19902 0.25943,-0.19336 0.0604,0.0604 -0.20902,0.26652 -0.34041,0.35128 -0.34041,0.21959 z m -16,-4.16 c 0,-0.0332 0.126,-0.15922 0.28,-0.28 0.25377,-0.19902 0.25943,-0.19336 0.0604,0.0604 -0.20902,0.26652 -0.34041,0.35128 -0.34041,0.21959 z m -27.72,-6.44555 c 0.11,-0.0444 0.29,-0.0444 0.4,0 0.11,0.0444 0.02,0.0807 -0.2,0.0807 -0.22,0 -0.31,-0.0363 -0.2,-0.0807 z m 50.97768,-4.69404 c 0,-0.836 0.027,-1.178 0.0599,-0.76 0.033,0.418 0.033,1.102 0,1.52 -0.033,0.418 -0.0599,0.076 -0.0599,-0.76 z m -24.21768,-10.14041 c 0,-0.0332 0.126,-0.15922 0.28,-0.28 0.25377,-0.19902 0.25943,-0.19336 0.0604,0.0604 -0.20902,0.26652 -0.34041,0.35128 -0.34041,0.21959 z m -14.44,-1.17674 c 0.374,-0.0337 0.986,-0.0337 1.36,0 0.374,0.0337 0.068,0.0612 -0.68,0.0612 -0.748,0 -1.054,-0.0276 -0.68,-0.0612 z m -10.29007,-3.12285 -0.46993,-0.52 0.52,0.46993 c 0.48471,0.43805 0.59354,0.57007 0.46993,0.57007 -0.0275,0 -0.26153,-0.234 -0.52,-0.52 z m 51.90966,0.08 c -0.19902,-0.25377 -0.19336,-0.25943 0.0604,-0.0604 0.154,0.12078 0.28,0.24678 0.28,0.28 0,0.13169 -0.13139,0.0469 -0.34041,-0.21959 z m -88.81959,-6.55292 c 0.198,-0.0381 0.522,-0.0381 0.72,0 0.198,0.0381 0.036,0.0693 -0.36,0.0693 -0.396,0 -0.558,-0.0312 -0.36,-0.0693 z m 9.45959,-12.32708 c -0.19902,-0.25377 -0.19336,-0.25943 0.0604,-0.0604 0.26652,0.20902 0.35128,0.34041 0.21959,0.34041 -0.0332,0 -0.15922,-0.126 -0.28,-0.28 z m -0.64,-0.64 c -0.19902,-0.25377 -0.19336,-0.25943 0.0604,-0.0604 0.26652,0.20902 0.35128,0.34041 0.21959,0.34041 -0.0332,0 -0.15922,-0.126 -0.28,-0.28 z m -6.64838,-22.92 c 0,-0.572 0.029,-0.806 0.0645,-0.52 0.0355,0.286 0.0355,0.754 0,1.04 -0.0355,0.286 -0.0645,0.052 -0.0645,-0.52 z m 44.93405,-14.4 c 0,-0.22 0.0363,-0.31 0.0807,-0.2 0.0444,0.11 0.0444,0.29 0,0.4 -0.0444,0.11 -0.0807,0.02 -0.0807,-0.2 z m 0.94737,-9.05333 c 0.008,-0.18639 0.0456,-0.22431 0.0967,-0.0967 0.0462,0.1155 0.0405,0.2535 -0.0126,0.30667 -0.0532,0.0532 -0.091,-0.0413 -0.084,-0.21 z m -0.41263,-16.06667 c -0.0544,-0.088 -0.0226,-0.16 0.0706,-0.16 0.0932,0 0.16944,0.072 0.16944,0.16 0,0.088 -0.0318,0.16 -0.0706,0.16 -0.0388,0 -0.11505,-0.072 -0.16944,-0.16 z m -28.32,-12 c 0.15928,-0.176 0.3256,-0.32 0.3696,-0.32 0.044,0 -0.0503,0.144 -0.2096,0.32 -0.15928,0.176 -0.3256,0.32 -0.3696,0.32 -0.044,0 0.0503,-0.144 0.2096,-0.32 z m 0.88,-0.86041 c 0,-0.0332 0.126,-0.15922 0.28,-0.28 0.25377,-0.19902 0.25943,-0.19336 0.0604,0.0604 -0.20902,0.26652 -0.34041,0.35128 -0.34041,0.21959 z m 22.04,-9.64555 c 0.11,-0.0444 0.29,-0.0444 0.4,0 0.11,0.0444 0.02,0.0807 -0.2,0.0807 -0.22,0 -0.31,-0.0363 -0.2,-0.0807 z m 5.44,0 c 0.11,-0.0444 0.29,-0.0444 0.4,0 0.11,0.0444 0.02,0.0807 -0.2,0.0807 -0.22,0 -0.31,-0.0363 -0.2,-0.0807 z"
         id="path2994" /><path
         style="fill:#000000;fill-opacity:1;stroke-width:0.16"
         d="m -176.58019,-245.6159 c 0.1155,-0.0462 0.2535,-0.0405 0.30667,0.0126 0.0532,0.0532 -0.0413,0.091 -0.21,0.084 -0.18639,-0.008 -0.22431,-0.0456 -0.0967,-0.0967 z m 10.23,-2.55666 c 0.11,-0.0444 0.29,-0.0444 0.4,0 0.11,0.0444 0.02,0.0807 -0.2,0.0807 -0.22,0 -0.31,-0.0363 -0.2,-0.0807 z m 33.29,-14.08334 c 0.1155,-0.0462 0.2535,-0.0405 0.30667,0.0126 0.0532,0.0532 -0.0413,0.091 -0.21,0.084 -0.18639,-0.008 -0.22431,-0.0456 -0.0967,-0.0967 z m -48.48464,-1.76884 c 0.46495,-0.0324 1.18495,-0.0321 1.6,8e-4 0.41505,0.0328 0.0346,0.0594 -0.84536,0.0589 -0.88,-4.8e-4 -1.21959,-0.0273 -0.75464,-0.0597 z m -1.36232,-1.27274 c 0.15568,-0.0406 0.37168,-0.0379 0.48,0.006 0.10833,0.0438 -0.019,0.077 -0.28304,0.0738 -0.264,-0.003 -0.35263,-0.0391 -0.19696,-0.0797 z m 47.12696,-1.11842 c 0.1155,-0.0462 0.2535,-0.0405 0.30667,0.0126 0.0532,0.0532 -0.0413,0.091 -0.21,0.084 -0.18639,-0.008 -0.22431,-0.0456 -0.0967,-0.0967 z m -58.72,-0.48 c 0.1155,-0.0462 0.2535,-0.0405 0.30667,0.0126 0.0532,0.0532 -0.0413,0.091 -0.21,0.084 -0.18639,-0.008 -0.22431,-0.0456 -0.0967,-0.0967 z m 58.23,-2.71666 c 0.11,-0.0444 0.29,-0.0444 0.4,0 0.11,0.0444 0.02,0.0807 -0.2,0.0807 -0.22,0 -0.31,-0.0363 -0.2,-0.0807 z m -24.44,-1.87445 c 0,-0.0332 0.126,-0.15922 0.28,-0.28 0.25377,-0.19902 0.25943,-0.19336 0.0604,0.0604 -0.20902,0.26652 -0.34041,0.35128 -0.34041,0.21959 z m -57.03317,-0.88853 c -0.0506,-0.0819 -0.0309,-0.18676 0.0439,-0.23297 0.0748,-0.0462 0.13595,0.0208 0.13595,0.14895 0,0.26979 -0.0505,0.29336 -0.17984,0.084 z m 76.26436,-14.81106 c 0.003,-0.264 0.0391,-0.35263 0.0797,-0.19696 0.0406,0.15568 0.0379,0.37168 -0.006,0.48 -0.0438,0.10833 -0.077,-0.019 -0.0738,-0.28304 z m 0.0168,-1.36 c 0,-0.484 0.03,-0.682 0.0667,-0.44 0.0367,0.242 0.0367,0.638 0,0.88 -0.0367,0.242 -0.0667,0.044 -0.0667,-0.44 z m -1.26951,-3.44 c 4.8e-4,-0.88 0.0273,-1.21959 0.0597,-0.75464 0.0324,0.46495 0.0321,1.18495 -8e-4,1.6 -0.0328,0.41505 -0.0594,0.0346 -0.0589,-0.84536 z m -68.93161,0.73106 c -0.0506,-0.0819 -0.0309,-0.18676 0.0439,-0.23297 0.0748,-0.0462 0.13595,0.0208 0.13595,0.14895 0,0.26979 -0.0505,0.29336 -0.17984,0.084 z m 38.03317,-0.44135 c 0.154,-0.0403 0.406,-0.0403 0.56,0 0.154,0.0402 0.028,0.0732 -0.28,0.0732 -0.308,0 -0.434,-0.0329 -0.28,-0.0732 z m 23.81263,-1.26304 c 0.008,-0.18639 0.0456,-0.22431 0.0967,-0.0967 0.0462,0.1155 0.0405,0.2535 -0.0126,0.30667 -0.0532,0.0532 -0.091,-0.0413 -0.084,-0.21 z m -86.25263,-1.24708 c 0,-0.0332 0.126,-0.15922 0.28,-0.28 0.25377,-0.19902 0.25943,-0.19336 0.0604,0.0604 -0.20902,0.26652 -0.34041,0.35128 -0.34041,0.21959 z m 76.88,-1.05959 c 0.15928,-0.176 0.3256,-0.32 0.3696,-0.32 0.044,0 -0.0503,0.144 -0.2096,0.32 -0.15928,0.176 -0.3256,0.32 -0.3696,0.32 -0.044,0 0.0503,-0.144 0.2096,-0.32 z m 25.81959,-1.4 c -0.19902,-0.25377 -0.19336,-0.25943 0.0604,-0.0604 0.154,0.12078 0.28,0.24678 0.28,0.28 0,0.13169 -0.13139,0.0469 -0.34041,-0.21959 z m -1.44,-1.6 c -0.19902,-0.25377 -0.19336,-0.25943 0.0604,-0.0604 0.154,0.12078 0.28,0.24678 0.28,0.28 0,0.13169 -0.13139,0.0469 -0.34041,-0.21959 z m -93.60959,-1.4293 c 0.1155,-0.0462 0.2535,-0.0405 0.30667,0.0126 0.0532,0.0532 -0.0413,0.091 -0.21,0.084 -0.18639,-0.008 -0.22431,-0.0456 -0.0967,-0.0967 z m 5.90643,-2.72618 c 0.28404,-0.0353 0.78804,-0.0359 1.12,-0.001 0.33196,0.0346 0.0996,0.0636 -0.51643,0.0643 -0.616,6.4e-4 -0.88761,-0.0276 -0.60357,-0.063 z m 71.48196,-6.60713 c -0.0553,-0.0894 -0.17865,-0.11431 -0.27417,-0.0553 -0.10615,0.0656 -0.12742,0.0325 -0.0547,-0.0852 0.0911,-0.14739 0.17186,-0.14859 0.34472,-0.005 0.22644,0.18792 0.287,0.30817 0.1552,0.30817 -0.0388,0 -0.11578,-0.0732 -0.17105,-0.16261 z m -0.7388,-0.75739 c -0.19902,-0.25377 -0.19336,-0.25943 0.0604,-0.0604 0.154,0.12078 0.28,0.24678 0.28,0.28 0,0.13169 -0.13139,0.0469 -0.34041,-0.21959 z m -59.76626,-6.19296 c 0,-0.12813 0.0612,-0.19516 0.13595,-0.14895 0.0748,0.0462 0.0945,0.15105 0.0439,0.23297 -0.12938,0.20934 -0.17984,0.18577 -0.17984,-0.084 z m -8.98807,-28.08704 c 0,-0.22 0.0363,-0.31 0.0807,-0.2 0.0444,0.11 0.0444,0.29 0,0.4 -0.0444,0.11 -0.0807,0.02 -0.0807,-0.2 z m 0.14737,-2.01333 c 0.008,-0.18639 0.0456,-0.22431 0.0967,-0.0967 0.0462,0.1155 0.0405,0.2535 -0.0126,0.30667 -0.0532,0.0532 -0.091,-0.0413 -0.084,-0.21 z m 44.52222,-12.94667 c 6.4e-4,-0.704 0.0287,-0.9721 0.0625,-0.59577 0.0338,0.37633 0.0333,0.95233 -0.001,1.28 -0.0344,0.32767 -0.062,0.0198 -0.0615,-0.68423 z m 1.39778,-0.97333 c 0.008,-0.18639 0.0456,-0.22431 0.0967,-0.0967 0.0462,0.1155 0.0405,0.2535 -0.0126,0.30667 -0.0532,0.0532 -0.091,-0.0413 -0.084,-0.21 z m -0.45228,-6.38667 c 0.002,-0.352 0.0345,-0.47716 0.0728,-0.27813 0.0383,0.19902 0.0368,0.48702 -0.003,0.64 -0.0401,0.15297 -0.0714,-0.01 -0.0696,-0.36187 z m -0.93869,-2.96 c 0,-1.1 0.0256,-1.55 0.0568,-1 0.0312,0.55 0.0312,1.45 0,2 -0.0312,0.55 -0.0568,0.1 -0.0568,-1 z m 0.80652,-5.36 c 1.2e-4,-1.936 0.0232,-2.70601 0.0513,-1.71113 0.0281,0.99488 0.028,2.57888 -1.6e-4,3.52 -0.0282,0.94112 -0.0512,0.12713 -0.0511,-1.80887 z m -0.0555,-4.33333 c 0.008,-0.18639 0.0456,-0.22431 0.0967,-0.0967 0.0462,0.1155 0.0405,0.2535 -0.0126,0.30667 -0.0532,0.0532 -0.091,-0.0413 -0.084,-0.21 z m -27.75454,-13.05595 c 0.0462,-0.0748 0.15105,-0.0945 0.23297,-0.0439 0.20934,0.12938 0.18577,0.17984 -0.084,0.17984 -0.12813,0 -0.19516,-0.0612 -0.14895,-0.13595 z"
         id="path2992" /><path
         style="fill:#000000;fill-opacity:1;stroke-width:0.16"
         d="m -172.63019,-245.28526 c -9.49282,-0.77038 -15.25934,-1.85325 -22.64,-4.25148 -7.42697,-2.41328 -12.85138,-5.07631 -26.1064,-12.81657 -6.37219,-3.72103 -9.02627,-4.92374 -12.42406,-5.63 -2.30641,-0.47941 -5.28877,-0.20142 -6.92684,0.64566 -0.64511,0.33359 -1.55801,1.16129 -2.09016,1.89506 l -0.45254,0.624 v -0.56077 c 0,-0.30842 0.0739,-1.48923 0.16423,-2.624 0.64741,-8.13328 1.90528,-14.71618 3.94072,-20.62324 1.94553,-5.64614 5.00662,-8.0994 10.61505,-8.50723 2.22067,-0.16148 4.82877,0.49432 7.28,1.83055 1.27713,0.69619 3.15523,2.09023 3.04856,2.26282 -0.0468,0.0757 0.0113,0.12786 0.12925,0.1158 0.2884,-0.0295 5.31655,4.23095 5.24886,4.44747 -0.0293,0.0938 -0.003,0.12021 0.0586,0.0586 0.0616,-0.0616 0.62558,0.29625 1.25333,0.79516 0.62776,0.49891 1.21338,0.9622 1.30138,1.02954 0.088,0.0673 0.37665,0.29532 0.64145,0.50663 1.39563,1.11371 4.9122,3.29635 6.96503,4.323 7.77379,3.88778 15.33631,4.4254 23.71037,1.68557 1.05359,-0.34471 1.99832,-0.57948 2.09939,-0.52169 0.10107,0.0578 0.12999,0.0457 0.0643,-0.0267 -0.0657,-0.0725 0.54705,-0.42604 1.3617,-0.78566 4.01706,-1.77329 8.06261,-4.35999 10.8948,-6.96609 0.90394,-0.83178 3.06453,-3.05821 3.46373,-3.56928 0.18968,-0.24284 0.41289,-0.39949 0.49603,-0.34811 0.0831,0.0514 0.13136,0.0252 0.10718,-0.0581 -0.0692,-0.23849 1.99969,-2.90421 2.17155,-2.79799 0.0847,0.0523 0.10575,0.0172 0.0469,-0.0781 -0.0589,-0.0953 0.11787,-0.50652 0.39279,-0.91387 0.27492,-0.40736 0.46788,-0.77262 0.4288,-0.8117 -0.0391,-0.0391 -0.54851,0.42349 -1.13206,1.02794 -0.58355,0.60445 -1.11099,1.05454 -1.17211,1.00021 -0.0611,-0.0543 -0.0639,-0.0162 -0.006,0.0847 0.0996,0.1742 -2.36113,2.47045 -4.37356,4.08125 -4.94799,3.96052 -10.56237,6.73472 -16.32,8.0641 -7.78072,1.7965 -14.85176,0.89591 -22.32,-2.84275 -2.61613,-1.30966 -6.38616,-3.72955 -6.22263,-3.99415 0.0686,-0.11103 0.0406,-0.13716 -0.0723,-0.0674 -0.22251,0.13752 -2.62519,-1.63013 -2.49722,-1.8372 0.0488,-0.079 -0.005,-0.11057 -0.11953,-0.0701 -0.26091,0.092 -3.26769,-2.29824 -3.19498,-2.5399 0.0293,-0.0975 0.003,-0.12729 -0.0577,-0.0662 -0.0611,0.0611 -0.85487,-0.46316 -1.76398,-1.16497 -4.10917,-3.17216 -7.1386,-4.46608 -10.45633,-4.46608 -1.80145,0 -4.36844,0.58929 -6.00401,1.37832 -0.99018,0.47768 -1.03553,0.47583 -0.56687,-0.023 0.20912,-0.22259 0.4728,-0.36918 0.58597,-0.32575 0.11317,0.0434 0.18862,0.002 0.16768,-0.0913 -0.0525,-0.23461 1.67255,-1.4292 1.93023,-1.3367 0.11457,0.0411 0.17,0.0128 0.12318,-0.063 -0.21926,-0.35477 3.56052,-1.62414 5.738,-1.927 1.56522,-0.21771 4.8945,-0.22088 6.65471,-0.006 1.93483,0.23581 5.11584,1.03255 6.69823,1.67769 0.74546,0.30392 1.38395,0.52402 1.41886,0.48911 0.0935,-0.0935 -2.07857,-1.33617 -3.41464,-1.95347 -3.05372,-1.4109 -5.69703,-2.01769 -8.78665,-2.01704 -2.64312,4.8e-4 -4.4413,0.39256 -6.73815,1.4689 -0.76577,0.35885 -1.40856,0.6338 -1.42844,0.61101 -0.0199,-0.0228 0.13133,-0.73234 0.33602,-1.57676 0.41751,-1.72241 1.06035,-3.44362 1.62486,-4.35053 0.56511,-0.90789 1.49819,-1.88533 1.68785,-1.76811 0.092,0.0569 0.12144,0.0292 0.0654,-0.0615 -0.22113,-0.3578 2.0751,-1.58767 3.80037,-2.03551 5.08151,-1.31904 12.51411,-0.38428 20.47497,2.57503 1.99691,0.74231 2.63751,0.83918 1.63397,0.24707 -0.36325,-0.21432 -0.55107,-0.42339 -0.48148,-0.53598 0.0722,-0.11685 0.0436,-0.14103 -0.078,-0.0659 -0.11081,0.0685 -0.61211,-0.15027 -1.18472,-0.51699 -0.54595,-0.34963 -1.55157,-0.955 -2.23471,-1.34525 -0.68314,-0.39026 -1.18714,-0.77004 -1.12,-0.84395 0.0671,-0.0739 0.0332,-0.0833 -0.0754,-0.0209 -0.39195,0.22535 -5.92355,-2.937 -5.71831,-3.26909 0.0508,-0.0822 -0.005,-0.11223 -0.12314,-0.0668 -0.27507,0.10555 -2.53269,-2.21306 -3.53302,-3.62847 -1.5418,-2.18155 -3.02565,-5.87765 -3.84521,-9.5779 -1.24881,-5.63836 -1.39862,-13.21783 -0.4127,-20.88 2.20926,-17.16955 7.18108,-30.68566 14.59604,-39.68 0.65292,-0.792 1.26963,-1.422 1.37046,-1.4 0.10083,0.022 0.16532,-0.023 0.14332,-0.0999 -0.0678,-0.23702 1.00478,-1.31603 1.1927,-1.19989 0.1021,0.0631 0.13178,0.0365 0.0703,-0.0631 -0.11637,-0.18829 2.70087,-2.86256 2.94669,-2.79716 0.0827,0.022 0.15034,-0.0362 0.15034,-0.12944 0,-0.0932 0.0831,-0.11807 0.18472,-0.0553 0.10818,0.0669 0.14152,0.0443 0.0805,-0.0545 -0.0592,-0.0957 0.53069,-0.59123 1.36347,-1.14545 7.00433,-4.66143 16.14651,-6.57267 25.70878,-5.37462 7.5952,0.9516 15.69784,3.8898 23.12362,8.38514 2.68246,1.62389 8.01439,5.27205 7.88882,5.39762 -0.0281,0.0281 -0.29783,-0.0197 -0.59942,-0.10619 -1.345,-0.38574 -2.56021,-0.10114 -3.75758,0.88001 -0.36948,0.30277 -0.72858,0.49924 -0.79799,0.43661 -0.0694,-0.0626 -0.0771,-0.0282 -0.017,0.0765 0.06,0.10473 -0.0927,0.42873 -0.33943,0.72 -1.90362,2.2472 -3.37832,4.92264 -7.52365,13.64958 -2.23595,4.70721 -7.53852,16.50255 -8.50776,18.92513 -0.45756,1.14363 0.003,0.58095 1.11411,-1.36217 2.78606,-4.87077 6.12087,-10.27588 6.27947,-10.17786 0.0969,0.0599 0.12178,0.0282 0.0584,-0.0743 -0.1992,-0.32231 6.69549,-10.82251 6.98772,-10.6419 0.0927,0.0573 0.11378,0.0214 0.049,-0.0834 -0.14503,-0.23466 1.65643,-2.76922 1.87307,-2.63532 0.0883,0.0546 0.11449,0.0246 0.0581,-0.0666 -0.24876,-0.4025 3.76629,-4.84142 5.37129,-5.93835 0.86764,-0.59298 1.87669,-0.98526 2.53435,-0.98526 1.54026,0 2.1007,1.32541 2.08247,4.92498 -0.0121,2.37873 -0.23092,4.06404 -1.14628,8.82631 -0.34583,1.79921 -0.62878,3.37927 -0.62878,3.51125 0,0.13197 0.17863,0.4264 0.39696,0.65428 l 0.39695,0.41434 -0.3258,0.6585 c -0.17919,0.36218 -0.75603,1.06888 -1.28188,1.57045 -1.1718,1.1177 -1.60481,1.93224 -1.70754,3.21207 -0.0718,0.89436 -0.0454,1.00497 0.29686,1.2447 0.73871,0.51741 2.13501,0.24161 3.16513,-0.62518 0.27463,-0.23108 0.49932,-0.37488 0.49932,-0.31955 0,0.25826 -0.66834,1.37004 -0.91888,1.52856 -0.20107,0.12722 -0.22417,0.2018 -0.0811,0.26191 0.11,0.0462 0.2,0.15403 0.2,0.23957 0,0.25042 -1.60699,0.90003 -2.52,1.01868 -0.462,0.06 -0.84,0.13937 -0.84,0.17629 0,0.0369 0.36203,0.87617 0.80452,1.86499 0.83833,1.87342 2.27136,4.40876 3.072,5.43501 0.2611,0.33469 0.41492,0.6796 0.34996,0.78472 -0.0664,0.10737 -0.0471,0.14501 0.0451,0.088 0.17069,-0.10549 1.63926,1.60908 2.04563,2.38828 0.50963,0.97721 0.1814,2.19884 -0.86424,3.21658 -0.31513,0.30672 -1.30379,0.90791 -2.19703,1.33596 -0.89651,0.42962 -1.77457,0.9696 -1.96,1.20534 -0.4687,0.59585 -0.4222,1.30522 0.14407,2.19814 0.264,0.41629 0.48,0.86712 0.48,1.00185 0,0.4135 -0.32314,0.88029 -0.52803,0.76275 -0.10558,-0.0606 -0.13998,-0.0526 -0.0764,0.0177 0.0635,0.0703 -0.0625,0.33942 -0.28005,0.59799 -0.54111,0.64307 -0.63349,1.13337 -0.39827,2.11385 0.1755,0.73158 0.1662,0.90089 -0.0751,1.36749 -0.44247,0.85564 -1.28226,1.54655 -1.76213,1.44973 -0.088,-0.0177 -0.11214,0.0156 -0.0537,0.0741 0.0585,0.0585 -0.0675,0.36254 -0.28,0.67566 -0.44653,0.65799 -0.48017,1.2889 -0.14315,2.68466 0.30281,1.25408 0.29567,2.00919 -0.03,3.16977 -0.38261,1.3636 -1.51732,2.5047 -2.86373,2.87983 -1.82239,0.50776 -4.51212,0.33748 -9.6565,-0.61132 -1.66484,-0.30706 -3.09813,-0.55828 -3.18509,-0.55828 -0.14538,0 0.36461,1.8027 1.35795,4.8 0.85873,2.59113 2.38158,5.68848 3.6005,7.3231 0.34578,0.46371 0.58395,0.91549 0.52927,1.00397 -0.0547,0.0885 -0.0279,0.14107 0.0595,0.11689 0.23466,-0.0649 1.31864,1.1643 1.19836,1.35892 -0.0566,0.0916 -0.0323,0.12291 0.054,0.0695 0.1875,-0.11588 1.75176,1.14516 1.68851,1.3612 -0.0242,0.0826 0.0344,0.10175 0.13008,0.0426 0.0957,-0.0592 0.29863,0.005 0.45091,0.14299 0.15227,0.1378 1.01583,0.67749 1.91902,1.1993 0.90319,0.52181 1.58407,0.98032 1.51306,1.0189 -0.071,0.0386 -0.0383,0.0479 0.0728,0.0207 0.43496,-0.1066 6.1734,3.24453 8.31735,4.85717 4.71389,3.54569 8.27405,9.37339 11.51231,18.84476 1.92641,5.63441 4.03146,14.17657 4.90891,19.92 0.47693,3.1218 0.90605,7.18313 0.88347,8.36146 l -0.0161,0.83854 -0.22109,-1.04 c -1.31938,-6.20637 -3.03549,-10.7613 -5.41794,-14.38048 -0.48533,-0.73726 -0.83674,-1.41438 -0.78091,-1.50472 0.0558,-0.0903 0.0263,-0.11774 -0.0657,-0.0609 -0.16697,0.10319 -0.78518,-0.66668 -0.7178,-0.89391 0.0196,-0.066 -0.0184,-0.10792 -0.0844,-0.0932 -0.18847,0.0421 -3.15492,-2.96787 -3.10128,-3.14683 0.0264,-0.088 -0.004,-0.10813 -0.0673,-0.0447 -0.20532,0.20532 -1.57719,-0.86725 -1.38377,-1.08187 0.0618,-0.0686 0.036,-0.0813 -0.0573,-0.0283 -0.25703,0.14596 -1.25647,-0.76857 -1.106,-1.01204 0.0786,-0.12722 0.0605,-0.16255 -0.0486,-0.0951 -0.20996,0.12976 -0.70294,-0.52439 -0.56428,-0.74876 0.0539,-0.0872 0.0186,-0.10953 -0.0785,-0.0495 -0.23569,0.14567 -1.2065,-1.91731 -1.53403,-3.25979 -0.13956,-0.57205 -0.40262,-2.01205 -0.58458,-3.2 -0.40601,-2.65075 -0.83828,-4.66239 -1.33966,-6.2343 -0.47696,-1.49535 -0.77656,-1.67485 -0.48892,-0.29293 0.64031,3.07629 0.71988,8.68039 0.16311,11.48733 -0.59547,3.002 -1.50105,5.32874 -2.60151,6.68412 -0.64943,0.79988 -2.87002,2.49015 -3.09155,2.35324 -0.0839,-0.0518 -0.10932,0.0174 -0.0568,0.15433 0.0869,0.22637 -0.0957,0.32846 -0.47084,0.26329 -0.0725,-0.0126 -0.0928,0.0404 -0.0449,0.1178 0.11954,0.19342 -0.6144,0.85967 -0.7807,0.70868 -0.0736,-0.0668 -0.0858,-0.0376 -0.0271,0.065 0.0587,0.10255 -0.0612,0.39055 -0.26645,0.64 -0.68926,0.83774 -1.42069,1.99517 -1.32272,2.09313 0.0534,0.0534 0.31234,-0.10913 0.57542,-0.36118 0.26308,-0.25205 0.47833,-0.41995 0.47833,-0.37311 0,0.0468 0.28464,-0.18561 0.63254,-0.51656 1.26921,-1.20737 2.99472,-2.16608 5.04746,-2.80441 0.75577,-0.23502 1.47056,-0.29886 3.36,-0.3001 2.29843,-10e-4 2.46341,0.0205 3.89838,0.52021 2.14711,0.7477 4.81256,2.38191 4.55766,2.79434 -0.058,0.0939 -0.0318,0.12514 0.0583,0.0695 0.55043,-0.34019 4.63549,5.40579 4.26704,6.00196 -0.0639,0.10343 -0.039,0.13487 0.0589,0.0743 0.30518,-0.18861 1.63553,3.30313 2.44841,6.42626 0.65017,2.49802 0.57709,2.86133 -0.1507,0.74919 -1.47677,-4.28575 -2.94047,-6.83535 -5.28164,-9.2 -0.74058,-0.748 -1.32922,-1.432 -1.30809,-1.52 0.0211,-0.088 -0.0111,-0.11054 -0.0715,-0.0501 -0.0605,0.0604 -0.52702,-0.1748 -1.03681,-0.52278 -2.24005,-1.52904 -4.51699,-2.26625 -7.03994,-2.27933 -4.62705,-0.024 -7.39918,1.5669 -11.10872,6.3751 -1.34195,1.7394 -2.93058,3.54936 -4.01128,4.57014 -1.11791,1.05593 -2.78383,2.25583 -2.97118,2.14004 -0.0862,-0.0533 -0.13696,-0.007 -0.11278,0.10205 0.066,0.29846 -4.1703,2.39075 -6.19604,3.06021 -0.968,0.3199 -2.912,0.84629 -4.32,1.16974 -2.99549,0.68815 -3.5063,0.95677 -1.52,0.79933 7.34753,-0.58238 14.61456,-3.19224 19.72007,-7.08221 0.51864,-0.39516 1.00063,-0.65122 1.10472,-0.58689 0.10816,0.0668 0.14144,0.0442 0.0803,-0.0546 -0.0584,-0.0945 0.5818,-0.68143 1.45528,-1.33409 0.85778,-0.64092 1.75174,-1.33996 1.98659,-1.55342 0.25467,-0.23148 0.50679,-0.3388 0.62472,-0.26592 0.11687,0.0722 0.15697,0.0563 0.0981,-0.039 -0.25702,-0.41586 3.18518,-2.28097 5.12563,-2.77726 1.46703,-0.3752 3.74312,-0.40852 5.00458,-0.0733 1.39522,0.3708 3.03887,1.26586 4.11812,2.24252 1.68002,1.52033 3.29782,4.31356 4.03124,6.9602 0.17064,0.61578 0.28277,1.1196 0.24917,1.1196 -0.0336,0 -0.32519,-0.50261 -0.648,-1.11691 -1.30687,-2.48697 -3.83875,-4.74213 -6.11248,-5.44441 -1.95523,-0.60391 -4.30327,-0.41651 -6.51188,0.51974 -0.61939,0.26256 -1.24688,0.48476 -1.39442,0.49377 -0.14754,0.009 -0.24047,0.0613 -0.20651,0.11629 0.034,0.055 -0.22096,0.2588 -0.5665,0.453 -0.34553,0.1942 -0.99767,0.6017 -1.44918,0.90555 -0.45152,0.30385 -0.89701,0.50545 -0.98998,0.44799 -0.0939,-0.0581 -0.12232,-0.0289 -0.0639,0.0657 0.061,0.0987 -0.88514,0.83494 -2.25528,1.75477 -7.03742,4.72455 -12.24751,6.65033 -20.91557,7.73094 -2.44876,0.30528 -7.58674,0.51277 -9.28484,0.37496 z m 5.6,-6.92312 c 2.2774,-0.38563 4.25945,-0.94035 6.14455,-1.71968 1.49597,-0.61846 3.89008,-1.97389 4.87451,-2.75971 0.34048,-0.27178 0.68427,-0.45386 0.76396,-0.4046 0.0797,0.0493 0.12684,0.0302 0.10475,-0.0423 -0.0525,-0.17232 3.5918,-3.81658 3.76412,-3.76412 0.0725,0.0221 0.096,-0.0179 0.0522,-0.0888 -0.10579,-0.17116 1.49194,-2.21148 1.68753,-2.15498 0.0837,0.0242 0.11205,-0.021 0.063,-0.10034 -0.049,-0.0794 0.26196,-0.67515 0.69114,-1.32396 3.27509,-4.95111 5.87322,-11.46413 6.88512,-17.25966 0.70771,-4.05332 0.77547,-7.41998 0.22973,-11.41372 -0.22916,-1.67706 -0.87771,-4.49673 -1.08105,-4.70007 -0.2279,-0.22791 -0.25568,0.13249 -0.0963,1.24993 0.22898,1.6058 0.16135,8.19572 -0.10247,9.98386 -1.07005,7.25283 -3.58573,14.92523 -6.68887,20.4 -0.47385,0.836 -0.94572,1.50022 -1.0486,1.47604 -0.10287,-0.0242 -0.13829,0.0349 -0.0787,0.13135 0.13876,0.22452 -1.64397,2.91659 -1.84793,2.79053 -0.0841,-0.052 -0.11654,4.8e-4 -0.072,0.11645 0.1072,0.27935 -2.12661,2.58464 -3.44463,3.55486 -2.66645,1.96281 -6.05664,3.13693 -10.68712,3.70124 -2.89178,0.35242 -8.57449,0.24035 -11.64831,-0.22971 -3.60992,-0.55204 -7.42231,-1.46982 -11.15489,-2.68536 -3.96392,-1.29089 -9.47331,-3.63064 -9.28115,-3.94156 0.059,-0.0954 0.0215,-0.11423 -0.0901,-0.0452 -0.26937,0.16648 -2.62215,-0.98839 -2.48051,-1.21757 0.0691,-0.11175 0.0396,-0.13604 -0.0773,-0.0638 -0.22575,0.13952 -2.39867,-1.00097 -5.70054,-2.99202 -3.10748,-1.87382 -3.46238,-2.11709 -3.31915,-2.27513 0.0655,-0.0723 0.0341,-0.0827 -0.07,-0.0231 -0.23657,0.13556 -2.4637,-1.34689 -2.33538,-1.55452 0.0517,-0.0836 0.02,-0.10631 -0.0703,-0.0505 -0.1657,0.10241 -1.67245,-0.89222 -3.53823,-2.33566 -0.55715,-0.43104 -1.05635,-0.74036 -1.10933,-0.68738 -0.11614,0.11614 -0.16585,0.0712 1.72234,1.557 5.32328,4.18882 11.213,8.21933 15.75377,10.78077 8.20236,4.62694 16.95912,7.7064 23.68623,8.32965 0.616,0.0571 1.15401,0.13473 1.19557,0.17257 0.22026,0.20054 6.65017,-0.11373 8.40443,-0.41078 z m -10.88,-11.86075 c 4.88465,-0.45036 9.30866,-1.96063 13.37128,-4.5647 0.61896,-0.39674 1.19542,-0.67807 1.28102,-0.62517 0.0856,0.0529 0.13584,0.0312 0.11166,-0.0483 -0.052,-0.17103 3.16117,-2.76857 3.30052,-2.66812 0.0525,0.0379 0.0622,0.0235 0.0215,-0.0318 -0.0407,-0.0554 0.5415,-0.75738 1.29382,-1.56 0.75231,-0.80262 1.73057,-1.94403 2.1739,-2.53646 0.44334,-0.59244 0.88024,-1.03131 0.9709,-0.97528 0.0907,0.0561 0.11702,0.0245 0.0585,-0.0702 -0.0585,-0.0946 0.29625,-0.80776 0.78831,-1.58472 3.18035,-5.02172 4.8654,-10.72545 4.8606,-16.45265 -0.002,-2.21162 -0.19599,-2.42866 -0.37381,-0.4179 -0.42584,4.8152 -3.25823,11.27967 -7.16897,16.362 -1.37431,1.78602 -5.32995,5.80378 -5.56875,5.65619 -0.0926,-0.0572 -0.14862,-0.0355 -0.12444,0.0484 0.0632,0.21933 -1.80906,1.64214 -2.00311,1.52221 -0.0893,-0.0552 -0.11535,-0.0243 -0.0579,0.0687 0.21723,0.35148 -4.35332,3.05074 -7.33505,4.33191 -6.16907,2.65069 -13.73648,3.06976 -20.52333,1.13656 -1.822,-0.51899 -1.93129,-0.53872 -1.69931,-0.30674 0.25692,0.25692 3.20443,1.2133 5.36268,1.74004 4.03885,0.98572 7.70672,1.30366 11.25996,0.97607 z m 5.91496,-27.68448 c 3.49047,-0.39985 5.96229,-1.65608 8.41761,-4.27802 1.35186,-1.44359 2.94141,-3.65036 2.72551,-3.7838 -0.0795,-0.0491 -0.18148,0.007 -0.22661,0.12451 -0.14505,0.378 -2.4939,2.03929 -4.01694,2.84109 -3.00122,1.57999 -6.35197,2.38323 -9.94177,2.38323 -4.00294,0 -7.29259,-0.93555 -10.19095,-2.89823 -1.08772,-0.73657 -1.30076,-0.78782 -0.7095,-0.17068 0.23769,0.24811 0.37716,0.51165 0.30993,0.58566 -0.0672,0.074 -0.0375,0.086 0.066,0.0267 0.10648,-0.061 0.59287,0.24655 1.12,0.70816 2.8929,2.53337 6.5697,4.17456 10.13178,4.52245 0.308,0.0301 0.632,0.0656 0.72,0.079 0.088,0.0134 0.80573,-0.0497 1.59496,-0.14009 z m -39.36179,-24.14193 c 0.0506,-0.0819 0.0309,-0.18676 -0.0439,-0.23297 -0.0748,-0.0462 -0.13595,0.0208 -0.13595,0.14895 0,0.26979 0.0505,0.29336 0.17984,0.084 z m 37.60776,-7.99249 c -0.41898,-0.81122 -0.69541,-1.53041 -0.62933,-1.63734 0.0668,-0.10803 0.05,-0.14873 -0.0387,-0.0939 -0.0861,0.0532 -1.24924,-2.10902 -2.58472,-4.805 -1.33548,-2.69597 -2.42815,-4.78736 -2.42815,-4.64753 0,0.77071 2.00684,5.82203 3.16451,7.96521 1.10157,2.03935 3.02719,4.90164 3.18884,4.73998 0.0411,-0.0411 -0.26148,-0.72574 -0.67242,-1.52141 z m 3.38041,-5.73857 c -0.0548,-0.33 -0.27496,-1.608 -0.48934,-2.84 -0.21438,-1.232 -0.72054,-4.724 -1.1248,-7.76 -0.40427,-3.036 -0.84101,-6.312 -0.97055,-7.28 -0.80777,-6.03628 -1.61901,-13.8673 -1.83981,-17.76 -0.0799,-1.408 -0.14782,-5.242 -0.15102,-8.52 -0.007,-7.06043 -0.15417,-7.6652 -0.65263,-2.68 -0.088,0.88 -0.2042,4.84 -0.25825,8.8 -0.24093,17.65323 1.01773,27.6977 4.59305,36.65388 0.27799,0.69636 0.56814,1.42812 0.64477,1.62612 0.21697,0.56064 0.35872,0.42377 0.24858,-0.24 z m 50.15129,78.90667 c 0.008,-0.18639 0.0456,-0.22431 0.0967,-0.0967 0.0462,0.1155 0.0405,0.2535 -0.0126,0.30667 -0.0532,0.0532 -0.091,-0.0413 -0.084,-0.21 z m -101.68901,-64.33666 c 0.19398,-0.86351 0.61888,-3.01001 0.94422,-4.77001 0.32535,-1.76 0.62905,-3.308 0.67488,-3.44 0.0468,-0.13473 0.31139,0.35652 0.60329,1.12 0.91723,2.3991 1.51609,3.73635 2.25002,5.02422 0.39426,0.69183 0.67132,1.33153 0.61568,1.42155 -0.0556,0.09 -0.036,0.12484 0.0436,0.0774 0.0796,-0.0475 0.47625,0.35724 0.88144,0.89932 l 0.73673,0.98561 -2.49673,-0.004 c -1.37319,-0.002 -2.97126,0.0545 -3.55125,0.12597 l -1.05454,0.13 0.35269,-1.57 z"
         id="path2990" /></g></g></svg>
