<?xml version="1.0" encoding="UTF-8" standalone="no"?>
<!-- Created with Inkscape (http://www.inkscape.org/) -->

<svg
   version="1.1"
   id="svg1"
   width="110.72727"
   height="156.77943"
   viewBox="0 0 110.72727 156.77943"
   sodipodi:docname="womanav16.svg"
   inkscape:version="1.2.2 (732a01da63, 2022-12-09)"
   xml:space="preserve"
   xmlns:inkscape="http://www.inkscape.org/namespaces/inkscape"
   xmlns:sodipodi="http://sodipodi.sourceforge.net/DTD/sodipodi-0.dtd"
   xmlns="http://www.w3.org/2000/svg"
   xmlns:svg="http://www.w3.org/2000/svg"><defs
     id="defs1" /><sodipodi:namedview
     id="namedview1"
     pagecolor="#ffffff"
     bordercolor="#cccccc"
     borderopacity="1"
     inkscape:showpageshadow="0"
     inkscape:pageopacity="1"
     inkscape:pagecheckerboard="0"
     inkscape:deskcolor="#d1d1d1"
     showgrid="false"
     inkscape:zoom="0.35355339"
     inkscape:cx="63.63961"
     inkscape:cy="8.4852813"
     inkscape:window-width="1366"
     inkscape:window-height="705"
     inkscape:window-x="-8"
     inkscape:window-y="32"
     inkscape:window-maximized="1"
     inkscape:current-layer="g1" /><g
     inkscape:groupmode="layer"
     inkscape:label="Image"
     id="g1"
     transform="translate(509.10038,354.5996)"><g
       id="g3678"
       transform="translate(-540.48631,17.780108)"><path
         style="fill:#d0d0d0;fill-opacity:1;stroke-width:0.16"
         d="m 56.051352,-252.94086 c 0,-0.0332 0.126,-0.15922 0.28,-0.28 0.25377,-0.19902 0.259429,-0.19336 0.06041,0.0604 -0.20902,0.26652 -0.34041,0.35128 -0.34041,0.21959 z m 85.772628,-0.99292 c 0.008,-0.18639 0.0456,-0.22431 0.0967,-0.0967 0.0462,0.1155 0.0405,0.2535 -0.0126,0.30667 -0.0532,0.0532 -0.091,-0.0413 -0.084,-0.21 z m -79.372628,-6.52708 c 0,-0.0332 0.126,-0.15922 0.28,-0.28 0.25377,-0.19902 0.259429,-0.19336 0.06041,0.0604 -0.20902,0.26652 -0.34041,0.35128 -0.34041,0.21959 z m 14.24,-2.81959 c 0,-0.176 0.0276,-0.32 0.06134,-0.32 0.03374,0 0.099,0.144 0.145021,0.32 0.04603,0.176 0.01842,0.32 -0.06134,0.32 -0.07976,0 -0.145021,-0.144 -0.145021,-0.32 z m 5.6,-10.94041 c 0,-0.0332 0.126,-0.15922 0.28,-0.28 0.25377,-0.19902 0.259429,-0.19336 0.06041,0.0604 -0.20902,0.26652 -0.34041,0.35128 -0.34041,0.21959 z m 0.64,-0.64 c 0,-0.0332 0.126,-0.15922 0.28,-0.28 0.25377,-0.19902 0.259429,-0.19336 0.06041,0.0604 -0.20902,0.26652 -0.34041,0.35128 -0.34041,0.21959 z m 1.12,-1.13959 c 0.20668,-0.22 0.411781,-0.4 0.455781,-0.4 0.044,0 -0.0891,0.18 -0.295781,0.4 -0.20668,0.22 -0.411781,0.4 -0.455781,0.4 -0.044,0 0.0891,-0.18 0.295781,-0.4 z m -17,-12.02596 c 0.11,-0.0444 0.29,-0.0444 0.4,0 0.11,0.0444 0.02,0.0807 -0.2,0.0807 -0.22,0 -0.31,-0.0363 -0.2,-0.0807 z m 15.453333,-1.727 c 0,-0.12813 0.06117,-0.19516 0.135944,-0.14895 0.07477,0.0462 0.09452,0.15105 0.04389,0.23297 -0.129379,0.20934 -0.179833,0.18577 -0.179833,-0.084 z m 15.146667,-0.94745 c 0,-0.0332 0.126,-0.15922 0.28,-0.28 0.25377,-0.19902 0.259429,-0.19336 0.06041,0.0604 -0.20902,0.26652 -0.34041,0.35128 -0.34041,0.21959 z m -4.4,-0.89959 c 0.159278,-0.176 0.325597,-0.32 0.369597,-0.32 0.044,0 -0.05032,0.144 -0.209597,0.32 -0.159278,0.176 -0.325597,0.32 -0.369597,0.32 -0.044,0 0.05032,-0.144 0.209597,-0.32 z m 20.658098,-4.02928 c 0.0462,-0.0748 0.15104,-0.0945 0.23296,-0.0439 0.20934,0.12938 0.18577,0.17984 -0.084,0.17984 -0.12813,0 -0.19515,-0.0612 -0.14894,-0.13595 z m -61.258098,-8.07668 c 0.11,-0.0444 0.29,-0.0444 0.4,0 0.11,0.0444 0.02,0.0807 -0.2,0.0807 -0.22,0 -0.31,-0.0363 -0.2,-0.0807 z m 24.01959,-14.73404 c -0.199019,-0.25377 -0.19336,-0.25943 0.06041,-0.0604 0.26652,0.20902 0.351277,0.34041 0.21959,0.34041 -0.03322,0 -0.159224,-0.126 -0.28,-0.28 z m 57.005668,-3.4 c 0,-0.22 0.0363,-0.31 0.0807,-0.2 0.0444,0.11 0.0444,0.29 0,0.4 -0.0444,0.11 -0.0807,0.02 -0.0807,-0.2 z m 0.0227,-1.28 c 0,-0.484 0.03,-0.682 0.0667,-0.44 0.0367,0.242 0.0367,0.638 0,0.88 -0.0367,0.242 -0.0667,0.044 -0.0667,-0.44 z m -39.02629,-16.64 c 0,-1.1 0.02556,-1.55 0.05681,-1 0.03124,0.55 0.03124,1.45 0,2 -0.03124,0.55 -0.05681,0.1 -0.05681,-1 z m 10.03097,0.0667 c 0.008,-0.18639 0.0456,-0.22431 0.0967,-0.0967 0.0462,0.1155 0.0405,0.2535 -0.0126,0.30667 -0.0532,0.0532 -0.091,-0.0413 -0.084,-0.21 z m 0.0126,-1.02667 c 0,-0.22 0.0363,-0.31 0.0807,-0.2 0.0444,0.11 0.0444,0.29 0,0.4 -0.0444,0.11 -0.0807,0.02 -0.0807,-0.2 z m -10.559996,-1.44 c 0,-0.22 0.03632,-0.31 0.0807,-0.2 0.04438,0.11 0.04438,0.29 0,0.4 -0.04439,0.11 -0.0807,0.02 -0.0807,-0.2 z m -56.215262,-1.2293 c 0.1155,-0.0462 0.2535,-0.0405 0.306667,0.0126 0.05317,0.0532 -0.04133,0.091 -0.21,0.084 -0.186391,-0.008 -0.224304,-0.0456 -0.09667,-0.0967 z m 66.762628,-0.30403 c 0.008,-0.18639 0.0456,-0.22431 0.0967,-0.0967 0.0462,0.1155 0.0405,0.2535 -0.0126,0.30667 -0.0532,0.0532 -0.091,-0.0413 -0.084,-0.21 z"
         id="path3694" /><path
         style="fill:#b9b9b9;fill-opacity:1;stroke-width:0.16"
         d="m 49.996614,-244.88045 c 0,-0.22 0.03632,-0.31 0.0807,-0.2 0.04438,0.11 0.04438,0.29 0,0.4 -0.04439,0.11 -0.0807,0.02 -0.0807,-0.2 z m 31.654738,-25.02041 c 0,-0.0332 0.126,-0.15922 0.28,-0.28 0.25377,-0.19902 0.259429,-0.19336 0.06041,0.0604 -0.20902,0.26652 -0.34041,0.35128 -0.34041,0.21959 z m -6.067368,-14.59292 c 0.0077,-0.18639 0.04559,-0.22431 0.09667,-0.0967 0.04622,0.1155 0.04054,0.2535 -0.01262,0.30667 -0.05317,0.0532 -0.09098,-0.0413 -0.08404,-0.21 z m 34.707366,-7.00708 c 0,-0.0332 0.126,-0.15922 0.28,-0.28 0.25377,-0.19902 0.25943,-0.19336 0.0604,0.0604 -0.20902,0.26652 -0.34041,0.35128 -0.34041,0.21959 z m -28.787366,-10.11292 c 0.0077,-0.18639 0.04559,-0.22431 0.09667,-0.0967 0.04622,0.1155 0.04054,0.2535 -0.01262,0.30667 -0.05317,0.0532 -0.09098,-0.0413 -0.08404,-0.21 z m -36.513041,-28.50667 c -0.199019,-0.25377 -0.19336,-0.25943 0.06041,-0.0604 0.154,0.12078 0.28,0.24678 0.28,0.28 0,0.13169 -0.13139,0.0469 -0.340409,-0.21959 z m 59.553037,-6.53333 c 0.008,-0.18639 0.0456,-0.22431 0.0967,-0.0967 0.0462,0.1155 0.0405,0.2535 -0.0126,0.30667 -0.0532,0.0532 -0.091,-0.0413 -0.084,-0.21 z m -10.559996,-3.68 c 0.0077,-0.18639 0.04559,-0.22431 0.09667,-0.0967 0.04622,0.1155 0.04054,0.2535 -0.01262,0.30667 -0.05317,0.0532 -0.09098,-0.0413 -0.08404,-0.21 z m 7.704486,-3.42667 c 0,-0.308 0.0329,-0.434 0.0732,-0.28 0.0403,0.154 0.0403,0.406 0,0.56 -0.0402,0.154 -0.0732,0.028 -0.0732,-0.28 z m -7.224486,-1.53333 c 0.0077,-0.18639 0.04559,-0.22431 0.09667,-0.0967 0.04622,0.1155 0.04054,0.2535 -0.01262,0.30667 -0.05317,0.0532 -0.09098,-0.0413 -0.08404,-0.21 z m 10.079996,-2.72 c 0.008,-0.18639 0.0456,-0.22431 0.0967,-0.0967 0.0462,0.1155 0.0405,0.2535 -0.0126,0.30667 -0.0532,0.0532 -0.091,-0.0413 -0.084,-0.21 z m -2.85551,-3.42667 c 0,-0.308 0.0329,-0.434 0.0732,-0.28 0.0403,0.154 0.0403,0.406 0,0.56 -0.0402,0.154 -0.0732,0.028 -0.0732,-0.28 z"
         id="path3692" /><path
         style="fill:#a3a3a3;fill-opacity:1;stroke-width:0.16"
         d="m 142.00847,-241.04045 c 0,-0.308 0.0329,-0.434 0.0732,-0.28 0.0403,0.154 0.0403,0.406 0,0.56 -0.0402,0.154 -0.0732,0.028 -0.0732,-0.28 z m -92.024486,-3.29333 c 0.0077,-0.18639 0.04559,-0.22431 0.09667,-0.0967 0.04622,0.1155 0.04054,0.2535 -0.01262,0.30667 -0.05317,0.0532 -0.09098,-0.0413 -0.08404,-0.21 z m 91.999996,-6.56 c 0.008,-0.18639 0.0456,-0.22431 0.0967,-0.0967 0.0462,0.1155 0.0405,0.2535 -0.0126,0.30667 -0.0532,0.0532 -0.091,-0.0413 -0.084,-0.21 z m -14.91304,-17.78667 c -0.19902,-0.25377 -0.19336,-0.25943 0.0604,-0.0604 0.154,0.12078 0.28,0.24678 0.28,0.28 0,0.13169 -0.13139,0.0469 -0.34041,-0.21959 z m -43.819588,-2.82041 c 0,-0.0332 0.126,-0.15922 0.28,-0.28 0.25377,-0.19902 0.259429,-0.19336 0.06041,0.0604 -0.20902,0.26652 -0.34041,0.35128 -0.34041,0.21959 z m -10.463518,-0.55292 c -0.04532,-0.0733 0.01926,-0.13334 0.143518,-0.13334 0.124258,0 0.188842,0.06 0.143518,0.13334 -0.04532,0.0733 -0.109905,0.13333 -0.143518,0.13333 -0.03361,0 -0.0982,-0.06 -0.143518,-0.13333 z m 57.045646,-1.2 c -0.1323,-0.15942 -0.12377,-0.21334 0.0337,-0.21334 0.11593,0 0.21079,0.096 0.21079,0.21334 0,0.11733 -0.0152,0.21333 -0.0337,0.21333 -0.0186,0 -0.11342,-0.096 -0.2108,-0.21333 z m -77.916866,-42.98667 c 0,-0.22 0.03632,-0.31 0.0807,-0.2 0.04438,0.11 0.04438,0.29 0,0.4 -0.04439,0.11 -0.0807,0.02 -0.0807,-0.2 z m -2.765672,-6.84 c -0.199019,-0.25377 -0.19336,-0.25943 0.06041,-0.0604 0.154,0.12078 0.28,0.24678 0.28,0.28 0,0.13169 -0.13139,0.0469 -0.34041,-0.21959 z m 55.565668,-15.88 c 0,-0.22 0.0363,-0.31 0.0807,-0.2 0.0444,0.11 0.0444,0.29 0,0.4 -0.0444,0.11 -0.0807,0.02 -0.0807,-0.2 z m 0,-6.72 c 0,-0.22 0.0363,-0.31 0.0807,-0.2 0.0444,0.11 0.0444,0.29 0,0.4 -0.0444,0.11 -0.0807,0.02 -0.0807,-0.2 z m -10.399996,-0.8 c 0,-0.22 0.03632,-0.31 0.0807,-0.2 0.04439,0.11 0.04439,0.29 0,0.4 -0.04439,0.11 -0.0807,0.02 -0.0807,-0.2 z m -45.305262,-8.38041 c 0,-0.0332 0.126,-0.15922 0.28,-0.28 0.25377,-0.19902 0.259429,-0.19336 0.06041,0.0604 -0.20902,0.26652 -0.34041,0.35128 -0.34041,0.21959 z"
         id="path3690" /><path
         style="fill:#8c8c8c;fill-opacity:1;stroke-width:0.16"
         d="m 141.82398,-238.73378 c 0.008,-0.18639 0.0456,-0.22431 0.0967,-0.0967 0.0462,0.1155 0.0405,0.2535 -0.0126,0.30667 -0.0532,0.0532 -0.091,-0.0413 -0.084,-0.21 z m -103.321416,-5.34667 c 0,-0.572 0.02904,-0.806 0.06453,-0.52 0.03549,0.286 0.03549,0.754 0,1.04 -0.03549,0.286 -0.06453,0.052 -0.06453,-0.52 z m -0.0076,-2.56 c 0,-0.396 0.0312,-0.558 0.06934,-0.36 0.03814,0.198 0.03814,0.522 0,0.72 -0.03814,0.198 -0.06934,0.036 -0.06934,-0.36 z m 103.329046,-6.49333 c 0.008,-0.18639 0.0456,-0.22431 0.0967,-0.0967 0.0462,0.1155 0.0405,0.2535 -0.0126,0.30667 -0.0532,0.0532 -0.091,-0.0413 -0.084,-0.21 z m -84.652624,-1.08708 c 0,-0.0332 0.126,-0.15922 0.28,-0.28 0.25377,-0.19902 0.259429,-0.19336 0.06041,0.0604 -0.20902,0.26652 -0.34041,0.35128 -0.34041,0.21959 z m 68.939584,-15.41959 c -0.19902,-0.25377 -0.19336,-0.25943 0.0604,-0.0604 0.154,0.12078 0.28,0.24678 0.28,0.28 0,0.13169 -0.13139,0.0469 -0.34041,-0.21959 z m -0.71479,-0.72 -0.3048,-0.36 0.36,0.3048 c 0.33831,0.28643 0.43284,0.4152 0.3048,0.4152 -0.0304,0 -0.19236,-0.162 -0.36,-0.36 z m -43.104794,-0.18041 c 0,-0.0332 0.126,-0.15922 0.28,-0.28 0.25377,-0.19902 0.259429,-0.19336 0.06041,0.0604 -0.20902,0.26652 -0.34041,0.35128 -0.34041,0.21959 z m 1.44,-1.44 c 0,-0.0332 0.126,-0.15922 0.28,-0.28 0.25377,-0.19902 0.259429,-0.19336 0.06041,0.0604 -0.20902,0.26652 -0.34041,0.35128 -0.34041,0.21959 z m 10.923578,-65.21959 c 0,-0.396 0.0312,-0.558 0.06934,-0.36 0.03814,0.198 0.03814,0.522 0,0.72 -0.03814,0.198 -0.06934,0.036 -0.06934,-0.36 z m -0.0032,-5.36 c 0.0018,-0.352 0.03454,-0.47716 0.07281,-0.27813 0.03827,0.19902 0.03682,0.48702 -0.0032,0.64 -0.04005,0.15297 -0.07136,-0.01 -0.06958,-0.36187 z m -0.489157,-0.48 c 0.0033,-0.264 0.03912,-0.35263 0.07969,-0.19696 0.04057,0.15568 0.0379,0.37168 -0.0059,0.48 -0.04383,0.10833 -0.07702,-0.019 -0.07376,-0.28304 z m -41.951189,-14.86041 c 0,-0.0332 0.126,-0.15922 0.28,-0.28 0.25377,-0.19902 0.259429,-0.19336 0.06041,0.0604 -0.20902,0.26652 -0.34041,0.35128 -0.34041,0.21959 z"
         id="path3688" /><path
         style="fill:#767676;fill-opacity:1;stroke-width:0.16"
         d="m 52.670942,-240.84045 c -0.199019,-0.25377 -0.19336,-0.25943 0.06041,-0.0604 0.26652,0.20902 0.351277,0.34041 0.21959,0.34041 -0.03322,0 -0.159224,-0.126 -0.28,-0.28 z m -2.686958,-4.93333 c 0.0077,-0.18639 0.04559,-0.22431 0.09667,-0.0967 0.04622,0.1155 0.04054,0.2535 -0.01262,0.30667 -0.05317,0.0532 -0.09098,-0.0413 -0.08404,-0.21 z m 14.24,-15.04 c 0.0077,-0.18639 0.04559,-0.22431 0.09667,-0.0967 0.04622,0.1155 0.04054,0.2535 -0.01262,0.30667 -0.05317,0.0532 -0.09098,-0.0413 -0.08404,-0.21 z m 63.806956,-9.46667 c -0.19902,-0.25377 -0.19336,-0.25943 0.0604,-0.0604 0.154,0.12078 0.28,0.24678 0.28,0.28 0,0.13169 -0.13139,0.0469 -0.34041,-0.21959 z m -54.699588,-2.18041 c 0,-0.0332 0.126,-0.15922 0.28,-0.28 0.25377,-0.19902 0.259429,-0.19336 0.06041,0.0604 -0.20902,0.26652 -0.34041,0.35128 -0.34041,0.21959 z m 1.36,-1.37959 c 0.159278,-0.176 0.325597,-0.32 0.369597,-0.32 0.044,0 -0.05032,0.144 -0.209597,0.32 -0.159278,0.176 -0.325597,0.32 -0.369597,0.32 -0.044,0 0.05032,-0.144 0.209597,-0.32 z m 0.927946,-9.44 c 0,-0.484 0.02999,-0.682 0.06665,-0.44 0.03666,0.242 0.03666,0.638 0,0.88 -0.03666,0.242 -0.06665,0.044 -0.06665,-0.44 z m 6.405387,-5.83296 c 0,-0.12813 0.06117,-0.19516 0.135944,-0.14895 0.07477,0.0462 0.09452,0.15105 0.04389,0.23297 -0.129379,0.20934 -0.179833,0.18577 -0.179833,-0.084 z m 17.546667,-8.64704 c 0.20668,-0.22 0.411781,-0.4 0.455778,-0.4 0.044,0 -0.0891,0.18 -0.295778,0.4 -0.20668,0.22 -0.411781,0.4 -0.455781,0.4 -0.044,0 0.0891,-0.18 0.295781,-0.4 z m -17.907368,-2.25333 c 0.0077,-0.18639 0.04559,-0.22431 0.09667,-0.0967 0.04622,0.1155 0.04054,0.2535 -0.01262,0.30667 -0.05317,0.0532 -0.09098,-0.0413 -0.08404,-0.21 z m -0.16,-2.24 c 0.0077,-0.18639 0.04559,-0.22431 0.09667,-0.0967 0.04622,0.1155 0.04054,0.2535 -0.01262,0.30667 -0.05317,0.0532 -0.09098,-0.0413 -0.08404,-0.21 z m -32.30737,-3.90667 c 0,-0.22 0.03632,-0.31 0.0807,-0.2 0.04439,0.11 0.04439,0.29 0,0.4 -0.04439,0.11 -0.0807,0.02 -0.0807,-0.2 z m -1.158908,-12.53035 c 0.07231,-0.0723 0.410964,-0.10705 0.752561,-0.0772 l 0.621085,0.0543 -0.752562,0.0772 c -0.413908,0.0424 -0.693396,0.018 -0.621084,-0.0543 z m 85.484834,-1.14965 c 0.003,-0.264 0.0391,-0.35263 0.0797,-0.19696 0.0406,0.15568 0.0379,0.37168 -0.006,0.48 -0.0438,0.10833 -0.077,-0.019 -0.0738,-0.28304 z m -0.0186,-6.41333 c 0.008,-0.18639 0.0456,-0.22431 0.0967,-0.0967 0.0462,0.1155 0.0405,0.2535 -0.0126,0.30667 -0.0532,0.0532 -0.091,-0.0413 -0.084,-0.21 z m -87.713037,-3.06667 c -0.199019,-0.25377 -0.19336,-0.25943 0.06041,-0.0604 0.154,0.12078 0.28,0.24678 0.28,0.28 0,0.13169 -0.13139,0.0469 -0.340409,-0.21959 z m 48.193041,-11.65333 c 0.0077,-0.18639 0.04559,-0.22431 0.09667,-0.0967 0.04622,0.1155 0.04054,0.2535 -0.01262,0.30667 -0.05317,0.0532 -0.09098,-0.0413 -0.08404,-0.21 z m 7.698556,-3.98667 c 0.003,-0.264 0.0391,-0.35263 0.0797,-0.19696 0.0406,0.15568 0.0379,0.37168 -0.006,0.48 -0.0438,0.10833 -0.077,-0.019 -0.0738,-0.28304 z m -0.006,-0.88 c 0,-0.22 0.0363,-0.31 0.0807,-0.2 0.0444,0.11 0.0444,0.29 0,0.4 -0.0444,0.11 -0.0807,0.02 -0.0807,-0.2 z m -7.212632,-0.0933 c 0.0077,-0.18639 0.04559,-0.22431 0.09667,-0.0967 0.04622,0.1155 0.04054,0.2535 -0.01262,0.30667 -0.05317,0.0532 -0.09098,-0.0413 -0.08404,-0.21 z m 7.235322,-4.06667 c 0,-0.484 0.03,-0.682 0.0667,-0.44 0.0367,0.242 0.0367,0.638 0,0.88 -0.0367,0.242 -0.0667,0.044 -0.0667,-0.44 z m -54.047948,-3.36 c 0.159278,-0.176 0.325597,-0.32 0.369597,-0.32 0.044,0 -0.05032,0.144 -0.209597,0.32 -0.159278,0.176 -0.325597,0.32 -0.369597,0.32 -0.044,0 0.05032,-0.144 0.209597,-0.32 z m 4.08,-4.06041 c 0,-0.0332 0.126,-0.15922 0.28,-0.28 0.25377,-0.19902 0.259429,-0.19336 0.06041,0.0604 -0.20902,0.26652 -0.34041,0.35128 -0.34041,0.21959 z m 67.499588,-1.81959 c -0.19902,-0.25377 -0.19336,-0.25943 0.0604,-0.0604 0.26652,0.20902 0.35128,0.34041 0.21959,0.34041 -0.0332,0 -0.15922,-0.126 -0.28,-0.28 z"
         id="path3686" /><path
         style="fill:#606060;fill-opacity:1;stroke-width:0.16"
         d="m 136.38398,-216.17378 c 0.008,-0.18639 0.0456,-0.22431 0.0967,-0.0967 0.0462,0.1155 0.0405,0.2535 -0.0126,0.30667 -0.0532,0.0532 -0.091,-0.0413 -0.084,-0.21 z m 5.63313,-26.22667 c 0.001,-0.44 0.0323,-0.60101 0.0691,-0.3578 0.0368,0.24321 0.0358,0.60321 -0.002,0.8 -0.038,0.19679 -0.0681,-0.002 -0.0669,-0.4422 z m -0.005,-7.04 c 0.002,-0.352 0.0345,-0.47716 0.0728,-0.27813 0.0383,0.19902 0.0368,0.48702 -0.003,0.64 -0.0401,0.15297 -0.0714,-0.01 -0.0696,-0.36187 z m -0.1751,-2.96 c 0,-0.22 0.0363,-0.31 0.0807,-0.2 0.0444,0.11 0.0444,0.29 0,0.4 -0.0444,0.11 -0.0807,0.02 -0.0807,-0.2 z m -77.594066,-9.36 c 0.0033,-0.264 0.03912,-0.35263 0.07969,-0.19696 0.04057,0.15568 0.0379,0.37168 -0.0059,0.48 -0.04383,0.10833 -0.07702,-0.019 -0.07376,-0.28304 z m 12.528808,-15.6 c 0.159278,-0.176 0.325597,-0.32 0.369597,-0.32 0.044,0 -0.05032,0.144 -0.209597,0.32 -0.159278,0.176 -0.325597,0.32 -0.369597,0.32 -0.044,0 0.05032,-0.144 0.209597,-0.32 z m 2.4,-2.4 c 0.159278,-0.176 0.325597,-0.32 0.369597,-0.32 0.044,0 -0.05032,0.144 -0.209597,0.32 -0.159278,0.176 -0.325597,0.32 -0.369597,0.32 -0.044,0 0.05032,-0.144 0.209597,-0.32 z m 18.96,-11.26041 c 0,-0.0332 0.126,-0.15922 0.28,-0.28 0.25377,-0.19902 0.259429,-0.19336 0.06041,0.0604 -0.20902,0.26652 -0.34041,0.35128 -0.34041,0.21959 z m 1.68,-1.69959 c 0.159278,-0.176 0.325598,-0.32 0.369598,-0.32 0.044,0 -0.0503,0.144 -0.209598,0.32 -0.159278,0.176 -0.325597,0.32 -0.369597,0.32 -0.044,0 0.05032,-0.144 0.209597,-0.32 z m -43.62041,-6.68 c -0.199019,-0.25377 -0.19336,-0.25943 0.06041,-0.0604 0.154,0.12078 0.28,0.24678 0.28,0.28 0,0.13169 -0.13139,0.0469 -0.34041,-0.21959 z m 48.525668,-38.6 c 0,-0.22 0.0363,-0.31 0.0807,-0.2 0.0444,0.11 0.0444,0.29 0,0.4 -0.0444,0.11 -0.0807,0.02 -0.0807,-0.2 z m -10.892626,-1.37333 c 0.0077,-0.18639 0.04559,-0.22431 0.09667,-0.0967 0.04622,0.1155 0.04054,0.2535 -0.01262,0.30667 -0.05317,0.0532 -0.09098,-0.0413 -0.08404,-0.21 z m 0.32,-4.8 c 0.0077,-0.18639 0.04559,-0.22431 0.09667,-0.0967 0.04622,0.1155 0.04054,0.2535 -0.01262,0.30667 -0.05317,0.0532 -0.09098,-0.0413 -0.08404,-0.21 z m 10.572626,-2.46667 c 0,-0.22 0.0363,-0.31 0.0807,-0.2 0.0444,0.11 0.0444,0.29 0,0.4 -0.0444,0.11 -0.0807,0.02 -0.0807,-0.2 z m -3.21263,-6.49333 c 0.008,-0.18639 0.0456,-0.22431 0.0967,-0.0967 0.0462,0.1155 0.0405,0.2535 -0.0126,0.30667 -0.0532,0.0532 -0.091,-0.0413 -0.084,-0.21 z m -38.913038,-12.18667 c -0.199019,-0.25377 -0.19336,-0.25943 0.06041,-0.0604 0.26652,0.20902 0.351277,0.34041 0.21959,0.34041 -0.03322,0 -0.159224,-0.126 -0.28,-0.28 z m 19.66041,-7.02596 c 0.11,-0.0444 0.29,-0.0444 0.4,0 0.11,0.0444 0.02,0.0807 -0.2,0.0807 -0.22,0 -0.31,-0.0363 -0.2,-0.0807 z m 5.12,0 c 0.11,-0.0444 0.29,-0.0444 0.4,0 0.11,0.0444 0.02,0.0807 -0.2,0.0807 -0.22,0 -0.31,-0.0363 -0.2,-0.0807 z"
         id="path3684" /><path
         style="fill:#494949;fill-opacity:1;stroke-width:0.16"
         d="m 132.69135,-260.39101 c 0,-0.0828 0.0712,-0.19454 0.15817,-0.24831 0.0907,-0.0561 0.11752,0.008 0.0629,0.15056 -0.10636,0.27719 -0.22105,0.3279 -0.22105,0.0978 z m -72.787366,-8.10277 c 0.0077,-0.18639 0.04559,-0.22431 0.09667,-0.0967 0.04622,0.1155 0.04054,0.2535 -0.01262,0.30667 -0.05317,0.0532 -0.09098,-0.0413 -0.08404,-0.21 z m 68.715816,-1.173 c -0.0515,-0.0834 -0.0255,-0.19371 0.0579,-0.24522 0.0833,-0.0515 0.1937,-0.0255 0.24522,0.0579 0.0515,0.0834 0.0255,0.19371 -0.0579,0.24522 -0.0834,0.0515 -0.19371,0.0255 -0.24522,-0.0579 z m -9.78365,-2.29367 -0.3048,-0.36 0.36,0.3048 c 0.33831,0.28643 0.43284,0.4152 0.3048,0.4152 -0.0304,0 -0.19236,-0.162 -0.36,-0.36 z m -45.024798,-1.00708 c 0,-0.0186 0.096,-0.11341 0.213333,-0.21079 0.159419,-0.1323 0.213334,-0.12378 0.213334,0.0337 0,0.11594 -0.096,0.2108 -0.213334,0.2108 -0.117333,0 -0.213333,-0.0152 -0.213333,-0.0337 z m 43.824868,-0.19292 c -0.11788,-0.154 -0.15132,-0.22662 -0.0743,-0.16139 0.077,0.0652 0.25462,0.0292 0.39472,-0.08 0.21976,-0.17135 0.22746,-0.16365 0.0561,0.0561 -0.10924,0.1401 -0.15124,0.3021 -0.0933,0.36 0.0579,0.0579 0.0661,0.10528 0.0182,0.10528 -0.0479,0 -0.18352,-0.126 -0.30139,-0.28 z m -0.86487,-0.52 c -0.0544,-0.088 -0.0226,-0.16 0.0706,-0.16 0.0932,0 0.16944,0.072 0.16944,0.16 0,0.088 -0.0317,0.16 -0.0705,0.16 -0.0388,0 -0.11506,-0.072 -0.16945,-0.16 z m -37.199998,-6.46041 c 0,-0.0332 0.126,-0.15922 0.28,-0.28 0.25377,-0.19902 0.259429,-0.19336 0.06041,0.0604 -0.20902,0.26652 -0.34041,0.35128 -0.34041,0.21959 z m 29.046838,-9.68853 c -0.0506,-0.0819 -0.0309,-0.18676 0.0439,-0.23297 0.0748,-0.0462 0.13594,0.0208 0.13594,0.14895 0,0.26979 -0.0505,0.29336 -0.17983,0.084 z m -13.766838,-3.37106 c 0.159278,-0.176 0.325597,-0.32 0.369597,-0.32 0.044,0 -0.05032,0.144 -0.209597,0.32 -0.159278,0.176 -0.325597,0.32 -0.369597,0.32 -0.044,0 0.05032,-0.144 0.209597,-0.32 z m 5.599998,-0.16 c 0.15928,-0.176 0.3256,-0.32 0.3696,-0.32 0.044,0 -0.0503,0.144 -0.2096,0.32 -0.15928,0.176 -0.32559,0.32 -0.36959,0.32 -0.044,0 0.0503,-0.144 0.20959,-0.32 z m -3.546665,-1.84 c 0,-0.132 0.03538,-0.20462 0.07861,-0.16139 0.112908,0.11291 0.518529,-0.25222 0.433331,-0.39007 -0.03916,-0.0634 0.03561,-0.11521 0.166147,-0.11521 0.163451,0 0.102125,0.14115 -0.196973,0.45334 -0.508576,0.53084 -0.481118,0.51866 -0.481118,0.21333 z m 1.6,-1.59296 c 0,-0.12813 0.06117,-0.19516 0.135944,-0.14895 0.07477,0.0462 0.09452,0.15105 0.04389,0.23297 -0.129379,0.20934 -0.179833,0.18577 -0.179833,-0.084 z m -11.413333,-12.41648 c 0,-0.0932 0.072,-0.12495 0.16,-0.0706 0.088,0.0544 0.16,0.13064 0.16,0.16944 0,0.0388 -0.072,0.0706 -0.16,0.0706 -0.088,0 -0.16,-0.0762 -0.16,-0.16944 z m -42.420409,-21.39056 c -0.199019,-0.25377 -0.19336,-0.25943 0.06041,-0.0604 0.154,0.12078 0.28,0.24678 0.28,0.28 0,0.13169 -0.13139,0.0469 -0.340409,-0.21959 z m 49.953041,-5.41333 c 0.0077,-0.18639 0.04559,-0.22431 0.09667,-0.0967 0.04622,0.1155 0.04054,0.2535 -0.01262,0.30667 -0.05317,0.0532 -0.09098,-0.0413 -0.08404,-0.21 z m -0.64,-5.6 c 0.0077,-0.18639 0.04559,-0.22431 0.09667,-0.0967 0.04622,0.1155 0.04054,0.2535 -0.01262,0.30667 -0.05317,0.0532 -0.09098,-0.0413 -0.08404,-0.21 z m 10.910946,-0.70667 c 0,-0.396 0.0312,-0.558 0.0693,-0.36 0.0381,0.198 0.0381,0.522 0,0.72 -0.0381,0.198 -0.0693,0.036 -0.0693,-0.36 z m -10.430946,-4.25333 c 0.0077,-0.18639 0.04559,-0.22431 0.09667,-0.0967 0.04622,0.1155 0.04054,0.2535 -0.01262,0.30667 -0.05317,0.0532 -0.09098,-0.0413 -0.08404,-0.21 z m 7.244166,-1.10667 c -4.8e-4,-0.792 0.0266,-1.13617 0.0601,-0.76483 0.0336,0.37135 0.034,1.01935 9.6e-4,1.44 -0.0331,0.42066 -0.0606,0.11683 -0.0611,-0.67517 z m -53.596091,-5.90071 c 0.02018,-0.13751 0.08138,-0.29471 0.135989,-0.34932 0.05461,-0.0546 0.08278,0.0132 0.0626,0.15074 -0.02018,0.13751 -0.08138,0.29471 -0.135989,0.34932 -0.05461,0.0546 -0.08278,-0.0132 -0.0626,-0.15074 z"
         id="path3682" /><path
         style="fill:#333333;fill-opacity:1;stroke-width:0.16"
         d="m 31.472964,-216.04045 c 0.04787,-0.242 0.201228,-1.412 0.340793,-2.6 0.72936,-6.20839 2.935894,-18.93356 3.703807,-21.36 0.493079,-1.55802 1.216351,-2.32 2.202154,-2.32 0.73932,0 0.854186,-0.4508 0.93769,-3.68 0.06147,-2.37701 0.145523,-3.2121 0.426776,-4.24 0.430481,-1.57328 1.502606,-4.01368 1.740569,-3.96192 0.101403,0.0221 0.132397,-0.0732 0.07365,-0.22625 -0.0735,-0.19154 -0.04308,-0.22826 0.110479,-0.13336 0.141403,0.0874 0.173722,0.0692 0.09713,-0.0547 -0.06313,-0.10215 0.186942,-0.74196 0.555712,-1.42181 2.873641,-5.29774 5.06174,-9.36298 5.385235,-10.00516 0.227754,-0.45211 0.455683,-0.71922 0.559156,-0.65527 0.104996,0.0649 0.128874,0.0338 0.05986,-0.0778 -0.06378,-0.1032 0.503861,-1.34107 1.276966,-2.78472 0.765484,-1.42942 1.677808,-3.13894 2.027389,-3.79894 0.349581,-0.66 0.806024,-1.42684 1.014319,-1.70409 0.551272,-0.73377 1.712848,-1.32076 3.306732,-1.67102 1.437173,-0.31582 2.675264,-0.74443 4.35997,-1.50934 1.409979,-0.64018 4.545618,-1.84216 5.25563,-2.01464 0.99632,-0.24202 1.583228,-0.0245 4.203589,1.55825 1.366655,0.82546 2.619195,1.50084 2.783423,1.50084 0.200313,0 0.461534,-0.30571 0.793644,-0.92881 0.272279,-0.51085 0.996701,-1.57285 1.609831,-2.36 0.613128,-0.78715 1.186577,-1.59788 1.274331,-1.80161 0.08775,-0.20372 0.160958,-0.92372 0.162675,-1.6 0.005,-1.96889 0.515395,-5.27563 1.341616,-8.69207 l 0.218256,-0.90249 -1.701497,1.22576 c -2.844346,2.04907 -3.502319,2.46232 -3.713093,2.33205 -0.125235,-0.0774 -0.157119,-0.0564 -0.08687,0.0573 0.166615,0.26958 -1.996368,1.29683 -3.30528,1.56974 -1.198168,0.24983 -2.177987,0.18305 -3.195213,-0.21777 -0.338931,-0.13355 -0.55395,-0.30884 -0.49528,-0.40377 0.06293,-0.10183 0.02597,-0.11973 -0.09404,-0.0456 -0.542789,0.33546 -1.595621,-1.47049 -1.841565,-3.15888 -0.116625,-0.80063 -0.420997,-1.61206 -0.770325,-2.05363 -0.287787,-0.36377 -1.26506,-0.93893 -1.596592,-0.93965 -0.152219,-3.2e-4 -0.562947,-0.11511 -0.912729,-0.25506 -0.880675,-0.35238 -1.406189,-1.39022 -1.129087,-2.22985 0.23856,-0.72285 0.117271,-1.03569 -0.401539,-1.03569 -0.584099,0 -1.377134,-0.37069 -1.819358,-0.85042 -0.307322,-0.33339 -0.358383,-0.51224 -0.268551,-0.94062 0.29837,-1.42281 0.281997,-1.96262 -0.07322,-2.4142 -0.534427,-0.67942 -1.065915,-0.86363 -2.772611,-0.96099 -1.262648,-0.072 -1.747224,-0.1746 -2.450611,-0.51873 -0.583362,-0.28541 -0.848359,-0.50295 -0.791901,-0.65008 0.04667,-0.12162 -0.0026,-0.20399 -0.10939,-0.18304 -0.106832,0.0209 -0.184372,-0.0872 -0.172306,-0.2402 0.01206,-0.15305 -0.04194,-0.2388 -0.12,-0.19056 -0.07807,0.0482 -0.141936,-0.20725 -0.141936,-0.56778 0,-0.42055 0.319486,-1.45923 0.891362,-2.8979 1.188856,-2.99081 1.666363,-4.90957 1.78368,-7.16737 l 0.09467,-1.8219 -0.784856,0.13481 c -1.214105,0.20853 -1.698182,0.15923 -2.553836,-0.26007 l -0.791018,-0.38763 0.88,-0.0966 c 1.042773,-0.11443 1.817718,-0.48192 2.179002,-1.03331 0.243027,-0.3709 0.242539,-0.45088 -0.0067,-1.1036 -0.15596,-0.40837 -0.765551,-1.24323 -1.452506,-1.98925 -1.48423,-1.61185 -1.614808,-1.85554 -1.93057,-3.60291 -0.123382,-0.68278 -0.479742,-1.46799 -0.940236,-2.07173 -0.224083,-0.29379 -0.353769,-0.59336 -0.28819,-0.66571 0.06558,-0.0724 0.03524,-0.0835 -0.06743,-0.0247 -0.242585,0.13886 -2.507895,-2.40273 -3.984979,-4.47099 -2.412295,-3.37778 -4.607065,-7.58721 -4.620656,-8.86213 l -0.0077,-0.72243 0.64,0.0334 c 1.081727,0.0565 4.557754,1.9369 8.727994,4.72158 2.212376,1.47731 3.786646,2.62896 3.726574,2.72616 -0.0594,0.0961 -0.0277,0.12113 0.07392,0.0583 0.09786,-0.0605 0.63099,0.2048 1.184721,0.58951 0.553733,0.38472 2.323783,1.59308 3.933447,2.68525 1.609662,1.09217 4.129662,2.80472 5.6,3.80567 1.470336,1.00094 4.653339,3.14735 7.073339,4.7698 2.42,1.62245 4.380216,3.02285 4.356035,3.112 -0.02418,0.0892 0.0229,0.12076 0.104613,0.0703 0.08172,-0.0505 0.920138,0.42326 1.863157,1.05281 1.87315,1.2505 2.47616,1.96775 2.778736,3.30514 0.09334,0.41255 0.607659,2.87409 1.142941,5.47009 1.65867,8.04419 2.588617,12.23335 2.75266,12.4 0.225005,0.22858 0.0085,-3.60524 -0.374915,-6.64 -1.798734,-14.23584 -4.511632,-27.01649 -8.167995,-38.48 -1.88313,-5.90403 -3.220846,-9.31574 -5.39523,-13.76 -1.799052,-3.67711 -2.94961,-5.59943 -4.3278,-7.23079 -0.534711,-0.63294 -0.972202,-1.21172 -0.972202,-1.2862 0,-0.27938 3.307805,-2.07848 5.6,-3.04582 8.805229,-3.71592 18.482824,-4.49696 27.519608,-2.221 l 2.000392,0.50381 0.517046,0.79366 c 1.459292,2.23998 2.74602,7.89444 3.31472,14.56634 0.31078,3.64589 0.22967,13.40537 -0.13895,16.72 -1.725549,15.51624 -7.228432,29.94409 -17.994117,47.17824 -0.899549,1.44004 -1.604947,2.64884 -1.567553,2.68624 0.03739,0.0374 0.410366,-0.31282 0.828827,-0.77825 0.418461,-0.46543 0.841654,-0.84623 0.940432,-0.84623 0.09878,0 0.179595,-0.0811 0.179595,-0.18019 0,-0.0991 0.796352,-1.1431 1.76967,-2.32 0.973319,-1.17689 1.971328,-2.40911 2.2178,-2.73825 0.246474,-0.32914 0.523247,-0.55202 0.615053,-0.49528 0.0945,0.0584 0.119434,0.0263 0.05748,-0.0739 -0.06019,-0.0974 0.527129,-1.02652 1.30516,-2.06472 4.924387,-6.57109 8.838291,-13.759 11.344843,-20.83487 5.36507,-15.14537 5.25625,-32.8098 -0.29756,-48.30145 -0.35663,-0.99478 -0.60304,-1.85406 -0.54758,-1.90952 0.44329,-0.44329 10.38585,3.32781 10.07973,3.82313 -0.0714,0.11553 -0.0436,0.14098 0.0744,0.0681 0.52254,-0.32295 7.88719,4.59636 7.59323,5.072 -0.0607,0.0982 -0.0224,0.11548 0.0949,0.043 0.23931,-0.14791 1.00675,0.52778 0.86322,0.76002 -0.0549,0.0888 -0.0294,0.11795 0.0567,0.0648 0.20309,-0.12552 2.66226,2.34464 2.49787,2.50903 -0.0687,0.0687 -0.0373,0.10089 0.0698,0.0716 0.48165,-0.13191 3.95638,4.61986 5.694,7.78667 3.07122,5.59731 5.28866,12.70989 6.13547,19.68 0.3363,2.76803 0.37817,9.24866 0.077,11.92 -0.32788,2.90837 -0.91087,6.14437 -1.60881,8.92999 -0.76702,3.06133 -2.08108,7.09589 -2.27259,6.97753 -0.0749,-0.0463 -0.0961,0.0203 -0.0471,0.14797 0.049,0.12766 -0.31784,1.3014 -0.81517,2.60831 -2.49525,6.55719 -4.3094,11.8478 -4.62784,13.4962 l -0.10818,0.56 0.32015,-0.4 c 0.42485,-0.53082 2.53429,-4.47169 3.46856,-6.48 0.40938,-0.88 1.17691,-2.68 1.70561,-4 0.52871,-1.32 0.99866,-2.46288 1.04434,-2.53972 0.0457,-0.0768 0.72522,1.57915 1.51009,3.68 5.93964,15.89856 8.43477,26.013 9.8034,39.73972 0.0395,0.396 0.15524,2.376 0.25723,4.4 0.42345,8.40298 -0.41595,18.01954 -2.52784,28.96 -0.32276,1.672 -0.60579,2.932 -0.62895,2.8 -0.0232,-0.132 -0.19503,-1.644 -0.38191,-3.36 -1.39395,-12.79981 -4.95324,-25.71039 -9.9027,-35.92 -0.76789,-1.584 -1.84023,-3.62479 -2.38297,-4.53509 -0.54274,-0.91029 -0.9392,-1.73829 -0.88103,-1.84 0.0582,-0.1017 0.0496,-0.13432 -0.019,-0.0725 -0.0686,0.0618 -0.66286,-0.65818 -1.32058,-1.6 -1.66432,-2.38327 -3.21559,-4.26155 -5.36437,-6.49521 -0.64003,-0.66532 -0.72742,-0.82804 -0.56,-1.04277 0.17133,-0.21974 0.16348,-0.22722 -0.0576,-0.0548 -0.21045,0.16414 -0.32145,0.14281 -0.62448,-0.12 -0.67599,-0.58629 -0.71514,-0.32897 -0.0548,0.36037 1.17833,1.23012 2.96111,3.62874 2.84123,3.8227 -0.0666,0.10783 -0.0463,0.14401 0.0482,0.0856 0.18594,-0.11491 1.22328,1.39285 2.73253,3.97169 4.83574,8.2628 8.28719,18.71589 11.30553,34.24 0.82165,4.22598 1.89757,11.456 2.20839,14.84 l 0.0551,0.6 H 83.92651 31.385926 Z m 23.888103,-20.16 c 0.312891,-0.682 0.820586,-1.78 1.12821,-2.44 0.307624,-0.66 1.014734,-2.18251 1.571358,-3.38336 2.28428,-4.92807 6.372423,-12.57005 9.206082,-17.20898 l 1.094837,-1.79233 -0.187679,-1.28767 c -0.103224,-0.70821 -0.239846,-1.28766 -0.303605,-1.28766 -0.147784,0 -0.676468,1.42749 -0.93339,2.52022 -0.230754,0.98144 -0.905931,1.79978 -1.484923,1.79978 -0.656122,0 -0.979056,-0.53159 -1.050378,-1.72906 -0.03508,-0.58902 -0.117289,-1.12839 -0.182683,-1.19862 -0.144342,-0.155 -2.019491,1.90399 -4.487698,4.92768 -2.532646,3.10263 -3.882876,4.57772 -4.110334,4.49044 -0.116294,-0.0446 -0.157795,0.0182 -0.104245,0.15771 0.08019,0.20896 -0.114726,0.30979 -0.47716,0.24683 -0.07254,-0.0126 -0.09035,0.0443 -0.03957,0.12647 0.126091,0.20402 -0.853037,1.00701 -1.066805,0.8749 -0.09782,-0.0605 -0.12483,-0.0308 -0.06303,0.0692 0.06488,0.10498 -0.325289,0.41392 -0.975278,0.77223 -1.607106,0.88593 -1.940381,1.14968 -2.26913,1.79571 -0.555939,1.0925 -0.841054,4.54998 -0.523019,6.34245 0.105642,0.5954 0.15525,0.64317 0.778555,0.74957 0.912848,0.15584 1.559992,0.51763 2.031395,1.13567 0.402245,0.52737 1.025852,2.43865 1.369986,4.19884 0.22484,1.15002 0.288789,1.36 0.414181,1.36 0.05249,0 0.351435,-0.558 0.664326,-1.24 z m 84.144733,-8.24 c -0.16317,-1.77074 -1.00138,-5.99065 -1.60603,-8.08548 -1.71004,-5.92448 -4.76389,-11.91565 -8.07075,-15.83358 -0.53806,-0.63749 -0.96015,-1.24949 -0.93798,-1.36 0.0236,-0.11766 -0.0848,-0.17939 -0.26141,-0.14894 -0.21785,0.0376 -0.27505,-0.0175 -0.20576,-0.19808 0.0528,-0.13754 0.0347,-0.23295 -0.0401,-0.212 -0.0748,0.0209 -0.52225,-0.32419 -0.99424,-0.76695 -0.47199,-0.44277 -1.26939,-1.15612 -1.77202,-1.58522 -0.50262,-0.4291 -0.86949,-0.85196 -0.81528,-0.93969 0.0576,-0.0933 0.0169,-0.10905 -0.098,-0.038 -0.11393,0.0704 -0.34293,-0.0129 -0.54472,-0.19826 -1.12383,-1.03211 -5.61359,-3.58455 -7.95189,-4.52066 -2.23325,-0.89406 -6.48565,-2.19707 -6.64621,-2.03652 -0.0416,0.0416 0.59169,0.35043 1.4072,0.6864 6.74972,2.78071 12.76475,7.10945 17.33751,12.477 2.17016,2.54736 4.59668,6.20317 4.45526,6.71236 -0.0683,0.24581 -0.0521,0.27128 0.0648,0.10197 0.15776,-0.22853 0.70561,0.72004 2.07089,3.58567 1.4656,3.07618 3.24815,8.20524 4.03146,11.6 0.42976,1.86251 0.44708,1.92 0.57847,1.92 0.0581,0 0.0576,-0.522 -0.001,-1.16 z m -61.973229,-19.45661 c 0.418672,-0.85403 1.347957,-2.33423 2.06508,-3.28932 1.643767,-2.18925 5.439026,-6.11619 5.734565,-5.93354 0.131482,0.0813 0.169654,0.0659 0.103274,-0.0415 -0.134704,-0.21796 1.788094,-1.83511 2.015123,-1.6948 0.09573,0.0592 0.123697,0.03 0.06394,-0.0667 -0.125535,-0.20312 0.668248,-0.87406 0.879573,-0.74346 0.07984,0.0493 0.125374,0.0157 0.101195,-0.0747 -0.100186,-0.37473 8.840325,-6.53446 9.179849,-6.32462 0.112324,0.0694 0.142504,0.0449 0.07643,-0.062 -0.06047,-0.0978 0.05344,-0.26222 0.255278,-0.36836 0.44034,-0.23155 5.968322,-3.9077 6.503292,-4.32473 0.20834,-0.16242 0.46034,-0.24874 0.56,-0.19183 0.0996,0.0569 0.13084,0.0476 0.0693,-0.0207 -0.15971,-0.1773 3.36523,-2.84246 3.58213,-2.70841 0.10214,0.0631 0.1349,0.0391 0.0762,-0.0559 -0.0567,-0.0917 0.38222,-0.58071 0.97528,-1.08675 1.94382,-1.6586 5.96001,-5.99601 5.55196,-5.99601 -0.0592,0 -0.76594,0.597 -1.57062,1.32667 -3.03406,2.75124 -7.21277,5.7269 -7.65685,5.45244 -0.10142,-0.0627 -0.1304,-0.0353 -0.0686,0.0647 0.18875,0.30541 -7.09642,4.15474 -7.449815,3.93633 -0.102771,-0.0635 -0.132371,-0.0369 -0.07045,0.0632 0.06387,0.10335 -0.3602,0.41008 -1.055279,0.76328 -2.003101,1.01784 -5.645565,3.15639 -6.885027,4.04231 -0.665742,0.47585 -0.798259,0.51767 -1.04,0.3282 -0.24372,-0.19101 -0.253437,-0.18684 -0.08078,0.0348 0.167275,0.21468 0.03735,0.36828 -0.879729,1.04 -1.593245,1.16697 -3.688967,2.93985 -4.59132,3.88402 -0.445607,0.46626 -0.888599,0.79563 -1.008311,0.74969 -0.117435,-0.0451 -0.168931,-0.01 -0.114435,0.0784 0.0545,0.0882 -0.258469,0.53735 -0.695477,0.99816 -3.235982,3.41227 -5.184997,7.2537 -5.519062,10.87785 -0.04664,0.506 -0.03601,0.91464 0.02363,0.90808 0.05964,-0.007 0.450989,-0.71067 0.869659,-1.56469 z m -15.742536,-3.61259 c 0.966354,-0.48969 3.061317,-2.14767 3.061317,-2.42277 0,-0.31831 -1.100578,-0.57089 -2.487573,-0.57089 -1.108757,0 -1.876019,0.464 -2.231582,1.34953 -0.220935,0.55025 -0.216507,0.86323 0.02481,1.75333 0.107006,0.39469 0.719464,0.35374 1.63303,-0.1092 z m 11.408875,-4.65049 c 0.442196,-0.48383 0.880018,-0.83271 0.972938,-0.77528 0.09292,0.0574 0.122363,0.029 0.06543,-0.0631 -0.134124,-0.21702 1.500796,-1.73673 3.420494,-3.17946 2.586416,-1.9438 10.165674,-6.87865 10.507309,-6.8413 0.10655,0.0116 0.17855,-0.0604 0.16,-0.16 -0.01855,-0.0997 0.0915,-0.17131 0.244553,-0.15924 0.153053,0.0121 0.243845,-0.0338 0.201759,-0.10188 -0.08791,-0.14224 1.806243,-1.38056 2.019181,-1.32006 0.07743,0.022 0.122782,-0.0213 0.100782,-0.0962 -0.022,-0.0749 0.716,-0.69953 1.64,-1.38804 1.66619,-1.24154 2.912181,-2.27253 5.008251,-4.14407 0.598539,-0.53443 1.156539,-0.97168 1.24,-0.97168 0.08346,0 0.133749,-0.0447 0.111749,-0.0993 -0.022,-0.0546 0.464533,-0.63062 1.081186,-1.28 0.616648,-0.64939 1.756418,-1.9367 2.532808,-2.8607 0.7764,-0.924 1.48321,-1.66022 1.57071,-1.63604 0.0875,0.0242 0.11594,-0.0258 0.0632,-0.11115 -0.13463,-0.21783 1.51188,-2.43182 1.7151,-2.30622 0.0931,0.0575 0.11891,0.026 0.0585,-0.0717 -0.0593,-0.096 0.42519,-0.98913 1.07672,-1.98472 2.27561,-3.47732 4.07923,-6.86621 5.84654,-10.98529 1.09911,-2.56172 2.96861,-8.0171 3.62731,-10.58488 0.56908,-2.21837 1.18106,-5.74532 1.01475,-5.84811 -0.0726,-0.0448 -0.21346,0.22663 -0.31309,0.60328 -1.91281,7.23131 -5.05157,14.16854 -9.23068,20.40145 -0.66253,0.98814 -1.2784,1.75101 -1.36858,1.69528 -0.0937,-0.0579 -0.11545,-0.0228 -0.0508,0.0817 0.0988,0.15982 -0.72191,1.3282 -2.51577,3.58161 -0.26063,0.32739 -0.54665,0.55027 -0.63562,0.49528 -0.089,-0.055 -0.11527,-0.0247 -0.0584,0.0672 0.18247,0.29523 -3.957952,4.92044 -4.245571,4.74268 -0.07492,-0.0463 -0.125911,-0.0248 -0.113311,0.0477 0.06517,0.37514 -0.03692,0.55771 -0.263292,0.47084 -0.142604,-0.0547 -0.206629,-0.0278 -0.150402,0.0631 0.129638,0.20976 -0.886854,1.13093 -1.108722,1.00476 -0.09491,-0.054 -0.11919,-0.0392 -0.05396,0.0328 0.162279,0.17913 -0.194097,0.58205 -0.401462,0.45389 -0.09189,-0.0568 -0.119264,-0.0264 -0.06105,0.0678 0.124973,0.20221 -3.820787,3.89144 -4.103097,3.83634 -0.106154,-0.0207 -0.1766,0.0475 -0.156551,0.15169 0.04743,0.2464 -1.152329,1.19764 -1.319723,1.04636 -0.07042,-0.0636 -0.0839,-0.0381 -0.02997,0.0567 0.131412,0.23109 -1.277422,1.39693 -1.512505,1.25164 -0.11008,-0.068 -0.140189,-0.0431 -0.07513,0.0621 0.09163,0.14826 -0.511302,0.71484 -2.139134,2.01012 -5.255701,4.18204 -9.97293,8.49657 -12.225642,11.18196 -0.423696,0.50507 -0.845382,0.87195 -0.937078,0.81528 -0.09657,-0.0597 -0.11893,-0.0257 -0.05314,0.0807 0.145949,0.23615 -0.685515,1.33606 -0.906662,1.19938 -0.09619,-0.0594 -0.119245,-0.026 -0.05442,0.0789 0.06188,0.10012 -0.178996,0.61129 -0.535278,1.13594 -0.356282,0.52464 -0.647784,0.99385 -0.647784,1.04268 0,0.21954 0.23899,0.0281 0.987558,-0.79091 z m 57.4302,-0.69538 c -0.486,-0.68251 -1.76083,-2.08798 -2.61439,-2.88228 -0.41615,-0.38726 -0.7168,-0.76856 -0.66811,-0.84734 0.0487,-0.0788 0.0292,-0.12467 -0.0434,-0.10197 -0.0725,0.0227 -0.87533,-0.53353 -1.78397,-1.23604 -1.97693,-1.52845 -3.76015,-2.63424 -7.01623,-4.35083 -1.91576,-1.00999 -2.42377,-1.21988 -2.40679,-0.99442 0.0118,0.15718 0.076,0.25213 0.14253,0.211 0.12042,-0.0744 5.44531,3.53538 8.5731,5.8118 0.93474,0.6803 1.59525,1.26725 1.53528,1.36429 -0.0627,0.10147 -0.0292,0.12331 0.0829,0.054 0.18919,-0.11693 2.12948,1.38223 3.54132,2.73617 0.82514,0.7913 1.13163,0.90108 0.65776,0.23558 z m -42.672027,-37.50681 c 3.24729,-6.84049 4.862903,-11.80944 5.916962,-18.19812 0.74099,-4.49116 0.818475,-5.65808 0.796814,-12 -0.02475,-7.2468 -0.223686,-8.54985 -0.510277,-3.34241 -0.366123,6.6526 -1.043963,11.66806 -2.451947,18.14241 -0.982193,4.51644 -2.903688,11.58214 -4.130877,15.19001 -0.547139,1.60857 -0.528456,1.53065 -0.366406,1.52811 0.066,-9.6e-4 0.401579,-0.59504 0.745731,-1.32 z m -12.271014,-10.85859 c -0.643536,-0.47022 -1.040507,-0.86544 -0.975279,-0.97098 0.06463,-0.10457 0.03758,-0.13323 -0.06557,-0.0695 -0.227842,0.14081 -4.217477,-2.93142 -4.085044,-3.14571 0.05967,-0.0966 0.02063,-0.11336 -0.09595,-0.0413 -0.11345,0.0701 -0.343779,-0.0111 -0.544722,-0.19213 -0.191485,-0.17249 -0.816155,-0.67055 -1.388155,-1.10681 -2.152962,-1.64205 -6.202419,-4.74167 -7.317179,-5.60088 -0.636448,-0.49055 -1.111323,-0.9661 -1.055279,-1.05678 0.05799,-0.0938 0.02395,-0.1167 -0.07901,-0.0531 -0.134203,0.0829 -5.740801,-4.05562 -7.948531,-5.86728 -0.088,-0.0722 -0.862325,-0.638 -1.720722,-1.2573 -0.891044,-0.64286 -1.515478,-1.19922 -1.45528,-1.29662 0.05897,-0.0954 0.0305,-0.12429 -0.0646,-0.0655 -0.09352,0.0578 -1.304315,-0.65577 -2.690642,-1.58572 -1.386328,-0.92994 -2.872315,-1.86904 -3.302192,-2.08688 -0.429878,-0.21783 -0.821546,-0.50017 -0.870373,-0.62741 -0.148164,-0.38611 5.649298,-7.32215 6.046719,-7.23425 0.09602,0.0212 0.196304,-0.091 0.22285,-0.24934 0.06998,-0.4175 0.412824,-0.77916 0.651729,-0.68748 0.116701,0.0448 0.173594,-0.006 0.131064,-0.11671 -0.104352,-0.27194 2.278866,-2.55924 2.514696,-2.41349 0.112616,0.0696 0.143199,0.0455 0.07739,-0.061 -0.138282,-0.22374 3.246931,-3.24395 3.5774,-3.19167 0.13308,0.0211 0.224901,-0.0489 0.204048,-0.15547 -0.05143,-0.26282 1.35395,-1.21231 1.583981,-1.07014 0.112497,0.0695 0.139675,0.0426 0.07032,-0.0696 -0.12784,-0.20685 2.187749,-1.76417 3.552948,-2.38948 1.088358,-0.49852 2.486883,-0.51631 2.184969,-0.0278 -0.05,0.0809 0.0055,0.11013 0.123267,0.0649 0.138396,-0.0531 0.447487,0.32971 0.873488,1.08184 2.19942,3.88316 5.077968,11.87345 7.653282,21.24402 0.972749,3.53945 5.377736,20.99153 5.314224,21.05436 -0.02121,0.021 -0.526938,-0.31869 -1.123843,-0.75483 z"
         id="path3680" /></g></g></svg>
