<?xml version="1.0" encoding="UTF-8" standalone="no"?>
<!-- Created with Inkscape (http://www.inkscape.org/) -->

<svg
   version="1.1"
   id="svg1"
   width="40.817204"
   height="80.148369"
   viewBox="0 0 40.817203 80.148369"
   sodipodi:docname="abak.svg"
   inkscape:version="1.2.2 (732a01da63, 2022-12-09)"
   xmlns:inkscape="http://www.inkscape.org/namespaces/inkscape"
   xmlns:sodipodi="http://sodipodi.sourceforge.net/DTD/sodipodi-0.dtd"
   xmlns="http://www.w3.org/2000/svg"
   xmlns:svg="http://www.w3.org/2000/svg">
  <defs
     id="defs1">
    <inkscape:path-effect
       effect="bspline"
       id="path-effect4480"
       is_visible="true"
       lpeversion="1"
       weight="33.333333"
       steps="2"
       helper_size="0"
       apply_no_weight="true"
       apply_with_weight="true"
       only_selected="false" />
    <inkscape:path-effect
       effect="bspline"
       id="path-effect616"
       is_visible="true"
       lpeversion="1"
       weight="33.333333"
       steps="2"
       helper_size="0"
       apply_no_weight="true"
       apply_with_weight="true"
       only_selected="false" />
    <clipPath
       clipPathUnits="userSpaceOnUse"
       id="clipPath1381">
      <path
         id="path1383"
         style="fill:#463825;fill-opacity:1;stroke-width:0.109145;stroke-opacity:0.98017"
         d="m 320.44049,-233.70089 c -3.19488,0.6072 -3.06883,2.64229 -3.10195,5.49448 0.73112,13.20542 12.59782,23.5701 26.99449,23.57766 14.54142,-0.008 26.47325,-10.57478 27.01065,-23.92108 0.0342,-2.88215 -1.07186,-5.08893 -3.34434,-5.15106 z"
         sodipodi:nodetypes="cccccc" />
    </clipPath>
    <clipPath
       clipPathUnits="userSpaceOnUse"
       id="clipPath1377">
      <path
         id="path1379"
         style="fill:#463825;fill-opacity:1;stroke-width:0.109145;stroke-opacity:0.98017"
         d="m 320.44049,-233.70089 c -3.19488,0.6072 -3.06883,2.64229 -3.10195,5.49448 0.73112,13.20542 12.59782,23.5701 26.99449,23.57766 14.54142,-0.008 26.47325,-10.57478 27.01065,-23.92108 0.0342,-2.88215 -1.07186,-5.08893 -3.34434,-5.15106 z"
         sodipodi:nodetypes="cccccc" />
    </clipPath>
    <clipPath
       clipPathUnits="userSpaceOnUse"
       id="clipPath1373">
      <path
         id="path1375"
         style="fill:#463825;fill-opacity:1;stroke-width:0.109145;stroke-opacity:0.98017"
         d="m 320.44049,-233.70089 c -3.19488,0.6072 -3.06883,2.64229 -3.10195,5.49448 0.73112,13.20542 12.59782,23.5701 26.99449,23.57766 14.54142,-0.008 26.47325,-10.57478 27.01065,-23.92108 0.0342,-2.88215 -1.07186,-5.08893 -3.34434,-5.15106 z"
         sodipodi:nodetypes="cccccc" />
    </clipPath>
    <inkscape:path-effect
       effect="bspline"
       id="path-effect1927"
       is_visible="true"
       lpeversion="1"
       weight="33.333333"
       steps="2"
       helper_size="0"
       apply_no_weight="true"
       apply_with_weight="true"
       only_selected="false" />
    <inkscape:path-effect
       effect="bspline"
       id="path-effect3881"
       is_visible="true"
       lpeversion="1"
       weight="33.333333"
       steps="2"
       helper_size="0"
       apply_no_weight="true"
       apply_with_weight="true"
       only_selected="false" />
    <inkscape:path-effect
       effect="bspline"
       id="path-effect4422"
       is_visible="true"
       lpeversion="1"
       weight="33.333333"
       steps="2"
       helper_size="0"
       apply_no_weight="true"
       apply_with_weight="true"
       only_selected="false" />
  </defs>
  <sodipodi:namedview
     id="namedview1"
     pagecolor="#ffffff"
     bordercolor="#cccccc"
     borderopacity="1"
     inkscape:showpageshadow="0"
     inkscape:pageopacity="1"
     inkscape:pagecheckerboard="0"
     inkscape:deskcolor="#d1d1d1"
     showgrid="false"
     inkscape:zoom="3.7123106"
     inkscape:cx="-5.3874802"
     inkscape:cy="38.25111"
     inkscape:window-width="1366"
     inkscape:window-height="705"
     inkscape:window-x="-8"
     inkscape:window-y="-8"
     inkscape:window-maximized="1"
     inkscape:current-layer="g1" />
  <g
     inkscape:groupmode="layer"
     inkscape:label="Image"
     id="g1"
     transform="translate(-300.3565,-129.25708)">
    <g
       id="g7347"
       style="display:inline"
       transform="matrix(0.35234402,0,0,0.35234402,264.4861,478.57898)">
      <rect
         style="opacity:1;fill:#f6ca4b;fill-opacity:1;stroke-width:1.59608"
         id="rect7302"
         width="115.81895"
         height="150.65396"
         x="101.80504"
         y="-914.60486" />
      <path
         id="path7304"
         style="opacity:1;fill:#f6ca4b;fill-opacity:1;stroke-width:1.93006"
         d="m 159.7968,-991.41971 a 8.1042994,9.5275231 0 0 0 -7.38472,5.612 9.5191364,7.3740368 73.278784 0 0 -7.51815,-2.6481 9.5191364,7.3740368 73.278784 0 0 -4.55513,9.9215 9.5191364,7.3740368 73.278784 0 0 -8.41042,-3.8162 9.5191364,7.3740368 73.278784 0 0 -4.55188,9.9412 9.497476,7.3908549 56.815748 0 0 -7.81447,-0.2419 9.497476,7.3908549 56.815748 0 0 -0.86929,11.9152 57.854002,66.260268 0 0 0 -16.7491,46.56346 57.854002,66.260268 0 0 0 57.85316,66.26066 57.854002,66.260268 0 0 0 57.85298,-66.26066 57.854002,66.260268 0 0 0 -17.75182,-47.75126 7.3908549,9.497476 33.184252 0 0 -1.75507,-10.306 7.3908549,9.497476 33.184252 0 0 -5.95526,-0.6302 7.3733398,9.5200365 15.770401 0 0 -4.82216,-9.122 7.3733398,9.5200365 15.770401 0 0 -7.76558,3.1415 7.3740368,9.5191364 16.721216 0 0 -4.60727,-9.6185 7.3740368,9.5191364 16.721216 0 0 -7.72006,2.8881 8.1042994,9.5275231 0 0 0 -7.47576,-5.8519 z" />
      <g
         id="g7331"
         transform="translate(3.9687531)">
        <ellipse
           style="fill:#443825;fill-opacity:1;stroke-width:1.39814"
           id="ellipse7306"
           cx="129.50829"
           cy="-938.28094"
           rx="6.6319399"
           ry="10.279508" />
        <ellipse
           style="fill:#443825;fill-opacity:1;stroke-width:1.39814"
           id="ellipse7308"
           cx="182.14755"
           cy="-938.28094"
           rx="6.6319399"
           ry="10.279508" />
      </g>
      <g
         id="g7318"
         transform="matrix(6.365647,0,0,6.365647,-1609.5415,6487.9915)">
        <path
           id="path7310"
           style="opacity:1;fill:#443825;fill-opacity:1;stroke-width:0.264583"
           d="m 277.55339,-1165.5174 c -1.26923,0 -2.33307,0.8484 -2.65772,2.0113 -0.0677,0.258 -0.10181,0.5135 -0.10181,0.7488 v 0.9818 4.7708 h 6.31435 v -4.7708 -0.9818 c -0.0319,-0.2499 -0.0653,-0.4995 -0.10181,-0.7488 -0.32464,-1.1629 -1.38849,-2.0113 -2.65771,-2.0113 z"
           sodipodi:nodetypes="sccccccccss" />
        <rect
           style="opacity:1;fill:#f2a843;fill-opacity:1;stroke-width:0.264583"
           id="rect7312"
           width="4.723989"
           height="0.88861418"
           x="275.58905"
           y="-1156.3932"
           ry="0.37417734" />
        <path
           id="path7314"
           style="opacity:1;fill:#2d2418;fill-opacity:1;stroke-width:0.25201"
           d="m 277.95079,-1163.2174 a 2.0579753,3.5780709 0 0 0 -2.05775,3.5781 2.0579753,3.5780709 0 0 0 0.062,0.8656 h 3.99149 a 2.0579753,3.5780709 0 0 0 0.0625,-0.8656 2.0579753,3.5780709 0 0 0 -2.05828,-3.5781 z" />
        <path
           id="path7316"
           style="opacity:1;fill:#ec5d68;fill-opacity:1;stroke-width:0.26858"
           d="m 275.13958,-1157.0047 a 2.816705,2.3128709 0 0 1 2.81172,-2.2158 2.816705,2.3128709 0 0 1 2.81119,2.2158 z" />
      </g>
    </g>
  </g>
</svg>
