<?xml version="1.0" encoding="UTF-8" standalone="no"?>
<!-- Created with Inkscape (http://www.inkscape.org/) -->

<svg
   version="1.1"
   id="svg1"
   width="36.204994"
   height="72.69265"
   viewBox="0 0 36.204994 72.69265"
   sodipodi:docname="innocent.svg"
   inkscape:version="1.2.2 (732a01da63, 2022-12-09)"
   xmlns:inkscape="http://www.inkscape.org/namespaces/inkscape"
   xmlns:sodipodi="http://sodipodi.sourceforge.net/DTD/sodipodi-0.dtd"
   xmlns="http://www.w3.org/2000/svg"
   xmlns:svg="http://www.w3.org/2000/svg">
  <defs
     id="defs1" />
  <sodipodi:namedview
     id="namedview1"
     pagecolor="#ffffff"
     bordercolor="#cccccc"
     borderopacity="1"
     inkscape:showpageshadow="0"
     inkscape:pageopacity="1"
     inkscape:pagecheckerboard="0"
     inkscape:deskcolor="#d1d1d1"
     showgrid="false"
     inkscape:zoom="1.3125"
     inkscape:cx="-83.809524"
     inkscape:cy="53.333333"
     inkscape:window-width="1366"
     inkscape:window-height="705"
     inkscape:window-x="-8"
     inkscape:window-y="-8"
     inkscape:window-maximized="1"
     inkscape:current-layer="g1" />
  <g
     inkscape:groupmode="layer"
     inkscape:label="Image"
     id="g1"
     transform="translate(-238.6594,-147.27272)">
    <path
       style="display:inline;fill:#f6ca4b;fill-opacity:1;stroke-width:0.143298"
       d="m 238.84845,212.26308 c -0.008,-4.23626 -0.0595,-15.69831 -0.11403,-25.47122 -0.0546,-9.77291 -0.0565,-17.83342 -0.004,-17.91224 0.0522,-0.0788 0.13663,-0.4714 0.18754,-0.87237 0.28247,-2.2248 1.72654,-5.62049 3.25001,-7.6423 0.81999,-1.08819 3.05987,-3.45071 3.27159,-3.45071 0.0516,0 0.21797,0.2306 0.36975,0.51243 0.37168,0.69017 1.67776,1.87769 2.80647,2.55174 1.10509,0.65991 3.3542,1.42256 4.93578,1.67365 1.65484,0.26273 5.45327,0.23095 6.95612,-0.0582 3.3189,-0.63849 6.37214,-2.29831 7.45708,-4.05379 l 0.31402,-0.50809 1.06647,1.05168 c 2.19067,2.16029 3.63539,4.4357 4.54616,7.16003 0.99306,2.97054 0.9399,1.30953 0.9399,29.37671 v 25.34497 h -17.98384 -17.98393 z"
       id="path1514" />
    <ellipse
       style="display:inline;fill:#6b5b29;fill-opacity:1;stroke-width:0.681161"
       id="path2354"
       cx="256.7619"
       cy="168.84132"
       rx="18.102497"
       ry="17.058134" />
    <path
       style="display:inline;fill:#000000;stroke-width:0.143298"
       d="m 264.31369,172.85614 c 0.2123,-0.17381 0.33328,-0.48172 0.39409,-1.00309 l 0.0878,-0.75233 h -8.40289 -8.4029 v 0.78002 c 0,1.30373 -0.52687,1.22617 8.32729,1.22617 7.1119,0 7.71337,-0.019 7.99665,-0.25077 z"
       id="path1516" />
    <g
       id="g7461"
       transform="matrix(0.32157669,0,0,0.32157669,-16.119845,679.71782)"
       style="display:inline">
      <g
         id="g7455"
         transform="matrix(0.74373362,0,0,0.74373362,357.31706,-393.56002)">
        <path
           id="path7391"
           style="fill:#463825;fill-opacity:1;stroke-width:0.178301;stroke-opacity:0.98017"
           d="m 621.48365,-1601.3468 c -5.2192,0.992 -5.01327,4.3165 -5.0674,8.9759 1.19436,21.5725 20.57997,38.5044 44.09854,38.5167 23.75503,-0.013 43.24702,-17.275 44.12493,-39.0777 0.0558,-4.7083 -1.75099,-8.3134 -5.46335,-8.4149 z"
           sodipodi:nodetypes="cccccc" />
        <path
           id="path7397"
           style="fill:#ffffff;fill-opacity:1;stroke-width:0.192626;stroke-opacity:0.98017"
           d="m 697.58278,-1601.3471 v 5.7052 c 0,1.4081 -1.05488,2.5418 -2.36516,2.5418 h -69.37799 c -1.31029,0 -2.36516,-1.1337 -2.36516,-2.5418 v -5.7052" />
        <path
           id="path7399"
           style="fill:#ffffff;fill-opacity:1;stroke-width:0.207711;stroke-opacity:0.98017"
           d="m 697.58278,-1601.3471 v 6.6338 c 0,1.6373 -1.05488,2.9554 -2.36516,2.9554 h -69.37799 c -1.31029,0 -2.36516,-1.3181 -2.36516,-2.9554 v -6.6338" />
      </g>
    </g>
    <path
       style="display:inline;fill:#f6ca4b;fill-opacity:1;stroke-width:0.143298"
       d="m 264.19541,166.46047 c 1.13186,-0.007 2.09106,0.85861 2.09106,2.03902 v 0.50851 h -2.09637 -2.09651 l 0.0726,-0.64393 c 0.0958,-0.8497 0.66396,-1.58923 1.3876,-1.80604 0.21642,-0.0649 0.43204,-0.0962 0.64161,-0.0976 z"
       id="path5163" />
    <path
       style="display:inline;fill:#f6ca4b;fill-opacity:1;stroke-width:0.143298"
       d="m 246.99968,166.46047 c 1.13182,-0.007 2.09105,0.85861 2.09105,2.03902 v 0.50851 h -2.09636 -2.09652 l 0.0726,-0.64393 c 0.0958,-0.8497 0.66396,-1.58923 1.3876,-1.80604 0.21643,-0.0649 0.43202,-0.0962 0.64162,-0.0976 z"
       id="path5161" />
    <path
       style="display:inline;fill:#f6ca4b;fill-opacity:1;stroke-width:0.143298"
       d="m 254.67485,161.39981 c -1.61516,0.0768 -3.36238,0.0583 -5.78189,0.82375 l -0.66521,0.2363 c -1.39401,0.49513 -2.4483,1.56759 -3.00588,3.05787 -0.24813,0.66319 -0.29128,1.11713 -0.29128,3.06585 v 2.28731 h 11.83129 11.83132 l -0.0451,-2.47177 c -0.0423,-2.32194 -0.0679,-2.52074 -0.42259,-3.27722 -0.54208,-1.1561 -1.29422,-1.91865 -2.43835,-2.47209 -3.66851,-1.37696 -7.82303,-1.50604 -11.01236,-1.25 z"
       id="path5159" />
    <g
       id="g2300"
       style="display:inline"
       transform="matrix(0.32157669,0,0,0.32157669,-15.900465,680.73883)">
      <path
         style="fill:#443825;fill-opacity:1;stroke-width:0.675077"
         id="path1966"
         sodipodi:type="arc"
         sodipodi:cx="-821.16949"
         sodipodi:cy="1591.0902"
         sodipodi:rx="7.5052452"
         sodipodi:ry="8.6457739"
         sodipodi:start="0"
         sodipodi:end="3.1313889"
         sodipodi:arc-type="slice"
         d="m -813.66425,1591.0902 a 7.5052452,8.6457739 0 0 1 -7.46695,8.6457 7.5052452,8.6457739 0 0 1 -7.54315,-8.5575 l 7.50486,-0.088 z"
         transform="scale(-1)" />
      <path
         style="fill:#443825;fill-opacity:1;stroke-width:0.675077"
         id="path2296"
         sodipodi:type="arc"
         sodipodi:cx="-874.61536"
         sodipodi:cy="1591.0902"
         sodipodi:rx="7.5052452"
         sodipodi:ry="8.6457739"
         sodipodi:start="0"
         sodipodi:end="3.1313889"
         sodipodi:arc-type="slice"
         d="m -867.11011,1591.0902 a 7.5052452,8.6457739 0 0 1 -7.46696,8.6457 7.5052452,8.6457739 0 0 1 -7.54314,-8.5575 l 7.50485,-0.088 z"
         transform="scale(-1)" />
    </g>
    <ellipse
       style="display:inline;fill:none;fill-opacity:1;stroke:#97def4;stroke-width:2.03663;stroke-dasharray:none;stroke-opacity:1"
       id="path3175"
       cx="256.7619"
       cy="154.96521"
       rx="11.480575"
       ry="6.6741786" />
    <ellipse
       style="display:inline;fill:#eb5d67;fill-opacity:1;stroke:#ec5e69;stroke-width:1.89506;stroke-dasharray:none;stroke-opacity:1"
       id="path4582"
       cx="256.7619"
       cy="178.35049"
       rx="3.8713143"
       ry="1.9143862" />
  </g>
</svg>
