<?xml version="1.0" encoding="UTF-8" standalone="no"?>
<!-- Created with Inkscape (http://www.inkscape.org/) -->

<svg
   version="1.1"
   id="svg1"
   width="41.513176"
   height="83.512329"
   viewBox="0 0 41.513176 83.512329"
   sodipodi:docname="laugh.svg"
   inkscape:version="1.2.2 (732a01da63, 2022-12-09)"
   xmlns:inkscape="http://www.inkscape.org/namespaces/inkscape"
   xmlns:sodipodi="http://sodipodi.sourceforge.net/DTD/sodipodi-0.dtd"
   xmlns="http://www.w3.org/2000/svg"
   xmlns:svg="http://www.w3.org/2000/svg">
  <defs
     id="defs1">
    <inkscape:path-effect
       effect="bspline"
       id="path-effect4480"
       is_visible="true"
       lpeversion="1"
       weight="33.333333"
       steps="2"
       helper_size="0"
       apply_no_weight="true"
       apply_with_weight="true"
       only_selected="false" />
    <inkscape:path-effect
       effect="bspline"
       id="path-effect616"
       is_visible="true"
       lpeversion="1"
       weight="33.333333"
       steps="2"
       helper_size="0"
       apply_no_weight="true"
       apply_with_weight="true"
       only_selected="false" />
    <clipPath
       clipPathUnits="userSpaceOnUse"
       id="clipPath1381">
      <path
         id="path1383"
         style="fill:#463825;fill-opacity:1;stroke-width:0.109145;stroke-opacity:0.98017"
         d="m 320.44049,-233.70089 c -3.19488,0.6072 -3.06883,2.64229 -3.10195,5.49448 0.73112,13.20542 12.59782,23.5701 26.99449,23.57766 14.54142,-0.008 26.47325,-10.57478 27.01065,-23.92108 0.0342,-2.88215 -1.07186,-5.08893 -3.34434,-5.15106 z"
         sodipodi:nodetypes="cccccc" />
    </clipPath>
    <clipPath
       clipPathUnits="userSpaceOnUse"
       id="clipPath1377">
      <path
         id="path1379"
         style="fill:#463825;fill-opacity:1;stroke-width:0.109145;stroke-opacity:0.98017"
         d="m 320.44049,-233.70089 c -3.19488,0.6072 -3.06883,2.64229 -3.10195,5.49448 0.73112,13.20542 12.59782,23.5701 26.99449,23.57766 14.54142,-0.008 26.47325,-10.57478 27.01065,-23.92108 0.0342,-2.88215 -1.07186,-5.08893 -3.34434,-5.15106 z"
         sodipodi:nodetypes="cccccc" />
    </clipPath>
    <clipPath
       clipPathUnits="userSpaceOnUse"
       id="clipPath1373">
      <path
         id="path1375"
         style="fill:#463825;fill-opacity:1;stroke-width:0.109145;stroke-opacity:0.98017"
         d="m 320.44049,-233.70089 c -3.19488,0.6072 -3.06883,2.64229 -3.10195,5.49448 0.73112,13.20542 12.59782,23.5701 26.99449,23.57766 14.54142,-0.008 26.47325,-10.57478 27.01065,-23.92108 0.0342,-2.88215 -1.07186,-5.08893 -3.34434,-5.15106 z"
         sodipodi:nodetypes="cccccc" />
    </clipPath>
    <inkscape:path-effect
       effect="bspline"
       id="path-effect1927"
       is_visible="true"
       lpeversion="1"
       weight="33.333333"
       steps="2"
       helper_size="0"
       apply_no_weight="true"
       apply_with_weight="true"
       only_selected="false" />
    <inkscape:path-effect
       effect="bspline"
       id="path-effect3881"
       is_visible="true"
       lpeversion="1"
       weight="33.333333"
       steps="2"
       helper_size="0"
       apply_no_weight="true"
       apply_with_weight="true"
       only_selected="false" />
    <inkscape:path-effect
       effect="bspline"
       id="path-effect4422"
       is_visible="true"
       lpeversion="1"
       weight="33.333333"
       steps="2"
       helper_size="0"
       apply_no_weight="true"
       apply_with_weight="true"
       only_selected="false" />
    <clipPath
       clipPathUnits="userSpaceOnUse"
       id="clipPath3694">
      <path
         style="fill:#463825;fill-opacity:1;stroke-width:0.283887"
         d="m 1345.9283,-811.28773 c -2.8528,-1.74381 -6.5081,-5.29849 -8.0295,-7.80839 -1.3672,-2.25571 -2.4383,-5.10478 -2.9208,-7.76984 -0.5784,-3.19459 -0.5212,-4.07699 0.3296,-5.0882 0.6274,-0.74557 0.9287,-0.87334 2.0582,-0.87274 l 1.3233,5.3e-4 v 2.01194 c 0,3.34652 -1.3277,3.09677 16.4624,3.09677 h 15.1221 l 0.3559,-0.85902 c 0.5062,-1.22228 1.7,-1.97985 3.1197,-1.97985 1.4197,0 2.6135,0.75757 3.1197,1.97985 0.3055,0.73748 0.5046,0.85902 1.4075,0.85902 1.6663,0 2.286,-0.87083 2.286,-3.21203 v -1.89794 h 1.2523 c 1.0499,0 1.3712,0.14121 1.9872,0.87345 0.8501,1.01019 0.9076,1.88817 0.3329,5.0882 -1.1593,6.45524 -5.3177,12.32429 -11.161,15.75183 -11.4933,6.8356 -21.2176,2.52583 -27.0455,-0.17358 z m -3.5758,-26.05479 c -1.4698,-0.66748 -2.386,-2.09514 -2.386,-3.71782 0,-1.62269 0.9162,-3.05035 2.386,-3.71784 0.6395,-0.2904 1.4181,-0.52801 1.7305,-0.52801 1.0914,0 2.8888,1.04913 3.5047,2.0457 1.3015,2.10587 0.4632,4.90179 -1.7744,5.91797 -0.6393,0.29041 -1.4181,0.52803 -1.7303,0.52803 -0.3124,0 -1.091,-0.23762 -1.7305,-0.52803 z m 28.5589,-2.22741 c 0,-2.13676 1.9426,-4.04329 4.1153,-4.04329 2.1727,0 4.1132,1.90653 4.1153,4.04329 v 1.06458 h -4.1163 -4.1165 v -1.06458 z"
         id="path3696"
         sodipodi:nodetypes="csssscsscssssscsssccsssssssscssccccc" />
    </clipPath>
    <clipPath
       clipPathUnits="userSpaceOnUse"
       id="clipPath3690">
      <path
         style="fill:#463825;fill-opacity:1;stroke-width:0.283887"
         d="m 1345.9283,-811.28773 c -2.8528,-1.74381 -6.5081,-5.29849 -8.0295,-7.80839 -1.3672,-2.25571 -2.4383,-5.10478 -2.9208,-7.76984 -0.5784,-3.19459 -0.5212,-4.07699 0.3296,-5.0882 0.6274,-0.74557 0.9287,-0.87334 2.0582,-0.87274 l 1.3233,5.3e-4 v 2.01194 c 0,3.34652 -1.3277,3.09677 16.4624,3.09677 h 15.1221 l 0.3559,-0.85902 c 0.5062,-1.22228 1.7,-1.97985 3.1197,-1.97985 1.4197,0 2.6135,0.75757 3.1197,1.97985 0.3055,0.73748 0.5046,0.85902 1.4075,0.85902 1.6663,0 2.286,-0.87083 2.286,-3.21203 v -1.89794 h 1.2523 c 1.0499,0 1.3712,0.14121 1.9872,0.87345 0.8501,1.01019 0.9076,1.88817 0.3329,5.0882 -1.1593,6.45524 -5.3177,12.32429 -11.161,15.75183 -11.4933,6.8356 -21.2176,2.52583 -27.0455,-0.17358 z m -3.5758,-26.05479 c -1.4698,-0.66748 -2.386,-2.09514 -2.386,-3.71782 0,-1.62269 0.9162,-3.05035 2.386,-3.71784 0.6395,-0.2904 1.4181,-0.52801 1.7305,-0.52801 1.0914,0 2.8888,1.04913 3.5047,2.0457 1.3015,2.10587 0.4632,4.90179 -1.7744,5.91797 -0.6393,0.29041 -1.4181,0.52803 -1.7303,0.52803 -0.3124,0 -1.091,-0.23762 -1.7305,-0.52803 z m 28.5589,-2.22741 c 0,-2.13676 1.9426,-4.04329 4.1153,-4.04329 2.1727,0 4.1132,1.90653 4.1153,4.04329 v 1.06458 h -4.1163 -4.1165 v -1.06458 z"
         id="path3692"
         sodipodi:nodetypes="csssscsscssssscsssccsssssssscssccccc" />
    </clipPath>
  </defs>
  <sodipodi:namedview
     id="namedview1"
     pagecolor="#ffffff"
     bordercolor="#cccccc"
     borderopacity="1"
     inkscape:showpageshadow="0"
     inkscape:pageopacity="1"
     inkscape:pagecheckerboard="0"
     inkscape:deskcolor="#d1d1d1"
     showgrid="false"
     inkscape:zoom="1.3125"
     inkscape:cx="51.047619"
     inkscape:cy="83.047619"
     inkscape:window-width="1366"
     inkscape:window-height="705"
     inkscape:window-x="-8"
     inkscape:window-y="-8"
     inkscape:window-maximized="1"
     inkscape:current-layer="g1" />
  <g
     inkscape:groupmode="layer"
     inkscape:label="Image"
     id="g1"
     transform="translate(-364.3607,-126.33326)">
    <g
       id="g4180"
       transform="matrix(0.32157669,0,0,0.32157669,386.27132,455.28081)"
       style="display:inline">
      <path
         style="fill:#f6ca4b;fill-opacity:1;stroke-width:0.520433"
         d="m -67.964254,-854.95099 c 0.188832,-100.812 -0.04524,-93.47105 3.294321,-103.68352 4.829167,-14.76638 16.005428,-28.33543 29.601289,-35.93867 2.66626,-1.49111 4.579358,-3.2476 8.958869,-8.22612 9.361513,-10.6416 17.9932718,-20.1217 18.3211696,-20.1217 0.1711285,0 2.0364286,2.6933 4.1450458,5.985 2.1086173,3.2917 3.99358734,5.985 4.18890982,5.985 0.19473237,0 0.86705078,-1.0539 1.49275148,-2.342 0.6257007,-1.288 1.3363756,-2.3419 1.5791026,-2.3419 0.2429237,0 4.3427287,3.9613 9.1109177,8.8029 7.695076,7.81363 9.179173,9.07408 13.205216,11.21587 19.333778,10.28491 31.864511,28.34738 34.483563,49.70569 0.354649,2.89333 0.540727,35.06619 0.540727,93.54796 v 89.13794 H -3.5886804 -68.134989 Z m 75.0923453,-44.86767 c 1.7368555,-0.40926 4.4886797,-1.242 6.1149897,-1.85051 l 2.957179,-1.10642 v -2.91412 c 0,-5.07539 1.053522,-4.81758 -19.6860667,-4.81758 -20.8485593,0 -19.8668333,-0.23358 -19.8668333,4.72716 v 3.00454 l 2.740809,1.02546 c 6.620114,2.47691 11.6239496,3.2395 19.1174088,2.91339 3.0053696,-0.13081 6.8856581,-0.57265 8.6225135,-0.98192 z m 9.7358317,-37.98594 c 1.111548,-2.33065 3.028777,-3.55022 5.581542,-3.55022 2.552764,0 4.47019,1.21957 5.581541,3.55022 0.725624,1.52151 1.123743,1.79605 2.605283,1.79605 1.162887,0 2.176872,-0.42802 3.02622,-1.27743 1.114499,-1.11454 1.277366,-1.745 1.277366,-4.94412 v -3.66669 H -3.3160551 -41.567788 v 3.80377 c 0,3.78955 0.497256,5.15709 2.081669,5.72331 0.429395,0.15342 13.09113,0.29748 28.137058,0.32007 l 27.356555,0.0411 0.856429,-1.79605 z"
         id="path2303"
         sodipodi:nodetypes="cssssssssssssccccsscssscssssssssscccsssccs" />
      <path
         style="fill:#463825;fill-opacity:1;stroke-width:0.283887"
         d="m 1345.9283,-811.28773 c -2.8528,-1.74381 -6.5081,-5.29849 -8.0295,-7.80839 -1.3672,-2.25571 -2.4383,-5.10478 -2.9208,-7.76984 -0.5784,-3.19459 -0.5212,-4.07699 0.3296,-5.0882 0.6274,-0.74557 0.9287,-0.87334 2.0582,-0.87274 l 1.3233,5.4e-4 v 2.01194 c 0,3.34652 -1.3277,3.09677 16.4624,3.09677 h 15.1221 l 0.3559,-0.85902 c 0.5062,-1.22228 1.7,-1.97985 3.1197,-1.97985 1.4197,0 2.6135,0.75757 3.1197,1.97985 0.3055,0.73748 0.5046,0.85902 1.4075,0.85902 1.6663,0 2.286,-0.87083 2.286,-3.21203 v -1.89795 h 1.2523 c 1.0499,0 1.3712,0.14121 1.9872,0.87345 0.8501,1.01019 0.9076,1.88817 0.3329,5.0882 -1.1593,6.45524 -5.3177,12.32429 -11.161,15.75183 -11.4933,6.8356 -21.2176,2.52583 -27.0455,-0.17358 z m -3.5758,-26.05479 c -1.4698,-0.66748 -2.386,-2.09514 -2.386,-3.71782 0,-1.62269 0.9162,-3.05035 2.386,-3.71784 0.6395,-0.2904 1.4181,-0.52801 1.7305,-0.52801 1.0914,0 2.8888,1.04913 3.5047,2.0457 1.3015,2.10587 0.4632,4.90179 -1.7744,5.91797 -0.6393,0.29041 -1.4181,0.52803 -1.7303,0.52803 -0.3124,0 -1.091,-0.23762 -1.7305,-0.52803 z m 28.5589,-2.22741 c 0,-2.13676 1.9426,-4.04329 4.1153,-4.04329 2.1727,0 4.1132,1.90653 4.1153,4.04329 v 1.06458 h -4.1163 -4.1165 v -1.06458 z"
         id="path2338"
         sodipodi:nodetypes="csssscsscssssscsssccsssssssscssccccc"
         clip-path="url(#clipPath3694)"
         transform="matrix(1.9669937,0,0,1.9669937,-2677.8245,690.19545)" />
      <path
         id="rect3491-8"
         style="fill:#ffffff;fill-opacity:1;stroke-width:4.14217"
         d="m -44.790604,-947.53025 v 3.61575 c 0,7.53915 -2.6281,6.97633 32.586988,6.97633 h 29.93371 l 0.704577,-1.93517 c 1.001987,-2.75355 3.36533,-4.46072 6.175377,-4.46072 2.810441,0 5.17339,1.70717 6.175574,4.46072 0.604653,1.66143 0.998839,1.93517 2.786049,1.93517 3.298649,0 4.525266,-1.96221 4.525266,-7.23651 v -3.35557 z"
         sodipodi:nodetypes="ssccssssccs" />
      <path
         style="fill:#2d2418;fill-opacity:1;stroke-width:0.487839"
         d="m -18.690624,-912.08727 c -0.78647,-3.58084 1.095,-8.90643 4.31448,-12.2123 2.57906,-2.64825 5.8077298,-4.03169 9.9127198,-4.24748 2.995,-0.15746 3.90791001,0.007 6.49475,1.16759 5.73587,2.5741 9.6512202,9.43921 8.5948702,15.07006 l -0.32467,1.73063 H -4.0288942 -18.359294 Z m 15.4089098,-4.85057 c 1.767531,-1.3899 -0.516195,-4.21547 -0.722517,-6.06332 -0.206321,-1.84785 -0.446543,-4.95344 -0.508833,-5.02374 -0.113535,-0.12814 -0.121179,2.91998 -0.619736,4.96173 -0.129841,1.74199 -2.81627,4.80018 -0.742064,6.10342 1.161028,0.54571 1.870952,0.40312 2.59315,0.0219 z"
         id="path2340"
         sodipodi:nodetypes="ssscscccsccsccc" />
      <path
         id="path3514"
         style="fill:#ffffff;fill-opacity:1;stroke-width:2.72175"
         d="m 1371.2582,-807.00942 -0.073,-1.5149 c -0.1381,-2.8684 -0.643,-5.50205 -1.1228,-5.85654 -0.6401,-0.47293 -19.3897,-0.48553 -20.0224,-0.0154 -0.4922,0.36721 -0.9973,2.98067 -1.1361,5.87737 l -0.073,1.52239 0.1123,0.16096 c 12.5472,-0.10474 13.1356,-0.55187 22.3147,-0.17482 z"
         sodipodi:nodetypes="ccsccccc"
         clip-path="url(#clipPath3690)"
         transform="matrix(1.9669937,0,0,1.9669937,-2677.8245,690.19545)" />
    </g>
  </g>
</svg>
