<?xml version="1.0" encoding="UTF-8" standalone="no"?>
<!-- Created with Inkscape (http://www.inkscape.org/) -->

<svg
   version="1.1"
   id="svg1"
   width="50.999119"
   height="78.924126"
   viewBox="0 0 50.999118 78.924126"
   sodipodi:docname="crazy'.svg"
   inkscape:version="1.2.2 (732a01da63, 2022-12-09)"
   xmlns:inkscape="http://www.inkscape.org/namespaces/inkscape"
   xmlns:sodipodi="http://sodipodi.sourceforge.net/DTD/sodipodi-0.dtd"
   xmlns="http://www.w3.org/2000/svg"
   xmlns:svg="http://www.w3.org/2000/svg">
  <defs
     id="defs1">
    <inkscape:path-effect
       effect="bspline"
       id="path-effect4480"
       is_visible="true"
       lpeversion="1"
       weight="33.333333"
       steps="2"
       helper_size="0"
       apply_no_weight="true"
       apply_with_weight="true"
       only_selected="false" />
    <inkscape:path-effect
       effect="bspline"
       id="path-effect616"
       is_visible="true"
       lpeversion="1"
       weight="33.333333"
       steps="2"
       helper_size="0"
       apply_no_weight="true"
       apply_with_weight="true"
       only_selected="false" />
    <clipPath
       clipPathUnits="userSpaceOnUse"
       id="clipPath1381">
      <path
         id="path1383"
         style="fill:#463825;fill-opacity:1;stroke-width:0.109145;stroke-opacity:0.98017"
         d="m 320.44049,-233.70089 c -3.19488,0.6072 -3.06883,2.64229 -3.10195,5.49448 0.73112,13.20542 12.59782,23.5701 26.99449,23.57766 14.54142,-0.008 26.47325,-10.57478 27.01065,-23.92108 0.0342,-2.88215 -1.07186,-5.08893 -3.34434,-5.15106 z"
         sodipodi:nodetypes="cccccc" />
    </clipPath>
    <clipPath
       clipPathUnits="userSpaceOnUse"
       id="clipPath1377">
      <path
         id="path1379"
         style="fill:#463825;fill-opacity:1;stroke-width:0.109145;stroke-opacity:0.98017"
         d="m 320.44049,-233.70089 c -3.19488,0.6072 -3.06883,2.64229 -3.10195,5.49448 0.73112,13.20542 12.59782,23.5701 26.99449,23.57766 14.54142,-0.008 26.47325,-10.57478 27.01065,-23.92108 0.0342,-2.88215 -1.07186,-5.08893 -3.34434,-5.15106 z"
         sodipodi:nodetypes="cccccc" />
    </clipPath>
    <clipPath
       clipPathUnits="userSpaceOnUse"
       id="clipPath1373">
      <path
         id="path1375"
         style="fill:#463825;fill-opacity:1;stroke-width:0.109145;stroke-opacity:0.98017"
         d="m 320.44049,-233.70089 c -3.19488,0.6072 -3.06883,2.64229 -3.10195,5.49448 0.73112,13.20542 12.59782,23.5701 26.99449,23.57766 14.54142,-0.008 26.47325,-10.57478 27.01065,-23.92108 0.0342,-2.88215 -1.07186,-5.08893 -3.34434,-5.15106 z"
         sodipodi:nodetypes="cccccc" />
    </clipPath>
    <inkscape:path-effect
       effect="bspline"
       id="path-effect1927"
       is_visible="true"
       lpeversion="1"
       weight="33.333333"
       steps="2"
       helper_size="0"
       apply_no_weight="true"
       apply_with_weight="true"
       only_selected="false" />
    <inkscape:path-effect
       effect="bspline"
       id="path-effect3881"
       is_visible="true"
       lpeversion="1"
       weight="33.333333"
       steps="2"
       helper_size="0"
       apply_no_weight="true"
       apply_with_weight="true"
       only_selected="false" />
    <inkscape:path-effect
       effect="bspline"
       id="path-effect4422"
       is_visible="true"
       lpeversion="1"
       weight="33.333333"
       steps="2"
       helper_size="0"
       apply_no_weight="true"
       apply_with_weight="true"
       only_selected="false" />
  </defs>
  <sodipodi:namedview
     id="namedview1"
     pagecolor="#ffffff"
     bordercolor="#cccccc"
     borderopacity="1"
     inkscape:showpageshadow="0"
     inkscape:pageopacity="1"
     inkscape:pagecheckerboard="0"
     inkscape:deskcolor="#d1d1d1"
     showgrid="false"
     inkscape:zoom="1.3125"
     inkscape:cx="117.33333"
     inkscape:cy="70.095238"
     inkscape:window-width="1366"
     inkscape:window-height="705"
     inkscape:window-x="-8"
     inkscape:window-y="-8"
     inkscape:window-maximized="1"
     inkscape:current-layer="g1" />
  <g
     inkscape:groupmode="layer"
     inkscape:label="Image"
     id="g1"
     transform="translate(-295.17457,-130.54139)">
    <g
       id="g573"
       transform="matrix(0.56541723,0,0,0.56541723,259.99903,99.981306)"
       style="display:inline">
      <path
         id="path553"
         style="fill:#f6ca4b;fill-opacity:1;stroke-width:0.0951335;stroke-opacity:0.98017"
         d="m 73.258143,85.603695 h -0.07028 V 87.395889 193.63438 H 140.5078 V 87.395889 85.603695 h -0.0543 c -7.83536,-41.792612 -60.037883,-42.353012 -67.195357,0 z"
         sodipodi:nodetypes="ccccccccc" />
      <path
         id="path555"
         style="fill:#d75f38;fill-opacity:1;stroke-width:0.799793;stroke-opacity:0.98017"
         d="m 72.508626,66.399905 c -1.13935,0.005 -2.39904,0.2244 -3.74688,0.82527 -3.59431,1.60215 -7.80413,5.92847 -6.19834,10.90977 1.60578,4.98137 9.02407,10.6184 12.73449,13.43792 1.6326,1.07769 3.11413,2.51454 4.29067,3.81292 0.002,5.3e-4 0.005,-4.1e-4 0.007,0 2.88792,-2.96144 2.28644,-2.29959 4.28656,-3.81292 3.71036,-2.81952 11.13215,-8.45655 12.73793,-13.43792 1.60579,-4.9813 -2.60403,-9.30769 -6.19834,-10.90977 -6.41048,-2.20855 -10.70135,1.73678 -10.82965,3.84526 -0.47574,-3.92491 -3.79594,-4.64761 -7.08284,-4.67066 z"
         sodipodi:nodetypes="sssccccscccs" />
      <path
         id="path557"
         style="fill:#d75f38;fill-opacity:1;stroke-width:0.799793;stroke-opacity:0.98017"
         d="m 127.94577,66.399904 c -1.13935,0.005 -2.39904,0.2244 -3.74688,0.82527 -3.59431,1.60215 -7.80413,5.92847 -6.19834,10.90977 1.60578,4.98137 9.02407,10.6184 12.73449,13.43792 1.6326,1.07769 3.11413,2.51454 4.29067,3.81292 0.002,5.3e-4 0.005,-4.1e-4 0.007,0 2.88792,-2.961439 2.28644,-2.299589 4.28656,-3.81292 3.71036,-2.81952 11.13215,-8.45655 12.73793,-13.43792 1.60579,-4.9813 -2.60403,-9.30769 -6.19834,-10.90977 -6.41048,-2.20855 -10.70135,1.73678 -10.82965,3.84526 -0.47574,-3.92491 -3.79594,-4.64761 -7.08284,-4.67066 z"
         sodipodi:nodetypes="sssccccscccs" />
      <ellipse
         style="fill:#f2a743;fill-opacity:1;stroke-width:0.0497272;stroke-opacity:0.98017"
         id="ellipse559"
         cx="135.02887"
         cy="99.993019"
         rx="4.2090788"
         ry="2.6792138" />
      <ellipse
         style="fill:#f2a743;fill-opacity:1;stroke-width:0.0497272;stroke-opacity:0.98017"
         id="ellipse561"
         cx="79.591728"
         cy="99.993019"
         rx="4.2090788"
         ry="2.6792138" />
      <g
         id="g571"
         transform="translate(0.9028357)">
        <path
           id="path563"
           style="fill:#463825;fill-opacity:1;stroke-width:0.0804959;stroke-opacity:0.98017"
           d="m 89.422793,97.334388 c -2.070275,0.509687 -0.843609,12.028772 -0.865077,14.422882 0.47376,11.08456 7.983431,15.74319 17.312424,15.74953 9.42279,-0.007 17.33449,-4.83499 17.68272,-16.0378 0.0221,-2.41924 0.57765,-13.948075 -0.89491,-14.000225 z"
           sodipodi:nodetypes="cccccc" />
        <path
           id="path565"
           style="fill:#ffffff;fill-opacity:1;stroke-width:0.093773;stroke-opacity:0.98017"
           d="m 120.75362,96.931038 v 3.408582 c 0,0.8413 -0.41843,1.51858 -0.93817,1.51858 H 92.295638 c -0.519748,0 -0.938175,-0.67728 -0.938175,-1.51858 v -3.408582" />
        <path
           id="path567"
           style="fill:#ec5d68;fill-opacity:1;stroke-width:0.0974818;stroke-opacity:0.98017"
           d="m 96.111446,125.28044 c 0.101338,0.0554 0.20356,0.10974 0.306441,0.16302 0.112983,0.0585 0.226775,0.11596 0.341582,0.17188 0.114806,0.0559 0.230158,0.11017 0.346748,0.16352 0.116591,0.0533 0.234099,0.10538 0.352434,0.15616 0.118334,0.0508 0.237562,0.10056 0.357601,0.14879 0.120038,0.0483 0.241065,0.0952 0.362768,0.14094 0.121703,0.0457 0.244092,0.0899 0.36742,0.13308 0.123327,0.0432 0.247674,0.085 0.372587,0.12572 0.124912,0.0407 0.25078,0.0802 0.377238,0.11834 0.126457,0.0382 0.253409,0.0753 0.381372,0.11098 0.127963,0.0357 0.256594,0.0699 0.386023,0.10313 0.12943,0.0332 0.25982,0.0655 0.39067,0.0962 0.13086,0.0308 0.26205,0.0601 0.39429,0.0884 0.13224,0.0283 0.26536,0.0556 0.39895,0.0815 0.13358,0.0259 0.26766,0.0507 0.40256,0.0742 0.13489,0.0235 0.27053,0.0457 0.40669,0.0668 0.13616,0.0211 0.27293,0.0412 0.41031,0.0599 0.13739,0.0187 0.27536,0.0362 0.41393,0.0525 0.13857,0.0163 0.27783,0.0312 0.41754,0.0452 0.13972,0.014 0.27982,0.0272 0.42065,0.0388 0.14083,0.0116 0.28237,0.0217 0.42426,0.031 0.1419,0.009 0.28445,0.0176 0.42737,0.0245 0.14292,0.007 0.28604,0.013 0.42995,0.0177 0.14391,0.005 0.2887,0.008 0.43356,0.0103 0.14486,0.002 0.28987,0.004 0.43563,0.004 0.14723,-1e-4 0.29433,-0.001 0.4408,-0.004 0.14647,-0.002 0.29256,-0.006 0.43822,-0.0108 0.14566,-0.005 0.29082,-0.011 0.43563,-0.0182 0.14481,-0.007 0.28914,-0.0159 0.43305,-0.0255 0.14391,-0.01 0.2875,-0.0204 0.43047,-0.0324 0.14296,-0.012 0.28539,-0.0253 0.42736,-0.0398 0.14197,-0.0145 0.28333,-0.0298 0.42426,-0.0467 0.14094,-0.0169 0.28132,-0.0352 0.42117,-0.0545 0.13985,-0.0193 0.27934,-0.0396 0.41806,-0.0614 0.13872,-0.0218 0.2769,-0.045 0.41444,-0.0692 0.13755,-0.0242 0.27451,-0.0494 0.41083,-0.0761 0.13632,-0.0267 0.27164,-0.0548 0.40669,-0.084 0.13506,-0.0292 0.26986,-0.0596 0.4036,-0.0913 0.13373,-0.0317 0.26656,-0.065 0.39894,-0.0992 0.13238,-0.0342 0.26384,-0.0698 0.39481,-0.10655 0.13097,-0.0368 0.26167,-0.0746 0.39119,-0.11393 0.12951,-0.0393 0.25801,-0.0799 0.38602,-0.12178 0.12802,-0.0418 0.25542,-0.0848 0.38189,-0.12916 0.12647,-0.0444 0.25184,-0.09 0.37672,-0.13701 0.12488,-0.047 0.24935,-0.0953 0.37259,-0.14486 0.12324,-0.0496 0.24535,-0.10056 0.3669,-0.15272 0.12156,-0.0522 0.24243,-0.10532 0.36225,-0.16009 0.11983,-0.0548 0.23852,-0.11104 0.35657,-0.16843 0.11805,-0.0574 0.23518,-0.11628 0.3514,-0.1763 0.11622,-0.06 0.23188,-0.12099 0.34623,-0.18365 0.0312,-0.0171 0.0615,-0.0353 0.0925,-0.0525 a 11.031428,8.3325182 0 0 0 -9.88105,-4.63027 11.031428,8.3325182 0 0 0 -9.960114,4.76384 z" />
        <path
           id="path569"
           style="fill:#2d2418;fill-opacity:1;stroke-width:0.0783336;stroke-opacity:0.98017"
           d="m 106.03177,113.79685 a 5.6823983,6.047796 0 0 0 -5.68234,6.04748 5.6823983,6.047796 0 0 0 0.25477,1.77373 11.031428,8.3325182 0 0 1 0.10852,-0.0486 11.031428,8.3325182 0 0 1 0.5519,-0.21705 11.031428,8.3325182 0 0 1 0.56637,-0.19299 11.031428,8.3325182 0 0 1 0.58033,-0.16844 11.031428,8.3325182 0 0 1 0.59221,-0.14388 11.031428,8.3325182 0 0 1 0.60203,-0.11835 11.031428,8.3325182 0 0 1 0.60927,-0.0923 11.031428,8.3325182 0 0 1 0.61546,-0.0663 11.031428,8.3325182 0 0 1 0.6196,-0.0398 11.031428,8.3325182 0 0 1 0.62167,-0.0138 11.031428,8.3325182 0 0 1 0.61185,0.0128 11.031428,8.3325182 0 0 1 0.6103,0.0388 11.031428,8.3325182 0 0 1 0.60668,0.0638 11.031428,8.3325182 0 0 1 0.60048,0.0894 11.031428,8.3325182 0 0 1 0.59325,0.11441 11.031428,8.3325182 0 0 1 0.58394,0.13898 11.031428,8.3325182 0 0 1 0.57309,0.16352 11.031428,8.3325182 0 0 1 0.55966,0.1871 11.031428,8.3325182 0 0 1 0.5457,0.21017 11.031428,8.3325182 0 0 1 0.11266,0.0496 5.6823983,6.047796 0 0 0 0.24546,-1.74083 5.6823983,6.047796 0 0 0 -5.68286,-6.04748 z" />
      </g>
    </g>
  </g>
</svg>
