<?xml version="1.0" encoding="UTF-8" standalone="no"?>
<!-- Created with Inkscape (http://www.inkscape.org/) -->

<svg
   version="1.1"
   id="svg1"
   width="36.204994"
   height="72.69265"
   viewBox="0 0 36.204994 72.69265"
   sodipodi:docname="smile.svg"
   inkscape:version="1.2.2 (732a01da63, 2022-12-09)"
   xmlns:inkscape="http://www.inkscape.org/namespaces/inkscape"
   xmlns:sodipodi="http://sodipodi.sourceforge.net/DTD/sodipodi-0.dtd"
   xmlns="http://www.w3.org/2000/svg"
   xmlns:svg="http://www.w3.org/2000/svg">
  <defs
     id="defs1">
    <inkscape:path-effect
       effect="fillet_chamfer"
       id="path-effect1600"
       is_visible="true"
       lpeversion="1"
       nodesatellites_param="F,0,1,1,0,1.2405164,0,1 @ F,0,0,1,0,0,0,1 @ F,0,0,1,0,1.2405164,0,1"
       unit="px"
       method="auto"
       mode="F"
       radius="0"
       chamfer_steps="1"
       flexible="false"
       use_knot_distance="true"
       apply_no_radius="true"
       apply_with_radius="true"
       only_selected="false"
       hide_knots="false" />
    <inkscape:path-effect
       effect="bspline"
       id="path-effect2679"
       is_visible="true"
       lpeversion="1"
       weight="33.333333"
       steps="2"
       helper_size="0"
       apply_no_weight="true"
       apply_with_weight="true"
       only_selected="false" />
    <inkscape:path-effect
       effect="bspline"
       id="path-effect3541"
       is_visible="true"
       lpeversion="1"
       weight="33.333333"
       steps="2"
       helper_size="0"
       apply_no_weight="true"
       apply_with_weight="true"
       only_selected="false" />
  </defs>
  <sodipodi:namedview
     id="namedview1"
     pagecolor="#ffffff"
     bordercolor="#cccccc"
     borderopacity="1"
     inkscape:showpageshadow="0"
     inkscape:pageopacity="1"
     inkscape:pagecheckerboard="0"
     inkscape:deskcolor="#d1d1d1"
     showgrid="false"
     inkscape:zoom="5.25"
     inkscape:cx="43.238095"
     inkscape:cy="38.476191"
     inkscape:window-width="1366"
     inkscape:window-height="705"
     inkscape:window-x="-8"
     inkscape:window-y="-8"
     inkscape:window-maximized="1"
     inkscape:current-layer="g1" />
  <g
     inkscape:groupmode="layer"
     inkscape:label="Image"
     id="g1"
     transform="translate(-238.6594,-147.27272)">
    <g
       id="g4213"
       transform="matrix(0.47530793,0,0,0.47530793,489.33551,599.09329)"
       style="display:inline">
      <path
         id="path2453"
         style="fill:#f6ca4b;fill-opacity:1;stroke-width:0.0951335;stroke-opacity:0.98017"
         d="m -490.74311,-949.386 c -0.24732,-0.008 -0.66957,0.0898 -1.32705,0.29698 -1.7533,0.5526 -5.17814,1.87873 -7.25692,3.60964 -2.07879,1.73091 -2.8111,3.86661 -3.50263,4.60302 -0.69153,0.73642 -1.34242,0.0738 -1.74925,-0.36807 -0.40683,-0.44182 -0.56966,-0.66305 -1.50533,-1.69398 -0.93568,-1.03092 -2.64431,-2.8715 -3.53932,-3.79204 -0.89501,-0.92054 -0.97632,-0.92052 -1.62729,-0.14732 -0.65098,0.77319 -1.8717,2.31927 -2.60398,4.19706 -0.73228,1.87779 -0.97614,4.08692 -0.36587,6.29606 0.61027,2.20915 2.07484,4.41853 2.80707,5.81762 0.18428,0.35211 0.32204,0.65207 0.43821,0.90685 -7.4878,5.67677 -12.07738,14.11709 -12.61938,23.20733 h -0.0703 v 1.79219 106.23848 h 67.31992 v -106.23848 -1.79219 h -0.0543 c -0.60538,-10.19233 -6.28983,-19.49839 -15.30139,-25.05003 0.0568,-0.64503 0.0535,-1.79973 -0.30479,-2.30091 -0.89497,-1.25189 -1.78984,-1.62009 -3.05098,-2.02511 -1.26115,-0.40502 -3.17115,-0.7828 -4.67639,-1.26144 -1.50524,-0.47864 -2.95946,-0.54632 -4.30197,-0.95134 -1.34251,-0.40502 -2.64399,-0.69923 -3.74241,-1.10422 -1.09842,-0.40498 -1.99354,-0.9206 -2.84789,-1.7674 -0.85435,-0.84681 -1.66815,-2.02503 -1.58285,-3.46139 0.0853,-1.43635 1.06987,-3.13045 1.52136,-4.08809 0.28218,-0.59853 0.35587,-0.90925 -0.0563,-0.92322 z"
         sodipodi:nodetypes="sssssssssssccccccccccsssssscss" />
      <g
         id="g2471"
         transform="matrix(1,0,0,0.90503843,-597.20793,-885.97311)">
        <g
           id="g2465"
           transform="translate(-2.0921965,-4.7625002)">
          <path
             id="path2455"
             style="fill:#463825;fill-opacity:1;stroke-width:0.101342;stroke-opacity:0.98017"
             d="m 88.182716,-13.775702 c -2.822107,0.59264 -2.71076,2.578888 -2.740024,5.3626361 0.645808,12.8885386 11.127917,23.0044979 23.844788,23.0118669 12.84473,-0.0076 23.38436,-10.3210198 23.85906,-23.3470599 0.0302,-2.8129691 -0.94679,-4.9668091 -2.95412,-5.0274431 z"
             sodipodi:nodetypes="cccccc" />
          <rect
             style="fill:#ec5d68;fill-opacity:1;stroke-width:0.0954088;stroke-opacity:0.98017"
             id="rect2457"
             width="14.869312"
             height="32.385849"
             x="102.36434"
             y="-13.466925"
             ry="7.9568672" />
          <path
             id="path2459"
             style="fill:#cf535d;fill-opacity:1;stroke-width:0.108137;stroke-opacity:0.98017"
             d="m 117.10981,-8.8487519 h -14.62144 c -0.0802,0.603861 -0.12432,1.225307 -0.12432,1.861984 V 4.8008757 c 0,-0.088484 6.8e-4,-0.1764637 0.002,-0.2643926 0.002,-0.087932 0.004,-0.1758605 0.007,-0.2632094 0.003,-0.087352 0.007,-0.174099 0.012,-0.2608438 0.005,-0.086738 0.0103,-0.1729559 0.0166,-0.259069 0.006,-0.086123 0.0133,-0.1724302 0.0212,-0.2578857 0.008,-0.085455 0.0164,-0.1701582 0.0258,-0.2549294 0.009,-0.084769 0.0195,-0.1696842 0.0304,-0.2537462 0.0109,-0.084056 0.0227,-0.1674621 0.035,-0.2507882 0.0123,-0.083325 0.0254,-0.1664507 0.0391,-0.2490132 0.0138,-0.082559 0.0285,-0.164283 0.0437,-0.2460561 0.0152,-0.081766 0.0308,-0.1639168 0.0474,-0.2448747 0.0166,-0.080955 0.034,-0.1612108 0.052,-0.241324 0.018,-0.080109 0.0368,-0.1591206 0.0562,-0.2383678 0.0194,-0.079235 0.0395,-0.1588319 0.0603,-0.2371836 0.0208,-0.078345 0.0423,-0.1562053 0.0645,-0.2336348 0.0221,-0.077427 0.0447,-0.15419612 0.0681,-0.23067852 0.0469,-0.1529648 0.0967,-0.303466 0.14872,-0.4524837 0.052,-0.149016 0.1064,-0.2963889 0.16346,-0.4412448 0.0571,-0.1448559 0.11672,-0.2877481 0.17864,-0.4282328 0.0619,-0.1404874 0.12629,-0.2787233 0.19292,-0.4146292 0.0666,-0.13590598 0.13555,-0.26932158 0.20674,-0.40043398 0.0712,-0.1311133 0.14449,-0.259535 0.22008,-0.3856454 0.0756,-0.1261104 0.1536,-0.2499622 0.23344,-0.3708585 0.0798,-0.120891 0.16148,-0.2388239 0.24541,-0.3542986 0.0839,-0.1154721 0.16996,-0.2284903 0.25784,-0.3383268 0.0878,-0.1098348 0.17768,-0.2165947 0.26936,-0.3205828 0.0917,-0.1039863 0.18555,-0.2054983 0.28086,-0.3034312 0.0953,-0.09793 0.1922,-0.1928365 0.29099,-0.2845023 0.0988,-0.09167 0.19946,-0.1797986 0.30158,-0.2649842 0.10213,-0.085187 0.20549,-0.1669693 0.3108,-0.2454653 0.10529,-0.078496 0.21213,-0.1537587 0.32045,-0.225354 0.10833,-0.071591 0.21848,-0.1395777 0.32967,-0.2040621 0.0556,-0.032254 0.11131,-0.063625 0.1676,-0.094045 0.0563,-0.030427 0.11294,-0.059554 0.1699,-0.088128 0.0569,-0.028583 0.11414,-0.056676 0.17174,-0.083397 0.0576,-0.026703 0.1158,-0.052069 0.17404,-0.076892 0.0583,-0.024805 0.11657,-0.048692 0.17542,-0.071573 0.0589,-0.022889 0.11829,-0.045307 0.17773,-0.066245 0.0594,-0.020947 0.1191,-0.040772 0.17911,-0.059741 0.0601,-0.018969 0.12038,-0.036851 0.18094,-0.053825 0.0606,-0.016964 0.12123,-0.032958 0.18234,-0.047908 0.0611,-0.014933 0.12255,-0.028512 0.18417,-0.041404 0.0617,-0.012893 0.12343,-0.024698 0.18555,-0.035488 0.0621,-0.010763 0.12434,-0.021482 0.18694,-0.030169 0.0626,-0.00873 0.12572,-0.015922 0.18877,-0.02248 0.0631,-0.00668 0.12621,-0.0121 0.1897,-0.016563 0.0635,-0.00445 0.12716,-0.00704 0.19108,-0.00946 0.0639,-0.00214 0.12815,-0.0041 0.19247,-0.0041 h 0.009 c 0.0643,0 0.12854,0.00196 0.19245,0.0041 0.0639,0.00214 0.12759,0.00499 0.19108,0.00946 0.0635,0.00445 0.12665,0.01005 0.1897,0.016563 0.0631,0.00668 0.12572,0.013793 0.18831,0.02248 0.0626,0.00873 0.12528,0.01937 0.1874,0.030169 0.0621,0.010754 0.12393,0.022613 0.18555,0.035488 0.0617,0.012875 0.12307,0.026454 0.18418,0.041404 0.0611,0.014933 0.12176,0.030944 0.18233,0.047908 0.0606,0.016965 0.12093,0.034856 0.18095,0.053825 0.0601,0.018969 0.11966,0.038802 0.17911,0.059741 0.0594,0.020938 0.11841,0.043355 0.17726,0.066245 0.0589,0.022889 0.11764,0.046759 0.17589,0.071573 0.0583,0.024805 0.11597,0.050163 0.17358,0.076892 0.0576,0.026703 0.11524,0.054805 0.1722,0.083397 0.0569,0.028583 0.11315,0.057709 0.16944,0.088128 0.0563,0.030418 0.11246,0.06179 0.16805,0.094045 0.11119,0.06449 0.22089,0.1324659 0.32921,0.2040621 0.10833,0.071591 0.21517,0.146857 0.32046,0.225354 0.1053,0.078496 0.20913,0.1602789 0.31125,0.2454653 0.10213,0.085179 0.20279,0.1733185 0.30158,0.2649842 0.0988,0.09167 0.19569,0.1865711 0.291,0.2845023 0.0953,0.09793 0.18873,0.1994396 0.2804,0.3034312 0.0917,0.1039845 0.18147,0.2107454 0.26935,0.3205828 0.0878,0.1098347 0.1739,0.2228556 0.25784,0.3383268 0.0839,0.1154747 0.16603,0.2334022 0.24587,0.3542986 0.0798,0.1209026 0.15738,0.2447481 0.23298,0.3708585 0.0756,0.1261104 0.14936,0.2545321 0.22055,0.3856454 0.0712,0.1311124 0.1401,0.264528 0.20673,0.40043398 0.0666,0.1359059 0.131,0.2741418 0.19292,0.4146292 0.0619,0.1404847 0.12112,0.2833769 0.17819,0.4282328 0.057,0.1448559 0.11186,0.2922288 0.16391,0.4412448 0.052,0.1490177 0.10138,0.2995189 0.14826,0.4524837 0.0234,0.076482 0.0465,0.1532481 0.0686,0.23067852 0.0221,0.077436 0.0432,0.1552849 0.064,0.2336348 0.0208,0.078345 0.0409,0.1579383 0.0603,0.2371836 0.0194,0.079245 0.0381,0.1582528 0.0562,0.2383678 0.018,0.080109 0.0354,0.160368 0.052,0.241324 0.0167,0.080955 0.0327,0.1631016 0.0478,0.2448747 0.0152,0.081766 0.0299,0.1634953 0.0437,0.2460561 0.0138,0.082559 0.0268,0.1656898 0.0391,0.2490132 0.0123,0.083325 0.0237,0.1667279 0.0346,0.2507882 0.0109,0.084056 0.021,0.1689731 0.0304,0.2537462 0.009,0.084769 0.0179,0.1694721 0.0257,0.2549294 0.008,0.085455 0.0153,0.1717709 0.0217,0.2578857 0.006,0.086114 0.0118,0.1723233 0.0166,0.259069 0.004,0.086738 0.009,0.1734931 0.0119,0.2608438 0.004,0.087352 0.005,0.1752814 0.007,0.2632094 0.002,0.087932 0.003,0.1759113 0.003,0.2643926 V -6.9867679 c 0,-0.636677 -0.0436,-1.258123 -0.12385,-1.861984 z" />
          <path
             id="path2461"
             style="fill:#ffffff;fill-opacity:1;stroke-width:0.109484;stroke-opacity:0.98017"
             d="m 129.33074,-13.775891 v 3.408575 c 0,0.8412861 -0.57039,1.5185671 -1.27888,1.5185671 H 90.538063 c -0.708497,0 -1.278878,-0.677281 -1.278878,-1.5185671 v -3.408575" />
          <path
             id="path2463"
             style="fill:#ffffff;fill-opacity:1;stroke-width:0.118058;stroke-opacity:0.98017"
             d="m 129.33074,-13.775891 v 3.9633461 c 0,0.978212 -0.57039,1.765726 -1.27888,1.765726 H 90.538063 c -0.708497,0 -1.278878,-0.787514 -1.278878,-1.765726 v -3.9633461" />
        </g>
        <circle
           style="fill:#443825;fill-opacity:1;stroke-width:0.1;stroke-opacity:0.98017"
           id="circle2467"
           cx="91.404663"
           cy="-26.201338"
           r="3.4001734" />
        <rect
           style="fill:#443825;fill-opacity:1;stroke-width:0.0541293;stroke-opacity:0.98017"
           id="rect2469"
           width="11.918775"
           height="3.1469359"
           x="113.91103"
           y="-27.774805"
           ry="1.573468" />
      </g>
    </g>
    <g
       id="g3188"
       transform="matrix(2.5456825,0,0,2.5456825,128.68749,3085.9112)"
       style="display:inline">
      <rect
         style="opacity:1;fill:#f6ca4b;fill-opacity:1;stroke-width:0.27288"
         id="rect659"
         width="18.194372"
         height="28.032341"
         x="320.20151"
         y="-1161.9717" />
      <ellipse
         style="fill:#f6ca4b;fill-opacity:1;stroke-width:0.284424"
         id="path736"
         cx="329.29871"
         cy="-1161.9717"
         rx="9.097187"
         ry="9.2688198" />
      <path
         style="fill:#463825;fill-opacity:1;stroke-width:0.235666"
         d="m 321.96156,-1161.9928 c 0.59004,3.6233 3.7341,6.389 7.5242,6.3891 3.79013,0 6.93424,-2.7658 7.52428,-6.3891 0.11,-0.6755 -0.45593,-1.2352 -1.14105,-1.2352 h -12.76638 c -0.68512,0 -1.25105,0.5597 -1.14105,1.2352 z"
         id="path1128"
         inkscape:path-effect="#path-effect1600"
         inkscape:original-d="m 321.86209,-1163.228 a 7.6238466,7.6238466 0 0 0 7.62367,7.6243 7.6238466,7.6238466 0 0 0 7.62375,-7.6243 z" />
      <path
         id="rect2610"
         style="fill:#ecf1f4;stroke-width:0.264583"
         d="m 324.07631,-1163.228 0.12402,0.942 c 0.0576,0.4367 0.45575,0.7419 0.89247,0.6843 0.43671,-0.058 0.74181,-0.4553 0.68419,-0.892 l -0.0967,-0.7344 z m 8.96483,0 -0.0966,0.7344 c -0.0576,0.4367 0.24747,0.8348 0.6842,0.8924 0.4367,0.058 0.83483,-0.248 0.89245,-0.6847 l 0.12402,-0.9422 z" />
      <path
         style="fill:#443825;fill-opacity:1;stroke-width:0.264583"
         d="m 332.56748,-1165.5309 c 0.0291,-0.1234 0.0874,-0.3702 0.23,-0.5582 0.14264,-0.188 0.36967,-0.3171 0.56264,-0.3774 0.19297,-0.06 0.36177,-0.051 0.49623,-0.019 0.13446,0.033 0.25582,0.093 0.37645,0.1947 0.12063,0.1014 0.25186,0.2503 0.35045,0.3893 0.0986,0.139 0.16946,0.2764 0.20956,0.4363 0.0401,0.1599 0.058,0.3588 0.0441,0.5463 -0.0139,0.1875 -0.0595,0.3636 -0.13142,0.4876 -0.072,0.1239 -0.19394,0.2131 -0.28038,0.2381 -0.0865,0.025 -0.18261,0.01 -0.27498,-0.031 -0.0924,-0.039 -0.19246,-0.1022 -0.25725,-0.1779 -0.0648,-0.076 -0.10233,-0.1883 -0.12177,-0.3254 -0.0195,-0.1372 -0.0259,-0.3159 -0.0764,-0.4188 -0.0505,-0.103 -0.20871,-0.1532 -0.32883,-0.1609 -0.12013,-0.01 -0.2492,0.016 -0.35132,0.059 -0.10212,0.043 -0.19558,0.1086 -0.26021,0.1114 -0.0646,0 -0.15786,-0.1543 -0.18457,-0.2016 -0.0267,-0.047 -0.0295,-0.061 -0.0304,-0.065 -9.1e-4,-0 -0.001,-0 0.0281,-0.1278 z"
         id="path2677"
         inkscape:path-effect="#path-effect2679"
         inkscape:original-d="m 332.53836,-1165.4075 c 0.0587,-0.2467 0.11668,-0.4936 0.17474,-0.7405 0.22724,-0.1287 0.45427,-0.2578 0.6811,-0.3873 0.16059,-0.023 0.331,-0.044 0.48336,0.026 0.13311,0.017 0.25935,0.068 0.34622,0.1733 0.14942,0.1296 0.28114,0.278 0.39036,0.4427 0.0798,0.125 0.22007,0.2266 0.20091,0.3895 0.018,0.1989 0.0359,0.3978 0.0536,0.5967 -0.0453,0.1762 -0.091,0.3523 -0.13681,0.5283 -0.0775,0.1003 -0.16393,0.2381 -0.30925,0.226 -0.0896,0.017 -0.18577,0 -0.26465,-0.047 -0.10029,-0.063 -0.19694,-0.1316 -0.30045,-0.1895 -0.11981,-0.058 -0.0968,-0.1908 -0.0994,-0.2981 -0.0118,-0.1768 0.007,-0.3564 -0.0193,-0.5316 -0.0494,-0.1725 -0.2402,-0.12 -0.37128,-0.1178 -0.12402,0.01 -0.26562,-0.035 -0.36144,0.066 -0.0942,0.065 -0.18705,0.1315 -0.28068,0.1971 -0.16568,0.017 -0.18236,-0.1855 -0.18091,-0.3048 0.0129,-0.01 -0.0102,-0.019 -0.006,-0.029 z"
         sodipodi:nodetypes="scccccccccccccccccss" />
      <path
         style="fill:#443825;fill-opacity:1;stroke-width:0.264583"
         d="m 326.11359,-1165.5309 c -0.0291,-0.1234 -0.0874,-0.3702 -0.23,-0.5582 -0.14264,-0.188 -0.36967,-0.3171 -0.56264,-0.3774 -0.19297,-0.06 -0.36177,-0.051 -0.49623,-0.019 -0.13446,0.033 -0.25582,0.093 -0.37645,0.1947 -0.12063,0.1014 -0.25186,0.2503 -0.35045,0.3893 -0.0986,0.139 -0.16946,0.2764 -0.20956,0.4363 -0.0401,0.1599 -0.058,0.3588 -0.0441,0.5463 0.0139,0.1875 0.0595,0.3636 0.13142,0.4876 0.072,0.1239 0.19394,0.2131 0.28038,0.2381 0.0864,0.025 0.18261,0.01 0.27498,-0.031 0.0924,-0.039 0.19246,-0.1022 0.25725,-0.1779 0.0648,-0.076 0.10233,-0.1883 0.12177,-0.3254 0.0195,-0.1372 0.0259,-0.3159 0.0764,-0.4188 0.0505,-0.103 0.20871,-0.1532 0.32883,-0.1609 0.12013,-0.01 0.2492,0.016 0.35132,0.059 0.10212,0.043 0.19558,0.1086 0.26021,0.1114 0.0646,0 0.15786,-0.1543 0.18457,-0.2016 0.0267,-0.047 0.0295,-0.061 0.0304,-0.065 9.1e-4,-0 0.001,-0 -0.0281,-0.1278 z"
         id="path3537"
         inkscape:path-effect="#path-effect3541"
         inkscape:original-d="m 326.14271,-1165.4075 c -0.0587,-0.2467 -0.11668,-0.4936 -0.17474,-0.7405 -0.22724,-0.1287 -0.45427,-0.2578 -0.6811,-0.3873 -0.16059,-0.023 -0.331,-0.044 -0.48336,0.026 -0.13311,0.017 -0.25935,0.068 -0.34622,0.1733 -0.14942,0.1296 -0.28114,0.278 -0.39036,0.4427 -0.0798,0.125 -0.22007,0.2266 -0.20091,0.3895 -0.018,0.1989 -0.0359,0.3978 -0.0536,0.5967 0.0453,0.1762 0.091,0.3523 0.13681,0.5283 0.0775,0.1003 0.16393,0.2381 0.30925,0.226 0.0896,0.017 0.18577,0 0.26465,-0.047 0.10029,-0.063 0.19694,-0.1316 0.30045,-0.1895 0.11981,-0.058 0.0968,-0.1908 0.0994,-0.2981 0.0118,-0.1768 -0.007,-0.3564 0.0193,-0.5316 0.0494,-0.1725 0.2402,-0.12 0.37128,-0.1178 0.12402,0.01 0.26562,-0.035 0.36144,0.066 0.0942,0.065 0.18705,0.1315 0.28068,0.1971 0.16568,0.017 0.18236,-0.1855 0.18091,-0.3048 -0.0129,-0.01 0.0102,-0.019 0.006,-0.029 z"
         sodipodi:nodetypes="scccccccccccccccccss" />
    </g>
  </g>
</svg>
