<?xml version="1.0" encoding="UTF-8" standalone="no"?>
<!-- Created with Inkscape (http://www.inkscape.org/) -->

<svg
   version="1.1"
   id="svg1"
   width="42.842384"
   height="88.875458"
   viewBox="0 0 42.842384 88.875458"
   sodipodi:docname="worst.svg"
   inkscape:version="1.2.2 (732a01da63, 2022-12-09)"
   xmlns:inkscape="http://www.inkscape.org/namespaces/inkscape"
   xmlns:sodipodi="http://sodipodi.sourceforge.net/DTD/sodipodi-0.dtd"
   xmlns="http://www.w3.org/2000/svg"
   xmlns:svg="http://www.w3.org/2000/svg">
  <defs
     id="defs1">
    <inkscape:path-effect
       effect="bspline"
       id="path-effect4480"
       is_visible="true"
       lpeversion="1"
       weight="33.333333"
       steps="2"
       helper_size="0"
       apply_no_weight="true"
       apply_with_weight="true"
       only_selected="false" />
    <inkscape:path-effect
       effect="bspline"
       id="path-effect616"
       is_visible="true"
       lpeversion="1"
       weight="33.333333"
       steps="2"
       helper_size="0"
       apply_no_weight="true"
       apply_with_weight="true"
       only_selected="false" />
    <clipPath
       clipPathUnits="userSpaceOnUse"
       id="clipPath1381">
      <path
         id="path1383"
         style="fill:#463825;fill-opacity:1;stroke-width:0.109145;stroke-opacity:0.98017"
         d="m 320.44049,-233.70089 c -3.19488,0.6072 -3.06883,2.64229 -3.10195,5.49448 0.73112,13.20542 12.59782,23.5701 26.99449,23.57766 14.54142,-0.008 26.47325,-10.57478 27.01065,-23.92108 0.0342,-2.88215 -1.07186,-5.08893 -3.34434,-5.15106 z"
         sodipodi:nodetypes="cccccc" />
    </clipPath>
    <clipPath
       clipPathUnits="userSpaceOnUse"
       id="clipPath1377">
      <path
         id="path1379"
         style="fill:#463825;fill-opacity:1;stroke-width:0.109145;stroke-opacity:0.98017"
         d="m 320.44049,-233.70089 c -3.19488,0.6072 -3.06883,2.64229 -3.10195,5.49448 0.73112,13.20542 12.59782,23.5701 26.99449,23.57766 14.54142,-0.008 26.47325,-10.57478 27.01065,-23.92108 0.0342,-2.88215 -1.07186,-5.08893 -3.34434,-5.15106 z"
         sodipodi:nodetypes="cccccc" />
    </clipPath>
    <clipPath
       clipPathUnits="userSpaceOnUse"
       id="clipPath1373">
      <path
         id="path1375"
         style="fill:#463825;fill-opacity:1;stroke-width:0.109145;stroke-opacity:0.98017"
         d="m 320.44049,-233.70089 c -3.19488,0.6072 -3.06883,2.64229 -3.10195,5.49448 0.73112,13.20542 12.59782,23.5701 26.99449,23.57766 14.54142,-0.008 26.47325,-10.57478 27.01065,-23.92108 0.0342,-2.88215 -1.07186,-5.08893 -3.34434,-5.15106 z"
         sodipodi:nodetypes="cccccc" />
    </clipPath>
    <inkscape:path-effect
       effect="bspline"
       id="path-effect1927"
       is_visible="true"
       lpeversion="1"
       weight="33.333333"
       steps="2"
       helper_size="0"
       apply_no_weight="true"
       apply_with_weight="true"
       only_selected="false" />
    <inkscape:path-effect
       effect="bspline"
       id="path-effect3881"
       is_visible="true"
       lpeversion="1"
       weight="33.333333"
       steps="2"
       helper_size="0"
       apply_no_weight="true"
       apply_with_weight="true"
       only_selected="false" />
    <inkscape:path-effect
       effect="bspline"
       id="path-effect4422"
       is_visible="true"
       lpeversion="1"
       weight="33.333333"
       steps="2"
       helper_size="0"
       apply_no_weight="true"
       apply_with_weight="true"
       only_selected="false" />
  </defs>
  <sodipodi:namedview
     id="namedview1"
     pagecolor="#ffffff"
     bordercolor="#cccccc"
     borderopacity="1"
     inkscape:showpageshadow="0"
     inkscape:pageopacity="1"
     inkscape:pagecheckerboard="0"
     inkscape:deskcolor="#d1d1d1"
     showgrid="false"
     inkscape:zoom="1.3125"
     inkscape:cx="13.714286"
     inkscape:cy="28.190476"
     inkscape:window-width="1366"
     inkscape:window-height="705"
     inkscape:window-x="-8"
     inkscape:window-y="-8"
     inkscape:window-maximized="1"
     inkscape:current-layer="g1" />
  <g
     inkscape:groupmode="layer"
     inkscape:label="Image"
     id="g1"
     transform="translate(-398.11242,-171.94322)">
    <g
       id="g3322"
       transform="matrix(0.33925382,0,0,0.33925382,342.26842,451.12742)"
       style="display:inline">
      <path
         id="path512"
         style="fill:#f6ca4b;fill-opacity:1;stroke-width:0.512589"
         d="m 268.10961,-822.9187 c -0.15475,-0.38583 -53.69628,5.77896 -59.16415,6.81226 -4.52134,0.8544 -8.57699,3.29619 -11.64586,7.01108 -1.40539,1.70123 -4.12463,4.19276 -6.0423,5.53676 -1.91765,1.34399 -5.84321,4.94736 -8.72443,8.0084 -7.51327,7.9822 -11.70682,15.05954 -14.8961,25.141 -3.17004,10.02078 -3.02747,5.08279 -3.02747,104.72124 v 90.66197 h 32.37608 c 17.80683,0 32.15494,0.40307 32.3605,0.39564 1.18006,-0.0427 5.30851,-0.004 6.49079,-0.0813 0,-0.17282 11.3192,-0.31422 25.15373,-0.31422 h 25.15372 v -90.63724 c 0,-100.67836 0.1764,-95.09658 -3.33391,-105.85353 -0.94757,-2.90376 -2.58515,-6.98414 -3.63842,-9.06753 l -1.91455,-3.78835 1.78905,-3.56894 c 1.76114,-3.51243 12.12598,-30.37607 11.84041,-30.68805 -0.0806,-0.0879 -5.67819,0.47 -12.43968,1.23944 -6.76147,0.76942 -12.39358,1.29341 -12.51557,1.16421 -0.12199,-0.12914 0.3507,-1.60631 1.05066,-3.28248 0.69997,-1.67621 1.20753,-3.21068 1.12752,-3.41024 z"
         sodipodi:nodetypes="ssssssscsscscssccccscsss" />
      <path
         d="m 209.16649,-714.06373 h -2.96917 c -2.41301,0 -3.15938,-0.20418 -3.98474,-1.0901 -2.95316,-3.16985 1.22024,-13.91374 7.25111,-18.66705 5.09157,-4.01299 11.58464,-6.14371 18.72212,-6.14371 12.5005,0 22.66728,6.63137 25.82101,16.84199 2.0522,6.64428 0.99271,9.05887 -3.97489,9.05887 h -2.92798 m -48.14838,-33.16139 c -0.27395,-0.0682 -1.07592,-0.25001 -1.78214,-0.40432 -0.70624,-0.15437 -1.91549,-0.86577 -2.6872,-1.58099 l -1.40315,-1.3004 4.91928,-4.9378 c 2.70559,-2.71577 5.1942,-4.9378 5.53024,-4.9378 0.95611,0 3.14342,4.14237 3.14342,5.95307 0,1.93602 -1.63113,5.03785 -3.14702,5.98456 -1.16596,0.72815 -3.76685,1.42406 -4.57343,1.22368 z m 56.28457,-0.21761 c -0.82187,-0.17602 -1.98171,-0.62612 -2.57743,-1.00016 -1.52052,-0.95471 -3.15065,-4.05415 -3.15065,-5.99047 0,-1.8107 2.18731,-5.95307 3.14342,-5.95307 0.33604,0 2.79602,2.1933 5.46663,4.87397 5.1328,5.15211 5.15311,5.20435 2.7357,7.02949 -1.22301,0.92333 -3.87276,1.41402 -5.61767,1.04024 z"
         style="fill:#463825;fill-opacity:1;stroke-width:0.498093"
         id="path1627" />
      <path
         id="path510"
         style="fill:#71b26c;fill-opacity:1;stroke-width:0.498093"
         d="m 208.84685,-723.04654 c -2.50751,0 -4.52661,2.01814 -4.52661,4.52565 0,2.49674 2.00199,4.5084 4.49451,4.52565 v 43.28549 c 0,31.37985 0.16943,47.56793 0.49809,47.56793 0.32,0 0.49811,4.89791 0.49811,13.69757 0,13.03344 0.0484,13.74587 0.99617,14.69376 0.5479,0.5479 1.55654,0.99617 2.24143,0.99617 1.88199,0 3.23761,-1.65409 3.23761,-3.94972 0,-2.22934 1.00558,-3.52168 2.73951,-3.52168 2.43654,0 2.73952,0.97055 2.73952,8.77502 0,6.99031 0.0375,7.24615 1.22285,8.4316 0.67242,0.67239 1.57891,1.22285 2.01476,1.22285 0.43583,0 1.34233,-0.55046 2.01475,-1.22285 1.14316,-1.14315 1.22285,-1.56301 1.22285,-6.46356 0,-5.10246 0.0344,-5.26389 1.30264,-6.09484 1.16737,-0.76492 1.43887,-0.77682 2.61498,-0.1186 1.09126,0.61067 1.35759,1.18221 1.58086,3.3923 0.19944,1.97416 0.56624,2.8981 1.42521,3.59365 1.53355,1.24179 2.34042,1.18127 3.8077,-0.286 1.21884,-1.2188 1.22285,-1.25452 1.22285,-11.46783 v -10.24497 l 1.22092,0.79967 c 1.5192,0.99542 3.00324,0.57857 4.14624,-1.16545 0.796,-1.21459 0.87078,-5.12148 1.02439,-53.75617 l 0.15174,-48.16525 c 2.46843,-0.0444 4.44197,-2.04523 4.44197,-4.52467 0,-2.50751 -2.01812,-4.52565 -4.52563,-4.52565 z m 9.68074,92.9314 c 0.43583,0 1.34232,0.54946 2.01473,1.2219 1.15406,1.15408 1.22287,1.53948 1.22287,6.86337 0,4.1549 -0.19336,5.91456 -0.73256,6.68438 -1.32927,1.89783 -4.13137,1.75545 -5.21246,-0.26461 -0.29186,-0.54536 -0.53021,-3.48189 -0.53021,-6.52581 0,-5.2119 0.0715,-5.606 1.22287,-6.75733 0.67244,-0.67244 1.57892,-1.2219 2.01476,-1.2219 z m 12.45233,0.37358 c 2.69266,0 4.18434,3.53096 2.50506,5.92847 -1.92908,2.75413 -5.74267,1.10787 -5.74267,-2.47878 0,-1.79957 1.54886,-3.44969 3.23761,-3.44969 z m 4.00614,52.6549 c -1.28137,-0.058 -2.53571,0.76705 -3.46331,2.4895 l -0.88819,1.64895 -5.80396,0.34535 c -9.85647,0.58625 -16.15685,2.27197 -19.12892,5.11812 -1.33733,1.28066 -1.72412,2.81286 -0.98842,3.9147 0.72693,1.08865 2.82258,1.81514 6.29232,2.18111 5.23178,0.55191 28.30878,0.57366 33.02692,0.0311 2.24778,-0.25847 4.76939,-0.82262 5.60355,-1.25399 3.24933,-1.68027 1.04341,-5.54419 -4.2834,-7.50252 -5.19876,-1.91125 -5.58454,-2.14984 -6.73789,-4.16181 -1.0384,-1.81145 -2.34732,-2.75252 -3.6287,-2.81052 z" />
      <path
         style="fill:#2d2418;fill-opacity:1;stroke-width:5.52599"
         id="path1826"
         sodipodi:type="arc"
         sodipodi:cx="-228.54076"
         sodipodi:cy="722.85828"
         sodipodi:rx="14.244241"
         sodipodi:ry="12.365505"
         sodipodi:start="0"
         sodipodi:end="3.1415927"
         sodipodi:arc-type="slice"
         d="m -214.29652,722.85828 a 14.244241,12.365505 0 0 1 -7.12212,10.70884 14.244241,12.365505 0 0 1 -14.24424,0 14.244241,12.365505 0 0 1 -7.12212,-10.70884 h 14.24424 z"
         transform="scale(-1)" />
    </g>
  </g>
</svg>
