<?xml version="1.0" encoding="UTF-8" standalone="no"?>
<!-- Created with Inkscape (http://www.inkscape.org/) -->

<svg
   version="1.1"
   id="svg1"
   width="300"
   height="350"
   viewBox="0 0 300 350"
   sodipodi:docname="avt11.svg"
   inkscape:version="1.2.2 (732a01da63, 2022-12-09)"
   xml:space="preserve"
   xmlns:inkscape="http://www.inkscape.org/namespaces/inkscape"
   xmlns:sodipodi="http://sodipodi.sourceforge.net/DTD/sodipodi-0.dtd"
   xmlns="http://www.w3.org/2000/svg"
   xmlns:svg="http://www.w3.org/2000/svg"><defs
     id="defs1" /><sodipodi:namedview
     id="namedview1"
     pagecolor="#ffffff"
     bordercolor="#cccccc"
     borderopacity="1"
     inkscape:showpageshadow="0"
     inkscape:pageopacity="1"
     inkscape:pagecheckerboard="0"
     inkscape:deskcolor="#d1d1d1"
     showgrid="false"
     inkscape:zoom="0.4870198"
     inkscape:cx="-242.28995"
     inkscape:cy="229.97012"
     inkscape:window-width="1366"
     inkscape:window-height="705"
     inkscape:window-x="-8"
     inkscape:window-y="-8"
     inkscape:window-maximized="1"
     inkscape:current-layer="g1" /><g
     inkscape:groupmode="layer"
     inkscape:label="Image"
     id="g1"
     transform="translate(-731.76044,-17.422869)"><path
       style="fill:#000000;stroke-width:0.403403"
       d="m 973.43854,313.68832 c -0.60153,-0.47312 -1.45651,-1.57142 -1.8999,-2.4406 -0.80475,-1.57736 -0.80845,-1.57919 -1.99569,-0.96523 -1.52588,0.78905 -5.84397,1.26532 -6.20316,0.68415 -0.14528,-0.23505 0.0437,-1.07289 0.41997,-1.86191 0.74411,-1.5604 0.51956,-2.26514 -0.46215,-1.45038 -0.33976,0.28197 -1.35094,0.53189 -2.24709,0.55539 -1.91948,0.0504 -2.5937,-0.67665 -1.78854,-1.92856 0.2971,-0.46192 0.66768,-1.53735 0.82357,-2.3898 l 0.28339,-1.54998 -1.36293,0.71038 c -0.74961,0.39072 -2.05452,0.83889 -2.89976,0.99594 -1.32513,0.24622 -1.49798,0.19519 -1.25467,-0.37062 1.01921,-2.37041 1.5174,-4.08177 1.26244,-4.33677 -0.16303,-0.16299 -0.93564,0.009 -1.71693,0.38104 -1.30398,0.62181 -5.0238,0.96407 -5.0238,0.46226 0,-0.11835 0.61258,-0.82776 1.36132,-1.5765 1.13554,-1.13554 3.03257,-5.06624 2.44506,-5.06624 -0.0983,0 -0.85608,0.36307 -1.68402,0.8068 -1.61479,0.86548 -3.17164,1.0238 -4.12689,0.41966 -0.49334,-0.312 -0.372,-0.66573 0.72439,-2.11167 1.64844,-2.17403 3.28804,-5.48961 3.29319,-6.65963 0.004,-0.82962 -0.13,-0.87277 -2.01305,-0.64975 -1.10938,0.13138 -2.01705,0.11013 -2.01705,-0.0472 0,-0.15735 0.51094,-1.04491 1.13543,-1.97238 1.67217,-2.48356 3.30205,-5.3974 3.30205,-5.9034 0,-0.28242 -0.43106,-0.21985 -1.19019,0.1727 -0.65461,0.33849 -1.66848,0.61545 -2.25307,0.61545 h -1.06291 l 1.44866,-1.97345 c 1.62704,-2.21651 2.65409,-4.43177 2.65409,-5.72466 0,-0.83175 -0.0402,-0.83986 -1.01099,-0.20375 -1.56312,1.02422 -2.83542,1.40926 -3.43407,1.03928 -0.42052,-0.2599 -0.20501,-0.71378 0.94132,-1.98265 0.81771,-0.90509 1.48673,-2.00816 1.48673,-2.45125 0,-0.69286 -0.26987,-0.80564 -1.92728,-0.80564 -1.8006,0 -3.72038,-0.81681 -3.72038,-1.58289 0,-0.1798 0.69776,-0.78868 1.55054,-1.35307 2.06849,-1.36884 2.77077,-3.00843 3.89834,-9.10136 0.52188,-2.82 1.3258,-6.12123 1.78649,-7.33608 1.00886,-2.66042 2.49092,-5.32176 3.06917,-5.51143 0.23793,-0.078 0.63373,1.10166 0.90987,2.71205 0.81729,4.76611 2.54188,7.2468 5.03803,7.2468 1.49484,0 2.43781,-0.52064 5.12799,-2.83132 4.42763,-3.80298 6.26492,-4.3537 9.32203,-2.79404 l 1.62521,0.8291 2.05232,-1.02272 c 2.44482,-1.21833 3.2669,-1.09628 6.32614,0.93904 5.12631,3.41054 5.83172,3.78531 7.47244,3.97022 0.94901,0.10699 2.11451,-0.0138 2.59003,-0.26818 1.17021,-0.62629 2.34781,-3.0502 2.66613,-5.48778 0.48247,-3.6949 0.5806,-3.95558 1.27272,-3.38118 1.71642,1.42453 2.25732,3.58201 2.77282,11.06114 0.2773,4.02181 0.7,7.67827 0.9393,8.12555 0.2394,0.44724 1.2004,1.50448 2.1356,2.34938 1.6214,1.46484 1.6646,1.56249 0.9288,2.10062 -0.4243,0.3104 -1.1966,0.67108 -1.7161,0.80153 -0.7807,0.19605 -0.9017,0.42042 -0.6972,1.29356 1.1331,4.83975 1.2407,8.94244 0.218,8.31036 -0.5829,-0.36027 -0.4742,0.49262 0.2383,1.8705 0.612,1.18358 1.7905,6.49182 1.7905,8.06499 0,0.75278 -0.038,0.75551 -1.0747,0.0764 -1.0719,-0.70231 -1.0742,-0.70149 -0.8387,0.29325 0.1299,0.54863 0.363,2.81279 0.5179,5.03154 l 0.2817,4.03406 -0.9819,-0.90766 c -0.54,-0.49924 -1.197,-0.90766 -1.4601,-0.90766 -1.044,0 -0.3696,1.38392 1.7649,3.62172 2.6033,2.72934 2.5213,2.89255 -1.6157,3.21699 -2.81009,0.22041 -2.81641,0.22362 -3.09023,1.5693 -0.36625,1.79989 -1.08623,2.5158 -1.60523,1.59615 -0.56006,-0.99235 -1.56922,-1.93606 -2.07032,-1.93606 -0.28937,0 -0.35546,0.92634 -0.19915,2.79071 0.19044,2.27168 0.12017,2.83442 -0.37791,3.02554 -1.01398,0.38911 -2.65399,0.25963 -4.74486,-0.37465 -1.08918,-0.33042 -2.13297,-0.60078 -2.31956,-0.60078 -0.5425,0 -0.38781,1.71286 0.26829,2.97082 0.33143,0.63551 0.60261,1.31627 0.60261,1.51277 0,0.7527 -3.08038,0.31622 -4.83134,-0.68457 -1.12355,-0.6422 -1.8621,-0.86336 -1.95478,-0.58535 -0.28384,0.85152 -2.16297,2.83742 -2.68484,2.83742 -0.2884,0 -0.64015,-0.6171 -0.78162,-1.37138 -0.14151,-0.75427 -0.51684,-1.58677 -0.83407,-1.85007 -1.09755,-0.91087 -1.50407,-0.0254 -1.35778,2.95823 0.16049,3.2734 -0.3129,3.75538 -2.21717,2.25744 z m 7.42794,-55.08703 c 1.2051,-0.35758 2.70581,-1.01634 3.3349,-1.46391 1.5242,-1.08436 0.95103,-1.62817 -2.80633,-2.66254 -1.58002,-0.43499 -3.39205,-1.06292 -4.02671,-1.39547 -1.06564,-0.55834 -1.29341,-0.53473 -2.9766,0.3083 -1.00248,0.50212 -2.54879,1.04189 -3.43632,1.1995 -1.7362,0.30831 -3.42892,1.21687 -3.42892,1.84047 0,0.21162 0.47174,0.6939 1.04831,1.07169 2.62377,1.71913 8.45115,2.24157 12.29167,1.10196 z m -142.51879,18.06788 c -0.78046,-0.86384 -1.501,-1.81663 -1.60123,-2.11724 -0.13882,-0.41649 -0.45232,-0.33408 -1.31724,0.3463 -1.40885,1.10816 -1.96513,1.13752 -1.63142,0.086 0.24006,-0.75629 0.0712,-0.80721 -2.69579,-0.813 -3.57017,-0.007 -4.45206,-0.3955 -3.44009,-1.5137 1.00669,-1.11242 0.8817,-1.22643 -1.09961,-1.00311 -1.41564,0.15955 -2.01701,0.0228 -2.87824,-0.65468 -0.59879,-0.471 -1.43312,-0.85637 -1.8541,-0.85637 -1.22142,0 -1.58696,-1.61558 -0.66174,-2.92468 0.8891,-1.25792 0.71894,-1.38557 -0.65065,-0.48822 -0.58658,0.38433 -1.54247,0.56106 -2.5071,0.46349 -1.46805,-0.1485 -1.56637,-0.24364 -1.68427,-1.6297 -0.11207,-1.31777 -0.24488,-1.47198 -1.2679,-1.47198 -0.64362,0 -1.24414,-0.26426 -1.37492,-0.6051 -0.12769,-0.33278 -0.59024,-0.60511 -1.02784,-0.60511 -1.28191,0 -1.37885,-0.735 -0.27062,-2.05206 0.96467,-1.14641 0.99478,-1.3045 0.44956,-2.35887 -0.46158,-0.8926 -0.53208,-2.17115 -0.33536,-6.08377 0.23629,-4.6992 0.30794,-5.02073 1.39473,-6.25852 1.35561,-1.54396 1.49476,-2.37198 0.33684,-2.00446 -0.99903,0.31708 -1.44874,-0.61281 -0.84337,-1.7439 0.23483,-0.4388 0.51635,-2.54061 0.62562,-4.67067 0.17158,-3.34543 0.11177,-3.87287 -0.43909,-3.87287 -0.44911,0 -0.55177,-0.20879 -0.34709,-0.70597 0.68386,-1.66112 0.63526,-1.97346 -0.37909,-2.4356 -1.25598,-0.57227 -1.31639,-1.11712 -0.19067,-1.71962 1.15716,-0.6193 2.18104,-3.13089 3.0243,-7.41864 0.596,-3.03044 0.93419,-3.85554 2.11684,-5.16457 0.77414,-0.85689 1.73691,-1.73426 2.13947,-1.94969 0.6728,-0.36009 0.7186,-0.21735 0.56648,1.765 l -0.16553,2.15677 2.42215,0.0668 c 2.38113,0.0656 2.45757,0.0333 4.51646,-1.91394 1.15186,-1.08941 2.63639,-2.11119 3.29895,-2.27063 0.66257,-0.15948 1.74924,-0.5682 2.41487,-0.9083 1.85761,-0.94917 11.21225,-1.00139 13.11064,-0.0732 0.77657,0.37966 1.91376,0.81098 2.52712,0.95843 0.61337,0.14745 2.10839,1.16752 3.32227,2.26682 2.39981,2.17328 3.90123,2.79684 4.8461,2.01264 0.45978,-0.38156 0.73275,-0.38754 1.16904,-0.0254 0.85335,0.70821 1.17417,-0.11943 0.85951,-2.21755 -0.31279,-2.08593 0.0123,-2.21915 1.78208,-0.73014 1.71058,1.43937 2.17391,2.49231 3.26291,7.41495 0.8257,3.73252 1.10535,4.39721 2.35386,5.59484 1.33671,1.2822 1.37489,1.38979 0.67489,1.90162 -0.40805,0.29841 -0.94098,0.60888 -1.18425,0.68998 -0.31567,0.10524 -0.30573,0.44713 0.0347,1.19412 0.37674,0.8269 0.36655,1.1383 -0.0486,1.48281 -0.75196,0.62408 -0.497,7.2288 0.34166,8.85061 0.85888,1.66089 0.81554,1.7708 -0.57776,1.46477 -1.55595,-0.34174 -1.57631,0.28335 -0.0652,2.00439 1.08088,1.23106 1.15963,1.57702 1.4072,6.18071 0.22545,4.19339 0.16493,5.0461 -0.43204,6.08627 -0.67302,1.17267 -0.66671,1.23894 0.20644,2.16835 1.14293,1.2166 1.15332,2.22531 0.0247,2.3914 -0.5605,0.0825 -1.01629,0.5648 -1.26543,1.33914 -0.5156,1.6025 -0.42691,1.5647 -1.89254,0.8068 -0.70687,-0.36554 -1.32098,-0.60582 -1.36476,-0.53398 -0.0438,0.0718 -0.25754,0.67339 -0.47511,1.33685 -0.50062,1.52682 -1.58703,1.74794 -2.83367,0.57672 -1.17704,-1.10577 -1.70912,-0.77915 -0.81356,0.49943 0.85857,1.22575 0.82854,2.73131 -0.0597,2.99513 -0.38825,0.11532 -1.25052,0.50308 -1.91615,0.86171 -4.70111,2.53288 -5.95567,3.02349 -8.26773,3.23313 -2.12662,0.19284 -2.45872,0.32897 -2.29835,0.94215 0.14737,0.56368 -0.0396,0.70182 -0.87559,0.64706 -0.82137,-0.0538 -1.09243,0.13669 -1.19236,0.83799 -0.14465,1.01529 -0.48804,1.13827 -1.19741,0.42893 -0.36938,-0.36938 -0.69667,-0.27401 -1.43282,0.41758 l -0.9541,0.89634 -1.41904,-1.57071 z m -0.56405,-53.32072 c 0.30498,0 0.77213,-0.26217 1.03807,-0.58262 0.75174,-0.90579 3.64929,0.71023 3.64929,2.03525 0,0.5323 0.18156,0.9678 0.40342,0.9678 0.22187,0 0.40342,-0.2061 0.40342,-0.45799 0,-0.2519 0.48052,-0.90333 1.06781,-1.44762 1.05132,-0.97435 1.76847,-1.03386 3.54311,-0.29397 0.74609,0.31104 0.75028,0.28422 0.10082,-0.64298 -0.37274,-0.53219 -0.67773,-1.27959 -0.67773,-1.66086 0,-0.38126 -0.22096,-0.82981 -0.49102,-0.99672 -0.27005,-0.16691 -3.63425,-0.32202 -7.47601,-0.34465 l -6.985,-0.0412 -0.24282,1.02683 c -0.13359,0.56473 -0.51994,1.3456 -0.85854,1.73523 -0.778,0.89519 -0.406,1.30828 0.66297,0.7362 0.44818,-0.23987 1.08971,-0.43611 1.42569,-0.43611 0.7706,0 2.65855,1.72332 2.70233,2.46668 0.0183,0.30738 0.2909,-0.031 0.60627,-0.75222 0.31533,-0.72106 0.8229,-1.31104 1.12792,-1.31104 z m 132.9086,4.87609 -0.88704,-2.13446 -1.37451,1.65469 c -0.756,0.91013 -1.54098,1.65472 -1.74446,1.65472 -0.20349,0 -0.36995,-0.62049 -0.36995,-1.37892 0,-1.91148 -0.35665,-2.6551 -1.27342,-2.6551 -0.96856,0 -3.07882,1.04267 -4.22164,2.0859 l -0.85592,0.78132 -0.18686,-2.25337 c -0.15571,-1.87768 -0.41295,-2.4866 -1.54281,-3.65232 -1.35889,-1.40205 -2.76198,-1.83979 -2.86767,-0.89474 -0.031,0.27734 -0.0135,1.23039 0.0387,2.11788 l 0.095,1.61364 -1.25142,-1.18728 c -1.47967,-1.40384 -2.04317,-3.17247 -2.06367,-6.47744 l -0.0149,-2.42043 -0.8359,1.12067 c -0.71273,0.95551 -2.66851,2.30829 -3.33724,2.30829 -0.11259,0 0.53821,-1.42906 1.44616,-3.17568 1.67856,-3.22895 2.3709,-6.53557 1.6053,-7.66711 -0.50043,-0.73956 -1.10771,-0.3095 -2.10361,1.48976 l -0.82285,1.48662 0.20961,-2.17761 c 0.13994,-1.45397 0.88386,-3.6042 2.23853,-6.47034 2.04052,-4.31712 2.46045,-5.81786 1.52473,-5.44863 -0.27734,0.10946 -1.185,1.12516 -2.01705,2.25715 -2.16692,2.94813 -2.00603,1.26431 0.30606,-3.20299 1.46148,-2.8237 1.8352,-3.96992 1.90196,-5.83359 0.10056,-2.807 -0.63851,-3.91258 -2.09465,-3.13328 -0.48862,0.2615 -0.96201,0.40189 -1.05193,0.31197 -0.09,-0.09 0.66114,-1.27335 1.66911,-2.62974 1.97327,-2.65541 2.59754,-4.25642 2.59754,-6.66157 0,-2.79808 1.71805,-5.44986 3.97523,-6.13581 l 0.94973,-0.28858 -0.84337,1.14988 c -1.35479,1.84727 -1.50702,3.50838 -0.41474,4.52598 0.50753,0.47283 1.16983,0.85966 1.47183,0.85966 1.09254,0 3.1035,-1.34369 5.79735,-3.87376 2.51868,-2.36552 2.89595,-2.5807 4.52471,-2.5807 1.18818,0 2.12987,0.27768 2.84235,0.8381 l 1.06553,0.83815 1.35609,-0.83815 c 0.80325,-0.49643 2.03932,-0.8381 3.03201,-0.8381 1.52637,0 1.95944,0.26516 4.85345,2.9716 3.49094,3.2647 4.82294,3.87242 6.32708,2.88687 1.21731,-0.79761 1.2859,-2.70636 0.1634,-4.54743 -0.9278,-1.52169 -0.7118,-1.61636 1.1284,-0.49438 1.63661,0.99781 2.87723,3.58112 2.90122,6.04122 0.0205,2.11825 0.96052,4.25167 3.1013,7.03974 0.96519,1.25706 1.27268,1.89243 0.82973,1.71449 -0.38709,-0.15551 -0.96257,-0.38772 -1.27887,-0.51608 -0.34578,-0.14028 -0.84864,0.1842 -1.26125,0.81389 -1.04917,1.60127 -0.48168,4.56032 1.65932,8.65199 2.29096,4.37824 2.37904,5.70348 0.19545,2.94104 -0.87733,-1.10991 -1.78499,-2.13536 -2.01701,-2.27874 -0.97367,-0.60178 -0.3129,1.8383 1.44993,5.35419 1.28658,2.56601 1.93771,4.41496 2.05991,5.84935 l 0.17864,2.09741 -0.94581,-1.30353 c -0.52019,-0.71696 -1.12732,-1.24336 -1.34922,-1.16984 -0.22186,0.0735 -0.38608,1.20473 -0.36498,2.51375 0.0306,1.89071 0.34156,2.9793 1.51277,5.29464 0.81091,1.60307 1.47437,3.00993 1.47437,3.12641 0,0.56626 -0.85996,0.0658 -2.31759,-1.34877 l -1.60803,-1.56059 -0.22126,2.9255 c -0.23879,3.15722 -0.98081,5.02993 -2.38181,6.01122 -1.11854,0.78345 -1.26565,0.62898 -0.73362,-0.77038 0.50395,-1.32546 0.18444,-2.62477 -0.64549,-2.62477 -0.95764,0 -2.57654,1.24215 -3.20646,2.46029 -0.32145,0.62166 -0.58448,1.95919 -0.58448,2.97231 v 1.84207 l -2.09091,-1.43828 c -1.3527,-0.93053 -2.45645,-1.39573 -3.12637,-1.31777 -0.92884,0.10811 -1.04816,0.31787 -1.15848,2.0367 -0.0676,1.05388 -0.28036,1.91615 -0.47279,1.91615 -0.19242,0 -0.96945,-0.72379 -1.72667,-1.60847 l -1.37679,-1.60848 -0.95388,2.03655 c -0.9486,2.02527 -0.95757,2.03166 -1.62058,1.15269 l -0.66675,-0.88391 -0.65527,0.93561 -0.65532,0.93557 z m -0.30226,-45.43496 2.43575,-1.02523 2.56262,1.02523 c 2.97249,1.18918 3.94007,1.26778 4.81658,0.39127 0.85204,-0.85203 0.79888,-1.46797 -0.24062,-2.78951 -1.32236,-1.68111 -3.08071,-2.22424 -7.20063,-2.22424 -4.00582,0 -5.39726,0.46244 -6.81518,2.26507 -1.00763,1.281 -1.05477,1.9024 -0.20852,2.74868 0.87736,0.87733 1.82541,0.79758 4.65,-0.39127 z m -133.42397,20.65257 c -0.63317,-0.74232 -1.38677,-1.69537 -1.67475,-2.11787 -0.48789,-0.71588 -0.50839,-0.71756 -0.30084,-0.0247 0.12253,0.40891 0.32512,1.22579 0.45023,1.81532 0.21835,1.02904 0.20217,1.04058 -0.40514,0.28885 -0.3479,-0.43073 -0.6326,-0.6295 -0.6326,-0.44175 0,0.18772 -0.39382,-0.004 -0.8752,-0.42717 -0.78573,-0.68991 -0.8489,-0.6963 -0.61777,-0.0625 0.14162,0.38825 0.18043,0.70593 0.0863,0.70593 -0.29912,0 -3.20209,-1.96882 -4.00034,-2.71305 -0.73462,-0.68494 -0.75681,-0.68497 -0.51332,0 0.20969,0.58931 0.12612,0.64658 -0.47447,0.32516 -1.32852,-0.71102 -4.85345,-4.08895 -5.10987,-4.89675 -0.13871,-0.43704 -0.37525,-0.71965 -0.52569,-0.62809 -0.52733,0.32097 -2.80177,-1.98739 -3.69046,-3.74559 -0.56319,-1.11421 -1.00699,-1.59825 -1.19157,-1.29961 -0.45404,0.73462 -1.35102,-1.43997 -1.64352,-3.9845 -0.23195,-2.0178 -0.29348,-2.12737 -0.67949,-1.21018 -0.41036,0.97509 -0.4336,0.95447 -0.70093,-0.6221 -0.15208,-0.89683 -0.23172,-2.38954 -0.17699,-3.31712 0.0963,-1.63287 -0.3986,-3.03196 -0.52113,-1.47313 -0.0336,0.42523 -0.18593,-0.92272 -0.33891,-2.99551 -0.18921,-2.56384 -0.45997,-3.88109 -0.84688,-4.12025 -0.40024,-0.24741 -0.56013,-1.12672 -0.53966,-2.96782 0.0161,-1.43892 -0.12014,-2.52399 -0.30255,-2.41124 -0.61579,0.38059 -0.33718,-3.46751 0.6394,-8.83078 0.53406,-2.93301 1.09643,-6.64267 1.24974,-8.24371 l 0.27876,-2.91097 1.88597,1.93625 c 1.03729,1.06494 2.23039,2.70009 2.65141,3.63368 0.48205,1.06908 0.96392,1.62125 1.3017,1.49162 0.34593,-0.13273 0.53846,0.11192 0.54246,0.6892 0.008,1.17465 0.59921,2.07563 1.14174,1.74031 0.2408,-0.14879 0.73111,0.31847 1.10991,1.05769 0.73508,1.43447 1.35094,1.99049 1.8578,1.67722 0.177,-0.10939 0.32183,0.008 0.32183,0.26037 0,0.52502 2.11867,0.18003 3.42893,-0.55833 0.44376,-0.25007 0.98835,-0.46842 1.21021,-0.48523 0.2219,-0.0168 1.10633,-0.33536 1.96546,-0.70784 0.8591,-0.37249 1.66429,-0.67725 1.78933,-0.67725 0.12499,0 0.63174,-0.37999 1.12612,-0.84445 1.55088,-1.45696 7.79442,-1.27529 8.3773,0.24372 0.12679,0.33038 0.56301,0.60073 0.96934,0.60073 0.40633,0 0.93288,0.19411 1.17012,0.43136 0.23725,0.23726 0.77277,0.49566 1.19004,0.57422 0.41728,0.0786 0.80408,0.17946 0.85955,0.22418 0.0555,0.0447 0.23699,0.11005 0.40342,0.14524 0.16639,0.0351 1.16281,0.39942 2.21426,0.80945 1.55042,0.6047 2.02687,0.64998 2.52126,0.23968 0.33528,-0.27827 0.60959,-0.36479 0.60959,-0.19227 0,0.66716 1.55438,-1.13412 1.79048,-2.07492 0.156,-0.62151 0.49311,-0.95044 0.89985,-0.87796 0.42531,0.0758 0.80867,-0.34593 1.10786,-1.21878 0.25164,-0.7341 0.59118,-1.20106 0.7545,-1.0377 0.16336,0.16333 0.68744,-0.62718 1.16468,-1.75671 0.49786,-1.17839 1.25336,-2.22939 1.77266,-2.46601 0.49778,-0.22683 1.23368,-0.9687 1.63534,-1.64863 0.40166,-0.68013 0.8458,-1.23645 0.98701,-1.23645 0.14117,0 0.36741,1.58839 0.50271,3.52979 0.13531,1.94137 0.60702,5.35053 1.04824,7.57584 1.14634,5.78155 0.9913,12.87269 -0.31582,14.4477 -0.31566,0.38033 -0.64071,2.14022 -0.77422,4.19156 -0.16852,2.58985 -0.31694,3.26616 -0.55456,2.5275 -0.21391,-0.66484 -0.26811,-0.22104 -0.15911,1.30219 0.0909,1.27085 -0.0317,2.99543 -0.27289,3.83234 -0.41761,1.44994 -0.45157,1.47414 -0.72121,0.51314 -0.36491,-1.30051 -0.67833,-0.51688 -0.90378,2.25942 -0.0919,1.13177 -0.49095,2.49328 -0.88682,3.02554 -0.52692,0.70855 -0.64993,0.76339 -0.45915,0.20479 0.50028,-1.46491 -0.85036,0.0964 -1.76306,2.03809 -0.47548,1.01151 -0.97405,1.72955 -1.10794,1.59566 -0.13392,-0.13392 -0.49696,0.11842 -0.8068,0.56077 -0.3098,0.44234 -0.77993,0.81535 -1.04468,0.82891 -0.26475,0.0135 -1.03188,0.78263 -1.70471,1.70908 -0.67284,0.92645 -1.62466,1.88451 -2.11512,2.12905 -0.49046,0.24454 -1.28683,0.79152 -1.76975,1.2156 -0.71878,0.63118 -0.83466,0.65173 -0.6391,0.11337 0.15286,-0.42082 -0.58516,-0.1031 -2.04944,0.88226 -1.91532,1.28889 -2.3262,1.43376 -2.52039,0.88884 -0.20408,-0.57272 -0.26594,-0.56271 -0.51373,0.0831 -0.15499,0.40379 -0.3989,0.61706 -0.54209,0.47387 -0.14315,-0.14319 -0.62348,0.0577 -1.0674,0.44653 -0.77183,0.67594 -0.79521,0.67433 -0.53528,-0.0366 0.1495,-0.40887 0.37218,-1.2258 0.49483,-1.81533 0.21312,-1.0244 0.19963,-1.0343 -0.30428,-0.22373 -0.66861,1.07551 -2.63419,3.38761 -2.87988,3.38761 -0.10225,0 -0.70396,-0.60735 -1.33708,-1.34967 z M 836.66603,170.293 c 0.55894,-0.55894 1.20633,-0.89873 1.43869,-0.75513 0.23236,0.1436 0.5809,0.0108 0.7746,-0.29486 0.23972,-0.3785 0.35407,-0.40002 0.35829,-0.0674 0.004,0.2687 0.40345,0.85868 0.88906,1.31108 1.04031,0.96918 2.74775,1.1043 2.74775,0.21741 0,-0.33281 0.35452,-0.60511 0.78782,-0.60511 1.32642,0 2.84282,-0.89525 2.84282,-1.67837 0,-0.40812 0.15238,-0.74206 0.33864,-0.74206 0.29325,0 1.27499,-1.72301 1.27499,-2.23772 0,-0.10049 -0.26662,-0.18271 -0.59248,-0.18271 -0.36087,0 -0.50167,-0.23651 -0.36023,-0.60511 0.2801,-0.72992 0.88199,-0.66899 -6.71199,-0.67941 -10.56167,-0.0146 -10.89191,0.006 -10.89191,0.67941 0,0.33281 -0.18156,0.60511 -0.40342,0.60511 -0.69798,0 -0.43831,1.45696 0.39389,2.21011 0.4385,0.39685 0.70777,0.86639 0.59835,1.04346 -0.32015,0.51799 1.50918,1.58729 2.71552,1.58729 0.81893,0 1.04722,0.15776 0.87557,0.60511 -0.39658,1.03352 1.7863,0.72663 2.92404,-0.41111 z m -68.79323,26.53155 c 0.49733,-0.83201 1.05672,-1.68521 1.24309,-1.89597 1.22049,-1.38034 -0.82716,-4.11189 -4.29183,-5.72526 -2.85803,-1.33091 -3.14878,-1.26595 -2.96487,0.66253 0.0847,0.88749 0.025,1.61359 -0.13232,1.61359 -0.72081,0 -6.12856,-7.61742 -7.96944,-11.2258 -0.68146,-1.33574 -0.82589,-2.12203 -0.62991,-3.42889 0.33778,-2.2527 -0.79825,-3.79255 -3.0654,-4.1551 -1.5257,-0.24394 -1.58442,-0.31096 -1.58442,-1.80793 0,-0.85499 0.20707,-2.78328 0.46016,-4.28503 0.43554,-2.58439 0.40319,-2.86472 -0.60511,-5.23958 -0.94367,-2.22277 -1.06527,-3.03727 -1.06527,-7.13663 0,-4.46659 0.49136,-6.3248 1.05391,-3.98566 0.765,3.18069 2.97653,5.76501 4.93344,5.76501 0.57074,0 3.40539,-1.1339 6.29921,-2.51981 4.87258,-2.3335 5.45538,-2.51651 7.8837,-2.47542 1.44217,0.0243 3.18636,0.17674 3.87597,0.33846 0.92843,0.21775 1.70815,0.0623 3.00432,-0.59895 2.68257,-1.36853 5.51759,-0.98279 11.54999,1.57161 7.0233,2.97391 7.80313,2.85049 9.83456,-1.55678 1.5799,-3.42769 2.39391,-4.29056 2.39391,-2.53773 0,1.83583 1.43716,7.03966 2.80465,10.15534 0.67616,1.5406 1.22938,3.27572 1.22938,3.85584 0,1.30368 -2.25681,7.24867 -2.9794,7.84832 -0.39528,0.32807 -0.71274,0.23554 -1.25763,-0.36654 -0.40087,-0.44298 -0.86167,-0.80538 -1.02399,-0.80538 -0.16231,0 -0.37035,1.86071 -0.46229,4.13489 -0.12776,3.1607 -0.38078,4.60892 -1.07394,6.1469 -1.37231,3.04475 -2.30911,3.87441 -4.05891,3.5946 -1.41721,-0.22664 -1.47029,-0.18603 -2.51181,1.9218 l -1.064,2.15333 -0.2919,-1.51277 c -0.16053,-0.83202 -0.40783,-1.49656 -0.54953,-1.47676 -0.14173,0.0198 -1.3546,1.33588 -2.69526,2.92468 -1.34067,1.58875 -3.01198,3.17952 -3.71407,3.53505 -0.70205,0.35549 -2.36649,1.65555 -3.69875,2.889 -2.41098,2.23212 -7.49811,5.13781 -8.995,5.13781 -0.7573,0 -0.75304,-0.0543 0.11876,-1.51277 z m 11.61279,-33.57416 c 2.62358,-0.30162 3.67857,-0.61975 4.74,-1.42935 2.0256,-1.54501 1.77501,-2.06151 -1.15594,-2.38241 -1.38669,-0.15182 -4.37812,-0.90594 -6.64763,-1.67583 l -4.12638,-1.3998 -2.39656,1.2098 c -1.31814,0.66537 -4.14095,1.69369 -6.27291,2.28513 -3.74496,1.03893 -3.85303,1.10106 -3.18969,1.83404 1.22976,1.35886 4.02649,1.89478 10.02676,1.92138 3.10624,0.0138 7.1663,-0.14954 9.02235,-0.36296 z m 121.07967,19.56063 c -0.40715,-0.49061 -0.36087,-0.65113 0.25317,-0.87822 0.83933,-0.31044 1.34104,-0.90886 1.3503,-1.61061 0.004,-0.25687 -1.12698,-2.14127 -2.51195,-4.18753 l -2.51813,-3.72049 -0.20512,-3.67888 -0.20513,-3.67884 -0.70227,1.28444 c -0.55524,1.01555 -0.64744,1.80928 -0.44029,3.79118 0.22556,2.15788 0.1582,2.58263 -0.48389,3.05213 -1.53096,1.11948 -3.81896,0.14988 -3.81896,-1.61837 0,-0.5651 0.14561,-0.61049 0.81281,-0.2534 1.29296,0.69197 1.38576,-0.40185 0.26157,-3.08232 -0.57522,-1.37149 -1.11462,-3.68164 -1.28261,-5.49327 -0.29236,-3.15214 -0.74441,-3.80376 -1.77636,-2.56037 -1.31594,1.58565 -1.1757,4.27487 0.22294,4.27487 0.34025,0 0.54302,0.22691 0.45057,0.50425 -0.0924,0.27733 -0.67796,0.50424 -1.30115,0.50424 -2.02725,0 -2.57938,-1.35445 -2.87764,-7.05957 -0.20326,-3.88759 -0.47361,-5.55076 -1.18022,-7.2613 -1.86718,-4.51989 -2.30317,-6.74577 -2.13607,-10.90532 0.13829,-3.44319 0.068,-3.99309 -0.56043,-4.38556 -0.3952,-0.24682 -0.71852,-0.77045 -0.71852,-1.16367 0,-0.42396 -0.49259,-0.9009 -1.21022,-1.17177 -0.66563,-0.25123 -1.21022,-0.74554 -1.21022,-1.09841 0,-0.35288 -0.34211,-1.27993 -0.76029,-2.06013 -0.7087,-1.32228 -0.71897,-1.56159 -0.15178,-3.52832 0.70582,-2.44748 1.12882,-3.06735 2.43093,-3.5624 1.23372,-0.46906 2.99965,0.42422 3.64686,1.84472 0.63743,1.39898 0.62771,1.42913 -0.42441,1.31758 -0.64239,-0.0681 -0.93676,0.13886 -1.0108,0.71072 -0.15709,1.21294 0.41821,1.81917 1.96438,2.0701 2.20208,0.35732 4.32347,-0.44582 8.8409,-3.34726 l 4.20415,-2.70024 4.85005,-0.0724 c 5.42816,-0.081 5.47437,-0.0668 10.21258,3.12461 6.07973,4.09515 10.56481,4.26796 10.21634,0.39371 -0.0306,-0.34241 -0.33479,-0.44036 -0.85457,-0.2754 -0.99,0.31421 -1.07058,-0.45243 -0.18104,-1.72241 0.99762,-1.42431 2.09341,-1.84775 3.39093,-1.3103 1.19535,0.49513 1.63538,1.20368 2.46668,3.97164 0.4515,1.50351 0.43533,1.92336 -0.11674,3.02554 -0.35257,0.70388 -0.74975,1.61341 -0.88263,2.02117 -0.13288,0.40771 -0.7858,0.94673 -1.45091,1.19777 -0.84893,0.32045 -1.20928,0.72641 -1.20928,1.36234 0,0.49826 -0.36307,1.1002 -0.80683,1.33767 -0.53787,0.28788 -0.8068,0.84468 -0.8068,1.67046 0,2.29827 -1.25927,6.1695 -3.66143,11.25577 -1.71828,3.63827 -2.38966,5.52931 -2.38966,6.73079 0,2.20488 0.62861,3.76939 1.6185,4.02827 1.40686,0.3679 0.6549,1.52626 -1.16289,1.79142 -0.79865,0.11652 -0.98066,0.41328 -1.10375,1.79993 -0.24058,2.71059 -1.54893,6.33787 -3.16331,8.77004 -0.83172,1.25302 -1.6783,2.38091 -1.88126,2.50635 -0.21809,0.13478 -0.27379,-0.97905 -0.13621,-2.72373 l 0.23281,-2.9518 -1.67848,4.03407 c -0.92317,2.2187 -1.77778,4.99417 -1.89916,6.16767 l -0.22066,2.13364 -0.95048,-0.89287 -0.95043,-0.8929 v 0.89544 c 0,2.04272 -3.24461,3.70802 -4.43349,2.27549 z m 0.66742,-41.12483 c -0.12197,-0.31783 -0.34637,-1.67931 -0.49868,-3.02554 l -0.27693,-2.44767 h 2.2756 2.2756 l -0.24543,1.71446 c -0.13501,0.94297 -0.39483,2.30448 -0.57735,3.02555 -0.28978,1.14465 -0.23199,1.31108 0.45534,1.31108 1.28594,0 3.48854,-1.08268 3.94759,-1.94044 0.23505,-0.4392 0.96414,-0.98566 1.6202,-1.21436 1.15452,-0.40248 2.45484,-2.22958 2.45484,-3.44932 0,-0.32975 -0.53245,-0.71 -1.19934,-0.85648 -0.65961,-0.14487 -1.63388,-0.7799 -2.16506,-1.41116 -0.53118,-0.6313 -1.8522,-1.57097 -2.93559,-2.08822 -1.3781,-0.65797 -2.21217,-1.39457 -2.77663,-2.45215 -0.83205,-1.55894 -1.41191,-1.94488 -1.41191,-0.93971 0,0.98342 -1.94237,2.93902 -3.56337,3.58761 -0.85215,0.34096 -1.85051,1.07958 -2.21859,1.64136 -0.3779,0.57675 -1.37246,1.23207 -2.28453,1.50533 -0.88838,0.26617 -1.61456,0.68214 -1.61374,0.92436 0.004,0.9111 1.65028,3.09701 2.60815,3.4612 0.54761,0.20819 1.2283,0.76989 1.51258,1.24817 0.90953,1.53014 5.16176,2.82494 4.61725,1.40593 z m 67.10062,15.34527 c -10.59351,-3.77828 -16.62793,-10.06206 -19.21747,-20.01168 -0.92245,-3.54424 -1.04129,-13.11065 -0.16288,-13.11065 0.95062,0 3.46534,3.66842 6.20734,9.05518 1.40575,2.76161 2.74152,5.08301 2.96835,5.15862 0.22687,0.0756 0.64131,-0.41496 0.921,-1.09022 0.34376,-0.82985 2.15905,-2.4492 5.60205,-4.99739 l 5.09355,-3.76969 3.46404,-0.27779 3.46407,-0.27779 2.58701,1.89449 c 6.96629,5.10135 8.36848,6.27742 8.83911,7.41364 0.27606,0.66652 0.70686,1.20734 0.95727,1.20184 0.25044,-0.006 1.4781,-2.13849 2.72818,-4.74 2.42334,-5.04323 5.72062,-9.93131 6.52039,-9.66626 0.32266,0.10695 0.52689,1.50055 0.60997,4.16212 0.18529,5.93461 -0.79443,10.40766 -3.43068,15.66307 -1.78914,3.56666 -3.3613,5.50803 -6.37594,7.87336 -3.4108,2.67614 -5.64,3.87418 -9.80497,5.26957 -4.46572,1.49618 -7.29477,1.56055 -10.97039,0.24958 z m 1.7904,-8.39146 c -0.15454,-0.48694 -0.80216,-2.0469 -1.4391,-3.46657 -0.63697,-1.41964 -1.15803,-2.79117 -1.15792,-3.04781 1.2e-4,-0.33251 1.73946,-0.46666 6.05116,-0.46666 4.16213,0 6.05093,0.13968 6.0509,0.44742 -8e-5,0.24611 -0.65069,1.8556 -1.44587,3.57663 -1.82418,3.94819 -1.59832,4.28679 2.14201,3.21132 3.34353,-0.96138 3.61388,-1.41956 3.98935,-6.76131 0.32292,-4.59398 0.3624,-4.52206 -4.16313,-7.5841 l -2.90645,-1.96658 h -3.68377 -3.68381 l -3.03394,2.09736 c -4.30274,2.97448 -4.36457,3.10583 -3.87855,8.23531 0.26433,2.78967 0.60914,4.4441 1.00979,4.84471 0.64015,0.64015 3.90687,1.66825 5.49547,1.72956 0.78424,0.0303 0.88959,-0.10658 0.65386,-0.84928 z m -215.2753,-6.9194 c -3.63315,-1.02037 -6.51158,-3.61451 -8.3492,-7.52463 -0.87401,-1.85971 -1.04309,-2.79441 -1.04488,-5.77655 l -0.004,-3.5578 1.65495,-1.54463 c 2.26379,-2.11295 4.95469,-2.67488 9.76847,-2.03984 3.90541,0.51519 9.44115,2.23334 12.12219,3.76248 1.45345,0.82895 1.98291,0.93893 3.02554,0.62834 0.69506,-0.20707 2.27612,-0.2649 3.51338,-0.12851 2.01646,0.22228 2.64353,0.0812 6.05109,-1.3608 5.20177,-2.20141 9.12795,-3.00354 13.85192,-2.82994 4.1037,0.15081 5.12829,0.58628 6.86763,2.91893 1.29409,1.73553 1.16957,6.55334 -0.24797,9.59558 -1.36092,2.92064 -3.7623,5.52345 -6.44139,6.98161 -1.77322,0.96511 -2.56276,1.14334 -4.99537,1.12765 -5.16763,-0.0332 -8.1773,-2.11518 -12.40823,-8.58332 -2.08366,-3.18543 -2.70121,-3.8546 -3.65822,-3.96406 -1.46742,-0.16784 -2.5755,0.85529 -4.51142,4.1656 -3.87485,6.62567 -9.61602,9.69716 -15.19633,8.12989 z m 6.77256,-2.64234 c 3.04676,-1.38377 6.11265,-5.57874 6.81514,-9.32497 0.33061,-1.76299 -0.59121,-2.7454 -3.82221,-4.07344 -1.86303,-0.76574 -2.99476,-0.9161 -7.05957,-0.93792 -4.52326,-0.0243 -4.99321,0.0488 -7.16275,1.11417 -2.72082,1.33607 -3.30505,2.20541 -2.95468,4.39658 0.51276,3.20665 2.80536,6.51651 5.85186,8.44854 1.47347,0.93445 2.24594,1.14081 4.24368,1.13356 1.49962,-0.006 3.07773,-0.29744 4.08853,-0.75652 z m 33.15962,-0.2745 c 1.14771,-0.57193 2.55491,-1.59626 3.12707,-2.27623 2.88826,-3.43247 3.89958,-7.92834 2.15012,-9.55823 -3.09831,-2.8865 -12.62669,-3.20754 -17.77463,-0.59891 -2.3734,1.20271 -2.74264,2.29129 -1.75888,5.18545 2.33021,6.85542 8.62344,10.05489 14.25632,7.24792 z m 25.94437,1.73322 c -2.34758,-0.6493 -3.03129,-1.68745 -4.30894,-6.5427 -1.27914,-4.86093 -1.5186,-5.35277 -2.68671,-5.51867 -0.78924,-0.11207 -0.92436,-0.40215 -1.02915,-2.20922 l -0.12062,-2.08022 2.05665,-0.44107 c 4.60473,-0.98754 13.29781,-0.40656 20.03383,1.33894 3.45122,0.89429 5.56413,0.80553 10.75483,-0.4519 3.94299,-0.95515 5.34489,-1.09445 11.16533,-1.10935 3.66091,-0.009 7.14093,0.11894 7.73341,0.28514 1.98104,0.55569 1.92269,3.87474 -0.0857,4.87393 -0.7975,0.39677 -1.16674,1.16225 -1.88679,3.91138 -2.06573,7.88696 -2.3,8.0907 -9.63123,8.37529 -7.82897,0.30393 -8.83061,-0.34526 -10.26799,-6.65481 -0.8442,-3.70574 -1.9757,-5.76541 -3.16728,-5.76541 -1.19135,0 -2.49395,1.94749 -3.10294,4.63913 -1.64289,7.26138 -2.04384,7.61276 -8.83832,7.74616 -2.87156,0.0564 -5.56399,-0.10498 -6.61839,-0.39662 z m 11.19099,-1.26405 c 1.32715,-0.68628 1.87734,-1.68252 2.68358,-4.85917 0.79047,-3.11456 0.78468,-6.24369 -0.0138,-7.38353 -0.91551,-1.30708 -4.56473,-2.2224 -9.0578,-2.27198 -6.48495,-0.0716 -7.47883,0.83422 -7.43747,6.77831 0.0276,3.99679 0.69547,6.0679 2.27395,7.05367 1.88802,1.1791 9.69884,1.64072 11.55145,0.6827 z m 25.46769,-0.43091 c 2.14085,-1.10708 2.612,-2.31699 2.77674,-7.1307 l 0.1488,-4.34693 -1.18881,-1.18881 c -1.5347,-1.5347 -3.72707,-1.8683 -8.71565,-1.32621 -4.61033,0.50096 -6.16601,1.21627 -7.00643,3.22148 -0.51665,1.2327 -0.54594,1.89848 -0.17199,3.90638 0.77067,4.1381 1.29621,5.5425 2.5391,6.7854 l 1.20129,1.20129 4.60047,-0.24652 c 2.94104,-0.15764 5.03912,-0.47338 5.81648,-0.87538 z"
       id="path4908"
       sodipodi:nodetypes="scssssssccsscccssscsscsscssscsssssssscssssssccsssccssscsscscsssscssssssssssssssssssssscscssscsccccssscscsssssssssssscssccsscccsccccscccccsccsccssscssssssccssssccssscccssssssccsscccccsccscccsssscsssccsccssccscscsccssssscccsscsscsssssccssccsscsccsscssccssssssccsssccssccccccsscsscccccccsccscccccccsccscsccsccccccccscssscsccsccscccscccccccssscccccssccssccsscsssccccsssccsscccssssssccssscssssccsssccsscscscccsccscsccscccsccscccssccsscccsccscccccccccsccccscsccccscsccsccccscsccssscsscscscscccsscccscccsssccccccsscssccssssscccscssssccccccscsscssscsccscsssccccsscsscscccsccscsccscssccccssscssccsccccscscscsccccccccsccccccccccccccscsccccc" /></g></svg>
