<?xml version="1.0" encoding="UTF-8" standalone="no"?>
<!-- Created with Inkscape (http://www.inkscape.org/) -->

<svg
   version="1.1"
   id="svg1"
   width="300"
   height="350"
   viewBox="0 0 300 350"
   sodipodi:docname="avt10.svg"
   inkscape:version="1.2.2 (732a01da63, 2022-12-09)"
   xml:space="preserve"
   xmlns:inkscape="http://www.inkscape.org/namespaces/inkscape"
   xmlns:sodipodi="http://sodipodi.sourceforge.net/DTD/sodipodi-0.dtd"
   xmlns="http://www.w3.org/2000/svg"
   xmlns:svg="http://www.w3.org/2000/svg"><defs
     id="defs1" /><sodipodi:namedview
     id="namedview1"
     pagecolor="#ffffff"
     bordercolor="#cccccc"
     borderopacity="1"
     inkscape:showpageshadow="0"
     inkscape:pageopacity="1"
     inkscape:pagecheckerboard="0"
     inkscape:deskcolor="#d1d1d1"
     showgrid="false"
     inkscape:zoom="0.060877475"
     inkscape:cx="-114.98506"
     inkscape:cy="-114.98506"
     inkscape:window-width="1366"
     inkscape:window-height="705"
     inkscape:window-x="-8"
     inkscape:window-y="-8"
     inkscape:window-maximized="1"
     inkscape:current-layer="g1" /><g
     inkscape:groupmode="layer"
     inkscape:label="Image"
     id="g1"
     transform="translate(-731.76044,-17.422869)"><path
       style="fill:#000000;stroke-width:0.70395"
       d="m 878.56173,360.54168 c -7.51789,-1.37052 -17.25577,-4.24917 -22.2905,-6.58953 -3.18058,-1.4785 -5.10856,-2.99996 -7.27574,-5.74156 -6.89343,-8.72088 -10.1,-18.53112 -10.17186,-31.12042 -0.0261,-4.57082 -0.2535,-7.58021 -0.50531,-6.68752 -0.87987,3.11954 -0.59435,18.44622 0.42372,22.74158 1.08414,4.57441 3.64849,10.61346 6.05311,14.255 0.83087,1.2583 1.33301,2.28783 1.1159,2.28783 -0.83431,0 -16.47558,-8.78502 -20.15802,-11.32191 -7.80632,-5.37782 -7.76745,-5.3244 -8.67865,-11.92146 l -0.82467,-5.97055 -0.35198,4.92765 -0.35197,4.92765 -2.35817,-3.39678 c -4.02955,-5.80442 -10.6649,-21.97703 -10.6649,-25.99405 0,-1.15617 0.39786,-0.92394 2.11185,1.23282 2.64403,3.32709 2.64276,2.7226 -0.008,-3.78224 -2.05898,-5.05275 -2.0915,-5.31378 -1.23022,-9.8553 1.17665,-6.2042 1.11034,-26.65332 -0.10418,-32.11919 -0.51621,-2.32305 -1.69018,-6.44115 -2.60897,-9.15136 -0.9188,-2.7102 -1.67274,-5.03345 -1.67541,-5.16277 0,-0.12931 1.32541,0.81849 2.95132,2.10621 l 2.95624,2.34142 -1.37235,-2.33332 c -0.75478,-1.28329 -2.86403,-4.00956 -4.68726,-6.05833 l -3.31482,-3.72509 1.72376,-1.61944 c 1.92769,-1.81104 3.85996,-6.50928 5.49235,-13.35471 3.57036,-14.97216 4.45079,-27.05722 3.00031,-41.18105 -1.35124,-13.15782 -2.51162,-17.77489 -6.81115,-27.10209 -4.7682,-10.34384 -8.29372,-26.17954 -9.50782,-42.70645 l -0.40506,-5.51411 7.42336,7.74345 c 4.08285,4.2589 7.43471,7.54422 7.44865,7.3008 0.0141,-0.2435 -1.10915,-2.30255 -2.49551,-4.57567 -6.05928,-9.93421 -15.25259,-30.84132 -16.21868,-36.882976 l -0.4316,-2.699287 5.07682,-2.556678 c 11.34591,-5.713684 26.91124,-8.939889 36.47229,-7.55951 6.01109,0.867827 4.65818,-0.04503 -3.01995,-2.038149 -5.58816,-1.450411 -7.97526,-1.646114 -20.2349,-1.658718 -15.86077,-0.01618 -15.30584,0.599413 -5.52221,-6.126616 10.11169,-6.951575 28.10661,-14.674471 39.83611,-17.096482 13.29318,-2.744909 28.91875,-2.748989 41.93443,-0.01087 2.79842,0.588644 5.21972,0.938656 5.38057,0.777793 0.5966,-0.596588 -19.43261,-10.264435 -23.75478,-11.466073 -4.47523,-1.244228 -4.47846,-1.246981 -2.05406,-1.765159 5.1149,-1.093156 20.93125,-1.441827 29.53021,-0.650937 18.4475,1.696734 33.71335,4.984882 42.58897,9.173308 8.02812,3.788519 16.85961,12.759519 23.95669,24.335196 l 2.58955,4.2237 -0.48945,-2.815796 c -0.70551,-4.058407 -2.94674,-10.401069 -6.03207,-17.07078 -1.47767,-3.194178 -2.35944,-5.807595 -1.95967,-5.807595 0.39985,0 3.78465,3.088581 7.52185,6.86352 4.55653,4.602625 7.86531,8.718629 10.0446,12.495112 5.6166,9.733014 5.90156,10.956768 5.90156,25.342193 0,10.841953 -0.23702,13.66212 -1.64204,19.53616 -0.90309,3.775794 -1.52581,7.213804 -1.38375,7.639974 0.32585,0.97758 6.03511,-10.317096 7.24189,-14.326864 l 0.90112,-2.993972 0.57668,2.815809 c 0.31713,1.548679 0.56027,8.359397 0.54028,15.134927 -0.0436,14.85884 -1.3456,23.2749 -5.2264,33.78959 -6.96397,18.86804 -9.80716,32.93985 -9.80716,48.53834 0,17.36884 3.88025,36.68522 8.38116,41.72262 l 1.98711,2.22399 -3.72285,4.38848 c -2.04763,2.41372 -4.10774,5.10766 -4.57813,5.98655 -0.72619,1.35685 -0.41546,1.24972 2.05849,-0.70966 3.26226,-2.58378 3.3665,-2.51605 1.81226,1.17694 -3.92565,9.32776 -5.56445,27.72611 -3.60853,40.51239 1.10549,7.22681 1.02482,7.9602 -1.60007,14.54908 l -1.54243,3.87174 2.24483,-2.11185 2.24475,-2.11187 -0.52226,2.45138 c -1.61282,7.57049 -7.69009,21.53341 -11.18858,25.70664 l -1.77044,2.11185 -0.11034,-5.27964 -0.11034,-5.27961 -0.62546,4.22369 c -0.34402,2.32304 -0.79174,5.23451 -0.99503,6.47001 -0.54394,3.30637 -7.59288,8.38932 -23.12266,16.67354 -2.66777,1.42311 -4.94229,2.49571 -5.05443,2.38357 -0.11215,-0.11215 0.8339,-1.84983 2.10228,-3.86152 4.27684,-6.78303 5.5467,-11.95919 5.7469,-23.42548 0.1653,-9.46425 0.1348,-9.74611 -0.41801,-3.87172 -0.84087,8.93405 -1.74763,12.97394 -4.27424,19.04326 -2.12459,5.10342 -6.72646,12.10864 -9.51115,14.47834 -1.73896,1.47977 -9.11058,4.37274 -15.86216,6.22503 -4.79974,1.31675 -16.61913,3.65885 -17.50709,3.46914 -0.19359,-0.0415 -2.72218,-0.50727 -5.61914,-1.03537 z m 52.54607,-51.85971 c -0.19527,-0.48396 -0.35507,-0.088 -0.35507,0.87994 0,0.96793 0.1598,1.36391 0.35507,0.87994 0.19526,-0.48397 0.19526,-1.27591 0,-1.75988 z m -60.7259,-42.29338 c 7.58408,-3.59789 7.74853,-3.63934 14.43098,-3.63934 6.71724,0 6.80909,0.0239 14.70967,3.78034 l 7.9502,3.78042 6.12879,-0.33578 c 4.20182,-0.23013 7.23274,-0.82482 9.63983,-1.89116 l 3.51102,-1.55546 -8.0867,-2.64938 c -8.84767,-2.89872 -21.6021,-8.75045 -28.99957,-13.30513 l -4.72209,-2.90732 -4.78124,2.91083 c -7.72246,4.7014 -20.1367,10.3991 -28.8656,13.24834 -8.84718,2.88782 -8.86717,2.94011 -1.96183,5.13474 7.9119,2.5146 11.1638,2.11729 21.04654,-2.5711 z m -41.10912,-16.06343 c 5.37663,-1.9341 10.0743,-4.65776 21.27724,-12.33622 11.08531,-7.59789 16.9214,-11.02225 21.34475,-12.52398 3.00059,-1.01877 3.19867,-0.99518 5.65672,0.6729 4.68008,3.17601 9.6974,3.18361 14.47498,0.0219 2.05215,-1.35807 3.01051,-1.59241 4.62199,-1.13027 4.18906,1.20143 11.17183,5.17756 21.54172,12.2664 12.26885,8.387 16.86566,11.07194 22.30669,13.02919 7.22845,2.60026 7.39944,2.35831 1.21855,-1.72383 l -6.17302,-4.07684 4.34344,-1.57271 c 5.37559,-1.94649 6.28952,-2.88084 8.90399,-9.10313 7.07189,-16.83088 12.20178,-49.84268 10.22206,-65.78067 l -0.56843,-4.57568 -1.61868,2.60667 c -0.89028,1.43359 -2.83621,6.18525 -4.32428,10.55925 -3.33503,9.80264 -4.42968,12.36354 -6.30296,14.74472 -2.34303,2.97821 -6.90829,3.69925 -23.6514,3.73529 l -14.78295,0.0316 -3.22506,-2.24004 c -3.73587,-2.59476 -6.85719,-6.91426 -12.1145,-16.76534 -2.8317,-5.30602 -4.22159,-7.20191 -5.6475,-7.70333 -3.69891,-1.30082 -5.28448,0.0536 -9.70058,8.28423 -4.89744,9.12833 -8.42149,13.90294 -12.17678,16.4982 l -2.78736,1.92628 -15.53934,-0.0942 c -18.45215,-0.11191 -20.8776,-0.61279 -23.7619,-4.90738 -1.04615,-1.5577 -3.34834,-7.05442 -5.11589,-12.21487 -1.76762,-5.16052 -3.92451,-10.52538 -4.79305,-11.92201 l -1.57918,-2.5393 -0.46629,3.51975 c -1.59156,12.01397 0.84742,35.57454 5.49665,53.09683 1.59305,6.00385 5.74086,17.32625 7.18557,19.61458 0.31551,0.49973 2.87037,1.80218 5.67744,2.89429 l 5.10376,1.98577 -6.2189,4.02406 c -6.22996,4.03117 -6.04785,4.29494 1.1725,1.69758 z m 66.92881,-89.09986 c 2.48713,-1.19911 6.42277,-2.67086 8.74582,-3.27062 6.59333,-1.70215 22.76376,-2.77934 35.90143,-2.39167 13.38373,0.39498 8.29226,-0.41596 -7.74345,-1.23332 -9.8769,-0.5034 -22.64733,0.32558 -29.21391,1.89644 -1.74228,0.41681 -5.06845,1.74354 -7.39149,2.94828 -3.93704,2.04188 -4.72533,2.19105 -11.61516,2.1983 -6.78735,0.007 -7.69038,-0.15487 -11.04836,-1.98162 -5.10089,-2.77484 -9.57189,-3.81105 -20.59278,-4.77286 -6.82185,-0.59533 -12.14729,-0.63326 -18.69128,-0.13325 l -9.15135,0.69924 9.909,0.10635 c 17.73018,0.19027 32.53974,2.36076 37.27402,5.46272 3.30441,2.16515 7.6023,3.08359 13.41024,2.86564 4.63889,-0.17401 6.51731,-0.61455 10.20727,-2.39357 z m -3.61492,-3.43007 c 2.79095,-1.11674 2.9416,-1.29977 1.77325,-2.15409 -0.70233,-0.51353 -1.14159,-1.04937 -0.97631,-1.19072 0.34895,-0.29841 9.74978,-2.51141 20.36316,-4.79363 10.61649,-2.28284 19.84632,-2.16612 26.27881,0.33227 3.35736,1.30407 6.82347,2.00928 11.48629,2.33705 l 6.67795,0.46939 -0.45785,-4.50689 c -0.25173,-2.47884 -1.25478,-9.57535 -2.22885,-15.7701 -2.47199,-15.72104 -2.6018,-17.64437 -1.66533,-24.68119 0.72155,-5.42253 4.02836,-19.29492 6.24031,-26.179209 0.40427,-1.258304 0.60195,-2.287839 0.43925,-2.287839 -0.45918,0 -6.21658,11.826869 -8.05318,16.54284 -0.90465,2.323031 -1.69102,4.296768 -1.74741,4.386018 -0.0564,0.0892 -3.56777,-3.236894 -7.80292,-7.391469 C 933.78217,83.949892 924.58831,77.583443 912.33887,71.73566 895.14574,63.527748 874.82953,58.272339 856.37485,57.258787 l -7.03949,-0.386542 6.68752,1.072115 c 28.42289,4.556738 54.11805,15.692453 72.58364,31.456089 l 3.09097,2.638684 -4.2237,-1.437119 c -6.30294,-2.144506 -15.27457,-4.017096 -25.03674,-5.225639 -9.93527,-1.230007 -17.71103,-1.334831 -27.60934,-0.372031 -5.54277,0.539148 -7.67538,0.461933 -10.91123,-0.395125 -7.59399,-2.011542 -18.04667,-3.101468 -29.36407,-3.06204 -17.66879,0.06121 -20.10242,1.002559 -3.87172,1.49687 12.97963,0.395415 20.74617,1.438664 25.93802,3.484202 1.6711,0.658409 0.9033,0.979339 -7.28335,3.04389 -5.03325,1.269351 -10.73524,2.845434 -12.6711,3.502358 -6.29845,2.137468 -15.15669,6.733695 -18.09659,9.389701 l -2.8745,2.59694 0.4275,10.41537 c 0.38718,9.43153 0.23062,11.61102 -1.65758,23.07203 -1.14681,6.96108 -2.08511,13.01159 -2.08511,13.44559 0,1.45449 12.08725,0.0471 17.40199,-2.02626 6.57025,-2.56322 16.15178,-2.56998 27.65081,-0.0197 20.4522,4.5362 19.13997,4.13444 17.91785,5.4849 -1.02791,1.13583 -0.89036,1.30154 1.92685,2.3219 5.95112,2.15543 9.99799,2.166 15.31119,0.0401 z m -69.10888,-2.19737 c -1.05775,-0.16065 -2.95842,-0.16389 -4.2237,-0.007 -1.26521,0.15662 -0.39977,0.28805 1.92326,0.292 2.32304,0.007 3.35827,-0.12417 2.30044,-0.28482 z m -22.95869,47.73892 c -7.44991,-13.96728 -11.69022,-35.12802 -8.31013,-41.47004 1.06282,-1.994 1.5653,-2.29812 3.48984,-2.11185 1.78394,0.17275 2.48635,0.72641 3.40141,2.68149 0.63433,1.3551 1.34314,3.51348 1.57523,4.79636 0.37493,2.07236 0.26996,2.28424 -0.94125,1.89981 -0.87557,-0.27784 -1.87969,0.0839 -2.80707,1.0113 -1.20544,1.20538 -1.44394,2.33747 -1.44394,6.8545 0,6.68464 1.55318,13.1443 4.70061,19.54925 1.66822,3.39494 2.34212,5.66244 2.19669,7.39148 l -0.20978,2.49417 z m 166.72788,0.44251 c 0,-1.44853 0.89824,-4.37112 2.04462,-6.65234 3.4961,-6.95735 4.49656,-10.73621 4.831,-18.24673 0.29411,-6.60452 0.20408,-7.25231 -1.20305,-8.65943 -0.98982,-0.98982 -1.99689,-1.36981 -2.88408,-1.08824 -1.21122,0.38443 -1.31618,0.17255 -0.94125,-1.89981 0.23209,-1.28288 0.9409,-3.44126 1.57522,-4.79636 0.91387,-1.95247 1.61832,-2.50887 3.39432,-2.68093 1.74649,-0.16915 2.4339,0.1415 3.11497,1.4079 3.42571,6.36941 1.12843,21.49018 -5.65554,37.22578 -3.37889,7.83737 -4.27621,8.96848 -4.27621,5.39016 z m -165.59157,-9.66517 c -1.67307,-3.71566 -3.51045,-10.47337 -3.11405,-11.45312 0.19273,-0.4763 0.37541,-0.27771 0.40604,0.44123 0.0302,0.71901 1.02664,3.34208 2.21356,5.82899 1.18686,2.48691 2.03329,5.22485 1.88095,6.08424 -0.24631,1.38896 -0.40025,1.28886 -1.3865,-0.90134 z m 164.88762,0.56428 c 0,-1.00609 0.95033,-3.63583 2.11185,-5.8439 2.45981,-4.67614 2.75948,-3.57775 0.61702,2.26143 -1.7905,4.88 -2.72887,6.11184 -2.72887,3.58247 z"
       id="path4881" /></g></svg>
