<?xml version="1.0" encoding="UTF-8" standalone="no"?>
<!-- Created with Inkscape (http://www.inkscape.org/) -->

<svg
   version="1.1"
   id="svg1"
   width="300"
   height="350"
   viewBox="0 0 300 350"
   sodipodi:docname="avt12.svg"
   inkscape:version="1.2.2 (732a01da63, 2022-12-09)"
   xml:space="preserve"
   xmlns:inkscape="http://www.inkscape.org/namespaces/inkscape"
   xmlns:sodipodi="http://sodipodi.sourceforge.net/DTD/sodipodi-0.dtd"
   xmlns="http://www.w3.org/2000/svg"
   xmlns:svg="http://www.w3.org/2000/svg"><defs
     id="defs1" /><sodipodi:namedview
     id="namedview1"
     pagecolor="#ffffff"
     bordercolor="#cccccc"
     borderopacity="1"
     inkscape:showpageshadow="0"
     inkscape:pageopacity="1"
     inkscape:pagecheckerboard="0"
     inkscape:deskcolor="#d1d1d1"
     showgrid="false"
     inkscape:zoom="3.8961584"
     inkscape:cx="203.27716"
     inkscape:cy="289.00263"
     inkscape:window-width="1366"
     inkscape:window-height="705"
     inkscape:window-x="-8"
     inkscape:window-y="-8"
     inkscape:window-maximized="1"
     inkscape:current-layer="g1" /><g
     inkscape:groupmode="layer"
     inkscape:label="Image"
     id="g1"
     transform="translate(-731.76044,-17.422869)"><path
       style="fill:#6c5353;stroke-width:0.193834"
       d="m 895.25968,357.77551 c -3.02097,-0.38875 -8.55915,-0.81369 -16.24706,-1.24698 -15.66691,-0.88297 -21.57136,-1.61575 -29.17219,-3.62062 -4.96993,-1.31094 -11.5754,-4.13536 -16.08834,-6.87926 -1.11934,-0.68064 -2.5456,-1.48587 -3.1697,-1.78948 -1.62662,-0.79149 -3.9682,-2.61677 -5.30671,-4.1366 -2.61672,-2.97134 -3.99565,-5.19531 -7.52594,-12.1374 l -2.54884,-5.01224 -1.82132,3.69871 c -1.00185,2.03427 -1.87594,3.70103 -1.9426,3.70391 -0.27554,0.008 -0.79377,-4.39416 -0.88855,-7.55453 -0.073,-2.40525 -0.0135,-4.31767 0.21714,-6.57364 l 0.31908,-3.18159 -0.90478,-2.71477 c -1.05175,-3.15581 -0.83704,-3.17729 -2.58238,0.25827 -1.15274,2.26932 -2.52167,5.59826 -3.3076,8.04408 -0.46348,1.44197 -0.77471,1.98161 -0.77728,1.34718 0,-0.20801 -0.0865,-1.11936 -0.19172,-2.0256 -0.84813,-7.33984 -1.07121,-20.59177 -0.49592,-29.47443 0.18766,-2.89885 0.23173,-4.78964 0.12033,-5.17718 -0.10411,-0.36444 -0.10276,-2.19613 0,-4.54348 0.90072,-19.78546 0.99387,-38.68105 0.26202,-53.07524 l -0.12304,-2.42791 -1.48304,-0.52542 c -4.82377,-1.70879 -8.24061,-5.37316 -11.79104,-12.6454 -1.30485,-2.67243 -2.76598,-6.83813 -3.37102,-9.61029 -1.68584,-7.72425 -1.63757,-17.44718 0.12304,-24.79537 1.22507,-5.11251 3.07059,-10.82597 4.00714,-12.40543 0.54122,-0.91253 1.48561,-1.91074 2.12472,-2.24555 1.47114,-0.77077 3.61181,0.2147 5.41095,2.49085 0.73267,0.92697 0.75295,0.93772 0.75281,0.4021 -2.7e-4,-0.30276 -0.265,-2.07694 -0.58894,-3.94259 -0.32368,-1.86565 -1.11232,-6.48856 -1.75237,-10.2732 -0.63991,-3.78464 -1.54767,-9.14897 -2.01736,-11.92086 -4.60014,-27.15301 -4.47048,-26.18634 -4.30351,-32.07965 0.27974,-9.884177 3.18795,-18.704613 9.1047,-27.614688 1.70491,-2.567462 3.51054,-4.959892 5.21748,-6.913168 0.9786,-1.119737 1.22169,-1.570612 1.88743,-3.501201 5.63715,-16.348712 16.22449,-27.256929 31.67845,-32.638769 1.39922,-0.487275 2.23166,-0.919154 3.10142,-1.608914 8.60513,-6.824895 21.64802,-7.530713 42.96005,-2.324663 2.84467,0.69486 3.67008,0.810805 7.46266,1.048339 2.3455,0.146926 6.33967,0.410719 8.87594,0.586293 4.30702,0.298084 4.80619,0.297596 7.5596,-0.0076 8.34242,-0.924959 14.39383,-2.589649 19.2003,-5.281573 0.62328,-0.34887 1.17856,-0.634637 1.23399,-0.634637 0.16428,0 -0.14088,2.491285 -0.52269,4.264379 -0.61909,2.874605 -1.5474,4.983491 -3.13319,7.119017 -0.73456,0.989036 -0.742,1.015296 -0.31313,1.10319 0.2412,0.04938 1.57295,0.278824 2.95891,0.509467 7.09059,1.180344 11.43317,2.960926 14.35855,5.887454 2.03846,2.039221 2.98271,4.257215 2.98731,7.016639 v 1.380056 l 2.10187,1.569801 c 6.81071,5.086792 9.01424,8.190361 7.8611,11.072171 l -0.31043,0.775375 0.64749,0.536931 c 5.48991,4.552904 11.20602,10.184268 14.12289,13.913462 4.61164,5.895752 7.52215,11.749782 8.62838,17.354342 0.43765,2.218757 0.58894,6.632337 0.30164,8.811377 -0.83813,6.35666 -4.03283,13.51675 -7.46199,16.7246 -2.26613,2.11979 -5.26696,3.48948 -8.81185,4.02196 -1.0009,0.15017 -1.84498,0.29857 -1.87567,0.32922 -0.0716,0.0706 -1.0946,4.52476 -3.57625,15.55895 -3.00475,13.36001 -3.48499,15.50318 -3.4858,15.55099 0,0.0245 0.52878,-0.29776 1.17545,-0.71581 3.45809,-2.23503 6.5399,-1.09359 8.61635,3.19141 0.99969,2.06282 1.27632,3.08132 1.92299,7.0787 0.73415,4.53869 0.863,6.43353 0.79621,11.72331 -0.0798,6.34521 -0.85637,12.32322 -2.55493,19.67424 -2.95269,12.77831 -7.13019,20.07052 -12.61321,22.01755 l -1.00889,0.35804 -0.10005,0.97526 c -0.0541,0.53633 -0.15021,2.19629 -0.21091,3.68888 -0.1924,4.68459 -0.76322,11.99139 -1.45965,18.68265 -0.21525,2.06662 -0.34477,3.80391 -0.28799,3.86054 0.0568,0.0566 0.11357,-0.0189 0.12574,-0.17129 0.0662,-0.78742 0.32192,1.11367 0.34207,2.53601 0.0216,1.76684 0.48591,8.02991 0.81378,11.04856 1.19479,11.00068 3.48634,20.94047 6.91563,29.9978 0.53513,1.41358 2.4572,4.27184 2.38919,4.3127 -0.50823,0.30444 -4.82542,-0.17443 -6.07469,-0.2409 -2.1089,-0.11208 -3.34546,-1.38313 -5.59496,-3.65501 l -1.86459,-1.88323 -0.22403,1.96798 c -0.69589,6.11511 -0.73983,10.33847 -0.13696,13.12626 0.63005,2.9133 3.42467,6.22515 5.47449,8.43925 0.60043,0.6484 0.97954,1.20855 0.88003,1.29997 -0.41994,0.38598 -2.55385,1.00098 -3.82732,1.10335 -1.86972,0.15019 -5.32752,-1.13634 -7.42425,-2.1747 -0.92046,-0.45608 -1.72789,-0.85453 -1.79414,-0.88589 -0.0662,-0.0326 -0.62423,0.84053 -1.24008,1.9376 -3.08006,5.48748 -6.9397,10.47058 -12.08119,15.59823 -2.56345,2.5565 -8.26442,7.62604 -9.46934,8.42047 -0.46186,0.30442 -0.36127,0.33698 3.17294,1.01833 4.25835,0.82128 8.30281,1.41006 10.96712,1.59655 1.03944,0.0726 1.88986,0.1856 1.88986,0.25092 0,0.16592 -6.6075,1.99446 -10.56394,2.92387 -9.00844,2.11632 -18.01728,2.9797 -26.58941,2.54843 -2.5168,-0.12709 -4.60109,-0.20504 -4.63178,-0.1745 -0.0325,0.032 0.27257,0.53431 0.67385,1.11936 1.00158,1.46064 3.30355,3.41993 6.41105,5.45682 2.90632,1.90494 2.92566,1.85193 -0.51593,1.40921 z m 4.88069,-102.24503 c 1.70383,-0.24636 2.5936,-0.70206 3.03125,-1.55329 0.28487,-0.55429 0.34801,-1.24518 0.37681,-4.12131 l 0.0325,-3.45542 -3.85328,-1.89788 c -2.92525,-1.44082 -4.2374,-2.2085 -5.44855,-3.18803 -2.27749,-1.84206 -5.42285,-3.84097 -7.3384,-4.66394 -2.73218,-1.17372 -4.28945,-1.50452 -7.15454,-1.51976 -3.63939,-0.0189 -5.72476,0.51256 -12.01778,3.06509 -7.1183,2.88757 -9.556,3.53144 -14.05299,3.712 -3.11737,0.12506 -3.23919,0.17204 -3.92061,1.50735 -0.56691,1.11057 -0.40521,2.93444 0.41426,4.68677 0.81514,1.74151 1.39665,2.47575 2.45001,3.09309 3.56814,2.09098 10.76661,3.01692 29.35607,3.77591 2.8252,0.11532 6.70674,0.32282 8.62567,0.46063 4.39248,0.31598 7.75294,0.35077 9.49774,0.0988 z m -69.63896,-18.29743 c 1.83673,-0.32738 4.4137,-1.07785 4.4137,-1.28515 0,-0.0838 -0.17306,-0.20749 -0.38412,-0.27428 -0.81148,-0.25771 -2.67106,-2.40127 -3.51825,-4.0557 -0.46144,-0.90131 -0.78498,-1.69291 -0.71873,-1.75903 0.0662,-0.0658 1.37325,-0.0218 2.90469,0.0968 2.02872,0.15804 3.64521,0.15957 5.95542,0.005 3.05775,-0.20287 8.03092,-0.82389 9.23247,-1.15278 0.32002,-0.0876 2.8494,-1.61716 5.6212,-3.39933 5.33889,-3.43246 8.18559,-4.94865 11.07974,-5.90085 3.28529,-1.08089 4.7732,-1.28272 9.36983,-1.27089 3.74647,0.008 4.41221,0.0626 6.59033,0.52492 4.91368,1.04276 8.89649,2.55493 15.72356,5.96998 3.77635,1.88904 4.38936,2.13438 6.20284,2.48299 5.30834,1.02028 10.46159,1.39693 13.91454,1.01708 1.10921,-0.12182 2.04833,-0.18989 2.08713,-0.15154 0.0365,0.0369 -0.59408,0.96143 -1.40625,2.05045 -0.8123,1.08903 -1.43639,2.0204 -1.38718,2.0696 0.0487,0.0494 0.82122,0.17342 1.71559,0.2766 3.85707,0.44366 7.57704,0.064 9.91497,-1.01133 0.7209,-0.3315 1.34987,-0.564 1.39746,-0.51641 0.0879,0.0877 -0.34477,2.11447 -0.58381,2.73523 -0.11357,0.29304 -0.0135,0.33926 0.7735,0.33926 3.76932,0 8.05498,-1.55374 10.20038,-3.69806 2.08591,-2.08474 2.60036,-3.44179 4.21942,-11.13022 2.65781,-12.62143 3.71375,-22.20584 3.7128,-33.70034 0,-13.08298 -1.31714,-24.3035 -3.87248,-33.01672 -0.92168,-3.14302 -2.53154,-7.5229 -3.24487,-8.82863 -0.32084,-0.58782 -0.34571,-1.56823 -0.35423,-14.19983 -0.0135,-13.68555 -0.11898,-16.51636 -0.76971,-19.94866 -1.8996,-10.019777 -8.8009,-15.419617 -21.22091,-16.604097 -2.94485,-0.28072 -9.48624,-0.12979 -13.08399,0.30307 -4.44304,0.534 -10.65642,1.63545 -14.24674,2.52564 -4.40667,1.09261 -12.0413,2.31652 -17.73592,2.8433 -3.57287,0.33057 -17.06287,0.3315 -20.8372,0 -5.69704,-0.49813 -12.38148,-1.41783 -17.92966,-2.46671 -2.37322,-0.4487 -2.69487,-0.46519 -5.52439,-0.28393 -6.06615,0.38875 -9.66796,1.39353 -12.40541,3.45971 -2.14594,1.619807 -3.27691,3.656317 -3.69658,6.656737 -0.28663,2.04944 -0.53351,0.0369 3.70253,30.1674 l 0.96278,6.84763 -0.87787,1.35694 c -0.48281,0.74635 -1.70275,2.4794 -2.71096,3.85117 -3.6114,4.91403 -5.284,7.87187 -5.98814,10.58973 -0.8392,3.23802 -1.26211,11.58512 -0.90707,17.89962 0.43508,7.7376 1.51752,15.22957 4.03229,27.91218 l 1.28754,6.49343 0.13114,6.49345 c 0.13696,6.78654 0.19091,7.24158 1.14707,9.66683 1.00631,2.55331 4.00903,6.25927 6.47743,7.99466 2.88861,2.03092 6.61426,2.73961 10.63425,2.02284 z M 961.99435,124.14993 c 3.46268,-2.92696 5.14177,-6.31846 4.54633,-9.18233 -0.12709,-0.60967 -0.48497,-1.61282 -0.79607,-2.22906 -0.68791,-1.36302 -2.31143,-3.43529 -2.52032,-3.21702 -0.0838,0.0868 -0.81811,3.55997 -1.63284,7.71779 -0.8146,4.15777 -1.53172,7.76516 -1.59323,8.01658 -0.0987,0.40062 -0.0676,0.43248 0.2531,0.25766 0.20091,-0.10978 0.98522,-0.72323 1.74276,-1.36362 z"
       id="path16039"
       sodipodi:nodetypes="csssccsccccccscccccccccccscccscccccsccscsscccsccccsccsccsccscccscccccccccccsccscccsccsccccccscccsccccsccccccsccccccccsccccscccccscsccscccccccccscccccccccscccccccccccssccccccccccccccc" /></g></svg>
