<?xml version="1.0" encoding="UTF-8" standalone="no"?>
<!-- Created with Inkscape (http://www.inkscape.org/) -->

<svg
   version="1.1"
   id="svg1"
   width="300"
   height="350"
   viewBox="0 0 300 350"
   sodipodi:docname="avt8.svg"
   inkscape:version="1.2.2 (732a01da63, 2022-12-09)"
   xml:space="preserve"
   xmlns:inkscape="http://www.inkscape.org/namespaces/inkscape"
   xmlns:sodipodi="http://sodipodi.sourceforge.net/DTD/sodipodi-0.dtd"
   xmlns="http://www.w3.org/2000/svg"
   xmlns:svg="http://www.w3.org/2000/svg"><defs
     id="defs1" /><sodipodi:namedview
     id="namedview1"
     pagecolor="#ffffff"
     bordercolor="#cccccc"
     borderopacity="1"
     inkscape:showpageshadow="0"
     inkscape:pageopacity="1"
     inkscape:pagecheckerboard="0"
     inkscape:deskcolor="#d1d1d1"
     showgrid="false"
     inkscape:zoom="0.1721875"
     inkscape:cx="-513.97459"
     inkscape:cy="394.91833"
     inkscape:window-width="1366"
     inkscape:window-height="705"
     inkscape:window-x="-8"
     inkscape:window-y="-8"
     inkscape:window-maximized="1"
     inkscape:current-layer="g1" /><g
     inkscape:groupmode="layer"
     inkscape:label="Image"
     id="g1"
     transform="translate(-731.76044,-17.422869)"><path
       style="fill:#000000;stroke-width:1.40176"
       d="m 786.23011,355.72125 c -4.61645,-2.58229 -4.92288,-3.37738 -9.20153,-23.87531 -3.16967,-15.18509 -3.43439,-18.93446 -2.72175,-38.54854 1.02155,-28.11652 3.12445,-37.0288 10.18185,-43.15156 6.33181,-5.49327 8.92586,-5.33464 11.73802,0.71782 2.34198,5.04052 2.75301,5.16846 10.0727,3.13548 5.73733,-1.59351 12.66156,-8.73678 11.47251,-11.83541 -0.82066,-2.13861 -6.52624,-4.4374 -22.41182,-9.02972 -12.50894,-3.61619 -13.91511,-5.12325 -10.31055,-11.05047 2.45733,-4.04077 3.38765,-4.48148 9.45998,-4.48148 6.54234,0 7.0926,0.34221 19.27139,11.9849 9.93517,9.49784 13.17219,11.82542 15.59878,11.2164 4.9324,-1.23795 17.70548,-13.84077 25.59598,-25.25478 10.11434,-14.63089 11.87962,-20.47524 10.96302,-36.29534 -1.28221,-22.1306 -9.5164,-41.41329 -19.76026,-46.27434 -2.80237,-1.32981 -5.09524,-2.9318 -5.09524,-3.55996 0,-0.62815 1.88097,-5.29048 4.17992,-10.36073 5.00954,-11.0483 7.38238,-20.833595 6.19709,-25.556133 -1.05646,-4.20924 -3.48137,-4.332133 -28.12901,-1.425573 -19.32682,2.279099 -24.53091,1.508718 -30.2589,-4.47933 -5.7278,-5.987866 -11.12051,-19.16714 -11.92043,-29.132391 -0.57739,-7.193133 -0.14097,-10.011831 2.34538,-15.147942 1.68013,-3.470673 4.48349,-7.246454 6.22971,-8.390618 1.74623,-1.144163 9.61438,-3.414686 17.48479,-5.045598 13.50634,-2.79878 14.8339,-2.843748 23.64306,-0.800774 5.13325,1.190492 10.0077,2.681956 10.83212,3.314391 0.82442,0.632435 7.05914,2.855957 13.85495,4.941154 11.92313,3.658425 13.32386,3.776398 39.97876,3.367293 l 27.62271,-0.423978 17.49364,8.705987 c 9.62151,4.78829 18.91055,10.150044 20.64231,11.915007 19.79838,20.177899 26.01681,38.286991 27.81701,81.007015 0.8396,19.92525 0.6669,22.45612 -2.0821,30.51359 -2.969,8.7023 -10.12201,24.03583 -18.78826,40.27556 -2.46853,4.62584 -4.58059,8.60807 -4.69343,8.8494 -0.11285,0.24135 -5.18066,-3.57811 -11.2618,-8.48768 -6.08114,-4.90957 -13.72512,-9.99421 -16.98663,-11.29921 l -5.93001,-2.37273 2.28471,-5.25988 c 4.35009,-10.01484 6.16624,-17.65748 6.16624,-25.94847 0,-7.5282 -0.4375,-8.76478 -4.55574,-12.87615 -5.36096,-5.35205 -12.67003,-7.13963 -20.53419,-5.02204 -7.12956,1.91979 -18.57775,14.22704 -21.82992,23.46801 -3.30291,9.38511 -4.14486,26.19566 -2.3116,46.15348 0.85973,9.35941 1.18049,18.93037 0.7128,21.26881 -0.46768,2.33845 -3.77749,7.73302 -7.35512,11.98791 -3.57765,4.25491 -7.65311,10.7692 -9.0566,14.47621 -1.40348,3.70702 -3.15968,7.68622 -3.90261,8.84268 -0.74295,1.15646 -2.3712,4.46812 -3.61834,7.35926 -1.24713,2.89114 -3.08137,5.25663 -4.07606,5.25663 -0.9947,0 -2.65481,2.99627 -3.68913,6.65838 -1.11846,3.95999 -2.69244,6.65839 -3.88387,6.65839 -1.12681,0 -2.52728,2.14652 -3.20099,4.90617 -3.12199,12.78859 -4.02333,15.41943 -5.28278,15.41943 -0.74627,0 -2.37079,2.5341 -3.61006,5.63132 -1.23926,3.09724 -2.96885,5.50615 -3.8435,5.35311 -0.87466,-0.15302 -4.45513,2.51694 -7.9566,5.93323 -4.63192,4.51926 -9.97836,7.67532 -19.62472,11.58471 -16.16592,6.55157 -19.2337,7.12584 -23.95588,4.48441 z m 2.53708,-199.31304 c -0.52309,-0.5231 -0.95108,-2.36364 -0.95108,-4.09012 0,-2.48509 1.36609,-3.60449 6.55765,-5.37343 10.07916,-3.43431 16.69259,-2.94418 21.19093,1.57048 l 3.79114,3.80492 -10.51323,1.73971 c -5.78229,0.95685 -12.45075,2.09068 -14.81879,2.51962 -2.36804,0.42895 -4.73352,0.35191 -5.25662,-0.17118 z"
       id="path4748" /></g></svg>
