<?xml version="1.0" encoding="UTF-8" standalone="no"?>
<!-- Created with Inkscape (http://www.inkscape.org/) -->

<svg
   version="1.1"
   id="svg1"
   width="300"
   height="350"
   viewBox="0 0 300 350"
   sodipodi:docname="avt9.svg"
   inkscape:version="1.2.2 (732a01da63, 2022-12-09)"
   xml:space="preserve"
   xmlns:inkscape="http://www.inkscape.org/namespaces/inkscape"
   xmlns:sodipodi="http://sodipodi.sourceforge.net/DTD/sodipodi-0.dtd"
   xmlns="http://www.w3.org/2000/svg"
   xmlns:svg="http://www.w3.org/2000/svg"><defs
     id="defs1" /><sodipodi:namedview
     id="namedview1"
     pagecolor="#ffffff"
     bordercolor="#cccccc"
     borderopacity="1"
     inkscape:showpageshadow="0"
     inkscape:pageopacity="1"
     inkscape:pagecheckerboard="0"
     inkscape:deskcolor="#d1d1d1"
     showgrid="false"
     inkscape:zoom="0.060877475"
     inkscape:cx="1437.3132"
     inkscape:cy="2348.9805"
     inkscape:window-width="1366"
     inkscape:window-height="705"
     inkscape:window-x="-8"
     inkscape:window-y="-8"
     inkscape:window-maximized="1"
     inkscape:current-layer="g1" /><g
     inkscape:groupmode="layer"
     inkscape:label="Image"
     id="g1"
     transform="translate(-731.76044,-17.422869)"><path
       style="fill:#000000;stroke-width:2.43479"
       d="m 861.13606,345.51984 c -8.98636,-4.61297 -20.18029,-12.22864 -24.87538,-16.92376 -9.99711,-9.99711 -11.13367,-10.32493 -11.13367,-3.21146 0,5.08286 -0.34216,4.99981 -7.52156,-1.82609 -9.30062,-8.8426 -17.87674,-23.34261 -21.87047,-36.97731 -2.85807,-9.75758 -7.0329,-13.98658 -7.21076,-7.30436 -0.14268,5.36388 -9.44788,-7.98237 -12.01869,-17.23833 -5.31733,-19.14438 -2.32647,-37.44039 8.001,-48.94427 l 5.31608,-5.92166 -9.13044,5.23084 -9.13045,5.23085 v -10.10083 c 0,-14.17589 5.02506,-51.78618 7.44143,-55.69598 1.5245,-2.46666 4.1378,-1.06529 10.79356,5.78793 9.85501,10.14738 14.79028,11.35394 17.06941,4.17302 1.81467,-5.71751 6.08696,-6.52968 6.08696,-1.15713 0,7.25515 11.3304,8.80073 26.20115,3.57407 17.41537,-6.121 24.08505,-6.09047 34.33284,0.15729 7.40833,4.51655 8.58019,4.6341 12.3337,1.23721 7.2853,-6.59311 18.19713,-7.12927 33.97411,-1.66931 15.78562,5.46295 27.07143,4.08754 27.07143,-3.29919 0,-5.33142 4.2376,-4.57316 7.39309,1.3229 2.59236,4.84391 2.94275,4.87685 9.2161,0.86649 3.58671,-2.29289 8.56645,-6.29361 11.06613,-8.89052 2.49965,-2.5969 5.39862,-3.80857 6.44212,-2.69256 2.41921,2.58723 7.27393,39.24821 7.27393,54.92992 v 11.95258 l -7.07152,-5.03538 c -9.29609,-6.61938 -12.07157,-6.40858 -5.8311,0.44291 2.74437,3.01305 6.22232,7.87147 7.72879,10.79648 4.51619,8.76878 3.28336,31.47036 -2.43035,44.75224 -4.69709,10.91855 -9.43932,15.73239 -9.43932,9.58173 0,-1.33913 -0.88831,-2.43478 -1.97401,-2.43478 -1.08569,0 -3.96643,6.65149 -6.40163,14.7811 -3.25086,10.85262 -7.5549,18.13263 -16.19408,27.39134 -10.1619,10.89065 -11.77908,11.8632 -11.85926,7.13198 -0.12466,-7.3524 -2.9961,-6.89916 -9.16656,1.4468 -4.52656,6.12251 -40.70597,27.35416 -46.08073,27.04219 -1.13464,-0.066 -9.41547,-3.894 -18.40185,-8.50695 z M 913.22371,202.8612 c 5.35721,-2.95325 5.39631,-3.15607 0.77299,-4.01056 -14.40137,-2.66171 -23.8907,-6.16022 -28.08474,-10.35427 -4.64007,-4.64006 -4.80396,-4.62516 -13.41684,1.21971 -4.79568,3.25443 -13.56941,6.64446 -19.49716,7.53337 -11.78356,1.76708 -12.17293,4.81728 -0.98643,7.72787 11.20929,2.91656 54.81765,1.40899 61.21218,-2.11612 z M 806.34502,120.55897 c -12.92674,-2.10828 -19.46129,-7.97353 -22.99003,-20.635272 -1.52537,-5.473302 -4.80286,-11.77056 -7.28332,-13.993909 -7.23876,-6.488412 -5.83231,-18.265887 3.0978,-25.940868 4.18426,-3.596154 10.48427,-7.858613 14.00002,-9.472145 9.01229,-4.136093 59.17039,-4.054163 69.16621,0.112974 8.92099,3.719062 26.47017,3.452989 36.60209,-0.554912 8.49668,-3.361077 57.4974,-3.581254 66.13515,-0.29719 3.49231,1.327786 10.13755,5.436487 14.76715,9.130447 6.83057,5.450147 8.41747,8.388471 8.41751,15.586259 5e-5,5.13752 -1.3635,9.39321 -3.2404,10.113444 -1.78227,0.683907 -5.58192,7.648978 -8.4437,15.477912 -2.86177,7.82893 -7.40321,15.59675 -10.09206,17.26183 -2.68888,1.66508 -15.81817,3.74365 -29.17621,4.61906 -20.39484,1.33655 -25.27902,0.94187 -30.47478,-2.46252 -7.06349,-4.62817 -17.5627,-23.923042 -20.37006,-37.434961 -1.4073,-6.773331 -3.12327,-9.140357 -6.62634,-9.140357 -2.84941,0 -5.03068,1.934365 -5.49115,4.869572 -2.04403,13.029539 -11.52642,33.502946 -18.06555,39.005246 -6.18185,5.2017 -9.42723,5.99608 -23.4241,5.73353 -8.9364,-0.16751 -20.8651,-1.05776 -26.50823,-1.97811 z m 43.78849,-12.32131 c 7.19703,-5.66119 13.95008,-23.582189 13.95008,-37.020309 0,-7.813107 -1.03532,-9.759304 -6.24547,-11.740198 -9.25297,-3.517973 -54.65014,-2.914585 -61.92854,0.823129 -5.53201,2.840859 -6.06666,4.482587 -5.86416,18.006509 0.38772,25.895609 4.27081,30.973499 25.34245,33.140309 21.66896,2.22822 28.65288,1.58312 34.74564,-3.20944 z m 110.06842,0.89735 c 5.32887,-2.04491 9.33424,-14.944722 9.57204,-30.828219 0.20258,-13.523922 -0.33215,-15.16565 -5.86415,-18.006509 -7.41208,-3.80635 -52.74867,-4.313321 -62.2623,-0.696227 -6.28178,2.388306 -6.51851,3.089792 -5.23606,15.515406 1.47361,14.277829 9.04375,31.351819 15.74204,35.505169 4.1057,2.54579 40.47021,1.41841 48.04843,-1.48962 z"
       id="path4824" /></g></svg>
