<?xml version="1.0" encoding="UTF-8" standalone="no"?>
<!-- Created with Inkscape (http://www.inkscape.org/) -->

<svg
   version="1.1"
   id="svg1"
   width="300"
   height="350"
   viewBox="0 0 300 350"
   sodipodi:docname="avtfour.svg"
   inkscape:version="1.2.2 (732a01da63, 2022-12-09)"
   xml:space="preserve"
   xmlns:inkscape="http://www.inkscape.org/namespaces/inkscape"
   xmlns:sodipodi="http://sodipodi.sourceforge.net/DTD/sodipodi-0.dtd"
   xmlns="http://www.w3.org/2000/svg"
   xmlns:svg="http://www.w3.org/2000/svg"><defs
     id="defs1" /><sodipodi:namedview
     id="namedview1"
     pagecolor="#ffffff"
     bordercolor="#cccccc"
     borderopacity="1"
     inkscape:showpageshadow="0"
     inkscape:pageopacity="1"
     inkscape:pagecheckerboard="0"
     inkscape:deskcolor="#d1d1d1"
     showgrid="false"
     inkscape:zoom="0.12175495"
     inkscape:cx="-694.01696"
     inkscape:cy="-24.639655"
     inkscape:window-width="1366"
     inkscape:window-height="705"
     inkscape:window-x="-8"
     inkscape:window-y="-8"
     inkscape:window-maximized="1"
     inkscape:current-layer="g1" /><g
     inkscape:groupmode="layer"
     inkscape:label="Image"
     id="g1"
     transform="translate(-731.76044,-17.422869)"><path
       style="fill:#000000;stroke-width:0.609966"
       d="m 879.6211,341.45112 c -0.0256,-1.09031 -0.12364,-2.39412 -0.21776,-2.89734 -0.0941,-0.50321 -0.36,-3.11082 -0.59087,-5.79467 -0.23093,-2.68384 -1.08964,-7.55127 -1.90834,-10.81651 -1.52004,-6.06257 -8.17774,-23.76732 -10.75253,-28.59421 l -1.42799,-2.67688 -0.37586,7.92956 c -0.38385,8.09741 -2.07839,22.78643 -2.70037,23.40844 -0.55233,0.5523 -1.36779,-1.11339 -3.09888,-6.32942 -2.24686,-6.77044 -3.85534,-9.77498 -8.55384,-15.97812 -2.23735,-2.95387 -5.13249,-7.01758 -6.43367,-9.03046 -2.69642,-4.17135 -2.67317,-3.24814 0.11888,4.72723 0.91025,2.59998 1.53595,4.72724 1.39048,4.72724 -0.46327,0 -13.67694,-12.25914 -19.76067,-18.3332 -8.85951,-8.84543 -11.69542,-15.37756 -13.09346,-30.15904 l -0.4615,-4.87973 -1.00083,5.6485 c -0.98454,5.55717 -2.06729,8.02163 -2.72185,6.19534 -0.17042,-0.47546 -1.00876,-5.11896 -1.86308,-10.31893 -2.38606,-14.52407 -3.49327,-17.90059 -10.11529,-30.84823 -3.27271,-6.39888 -6.49504,-13.53547 -7.16069,-15.85909 -2.57284,-8.98043 -2.49927,-8.91909 -2.14061,-1.7849 0.18549,3.69028 0.69115,8.631 1.12361,10.97936 0.43247,2.34837 0.6942,4.36616 0.5816,4.48397 -0.77574,0.81182 -9.16252,-18.90237 -10.84683,-25.49703 -1.22443,-4.79391 -1.32417,-6.55884 -1.23401,-21.83699 0.0537,-9.14185 -0.14134,-16.62155 -0.43393,-16.62155 -0.66047,0 -2.52794,7.42622 -3.05758,12.15884 -0.0213,0.18999 -0.3295,-0.34077 -0.68492,-1.17946 -1.01267,-2.38961 -1.39249,-20.09097 -0.52567,-24.49705 0.40769,-2.07226 1.82038,-7.22097 3.13931,-11.4416 4.89929,-15.67781 4.55394,-20.44396 -0.8051,-11.1097 -2.60156,4.53136 -2.89209,2.96194 -0.80863,-4.36808 1.94457,-6.84128 4.51753,-12.400411 9.74096,-21.046429 7.45384,-12.337941 9.55371,-18.082519 13.40222,-36.664208 1.20944,-5.83972 2.19899,-10.849058 2.19899,-11.131863 0,-0.28281 0.23105,-0.514195 0.51335,-0.514195 0.28234,0 0.68938,5.832794 0.90445,12.961762 0.56122,18.599539 2.58125,31.034524 7.17679,44.179782 2.97456,8.508511 6.05208,13.211981 10.00934,15.297791 2.85549,1.50508 11.39025,1.15918 14.25959,-0.57788 1.21524,-0.73569 6.33217,-5.36483 11.37103,-10.287 13.37075,-13.061089 15.2825,-13.796429 29.24021,-11.246771 l 8.87054,1.62037 8.88268,-1.62259 c 13.97546,-2.552888 15.8122,-1.856698 28.91162,10.958261 11.13757,10.89571 12.28643,11.63965 18.59976,12.04407 2.6686,0.17093 5.82517,0.0494 7.01459,-0.27012 10.39992,-2.79356 18.91204,-31.443669 18.9315,-63.719705 0.006,-4.760803 0.25228,-8.808721 0.55434,-8.99537 0.30199,-0.186643 0.99321,1.787167 1.53601,4.386254 5.24082,25.092928 6.9541,30.168989 14.48775,42.923612 3.03854,5.144438 6.19796,10.868979 7.02092,12.721219 1.85925,4.18491 4.46455,13.03052 4.46455,15.15793 0,1.3479 -0.39373,0.99481 -2.59236,-2.32426 -2.68609,-4.05524 -4.12069,-5.19405 -4.11246,-3.26467 0.0118,1.65656 1.97179,9.31514 4.46349,17.39896 2.57637,8.35815 3.63029,15.76894 3.17507,22.32399 -0.75687,10.89653 -1.69449,14.60041 -2.40832,9.5132 -0.59376,-4.23075 -2.11914,-9.38509 -2.77746,-9.38509 -0.33199,0 -0.41149,5.627 -0.19616,13.88092 0.39996,15.33067 -0.11172,20.89212 -2.67692,29.1072 -1.40108,4.48626 -8.90251,21.05823 -9.53225,21.05823 -0.14865,0 0.0952,-1.71553 0.54319,-3.81228 0.44735,-2.09676 0.95714,-7.1061 1.13272,-11.13187 l 0.31928,-7.31958 -1.22868,4.87971 c -1.2636,5.01869 -4.67483,12.39972 -12.10934,26.20092 -5.29675,9.83274 -7.54887,16.54522 -9.46166,28.20065 -1.75877,10.71698 -2.14194,12.38963 -2.8384,12.38963 -0.67183,0 -1.63514,-3.62252 -2.161,-8.12624 -0.4427,-3.79189 -1.42938,-3.65784 -1.44762,0.19669 -0.0184,3.85857 -3.0619,14.84898 -5.52098,19.93608 -2.75778,5.70514 -7.69673,12.47714 -13.9312,19.10169 -4.20444,4.46755 -4.29507,4.52472 -3.86773,2.43987 0.71189,-3.4728 0.52518,-16.3209 -0.24844,-17.09427 -0.50798,-0.50788 -0.79882,-0.0804 -1.12069,1.64708 -1.11965,6.00871 -8.58325,22.24714 -14.37578,31.27726 -3.2072,4.99968 -4.6175,6.57577 -5.28603,5.90728 -0.21732,-0.21738 0.47773,-4.30514 1.54462,-9.08391 2.07321,-9.28615 3.11827,-15.79785 3.13778,-19.55155 0.0256,-4.97729 -2.07912,-0.76552 -7.10603,14.21769 -3.64454,10.86295 -6.5864,17.689 -7.62346,17.689 -0.42606,0 -0.58929,-1.94477 -0.47365,-5.64219 0.34775,-11.11739 -0.33029,-14.02913 -1.72192,-7.39454 -0.39594,1.88777 -1.81783,6.2404 -3.15974,9.67249 -1.34187,3.43209 -3.45271,10.12208 -4.69082,14.86662 -2.22034,8.50871 -3.22605,10.52295 -3.31736,6.64408 z m 16.74599,-213.62526 c 2.97821,-0.86882 5.97479,-1.97182 6.65904,-2.45112 1.23488,-0.86492 1.23311,-0.87578 -0.2302,-1.45413 -0.81088,-0.32048 -3.51693,-1.43517 -6.0134,-2.47708 -12.58255,-5.2514 -19.66442,-5.13857 -32.88853,0.52393 -2.80468,1.20095 -5.13011,2.45803 -5.16757,2.7935 -0.13827,1.23796 6.33876,3.34755 13.97767,4.55256 6.34382,1.00071 17.54771,0.29633 23.66299,-1.48766 z"
       id="path4436" /></g></svg>
