<?xml version="1.0" encoding="UTF-8" standalone="no"?>
<svg
   width="600.49799"
   height="541.88757"
   version="1.1"
   id="svg1371"
   sodipodi:docname="arabicDarkmini.svg"
   inkscape:version="1.2.2 (732a01da63, 2022-12-09)"
   xml:space="preserve"
   xmlns:inkscape="http://www.inkscape.org/namespaces/inkscape"
   xmlns:sodipodi="http://sodipodi.sourceforge.net/DTD/sodipodi-0.dtd"
   xmlns:xlink="http://www.w3.org/1999/xlink"
   xmlns="http://www.w3.org/2000/svg"
   xmlns:svg="http://www.w3.org/2000/svg"><sodipodi:namedview
     id="namedview1373"
     pagecolor="#505050"
     bordercolor="#eeeeee"
     borderopacity="1"
     inkscape:showpageshadow="0"
     inkscape:pageopacity="0"
     inkscape:pagecheckerboard="0"
     inkscape:deskcolor="#505050"
     showgrid="false"
     inkscape:zoom="0.5674609"
     inkscape:cx="127.76211"
     inkscape:cy="255.52421"
     inkscape:window-width="1366"
     inkscape:window-height="705"
     inkscape:window-x="-8"
     inkscape:window-y="32"
     inkscape:window-maximized="1"
     inkscape:current-layer="svg1371" /><style
     id="style2"><![CDATA[.B{fill:#fff}.C{fill:#3db9ff}.D{filter:url(#G)}.E{opacity:1}.F{opacity:.671}.G{fill:#6eabea}.H{opacity:.392}.I{stroke:#6eabea}.J{font-weight:400}.K{filter:url(#H)}.L{opacity:.216}.M{color-interpolation-filters:sRGB}.N{font-family:Gill Sans MT}.O{fill-opacity:.314}.P{clip-path:url(#B)}.Q{font-size:11.686px}.R{fill:none}.S{stroke:none}.T{stroke-width:2.046}.U{opacity:.264}.V{stroke-width:1.371}.W{stroke-width:1.435}.X{stroke-width:1.358}.Y{stroke-width:.967}.Z{fill-rule:evenodd}.a{fill-opacity:.702}]]></style><defs
     id="defs45"><linearGradient
       id="A"
       gradientUnits="userSpaceOnUse"><stop
         offset="0"
         stop-color="#a9abc3"
         id="stop4" /><stop
         offset="1"
         stop-color="#a9abc3"
         stop-opacity="0"
         id="stop6" /></linearGradient><clipPath
       id="B"><path
         d="m -718.214,-827.593 h 587.261 V 1.584 h -587.261 z"
         stroke-width="0.133"
         class="B"
         id="path9" /></clipPath><filter
       id="C"
       x="-0.5201997"
       y="-0.41838329"
       width="2.0403994"
       height="1.8367666"
       class="M"><feGaussianBlur
         stdDeviation="20.277"
         id="feGaussianBlur12" /></filter><filter
       id="D"
       x="-0.091497011"
       y="-0.44648707"
       width="1.182994"
       height="1.8929741"
       class="M"><feGaussianBlur
         stdDeviation="64.741"
         id="feGaussianBlur15" /></filter><filter
       id="E"
       x="-0.097588912"
       y="-2.8056791"
       width="1.1951778"
       height="6.6113582"
       class="M"><feGaussianBlur
         stdDeviation="67.438"
         id="feGaussianBlur18" /></filter><filter
       id="F"
       x="-0.19985165"
       y="-0.97285074"
       width="1.3997033"
       height="2.9457016"
       class="M"><feGaussianBlur
         stdDeviation="77.46"
         id="feGaussianBlur21" /></filter><filter
       id="G"
       x="-1.2"
       y="-1.2"
       width="3.4000001"
       height="3.4000001"
       class="M"><feGaussianBlur
         stdDeviation="5.736"
         id="feGaussianBlur24" /></filter><filter
       id="H"
       x="-0.57647371"
       y="-1.6838783"
       width="2.1529474"
       height="4.3677568"
       class="M"><feGaussianBlur
         stdDeviation="96.127"
         id="feGaussianBlur27" /></filter><filter
       id="I"
       x="-0.28464955"
       y="-0.12700434"
       width="1.5692991"
       height="1.2540087"
       class="M"><feGaussianBlur
         stdDeviation="44.977"
         id="feGaussianBlur30" /></filter><filter
       id="J"
       x="-0.050294094"
       y="-0.16300096"
       width="1.1005882"
       height="1.3260019"
       class="M"><feGaussianBlur
         stdDeviation="32.994"
         id="feGaussianBlur33" /></filter><filter
       id="K"
       x="-0.0049741664"
       y="-0.0088587068"
       width="1.0099483"
       height="1.0177174"
       class="M"><feGaussianBlur
         stdDeviation=".967"
         id="feGaussianBlur36" /></filter><linearGradient
       xlink:href="#A"
       x1="378.02701"
       y1="-41.048"
       x2="298.02701"
       y2="-134.048"
       id="linearGradient39" /><linearGradient
       xlink:href="#A"
       id="M"
       x1="378.02701"
       y1="-41.048"
       x2="298.02701"
       y2="-134.048" /><path
       id="N"
       d="m -444.028,309.022 h 46.199 v 2.567 h -46.199 z" /><path
       id="O"
       d="m 315.582,176.163 -1.42,-0.948 -1.587,0.632 0.463,-1.644 -1.092,-1.313 1.707,-0.068 0.912,-1.444 0.592,1.602 1.655,0.421 -1.341,1.058 z" /><path
       id="P"
       d="m 749.94,645.38 389.39,97.347 140.61,-75.715 356.94,169.46 -930.21,-39.66 z" /><linearGradient
       inkscape:collect="always"
       xlink:href="#A"
       id="linearGradient1703"
       x1="378.02701"
       y1="-41.048"
       x2="298.02701"
       y2="-134.048" /><linearGradient
       inkscape:collect="always"
       xlink:href="#A"
       id="linearGradient1705"
       x1="378.02701"
       y1="-41.048"
       x2="298.02701"
       y2="-134.048" /><linearGradient
       inkscape:collect="always"
       xlink:href="#A"
       id="linearGradient1707"
       x1="378.02701"
       y1="-41.048"
       x2="298.02701"
       y2="-134.048" /><linearGradient
       inkscape:collect="always"
       xlink:href="#A"
       id="linearGradient1709"
       x1="378.02701"
       y1="-41.048"
       x2="298.02701"
       y2="-134.048" /><linearGradient
       inkscape:collect="always"
       xlink:href="#A"
       id="linearGradient1711"
       x1="378.02701"
       y1="-41.048"
       x2="298.02701"
       y2="-134.048" /><linearGradient
       inkscape:collect="always"
       xlink:href="#A"
       id="linearGradient1713"
       x1="378.02701"
       y1="-41.048"
       x2="298.02701"
       y2="-134.048" /><linearGradient
       inkscape:collect="always"
       xlink:href="#A"
       id="linearGradient1715"
       x1="378.02701"
       y1="-41.048"
       x2="298.02701"
       y2="-134.048" /><linearGradient
       inkscape:collect="always"
       xlink:href="#A"
       id="linearGradient1717"
       x1="378.02701"
       y1="-41.048"
       x2="298.02701"
       y2="-134.048" /><linearGradient
       inkscape:collect="always"
       xlink:href="#A"
       id="linearGradient1719"
       x1="378.02701"
       y1="-41.048"
       x2="298.02701"
       y2="-134.048" /><linearGradient
       inkscape:collect="always"
       xlink:href="#A"
       id="linearGradient1721"
       x1="378.02701"
       y1="-41.048"
       x2="298.02701"
       y2="-134.048" /><linearGradient
       inkscape:collect="always"
       xlink:href="#A"
       id="linearGradient1723"
       x1="378.02701"
       y1="-41.048"
       x2="298.02701"
       y2="-134.048" /><linearGradient
       inkscape:collect="always"
       xlink:href="#A"
       id="linearGradient1725"
       x1="378.02701"
       y1="-41.048"
       x2="298.02701"
       y2="-134.048" /><clipPath
       clipPathUnits="userSpaceOnUse"
       id="clipPath3208"><rect
         style="display:inline;fill:#ffffff;stroke-width:0.132512"
         id="rect3210"
         width="587.26074"
         height="829.177"
         x="-718.21417"
         y="-827.59259" /></clipPath><clipPath
       clipPathUnits="userSpaceOnUse"
       id="clipPath63678"><rect
         style="display:inline;fill:#ffffff;stroke-width:0.132512"
         id="rect63676"
         width="587.26074"
         height="829.177"
         x="-718.21417"
         y="-827.59259" /></clipPath><clipPath
       clipPathUnits="userSpaceOnUse"
       id="clipPath63777"><rect
         style="display:inline;fill:#ffffff;stroke-width:0.132512"
         id="rect63775"
         width="587.26074"
         height="829.177"
         x="-718.21417"
         y="-827.59259" /></clipPath><clipPath
       clipPathUnits="userSpaceOnUse"
       id="clipPath63781"><rect
         style="display:inline;fill:#ffffff;stroke-width:0.132512"
         id="rect63779"
         width="587.26074"
         height="829.177"
         x="-718.21417"
         y="-827.59259" /></clipPath><clipPath
       clipPathUnits="userSpaceOnUse"
       id="clipPath63785"><rect
         style="display:inline;fill:#ffffff;stroke-width:0.132512"
         id="rect63783"
         width="587.26074"
         height="829.177"
         x="-718.21417"
         y="-827.59259" /></clipPath><clipPath
       clipPathUnits="userSpaceOnUse"
       id="clipPath63789"><rect
         style="display:inline;fill:#ffffff;stroke-width:0.132512"
         id="rect63787"
         width="587.26074"
         height="829.177"
         x="-718.21417"
         y="-827.59259" /></clipPath><clipPath
       clipPathUnits="userSpaceOnUse"
       id="clipPath63793"><rect
         style="display:inline;fill:#ffffff;stroke-width:0.132512"
         id="rect63791"
         width="587.26074"
         height="829.177"
         x="-718.21417"
         y="-827.59259" /></clipPath><clipPath
       clipPathUnits="userSpaceOnUse"
       id="clipPath63797"><rect
         style="display:inline;fill:#ffffff;stroke-width:0.132512"
         id="rect63795"
         width="587.26074"
         height="829.177"
         x="-718.21417"
         y="-827.59259" /></clipPath><clipPath
       clipPathUnits="userSpaceOnUse"
       id="clipPath63803"><rect
         style="display:inline;fill:#ffffff;stroke-width:0.132512"
         id="rect63801"
         width="587.26074"
         height="829.177"
         x="-718.21417"
         y="-827.59259" /></clipPath><clipPath
       clipPathUnits="userSpaceOnUse"
       id="clipPath63809"><rect
         style="display:inline;fill:#ffffff;stroke-width:0.132512"
         id="rect63807"
         width="587.26074"
         height="829.177"
         x="-718.21417"
         y="-827.59259" /></clipPath><clipPath
       clipPathUnits="userSpaceOnUse"
       id="clipPath3208-2"><rect
         style="display:inline;fill:#ffffff;stroke-width:0.132512"
         id="rect3210-4"
         width="587.26074"
         height="829.177"
         x="-718.21417"
         y="-827.59259" /></clipPath><filter
       inkscape:collect="always"
       style="color-interpolation-filters:sRGB"
       id="filter57222"
       x="-0.11017459"
       y="-0.5611231"
       width="1.2203492"
       height="2.1222462"><feGaussianBlur
         inkscape:collect="always"
         stdDeviation="3.0830115"
         id="feGaussianBlur57224" /></filter><clipPath
       clipPathUnits="userSpaceOnUse"
       id="clipPath887"><rect
         style="display:inline;fill:#ffffff;stroke-width:0.132512"
         id="rect885"
         width="587.26074"
         height="829.177"
         x="-718.21417"
         y="-827.59259" /></clipPath><filter
       inkscape:collect="always"
       style="color-interpolation-filters:sRGB"
       id="filter57284"
       x="-0.12140358"
       y="-0.61831275"
       width="1.2428072"
       height="2.2366255"><feGaussianBlur
         inkscape:collect="always"
         stdDeviation="3.3972319"
         id="feGaussianBlur57286" /></filter><clipPath
       clipPathUnits="userSpaceOnUse"
       id="clipPath893"><rect
         style="display:inline;fill:#ffffff;stroke-width:0.132512"
         id="rect891"
         width="587.26074"
         height="829.177"
         x="-718.21417"
         y="-827.59259" /></clipPath></defs><rect
     width="600.49799"
     height="541.88757"
     x="0"
     y="0"
     rx="1.358"
     fill="#020617"
     id="rect47"
     style="stroke-width:1.05648" /><path
     d="m 398.6424,173.21412 c -4.91741,0 -8.9211,4.00369 -8.9211,8.9211 0,4.91741 4.00369,8.9211 8.9211,8.9211 4.91741,0 8.9211,-4.00369 8.9211,-8.9211 0,-4.91741 -4.00369,-8.9211 -8.9211,-8.9211 z m 0,1.51119 a 7.4093052,7.4093052 0 1 1 0,14.81861 7.4093052,7.4093052 0 0 1 0,-14.81861 z"
     class="F G"
     id="path49"
     style="stroke-width:1.20702" /><g
     transform="matrix(0.98588841,0,0,0.98588841,2.2662963,240.17094)"
     opacity="0.323"
     id="g77"><path
       d="m 280.271,-78.396 c 3.182,1.839 6.947,3.236 10.515,3.9 1.187,0.221 3.349,0.48 4.492,0.538 6.916,0.35 13.912,-1.521 19.593,-5.238 0.848,-0.555 3.131,-2.329 4.011,-3.118 2.522,-2.258 4.885,-5.13 6.454,-7.842 2.253,-3.896 3.615,-7.722 4.257,-11.955 1.494,-9.86 -1.672,-20.024 -8.537,-27.397 -4.358,-4.681 -9.945,-7.954 -16.17,-9.472 -6.417,-1.565 -13.094,-1.221 -19.133,0.983 -5.747,2.098 -10.735,5.667 -14.49,10.368 -1.982,2.482 -3.477,4.975 -4.681,7.811 -0.959,2.258 -1.864,5.285 -2.226,7.446 -1.314,7.834 0.286,15.967 4.479,22.759 2.855,4.626 6.905,8.599 11.436,11.217 z"
       fill="url(#M)"
       class="H"
       id="path51"
       style="fill:url(#linearGradient1703)" /><path
       d="m 280.367,-78.415 c 5.549,3.207 12.086,4.753 18.475,4.368 2.187,-0.132 5.516,-0.696 7.389,-1.253 1.781,-0.529 3.788,-1.32 5.487,-2.163 1.489,-0.738 3.718,-2.098 3.687,-2.248 -0.004,-0.019 -0.3,0.076 -0.658,0.21 -3.039,1.139 -7.777,0.682 -13.469,-1.299 -3.579,-1.246 -6.57,-2.614 -10.583,-4.84 -1.628,-0.903 -6.06,-3.76 -7.732,-4.984 -6.171,-4.519 -11.089,-9.309 -14.42,-14.045 -0.772,-1.097 -2.124,-3.468 -2.541,-4.453 -0.724,-1.712 -1.072,-3.144 -1.082,-4.444 -0.002,-0.363 -0.022,-0.672 -0.042,-0.687 -0.072,-0.053 -0.278,0.798 -0.464,1.92 -0.558,3.366 -0.581,7.062 -0.062,10.214 0.918,5.578 2.721,10.038 5.827,14.414 a 32.97,32.97 0 0 0 10.188,9.292 z m 14.305,-16.129 c 3.021,1.775 5.546,3.1 8.005,4.202 7.161,3.207 13.346,4.551 17.533,3.81 1.351,-0.239 2.31,-0.615 3.249,-1.271 0.439,-0.307 0.928,-0.979 1.777,-2.442 1.147,-1.977 2.003,-3.784 2.695,-5.696 0.412,-1.138 1.314,-4.552 1.494,-5.656 0.687,-4.208 0.585,-8.244 -0.312,-12.329 -1.535,-6.99 -5.075,-13.073 -10.301,-17.703 -5.068,-4.49 -11.547,-7.372 -18.075,-8.04 -3.834,-0.393 -7.191,-0.219 -10.744,0.556 -5.024,1.096 -9.016,2.975 -13.19,6.21 -2.507,1.943 -4.293,3.783 -6.333,6.523 -0.754,1.012 -0.788,1.07 -0.927,1.535 -0.319,1.069 -0.336,2.104 -0.057,3.57 0.374,1.968 1.342,4.182 2.866,6.558 3.341,5.208 8.779,10.668 15.73,15.793 0.934,0.688 5.721,3.873 6.589,4.383 z"
       fill="url(#M)"
       class="H"
       id="path53"
       style="fill:url(#linearGradient1705)" /><path
       d="m 280.46,-78.434 c 6.214,3.592 13.35,5.025 20.569,4.13 1.5,-0.186 4.147,-0.715 5.295,-1.059 1.8,-0.539 3.642,-1.26 5.236,-2.05 1.448,-0.718 3.437,-1.901 3.411,-2.029 -0.005,-0.026 -0.024,-0.041 -0.042,-0.035 -1.428,0.528 -2.95,0.733 -4.824,0.652 -5.154,-0.225 -11.845,-2.538 -19.335,-6.685 -1.614,-0.894 -6.315,-3.927 -7.988,-5.154 -6.085,-4.465 -11.027,-9.291 -14.31,-13.977 -0.756,-1.078 -1.935,-3.1 -2.376,-4.072 -0.737,-1.623 -1.208,-3.334 -1.25,-4.536 -0.011,-0.31 -0.037,-0.56 -0.059,-0.556 -0.191,0.039 -0.672,3.397 -0.748,5.222 -0.13,3.096 0.065,5.346 0.728,8.398 0.848,3.905 2.215,7.384 4.101,10.442 2.895,4.693 6.891,8.591 11.593,11.309 z m 20.741,-26.42 c 8.485,5.073 16.766,7.887 22.223,7.551 0.897,-0.055 2.357,-0.355 2.977,-0.611 1.06,-0.438 1.822,-1.036 2.367,-1.858 0.438,-0.66 0.57,-1.2 0.841,-3.432 0.502,-4.126 0.092,-9.124 -1.058,-12.923 -1.138,-3.758 -2.667,-6.94 -4.761,-9.909 -4.995,-7.082 -12.567,-11.876 -21.061,-13.333 -3.065,-0.526 -6.476,-0.613 -9.728,-0.249 -1.295,0.145 -3.189,0.503 -4.134,0.781 -1.914,0.564 -2.283,0.68 -3.132,0.991 -2.329,0.851 -4.84,2.089 -6.286,3.098 -0.728,0.508 -1.324,1.564 -1.515,2.683 -0.476,2.785 1.172,6.837 4.58,11.262 4.234,5.497 11.321,11.546 18.685,15.949 z"
       fill="url(#M)"
       class="H"
       id="path55"
       style="fill:url(#linearGradient1707)" /><path
       d="m 280.404,-78.471 a 33.1,33.1 0 0 0 12.673,4.193 c 1.08,0.127 1.899,0.176 1.886,0.113 -0.003,-0.016 -0.281,-0.08 -0.616,-0.141 -5.695,-1.041 -12.98,-4.834 -19.267,-10.031 -3.131,-2.588 -5.932,-5.641 -7.458,-8.128 -0.651,-1.061 -0.463,-0.424 0.307,1.038 2.763,5.248 7.312,9.973 12.475,12.957 z m 4.3,-2.828 c 5.992,3.539 11.724,5.783 16.262,6.367 1.872,0.241 2.888,0.188 4.466,-0.234 2.224,-0.594 4.063,-1.278 5.941,-2.208 0.868,-0.43 2.925,-1.59 3.159,-1.78 0.068,-0.056 -0.403,0.006 -1.075,0.141 -1.67,0.335 -3.145,0.359 -5.239,0.085 -5.075,-0.663 -10.954,-2.89 -18.017,-6.825 -1.356,-0.755 -7.27,-4.664 -8.521,-5.631 -7.019,-5.429 -11.878,-10.559 -14.707,-15.529 -1.38,-2.423 -2.14,-4.645 -2.207,-6.447 l -0.007,-0.207 -0.057,0.165 c -0.101,0.29 -0.434,2.555 -0.527,3.579 -0.255,2.811 -0.129,5.899 0.327,7.986 0.346,1.587 1.866,4.246 3.878,6.782 2.519,3.176 5.715,6.217 9.956,9.47 1.093,0.839 5.11,3.541 6.37,4.285 z m 21.561,-30.912 c 6.209,3.6 12.155,5.762 16.51,6.005 1.278,0.071 2.077,0.023 3.074,-0.184 1.461,-0.303 2.482,-0.917 3.121,-1.878 0.545,-0.819 0.703,-1.479 0.594,-2.483 l -0.128,-1.168 c -0.194,-1.748 -1.118,-5.121 -1.989,-7.26 -1.185,-2.909 -2.116,-4.649 -3.67,-6.856 -1.327,-1.885 -2.469,-3.227 -3.963,-4.658 -2.905,-2.783 -5.917,-4.794 -9.703,-6.479 -2.575,-1.146 -6.4,-2.164 -9.169,-2.441 -1.865,-0.186 -4.797,-0.233 -6.498,-0.104 -2.367,0.18 -5.411,0.763 -6.52,1.249 -0.732,0.32 -1.567,1.292 -1.857,2.158 -0.608,1.82 0.03,4.438 1.803,7.401 2.469,4.126 6.776,8.55 12.406,12.745 1.132,0.844 4.791,3.259 5.987,3.953 z"
       fill="url(#M)"
       class="H"
       id="path57"
       style="fill:url(#linearGradient1709)" /><path
       d="m 283.878,-81.89 c 3.093,1.843 5.623,3.159 8.081,4.203 4.257,1.809 8.206,2.797 11.238,2.814 1.804,0.01 5.217,-1.035 8.176,-2.501 0.868,-0.43 2.925,-1.59 3.159,-1.78 0.068,-0.056 -0.403,0.006 -1.075,0.141 -1.67,0.335 -3.145,0.359 -5.239,0.085 -5.075,-0.663 -10.954,-2.89 -18.017,-6.825 -1.356,-0.755 -7.27,-4.664 -8.521,-5.631 -7.019,-5.429 -11.878,-10.559 -14.707,-15.529 -1.38,-2.423 -2.14,-4.645 -2.207,-6.447 l -0.007,-0.206 -0.057,0.165 c -0.101,0.29 -0.434,2.555 -0.527,3.579 -0.25,2.762 -0.124,6.023 0.297,7.699 0.198,0.787 0.914,2.395 1.552,3.486 2.474,4.229 6.804,8.763 12.517,13.107 a 127.9,127.9 0 0 0 5.336,3.64 z m 26.365,-38.797 c 4.685,2.746 9.321,4.336 12.485,4.284 0.854,-0.014 1.98,-0.254 2.493,-0.53 1.256,-0.677 1.734,-1.816 1.45,-3.455 -0.184,-1.062 -0.631,-2.077 -1.615,-3.668 -2.096,-3.39 -3.947,-5.586 -6.725,-7.982 -3.175,-2.738 -7.283,-5.033 -11.199,-6.257 -1.573,-0.492 -4.379,-1.093 -5.913,-1.266 -1.182,-0.134 -1.739,-0.122 -2.58,0.057 -1.595,0.339 -2.459,1.19 -2.638,2.6 -0.087,0.683 0.157,1.922 0.573,2.913 1.75,4.168 7.305,9.575 13.668,13.304 z"
       fill="url(#M)"
       class="H"
       id="path59"
       style="fill:url(#linearGradient1711)" /><path
       d="m 310.244,-120.687 c 4.685,2.746 9.321,4.336 12.485,4.284 0.854,-0.014 1.981,-0.254 2.493,-0.53 1.256,-0.677 1.734,-1.816 1.45,-3.455 -0.184,-1.062 -0.631,-2.077 -1.615,-3.668 -2.096,-3.39 -3.947,-5.586 -6.725,-7.982 -3.175,-2.738 -7.283,-5.033 -11.199,-6.257 -1.573,-0.492 -4.379,-1.093 -5.913,-1.266 -1.182,-0.134 -1.739,-0.122 -2.58,0.057 -1.595,0.339 -2.459,1.19 -2.638,2.6 -0.087,0.683 0.157,1.922 0.573,2.913 1.75,4.168 7.305,9.575 13.668,13.304 z"
       fill="url(#M)"
       class="H"
       id="path61"
       style="fill:url(#linearGradient1713)" /><path
       d="m 312.212,-123.849 c 2.223,1.254 4.758,2.293 6.631,2.719 0.693,0.158 1.873,0.297 2.471,0.291 0.715,-0.007 1.59,-0.209 2.038,-0.472 0.33,-0.194 0.425,-0.289 0.699,-0.704 0.291,-0.441 0.32,-0.52 0.36,-0.971 0.08,-0.92 -0.289,-2.154 -1.003,-3.348 -0.679,-1.137 -2.172,-2.906 -3.631,-4.303 -2.895,-2.774 -5.928,-4.801 -9.672,-6.465 -1.704,-0.758 -3.721,-1.401 -4.923,-1.571 -1.336,-0.189 -2.66,-0.038 -3.381,0.385 -0.325,0.191 -0.427,0.292 -0.681,0.677 a 1.69,1.69 0 0 0 -0.361,0.943 c -0.275,2.161 2.074,5.695 5.986,9.008 a 39.86,39.86 0 0 0 5.467,3.81 z"
       fill="url(#M)"
       class="H"
       id="path63"
       style="fill:url(#linearGradient1715)" /><path
       d="m 312.212,-123.849 c 2.223,1.254 4.758,2.293 6.631,2.719 0.693,0.158 1.873,0.297 2.471,0.291 0.715,-0.007 1.59,-0.209 2.038,-0.472 0.331,-0.194 0.425,-0.289 0.699,-0.704 0.354,-0.538 0.411,-0.796 0.356,-1.611 -0.055,-0.799 -0.547,-2.04 -1.21,-3.049 -0.799,-1.215 -2.727,-3.32 -4.402,-4.804 -3.177,-2.816 -7.088,-5.127 -10.962,-6.476 -0.616,-0.215 -1.356,-0.448 -1.644,-0.518 -1.754,-0.428 -3.463,-0.356 -4.388,0.186 -0.325,0.191 -0.427,0.292 -0.681,0.677 -0.262,0.396 -0.307,0.514 -0.361,0.943 -0.275,2.161 2.074,5.695 5.986,9.008 a 39.86,39.86 0 0 0 5.467,3.81 z m -1.562,-6.409 c -1.801,-1.52 -2.959,-3.021 -3.245,-4.209 -0.449,-1.864 1.256,-2.385 4.245,-1.297 1.129,0.411 2.087,0.911 3.379,1.763 2.211,1.459 3.74,2.955 4.62,4.519 0.845,1.502 0.571,2.574 -0.715,2.801 -1.136,0.2 -3.014,-0.31 -5.04,-1.37 -0.609,-0.318 -2.655,-1.711 -3.244,-2.207 z"
       fill="url(#M)"
       class="H"
       id="path65"
       style="fill:url(#linearGradient1717)" /><path
       d="m 303.217,-74.5 a 32.64,32.64 0 0 1 -7.595,0.616 c -10.068,-0.36 -19.493,-5.307 -25.409,-13.336 -2.54,-3.447 -4.281,-7.115 -5.443,-11.463 -0.809,-3.027 -1.168,-6.729 -0.982,-10.109 0.065,-1.18 0.425,-4.05 0.632,-5.041 1.388,-6.646 5.013,-12.915 10.15,-17.558 0.849,-0.767 2.561,-2.113 3.556,-2.796 a 34.16,34.16 0 0 1 10.193,-4.678 c 0.601,-0.161 1.211,-0.302 1.828,-0.427 -6.26,2.567 -11.39,7.699 -14.474,14.484 -3.1,6.821 -3.931,14.864 -2.342,22.685 1.596,7.797 5.494,14.858 10.996,19.919 5.463,5.025 12.153,7.752 18.889,7.704 z"
       fill="url(#M)"
       class="H"
       id="path67"
       style="fill:url(#linearGradient1719)" /><path
       d="m 315.836,-135.532 c 42.064,27.795 67.705,63.13 57.269,78.924 -10.436,15.794 -52.996,6.064 -95.061,-21.731 -42.065,-27.795 -67.705,-63.13 -57.269,-78.924 10.436,-15.794 52.996,-6.064 95.061,21.731 z m -0.453,0.686 c -41.055,-27.128 -82.596,-36.624 -92.781,-21.21 -10.185,15.414 14.839,49.902 55.896,77.031 41.057,27.129 82.596,36.624 92.781,21.21 10.185,-15.414 -14.839,-49.902 -55.896,-77.031 z"
       fill="url(#M)"
       paint-order="normal"
       class="H"
       id="path69"
       style="fill:url(#linearGradient1721)" /><path
       d="m 298.715,-139.893 c -3.993,-0.219 -7.977,0.279 -11.742,1.482 -19.395,-8.455 -35.824,-9.804 -40.894,-2.13 -6.969,10.547 10.154,34.144 38.244,52.705 28.09,18.561 56.512,25.058 63.481,14.512 5.071,-7.675 -2.615,-22.26 -18.001,-36.786 -0.384,-3.945 -1.482,-7.803 -3.23,-11.373 27.498,21.608 42.836,45.718 35.147,57.355 -8.876,13.433 -45.074,5.158 -80.85,-18.481 -35.776,-23.639 -57.583,-53.693 -48.707,-67.125 7.69,-11.638 35.888,-6.981 66.553,9.844 z"
       fill="url(#M)"
       paint-order="normal"
       class="H"
       id="path71"
       style="fill:url(#linearGradient1723)" /><path
       d="m 329.408,-112.905 c 6.287,5.62 11.656,11.403 15.705,16.984 7.697,10.608 10.004,19.621 6.412,25.056 -3.592,5.435 -12.787,6.848 -25.564,3.928 -12.777,-2.92 -28.087,-9.935 -42.564,-19.501 -14.477,-9.566 -26.934,-20.899 -34.631,-31.507 -7.697,-10.608 -10.004,-19.621 -6.412,-25.056 3.592,-5.435 12.787,-6.848 25.564,-3.928 6.719,1.536 14.139,4.205 21.77,7.781 a 31.86,31.86 0 0 0 -3.933,1.153 c -1.868,0.682 -3.656,1.521 -5.348,2.502 -1.795,-0.571 -3.545,-1.054 -5.235,-1.44 -9.583,-2.191 -16.48,-1.131 -19.174,2.946 -2.694,4.077 -0.964,10.837 4.809,18.794 5.773,7.957 15.117,16.457 25.976,23.633 10.859,7.176 22.343,12.437 31.926,14.627 9.583,2.19 16.48,1.131 19.174,-2.946 2.694,-4.077 0.964,-10.837 -4.809,-18.794 a 65.31,65.31 0 0 0 -3.369,-4.242 c 0.421,-3.345 0.309,-6.715 -0.296,-9.99 z"
       fill="url(#M)"
       paint-order="normal"
       class="H"
       id="path73"
       style="fill:url(#linearGradient1725)" /><path
       d="m 315.231,-134.612 c 40.713,26.902 65.531,61.103 55.43,76.389 -10.101,15.286 -51.293,5.87 -92.007,-21.033 -40.714,-26.903 -65.531,-61.103 -55.43,-76.389 10.101,-15.286 51.293,-5.87 92.007,21.033 z m -0.052,0.12 c -3.123,-2.066 -6.594,-3.586 -10.29,-4.487 A 34,34 0 0 0 301,-139.69 c -32.483,-18.362 -62.761,-23.682 -70.878,-11.397 -9.155,13.856 13.339,44.855 50.24,69.238 36.901,24.383 74.239,32.918 83.394,19.063 8.116,-12.283 -8.641,-38.039 -38.261,-60.716 -1.239,-2.146 -2.725,-4.165 -4.443,-6.01 -1.77,-1.902 -3.744,-3.571 -5.88,-4.984 z"
       fill="url(#M)"
       paint-order="normal"
       class="H"
       id="path75"
       style="fill:url(#M)" /></g><rect
     width="637.02161"
     height="420.3913"
     x="-18.261824"
     y="6.1188107"
     ry="3.3905251"
     fill="#25262c"
     fill-opacity="0"
     class="F"
     id="rect79"
     style="stroke-width:1.20702" /><text
     xml:space="preserve"
     x="-260.78601"
     y="-150.72501"
     transform="matrix(5.155498,0,0,5.155498,1482.2437,1016.3123)"
     class="F G I N P Q"
     clip-path="url(#B)"
     id="text83"><tspan
       x="-260.78601"
       y="-150.72501"
       font-weight="normal"
       class="S"
       id="tspan81">أ</tspan></text><g
     class="I R"
     id="g109"
     transform="matrix(1.2070221,0,0,1.2070221,-63.397209,-22.84972)"><circle
       cx="232.07201"
       cy="324.685"
       r="11.056"
       class="F T"
       id="circle85" /><circle
       cx="516.95502"
       cy="162.291"
       r="7.4109998"
       class="F V"
       id="circle87" /><g
       stroke-width="2.02"
       id="g93"><circle
         cx="477.716"
         cy="255.035"
         r="10.915"
         class="F"
         id="circle89" /><circle
         cx="477.716"
         cy="255.035"
         r="10.915"
         opacity="0.053"
         id="circle91" /></g><circle
       cx="119.503"
       cy="127.811"
       r="4.3080001"
       stroke-width="0.797"
       class="F"
       id="circle95" /><circle
       cx="473.20499"
       cy="60.139"
       r="8.4370003"
       stroke-width="1.561"
       class="F"
       id="circle97" /><circle
       cx="81.452003"
       cy="320.23099"
       r="7.7529998"
       class="F W"
       id="circle99" /><circle
       cx="206.047"
       cy="113.879"
       r="7.3400002"
       class="F X"
       id="circle101" /><circle
       cx="409.789"
       cy="198.522"
       r="20.966999"
       stroke-width="3.88"
       class="F"
       id="circle103" /><circle
       cx="441.586"
       cy="151.35699"
       r="2.5969999"
       stroke-width="0.481"
       class="F"
       id="circle105" /><circle
       cx="106.943"
       cy="89.071999"
       r="5.2249999"
       class="F Y"
       id="circle107" /></g><circle
     cx="129.23387"
     cy="247.48703"
     r="0.64213574"
     fill="#648cad"
     stroke="#4d4d4d"
     stroke-width="0.119495"
     stroke-opacity="0.992"
     class="F"
     id="circle135" /><path
     d="m 273.30402,314.56607 c 0,-0.13157 0.55644,-0.60472 1.2372,-1.05132 1.5136,-0.99217 2.92582,-0.42004 1.5136,0.61196 -0.88595,0.64817 -2.7508,0.9451 -2.7508,0.43815 z"
     fill="#435468"
     class="F"
     id="path139"
     style="stroke-width:1.20702" /><text
     xml:space="preserve"
     x="-260.78601"
     y="-150.72501"
     transform="matrix(3.0183434,0,0,3.0183434,1171.7063,605.40332)"
     class="F G I N P Q"
     clip-path="url(#B)"
     id="text181"><tspan
       x="-260.78601"
       y="-150.72501"
       font-weight="normal"
       class="S"
       id="tspan179">ظ</tspan></text><text
     xml:space="preserve"
     x="-260.78601"
     y="-150.72501"
     transform="matrix(5.155498,0,0,5.155498,1744.7159,1139.3802)"
     class="F G I N P Q"
     clip-path="url(#B)"
     id="text185"><tspan
       x="-260.78601"
       y="-150.72501"
       font-weight="normal"
       class="S"
       id="tspan183">م</tspan></text><circle
     cx="129.89894"
     cy="304.95575"
     r="9.3580418"
     class="F I R W"
     id="circle187" /><text
     xml:space="preserve"
     x="-260.78601"
     y="-150.72501"
     transform="matrix(3.0183434,0,0,3.0183434,1222.1857,856.99131)"
     class="F G I N P Q"
     clip-path="url(#B)"
     id="text195"><tspan
       x="-260.78601"
       y="-150.72501"
       font-weight="normal"
       class="S"
       id="tspan193">ه</tspan></text><text
     xml:space="preserve"
     x="-260.78601"
     y="-150.72501"
     transform="matrix(1.6574562,0,0,1.6574562,802.55016,653.99811)"
     class="F G I N P Q"
     clip-path="url(#B)"
     id="text199"><tspan
       x="-260.78601"
       y="-150.72501"
       font-weight="normal"
       class="S"
       id="tspan197">ل</tspan></text><g
     class="I R"
     id="g209"
     transform="matrix(1.2070221,0,0,1.2070221,-63.397209,-22.84972)"><circle
       cx="143.31"
       cy="263.89001"
       r="18.073"
       stroke-width="3.345"
       class="F"
       id="circle201" /><circle
       cx="232.939"
       cy="235.51601"
       r="11.056"
       class="F T"
       id="circle203" /><circle
       cx="234.534"
       cy="214.14301"
       r="3.4649999"
       stroke-width="0.641"
       class="F"
       id="circle205" /><circle
       cx="387.30099"
       cy="262.62799"
       r="5.5079999"
       stroke-width="1.019"
       class="F"
       id="circle207" /></g><path
     d="m 249.46775,142.46885 a 8.3646632,8.3646632 0 0 0 -8.3538,8.3538 8.3646632,8.3646632 0 0 0 8.3538,8.3538 8.3646632,8.3646632 0 0 0 8.3538,-8.3538 8.3646632,8.3646632 0 0 0 -8.3538,-8.3538 z m 0,1.41584 a 6.937965,6.937965 0 1 1 0,13.87593 6.937965,6.937965 0 1 1 0,-13.87593 z"
     class="F G"
     id="path211"
     style="stroke-width:1.20702" /><circle
     cx="342.31552"
     cy="359.11362"
     r="6.3066902"
     class="F I R Y"
     id="circle213" /><text
     xml:space="preserve"
     x="212.08145"
     y="182.45871"
     font-size="12.7305px"
     class="F G"
     id="text217"
     style="stroke-width:1.20702"><tspan
       x="212.08145"
       y="182.45871"
       id="tspan215"
       style="stroke-width:1.20702">ي</tspan></text><g
     class="I R"
     id="g223"
     transform="matrix(1.2070221,0,0,1.2070221,-63.397209,-22.84972)"><circle
       cx="201.89999"
       cy="179.595"
       r="7.3400002"
       class="F X"
       id="circle219" /><circle
       cx="88.245003"
       cy="188.933"
       r="11.056"
       class="F T"
       id="circle221" /></g><g
     class="G"
     id="g251"
     transform="matrix(1.2070221,0,0,1.2070221,-63.397209,-22.84972)"><path
       d="m 178.329,136.414 -3.121,-0.204 -1.937,2.456 -0.771,-3.031 -2.934,-1.084 2.645,-1.67 0.124,-3.125 2.405,1.999 3.011,-0.848 -1.158,2.906 z m 86.643,34.301 -1.288,-1.468 -1.94,0.229 0.998,-1.679 -0.817,-1.774 1.905,0.43 1.435,-1.325 0.179,1.945 1.704,0.955 -1.794,0.772 z m 98.133,40.226 -0.563,-1.14 -1.258,-0.183 0.91,-0.887 -0.215,-1.253 1.125,0.591 1.125,-0.591 -0.215,1.253 0.91,0.887 -1.258,0.183 z"
       class="F"
       id="path225" /><use
       xlink:href="#O"
       class="F"
       id="use227" /><path
       d="m 285.585,115.569 -1.129,-2.288 -2.524,-0.367 1.827,-1.781 -0.431,-2.514 2.258,1.187 2.258,-1.187 -0.431,2.514 1.827,1.781 -2.524,0.367 z m 103.119,42.29 -1.524,-0.099 -0.946,1.199 -0.376,-1.481 -1.433,-0.529 1.292,-0.816 0.06,-1.526 1.175,0.976 1.47,-0.414 -0.566,1.419 z"
       class="F"
       id="path229" /><use
       xlink:href="#O"
       x="-122.501"
       y="41.471001"
       class="F"
       id="use231" /><path
       d="m 361.695,102.982 -3.854,-1.307 -3.261,2.434 0.052,-4.069 -3.323,-2.35 3.886,-1.208 1.208,-3.886 2.35,3.323 4.069,-0.052 -2.434,3.261 z m -37.343,3.171 -1.567,-0.531 -1.326,0.99 0.021,-1.654 -1.351,-0.955 1.58,-0.491 0.491,-1.58 0.955,1.351 1.654,-0.021 -0.99,1.326 z m 33.03,29.84 -2.287,-0.776 -1.936,1.445 0.031,-2.415 -1.972,-1.395 2.307,-0.717 0.717,-2.307 1.395,1.972 2.415,-0.031 -1.445,1.936 z m 19.019,50.679 -0.211,-1.059 -0.992,-0.427 0.942,-0.528 0.099,-1.076 0.793,0.733 1.054,-0.238 -0.452,0.981 0.552,0.928 -1.073,-0.127 z m -157.393,-40.666 -1.516,-1.012 -1.693,0.675 0.494,-1.754 -1.165,-1.401 1.821,-0.072 0.973,-1.541 0.631,1.71 1.766,0.449 -1.431,1.129 z m 34.228,-16.223 -3.29,-1.116 -2.785,2.078 0.044,-3.474 -2.837,-2.006 3.318,-1.031 1.031,-3.318 2.006,2.837 3.474,-0.044 -2.078,2.785 z m 0.39,54.059 -0.442,-0.504 -0.665,0.079 0.342,-0.576 -0.28,-0.608 0.653,0.148 0.492,-0.455 0.062,0.667 0.584,0.328 -0.615,0.265 z m 70.24,4.13 0.76,-0.375 0.122,-0.839 0.591,0.607 0.835,-0.143 -0.394,0.75 0.394,0.75 -0.835,-0.143 -0.591,0.607 -0.122,-0.839 z m -193.056,-2.087 -2.166,1.069 -0.347,2.39 -1.686,-1.73 -2.381,0.408 1.124,-2.138 -1.124,-2.138 2.381,0.408 1.686,-1.73 0.347,2.39 z m 230.071,43.323 -1.817,-0.616 -1.537,1.147 0.025,-1.918 -1.566,-1.108 1.832,-0.569 0.569,-1.832 1.108,1.566 1.918,-0.025 -1.147,1.537 z"
       class="F"
       id="path233" /><circle
       cx="277.85699"
       cy="180.923"
       r="1.8049999"
       class="F"
       id="circle235" /><circle
       cx="231.672"
       cy="271.87201"
       r="4.1469998"
       class="F"
       id="circle237" /><text
       xml:space="preserve"
       x="278.556"
       y="331.595"
       font-size="18.405px"
       class="F"
       id="text241"><tspan
         x="278.556"
         y="331.595"
         id="tspan239"> ن</tspan></text><text
       xml:space="preserve"
       x="359.064"
       y="282.43201"
       font-size="10.547px"
       class="F"
       id="text245"><tspan
         x="359.064"
         y="282.43201"
         id="tspan243">ه</tspan></text><text
       xml:space="preserve"
       x="316.461"
       y="360.353"
       font-size="28.175px"
       class="F"
       id="text249"><tspan
         x="316.461"
         y="360.353"
         id="tspan247">ك</tspan></text></g><g
     transform="matrix(1.0608228,0,0,1.0608228,-19.350883,-5.8830281)"
     class="I"
     id="g259"><text
       xml:space="preserve"
       x="-260.78601"
       y="-150.72501"
       transform="matrix(2.845285,0,0,2.845285,838.75174,798.54419)"
       class="F G N P Q"
       clip-path="url(#B)"
       id="text255"><tspan
         x="-260.78601"
         y="-150.72501"
         font-weight="normal"
         class="S"
         id="tspan253">ف</tspan></text><circle
       cx="111.615"
       cy="358.052"
       r="24.131001"
       stroke-width="3.322"
       class="F R"
       id="circle257" /></g><text
     xml:space="preserve"
     x="484.58356"
     y="366.96652"
     font-size="31.9438px"
     class="F G N"
     id="text263"
     style="stroke-width:1.20702"><tspan
       x="484.58356"
       y="366.96652"
       id="tspan261"
       style="stroke-width:1.20702">ض</tspan></text><path
     d="m 218.23726,215.65423 -2.51906,-0.85458 -2.1316,1.59086 0.0338,-2.66028 -2.17143,-1.53533 2.53957,-0.78939 0.78939,-2.53958 1.53533,2.17144 2.66028,-0.0338 -1.59085,2.1316 z"
     class="F G"
     id="path265"
     style="stroke-width:1.20702" /><circle
     cx="472.06552"
     cy="159.53735"
     r="8.945241"
     class="F I R V"
     id="circle267" /><circle
     cx="236.86403"
     cy="394.19455"
     r="2.3802476"
     class="F G"
     id="circle1367"
     style="stroke-width:1.20702" /><g
     aria-label="ظ"
     transform="matrix(3.2818365,0,0,3.2818365,612.86705,669.7844)"
     id="text3455"
     clip-path="url(#clipPath3208)"
     style="font-size:11.6858px;font-family:'Gill Sans MT';-inkscape-font-specification:'Gill Sans MT';text-align:justify;opacity:0.670989;fill:#6eabea;stroke:#6eabea;stroke-width:0" /><g
     aria-label="م"
     transform="matrix(5.605559,0,0,5.605559,1235.899,1250.3761)"
     id="text3459"
     clip-path="url(#clipPath3208)"
     style="font-size:11.6858px;font-family:'Gill Sans MT';-inkscape-font-specification:'Gill Sans MT';text-align:justify;opacity:0.670989;fill:#6eabea;stroke:#6eabea;stroke-width:0" /><g
     aria-label="ف"
     transform="matrix(3.2818365,0,0,3.2818365,285.27515,963.71644)"
     id="text3465"
     clip-path="url(#clipPath3208)"
     style="font-size:11.6858px;font-family:'Gill Sans MT';-inkscape-font-specification:'Gill Sans MT';text-align:justify;opacity:0.670989;fill:#6eabea;stroke:#6eabea;stroke-width:0" /><g
     aria-label="ه"
     transform="matrix(3.2818365,0,0,3.2818365,667.75355,943.33534)"
     id="text3469"
     clip-path="url(#clipPath3208)"
     style="font-size:11.6858px;font-family:'Gill Sans MT';-inkscape-font-specification:'Gill Sans MT';text-align:justify;opacity:0.670989;fill:#6eabea;stroke:#6eabea;stroke-width:0" /><g
     aria-label="ل"
     transform="matrix(1.8021474,0,0,1.8021474,211.48485,747.90494)"
     id="text3473"
     clip-path="url(#clipPath3208)"
     style="font-size:11.6858px;font-family:'Gill Sans MT';-inkscape-font-specification:'Gill Sans MT';text-align:justify;opacity:0.670989;fill:#6eabea;stroke:#6eabea;stroke-width:0" /><g
     aria-label=" ن"
     id="text3547"
     style="font-size:24.1548px;opacity:0.670989;fill:#6eabea;stroke-width:1.15343"
     transform="translate(-880.06845,103.63643)" /><g
     aria-label="ه"
     id="text3551"
     style="font-size:13.8412px;opacity:0.670989;fill:#6eabea;stroke-width:1.15343"
     transform="translate(-880.06845,103.63643)" /><g
     aria-label="ك"
     id="text3555"
     style="font-size:36.9759px;opacity:0.670989;fill:#6eabea;stroke-width:1.15343"
     transform="translate(-880.06845,103.63643)" /><g
     aria-label="ض"
     id="text3561"
     style="font-size:34.7325px;font-family:'Gill Sans MT';-inkscape-font-specification:'Gill Sans MT';opacity:0.670989;fill:#6eabea;stroke-width:49.9694"
     transform="translate(-880.06845,103.63643)" /><g
     id="g10328"
     transform="translate(-241.95838,13.132039)"><g
       aria-label="وَاِنَّ عَلَيْكُمْ لَحٰفِظِيْنَ       "
       transform="matrix(2.1002521,0,0,2.1002521,1018.5706,752.56678)"
       id="g57220"
       clip-path="url(#clipPath3208-2)"
       style="font-size:11.6858px;font-family:'Gill Sans MT';-inkscape-font-specification:'Gill Sans MT';text-align:justify;fill:#6eabea;fill-opacity:1;stroke-width:0;filter:url(#filter57222)"><path
         d="m -193.23285,-152.73893 q 0,0.94148 -0.69612,1.87155 -0.77601,1.03848 -1.79167,1.03848 -0.3766,0 -0.77601,-0.0856 -0.29101,-0.0628 -0.7589,-0.21682 -0.37088,-0.13124 -0.74177,-0.25677 l 0.097,-0.19971 q 0.31953,0.0742 0.6676,0.15406 0.35377,0.0856 0.63336,0.0856 0.69612,0 1.31807,-0.35377 0.48501,-0.27959 0.97002,-0.81024 0.24535,-0.26818 0.69612,-0.87301 -0.7703,0 -1.1526,-0.24536 -0.43365,-0.27959 -0.43365,-0.91866 0,-0.58771 0.27388,-1.08984 0.31954,-0.58201 0.81025,-0.58201 0.49642,0 0.71324,0.57631 0.17118,0.45077 0.17118,1.25531 z m -0.35947,-0.62195 q -0.12553,-0.54778 -0.30242,-0.7589 -0.15406,-0.18259 -0.37659,-0.18259 -0.15977,0 -0.27959,0.10842 -0.11412,0.1027 -0.11412,0.26247 0,0.27959 0.25106,0.42795 0.25106,0.14265 0.82166,0.14265 z"
         id="path57164"
         style="fill:#6eabea;fill-opacity:1" /><path
         d="m -193.99174,-157.53194 q 0,0.26248 -0.29671,0.51924 -0.51354,0.19971 -1.65473,0.6619 0,-0.25107 0.25106,-0.47931 0.4736,-0.1997 1.70038,-0.70183 z"
         id="path57166"
         style="fill:#6eabea;fill-opacity:1" /><path
         d="m -198.77334,-153.8516 q 0,0.45648 -0.16547,0.88443 -0.0856,0.22824 -0.37089,0.72465 l -0.1027,-0.0571 q 0.0171,-0.16547 0.0285,-0.38229 0.0171,-0.21683 0.0171,-0.29101 0,-0.59342 -0.097,-1.65473 -0.0913,-1.06701 -0.22253,-2.22532 -0.0799,-0.70183 -0.17688,-1.43219 0.11411,-0.25107 0.25676,-0.54207 0.14836,-0.291 0.2796,-0.54777 0.0913,0.65048 0.22823,1.78026 0.14265,1.12978 0.22254,2.03702 0.1027,1.12978 0.1027,1.70608 z"
         id="path57168"
         style="fill:#6eabea;fill-opacity:1" /><path
         d="m -198.3511,-151.95151 q 0,0.27388 -0.29671,0.52495 -0.51353,0.1997 -1.65472,0.65618 0,-0.24536 0.25106,-0.47359 0.47359,-0.19401 1.70037,-0.70754 z"
         id="path57170"
         style="fill:#6eabea;fill-opacity:1" /><path
         d="m -200.70195,-152.39658 q 0,1.27243 -0.74748,1.87156 -0.80454,0.64477 -2.59621,0.64477 -1.14119,0 -1.74603,-0.39942 -0.66189,-0.43936 -0.66189,-1.3466 0,-0.49071 0.11983,-0.99284 0.11982,-0.50212 0.32524,-1.00995 0.12553,-0.30813 0.43365,-0.94719 l 0.22824,0.1027 q -0.39942,0.82166 -0.53065,1.29526 -0.12554,0.47359 -0.12554,0.8673 0,0.70754 0.50213,1.07843 0.50783,0.36518 1.44361,0.36518 1.07842,0 1.91149,-0.3823 1.03278,-0.47359 1.03278,-1.32378 0,-0.58201 -0.17118,-1.08413 -0.14835,-0.44507 -0.42224,-0.77601 l 0.47359,-1.16972 q 0.30242,0.46218 0.41654,0.94148 0.11412,0.4793 0.11412,1.27243 z m -2.09979,-4.37076 -0.44507,0.82736 -0.92436,-0.4793 0.42224,-0.83307 z"
         id="path57172"
         style="fill:#6eabea;fill-opacity:1" /><path
         d="m -203.04139,-159.84856 q 0,0.42795 -0.14836,0.70184 -0.16547,0.30812 -0.45647,0.30812 -0.10271,0 -0.1883,-0.0342 -0.0856,-0.0342 -0.194,-0.10841 -0.11983,0.20541 -0.22253,0.30812 -0.18259,0.18259 -0.3823,0.18259 -0.23965,0 -0.35948,-0.15977 -0.11982,-0.16547 -0.11982,-0.45077 0,-0.14835 0.0399,-0.291 0.0399,-0.14265 0.11412,-0.32524 l 0.11982,-0.0513 q 0,0.0456 -0.0114,0.14835 -0.0114,0.10271 -0.0114,0.17118 0,0.12553 0.0514,0.22824 0.0514,0.097 0.15406,0.097 0.24536,0 0.39371,-0.31953 0.0685,-0.14836 0.17118,-0.57631 l 0.11983,-0.0342 q 0.0456,0.27959 0.0742,0.34236 0.0685,0.17688 0.22823,0.17688 0.21683,0 0.34236,-0.2853 0.10271,-0.22823 0.10271,-0.47359 l 0.11982,-0.0342 q 0.0228,0.10842 0.04,0.24536 0.0228,0.13124 0.0228,0.23394 z m -0.0799,-1.39225 q 0,0.26247 -0.29671,0.51924 -0.51354,0.19971 -1.65473,0.66189 0,-0.25106 0.25106,-0.4793 0.4736,-0.19971 1.70038,-0.70183 z"
         id="path57174"
         style="fill:#6eabea;fill-opacity:1" /><path
         d="m -210.74444,-154.17684 -0.39371,1.03849 q -0.8616,0.31383 -1.99708,0.53065 -1.12978,0.21112 -2.08268,0.21112 h -1.42078 v -0.99283 h 1.36943 q -0.16547,-0.26818 -0.26818,-0.60483 -0.10271,-0.34236 -0.10271,-0.6619 0,-0.6733 0.55919,-1.12978 0.56489,-0.45647 1.44931,-0.45647 0.70183,0 1.15831,0.34236 0.194,0.14264 0.65618,0.70183 l -0.10841,0.097 q -0.39371,-0.10841 -0.70754,-0.15977 -0.31383,-0.0571 -0.65048,-0.0571 -0.78742,0 -1.23819,0.17689 -0.44506,0.17118 -0.44506,0.45647 0,0.2796 0.27959,0.62766 0.2853,0.34236 0.73036,0.61054 0.93578,-0.14265 1.5349,-0.27389 0.59913,-0.13694 1.67755,-0.45648 z"
         id="path57176"
         style="fill:#6eabea;fill-opacity:1" /><path
         d="m -213.60312,-158.5533 q 0,0.26247 -0.29671,0.51924 -0.51353,0.19971 -1.65472,0.66189 0,-0.25106 0.25106,-0.4793 0.47359,-0.19971 1.70037,-0.70183 z"
         id="path57178"
         style="fill:#6eabea;fill-opacity:1" /><path
         d="m -216.23927,-152.39658 h -2.81874 v -0.99283 h 2.24244 l -0.67901,-4.83865 -0.29671,-0.14265 q 0,-0.39371 0.0685,-0.73607 0.0685,-0.34807 0.20542,-0.6733 l 0.0856,0.0628 q 0,0.33095 0.37089,0.49642 0.2853,0.11412 0.5763,0.22824 0,0.28529 -0.0456,0.61053 -0.0456,0.32524 -0.10842,0.48501 l -0.27388,-0.0913 0.6733,4.47347 z"
         id="path57180"
         style="fill:#6eabea;fill-opacity:1" /><path
         d="m -216.3648,-161.2351 q 0,0.26247 -0.29671,0.51924 -0.51354,0.19971 -1.65473,0.66189 0,-0.25106 0.25106,-0.4793 0.4736,-0.19971 1.70038,-0.70183 z"
         id="path57182"
         style="fill:#6eabea;fill-opacity:1" /><path
         d="m -218.6586,-152.39658 h -3.25239 v -0.99283 h 2.83586 q 0,-0.67331 -0.15977,-1.02708 -0.10841,-0.24535 -0.53636,-0.70753 l 0.44507,-0.93008 q 0.41083,0.51925 0.51353,0.81025 0.15406,0.43936 0.15406,1.45502 z m -0.0513,1.12978 -0.42224,0.82737 -0.93578,-0.4793 0.43366,-0.82737 z m -1.30096,0.53066 -0.42794,0.81595 -0.94149,-0.48501 0.44507,-0.82166 z"
         id="path57184"
         style="fill:#6eabea;fill-opacity:1" /><path
         d="m -219.3319,-158.67313 q 0,0.35377 -0.26247,0.63336 -0.26248,0.27959 -0.64478,0.27959 -0.30812,0 -0.46218,-0.17117 -0.15406,-0.17118 -0.15406,-0.47931 0,-0.43935 0.22824,-0.77601 0.22824,-0.34235 0.56489,-0.34235 0.30812,0 0.51924,0.25677 0.21112,0.25676 0.21112,0.59912 z m -0.34236,0.15406 q 0,-0.15977 -0.22253,-0.35377 -0.22253,-0.194 -0.37659,-0.194 -0.14836,0 -0.25106,0.13124 -0.10271,0.12553 -0.10271,0.26247 0,0.19971 0.1883,0.27959 0.14835,0.0628 0.42794,0.0628 0.14265,0 0.23965,-0.0399 0.097,-0.04 0.097,-0.14836 z"
         id="path57186"
         style="fill:#6eabea;fill-opacity:1" /><path
         d="m -221.51157,-152.39658 h -5.00413 v -0.99283 h 4.34224 q -0.39942,-0.60483 -0.91296,-1.0499 -0.51353,-0.45077 -1.38654,-0.97001 l -0.1883,0.17688 -0.6733,-0.51353 q -0.35377,-0.29671 -0.35377,-0.46219 0,-0.98142 0.4793,-1.5406 0.44506,-0.51354 1.5349,-0.92437 l 1.60908,-0.62765 v 0.98713 l -1.19255,0.39941 q -0.71324,0.23395 -1.1526,0.42795 -0.55918,0.24536 -0.55918,0.37659 0,0.13124 0.36518,0.40513 0.22824,0.17117 0.46218,0.34235 0.86731,0.65619 1.51208,1.37514 0.69613,0.7703 1.11837,1.59767 z"
         id="path57188"
         style="fill:#6eabea;fill-opacity:1" /><path
         d="m -223.49725,-159.89991 q 0,0.097 -0.0171,0.19971 -0.0171,0.10271 -0.0342,0.20541 l -0.4736,-0.28529 q -0.2853,0.31382 -0.388,0.41653 -0.42224,0.41083 -0.70754,0.41083 h -0.41654 q 0.30242,-0.14265 0.70754,-0.46218 0.36518,-0.29101 0.55348,-0.51354 -0.17689,-0.10841 -0.26818,-0.22824 -0.11412,-0.14835 -0.11412,-0.32524 0,-0.37659 0.21683,-0.66189 0.22253,-0.291 0.4793,-0.291 0.14835,0 0.26818,0.15976 0.11982,0.15977 0.11982,0.38801 0,0.10841 -0.0342,0.22824 -0.0285,0.11412 -0.14265,0.42794 0.0913,0.0799 0.18829,0.15407 0.0628,0.0628 0.0628,0.17688 z m -0.42795,-0.64477 q 0,-0.15406 -0.10841,-0.2853 -0.10841,-0.13124 -0.21112,-0.13124 -0.0571,0 -0.0913,0.0399 -0.0285,0.04 -0.0285,0.0799 0,0.12553 0.14265,0.26247 l 0.25106,0.194 q 0.0457,-0.11412 0.0457,-0.15976 z"
         id="path57190"
         style="fill:#6eabea;fill-opacity:1" /><path
         d="m -226.11628,-152.39658 h -0.67901 q -0.94719,0 -1.65473,0.17689 -0.89584,0.22253 -0.89584,0.63907 0,0.37659 0.12554,0.80453 0.13123,0.42795 0.26247,0.86731 0.13694,0.43936 0.13694,0.80454 0,0.21683 -0.0342,0.39371 -0.0285,0.17689 -0.10842,0.46218 -0.14835,-0.47359 -0.291,-0.94719 -0.27389,-0.90154 -0.40512,-1.36372 -0.20542,-0.73036 -0.20542,-0.87872 0,-0.73036 0.30242,-1.11836 0.30812,-0.39371 0.94148,-0.58201 0.50213,-0.14836 1.51208,-0.25106 -0.35948,-0.36518 -0.44506,-0.43366 -0.29101,-0.22823 -0.58772,-0.22823 -0.1883,0 -0.35947,0.11411 -0.13695,0.0913 -0.33095,0.31383 l -0.26247,-0.16547 q 0.17118,-0.42795 0.388,-0.68472 0.35948,-0.42224 0.85019,-0.42224 0.35377,0 0.70754,0.26248 0.291,0.21682 0.59342,0.60483 0.14835,0.1883 0.43936,0.63907 z"
         id="path57192"
         style="fill:#6eabea;fill-opacity:1" /><path
         d="m -227.34306,-157.17246 q 0,0.35377 -0.26248,0.63336 -0.26247,0.27959 -0.64477,0.27959 -0.30812,0 -0.46218,-0.17118 -0.15406,-0.17118 -0.15406,-0.4793 0,-0.43936 0.22824,-0.77601 0.22823,-0.34236 0.56488,-0.34236 0.30813,0 0.51925,0.25677 0.21112,0.25677 0.21112,0.59913 z m -0.34236,0.15406 q 0,-0.15977 -0.22253,-0.35377 -0.22253,-0.194 -0.3766,-0.194 -0.14835,0 -0.25106,0.13123 -0.1027,0.12553 -0.1027,0.26248 0,0.19971 0.18829,0.27959 0.14836,0.0628 0.42795,0.0628 0.14265,0 0.23965,-0.0399 0.097,-0.0399 0.097,-0.14835 z"
         id="path57194"
         style="fill:#6eabea;fill-opacity:1" /><path
         d="m -233.31149,-152.39658 h -2.81874 v -0.99283 h 2.24244 l -0.67901,-4.83865 -0.29671,-0.14265 q 0,-0.39371 0.0685,-0.73607 0.0685,-0.34807 0.20541,-0.6733 l 0.0856,0.0628 q 0,0.33095 0.37089,0.49642 0.2853,0.11412 0.5763,0.22824 0,0.28529 -0.0456,0.61053 -0.0456,0.32524 -0.10841,0.48501 l -0.27389,-0.0913 0.67331,4.47347 z"
         id="path57196"
         style="fill:#6eabea;fill-opacity:1" /><path
         d="m -233.43703,-161.2351 q 0,0.26247 -0.29671,0.51924 -0.51353,0.19971 -1.65472,0.66189 0,-0.25106 0.25106,-0.4793 0.47359,-0.19971 1.70037,-0.70183 z"
         id="path57198"
         style="fill:#6eabea;fill-opacity:1" /><path
         d="m -235.73082,-152.39658 h -6.59038 v -0.99283 h 4.65035 q -0.582,-0.45077 -0.98142,-0.70184 -0.49642,-0.31382 -0.90725,-0.45647 -0.46218,-0.15977 -0.93577,-0.15977 -0.29101,0 -0.58772,0.0399 0.16547,-0.42224 0.43365,-0.67901 0.38801,-0.37088 0.98143,-0.37088 0.58201,0 1.37514,0.57059 0.39371,0.2853 1.28384,1.08413 0.69042,0.62195 0.93577,0.67331 h 0.34236 z"
         id="path57200"
         style="fill:#6eabea;fill-opacity:1" /><path
         d="m -239.41116,-157.80582 q 0,0.30812 -0.26818,0.73606 l -0.0514,-0.0228 q 0.0228,-0.21112 0.0228,-0.30812 0,-0.70754 -0.26818,-2.56768 0.10841,-0.21683 0.26818,-0.49642 0.29671,1.90579 0.29671,2.65898 z"
         id="path57202"
         style="fill:#6eabea;fill-opacity:1" /><path
         d="m -241.92178,-152.39658 h -3.46922 v -0.99283 h 1.95714 q 0.35377,0 0.59912,-0.0228 0.25107,-0.0285 0.54207,-0.11412 -0.98142,-0.14265 -1.27243,-0.26818 -0.65618,-0.28529 -0.65618,-0.97001 0,-0.59912 0.31383,-1.12978 0.35376,-0.59912 0.86159,-0.59912 0.58201,0 0.88443,0.74177 0.23965,0.58771 0.23965,1.38655 z m -0.51354,-1.99138 q -0.13124,-0.45647 -0.25106,-0.679 -0.23394,-0.42795 -0.56489,-0.42795 -0.15977,0 -0.27389,0.12553 -0.11411,0.12553 -0.11411,0.29671 0,0.43365 0.45077,0.58201 0.15976,0.0513 0.75318,0.1027 z m 0.006,-4.08546 -0.44507,0.82736 -0.92436,-0.4793 0.42224,-0.83307 z"
         id="path57204"
         style="fill:#6eabea;fill-opacity:1" /><path
         d="m -242.29837,-151.0785 q 0,0.27389 -0.29671,0.52495 -0.51354,0.19971 -1.65473,0.65618 0,-0.24535 0.25106,-0.47359 0.47359,-0.194 1.70038,-0.70754 z"
         id="path57206"
         style="fill:#6eabea;fill-opacity:1" /><path
         d="m -244.99159,-152.39658 h -7.19521 v -0.99283 l 0.87301,-0.006 q 0.38801,0 0.72466,-0.10271 0.388,-0.11982 0.87872,-0.42224 0.1027,-0.25106 0.16547,-0.53636 0.0628,-0.291 0.0628,-0.55918 0,-0.61054 -0.11412,-1.34661 -0.0856,-0.53636 -0.25677,-1.26101 -0.0913,-0.3766 -0.23965,-0.91866 l -0.35377,-0.17689 q 0.0399,-0.34235 0.11412,-0.66189 0.0799,-0.31953 0.21682,-0.61624 0.0913,0.26818 0.41654,0.41653 0.26818,0.11983 0.68471,0.15977 -0.0571,0.58771 -0.0856,0.74748 -0.0285,0.15977 -0.10841,0.39371 -0.0399,-0.006 -0.21112,-0.0571 l -0.0742,-0.0228 q 0.19971,0.6676 0.32524,1.37513 0.13124,0.70184 0.13124,1.18114 0,0.40512 -0.0799,0.90154 -0.0285,0.17688 -0.10271,0.54777 0.99854,-0.5763 1.27813,-0.70754 0.84449,-0.39942 1.44932,-0.39942 0.7703,0 1.1526,0.45077 0.34806,0.41083 0.34806,1.16973 z m -0.90154,-1.43219 q 0,-0.29101 -0.30241,-0.43936 -0.29671,-0.15406 -0.8559,-0.15406 -0.41653,0 -0.9586,0.18259 -0.44506,0.14835 -0.94719,0.41083 -0.37088,0.194 -0.76459,0.43936 h 2.48209 q 1.3466,0 1.3466,-0.43936 z m -0.65048,-3.88005 -0.44506,0.82736 -0.92437,-0.4793 0.42224,-0.83307 z"
         id="path57208"
         style="fill:#6eabea;fill-opacity:1" /><path
         d="m -248.0671,-151.0785 q 0,0.27389 -0.29671,0.52495 -0.51353,0.19971 -1.65472,0.65618 0,-0.24535 0.25106,-0.47359 0.47359,-0.194 1.70037,-0.70754 z"
         id="path57210"
         style="fill:#6eabea;fill-opacity:1" /><path
         d="m -251.78738,-152.39658 h -3.2524 v -0.99283 h 2.83586 q 0,-0.67331 -0.15976,-1.02708 -0.10842,-0.24535 -0.53636,-0.70753 l 0.44506,-0.93008 q 0.41083,0.51925 0.51354,0.81025 0.15406,0.43936 0.15406,1.45502 z m -0.0513,1.12978 -0.42225,0.82737 -0.93577,-0.4793 0.43365,-0.82737 z m -1.30096,0.53066 -0.42795,0.81595 -0.94148,-0.48501 0.44506,-0.82166 z"
         id="path57212"
         style="fill:#6eabea;fill-opacity:1" /><path
         d="m -252.46068,-158.67313 q 0,0.35377 -0.26248,0.63336 -0.26247,0.27959 -0.64477,0.27959 -0.30812,0 -0.46218,-0.17117 -0.15406,-0.17118 -0.15406,-0.47931 0,-0.43935 0.22823,-0.77601 0.22824,-0.34235 0.56489,-0.34235 0.30812,0 0.51925,0.25677 0.21112,0.25676 0.21112,0.59912 z m -0.34236,0.15406 q 0,-0.15977 -0.22253,-0.35377 -0.22254,-0.194 -0.3766,-0.194 -0.14835,0 -0.25106,0.13124 -0.10271,0.12553 -0.10271,0.26247 0,0.19971 0.1883,0.27959 0.14836,0.0628 0.42795,0.0628 0.14265,0 0.23965,-0.0399 0.097,-0.04 0.097,-0.14836 z"
         id="path57214"
         style="fill:#6eabea;fill-opacity:1" /><path
         d="m -254.64036,-152.39658 q 0,1.27243 -0.74748,1.87156 -0.80454,0.64477 -2.59621,0.64477 -1.14119,0 -1.74602,-0.39942 -0.66189,-0.43936 -0.66189,-1.3466 0,-0.49071 0.11982,-0.99284 0.11983,-0.50212 0.32524,-1.00995 0.12553,-0.30813 0.43365,-0.94719 l 0.22824,0.1027 q -0.39942,0.82166 -0.53065,1.29526 -0.12553,0.47359 -0.12553,0.8673 0,0.70754 0.50212,1.07843 0.50783,0.36518 1.44361,0.36518 1.07842,0 1.91149,-0.3823 1.03278,-0.47359 1.03278,-1.32378 0,-0.58201 -0.17118,-1.08413 -0.14835,-0.44507 -0.42224,-0.77601 l 0.4736,-1.16972 q 0.30241,0.46218 0.41653,0.94148 0.11412,0.4793 0.11412,1.27243 z m -2.09979,-4.37076 -0.44507,0.82736 -0.92436,-0.4793 0.42224,-0.83307 z"
         id="path57216"
         style="fill:#6eabea;fill-opacity:1" /><path
         d="m -257.0711,-159.55185 q 0,0.26248 -0.29671,0.51925 -0.51353,0.1997 -1.65472,0.66189 0,-0.25107 0.25106,-0.4793 0.47359,-0.19971 1.70037,-0.70184 z"
         id="path57218"
         style="fill:#6eabea;fill-opacity:1" /></g><g
       aria-label="وَاِنَّ عَلَيْكُمْ لَحٰفِظِيْنَ       "
       transform="matrix(2.1002521,0,0,2.1002521,1018.5706,752.56678)"
       id="g57282"
       clip-path="url(#clipPath3208-2)"
       style="font-size:11.6858px;font-family:'Gill Sans MT';-inkscape-font-specification:'Gill Sans MT';text-align:justify;mix-blend-mode:normal;fill:#6eabea;fill-opacity:1;stroke-width:0;filter:url(#filter57284)"><path
         d="m -193.23285,-152.73893 q 0,0.94148 -0.69612,1.87155 -0.77601,1.03848 -1.79167,1.03848 -0.3766,0 -0.77601,-0.0856 -0.29101,-0.0628 -0.7589,-0.21682 -0.37088,-0.13124 -0.74177,-0.25677 l 0.097,-0.19971 q 0.31953,0.0742 0.6676,0.15406 0.35377,0.0856 0.63336,0.0856 0.69612,0 1.31807,-0.35377 0.48501,-0.27959 0.97002,-0.81024 0.24535,-0.26818 0.69612,-0.87301 -0.7703,0 -1.1526,-0.24536 -0.43365,-0.27959 -0.43365,-0.91866 0,-0.58771 0.27388,-1.08984 0.31954,-0.58201 0.81025,-0.58201 0.49642,0 0.71324,0.57631 0.17118,0.45077 0.17118,1.25531 z m -0.35947,-0.62195 q -0.12553,-0.54778 -0.30242,-0.7589 -0.15406,-0.18259 -0.37659,-0.18259 -0.15977,0 -0.27959,0.10842 -0.11412,0.1027 -0.11412,0.26247 0,0.27959 0.25106,0.42795 0.25106,0.14265 0.82166,0.14265 z"
         id="path57226"
         style="fill:#6eabea;fill-opacity:1" /><path
         d="m -193.99174,-157.53194 q 0,0.26248 -0.29671,0.51924 -0.51354,0.19971 -1.65473,0.6619 0,-0.25107 0.25106,-0.47931 0.4736,-0.1997 1.70038,-0.70183 z"
         id="path57228"
         style="fill:#6eabea;fill-opacity:1" /><path
         d="m -198.77334,-153.8516 q 0,0.45648 -0.16547,0.88443 -0.0856,0.22824 -0.37089,0.72465 l -0.1027,-0.0571 q 0.0171,-0.16547 0.0285,-0.38229 0.0171,-0.21683 0.0171,-0.29101 0,-0.59342 -0.097,-1.65473 -0.0913,-1.06701 -0.22253,-2.22532 -0.0799,-0.70183 -0.17688,-1.43219 0.11411,-0.25107 0.25676,-0.54207 0.14836,-0.291 0.2796,-0.54777 0.0913,0.65048 0.22823,1.78026 0.14265,1.12978 0.22254,2.03702 0.1027,1.12978 0.1027,1.70608 z"
         id="path57230"
         style="fill:#6eabea;fill-opacity:1" /><path
         d="m -198.3511,-151.95151 q 0,0.27388 -0.29671,0.52495 -0.51353,0.1997 -1.65472,0.65618 0,-0.24536 0.25106,-0.47359 0.47359,-0.19401 1.70037,-0.70754 z"
         id="path57232"
         style="fill:#6eabea;fill-opacity:1" /><path
         d="m -200.70195,-152.39658 q 0,1.27243 -0.74748,1.87156 -0.80454,0.64477 -2.59621,0.64477 -1.14119,0 -1.74603,-0.39942 -0.66189,-0.43936 -0.66189,-1.3466 0,-0.49071 0.11983,-0.99284 0.11982,-0.50212 0.32524,-1.00995 0.12553,-0.30813 0.43365,-0.94719 l 0.22824,0.1027 q -0.39942,0.82166 -0.53065,1.29526 -0.12554,0.47359 -0.12554,0.8673 0,0.70754 0.50213,1.07843 0.50783,0.36518 1.44361,0.36518 1.07842,0 1.91149,-0.3823 1.03278,-0.47359 1.03278,-1.32378 0,-0.58201 -0.17118,-1.08413 -0.14835,-0.44507 -0.42224,-0.77601 l 0.47359,-1.16972 q 0.30242,0.46218 0.41654,0.94148 0.11412,0.4793 0.11412,1.27243 z m -2.09979,-4.37076 -0.44507,0.82736 -0.92436,-0.4793 0.42224,-0.83307 z"
         id="path57234"
         style="fill:#6eabea;fill-opacity:1" /><path
         d="m -203.04139,-159.84856 q 0,0.42795 -0.14836,0.70184 -0.16547,0.30812 -0.45647,0.30812 -0.10271,0 -0.1883,-0.0342 -0.0856,-0.0342 -0.194,-0.10841 -0.11983,0.20541 -0.22253,0.30812 -0.18259,0.18259 -0.3823,0.18259 -0.23965,0 -0.35948,-0.15977 -0.11982,-0.16547 -0.11982,-0.45077 0,-0.14835 0.0399,-0.291 0.0399,-0.14265 0.11412,-0.32524 l 0.11982,-0.0513 q 0,0.0456 -0.0114,0.14835 -0.0114,0.10271 -0.0114,0.17118 0,0.12553 0.0514,0.22824 0.0514,0.097 0.15406,0.097 0.24536,0 0.39371,-0.31953 0.0685,-0.14836 0.17118,-0.57631 l 0.11983,-0.0342 q 0.0456,0.27959 0.0742,0.34236 0.0685,0.17688 0.22823,0.17688 0.21683,0 0.34236,-0.2853 0.10271,-0.22823 0.10271,-0.47359 l 0.11982,-0.0342 q 0.0228,0.10842 0.04,0.24536 0.0228,0.13124 0.0228,0.23394 z m -0.0799,-1.39225 q 0,0.26247 -0.29671,0.51924 -0.51354,0.19971 -1.65473,0.66189 0,-0.25106 0.25106,-0.4793 0.4736,-0.19971 1.70038,-0.70183 z"
         id="path57236"
         style="fill:#6eabea;fill-opacity:1" /><path
         d="m -210.74444,-154.17684 -0.39371,1.03849 q -0.8616,0.31383 -1.99708,0.53065 -1.12978,0.21112 -2.08268,0.21112 h -1.42078 v -0.99283 h 1.36943 q -0.16547,-0.26818 -0.26818,-0.60483 -0.10271,-0.34236 -0.10271,-0.6619 0,-0.6733 0.55919,-1.12978 0.56489,-0.45647 1.44931,-0.45647 0.70183,0 1.15831,0.34236 0.194,0.14264 0.65618,0.70183 l -0.10841,0.097 q -0.39371,-0.10841 -0.70754,-0.15977 -0.31383,-0.0571 -0.65048,-0.0571 -0.78742,0 -1.23819,0.17689 -0.44506,0.17118 -0.44506,0.45647 0,0.2796 0.27959,0.62766 0.2853,0.34236 0.73036,0.61054 0.93578,-0.14265 1.5349,-0.27389 0.59913,-0.13694 1.67755,-0.45648 z"
         id="path57238"
         style="fill:#6eabea;fill-opacity:1" /><path
         d="m -213.60312,-158.5533 q 0,0.26247 -0.29671,0.51924 -0.51353,0.19971 -1.65472,0.66189 0,-0.25106 0.25106,-0.4793 0.47359,-0.19971 1.70037,-0.70183 z"
         id="path57240"
         style="fill:#6eabea;fill-opacity:1" /><path
         d="m -216.23927,-152.39658 h -2.81874 v -0.99283 h 2.24244 l -0.67901,-4.83865 -0.29671,-0.14265 q 0,-0.39371 0.0685,-0.73607 0.0685,-0.34807 0.20542,-0.6733 l 0.0856,0.0628 q 0,0.33095 0.37089,0.49642 0.2853,0.11412 0.5763,0.22824 0,0.28529 -0.0456,0.61053 -0.0456,0.32524 -0.10842,0.48501 l -0.27388,-0.0913 0.6733,4.47347 z"
         id="path57242"
         style="fill:#6eabea;fill-opacity:1" /><path
         d="m -216.3648,-161.2351 q 0,0.26247 -0.29671,0.51924 -0.51354,0.19971 -1.65473,0.66189 0,-0.25106 0.25106,-0.4793 0.4736,-0.19971 1.70038,-0.70183 z"
         id="path57244"
         style="fill:#6eabea;fill-opacity:1" /><path
         d="m -218.6586,-152.39658 h -3.25239 v -0.99283 h 2.83586 q 0,-0.67331 -0.15977,-1.02708 -0.10841,-0.24535 -0.53636,-0.70753 l 0.44507,-0.93008 q 0.41083,0.51925 0.51353,0.81025 0.15406,0.43936 0.15406,1.45502 z m -0.0513,1.12978 -0.42224,0.82737 -0.93578,-0.4793 0.43366,-0.82737 z m -1.30096,0.53066 -0.42794,0.81595 -0.94149,-0.48501 0.44507,-0.82166 z"
         id="path57246"
         style="fill:#6eabea;fill-opacity:1" /><path
         d="m -219.3319,-158.67313 q 0,0.35377 -0.26247,0.63336 -0.26248,0.27959 -0.64478,0.27959 -0.30812,0 -0.46218,-0.17117 -0.15406,-0.17118 -0.15406,-0.47931 0,-0.43935 0.22824,-0.77601 0.22824,-0.34235 0.56489,-0.34235 0.30812,0 0.51924,0.25677 0.21112,0.25676 0.21112,0.59912 z m -0.34236,0.15406 q 0,-0.15977 -0.22253,-0.35377 -0.22253,-0.194 -0.37659,-0.194 -0.14836,0 -0.25106,0.13124 -0.10271,0.12553 -0.10271,0.26247 0,0.19971 0.1883,0.27959 0.14835,0.0628 0.42794,0.0628 0.14265,0 0.23965,-0.0399 0.097,-0.04 0.097,-0.14836 z"
         id="path57248"
         style="fill:#6eabea;fill-opacity:1" /><path
         d="m -221.51157,-152.39658 h -5.00413 v -0.99283 h 4.34224 q -0.39942,-0.60483 -0.91296,-1.0499 -0.51353,-0.45077 -1.38654,-0.97001 l -0.1883,0.17688 -0.6733,-0.51353 q -0.35377,-0.29671 -0.35377,-0.46219 0,-0.98142 0.4793,-1.5406 0.44506,-0.51354 1.5349,-0.92437 l 1.60908,-0.62765 v 0.98713 l -1.19255,0.39941 q -0.71324,0.23395 -1.1526,0.42795 -0.55918,0.24536 -0.55918,0.37659 0,0.13124 0.36518,0.40513 0.22824,0.17117 0.46218,0.34235 0.86731,0.65619 1.51208,1.37514 0.69613,0.7703 1.11837,1.59767 z"
         id="path57250"
         style="fill:#6eabea;fill-opacity:1" /><path
         d="m -223.49725,-159.89991 q 0,0.097 -0.0171,0.19971 -0.0171,0.10271 -0.0342,0.20541 l -0.4736,-0.28529 q -0.2853,0.31382 -0.388,0.41653 -0.42224,0.41083 -0.70754,0.41083 h -0.41654 q 0.30242,-0.14265 0.70754,-0.46218 0.36518,-0.29101 0.55348,-0.51354 -0.17689,-0.10841 -0.26818,-0.22824 -0.11412,-0.14835 -0.11412,-0.32524 0,-0.37659 0.21683,-0.66189 0.22253,-0.291 0.4793,-0.291 0.14835,0 0.26818,0.15976 0.11982,0.15977 0.11982,0.38801 0,0.10841 -0.0342,0.22824 -0.0285,0.11412 -0.14265,0.42794 0.0913,0.0799 0.18829,0.15407 0.0628,0.0628 0.0628,0.17688 z m -0.42795,-0.64477 q 0,-0.15406 -0.10841,-0.2853 -0.10841,-0.13124 -0.21112,-0.13124 -0.0571,0 -0.0913,0.0399 -0.0285,0.04 -0.0285,0.0799 0,0.12553 0.14265,0.26247 l 0.25106,0.194 q 0.0457,-0.11412 0.0457,-0.15976 z"
         id="path57252"
         style="fill:#6eabea;fill-opacity:1" /><path
         d="m -226.11628,-152.39658 h -0.67901 q -0.94719,0 -1.65473,0.17689 -0.89584,0.22253 -0.89584,0.63907 0,0.37659 0.12554,0.80453 0.13123,0.42795 0.26247,0.86731 0.13694,0.43936 0.13694,0.80454 0,0.21683 -0.0342,0.39371 -0.0285,0.17689 -0.10842,0.46218 -0.14835,-0.47359 -0.291,-0.94719 -0.27389,-0.90154 -0.40512,-1.36372 -0.20542,-0.73036 -0.20542,-0.87872 0,-0.73036 0.30242,-1.11836 0.30812,-0.39371 0.94148,-0.58201 0.50213,-0.14836 1.51208,-0.25106 -0.35948,-0.36518 -0.44506,-0.43366 -0.29101,-0.22823 -0.58772,-0.22823 -0.1883,0 -0.35947,0.11411 -0.13695,0.0913 -0.33095,0.31383 l -0.26247,-0.16547 q 0.17118,-0.42795 0.388,-0.68472 0.35948,-0.42224 0.85019,-0.42224 0.35377,0 0.70754,0.26248 0.291,0.21682 0.59342,0.60483 0.14835,0.1883 0.43936,0.63907 z"
         id="path57254"
         style="fill:#6eabea;fill-opacity:1" /><path
         d="m -227.34306,-157.17246 q 0,0.35377 -0.26248,0.63336 -0.26247,0.27959 -0.64477,0.27959 -0.30812,0 -0.46218,-0.17118 -0.15406,-0.17118 -0.15406,-0.4793 0,-0.43936 0.22824,-0.77601 0.22823,-0.34236 0.56488,-0.34236 0.30813,0 0.51925,0.25677 0.21112,0.25677 0.21112,0.59913 z m -0.34236,0.15406 q 0,-0.15977 -0.22253,-0.35377 -0.22253,-0.194 -0.3766,-0.194 -0.14835,0 -0.25106,0.13123 -0.1027,0.12553 -0.1027,0.26248 0,0.19971 0.18829,0.27959 0.14836,0.0628 0.42795,0.0628 0.14265,0 0.23965,-0.0399 0.097,-0.0399 0.097,-0.14835 z"
         id="path57256"
         style="fill:#6eabea;fill-opacity:1" /><path
         d="m -233.31149,-152.39658 h -2.81874 v -0.99283 h 2.24244 l -0.67901,-4.83865 -0.29671,-0.14265 q 0,-0.39371 0.0685,-0.73607 0.0685,-0.34807 0.20541,-0.6733 l 0.0856,0.0628 q 0,0.33095 0.37089,0.49642 0.2853,0.11412 0.5763,0.22824 0,0.28529 -0.0456,0.61053 -0.0456,0.32524 -0.10841,0.48501 l -0.27389,-0.0913 0.67331,4.47347 z"
         id="path57258"
         style="fill:#6eabea;fill-opacity:1" /><path
         d="m -233.43703,-161.2351 q 0,0.26247 -0.29671,0.51924 -0.51353,0.19971 -1.65472,0.66189 0,-0.25106 0.25106,-0.4793 0.47359,-0.19971 1.70037,-0.70183 z"
         id="path57260"
         style="fill:#6eabea;fill-opacity:1" /><path
         d="m -235.73082,-152.39658 h -6.59038 v -0.99283 h 4.65035 q -0.582,-0.45077 -0.98142,-0.70184 -0.49642,-0.31382 -0.90725,-0.45647 -0.46218,-0.15977 -0.93577,-0.15977 -0.29101,0 -0.58772,0.0399 0.16547,-0.42224 0.43365,-0.67901 0.38801,-0.37088 0.98143,-0.37088 0.58201,0 1.37514,0.57059 0.39371,0.2853 1.28384,1.08413 0.69042,0.62195 0.93577,0.67331 h 0.34236 z"
         id="path57262"
         style="fill:#6eabea;fill-opacity:1" /><path
         d="m -239.41116,-157.80582 q 0,0.30812 -0.26818,0.73606 l -0.0514,-0.0228 q 0.0228,-0.21112 0.0228,-0.30812 0,-0.70754 -0.26818,-2.56768 0.10841,-0.21683 0.26818,-0.49642 0.29671,1.90579 0.29671,2.65898 z"
         id="path57264"
         style="fill:#6eabea;fill-opacity:1" /><path
         d="m -241.92178,-152.39658 h -3.46922 v -0.99283 h 1.95714 q 0.35377,0 0.59912,-0.0228 0.25107,-0.0285 0.54207,-0.11412 -0.98142,-0.14265 -1.27243,-0.26818 -0.65618,-0.28529 -0.65618,-0.97001 0,-0.59912 0.31383,-1.12978 0.35376,-0.59912 0.86159,-0.59912 0.58201,0 0.88443,0.74177 0.23965,0.58771 0.23965,1.38655 z m -0.51354,-1.99138 q -0.13124,-0.45647 -0.25106,-0.679 -0.23394,-0.42795 -0.56489,-0.42795 -0.15977,0 -0.27389,0.12553 -0.11411,0.12553 -0.11411,0.29671 0,0.43365 0.45077,0.58201 0.15976,0.0513 0.75318,0.1027 z m 0.006,-4.08546 -0.44507,0.82736 -0.92436,-0.4793 0.42224,-0.83307 z"
         id="path57266"
         style="fill:#6eabea;fill-opacity:1" /><path
         d="m -242.29837,-151.0785 q 0,0.27389 -0.29671,0.52495 -0.51354,0.19971 -1.65473,0.65618 0,-0.24535 0.25106,-0.47359 0.47359,-0.194 1.70038,-0.70754 z"
         id="path57268"
         style="fill:#6eabea;fill-opacity:1" /><path
         d="m -244.99159,-152.39658 h -7.19521 v -0.99283 l 0.87301,-0.006 q 0.38801,0 0.72466,-0.10271 0.388,-0.11982 0.87872,-0.42224 0.1027,-0.25106 0.16547,-0.53636 0.0628,-0.291 0.0628,-0.55918 0,-0.61054 -0.11412,-1.34661 -0.0856,-0.53636 -0.25677,-1.26101 -0.0913,-0.3766 -0.23965,-0.91866 l -0.35377,-0.17689 q 0.0399,-0.34235 0.11412,-0.66189 0.0799,-0.31953 0.21682,-0.61624 0.0913,0.26818 0.41654,0.41653 0.26818,0.11983 0.68471,0.15977 -0.0571,0.58771 -0.0856,0.74748 -0.0285,0.15977 -0.10841,0.39371 -0.0399,-0.006 -0.21112,-0.0571 l -0.0742,-0.0228 q 0.19971,0.6676 0.32524,1.37513 0.13124,0.70184 0.13124,1.18114 0,0.40512 -0.0799,0.90154 -0.0285,0.17688 -0.10271,0.54777 0.99854,-0.5763 1.27813,-0.70754 0.84449,-0.39942 1.44932,-0.39942 0.7703,0 1.1526,0.45077 0.34806,0.41083 0.34806,1.16973 z m -0.90154,-1.43219 q 0,-0.29101 -0.30241,-0.43936 -0.29671,-0.15406 -0.8559,-0.15406 -0.41653,0 -0.9586,0.18259 -0.44506,0.14835 -0.94719,0.41083 -0.37088,0.194 -0.76459,0.43936 h 2.48209 q 1.3466,0 1.3466,-0.43936 z m -0.65048,-3.88005 -0.44506,0.82736 -0.92437,-0.4793 0.42224,-0.83307 z"
         id="path57270"
         style="fill:#6eabea;fill-opacity:1" /><path
         d="m -248.0671,-151.0785 q 0,0.27389 -0.29671,0.52495 -0.51353,0.19971 -1.65472,0.65618 0,-0.24535 0.25106,-0.47359 0.47359,-0.194 1.70037,-0.70754 z"
         id="path57272"
         style="fill:#6eabea;fill-opacity:1" /><path
         d="m -251.78738,-152.39658 h -3.2524 v -0.99283 h 2.83586 q 0,-0.67331 -0.15976,-1.02708 -0.10842,-0.24535 -0.53636,-0.70753 l 0.44506,-0.93008 q 0.41083,0.51925 0.51354,0.81025 0.15406,0.43936 0.15406,1.45502 z m -0.0513,1.12978 -0.42225,0.82737 -0.93577,-0.4793 0.43365,-0.82737 z m -1.30096,0.53066 -0.42795,0.81595 -0.94148,-0.48501 0.44506,-0.82166 z"
         id="path57274"
         style="fill:#6eabea;fill-opacity:1" /><path
         d="m -252.46068,-158.67313 q 0,0.35377 -0.26248,0.63336 -0.26247,0.27959 -0.64477,0.27959 -0.30812,0 -0.46218,-0.17117 -0.15406,-0.17118 -0.15406,-0.47931 0,-0.43935 0.22823,-0.77601 0.22824,-0.34235 0.56489,-0.34235 0.30812,0 0.51925,0.25677 0.21112,0.25676 0.21112,0.59912 z m -0.34236,0.15406 q 0,-0.15977 -0.22253,-0.35377 -0.22254,-0.194 -0.3766,-0.194 -0.14835,0 -0.25106,0.13124 -0.10271,0.12553 -0.10271,0.26247 0,0.19971 0.1883,0.27959 0.14836,0.0628 0.42795,0.0628 0.14265,0 0.23965,-0.0399 0.097,-0.04 0.097,-0.14836 z"
         id="path57276"
         style="fill:#6eabea;fill-opacity:1" /><path
         d="m -254.64036,-152.39658 q 0,1.27243 -0.74748,1.87156 -0.80454,0.64477 -2.59621,0.64477 -1.14119,0 -1.74602,-0.39942 -0.66189,-0.43936 -0.66189,-1.3466 0,-0.49071 0.11982,-0.99284 0.11983,-0.50212 0.32524,-1.00995 0.12553,-0.30813 0.43365,-0.94719 l 0.22824,0.1027 q -0.39942,0.82166 -0.53065,1.29526 -0.12553,0.47359 -0.12553,0.8673 0,0.70754 0.50212,1.07843 0.50783,0.36518 1.44361,0.36518 1.07842,0 1.91149,-0.3823 1.03278,-0.47359 1.03278,-1.32378 0,-0.58201 -0.17118,-1.08413 -0.14835,-0.44507 -0.42224,-0.77601 l 0.4736,-1.16972 q 0.30241,0.46218 0.41653,0.94148 0.11412,0.4793 0.11412,1.27243 z m -2.09979,-4.37076 -0.44507,0.82736 -0.92436,-0.4793 0.42224,-0.83307 z"
         id="path57278"
         style="fill:#6eabea;fill-opacity:1" /><path
         d="m -257.0711,-159.55185 q 0,0.26248 -0.29671,0.51925 -0.51353,0.1997 -1.65472,0.66189 0,-0.25107 0.25106,-0.4793 0.47359,-0.19971 1.70037,-0.70184 z"
         id="path57280"
         style="fill:#6eabea;fill-opacity:1" /></g><g
       aria-label="وَاِنَّ عَلَيْكُمْ لَحٰفِظِيْنَ       "
       transform="matrix(2.1002521,0,0,2.1002521,1018.5706,752.56678)"
       id="text48203"
       clip-path="url(#clipPath3208-2)"
       style="font-size:11.6858px;font-family:'Gill Sans MT';-inkscape-font-specification:'Gill Sans MT';text-align:justify;fill:#6eabea;fill-opacity:1;stroke-width:0"><path
         d="m -193.23285,-152.73893 q 0,0.94148 -0.69612,1.87155 -0.77601,1.03848 -1.79167,1.03848 -0.3766,0 -0.77601,-0.0856 -0.29101,-0.0628 -0.7589,-0.21682 -0.37088,-0.13124 -0.74177,-0.25677 l 0.097,-0.19971 q 0.31953,0.0742 0.6676,0.15406 0.35377,0.0856 0.63336,0.0856 0.69612,0 1.31807,-0.35377 0.48501,-0.27959 0.97002,-0.81024 0.24535,-0.26818 0.69612,-0.87301 -0.7703,0 -1.1526,-0.24536 -0.43365,-0.27959 -0.43365,-0.91866 0,-0.58771 0.27388,-1.08984 0.31954,-0.58201 0.81025,-0.58201 0.49642,0 0.71324,0.57631 0.17118,0.45077 0.17118,1.25531 z m -0.35947,-0.62195 q -0.12553,-0.54778 -0.30242,-0.7589 -0.15406,-0.18259 -0.37659,-0.18259 -0.15977,0 -0.27959,0.10842 -0.11412,0.1027 -0.11412,0.26247 0,0.27959 0.25106,0.42795 0.25106,0.14265 0.82166,0.14265 z"
         id="path50651"
         style="fill:#6eabea;fill-opacity:1" /><path
         d="m -193.99174,-157.53194 q 0,0.26248 -0.29671,0.51924 -0.51354,0.19971 -1.65473,0.6619 0,-0.25107 0.25106,-0.47931 0.4736,-0.1997 1.70038,-0.70183 z"
         id="path50648"
         style="fill:#6eabea;fill-opacity:1" /><path
         d="m -198.77334,-153.8516 q 0,0.45648 -0.16547,0.88443 -0.0856,0.22824 -0.37089,0.72465 l -0.1027,-0.0571 q 0.0171,-0.16547 0.0285,-0.38229 0.0171,-0.21683 0.0171,-0.29101 0,-0.59342 -0.097,-1.65473 -0.0913,-1.06701 -0.22253,-2.22532 -0.0799,-0.70183 -0.17688,-1.43219 0.11411,-0.25107 0.25676,-0.54207 0.14836,-0.291 0.2796,-0.54777 0.0913,0.65048 0.22823,1.78026 0.14265,1.12978 0.22254,2.03702 0.1027,1.12978 0.1027,1.70608 z"
         id="path50645"
         style="fill:#6eabea;fill-opacity:1" /><path
         d="m -198.3511,-151.95151 q 0,0.27388 -0.29671,0.52495 -0.51353,0.1997 -1.65472,0.65618 0,-0.24536 0.25106,-0.47359 0.47359,-0.19401 1.70037,-0.70754 z"
         id="path50642"
         style="fill:#6eabea;fill-opacity:1" /><path
         d="m -200.70195,-152.39658 q 0,1.27243 -0.74748,1.87156 -0.80454,0.64477 -2.59621,0.64477 -1.14119,0 -1.74603,-0.39942 -0.66189,-0.43936 -0.66189,-1.3466 0,-0.49071 0.11983,-0.99284 0.11982,-0.50212 0.32524,-1.00995 0.12553,-0.30813 0.43365,-0.94719 l 0.22824,0.1027 q -0.39942,0.82166 -0.53065,1.29526 -0.12554,0.47359 -0.12554,0.8673 0,0.70754 0.50213,1.07843 0.50783,0.36518 1.44361,0.36518 1.07842,0 1.91149,-0.3823 1.03278,-0.47359 1.03278,-1.32378 0,-0.58201 -0.17118,-1.08413 -0.14835,-0.44507 -0.42224,-0.77601 l 0.47359,-1.16972 q 0.30242,0.46218 0.41654,0.94148 0.11412,0.4793 0.11412,1.27243 z m -2.09979,-4.37076 -0.44507,0.82736 -0.92436,-0.4793 0.42224,-0.83307 z"
         id="path50639"
         style="fill:#6eabea;fill-opacity:1" /><path
         d="m -203.04139,-159.84856 q 0,0.42795 -0.14836,0.70184 -0.16547,0.30812 -0.45647,0.30812 -0.10271,0 -0.1883,-0.0342 -0.0856,-0.0342 -0.194,-0.10841 -0.11983,0.20541 -0.22253,0.30812 -0.18259,0.18259 -0.3823,0.18259 -0.23965,0 -0.35948,-0.15977 -0.11982,-0.16547 -0.11982,-0.45077 0,-0.14835 0.0399,-0.291 0.0399,-0.14265 0.11412,-0.32524 l 0.11982,-0.0513 q 0,0.0456 -0.0114,0.14835 -0.0114,0.10271 -0.0114,0.17118 0,0.12553 0.0514,0.22824 0.0514,0.097 0.15406,0.097 0.24536,0 0.39371,-0.31953 0.0685,-0.14836 0.17118,-0.57631 l 0.11983,-0.0342 q 0.0456,0.27959 0.0742,0.34236 0.0685,0.17688 0.22823,0.17688 0.21683,0 0.34236,-0.2853 0.10271,-0.22823 0.10271,-0.47359 l 0.11982,-0.0342 q 0.0228,0.10842 0.04,0.24536 0.0228,0.13124 0.0228,0.23394 z m -0.0799,-1.39225 q 0,0.26247 -0.29671,0.51924 -0.51354,0.19971 -1.65473,0.66189 0,-0.25106 0.25106,-0.4793 0.4736,-0.19971 1.70038,-0.70183 z"
         id="path50636"
         style="fill:#6eabea;fill-opacity:1" /><path
         d="m -210.74444,-154.17684 -0.39371,1.03849 q -0.8616,0.31383 -1.99708,0.53065 -1.12978,0.21112 -2.08268,0.21112 h -1.42078 v -0.99283 h 1.36943 q -0.16547,-0.26818 -0.26818,-0.60483 -0.10271,-0.34236 -0.10271,-0.6619 0,-0.6733 0.55919,-1.12978 0.56489,-0.45647 1.44931,-0.45647 0.70183,0 1.15831,0.34236 0.194,0.14264 0.65618,0.70183 l -0.10841,0.097 q -0.39371,-0.10841 -0.70754,-0.15977 -0.31383,-0.0571 -0.65048,-0.0571 -0.78742,0 -1.23819,0.17689 -0.44506,0.17118 -0.44506,0.45647 0,0.2796 0.27959,0.62766 0.2853,0.34236 0.73036,0.61054 0.93578,-0.14265 1.5349,-0.27389 0.59913,-0.13694 1.67755,-0.45648 z"
         id="path50633"
         style="fill:#6eabea;fill-opacity:1" /><path
         d="m -213.60312,-158.5533 q 0,0.26247 -0.29671,0.51924 -0.51353,0.19971 -1.65472,0.66189 0,-0.25106 0.25106,-0.4793 0.47359,-0.19971 1.70037,-0.70183 z"
         id="path50630"
         style="fill:#6eabea;fill-opacity:1" /><path
         d="m -216.23927,-152.39658 h -2.81874 v -0.99283 h 2.24244 l -0.67901,-4.83865 -0.29671,-0.14265 q 0,-0.39371 0.0685,-0.73607 0.0685,-0.34807 0.20542,-0.6733 l 0.0856,0.0628 q 0,0.33095 0.37089,0.49642 0.2853,0.11412 0.5763,0.22824 0,0.28529 -0.0456,0.61053 -0.0456,0.32524 -0.10842,0.48501 l -0.27388,-0.0913 0.6733,4.47347 z"
         id="path50627"
         style="fill:#6eabea;fill-opacity:1" /><path
         d="m -216.3648,-161.2351 q 0,0.26247 -0.29671,0.51924 -0.51354,0.19971 -1.65473,0.66189 0,-0.25106 0.25106,-0.4793 0.4736,-0.19971 1.70038,-0.70183 z"
         id="path50624"
         style="fill:#6eabea;fill-opacity:1" /><path
         d="m -218.6586,-152.39658 h -3.25239 v -0.99283 h 2.83586 q 0,-0.67331 -0.15977,-1.02708 -0.10841,-0.24535 -0.53636,-0.70753 l 0.44507,-0.93008 q 0.41083,0.51925 0.51353,0.81025 0.15406,0.43936 0.15406,1.45502 z m -0.0513,1.12978 -0.42224,0.82737 -0.93578,-0.4793 0.43366,-0.82737 z m -1.30096,0.53066 -0.42794,0.81595 -0.94149,-0.48501 0.44507,-0.82166 z"
         id="path50621"
         style="fill:#6eabea;fill-opacity:1" /><path
         d="m -219.3319,-158.67313 q 0,0.35377 -0.26247,0.63336 -0.26248,0.27959 -0.64478,0.27959 -0.30812,0 -0.46218,-0.17117 -0.15406,-0.17118 -0.15406,-0.47931 0,-0.43935 0.22824,-0.77601 0.22824,-0.34235 0.56489,-0.34235 0.30812,0 0.51924,0.25677 0.21112,0.25676 0.21112,0.59912 z m -0.34236,0.15406 q 0,-0.15977 -0.22253,-0.35377 -0.22253,-0.194 -0.37659,-0.194 -0.14836,0 -0.25106,0.13124 -0.10271,0.12553 -0.10271,0.26247 0,0.19971 0.1883,0.27959 0.14835,0.0628 0.42794,0.0628 0.14265,0 0.23965,-0.0399 0.097,-0.04 0.097,-0.14836 z"
         id="path50618"
         style="fill:#6eabea;fill-opacity:1" /><path
         d="m -221.51157,-152.39658 h -5.00413 v -0.99283 h 4.34224 q -0.39942,-0.60483 -0.91296,-1.0499 -0.51353,-0.45077 -1.38654,-0.97001 l -0.1883,0.17688 -0.6733,-0.51353 q -0.35377,-0.29671 -0.35377,-0.46219 0,-0.98142 0.4793,-1.5406 0.44506,-0.51354 1.5349,-0.92437 l 1.60908,-0.62765 v 0.98713 l -1.19255,0.39941 q -0.71324,0.23395 -1.1526,0.42795 -0.55918,0.24536 -0.55918,0.37659 0,0.13124 0.36518,0.40513 0.22824,0.17117 0.46218,0.34235 0.86731,0.65619 1.51208,1.37514 0.69613,0.7703 1.11837,1.59767 z"
         id="path50615"
         style="fill:#6eabea;fill-opacity:1" /><path
         d="m -223.49725,-159.89991 q 0,0.097 -0.0171,0.19971 -0.0171,0.10271 -0.0342,0.20541 l -0.4736,-0.28529 q -0.2853,0.31382 -0.388,0.41653 -0.42224,0.41083 -0.70754,0.41083 h -0.41654 q 0.30242,-0.14265 0.70754,-0.46218 0.36518,-0.29101 0.55348,-0.51354 -0.17689,-0.10841 -0.26818,-0.22824 -0.11412,-0.14835 -0.11412,-0.32524 0,-0.37659 0.21683,-0.66189 0.22253,-0.291 0.4793,-0.291 0.14835,0 0.26818,0.15976 0.11982,0.15977 0.11982,0.38801 0,0.10841 -0.0342,0.22824 -0.0285,0.11412 -0.14265,0.42794 0.0913,0.0799 0.18829,0.15407 0.0628,0.0628 0.0628,0.17688 z m -0.42795,-0.64477 q 0,-0.15406 -0.10841,-0.2853 -0.10841,-0.13124 -0.21112,-0.13124 -0.0571,0 -0.0913,0.0399 -0.0285,0.04 -0.0285,0.0799 0,0.12553 0.14265,0.26247 l 0.25106,0.194 q 0.0457,-0.11412 0.0457,-0.15976 z"
         id="path50612"
         style="fill:#6eabea;fill-opacity:1" /><path
         d="m -226.11628,-152.39658 h -0.67901 q -0.94719,0 -1.65473,0.17689 -0.89584,0.22253 -0.89584,0.63907 0,0.37659 0.12554,0.80453 0.13123,0.42795 0.26247,0.86731 0.13694,0.43936 0.13694,0.80454 0,0.21683 -0.0342,0.39371 -0.0285,0.17689 -0.10842,0.46218 -0.14835,-0.47359 -0.291,-0.94719 -0.27389,-0.90154 -0.40512,-1.36372 -0.20542,-0.73036 -0.20542,-0.87872 0,-0.73036 0.30242,-1.11836 0.30812,-0.39371 0.94148,-0.58201 0.50213,-0.14836 1.51208,-0.25106 -0.35948,-0.36518 -0.44506,-0.43366 -0.29101,-0.22823 -0.58772,-0.22823 -0.1883,0 -0.35947,0.11411 -0.13695,0.0913 -0.33095,0.31383 l -0.26247,-0.16547 q 0.17118,-0.42795 0.388,-0.68472 0.35948,-0.42224 0.85019,-0.42224 0.35377,0 0.70754,0.26248 0.291,0.21682 0.59342,0.60483 0.14835,0.1883 0.43936,0.63907 z"
         id="path50609"
         style="fill:#6eabea;fill-opacity:1" /><path
         d="m -227.34306,-157.17246 q 0,0.35377 -0.26248,0.63336 -0.26247,0.27959 -0.64477,0.27959 -0.30812,0 -0.46218,-0.17118 -0.15406,-0.17118 -0.15406,-0.4793 0,-0.43936 0.22824,-0.77601 0.22823,-0.34236 0.56488,-0.34236 0.30813,0 0.51925,0.25677 0.21112,0.25677 0.21112,0.59913 z m -0.34236,0.15406 q 0,-0.15977 -0.22253,-0.35377 -0.22253,-0.194 -0.3766,-0.194 -0.14835,0 -0.25106,0.13123 -0.1027,0.12553 -0.1027,0.26248 0,0.19971 0.18829,0.27959 0.14836,0.0628 0.42795,0.0628 0.14265,0 0.23965,-0.0399 0.097,-0.0399 0.097,-0.14835 z"
         id="path50606"
         style="fill:#6eabea;fill-opacity:1" /><path
         d="m -233.31149,-152.39658 h -2.81874 v -0.99283 h 2.24244 l -0.67901,-4.83865 -0.29671,-0.14265 q 0,-0.39371 0.0685,-0.73607 0.0685,-0.34807 0.20541,-0.6733 l 0.0856,0.0628 q 0,0.33095 0.37089,0.49642 0.2853,0.11412 0.5763,0.22824 0,0.28529 -0.0456,0.61053 -0.0456,0.32524 -0.10841,0.48501 l -0.27389,-0.0913 0.67331,4.47347 z"
         id="path50603"
         style="fill:#6eabea;fill-opacity:1" /><path
         d="m -233.43703,-161.2351 q 0,0.26247 -0.29671,0.51924 -0.51353,0.19971 -1.65472,0.66189 0,-0.25106 0.25106,-0.4793 0.47359,-0.19971 1.70037,-0.70183 z"
         id="path50600"
         style="fill:#6eabea;fill-opacity:1" /><path
         d="m -235.73082,-152.39658 h -6.59038 v -0.99283 h 4.65035 q -0.582,-0.45077 -0.98142,-0.70184 -0.49642,-0.31382 -0.90725,-0.45647 -0.46218,-0.15977 -0.93577,-0.15977 -0.29101,0 -0.58772,0.0399 0.16547,-0.42224 0.43365,-0.67901 0.38801,-0.37088 0.98143,-0.37088 0.58201,0 1.37514,0.57059 0.39371,0.2853 1.28384,1.08413 0.69042,0.62195 0.93577,0.67331 h 0.34236 z"
         id="path50597"
         style="fill:#6eabea;fill-opacity:1" /><path
         d="m -239.41116,-157.80582 q 0,0.30812 -0.26818,0.73606 l -0.0514,-0.0228 q 0.0228,-0.21112 0.0228,-0.30812 0,-0.70754 -0.26818,-2.56768 0.10841,-0.21683 0.26818,-0.49642 0.29671,1.90579 0.29671,2.65898 z"
         id="path50594"
         style="fill:#6eabea;fill-opacity:1" /><path
         d="m -241.92178,-152.39658 h -3.46922 v -0.99283 h 1.95714 q 0.35377,0 0.59912,-0.0228 0.25107,-0.0285 0.54207,-0.11412 -0.98142,-0.14265 -1.27243,-0.26818 -0.65618,-0.28529 -0.65618,-0.97001 0,-0.59912 0.31383,-1.12978 0.35376,-0.59912 0.86159,-0.59912 0.58201,0 0.88443,0.74177 0.23965,0.58771 0.23965,1.38655 z m -0.51354,-1.99138 q -0.13124,-0.45647 -0.25106,-0.679 -0.23394,-0.42795 -0.56489,-0.42795 -0.15977,0 -0.27389,0.12553 -0.11411,0.12553 -0.11411,0.29671 0,0.43365 0.45077,0.58201 0.15976,0.0513 0.75318,0.1027 z m 0.006,-4.08546 -0.44507,0.82736 -0.92436,-0.4793 0.42224,-0.83307 z"
         id="path50591"
         style="fill:#6eabea;fill-opacity:1" /><path
         d="m -242.29837,-151.0785 q 0,0.27389 -0.29671,0.52495 -0.51354,0.19971 -1.65473,0.65618 0,-0.24535 0.25106,-0.47359 0.47359,-0.194 1.70038,-0.70754 z"
         id="path50588"
         style="fill:#6eabea;fill-opacity:1" /><path
         d="m -244.99159,-152.39658 h -7.19521 v -0.99283 l 0.87301,-0.006 q 0.38801,0 0.72466,-0.10271 0.388,-0.11982 0.87872,-0.42224 0.1027,-0.25106 0.16547,-0.53636 0.0628,-0.291 0.0628,-0.55918 0,-0.61054 -0.11412,-1.34661 -0.0856,-0.53636 -0.25677,-1.26101 -0.0913,-0.3766 -0.23965,-0.91866 l -0.35377,-0.17689 q 0.0399,-0.34235 0.11412,-0.66189 0.0799,-0.31953 0.21682,-0.61624 0.0913,0.26818 0.41654,0.41653 0.26818,0.11983 0.68471,0.15977 -0.0571,0.58771 -0.0856,0.74748 -0.0285,0.15977 -0.10841,0.39371 -0.0399,-0.006 -0.21112,-0.0571 l -0.0742,-0.0228 q 0.19971,0.6676 0.32524,1.37513 0.13124,0.70184 0.13124,1.18114 0,0.40512 -0.0799,0.90154 -0.0285,0.17688 -0.10271,0.54777 0.99854,-0.5763 1.27813,-0.70754 0.84449,-0.39942 1.44932,-0.39942 0.7703,0 1.1526,0.45077 0.34806,0.41083 0.34806,1.16973 z m -0.90154,-1.43219 q 0,-0.29101 -0.30241,-0.43936 -0.29671,-0.15406 -0.8559,-0.15406 -0.41653,0 -0.9586,0.18259 -0.44506,0.14835 -0.94719,0.41083 -0.37088,0.194 -0.76459,0.43936 h 2.48209 q 1.3466,0 1.3466,-0.43936 z m -0.65048,-3.88005 -0.44506,0.82736 -0.92437,-0.4793 0.42224,-0.83307 z"
         id="path50585"
         style="fill:#6eabea;fill-opacity:1" /><path
         d="m -248.0671,-151.0785 q 0,0.27389 -0.29671,0.52495 -0.51353,0.19971 -1.65472,0.65618 0,-0.24535 0.25106,-0.47359 0.47359,-0.194 1.70037,-0.70754 z"
         id="path50582"
         style="fill:#6eabea;fill-opacity:1" /><path
         d="m -251.78738,-152.39658 h -3.2524 v -0.99283 h 2.83586 q 0,-0.67331 -0.15976,-1.02708 -0.10842,-0.24535 -0.53636,-0.70753 l 0.44506,-0.93008 q 0.41083,0.51925 0.51354,0.81025 0.15406,0.43936 0.15406,1.45502 z m -0.0513,1.12978 -0.42225,0.82737 -0.93577,-0.4793 0.43365,-0.82737 z m -1.30096,0.53066 -0.42795,0.81595 -0.94148,-0.48501 0.44506,-0.82166 z"
         id="path50579"
         style="fill:#6eabea;fill-opacity:1" /><path
         d="m -252.46068,-158.67313 q 0,0.35377 -0.26248,0.63336 -0.26247,0.27959 -0.64477,0.27959 -0.30812,0 -0.46218,-0.17117 -0.15406,-0.17118 -0.15406,-0.47931 0,-0.43935 0.22823,-0.77601 0.22824,-0.34235 0.56489,-0.34235 0.30812,0 0.51925,0.25677 0.21112,0.25676 0.21112,0.59912 z m -0.34236,0.15406 q 0,-0.15977 -0.22253,-0.35377 -0.22254,-0.194 -0.3766,-0.194 -0.14835,0 -0.25106,0.13124 -0.10271,0.12553 -0.10271,0.26247 0,0.19971 0.1883,0.27959 0.14836,0.0628 0.42795,0.0628 0.14265,0 0.23965,-0.0399 0.097,-0.04 0.097,-0.14836 z"
         id="path50576"
         style="fill:#6eabea;fill-opacity:1" /><path
         d="m -254.64036,-152.39658 q 0,1.27243 -0.74748,1.87156 -0.80454,0.64477 -2.59621,0.64477 -1.14119,0 -1.74602,-0.39942 -0.66189,-0.43936 -0.66189,-1.3466 0,-0.49071 0.11982,-0.99284 0.11983,-0.50212 0.32524,-1.00995 0.12553,-0.30813 0.43365,-0.94719 l 0.22824,0.1027 q -0.39942,0.82166 -0.53065,1.29526 -0.12553,0.47359 -0.12553,0.8673 0,0.70754 0.50212,1.07843 0.50783,0.36518 1.44361,0.36518 1.07842,0 1.91149,-0.3823 1.03278,-0.47359 1.03278,-1.32378 0,-0.58201 -0.17118,-1.08413 -0.14835,-0.44507 -0.42224,-0.77601 l 0.4736,-1.16972 q 0.30241,0.46218 0.41653,0.94148 0.11412,0.4793 0.11412,1.27243 z m -2.09979,-4.37076 -0.44507,0.82736 -0.92436,-0.4793 0.42224,-0.83307 z"
         id="path50573"
         style="fill:#6eabea;fill-opacity:1" /><path
         d="m -257.0711,-159.55185 q 0,0.26248 -0.29671,0.51925 -0.51353,0.1997 -1.65472,0.66189 0,-0.25107 0.25106,-0.4793 0.47359,-0.19971 1.70037,-0.70184 z"
         id="path50570"
         style="fill:#6eabea;fill-opacity:1" /></g></g><path
     style="fill:#4b75a5;fill-opacity:1;stroke-width:0.0500552"
     d="m 352.1339,332.04096 c 0.0115,-2.83662 0.0227,-3.2511 0.0876,-3.2511 0.0596,0 0.0744,-0.0796 0.0744,-0.40044 v -0.40044 h 0.15017 0.15016 v -0.5506 -0.55061 h -0.22524 -0.22526 v -4.12955 c 0,-3.63736 0.009,-4.12956 0.0751,-4.12956 0.0605,0 0.0751,-0.0778 0.0751,-0.40044 v -0.40044 h 0.15016 0.15017 v -0.5506 -0.55061 h -0.24266 -0.24266 l -0.0335,-0.68826 c -0.0495,-1.01658 -0.11857,-1.66178 -0.3121,-2.91572 -0.45573,-2.953 -0.9856,-5.92526 -1.1187,-6.27534 -0.0288,-0.0757 -0.0731,-0.12495 -0.0984,-0.10928 -0.10814,0.0668 -0.52477,2.19881 -1.07911,5.52202 -0.31408,1.88286 -0.41051,2.66662 -0.45868,3.72826 l -0.0335,0.73832 h -0.24259 -0.24258 v 0.55061 0.5506 h 0.15017 0.15017 v 0.40044 c 0,0.32258 0.0146,0.40044 0.0751,0.40044 0.0661,0 0.0751,0.4922 0.0751,4.12956 v 4.12955 h -0.22525 -0.22525 v 0.55061 0.5506 h 0.15017 0.15016 v 0.40044 c 0,0.32258 0.0146,0.40044 0.0751,0.40044 0.0651,0 0.075,0.20141 0.0746,1.51417 l -5e-4,1.51417 -0.13046,-0.22524 c -0.50786,-0.87683 -0.71305,-1.20335 -1.06616,-1.69662 -1.53312,-2.14173 -3.55216,-3.82246 -5.81016,-4.83666 -1.00859,-0.45301 -2.57151,-0.90892 -3.44129,-1.00385 l -0.31285,-0.0341 -5e-4,-0.33141 c -5e-4,-0.37601 -0.0677,-0.66756 -0.18037,-0.78022 -0.0552,-0.0552 -0.1812,-0.0767 -0.44862,-0.0767 -0.2045,0 -0.37184,-0.0119 -0.37184,-0.0264 0,-0.0145 -0.10136,-1.05128 -0.22524,-2.30386 -0.12388,-1.25257 -0.22524,-2.29933 -0.22524,-2.32613 0,-0.0268 -0.0563,-0.0487 -0.12515,-0.0487 -0.0688,0 -0.12527,0.0281 -0.12544,0.0626 0,0.0344 -0.1014,1.06492 -0.22494,2.29002 -0.12355,1.22511 -0.22477,2.25561 -0.22495,2.29003 0,0.0448 -0.11369,0.0626 -0.39959,0.0626 -0.37853,0 -0.40389,0.007 -0.48781,0.1351 -0.0613,0.0935 -0.0963,0.27321 -0.11378,0.58402 l -0.0253,0.44892 -0.55061,0.0924 c -2.53709,0.42597 -4.86092,1.58022 -6.90761,3.43102 -0.46906,0.42416 -1.30371,1.30967 -1.5431,1.63713 -0.0641,0.0876 -0.0766,0.0542 -0.13208,-0.35039 -0.71739,-5.23095 -3.80581,-9.07818 -9.62815,-11.99372 -0.98153,-0.4915 -1.37566,-0.66976 -2.70886,-1.22519 -3.35765,-1.39882 -5.64752,-3.12753 -7.15059,-5.39828 -0.33457,-0.50544 -0.90009,-1.61443 -0.85799,-1.68254 0.0151,-0.0244 0.0814,-0.0444 0.14732,-0.0444 0.17986,0 0.75192,-0.22054 0.97742,-0.37682 0.27271,-0.18899 0.39842,-0.4086 0.39842,-0.69603 0,-0.21708 -0.0202,-0.25516 -0.26279,-0.49642 -0.25605,-0.25462 -0.46223,-0.3619 -0.92601,-0.48188 -0.21148,-0.0547 -0.21276,-0.0565 -0.21691,-0.29086 -0.002,-0.12971 -0.0304,-0.9175 -0.0626,-1.75064 -0.0541,-1.40111 -0.0521,-1.5168 0.0251,-1.54126 0.35965,-0.11397 0.45569,-0.46837 0.18799,-0.69362 -0.0847,-0.0712 -0.18606,-0.12959 -0.22524,-0.12959 -0.0392,0 -0.0723,-0.0168 -0.0736,-0.0375 -0.0181,-0.29612 -0.13342,-3.39431 -0.12664,-3.40237 0.005,-0.006 0.27841,0.0245 0.60725,0.0682 1.74586,0.23161 3.55114,-0.20251 5.06712,-1.21852 0.55122,-0.36943 1.32938,-1.11402 1.73814,-1.66317 0.37901,-0.50919 0.80261,-1.2714 0.64176,-1.15477 -0.73413,0.53232 -0.96501,0.68043 -1.39313,0.89371 -1.11599,0.55597 -2.05835,0.77783 -3.30364,0.77777 -1.23803,-4e-5 -2.16423,-0.2134 -3.25359,-0.74946 -1.77031,-0.87116 -3.10429,-2.41386 -3.72466,-4.30743 -0.24975,-0.76233 -0.35488,-1.43729 -0.35463,-2.2768 5e-4,-1.00342 0.18429,-1.94159 0.55282,-2.81893 0.0802,-0.19094 0.13819,-0.3548 0.12885,-0.36415 -0.009,-0.009 -0.20078,0.16941 -0.42541,0.39723 -1.52349,1.54503 -2.3077,3.69311 -2.11121,5.78294 0.17198,1.82915 0.90936,3.39989 2.17935,4.6423 0.81004,0.79246 1.76455,1.38066 2.80057,1.72581 l 0.4788,0.15952 -0.002,0.23363 c -0.002,0.34964 -0.18538,3.21651 -0.20576,3.23033 -0.01,0.007 -0.11499,0.0544 -0.23399,0.10613 -0.37541,0.16337 -0.4612,0.4105 -0.22163,0.63838 0.0757,0.072 0.1996,0.14624 0.27531,0.16496 0.0811,0.0201 0.13728,0.0678 0.13674,0.11619 -5e-4,0.0452 -0.0453,0.7917 -0.0996,1.65891 -0.0543,0.8672 -0.0989,1.61281 -0.0992,1.6569 -5e-4,0.0559 -0.0964,0.10611 -0.31696,0.16583 -1.56219,0.42287 -1.46404,1.66413 0.15874,2.0076 0.17482,0.037 0.33029,0.0797 0.34551,0.0949 0.0483,0.0484 -0.48146,1.0814 -0.82229,1.6035 -0.95401,1.46136 -2.3419,2.78649 -4.04569,3.86273 -1.01085,0.63851 -1.74165,1.00189 -3.47884,1.72975 -3.65404,1.53099 -6.14091,3.10382 -8.14318,5.15018 -0.74659,0.76303 -1.13786,1.24082 -1.66965,2.03886 -1.31946,1.98001 -2.1205,4.3863 -2.28201,6.85497 -0.0184,0.28219 -0.047,0.51209 -0.0636,0.51093 -0.0165,-8.4e-4 -0.13589,-0.1567 -0.26529,-0.34561 -1.44357,-2.10753 -3.69519,-3.96604 -5.9966,-4.94966 -1.03416,-0.442 -2.48522,-0.85683 -3.29222,-0.94117 l -0.30039,-0.0314 -0.0205,-0.45647 c -0.0149,-0.331 -0.0455,-0.49431 -0.11156,-0.59412 -0.0865,-0.13084 -0.11056,-0.13765 -0.48569,-0.13765 -0.25263,0 -0.39469,-0.0197 -0.39469,-0.0548 0,-0.0663 -0.38484,-4.01585 -0.42752,-4.38759 -0.0272,-0.23658 -0.0423,-0.26278 -0.15172,-0.26278 -0.0822,0 -0.12163,0.0283 -0.12183,0.0876 0,0.0482 -0.1014,1.08995 -0.22495,2.31505 -0.12354,1.22511 -0.22477,2.24436 -0.22494,2.265 0,0.0207 -0.17791,0.0375 -0.395,0.0375 -0.37512,0 -0.39919,0.007 -0.48568,0.13766 -0.0659,0.0996 -0.0967,0.26283 -0.11139,0.59034 l -0.0204,0.4527 -0.43248,0.0595 c -0.93519,0.1286 -2.28637,0.52822 -3.29558,0.97469 -3.06253,1.35484 -5.74383,4.04157 -7.24054,7.25517 -0.14499,0.31132 -0.30027,0.64488 -0.34509,0.74123 -0.0767,0.16497 -0.0817,0.046 -0.0847,-2.03974 -0.003,-2.18265 -0.002,-2.21495 0.0969,-2.21495 0.0918,0 0.10011,-0.0334 0.10011,-0.40044 v -0.40044 h 0.15016 0.15017 v -0.55061 -0.55061 h -0.25028 -0.25028 v -4.12955 c 0,-4.09619 8.4e-4,-4.12955 0.10012,-4.12955 0.0918,0 0.10011,-0.0334 0.10011,-0.40044 v -0.40045 h 0.15016 0.15017 v -0.5506 -0.55061 h -0.24427 -0.24428 l -0.0331,-0.58815 c -0.0851,-1.50947 -0.18296,-2.25449 -0.73125,-5.56864 -0.45238,-2.73446 -0.70222,-3.92129 -0.80404,-3.81947 -0.12391,0.12391 -0.49971,2.03092 -1.04575,5.30658 -0.3439,2.06303 -0.44029,2.82788 -0.49072,3.89383 l -0.0355,0.75082 -0.25028,0.025 -0.25028,0.025 v 0.52558 0.52557 l 0.13766,0.0159 c 0.13726,0.0158 0.13764,0.0169 0.13764,0.41296 0,0.36374 0.008,0.39712 0.10011,0.39712 0.0993,0 0.10011,0.0334 0.10011,4.1268 v 4.12681 l -0.23775,0.0153 -0.23777,0.0153 v 0.52559 0.52557 l 0.13766,0.0159 c 0.13726,0.0158 0.13764,0.0169 0.13764,0.41296 0,0.36374 0.008,0.39711 0.10011,0.39711 0.0989,0 0.10011,0.0334 0.10011,2.78921 0,2.3313 -0.0109,2.77298 -0.0663,2.69046 -0.0365,-0.0543 -0.14912,-0.24889 -0.25037,-0.43241 -0.22819,-0.41362 -0.67513,-1.01981 -1.05061,-1.42495 l -0.28454,-0.30702 v -30.6396 -30.6396 h 3.11696 3.11697 l -0.13691,-0.95676 c -0.57265,-4.00176 -0.59332,-7.79284 -0.0627,-11.50699 1.18653,-8.30593 5.24836,-15.85616 11.89667,-22.11383 1.13269,-1.06615 1.8711,-1.71177 3.04219,-2.65995 5.93239,-4.80318 13.7538,-8.91954 22.39969,-11.78881 1.83477,-0.6089 4.49727,-1.37367 5.76504,-1.65595 l 0.35908,-0.08 0.96739,0.28244 c 1.36299,0.39791 3.20327,1.00655 4.6965,1.55325 9.61382,3.51989 18.16014,8.39702 24.45196,13.95402 1.02199,0.90263 2.92972,2.78038 3.87408,3.81319 4.84241,5.29597 7.95222,11.24418 9.1855,17.56937 0.4133,2.11966 0.57847,3.73663 0.61613,6.03165 0.0381,2.32154 -0.0838,4.20715 -0.42677,6.60414 l -0.13654,0.9542 h 3.11697 3.11696 l -5.2e-4,30.7464 -5.2e-4,30.7464 -0.27681,0.32536 c -0.55478,0.65209 -1.06998,1.50058 -1.35248,2.22746 -0.0749,0.19271 -0.14971,0.36616 -0.16626,0.38543 -0.0165,0.0193 -0.0242,-1.42793 -0.0169,-3.21604 z"
     id="path5651"
     sodipodi:nodetypes="ssscccccccssscccccccsssssscccccccssscccccccssscsssscssssssscscssscssssssssssssscsssssssssssssscssssssccsssssscssssssssscssscsssssscscssscssssssscccccccssscccccccssssscccccsssscccccssssssscccccsssssscssssssscccccsssss" /></svg>
