<?xml version="1.0" encoding="UTF-8" standalone="no"?>
<!-- Created with Inkscape (http://www.inkscape.org/) -->

<svg
   version="1.1"
   id="svg1"
   width="163.96007"
   height="291.48459"
   viewBox="0 0 163.96007 291.48459"
   sodipodi:docname="deer.svg"
   inkscape:version="1.2.2 (732a01da63, 2022-12-09)"
   xml:space="preserve"
   xmlns:inkscape="http://www.inkscape.org/namespaces/inkscape"
   xmlns:sodipodi="http://sodipodi.sourceforge.net/DTD/sodipodi-0.dtd"
   xmlns:xlink="http://www.w3.org/1999/xlink"
   xmlns="http://www.w3.org/2000/svg"
   xmlns:svg="http://www.w3.org/2000/svg"><defs
     id="defs1"><linearGradient
       inkscape:collect="always"
       id="linearGradient2661"><stop
         style="stop-color:#60b07b;stop-opacity:1;"
         offset="0"
         id="stop2657" /><stop
         style="stop-color:#aa6b38;stop-opacity:1"
         offset="1"
         id="stop2659" /></linearGradient><linearGradient
       inkscape:collect="always"
       xlink:href="#linearGradient2661"
       id="linearGradient2663"
       x1="361.89496"
       y1="199.68388"
       x2="361.89493"
       y2="244.85657"
       gradientUnits="userSpaceOnUse" /></defs><sodipodi:namedview
     id="namedview1"
     pagecolor="#ffffff"
     bordercolor="#cccccc"
     borderopacity="1"
     inkscape:showpageshadow="0"
     inkscape:pageopacity="1"
     inkscape:pagecheckerboard="0"
     inkscape:deskcolor="#d1d1d1"
     showgrid="false"
     inkscape:zoom="1.3775"
     inkscape:cx="109.2559"
     inkscape:cy="172.05082"
     inkscape:window-width="1366"
     inkscape:window-height="705"
     inkscape:window-x="-8"
     inkscape:window-y="-8"
     inkscape:window-maximized="1"
     inkscape:current-layer="g1" /><g
     inkscape:groupmode="layer"
     inkscape:label="Image"
     id="g1"
     transform="translate(-283.90018,-78.577119)"><rect
       style="fill:url(#linearGradient2663);fill-opacity:1;stroke-width:0.1"
       id="rect353"
       width="158.10443"
       height="209.43709"
       x="285.40936"
       y="97.531967" /><path
       style="fill:#2a2a2a;fill-opacity:1;stroke-width:0.132013"
       d="M 283.90018,224.31942 V 78.577119 h 81.98004 81.98003 V 224.31942 370.06171 h -81.98003 -81.98004 z m 69.41791,49.73699 c 0.13054,-0.13055 0.18493,-0.12992 0.26714,0.003 0.0781,0.12642 0.162,0.10209 0.345,-0.10012 0.13297,-0.14693 0.38849,-0.26714 0.56783,-0.26714 0.28909,0 0.31743,-0.0433 0.24983,-0.38124 -0.15325,-0.76625 0.6284,-1.03789 1.47713,-0.51334 0.61712,0.3814 0.88048,0.41315 1.27621,0.15385 0.31657,-0.20742 0.65327,-0.20286 1.54922,0.021 0.2957,0.0739 0.35012,0.0526 0.28682,-0.11239 -0.0923,-0.24064 -0.93197,-0.66639 -1.10423,-0.55992 -0.0657,0.0406 -0.42151,0.009 -0.79062,-0.0701 -0.52337,-0.11224 -0.67109,-0.19963 -0.67109,-0.39702 0,-0.13919 -0.0594,-0.25308 -0.13202,-0.25308 -0.0726,0 -0.13201,-0.11881 -0.13201,-0.26403 0,-0.14521 -0.0863,-0.26402 -0.19181,-0.26402 -0.42338,0 -0.83293,-0.28943 -0.76689,-0.54196 0.036,-0.13757 0.0961,-0.25012 0.1337,-0.25012 0.2389,0 1.08903,0.32548 1.08903,0.41694 0,0.0611 0.0851,0.11111 0.18912,0.11111 0.10402,0 0.22703,0.11943 0.27336,0.26541 0.0592,0.18646 0.18947,0.25976 0.43794,0.24643 0.19453,-0.0104 0.44999,0.022 0.56769,0.0722 0.13548,0.0577 0.24293,0.0158 0.29288,-0.1144 0.0882,-0.2298 0.81382,-0.2863 0.94527,-0.0736 0.14263,0.23078 0.36345,0.14203 0.29527,-0.11868 -0.0498,-0.19031 0.02,-0.2678 0.28967,-0.32174 0.65739,-0.13147 0.78019,-1.01172 0.14113,-1.01172 -0.29903,0 -0.52805,-0.26626 -0.52805,-0.6139 0,-0.1634 -0.10396,-0.35525 -0.23102,-0.42636 -0.12706,-0.0711 -0.20299,-0.17802 -0.16873,-0.23759 0.0343,-0.0596 -0.0994,-0.18579 -0.29703,-0.28051 -0.42423,-0.20333 -0.46412,-0.41914 -0.0953,-0.51561 0.14522,-0.038 0.26403,-0.15448 0.26403,-0.2589 0,-0.16814 -0.97295,-1.72178 -1.18457,-1.89155 -0.0452,-0.0363 -0.22506,-0.27392 -0.39959,-0.52805 -0.17452,-0.25412 -0.35703,-0.49175 -0.40557,-0.52805 -0.19368,-0.14483 -1.40389,-2.0989 -1.56101,-2.52047 -0.0922,-0.24741 -0.23335,-0.56863 -0.31366,-0.71385 -0.66841,-1.20864 -0.6878,-1.35523 -0.29688,-2.24422 0.78712,-1.78992 0.99297,-2.39784 0.99297,-2.93242 0,-0.54011 -0.0574,-0.64751 -0.62706,-1.17289 -1.0661,-0.98325 -1.62391,-0.76471 -3.06552,1.20103 -0.82543,1.12553 -1.2191,1.62859 -1.61554,2.06449 -0.64575,0.71005 -1.63838,1.89353 -1.96758,2.34589 -0.40325,0.5541 -0.9091,1.85518 -0.9091,2.33824 0,0.3955 -0.47833,2.37483 -0.6661,2.75631 -0.21857,0.44406 -0.40557,1.15651 -0.47644,1.81518 -0.0673,0.6251 0.0275,0.76524 0.31973,0.47297 0.19122,-0.19122 0.35882,0.15888 0.25892,0.54087 -0.0635,0.24279 -0.0523,0.24342 0.34816,0.0198 0.22756,-0.12709 0.43331,-0.33179 0.45721,-0.4549 0.0773,-0.3983 0.89484,-1.18791 1.09576,-1.05838 0.0995,0.0641 0.32942,0.11662 0.51094,0.11662 0.27383,0 0.33692,0.071 0.3705,0.41695 0.0271,0.27971 -0.0435,0.49696 -0.21465,0.66007 -0.14031,0.13371 -0.30075,0.39116 -0.35653,0.57211 -0.0942,0.3054 -0.0843,0.31487 0.13691,0.13202 0.22209,-0.18355 0.23332,-0.17055 0.16465,0.19068 -0.10101,0.53141 0.003,0.73444 0.37529,0.73444 0.17375,0 0.31591,0.0466 0.31591,0.10355 0,0.10162 0.69106,0.55651 0.84545,0.55651 0.0433,0 0.0855,-0.28218 0.0939,-0.62706 0.008,-0.34488 0.0431,-0.51995 0.077,-0.38903 0.049,0.18896 0.10027,0.20605 0.24871,0.0829 0.15233,-0.12643 0.18732,-0.0971 0.18879,0.15801 0.004,0.62735 0.14941,0.90724 0.4726,0.90724 0.58407,0 0.83508,0.85352 0.53055,1.80407 -0.0505,0.15754 -0.0305,0.32372 0.0446,0.3701 0.082,0.0506 0.005,0.22535 -0.19265,0.43879 -0.40764,0.43962 -0.41726,0.71298 -0.0318,0.90388 0.40623,0.20119 0.42022,0.20156 0.60616,0.0156 z m 10.61627,-5.24863 c 0.51254,-0.55745 0.87414,-0.65681 1.20093,-0.33003 0.11117,0.11117 0.43376,0.19802 0.7355,0.19802 0.38975,0 0.53748,0.0544 0.53748,0.19802 0,0.11001 0.11735,0.19802 0.26403,0.19802 0.17737,0 0.26402,-0.088 0.26402,-0.26817 0,-0.14749 0.10396,-0.30214 0.23103,-0.34367 0.12706,-0.0415 0.396,-0.14904 0.59764,-0.23892 l 0.36663,-0.16342 0.0528,-1.7623 c 0.0405,-1.3508 0.009,-1.84737 -0.1356,-2.12661 -0.10362,-0.20037 -0.1884,-0.6317 -0.1884,-0.95848 0,-0.62759 -0.22539,-1.60065 -0.59931,-2.58726 -0.12382,-0.32673 -0.44922,-1.24752 -0.7231,-2.0462 -0.56865,-1.65829 -0.39239,-1.56336 -2.17593,-1.17193 -1.15525,0.25354 -4.00798,0.32905 -5.1485,0.13628 l -0.66007,-0.11157 -0.56105,1.11176 c -1.06353,2.10746 -0.76742,3.18642 2.05667,7.49419 0.40459,0.61716 0.7831,1.14191 0.84112,1.16611 0.058,0.0242 0.1055,0.12817 0.1055,0.23102 0,0.10287 0.0446,0.18862 0.099,0.19058 0.0545,0.002 0.23921,0.22472 0.41055,0.49505 0.27581,0.43511 1.37372,1.16799 1.8061,1.20561 0.0756,0.007 0.35593,-0.22567 0.62296,-0.5161 z m 8.25111,-0.29975 c 0.11748,-0.0926 0.12606,-0.18021 0.0291,-0.29706 -0.16791,-0.20233 -0.0222,-1.25137 0.17379,-1.25137 0.0758,0 0.24638,-0.0983 0.37916,-0.21848 0.15588,-0.14107 0.24142,-0.16202 0.24142,-0.0591 0,0.0876 0.18407,0.22351 0.40905,0.30194 0.3597,0.1254 0.39991,0.18826 0.33333,0.52119 -0.0419,0.20969 -0.0183,0.37858 0.053,0.37858 0.0708,0 0.12871,-0.0542 0.12871,-0.12049 0,-0.0663 0.4901,-0.11082 1.08911,-0.099 1.02779,0.0203 1.0891,0.0378 1.0891,0.31207 0,0.26318 0.38028,0.68483 0.62706,0.6953 0.16912,0.007 0.10852,-0.63037 -0.066,-0.69437 -0.13202,-0.0484 -0.13202,-0.0955 0,-0.23542 0.0908,-0.0962 0.16501,-0.31155 0.16501,-0.47855 0,-0.24273 0.0728,-0.30404 0.36304,-0.30565 0.19967,-0.001 0.44532,-0.0541 0.54589,-0.11782 0.11262,-0.0713 0.3557,-0.0436 0.63287,0.0722 0.51394,0.21473 0.75485,0.13033 0.66028,-0.23132 -0.0526,-0.20108 0.007,-0.24912 0.31074,-0.24912 0.20674,0 0.41373,-0.0612 0.45998,-0.13607 0.0488,-0.0789 0.27383,-0.10046 0.53584,-0.0513 0.51339,0.0963 0.6084,-0.0938 0.15472,-0.30961 -0.28755,-0.13678 -0.28334,-0.14426 0.13202,-0.23469 0.62781,-0.13667 0.54544,-0.41564 -0.11864,-0.40182 -0.6455,0.0134 -0.7567,-0.16144 -0.30968,-0.487 0.29575,-0.21538 0.36084,-0.21804 0.80373,-0.033 0.95931,0.40083 1.63778,0.11661 1.63778,-0.6861 0,-0.25493 -0.0695,-0.30066 -0.4567,-0.30066 -0.32851,0 -0.55111,-0.10181 -0.79303,-0.36272 -0.18498,-0.1995 -0.2765,-0.38266 -0.20336,-0.40703 0.2996,-0.0999 0.10045,-0.28842 -0.38694,-0.36637 -0.69754,-0.11153 -0.83619,-0.44803 -0.18461,-0.44803 0.37522,0 0.57024,0.10064 0.92607,0.47792 0.24791,0.26287 0.46566,0.45594 0.4839,0.42904 0.0182,-0.0269 0.10332,-0.21225 0.18907,-0.41192 0.14767,-0.34382 0.29966,-0.39896 1.08567,-0.39387 0.0363,0 0.20785,0.0436 0.38123,0.0963 0.287,0.0873 0.30914,0.0641 0.24734,-0.25922 -0.044,-0.2304 -0.004,-0.37959 0.11382,-0.42483 0.0999,-0.0384 0.1817,-0.15247 0.1817,-0.25362 0,-0.10114 0.0525,-0.18389 0.11661,-0.18389 0.0641,0 0.14831,-0.12119 0.18704,-0.2693 0.0562,-0.21493 0.13927,-0.25202 0.41144,-0.18371 0.26531,0.0666 0.34101,0.0364 0.34101,-0.13619 0,-0.15381 -0.0914,-0.2098 -0.29838,-0.18267 -0.16411,0.0215 -0.44466,-0.0634 -0.62343,-0.18858 -0.17878,-0.12522 -0.43064,-0.22767 -0.5597,-0.22767 -0.30209,0 -0.29954,-0.28665 0.006,-0.66387 0.22375,-0.27631 0.26294,-0.28305 0.56105,-0.0963 0.41643,0.26082 1.04657,0.40606 1.04657,0.24122 0,-0.0704 -0.10396,-0.18852 -0.23102,-0.26252 -0.19366,-0.1128 -0.16697,-0.13446 0.16502,-0.13391 0.21782,0 0.54455,0.0856 0.72607,0.18934 0.43653,0.24954 0.66006,0.24526 0.66006,-0.0127 0,-0.11585 0.10335,-0.39803 0.22967,-0.62706 0.4197,-0.76096 0.43641,-0.77285 0.77442,-0.55139 0.34981,0.2292 0.71208,0.26429 0.71208,0.069 0,-0.0726 0.11881,-0.13201 0.26403,-0.13201 0.14521,0 0.26402,0.0856 0.26402,0.19023 0,0.33433 0.28183,0.37869 0.57071,0.0898 0.15589,-0.15591 0.20851,-0.28005 0.11869,-0.28005 -0.0887,3e-5 -0.16134,-0.11878 -0.16134,-0.26399 0,-0.14522 0.0818,-0.26403 0.18185,-0.26403 0.10002,0 0.25745,-0.0911 0.34985,-0.20241 0.0924,-0.11133 0.23204,-0.18107 0.31033,-0.15497 0.259,0.0863 0.461,-0.21591 0.3208,-0.47999 -0.071,-0.13383 -0.0926,-0.38887 -0.048,-0.56677 0.12697,-0.50591 0.99737,-0.70828 0.99737,-0.23189 0,0.3133 0.33224,0.20303 0.63919,-0.21215 0.33561,-0.45392 0.55082,-0.4946 0.85261,-0.16113 0.19552,0.21605 0.19498,0.28389 -0.007,0.8448 -0.18279,0.50833 -0.19031,0.64486 -0.0451,0.8198 0.15892,0.19149 0.20743,0.19027 0.5531,-0.0139 0.35198,-0.2079 0.77921,-0.87407 0.77921,-1.21498 0,-0.0871 -0.12183,-0.11711 -0.29703,-0.0733 -0.27344,0.0684 -0.29703,0.0293 -0.29703,-0.49254 0,-0.71007 0.2376,-1.17012 0.48023,-0.92985 0.0916,0.0908 0.27015,0.16502 0.39667,0.16502 0.17379,0 0.23995,0.12966 0.27062,0.53037 0.0451,0.58869 0.23558,0.71122 0.43494,0.27974 0.14414,-0.31199 0.40715,-0.373 0.50451,-0.11704 0.0418,0.10987 0.1796,0.0437 0.41238,-0.19802 0.35608,-0.36976 0.65875,-0.46114 0.79534,-0.24015 0.0418,0.0676 0.0156,0.16021 -0.0582,0.20581 -0.23539,0.14549 -0.14792,0.25852 0.44245,0.57171 0.31714,0.16824 0.65391,0.45032 0.74838,0.62684 0.23523,0.43953 0.37007,0.40369 0.60605,-0.16109 0.1981,-0.47412 0.19528,-0.48702 -0.17175,-0.78733 -0.44264,-0.36216 -0.39136,-0.37937 0.35037,-0.11768 0.30729,0.10842 0.61851,0.16017 0.6916,0.115 0.0755,-0.0466 0.10704,-0.39388 0.0731,-0.80344 -0.0435,-0.52476 -0.0116,-0.7398 0.11707,-0.78918 0.25707,-0.0986 0.21673,-0.34729 -0.0871,-0.53704 -0.30119,-0.1881 -0.36005,-0.45525 -0.0763,-0.34637 0.10323,0.0396 0.3227,0 0.4877,-0.0885 l 0.29999,-0.16056 -0.38869,-0.31099 c -0.21378,-0.17105 -0.5075,-0.31163 -0.65271,-0.3124 -0.44797,-0.002 -1.25413,-0.26882 -1.25413,-0.41452 0,-0.076 0.11882,-0.16924 0.26403,-0.20722 0.31178,-0.0815 0.34555,-0.27927 0.066,-0.38655 -0.31229,-0.11983 -0.23102,-0.31176 0.13201,-0.31176 0.50932,0 0.39054,-0.23756 -0.19802,-0.39604 -0.57503,-0.15484 -0.67896,-0.32578 -0.26403,-0.43428 0.36443,-0.0953 0.33109,-0.33594 -0.0601,-0.43413 -0.27777,-0.0697 -0.31304,-0.137 -0.24641,-0.47012 0.0567,-0.28346 0.0143,-0.43516 -0.15641,-0.56 -0.22373,-0.16359 -0.22349,-0.1753 0.005,-0.2631 0.1317,-0.0505 0.49647,-0.0533 0.8106,-0.006 0.52037,0.078 0.57114,0.0609 0.57114,-0.19337 0,-0.16 -0.0845,-0.27901 -0.19802,-0.27901 -0.25308,0 -0.24895,-0.0711 0.0318,-0.54627 0.19788,-0.33498 0.20319,-0.40542 0.0383,-0.50735 -0.16329,-0.10092 -0.15584,-0.15781 0.0505,-0.38581 0.18916,-0.20901 0.39182,-0.2635 0.92774,-0.2494 0.81572,0.0215 1.03891,-0.0864 0.92457,-0.44662 -0.0655,-0.20645 -0.0315,-0.25492 0.15385,-0.21922 0.13089,0.0252 0.27297,0.19403 0.31573,0.37518 0.0941,0.39857 0.69414,0.47551 0.76678,0.0983 0.0308,-0.16004 -0.0396,-0.23103 -0.22921,-0.23103 -0.20394,0 -0.27371,-0.0841 -0.27371,-0.33003 0,-0.24202 -0.0704,-0.33003 -0.26402,-0.33003 -0.44283,0 -0.29581,-0.23761 0.31389,-0.50731 0.50521,-0.22349 0.58494,-0.31582 0.63376,-0.73401 0.0702,-0.60086 -0.0436,-0.79221 -0.40312,-0.6781 -0.38609,0.12254 -0.88101,-0.0411 -0.69298,-0.22916 0.10154,-0.10154 0.10072,-0.1921 -0.003,-0.31692 -0.18603,-0.22416 0.15828,-0.247 0.38006,-0.0252 0.0823,0.0822 0.25291,0.10988 0.37924,0.0614 0.21347,-0.0819 0.21176,-0.1006 -0.0241,-0.26468 -0.1396,-0.0971 -0.45004,-0.21925 -0.68986,-0.27145 -0.47729,-0.10388 -0.50917,-0.3987 -0.0437,-0.40446 0.17695,-0.002 0.35963,-0.13943 0.4708,-0.3537 0.20872,-0.40231 0.15423,-0.5008 -0.27706,-0.5008 -0.17774,0 -0.30803,-0.0791 -0.30803,-0.18703 0,-0.27643 0.28942,-0.32636 0.62604,-0.10798 0.16281,0.10561 0.39227,0.15508 0.50992,0.10994 0.18283,-0.0702 0.18777,-0.11394 0.034,-0.30143 -0.16143,-0.19686 -0.14604,-0.20905 0.15015,-0.11896 0.18152,0.0552 0.58251,0.12172 0.89109,0.14778 0.49402,0.0417 0.56105,0.0148 0.56105,-0.22492 0,-0.27276 0.11842,-0.28167 0.67603,-0.0509 0.1339,0.0554 0.24352,0.0116 0.29289,-0.11703 0.0434,-0.11308 0.0214,-0.20561 -0.049,-0.20561 -0.0703,0 -0.12787,-0.0605 -0.12787,-0.13453 0,-0.0776 0.13971,-0.0995 0.33003,-0.0517 0.34186,0.0858 0.40789,-0.0146 0.21248,-0.32295 -0.0642,-0.10136 -0.22098,-0.14567 -0.36101,-0.10202 -0.13613,0.0424 -0.33633,0.0214 -0.44488,-0.0467 -0.16928,-0.10616 -0.16023,-0.15096 0.0636,-0.3146 0.2247,-0.16432 0.31056,-0.16516 0.61805,-0.006 0.1964,0.10155 0.39407,0.24448 0.43926,0.31761 0.0452,0.0731 0.22718,0.13295 0.40441,0.13295 0.45046,0 0.43213,-0.27269 -0.11971,-1.78103 -0.1289,-0.35232 -0.29215,-0.55036 -0.49268,-0.5977 -0.16495,-0.0389 -0.32712,-0.15242 -0.36038,-0.25219 -0.0429,-0.12854 0.0202,-0.1603 0.21638,-0.109 0.56373,0.14742 0.60362,-0.1782 0.2423,-1.97808 -0.50605,-2.52087 -1.16962,-4.13424 -2.56162,-6.22819 -0.45455,-0.68378 -0.82646,-1.26695 -0.82646,-1.29594 0,-0.029 -0.14041,-0.2418 -0.31202,-0.47292 -0.35175,-0.47375 -0.93966,-1.52027 -1.697,-3.02079 -0.34326,-0.68008 -0.609,-1.04397 -0.80314,-1.09975 -1.05231,-0.30235 -1.9403,-0.94252 -1.9403,-1.39879 0,-0.17917 -0.13358,-0.32078 -0.39604,-0.41984 -0.41496,-0.15664 -0.50058,-0.44168 -0.26492,-0.88201 0.10508,-0.19636 0.0625,-0.295 -0.2147,-0.4969 -0.29758,-0.21676 -0.32474,-0.29127 -0.19471,-0.53421 0.12616,-0.23574 0.20593,-0.26148 0.48343,-0.15598 0.59053,0.22452 0.51047,-0.17309 -0.39998,-1.98645 -1.10123,-2.19331 -1.69102,-2.99177 -2.71503,-3.67558 -1.06823,-0.71333 -1.8819,-0.94132 -3.35947,-0.94132 -0.85508,0 -1.27933,-0.0563 -1.46119,-0.19382 -0.28705,-0.21711 -1.32009,-0.27129 -1.44105,-0.0756 -0.043,0.0697 -0.004,0.24518 0.0862,0.39003 0.30532,0.4889 -0.0247,0.45987 -0.54469,-0.0479 -0.58504,-0.57129 -0.86157,-0.55728 -0.99503,0.0504 -0.0489,0.22273 -0.16907,0.40496 -0.26701,0.40496 -0.0979,0 -0.53899,-0.21499 -0.98012,-0.47778 -1.16779,-0.69564 -1.70992,-0.86054 -2.12116,-0.64519 -0.18152,0.0951 -0.57446,0.23808 -0.87321,0.31781 -0.29875,0.0798 -0.70786,0.27452 -0.90913,0.43285 l -0.36596,0.28785 0.29087,0.23552 0.29086,0.23554 -0.30582,0.0656 c -0.1682,0.0361 -0.42314,0.0833 -0.56653,0.10489 -0.14339,0.0216 -0.33051,0.1793 -0.41581,0.35041 -0.0853,0.1711 -0.41246,0.42632 -0.72701,0.56714 -0.31456,0.14083 -0.67583,0.35009 -0.80283,0.46502 -0.21296,0.19273 -0.24019,0.18447 -0.35021,-0.10625 -0.13036,-0.34449 0.0228,-0.64528 0.32851,-0.64528 0.2605,0 0.22472,-0.23261 -0.0492,-0.31968 -0.12706,-0.0404 -0.382,-0.21354 -0.56654,-0.38476 -0.18453,-0.17123 -0.51126,-0.3699 -0.72607,-0.4415 -0.5212,-0.17374 -0.49392,-0.44586 0.0635,-0.63356 0.24975,-0.0841 0.47961,-0.22946 0.51081,-0.32307 0.0723,-0.21694 -0.74444,-0.0927 -1.65247,0.25142 -0.66455,0.25182 -0.83883,0.51428 -0.51822,0.78036 0.16469,0.13668 0.14943,0.20461 -0.10849,0.48291 -0.38732,0.41794 -0.58002,0.40402 -1.05093,-0.0759 -0.21177,-0.2158 -0.46145,-0.39237 -0.55485,-0.39237 -0.23974,0 -0.84229,-0.28745 -0.84229,-0.40183 0,-0.0525 0.12507,-0.12813 0.27793,-0.1681 0.37312,-0.0976 0.25786,-0.37449 -0.22017,-0.52899 -0.21329,-0.0689 -0.4045,-0.13887 -0.42492,-0.1554 -0.0204,-0.0165 0.0687,-0.21561 0.19802,-0.44242 0.2145,-0.37618 0.21737,-0.4444 0.0327,-0.77696 -0.11141,-0.20064 -0.34088,-0.38444 -0.51034,-0.40876 -0.16934,-0.0243 -0.33765,-0.15797 -0.37402,-0.29703 -0.0439,-0.16768 -0.18321,-0.25345 -0.41376,-0.25464 -0.63575,-0.003 -0.96423,-0.14654 -0.86818,-0.37859 0.22603,-0.54601 0.19798,-0.66252 -0.25977,-1.07906 -0.35304,-0.32126 -0.47381,-0.53761 -0.47381,-0.84881 0,-0.38303 0.052,-0.43374 0.62706,-0.6116 0.56519,-0.1748 0.63123,-0.23683 0.66929,-0.62869 0.0349,-0.35979 10e-4,-0.42682 -0.19651,-0.38878 -0.25894,0.0499 -0.60359,-0.23158 -0.74964,-0.61217 -0.0877,-0.2286 -0.1028,-0.22884 -0.34957,-0.006 -0.23926,0.21653 -0.2814,0.21798 -0.58336,0.0201 -0.27976,-0.18331 -0.31469,-0.28307 -0.24872,-0.71047 0.0422,-0.27347 0.0875,-0.51144 0.10068,-0.52883 0.092,-0.12154 0.728,0.34767 0.75863,0.55967 0.0323,0.22338 0.12169,0.25747 0.58079,0.22147 0.51783,-0.0406 0.54654,-0.0231 0.62785,0.38346 0.1052,0.526 0.30687,0.7812 0.61736,0.7812 0.36036,0 0.4913,0.75463 0.17187,0.9905 -0.16034,0.1184 -0.19845,0.22287 -0.11154,0.30576 0.2047,0.19525 1.87027,1.07998 2.03314,1.07998 0.27941,0 0.14158,-0.38055 -0.23493,-0.64865 -0.20901,-0.14883 -0.41137,-0.3905 -0.44969,-0.53704 -0.0596,-0.22786 -0.006,-0.26646 0.36977,-0.26646 0.38517,0 0.45828,-0.0571 0.59194,-0.46204 0.17314,-0.52465 0.22102,-0.54348 0.63835,-0.25117 0.23546,0.16492 0.28351,0.29082 0.22049,0.57772 -0.0546,0.24845 -0.0114,0.43604 0.13378,0.58121 0.37287,0.37287 0.7532,0.23672 0.97604,-0.34939 0.17919,-0.47129 0.34843,-0.45591 0.52395,0.0476 0.19,0.54503 0.4913,0.43748 0.43428,-0.15502 -0.0581,-0.60371 -0.51845,-1.02813 -1.08513,-1.00044 -0.3973,0.0194 -0.44775,-0.0204 -0.53211,-0.41983 -0.0513,-0.2427 -0.15898,-0.50705 -0.23938,-0.58745 -0.0804,-0.0804 -0.14618,-0.25614 -0.14618,-0.39053 0,-0.21719 0.0513,-0.20519 0.46204,0.10808 0.30984,0.23632 0.46205,0.46062 0.46205,0.6809 0,0.25124 0.0513,0.3088 0.21816,0.24477 0.12,-0.046 0.42249,-0.0163 0.67222,0.0661 0.25094,0.0828 0.50091,0.0992 0.5588,0.0366 0.0576,-0.0623 0.0755,-0.44255 0.0398,-0.845 -0.057,-0.64154 -0.11337,-0.75952 -0.45763,-0.9571 -0.21596,-0.12394 -0.47344,-0.22535 -0.57218,-0.22535 -0.28936,0 -0.36915,-0.26268 -0.15291,-0.50337 0.15262,-0.16986 0.17536,-0.35686 0.0959,-0.78817 -0.0871,-0.47256 -0.0659,-0.58597 0.12902,-0.69029 0.16563,-0.0887 0.28021,-0.0682 0.39528,0.0704 0.21789,0.26254 1.0538,0.26233 1.0538,-2.7e-4 0,-0.10753 -0.16278,-0.23636 -0.36173,-0.28629 -0.19895,-0.0499 -0.44087,-0.16993 -0.5376,-0.26666 -0.19701,-0.19701 -0.70771,-0.12155 -1.18225,0.1747 -0.26351,0.16451 -0.30922,0.16135 -0.38124,-0.0263 -0.0496,-0.12926 -0.17866,-0.18793 -0.32766,-0.14897 -0.1352,0.0354 -0.24582,0.002 -0.24582,-0.0738 0,-0.18947 -0.41374,-0.48793 -0.6835,-0.49304 -0.1218,-0.002 -0.37589,-0.19727 -0.56464,-0.43324 -0.33237,-0.41552 -0.34931,-0.42097 -0.53762,-0.17279 -0.19193,0.25296 -0.19443,0.25288 -0.19443,-0.007 0,-0.32698 -0.24171,-0.57968 -0.55445,-0.57968 -0.31126,0 -0.29982,-0.11481 0.0484,-0.48545 l 0.28601,-0.30444 -0.41802,-0.0836 c -0.48889,-0.0978 -0.52527,-0.28173 -0.13795,-0.69747 0.22817,-0.24491 0.25365,-0.3535 0.13752,-0.58595 -0.0784,-0.15693 -0.20558,-0.53357 -0.28263,-0.83699 -0.1171,-0.46114 -0.21443,-0.5762 -0.59321,-0.7012 -0.4131,-0.13634 -0.44202,-0.17874 -0.32747,-0.48004 0.18519,-0.48707 0.15293,-0.6174 -0.22007,-0.88922 -0.22142,-0.16135 -0.3821,-0.2012 -0.46739,-0.11591 -0.17362,0.17362 -0.77611,-0.10699 -0.73546,-0.34254 0.0207,-0.11976 -0.1601,-0.1922 -0.56364,-0.22589 -0.75619,-0.0631 -1.02159,0.0195 -1.12669,0.35062 -0.0566,0.17821 -0.17765,0.25164 -0.36979,0.22427 -0.23799,-0.0339 -0.28569,-0.12802 -0.28569,-0.5637 0,-0.51428 -0.01,-0.52468 -0.57667,-0.62285 -0.31716,-0.0549 -0.82211,-0.21747 -1.12211,-0.36124 -0.29999,-0.14377 -0.70825,-0.32221 -0.90725,-0.39653 -0.23382,-0.0873 -0.44331,-0.32323 -0.5922,-0.6669 -0.14427,-0.333 -0.31743,-0.53178 -0.46327,-0.53178 -0.12808,0 -0.23288,0.0525 -0.23288,0.11662 0,0.0641 -0.12181,0.14847 -0.27069,0.1874 -0.18702,0.0489 -0.26228,0.16587 -0.24349,0.37843 0.0875,0.9906 -0.12021,1.11402 -1.27427,0.75695 -0.8861,-0.27417 -0.97856,-0.22013 -0.9818,0.5738 -0.002,0.41164 -0.048,0.49505 -0.27473,0.49505 -0.14999,0 -0.37895,0.0569 -0.50881,0.12636 -0.18867,0.10097 -0.3071,0.0373 -0.58939,-0.31673 -0.40442,-0.50724 -0.88367,-0.67611 -1.29461,-0.45618 -0.23315,0.12478 -0.3143,0.11031 -0.45417,-0.081 -0.15239,-0.20841 -0.21594,-0.21392 -0.60451,-0.0524 -0.23881,0.0993 -0.52908,0.16464 -0.64502,0.1453 -0.11595,-0.0194 -0.28522,0.0545 -0.37615,0.16404 -0.13368,0.16107 -0.128,0.23655 0.0297,0.39423 0.16884,0.16884 0.22822,0.16989 0.44216,0.008 0.43632,-0.33042 0.80824,-0.23886 1.04349,0.25689 0.20697,0.43618 1.09129,0.99971 1.56876,0.99971 0.15627,0 0.60516,0.66575 0.60516,0.89752 0,0.0357 -0.41453,0.0301 -0.92119,-0.0124 -0.99679,-0.0836 -1.14825,-0.006 -1.07603,0.55267 0.0339,0.26249 -1.3e-4,0.29805 -0.2021,0.21091 -0.1336,-0.0576 -0.43599,-0.13196 -0.67196,-0.16514 -0.24895,-0.035 -0.42904,-0.13724 -0.42904,-0.24354 0,-0.10075 -0.19307,-0.26506 -0.42904,-0.36512 -0.3488,-0.1479 -0.46283,-0.15034 -0.60968,-0.013 -0.0994,0.0929 -0.14087,0.23322 -0.0923,0.31185 0.1527,0.24708 1.17953,0.89387 1.59303,1.00344 0.3769,0.0999 0.38131,0.10881 0.0912,0.185 -0.16765,0.044 -0.29983,0.13947 -0.29372,0.21207 0.0119,0.14129 0.45917,0.13815 1.16839,-0.008 0.36415,-0.0751 0.49954,-0.0312 0.80447,0.26091 0.20165,0.19319 0.58383,0.41123 0.84929,0.48453 0.38814,0.10717 0.48266,0.19668 0.48266,0.45709 0,0.17811 -0.0743,0.32317 -0.16502,0.32237 -0.55626,-0.005 -1.17168,-0.20239 -1.49416,-0.47949 -0.24114,-0.20721 -0.44445,-0.28493 -0.57759,-0.2208 -0.42895,0.2066 -1.29976,0.0793 -2.34737,-0.34326 -1.10111,-0.4441 -1.53261,-0.46023 -1.46165,-0.0546 0.0472,0.26963 -0.3585,0.4078 -1.25207,0.42642 -0.76002,0.0159 -0.97164,0.31049 -0.49829,0.69379 0.37467,0.30339 0.49754,0.30597 0.59196,0.0124 0.0569,-0.17687 0.24553,-0.23939 0.80463,-0.26672 1.05117,-0.0514 1.23563,0.0828 1.15061,0.83714 -0.0622,0.55134 -0.0327,0.63988 0.30141,0.90629 l 0.37029,0.29526 -0.27583,0.27583 c -0.16761,0.16761 -0.24927,0.37742 -0.20812,0.53476 0.11093,0.42419 -0.15825,0.44029 -0.5227,0.0313 -0.23813,-0.26726 -0.42228,-0.36074 -0.6126,-0.31096 -0.20765,0.0543 -0.27214,0.009 -0.27214,-0.1921 0,-0.39385 -0.29723,-0.56849 -1.11042,-0.65242 -0.6943,-0.0717 -0.73654,-0.0971 -0.80759,-0.48645 -0.0412,-0.22596 -0.0572,-0.55935 -0.0356,-0.74087 0.0364,-0.30479 0.002,-0.32717 -0.44514,-0.29263 -0.51174,0.0395 -0.76672,-0.15908 -0.52046,-0.40534 0.23539,-0.2354 0.17053,-0.37985 -0.15012,-0.33431 -0.22275,0.0316 -0.29854,0.13172 -0.30306,0.40025 -0.009,0.53049 -0.0867,0.53439 -0.65068,0.0326 -0.75259,-0.66955 -1.12083,-0.59093 -0.83082,0.17739 0.13222,0.35031 0.11897,0.4478 -0.0927,0.68169 -0.2426,0.26806 -0.24072,0.27945 0.10556,0.64089 0.42235,0.44084 0.43125,0.50019 0.0885,0.58981 -0.17666,0.0462 -0.26403,0.18007 -0.26403,0.40457 0,0.31575 -0.0234,0.32736 -0.39749,0.19696 -0.21862,-0.0762 -0.56882,-0.34643 -0.77823,-0.60048 -0.29404,-0.35672 -0.44404,-0.44183 -0.65862,-0.37372 -0.22131,0.0702 -0.27786,0.0326 -0.27786,-0.18474 0,-0.15011 -0.0594,-0.27293 -0.13202,-0.27293 -0.0726,0 -0.13201,0.0658 -0.13201,0.14614 0,0.0804 -0.0833,0.11418 -0.18504,0.0751 -0.12951,-0.0497 -0.21178,0.0715 -0.27415,0.404 -0.0907,0.48364 -0.60401,1.27871 -1.03101,1.59702 -0.12991,0.0969 -0.41779,0.49784 -0.63973,0.89109 -0.22193,0.39325 -0.45536,0.715 -0.51871,0.715 -0.0634,0 -0.19689,-0.15591 -0.29674,-0.34648 l -0.18153,-0.34647 -0.26681,0.37948 c -0.14674,0.20871 -0.34666,0.6171 -0.44427,0.90753 -0.2517,0.74892 -0.3784,0.89707 -0.60578,0.70836 -0.12982,-0.10774 -0.17499,-0.40567 -0.15276,-1.00765 0.028,-0.75846 -0.003,-0.88299 -0.27905,-1.10619 -0.27983,-0.22659 -0.33269,-0.23152 -0.5335,-0.0498 -0.12259,0.11095 -0.25134,0.17328 -0.28611,0.13851 -0.0348,-0.0348 -0.006,-0.48777 0.0645,-1.00667 0.0929,-0.6864 0.0835,-1.11612 -0.0347,-1.57719 -0.14071,-0.54903 -0.13315,-0.67842 0.0566,-0.96801 0.30564,-0.46646 0.14039,-0.65489 -0.4991,-0.56911 -0.40348,0.0541 -0.68155,0.2211 -1.171,0.70319 -0.59992,0.59089 -0.64201,0.61097 -0.6439,0.30715 -0.004,-0.58706 -0.11964,-0.63464 -1.46151,-0.59951 -1.32064,0.0346 -1.57276,0.10053 -1.57276,0.41139 0,0.13836 0.164,0.18208 0.62706,0.16713 0.34488,-0.0111 0.70132,-0.0765 0.79208,-0.14532 0.26057,-0.19751 0.53241,0.12477 0.50906,0.60353 -0.0169,0.34641 -0.11222,0.47507 -0.51114,0.68985 -0.31064,0.16726 -0.55959,0.43338 -0.67921,0.72608 -0.10387,0.25412 -0.33648,0.65907 -0.51693,0.89989 l -0.32809,0.43785 -0.0909,-0.41377 c -0.05,-0.22757 -0.17438,-0.44581 -0.27645,-0.48497 -0.24249,-0.0931 -0.23658,-0.36434 0.0125,-0.57102 0.28143,-0.23356 0.2465,-0.37961 -0.13201,-0.55207 -0.33165,-0.15111 -0.44414,-0.54994 -0.19802,-0.70205 0.22353,-0.13815 0.16198,-0.9901 -0.0715,-0.9901 -0.11195,0 -0.33107,-0.11881 -0.48694,-0.26402 -0.15587,-0.14522 -0.35794,-0.26403 -0.44904,-0.26403 -0.19391,0 -0.57665,0.50726 -0.57665,0.76425 0,0.25296 -0.66724,1.09508 -0.80179,1.01193 -0.0618,-0.0382 -0.06,-0.20098 0.004,-0.36175 0.064,-0.16078 0.20771,-0.59259 0.3193,-0.95959 0.11158,-0.36699 0.24153,-0.76798 0.28877,-0.89108 0.0509,-0.13254 0.0223,-0.22382 -0.07,-0.22382 -0.17651,0 -1.36484,1.26137 -1.82965,1.9421 -0.24719,0.36201 -0.34346,0.41957 -0.49349,0.29506 -0.29787,-0.24722 -0.40072,0.23338 -0.14322,0.66929 0.21359,0.36159 0.20884,0.37954 -0.24426,0.92186 -0.25415,0.3042 -0.4621,0.68481 -0.4621,0.84581 0,0.25816 -0.61275,0.87042 -0.87112,0.87042 -0.0494,0 -0.0542,-0.30012 -0.0108,-0.66693 0.083,-0.70112 -0.19895,-1.57729 -0.50763,-1.57729 -0.0839,0 -0.40874,0.60891 -0.72191,1.35313 -0.618,1.46861 -0.7807,1.84792 -1.50323,3.50474 -0.26276,0.60253 -0.47775,1.12233 -0.47775,1.15511 0,0.13715 0.44486,0.0422 0.95338,-0.2035 0.29953,-0.14471 0.56889,-0.23882 0.59859,-0.20912 0.0297,0.0297 -0.0963,0.22236 -0.27994,0.42813 -0.31295,0.35062 -0.89877,0.71095 -1.443,0.88757 -0.25532,0.0829 -0.62111,0.82757 -0.62111,1.2645 0,0.21858 0.0856,0.26827 0.46205,0.26827 0.56397,0 0.57416,0.10104 0.0681,0.67518 l -0.39393,0.44693 -0.003,1.78217 c -0.003,1.71482 0.18347,5.32044 0.59991,11.61714 0.10804,1.63366 0.26234,4.51485 0.34288,6.40263 0.0805,1.88779 0.18837,3.47906 0.23962,3.53617 0.0513,0.0571 0.41476,-0.22964 0.80782,-0.6372 0.83428,-0.86509 1.25766,-1.11679 1.87841,-1.11679 0.38189,0 1.0017,-0.32332 1.27848,-0.66689 0.10573,-0.13125 0.93687,-0.38922 1.25399,-0.38922 0.15977,0 0.84523,-0.33443 1.52325,-0.74317 2.02404,-1.2202 1.88413,-1.19141 3.65595,-0.75215 0.47013,0.11654 0.95954,-0.0607 0.95954,-0.34758 0,-0.13955 -0.0623,-0.29222 -0.13843,-0.33927 -0.0952,-0.0588 -0.0918,-0.14173 0.0109,-0.26548 0.0846,-0.10194 0.10875,-0.30782 0.0557,-0.47498 -0.09,-0.28366 -0.10059,-0.28553 -0.27397,-0.0484 -0.17386,0.23777 -0.19263,0.23511 -0.52344,-0.0743 -0.37654,-0.35221 -0.63891,-0.77099 -0.54307,-0.86684 0.0337,-0.0337 0.2844,0.0902 0.55717,0.27534 0.27277,0.18511 0.57677,0.33656 0.67554,0.33656 0.0988,0 0.1796,0.0594 0.1796,0.13201 0,0.0726 0.0891,0.13201 0.19802,0.13201 0.28303,0 0.24467,-0.20891 -0.099,-0.5392 -0.25958,-0.24947 -0.26374,-0.26829 -0.033,-0.14927 0.14522,0.0749 0.40693,0.28896 0.58159,0.4757 0.22503,0.24059 0.40354,0.31794 0.61266,0.26545 0.1623,-0.0407 0.33161,-0.015 0.37624,0.0572 0.0446,0.0722 0.34984,0.26137 0.67825,0.42036 l 0.59711,0.28905 0.92055,-0.30179 c 0.62159,-0.20378 0.90974,-0.36329 0.8873,-0.49114 -0.0183,-0.10415 0.0714,-0.25665 0.1993,-0.33889 0.19247,-0.12375 0.28359,-0.0855 0.52879,0.22175 0.20602,0.25819 0.36639,0.34436 0.52653,0.28291 0.32336,-0.12408 0.28661,-0.41969 -0.0667,-0.53686 -0.2701,-0.0896 -0.25553,-0.10735 0.16084,-0.19615 0.45987,-0.0981 0.92827,0.044 0.92827,0.28149 0,0.0701 0.11768,0.12737 0.26151,0.12737 0.17637,0 0.28959,-0.1182 0.34776,-0.36303 0.10886,-0.45821 0.42283,-0.82509 0.70609,-0.82509 0.12008,0 0.32904,-0.081 0.46435,-0.17989 0.23897,-0.17475 0.23799,-0.19646 -0.0344,-0.75907 l -0.28037,-0.57918 0.42575,0.48248 c 0.33063,0.37469 0.56117,0.50278 1.03192,0.57338 0.56855,0.0853 0.62366,0.0663 0.88796,-0.30484 0.15498,-0.21767 0.28179,-0.48729 0.28179,-0.59918 0,-0.1119 0.16337,-0.28153 0.36304,-0.37697 0.24685,-0.11799 0.40075,-0.32574 0.4809,-0.64916 0.16541,-0.66748 0.0205,-1.07218 -0.4693,-1.31083 -0.23132,-0.11272 -0.46042,-0.29093 -0.50911,-0.39604 -0.0487,-0.10512 -0.1529,-0.31716 -0.23159,-0.47121 -0.0911,-0.17833 -0.0972,-0.32598 -0.0167,-0.40641 0.0804,-0.0805 0.0362,-0.24247 -0.12179,-0.446 -0.13647,-0.1758 -0.31381,-0.44458 -0.39409,-0.59726 -0.13212,-0.2513 -0.11521,-0.27175 0.17834,-0.21563 0.35575,0.068 0.43301,-0.17904 0.19505,-0.62367 -0.0939,-0.17543 -0.0758,-0.28581 0.066,-0.40352 0.16296,-0.13525 0.22715,-0.0856 0.38834,0.30017 0.10622,0.25419 0.28444,0.49722 0.39605,0.54005 0.29362,0.11267 0.25071,0.57093 -0.0611,0.65246 -0.15489,0.0405 -0.26403,0.18008 -0.26403,0.33765 0,0.34042 0.22243,0.48303 0.45384,0.29098 0.2341,-0.1943 0.60646,0.16034 0.59184,0.56367 -0.006,0.15818 -0.0404,0.21335 -0.077,0.12259 -0.10398,-0.25771 -0.44062,-0.19355 -0.44062,0.084 0,0.15459 0.17448,0.33178 0.46027,0.46739 0.25314,0.12012 0.52256,0.33481 0.5987,0.47708 0.0761,0.14227 0.24926,0.25868 0.3847,0.25868 0.17586,0 0.27958,0.14153 0.36276,0.49505 0.10003,0.42514 0.18484,0.51209 0.60049,0.61571 0.38305,0.0955 0.49229,0.19164 0.52369,0.46092 0.0548,0.46964 0.38596,0.48931 0.86351,0.0513 0.4875,-0.44714 0.95835,-0.73961 0.95835,-0.59526 0,0.0582 -0.29865,0.45905 -0.66367,0.89076 -0.36502,0.43169 -0.64662,0.87345 -0.62578,0.98164 0.0208,0.10821 0.20805,0.2566 0.41602,0.32973 0.35072,0.12334 0.41902,0.0878 0.94245,-0.49033 0.43507,-0.48056 0.58247,-0.57602 0.64357,-0.41679 0.0436,0.11358 0.0448,0.34384 0.003,0.51166 -0.0421,0.16783 -0.0124,0.34484 0.0661,0.39334 0.21238,0.13126 0.17256,0.46866 -0.0553,0.46866 -0.25823,0 -0.25689,0.38172 0.002,0.48096 0.10983,0.0421 0.28729,0.004 0.39436,-0.0849 0.10706,-0.0889 0.28763,-0.12587 0.40127,-0.0823 0.28853,0.11074 0.81171,-0.26389 0.9088,-0.65074 0.0784,-0.31236 0.3401,-0.45938 0.3401,-0.19108 0,0.0726 0.17421,0.13202 0.38714,0.13202 0.2757,0 0.41214,-0.0788 0.47397,-0.27357 0.0562,-0.17702 0.15842,-0.2461 0.28966,-0.19575 0.11155,0.0428 0.28584,0.009 0.3873,-0.0753 0.3269,-0.27132 0.36652,0.007 0.06,0.42196 -0.23695,0.3205 -0.26528,0.44085 -0.13947,0.59244 0.21027,0.25336 0.51155,0.24025 0.81628,-0.0355 0.21178,-0.19165 0.26707,-0.19732 0.36588,-0.0374 0.0704,0.11389 0.0613,0.25482 -0.0231,0.35648 -0.10397,0.12525 -0.0658,0.1954 0.1498,0.27515 0.27412,0.1014 0.2645,0.1204 -0.18295,0.36138 -0.4608,0.24815 -0.61326,0.45832 -0.33248,0.45832 0.0769,0 0.10309,0.0594 0.0582,0.13201 -0.049,0.0794 0.12321,0.13201 0.43195,0.13201 0.41077,0 0.5484,0.0651 0.68776,0.32554 0.14128,0.26398 0.14244,0.36382 0.006,0.52805 -0.2103,0.25341 -1.40157,0.27568 -1.64646,0.0308 -0.10418,-0.10417 -0.56821,-0.18438 -1.17972,-0.2039 -0.97768,-0.0312 -1.01192,-0.0218 -1.13897,0.31234 -0.19077,0.50178 -0.17062,0.56408 0.25339,0.78334 0.43986,0.22745 0.43178,0.59758 -0.0175,0.80331 -0.39395,0.18037 -0.42917,0.79325 -0.0607,1.05593 0.26874,0.19158 0.27234,0.21416 0.0541,0.33925 -0.12859,0.0737 -0.1931,0.19984 -0.14336,0.28033 0.0584,0.0945 0.0131,0.11664 -0.12789,0.0625 -0.15749,-0.0604 -0.24109,0.007 -0.3,0.2416 -0.10482,0.41766 -0.35615,0.41564 -0.58109,-0.005 -0.22494,-0.42029 -0.39604,-0.4223 -0.39604,-0.005 0,0.18261 0.1082,0.3833 0.24659,0.45736 0.33958,0.18174 0.47302,0.91284 0.21802,1.19461 -0.10859,0.12 -0.23528,0.40735 -0.28152,0.63856 -0.0902,0.45106 -0.3151,0.57835 -0.3151,0.17836 0,-0.366 -0.13094,-0.42484 -0.46231,-0.20771 -0.26667,0.17472 -0.32265,0.17396 -0.50349,-0.007 -0.1119,-0.11191 -0.29941,-0.20346 -0.4167,-0.20346 -0.12829,0 -0.19778,-0.0899 -0.17444,-0.22574 0.0238,-0.1383 -0.10184,-0.2945 -0.32425,-0.40325 -0.19967,-0.0976 -0.36303,-0.2273 -0.36303,-0.28818 0,-0.13665 0.3325,-0.27095 0.67086,-0.27095 0.1821,0 0.25323,-0.0927 0.25323,-0.33003 0,-0.37963 -0.12867,-0.40681 -0.64988,-0.13728 -0.40335,0.20858 -0.53824,0.15732 -0.53824,-0.20451 0,-0.14796 0.16754,-0.28708 0.46326,-0.38468 0.2548,-0.0841 0.42951,-0.20751 0.38825,-0.27427 -0.11967,-0.19363 -0.80343,-0.14035 -0.98352,0.0767 -0.0904,0.10891 -0.29092,0.19802 -0.44563,0.19802 -0.31836,0 -1.00651,0.6635 -1.00651,0.97045 0,0.30313 -0.2817,0.41728 -0.41998,0.1702 -0.17419,-0.31126 -0.90606,-0.28848 -0.98956,0.0308 -0.0356,0.13604 -0.24144,0.37804 -0.45748,0.53777 l -0.3928,0.2904 -0.15316,-0.40576 c -0.20023,-0.53047 -0.38438,-0.51181 -0.88147,0.0893 -0.33821,0.40897 -0.49424,0.49504 -0.89748,0.49504 -0.35936,0 -0.5002,0.0609 -0.534,0.23103 -0.0252,0.12706 0.0329,0.23102 0.12923,0.23102 0.16895,0 0.90034,0.68743 0.90034,0.84623 0,0.0428 -0.0743,0.0782 -0.16502,0.0787 -0.0908,0 -0.27086,0.18677 -0.40022,0.41403 -0.22284,0.39146 -0.22323,0.42642 -0.007,0.6649 0.217,0.23978 0.21446,0.25519 -0.0535,0.32527 -0.2415,0.0632 -0.26311,0.12145 -0.1527,0.41186 0.18697,0.49177 -0.0821,0.71034 -0.29611,0.24059 -0.1132,-0.24845 -0.23704,-0.3397 -0.40235,-0.29647 -0.20033,0.0524 -0.23883,-0.0207 -0.23883,-0.45324 0,-0.38691 0.0533,-0.51569 0.21342,-0.51569 0.1569,0 0.19233,-0.0787 0.13381,-0.29703 -0.0438,-0.16337 -0.0804,-0.37129 -0.0814,-0.46205 -0.003,-0.31007 -0.20773,-0.16558 -0.36861,0.26065 l -0.16067,0.42566 -0.28266,-0.28265 c -0.34921,-0.34921 -0.24511,-0.73559 0.18218,-0.67613 0.23958,0.0333 0.30612,-0.0298 0.33977,-0.32234 0.0537,-0.46669 -0.25914,-0.59853 -0.71359,-0.30076 -0.18683,0.12241 -0.41965,0.19188 -0.51739,0.15437 -0.0977,-0.0375 -0.24872,0.0174 -0.33553,0.12198 -0.24797,0.29879 -0.37066,0.22693 -0.46424,-0.27186 -0.0496,-0.26464 -0.16501,-0.46205 -0.27001,-0.46205 -0.10083,0 -0.18332,0.0464 -0.18332,0.10308 0,0.0567 -0.1794,0.17077 -0.39865,0.25354 -0.38341,0.14471 -0.40612,0.13259 -0.59406,-0.31721 -0.26849,-0.64269 -0.25218,-0.69955 0.20064,-0.69955 0.41168,0 0.49452,-0.11274 0.25723,-0.35004 -0.15273,-0.15272 -0.74717,-0.0825 -0.86103,0.10177 -0.25474,0.41217 -1.24438,-0.41593 -1.24438,-1.04125 0,-0.21807 -0.11476,-0.48958 -0.26403,-0.62467 -0.14521,-0.13142 -0.26403,-0.34279 -0.26403,-0.4697 0,-0.12692 -0.22226,-0.40907 -0.49391,-0.627 -0.48586,-0.38977 -0.48993,-0.40064 -0.24921,-0.66664 0.24051,-0.26575 0.23845,-0.27196 -0.12007,-0.36195 -0.20063,-0.0503 -0.54888,-0.027 -0.77389,0.0518 -0.22501,0.0788 -0.62986,0.18288 -0.89966,0.23118 -0.31106,0.0557 -0.51903,0.17756 -0.56838,0.33306 -0.0473,0.14901 -0.74759,0.58492 -1.78502,1.11111 -0.93895,0.47624 -1.92976,1.01694 -2.2018,1.20154 -0.27203,0.18461 -0.69199,0.42932 -0.93323,0.54379 -0.31859,0.15118 -0.54948,0.42886 -0.84368,1.01464 -0.27847,0.55443 -0.75183,1.1405 -1.51462,1.87526 -0.84546,0.81438 -1.16695,1.2258 -1.35071,1.72855 -0.13264,0.36289 -0.49161,1.0286 -0.79772,1.47936 -0.55368,0.81533 -0.55731,0.82854 -0.70169,2.55429 -0.0993,1.18658 -0.10216,1.74904 -0.009,1.78005 0.0748,0.0249 0.24376,0.12413 0.37546,0.22044 0.22882,0.16731 0.22671,0.186 -0.0473,0.42062 -0.41691,0.35696 -0.36378,0.82773 0.1423,1.26096 l 0.42904,0.36729 -0.35999,0.005 c -0.40158,0.006 -0.84129,0.53272 -0.71639,0.8582 0.0411,0.10714 0.0179,0.22991 -0.0515,0.27283 -0.19943,0.12325 -0.14696,0.45848 0.0718,0.45848 0.23002,0 0.26363,0.2079 0.0545,0.33715 -0.21286,0.13155 0.079,0.37593 0.33266,0.27859 0.12205,-0.0468 0.20689,-0.23642 0.20689,-0.46231 0,-0.3372 0.0566,-0.39209 0.47433,-0.45988 0.69966,-0.11355 1.07585,0.33407 0.99242,1.18084 -0.0202,0.20457 -0.92875,-0.22849 -0.9344,-0.44534 -0.007,-0.27879 -0.26832,-0.18246 -0.26832,0.099 0,0.14521 0.0522,0.26402 0.11599,0.26402 0.0638,0 0.18982,0.17822 0.28004,0.39604 0.17798,0.42968 0.20681,0.44162 0.9901,0.41053 0.83046,-0.033 0.97048,0.13462 0.58515,0.70036 -0.34516,0.50676 -0.57506,0.58029 -0.90479,0.2894 -0.26343,-0.23241 -1.79681,-0.41891 -1.91199,-0.23254 -0.11512,0.18627 0.17724,0.34117 0.58525,0.31008 0.46,-0.035 0.85656,0.26609 0.74235,0.56371 -0.071,0.1851 -0.18154,0.21415 -0.55085,0.14487 -0.45668,-0.0857 -0.46161,-0.0817 -0.42765,0.34853 0.0287,0.36339 -0.0146,0.44216 -0.26268,0.47745 -0.16547,0.0236 -0.3035,0.14053 -0.31164,0.26412 -0.0659,0.99982 0.28766,1.78124 0.96575,2.13467 0.52994,0.27623 0.76503,0.25718 0.76503,-0.062 0,-0.29031 0.77921,-0.40078 0.97156,-0.13773 0.11592,0.15853 0.26093,0.19493 0.51876,0.13023 0.38559,-0.0968 0.42367,-0.2261 0.36977,-1.25564 -0.0361,-0.68904 0.23536,-1.10527 0.8049,-1.23431 0.34257,-0.0776 0.35459,-0.0611 0.34937,0.48112 -0.003,0.30882 -0.0936,0.66103 -0.20132,0.78269 -0.21715,0.24516 -0.19124,0.65289 0.0465,0.73204 0.33187,0.1105 0.70452,-0.52051 0.71409,-1.20916 0.005,-0.3675 0.0557,-0.78698 0.11248,-0.93219 0.0999,-0.25562 0.1062,-0.25458 0.19763,0.033 0.0519,0.16336 0.0554,0.42009 0.008,0.57052 -0.054,0.17022 -0.007,0.3621 0.12557,0.50814 0.1957,0.21625 0.19168,0.28029 -0.0512,0.81563 -0.35053,0.77259 -0.34459,0.95847 0.0276,0.86514 0.26938,-0.0676 0.29591,-0.0289 0.28496,0.41473 -0.0283,1.14557 -0.39342,2.36765 -0.74032,2.47775 -0.15884,0.0504 -0.2377,0.2059 -0.2377,0.46863 0,0.21625 -0.14852,0.67217 -0.33004,1.01315 -0.18151,0.34099 -0.33003,0.72735 -0.33003,0.8586 0,0.13124 -0.0944,0.42128 -0.2099,0.64452 -0.18657,0.36079 -0.18789,0.4279 -0.0119,0.60391 0.17602,0.17603 0.22135,0.15292 0.40792,-0.20787 0.11544,-0.22324 0.2099,-0.53301 0.2099,-0.68839 0,-0.15537 0.17821,-0.43888 0.39604,-0.63001 0.21782,-0.19114 0.39603,-0.42063 0.39603,-0.50999 0,-0.10657 0.19304,-0.15494 0.56106,-0.14057 0.30858,0.012 0.71769,-0.0252 0.90914,-0.0827 0.32312,-0.0971 0.36459,-0.0614 0.57824,0.49805 0.15729,0.41184 0.20332,0.77045 0.1454,1.13266 -0.10095,0.63134 -0.005,0.65968 0.4827,0.14282 0.49567,-0.52517 0.73505,-1.73357 0.43433,-2.19252 -0.11362,-0.1734 -0.20658,-0.58069 -0.20658,-0.90508 0,-0.44497 -0.0567,-0.60835 -0.23102,-0.66528 -0.28542,-0.0933 -0.7498,-0.79773 -0.87569,-1.32846 -0.0517,-0.21782 -0.12483,-0.5 -0.16258,-0.62706 -0.0445,-0.14985 0.003,-0.23103 0.13502,-0.23103 0.16405,0 0.17861,-0.0658 0.0749,-0.33862 -0.17401,-0.45767 -0.16235,-0.84949 0.0253,-0.84949 0.0847,0 0.11678,0.0372 0.0713,0.0827 -0.0455,0.0455 0.10796,0.20965 0.34103,0.36477 0.52301,0.34812 0.90923,1.10916 0.99012,1.95102 0.0406,0.42288 0.12235,0.63778 0.24251,0.63778 0.0997,0 0.18122,0.10892 0.18122,0.24202 0,0.39705 0.173,0.44957 0.4182,0.12697 0.22562,-0.29684 0.22903,-0.28694 0.16849,0.4891 -0.10708,1.37268 -0.10989,1.44005 -0.084,2.0132 0.021,0.46459 0.0708,0.56105 0.28938,0.56105 0.14522,0 0.26403,-0.0851 0.26403,-0.18912 0,-0.10401 0.11577,-0.22587 0.25727,-0.27079 0.1415,-0.0449 0.28685,-0.18257 0.323,-0.30592 0.13382,-0.45657 0.12697,-1.46066 -0.0111,-1.63175 -0.0784,-0.0972 -0.18142,-0.35849 -0.22886,-0.58072 -0.0664,-0.3111 -0.0244,-0.46008 0.18278,-0.64753 0.14796,-0.13391 0.26902,-0.38277 0.26902,-0.55304 0,-0.41144 0.15951,-0.39044 0.36304,0.0478 0.19461,0.41903 0.21798,1.25279 0.0401,1.43139 -0.0786,0.0789 -0.0371,0.24154 0.11179,0.43862 l 0.23667,0.31323 0.29024,-0.31154 c 0.15963,-0.17134 0.35354,-0.56297 0.43092,-0.87028 0.0774,-0.30731 0.22321,-0.62722 0.32405,-0.71092 0.10085,-0.0837 0.18335,-0.25235 0.18335,-0.37479 0,-0.12245 0.0799,-0.33191 0.17757,-0.46547 0.1625,-0.22223 0.18442,-0.20064 0.25826,0.2544 0.0628,0.38703 -0.007,0.69072 -0.31504,1.37003 -0.21766,0.48003 -0.5011,0.99281 -0.62988,1.1395 -0.12877,0.14669 -0.34008,0.51217 -0.46958,0.81216 -0.19009,0.44035 -0.20549,0.60141 -0.0799,0.83606 0.12703,0.23736 0.11495,0.33549 -0.0659,0.53535 -0.27403,0.3028 -0.14517,0.54858 0.24153,0.46066 0.39134,-0.089 0.70616,0.18333 0.84582,0.73163 0.0682,0.26779 0.23562,0.50886 0.4066,0.58552 0.17549,0.0787 0.29064,0.24867 0.29064,0.42904 0,0.56767 0.33543,0.29543 0.76072,-0.61738 0.23475,-0.50387 0.48636,-0.95293 0.55912,-0.9979 0.0728,-0.045 0.1323,-0.18023 0.1323,-0.30058 0,-0.36333 0.42162,-1.34953 0.54449,-1.2736 0.063,0.039 0.0329,0.23084 -0.067,0.42639 -0.0999,0.19554 -0.22425,0.56346 -0.27633,0.81758 -0.0521,0.25413 -0.20493,0.65373 -0.33966,0.888 -0.24114,0.41931 -0.24074,0.42891 0.0258,0.61562 0.31426,0.22012 0.64076,0.79914 0.64076,1.13634 0,0.19476 0.28496,0.38235 0.68052,0.448 0.0476,0.008 0.27033,-0.14948 0.49505,-0.3497 0.28522,-0.25414 0.40859,-0.48374 0.40859,-0.76044 0,-0.24104 0.18815,-0.66744 0.48013,-1.08809 0.73418,-1.05771 0.70571,-1.03225 0.98587,-0.88231 0.2489,0.13322 0.35175,0.52064 0.1382,0.52064 -0.0616,0 -0.21707,0.23308 -0.34553,0.51796 -0.2843,0.63046 -0.1428,1.54096 0.23465,1.5099 0.23635,-0.0195 0.30831,0.27997 0.0985,0.40966 -0.13699,0.0847 -0.34208,1.18981 -0.28873,1.55587 0.0185,0.12706 -0.0474,0.23102 -0.14657,0.23102 -0.0991,0 -0.28137,0.28218 -0.40498,0.62706 -0.25609,0.71447 -0.26565,0.81802 -0.0997,1.0802 0.0999,0.15784 0.1965,0.13646 0.58461,-0.12948 0.25571,-0.17522 0.49604,-0.43751 0.53405,-0.58286 0.092,-0.3519 0.30658,-0.1253 0.37043,0.39122 l 0.049,0.39603 0.18954,-0.39603 c 0.10425,-0.21783 0.22478,-0.42575 0.26786,-0.46205 0.0431,-0.0363 0.11668,-0.16997 0.16356,-0.29703 0.0469,-0.12706 0.19631,-0.23102 0.33206,-0.23102 0.25428,0 0.29958,-0.23991 0.63575,-3.36633 0.0468,-0.43564 0.138,-0.93324 0.20257,-1.10578 0.0646,-0.17254 0.20736,-0.99995 0.31731,-1.83869 0.19973,-1.52358 0.43071,-2.23686 0.88394,-2.72955 0.13229,-0.14383 0.3947,-0.5766 0.58312,-0.96172 0.31575,-0.64536 0.3369,-0.79548 0.27007,-1.91671 -0.0474,-0.79509 -0.20216,-1.6281 -0.44679,-2.40463 -0.34027,-1.08015 -0.37325,-1.35605 -0.36292,-3.03629 0.0136,-2.20463 0.18761,-3.12949 0.8155,-4.33284 0.88996,-1.70562 2.0967,-2.68562 3.86561,-3.13926 1.13469,-0.29099 5.13903,-0.22481 7.65074,0.12643 3.83204,0.5359 4.59064,0.59118 5.7967,0.42246 0.61225,-0.0856 1.4743,-0.30629 1.91566,-0.4903 1.17446,-0.48966 2.37932,-0.55527 3.30413,-0.17992 1.18172,0.47963 1.9468,0.19283 2.76275,-1.03565 0.31996,-0.48172 0.75714,-1.05407 0.97151,-1.2719 0.70497,-0.71631 0.67736,-1.34082 -0.0949,-2.14521 -0.33707,-0.35111 -0.51301,-0.42904 -0.96861,-0.42904 -0.3824,0 -0.72132,-0.1097 -1.08241,-0.35037 -0.55545,-0.37021 -1.64513,-1.37341 -1.64681,-1.51612 -5.3e-4,-0.0464 0.20692,-0.12333 0.46105,-0.171 0.49441,-0.0927 0.60398,-0.29256 0.23754,-0.43318 -0.12348,-0.0474 -0.59765,-0.31285 -1.05372,-0.58992 -0.45607,-0.27706 -0.8605,-0.50376 -0.89875,-0.50376 -0.0382,0 -0.31555,-0.17822 -0.61625,-0.39604 -0.30069,-0.21782 -0.60163,-0.39604 -0.66874,-0.39604 -0.17239,0 -2.51042,-1.62071 -3.53472,-2.45023 -1.72474,-1.39679 -3.16011,-3.25395 -3.66692,-4.74447 -0.63766,-1.87534 -0.50005,-5.36055 0.21101,-5.34451 0.32665,0.007 0.44619,0.30861 0.5026,1.26659 0.0851,1.44452 0.29073,2.65922 0.53197,3.14197 0.42915,0.85881 1.62926,1.64768 1.62926,1.07097 0,-0.10725 -0.15438,-0.59734 -0.34306,-1.0891 -0.34577,-0.90118 -0.4706,-2.05716 -0.25909,-2.39925 0.18958,-0.3066 0.47014,0.21669 0.47014,0.87687 0,0.64193 0.3069,1.35435 0.58343,1.35435 0.133,0 0.20545,-0.3219 0.27483,-1.22112 0.19696,-2.55296 0.67953,-4.58573 1.08893,-4.58696 0.21949,0 0.20858,0.71976 -0.031,2.04571 -0.10495,0.58086 -0.19074,1.47194 -0.19065,1.98019 2.7e-4,1.59372 0.75887,5.12739 1.38427,6.44824 0.41358,0.87351 1.61905,2.22835 2.74744,3.08789 0.44517,0.3391 0.84142,0.66195 0.88055,0.71744 0.0713,0.10109 2.02401,1.03354 2.16442,1.03354 0.0411,0 0.0747,-0.0773 0.0747,-0.17171 0,-0.0944 -0.28218,-0.30689 -0.62706,-0.47209 -1.13035,-0.54145 -2.03371,-1.23971 -3.41246,-2.6377 -0.7759,-0.78672 -1.15214,-2.72509 -0.52893,-2.72509 0.18137,0 0.33945,0.21747 0.57577,0.79208 0.17917,0.43564 0.4231,0.99165 0.54206,1.23559 0.31012,0.63586 1.92372,2.08764 2.85438,2.5681 1.41593,0.73098 2.75615,1.2839 2.86009,1.17997 0.0558,-0.0558 -0.14045,-0.84355 -0.43616,-1.7505 -0.56418,-1.73036 -0.79201,-3.43423 -0.51175,-3.82722 0.24692,-0.34623 0.47767,0.15727 0.64918,1.41651 0.15498,1.13788 0.37178,2.01772 0.52925,2.14784 0.0439,0.0363 0.22237,0.33333 0.39652,0.66007 0.38926,0.73029 0.66181,1.0561 0.88349,1.0561 0.093,0 0.30112,0.23488 0.46246,0.52194 0.34382,0.61175 0.40292,0.64084 1.14561,0.56413 0.40522,-0.0419 0.60588,-0.13789 0.71283,-0.34113 0.20594,-0.3914 0.36689,-0.47656 0.90503,-0.47889 0.65812,-0.003 1.1307,-0.35388 1.95778,-1.45417 0.19102,-0.25412 0.38321,-0.49175 0.42709,-0.52805 0.23982,-0.19844 0.76101,-1.35358 0.83837,-1.85809 0.104,-0.67833 0.32793,-1.31022 0.46432,-1.31022 0.15186,0 0.40121,0.6404 0.40121,1.0304 0,0.19685 -0.17821,0.86187 -0.39603,1.47785 -0.21783,0.61597 -0.39604,1.16498 -0.39604,1.22003 0,0.18448 0.64325,0.10263 1.41418,-0.17993 1.35477,-0.49655 2.6913,-2.17813 3.29117,-4.14082 0.1556,-0.50912 0.46631,-1.43063 0.69046,-2.04779 0.49343,-1.35856 0.5052,-1.74646 0.0935,-3.08068 -0.43821,-1.42021 -0.51777,-2.14821 -0.34119,-3.12197 0.2546,-1.40407 0.75806,-1.87343 1.02872,-0.95905 0.25788,0.87123 0.80981,3.53065 0.89992,4.33614 0.0479,0.42864 0.12997,0.86044 0.18228,0.95955 0.14892,0.28211 0.54472,-0.22843 0.90639,-1.16914 0.28188,-0.73317 0.3431,-0.80437 0.66007,-0.76767 0.29756,0.0345 0.35532,0.11182 0.38952,0.52173 0.0245,0.29351 -0.0722,0.72041 -0.24795,1.09419 -0.31392,0.66784 -0.28447,0.83088 0.11179,0.6188 0.64531,-0.34536 1.08525,-1.68265 1.08805,-3.30733 0.003,-1.58638 0.41787,-2.30871 0.84839,-1.47616 0.15612,0.30189 0.20577,0.82198 0.20577,2.15539 v 1.75749 l -0.4526,0.65829 c -0.65893,0.95844 -1.62207,1.93085 -2.45169,2.47531 -0.81258,0.53327 -1.0229,0.76652 -2.05172,2.2754 -0.84664,1.24169 -0.91434,1.36837 -0.79502,1.48768 0.1205,0.1205 1.66086,-1.47573 2.09895,-2.17507 0.38397,-0.61296 0.75178,-0.8716 1.06732,-0.75052 0.14755,0.0566 0.18328,0.1792 0.12494,0.42858 -0.10893,0.46562 -0.67452,1.6076 -0.94994,1.91803 -0.29813,0.33601 -1.42739,1.14995 -2.03578,1.46734 -0.27227,0.14204 -0.49505,0.30416 -0.49505,0.36025 0,0.0561 -0.0583,0.10199 -0.12968,0.10199 -0.0713,0 -0.51792,0.23762 -0.99243,0.52805 -0.4745,0.29043 -0.88534,0.52805 -0.91297,0.52805 -0.0276,0 -0.75431,0.33252 -1.61483,0.73892 -0.86053,0.4064 -1.99529,0.9414 -2.52169,1.18888 -0.70338,0.3307 -0.95709,0.51769 -0.95709,0.70544 0,0.46784 0.26913,0.43123 1.0054,-0.1368 0.58653,-0.45251 0.94107,-0.60944 1.80923,-0.80087 1.33749,-0.29492 1.43334,-0.27045 1.23221,0.31461 -0.30543,0.88843 -0.97897,1.66837 -1.81884,2.10612 -0.38078,0.19848 -0.6984,0.25435 -1.2511,0.22007 l -0.74076,-0.0459 -0.23806,0.92409 c -0.13093,0.50825 -0.36228,1.21119 -0.51411,1.56209 -0.15183,0.35091 -0.27605,0.91764 -0.27605,1.25939 0,0.34177 -0.0822,0.94574 -0.18255,1.34219 -0.1004,0.39645 -0.21339,1.61189 -0.25109,2.701 -0.0663,1.91416 -0.0846,2.01762 -0.55008,3.1023 -0.67287,1.56799 -1.22463,2.6078 -1.74756,3.29338 -0.24631,0.32291 -0.57872,0.87241 -0.73869,1.22112 -0.15997,0.3487 -0.33576,0.63401 -0.39064,0.63401 -0.0549,0 -0.0998,0.0623 -0.0998,0.13835 0,0.29296 -0.9337,1.552 -1.80646,2.4359 -0.91095,0.92259 -2.17567,2.80608 -2.58837,3.85478 -0.12001,0.30495 -0.33628,1.23444 -0.4806,2.06553 -0.33806,1.94684 -0.51335,2.63432 -0.88915,3.48718 -0.16834,0.38206 -0.33818,1.03553 -0.37741,1.45215 -0.0392,0.41663 -0.0984,1.01351 -0.13154,1.32642 l -0.0602,0.56894 0.55961,-0.0757 c 0.38598,-0.0522 0.6358,-0.0161 0.80518,0.11633 0.23838,0.18637 0.23742,0.20345 -0.033,0.58321 -0.403,0.56597 -0.37136,0.83971 0.0845,0.73082 0.19967,-0.0477 0.43802,-0.14582 0.52968,-0.21806 z m 25.50987,-13.56161 c -0.17065,-0.11028 -0.16717,-0.12825 0.0252,-0.12999 0.12278,-0.001 0.25995,0.0574 0.30482,0.12999 0.10326,0.16708 -0.0715,0.16708 -0.33003,0 z m -56.76557,-28.04619 c 0,-0.1053 -0.0983,-0.24649 -0.21853,-0.31375 -0.19702,-0.11026 -0.19052,-0.14629 0.066,-0.36594 0.34295,-0.29364 0.37328,-0.60746 0.0535,-0.55377 -0.15725,0.0264 -0.24519,-0.0614 -0.27541,-0.27507 -0.0416,-0.29381 -0.014,-0.30816 0.43129,-0.22462 0.6043,0.11337 0.78085,0.0123 0.59271,-0.33921 -0.10914,-0.20392 -0.22325,-0.24751 -0.47959,-0.18318 -0.30117,0.0756 -0.32785,0.0526 -0.25498,-0.21944 0.0448,-0.16711 0.0822,-0.4154 0.0832,-0.55174 0.002,-0.21447 0.0719,-0.23669 0.52189,-0.16473 0.56425,0.0902 0.85146,-0.11403 0.51531,-0.36648 -0.2112,-0.15861 -0.1369,-0.78333 0.0849,-0.71383 0.0716,0.0224 0.15022,-0.0632 0.17469,-0.19023 0.0272,-0.14098 -0.0365,-0.23103 -0.16321,-0.23103 -0.11423,0 -0.20769,-0.0886 -0.20769,-0.19689 0,-0.10831 -0.11882,-0.27111 -0.26403,-0.3618 -0.30774,-0.19218 -0.35109,-0.49741 -0.0707,-0.49741 0.29062,0 0.52152,-0.50094 0.33468,-0.72607 -0.0989,-0.11921 -0.10817,-0.26301 -0.027,-0.42061 0.0678,-0.13169 0.0967,-0.31371 0.0642,-0.40447 -0.0913,-0.25476 0.0304,-0.1991 0.47693,0.21798 0.4646,0.434 0.55165,0.93713 0.16213,0.93713 -0.45592,0 -0.57602,0.32 -0.26737,0.71238 0.22038,0.28016 0.31654,0.32184 0.46272,0.20052 0.10149,-0.0842 0.18453,-0.26118 0.18453,-0.39322 0,-0.35441 0.27014,-0.45881 0.35431,-0.13692 0.0399,0.15251 0.125,0.27731 0.18914,0.27731 0.0641,0 0.11661,0.11881 0.11661,0.26402 0,0.29141 -0.20713,0.3592 -0.30253,0.099 -0.10442,-0.28478 -0.3942,0.10553 -0.29961,0.40356 0.11824,0.37256 0.49251,0.48604 0.69404,0.21042 0.15378,-0.2103 0.17027,-0.20857 0.24524,0.0258 0.0442,0.13821 0.13719,0.39265 0.20662,0.56544 0.0968,0.24094 0.0725,0.37356 -0.1045,0.56911 -0.19939,0.22033 -0.20455,0.27321 -0.038,0.38925 0.13952,0.0972 0.0834,0.10891 -0.20327,0.0424 -0.21782,-0.0505 -0.69307,-0.0998 -1.0561,-0.10935 -0.50647,-0.0134 -0.66007,0.0287 -0.66007,0.18058 0,0.11121 0.1447,0.21777 0.33004,0.24307 0.45409,0.062 0.75382,0.3605 0.82091,0.81764 0.0509,0.34674 0.0262,0.37714 -0.25021,0.30777 -0.34253,-0.086 -0.35946,-0.0326 -0.18388,0.57959 l 0.1228,0.42817 h -0.51228 c -0.28175,0 -0.55978,0.0743 -0.61784,0.16501 -0.10087,0.15767 -0.62145,0.49505 -0.76385,0.49505 -0.0373,0 -0.0678,-0.0862 -0.0678,-0.19146 z m -4.69944,-1.54571 c -0.0417,-0.0674 -0.007,-0.20528 0.0768,-0.30638 0.11294,-0.13607 0.11441,-0.25503 0.006,-0.45821 -0.12109,-0.22627 -0.10533,-0.28755 0.0899,-0.34922 0.13019,-0.0411 0.38394,-0.13425 0.56387,-0.20695 0.30001,-0.1212 0.30742,-0.14321 0.0894,-0.26524 -0.22554,-0.12622 -0.22604,-0.14605 -0.01,-0.38515 0.33484,-0.36998 0.71525,-0.32852 0.71525,0.078 0,0.36246 0.27159,0.44102 0.51416,0.14873 0.18316,-0.22068 0.0648,-0.57423 -0.24823,-0.74178 -0.12708,-0.068 -0.26712,-0.30398 -0.3112,-0.52438 -0.0472,-0.23608 -0.16286,-0.40072 -0.28146,-0.40072 -0.29514,0 -0.24572,-0.36416 0.0627,-0.46205 0.14522,-0.0461 0.26403,-0.19861 0.26403,-0.33893 0,-0.16711 -0.0911,-0.25513 -0.26403,-0.25513 -0.14521,0 -0.26402,-0.0819 -0.26402,-0.18191 0,-0.10005 -0.13366,-0.27683 -0.29703,-0.39284 -0.27555,-0.19567 -0.28032,-0.22118 -0.066,-0.3527 0.39742,-0.24388 0.65645,-0.87726 0.47657,-1.16528 -0.0919,-0.14709 -0.11203,-0.34996 -0.0494,-0.49703 0.0582,-0.13669 0.0969,-0.42673 0.0859,-0.64455 l -0.0199,-0.39604 0.21504,0.29703 c 0.11827,0.16336 0.3266,0.29703 0.46296,0.29703 0.19533,0 0.24792,0.098 0.24792,0.46204 0,0.3269 0.0591,0.46205 0.20216,0.46205 0.11119,0 0.24052,0.10396 0.2874,0.23102 0.0469,0.12706 0.14049,0.26816 0.20801,0.31356 0.19635,0.13198 -0.008,0.56807 -0.33333,0.71071 -0.21769,0.0955 -0.28624,0.21998 -0.25382,0.46087 0.0719,0.53422 0.2527,0.60551 0.55643,0.21938 0.25257,-0.32108 0.63709,-0.38158 0.44448,-0.0699 -0.0446,0.0722 0.0167,0.2393 0.13627,0.37139 0.28468,0.31457 0.14839,0.9313 -0.20581,0.9313 -0.34622,0 -0.32305,0.46171 0.0358,0.71304 l 0.28549,0.19997 -0.31849,0.26726 -0.3185,0.26725 0.2879,0.0813 c 0.38452,0.10861 0.47993,0.407 0.27685,0.86578 -0.18048,0.40774 -0.36673,0.49896 -0.36673,0.17962 0,-0.10891 -0.11057,-0.19802 -0.24572,-0.19802 -0.19091,0 -0.23165,0.0736 -0.18263,0.33003 0.0368,0.19265 0.002,0.33003 -0.0843,0.33003 -0.0811,0 -0.1474,0.11882 -0.1474,0.26403 0,0.31319 -0.1677,0.34114 -0.39604,0.066 -0.19203,-0.23138 -0.87926,-0.26651 -0.95188,-0.0487 -0.0615,0.18446 -0.87112,0.2622 -0.97529,0.0936 z m 15.21274,-1.23312 c 0.0418,-0.10891 0.0993,-0.19802 0.12787,-0.19802 0.0285,0 0.0519,0.0891 0.0519,0.19802 0,0.10891 -0.0575,0.19802 -0.12787,0.19802 -0.0703,0 -0.0937,-0.0891 -0.0519,-0.19802 z m -5.01201,-0.27762 c -0.20383,-0.18901 -0.33987,-0.42369 -0.30233,-0.52152 0.0612,-0.15937 -0.76857,-0.89147 -1.15976,-1.02331 -0.10161,-0.0343 -0.0972,-0.1065 0.0147,-0.24215 0.17425,-0.21126 0.0948,-0.7251 -0.16038,-1.0377 -0.24106,-0.29526 -0.36507,-0.92409 -0.18223,-0.92409 0.0836,0 0.33717,0.19338 0.56357,0.42974 0.22639,0.23637 0.56066,0.52537 0.74281,0.64224 0.18216,0.11687 0.41295,0.36525 0.51287,0.55196 0.15844,0.29607 0.15408,0.36707 -0.0342,0.55531 -0.19977,0.19978 -0.21584,0.19616 -0.21584,-0.0486 0,-0.22634 -0.60935,-0.81049 -0.84546,-0.81049 -0.20351,0 -0.0438,0.40423 0.2514,0.63647 0.18152,0.14278 0.33004,0.34336 0.33004,0.44574 0,0.18797 0.78961,1.02999 0.96589,1.02999 0.0524,0 0.0588,-0.14513 0.0143,-0.32253 -0.13936,-0.55525 0.0672,-0.63881 0.48184,-0.19495 0.45999,0.49244 0.52944,0.97679 0.12148,0.8473 -0.17591,-0.0558 -0.29133,-0.0145 -0.34415,0.12312 -0.11365,0.29614 -0.33022,0.25696 -0.75456,-0.1365 z m 5.5878,-0.29757 c 0,-0.0577 0.14852,-0.24439 0.33003,-0.41491 0.34563,-0.3247 0.41831,-0.27959 0.20169,0.12516 -0.13525,0.25272 -0.53172,0.46877 -0.53172,0.28975 z m -11.59361,-0.65398 c -0.47922,-0.0345 -0.5453,-0.0715 -0.41288,-0.23102 0.12262,-0.14775 0.12054,-0.23468 -0.009,-0.39119 -0.19001,-0.22895 -0.17175,-0.26077 0.21826,-0.38044 0.23303,-0.0715 0.33088,0.008 0.5672,0.4615 0.15707,0.30135 0.26797,0.55563 0.24644,0.56506 -0.0215,0.01 -0.29589,-0.001 -0.60969,-0.0239 z m 12.38569,-0.12871 c 0,-0.0656 0.12745,-0.23252 0.28323,-0.37083 0.28127,-0.24974 0.28218,-0.24948 0.13131,0.0382 -0.16831,0.32089 -0.41454,0.51847 -0.41454,0.33264 z m 20.59402,-9.58507 c 0,-0.0285 0.0922,-0.0873 0.20487,-0.13051 0.11748,-0.0451 0.17047,-0.0229 0.12423,0.0519 -0.0775,0.12544 -0.3291,0.18553 -0.3291,0.0786 z m -1.84818,-2.5696 c 0,-0.13569 0.39985,-0.323 0.49224,-0.2306 0.0321,0.0321 -0.0655,0.12473 -0.21691,0.20577 -0.15153,0.0811 -0.27533,0.0923 -0.27533,0.0248 z m -58.1368,25.65902 c -0.37539,-0.57934 0.19674,-1.19545 1.34412,-1.44747 0.4835,-0.10619 1.08322,0.18454 1.08322,0.52515 0,0.10723 0.0891,0.19497 0.19802,0.19497 0.10891,0 0.19801,-0.0891 0.19801,-0.19802 0,-0.10891 0.0891,-0.19802 0.19802,-0.19802 0.22072,0 0.23855,-0.0743 0.22171,-0.92409 l -0.0118,-0.59406 0.25,0.72607 c 0.1375,0.39934 0.25363,0.85623 0.25807,1.01532 0.012,0.42928 0.18685,0.46814 0.89532,0.19894 0.35196,-0.13373 0.71215,-0.21908 0.80043,-0.18965 0.19216,0.0641 0.21738,0.55955 0.0285,0.55955 -0.0726,0 -0.13202,0.0891 -0.13202,0.19802 0,0.28818 0.22146,0.24392 0.73344,-0.14658 0.33253,-0.25364 0.46484,-0.2972 0.50122,-0.16501 0.28762,1.04479 0.5059,1.25122 0.59127,0.55917 0.0241,-0.19508 0.14922,-0.4494 0.27812,-0.56516 0.22175,-0.19915 0.22542,-0.42724 0.0682,-4.23687 -0.23269,-5.63964 -0.43924,-8.6412 -0.66145,-9.61214 -0.10489,-0.45829 -0.19071,-1.28278 -0.19071,-1.83221 0,-0.73354 -0.0877,-1.242 -0.33003,-1.91385 -0.19642,-0.54452 -0.33003,-1.19999 -0.33003,-1.61901 0,-0.52432 -0.0541,-0.72483 -0.21172,-0.78532 -0.11862,-0.0455 -0.17913,-0.16615 -0.13762,-0.27433 0.0407,-0.1062 -0.0144,-0.28161 -0.12263,-0.38981 -0.1539,-0.1539 -0.16382,-0.24941 -0.0455,-0.4388 0.12614,-0.20198 0.0517,-0.39585 -0.44957,-1.17072 -0.33041,-0.51077 -0.63995,-1.08487 -0.68786,-1.27578 -0.10847,-0.43217 -0.45726,-0.7654 -0.45726,-0.43686 0,0.1196 -0.14275,0.27172 -0.31721,0.33806 -0.17446,0.0663 -0.35619,0.18367 -0.40383,0.26075 -0.13855,0.22418 -0.25727,0.16347 -0.43704,-0.22351 -0.14523,-0.31262 -0.1371,-0.38419 0.06,-0.52832 0.20949,-0.15317 0.21076,-0.18392 0.0156,-0.37905 -0.22613,-0.22612 -0.50171,-0.1485 -0.50171,0.14132 0,0.0962 -0.11881,0.2059 -0.26403,0.24387 -0.15501,0.0405 -0.26402,0.18008 -0.26402,0.33795 0,0.29046 -0.56218,0.77554 -0.63738,0.54996 -0.076,-0.22807 -1.17137,-0.16322 -1.26269,0.0747 -0.14391,0.37503 -0.0909,0.61566 0.11789,0.53553 0.14306,-0.0549 0.19802,0.0145 0.19802,0.2499 0,0.17923 0.0667,0.32588 0.14818,0.32588 0.10899,0 0.10929,0.0469 10e-4,0.17717 -0.19817,0.23877 -0.0461,0.36314 0.32901,0.269 0.24156,-0.0606 0.34048,-0.004 0.46339,0.26589 0.12948,0.28417 0.11873,0.38446 -0.0627,0.58493 -0.12043,0.13307 -0.21896,0.31153 -0.21896,0.39657 0,0.21474 -0.14922,0.18661 -0.48116,-0.0907 -0.19876,-0.16606 -0.26399,-0.33669 -0.21891,-0.57254 0.0539,-0.28177 -0.002,-0.35895 -0.34392,-0.47827 -0.45504,-0.15863 -0.46033,-0.17387 -0.27938,-0.80481 0.11415,-0.398 0.0909,-0.48417 -0.20482,-0.7582 -0.3447,-0.31946 -0.56295,-0.36424 -1.08887,-0.22341 -0.24151,0.0647 -0.29064,0.1467 -0.23076,0.38526 0.0559,0.22273 0.01,0.32414 -0.17397,0.38245 -0.13751,0.0437 -0.28059,0.1962 -0.31793,0.33901 -0.088,0.33652 -0.35665,0.3371 -0.35665,0.001 0,-0.14239 -0.12325,-0.37371 -0.27388,-0.51406 -0.23843,-0.22212 -0.25141,-0.29117 -0.10026,-0.53318 0.0955,-0.15293 0.28001,-0.27804 0.41004,-0.27804 0.28188,0 0.45118,-0.3578 0.25983,-0.54916 -0.0925,-0.0925 -0.22708,-0.0863 -0.42487,0.0196 -0.15923,0.0852 -0.31549,0.12895 -0.34725,0.0972 -0.0318,-0.0318 -0.08,-0.36907 -0.10712,-0.74958 -0.0567,-0.79438 -0.12664,-0.8938 -0.67061,-0.95308 -0.29849,-0.0325 -0.40678,-0.119 -0.43965,-0.35105 -0.0402,-0.2842 -0.0614,-0.29183 -0.27419,-0.0992 -0.2893,0.26181 -0.22211,1.05929 0.0795,0.94356 0.10529,-0.0404 0.31116,-0.009 0.45749,0.0689 0.20904,0.11187 0.24587,0.21785 0.17188,0.49458 -0.0518,0.1937 -0.0911,0.44129 -0.0873,0.5502 0.0137,0.39222 -0.12924,0.92409 -0.24827,0.92409 -0.0668,0 -0.12152,-0.0921 -0.12152,-0.20458 0,-0.11251 -0.0875,-0.37386 -0.19454,-0.58078 -0.17068,-0.33004 -0.17086,-0.39585 -0.001,-0.53644 0.22105,-0.18346 0.14181,-0.39437 -0.14816,-0.39437 -0.10811,0 -0.33287,-0.15846 -0.49946,-0.35214 -0.33909,-0.39422 -0.74054,-0.35381 -0.74054,0.0746 0,0.14231 -0.0891,0.34784 -0.19802,0.45675 -0.31102,0.31102 -0.23601,0.65303 0.2739,1.24874 l 0.47191,0.55132 -0.32471,0.12346 c -0.18735,0.0712 -0.42886,0.34921 -0.57092,0.65715 -0.17983,0.38978 -0.32631,0.53461 -0.54325,0.53709 -0.17653,0.002 -0.29703,-0.0763 -0.29703,-0.19311 0,-0.24637 -0.40295,-0.72757 -0.60927,-0.72757 -0.27748,0 -0.30293,0.36587 -0.0419,0.60211 0.14032,0.12699 0.25512,0.32822 0.25512,0.44718 0,0.26841 0.89795,0.53319 1.30168,0.38384 0.22322,-0.0826 0.28248,-0.0543 0.28248,0.135 0,0.3135 0.36075,1.04244 0.74794,1.51129 0.16949,0.20524 0.30816,0.49435 0.30816,0.64247 0,0.19463 0.0661,0.25201 0.23837,0.20696 0.19587,-0.0512 0.22875,0.003 0.18444,0.30504 -0.0393,0.26783 0.0213,0.41434 0.22368,0.54074 0.3768,0.23531 0.34938,0.33713 -0.11844,0.43988 -0.44969,0.0988 -0.5283,0.39666 -0.13201,0.50029 0.43318,0.11328 0.30055,0.44652 -0.26832,0.67413 -0.46398,0.18565 -0.51484,0.24572 -0.39604,0.46771 0.25383,0.47429 0.16784,0.66809 -0.2964,0.66809 -0.50554,0 -0.89988,-0.38135 -0.85291,-0.82483 0.0415,-0.39185 -0.47376,-0.42401 -0.53289,-0.0333 -0.12358,0.81672 -0.15377,0.85808 -0.62625,0.85808 -0.28904,0 -0.45953,0.0637 -0.45953,0.17162 0,0.29118 0.29738,0.48845 0.73631,0.48845 0.23072,0 0.4972,0.0936 0.5922,0.2081 0.12246,0.14757 0.2967,0.18485 0.59887,0.12816 0.38846,-0.0729 0.4195,-0.0545 0.35094,0.20769 -0.0491,0.18788 0.005,0.34638 0.15658,0.4571 0.12749,0.0932 0.19043,0.23644 0.13986,0.31826 -0.12205,0.19749 0.19252,0.94358 0.3554,0.84292 0.07,-0.0433 0.21497,0.0466 0.3222,0.19969 0.10722,0.15308 0.32525,0.28427 0.48449,0.2915 0.28518,0.0129 0.28495,0.0145 -0.0153,0.099 -0.37603,0.1059 -0.39382,0.33513 -0.0304,0.39206 0.17955,0.0281 0.26926,0.14204 0.26926,0.34191 0,0.39856 -0.86311,0.71858 -1.30304,0.48314 -0.22259,-0.11913 -0.29649,-0.11515 -0.33734,0.0182 -0.26747,0.87283 -0.11794,1.46565 0.35315,1.40014 0.38525,-0.0536 0.47331,0.43095 0.16408,0.90288 l -0.21941,0.33488 -0.29737,-0.27937 -0.29736,-0.27935 -0.13912,0.29988 -0.13912,0.29989 -0.1482,-0.37646 c -0.11287,-0.28673 -0.20281,-0.35296 -0.37737,-0.27791 -0.12606,0.0542 -0.46682,0.13449 -0.75724,0.17844 -0.46067,0.0697 -0.53358,0.12828 -0.57138,0.45901 -0.0238,0.20851 0.0207,0.44317 0.099,0.52145 0.24987,0.24987 0.15334,0.38494 -0.20995,0.29377 -0.40203,-0.10091 -0.97723,-0.46826 -0.73319,-0.46826 0.30989,0 0.15841,-0.25971 -0.20165,-0.34572 -0.19967,-0.0477 -0.4337,-0.14223 -0.52007,-0.21007 -0.23773,-0.18675 -0.89907,-0.0706 -0.89907,0.15794 0,0.10792 0.11881,0.21765 0.26402,0.24385 0.27688,0.05 0.9901,0.65417 0.9901,0.83876 0,0.059 -0.10891,0.10731 -0.24202,0.10731 -0.36287,0 -0.38452,0.0724 -0.23707,0.79216 0.1023,0.49939 0.0932,0.77864 -0.0372,1.13911 -0.21777,0.60222 -0.0511,0.73669 0.6253,0.50442 0.46817,-0.16075 0.4858,-0.18984 0.50773,-0.83763 0.0125,-0.3691 -0.032,-0.70495 -0.099,-0.74632 -0.067,-0.0414 -0.11754,-0.2054 -0.11241,-0.36448 0.0116,-0.36006 0.45618,0.59955 0.66862,1.44326 0.2501,0.9932 0.36154,0.99105 1.46266,-0.0283 0.19714,-0.18249 0.46447,-0.31387 0.59406,-0.29195 0.18283,0.0309 0.24513,-0.0637 0.27805,-0.4222 0.0707,-0.77028 0.21423,-0.69968 0.54346,0.26737 0.2524,0.74138 0.28543,0.98473 0.16846,1.24146 -0.11307,0.24814 -0.10476,0.35311 0.0373,0.47099 0.23839,0.19785 0.12237,0.48301 -0.2345,0.57633 l -0.28269,0.0739 0.32309,0.34391 0.32309,0.34392 0.22322,-0.27566 c 0.13203,-0.16305 0.25725,-0.22057 0.30655,-0.1408 0.17253,0.27915 0.33179,0.11836 0.33179,-0.33499 0,-0.31515 0.049,-0.43953 0.14891,-0.3778 0.0983,0.0608 0.12193,0.35017 0.0695,0.8514 -0.0711,0.68022 -0.0523,0.76645 0.18045,0.82731 0.1429,0.0374 0.30034,0.17755 0.34987,0.31151 0.15737,0.42564 0.35522,0.43642 0.55202,0.0301 0.26548,-0.54815 0.75882,-0.48171 1.09488,0.14747 0.3292,0.61633 0.52282,0.58231 0.69547,-0.12221 0.1815,-0.74067 0.36295,-0.79852 0.6456,-0.20581 0.25222,0.52891 0.28735,0.93312 0.0916,1.05409 -0.21643,0.13375 -0.15073,0.53465 0.15035,0.91741 0.21455,0.27276 0.30831,0.31698 0.39043,0.1841 0.0625,-0.10109 0.0356,-0.28679 -0.0638,-0.44017 z m -5.22941,-13.97264 c 0,-0.12231 0.1026,-0.21913 0.23102,-0.21801 0.13184,10e-4 0.17434,0.0443 0.099,0.10054 -0.0726,0.0542 -0.17657,0.15229 -0.23103,0.21801 -0.0545,0.0657 -0.099,0.0205 -0.099,-0.10054 z m -0.46205,-6.95269 c 0.0449,-0.0726 0.10779,-0.13201 0.1398,-0.13201 0.032,0 0.0582,0.0594 0.0582,0.13201 0,0.0726 -0.0629,0.13201 -0.1398,0.13201 -0.0769,0 -0.10309,-0.0594 -0.0582,-0.13201 z m 103.64583,19.27389 c 0.373,-0.56364 0.60952,-0.64779 0.9274,-0.32991 0.11935,0.11935 0.31845,0.16794 0.50073,0.12219 0.20483,-0.0514 0.32835,-0.009 0.38234,0.13189 0.12819,0.33405 0.6161,0.26242 0.6161,-0.0904 0,-0.34857 0.45293,-0.68661 0.92409,-0.68968 0.28752,-0.002 0.32604,-0.055 0.29905,-0.41255 -0.0201,-0.26667 0.0576,-0.49056 0.22188,-0.63925 0.24079,-0.21791 0.26415,-0.21565 0.48936,0.0474 0.13008,0.15192 0.28122,0.27621 0.33587,0.27621 0.0547,0 0.22614,-0.27824 0.38107,-0.61833 0.26697,-0.58605 0.26957,-0.62719 0.0497,-0.78795 -0.2557,-0.18698 -0.17427,-0.36316 0.41785,-0.90394 0.26005,-0.23749 0.73834,-1.82686 1.37059,-4.55445 0.72541,-3.12955 1.12724,-5.15986 1.37172,-6.93068 0.41441,-3.00179 0.35952,-3.65257 -0.24849,-2.94572 -0.30729,0.35725 -0.84616,0.55126 -1.17777,0.42401 -0.13917,-0.0534 0.0967,-0.22858 0.72333,-0.53731 1.01436,-0.49972 1.19098,-0.72076 0.86434,-1.0817 -0.24038,-0.26562 -0.28658,-0.47415 -0.0762,-0.34414 0.0758,0.0468 0.2243,0.0134 0.33003,-0.0744 0.20744,-0.17215 0.25063,-1.18509 0.0702,-1.64536 -0.0653,-0.16643 -0.0332,-0.37167 0.0867,-0.55524 0.10461,-0.16017 0.15262,-0.35203 0.10669,-0.42634 -0.0459,-0.0743 -0.0116,-0.37488 0.0761,-0.66793 0.12066,-0.40272 0.12329,-0.65127 0.0108,-1.0179 -0.10888,-0.35477 -0.10963,-0.53235 -0.003,-0.66108 0.0964,-0.11622 0.11675,-0.52256 0.0597,-1.19603 -0.15495,-1.83066 -0.84635,-3.51488 -1.20482,-2.93487 -0.047,0.076 -0.39264,-0.0679 -0.82025,-0.34143 -0.67523,-0.43194 -0.76755,-0.45755 -1.06873,-0.29637 -0.18132,0.097 -0.43948,0.15783 -0.57368,0.13511 -0.13527,-0.0229 -0.24409,0.0366 -0.24409,0.13337 0,0.25475 -1.42791,1.69011 -1.68135,1.69011 -0.0573,0 -0.16287,-0.12982 -0.23454,-0.28849 -0.17187,-0.3805 -0.43751,-0.45343 -0.5519,-0.15153 -0.11514,0.30389 -0.30518,0.49607 -0.60151,0.60828 -0.24277,0.0919 -0.30955,0.48321 -0.11886,0.69643 0.15492,0.17322 0.56257,1.24752 0.47338,1.24752 -0.0398,0 -0.23239,-0.17144 -0.42797,-0.38097 -0.29959,-0.32096 -0.49742,-0.39555 -1.25603,-0.47356 -0.81336,-0.0836 -0.90671,-0.0686 -0.96531,0.15549 -0.10362,0.39624 -0.94809,0.24835 -1.05687,-0.18509 -0.0742,-0.29553 -0.12785,-0.31833 -0.55891,-0.23746 -0.6004,0.11263 -0.68141,0.16409 -0.5985,0.38017 0.0402,0.10486 0.19562,0.14961 0.39028,0.1124 0.17831,-0.0341 0.32342,7.9e-4 0.32342,0.0778 0,0.18504 -0.21857,0.31126 -0.71455,0.41264 -0.55007,0.11244 -0.56423,0.55419 -0.037,1.15466 0.40386,0.45997 0.39061,0.55295 -0.10652,0.74745 -0.0806,0.0316 -0.0678,0.11975 0.033,0.22657 0.0908,0.0962 0.16502,0.34272 0.16502,0.54783 0,0.27629 0.0855,0.4054 0.33003,0.49838 0.47039,0.17883 0.41016,0.27821 -0.0676,0.11165 -0.21873,-0.0762 -0.49193,-0.10248 -0.6071,-0.0583 -0.17112,0.0657 -0.1346,0.15024 0.19967,0.46249 0.42555,0.39753 0.50139,0.59962 0.27706,0.73826 -0.18354,0.11344 -0.1655,0.77179 0.0264,0.96369 0.0871,0.0871 0.25049,0.15833 0.36303,0.15821 0.30034,0 1.23055,-1.03613 1.14072,-1.27022 -0.0797,-0.20768 0.0873,-0.14901 0.45004,0.15811 0.10891,0.0922 0.3488,0.20527 0.5331,0.25124 0.28125,0.0702 0.40657,-0.005 0.78019,-0.47028 0.24481,-0.30464 0.48772,-0.78692 0.5398,-1.07174 0.0895,-0.4894 0.0693,-0.53391 -0.36713,-0.81014 -0.5696,-0.36048 -0.97383,-1.46939 -0.83279,-2.28454 l 0.088,-0.50881 0.28946,0.58585 c 0.30938,0.62616 0.37217,1.12962 0.15744,1.26233 -0.23002,0.14217 -0.14422,0.29294 0.2626,0.46145 0.21704,0.0899 0.60503,0.39636 0.8622,0.68102 0.49565,0.54862 1.08879,1.63844 0.96119,1.76603 -0.0418,0.0418 -0.27578,-0.0458 -0.51995,-0.19463 -0.44865,-0.27353 -1.03798,-0.36482 -1.03798,-0.1608 0,0.061 0.36221,0.39211 0.80492,0.73591 0.76337,0.59281 0.80062,0.648 0.72164,1.06899 -0.0768,0.40935 -0.0475,0.46091 0.37656,0.66213 0.47541,0.22558 0.73713,0.17856 0.73713,-0.13248 0,-0.10849 0.2632,-0.23572 0.66656,-0.32223 0.9719,-0.20843 1.03802,-0.19394 1.00366,0.22008 -0.0247,0.29708 -0.0892,0.35875 -0.35513,0.33943 -0.50507,-0.0367 -0.72999,0.0675 -0.54508,0.25236 0.23253,0.23253 0.18545,0.34879 -0.10994,0.27154 -0.3677,-0.0961 -0.3511,0.31236 0.0174,0.42933 0.18458,0.0586 0.22849,0.12208 0.12755,0.18447 -0.20923,0.12931 -0.0249,0.56887 0.20207,0.4818 0.11312,-0.0434 0.18099,0.0221 0.18099,0.17476 0,0.13432 0.19307,0.43567 0.42904,0.66966 l 0.42905,0.42545 -0.63909,-0.40103 c -0.7039,-0.44168 -0.94654,-0.42961 -1.06768,0.0531 -0.0835,0.33271 -0.26434,0.41678 -0.40544,0.18846 -0.1598,-0.25856 -0.39939,-0.11799 -0.6246,0.36644 -0.22601,0.48617 -0.93806,1.0857 -1.28945,1.0857 -0.11289,0 -0.0474,-0.14002 0.17318,-0.37025 0.6628,-0.69182 0.35369,-1.04508 -0.76736,-0.87698 -0.47945,0.0719 -0.58364,0.0535 -0.5274,-0.0931 0.0565,-0.14717 -0.1761,-0.18526 -1.19731,-0.19608 -1.23381,-0.0131 -1.26506,-0.006 -1.17892,0.26641 0.22549,0.71315 0.17935,0.77369 -0.6182,0.81125 -0.41224,0.0194 -0.80722,0.071 -0.87773,0.11452 -0.28013,0.17313 -0.76251,2.93906 -1.01548,5.82272 -0.10191,1.16172 -0.21039,2.23102 -0.24107,2.37623 -0.0307,0.14522 -0.0962,0.70957 -0.14567,1.25413 -0.0494,0.54455 -0.14867,1.33502 -0.22051,1.75657 -0.12085,0.7091 -0.0987,0.85243 0.29523,1.91419 0.23423,0.63125 0.55998,1.26652 0.7239,1.41174 0.16391,0.14521 0.31854,0.38283 0.34361,0.52805 0.0325,0.18806 0.1305,0.25208 0.34071,0.22249 0.16231,-0.0228 0.45103,0.0811 0.64161,0.23102 0.42019,0.33054 0.96725,0.38822 0.70692,0.0745 -0.0904,-0.10891 -0.13016,-0.19802 -0.0884,-0.19802 0.18103,0 0.74845,0.31632 0.74845,0.41723 0,0.29546 0.43027,0.0534 0.74174,-0.41723 z m 6.66529,-23.00652 c -0.57626,-0.59157 -0.6395,-0.70768 -0.48119,-0.88345 0.10025,-0.11132 0.22305,-0.36576 0.27289,-0.56543 0.15818,-0.63378 0.50965,-0.36844 0.65575,0.49505 0.1419,0.83864 0.20389,0.9901 0.40522,0.9901 0.10402,0 0.18912,-0.0539 0.18912,-0.11966 0,-0.0658 0.12125,-0.088 0.26943,-0.0492 0.35464,0.0927 0.27043,0.30071 -0.23644,0.58388 l -0.41132,0.22978 z m 3.9841,18.68199 c 0.33268,-0.13079 0.70827,-0.16935 1.12211,-0.11518 0.49791,0.0652 0.91128,-0.0106 2.07148,-0.3797 0.79719,-0.25361 1.52195,-0.46111 1.6106,-0.46111 0.0886,0 0.21617,-0.0983 0.28339,-0.21841 0.0758,-0.1354 0.20661,-0.18604 0.34424,-0.13323 0.1221,0.0469 0.44133,-0.0235 0.70939,-0.15638 0.26808,-0.13287 0.93297,-0.31643 1.47752,-0.40792 1.07274,-0.18023 1.49053,-0.37862 1.72673,-0.81996 0.14458,-0.27017 0.12966,-0.28017 -0.31105,-0.20865 -0.53488,0.0868 -1.46633,-0.19118 -1.51452,-0.45197 -0.0181,-0.0978 0.0238,-0.26602 0.0931,-0.37393 0.12756,-0.19878 0.17191,-0.19093 1.09488,0.19409 0.19535,0.0815 0.23102,0.0222 0.23102,-0.38395 0,-0.5429 -0.0368,-0.56446 -1.08911,-0.63841 -0.57094,-0.0401 -0.75907,-0.01 -0.75907,0.12252 0,0.24398 -0.1866,0.22075 -0.8193,-0.10204 -0.6057,-0.309 -1.29587,-0.98431 -1.77346,-1.73528 -0.22577,-0.355 -0.40774,-0.49505 -0.64321,-0.49505 -0.23704,0 -0.32838,-0.0713 -0.32838,-0.25623 0,-0.34445 0.19691,-0.44575 0.39724,-0.20436 0.20425,0.2461 0.52685,0.25621 0.52685,0.0165 0,-0.21501 -0.91579,-0.87604 -1.21368,-0.87604 -0.11516,0 -0.33685,0.25248 -0.49263,0.56106 -0.15579,0.30858 -0.61551,1.12541 -1.02161,1.81518 -0.40608,0.68976 -0.80591,1.37293 -0.88848,1.51814 -0.0826,0.14522 -0.36167,0.59076 -0.62019,0.9901 -0.7262,1.12174 -1.84364,3.3132 -1.75914,3.44992 0.0904,0.14627 0.85049,0.0234 1.54531,-0.24971 z m 6.63573,-2.71664 c -0.16093,-0.11769 -0.22095,-0.27677 -0.17324,-0.45924 0.0519,-0.19828 0,-0.3022 -0.17745,-0.35866 -0.21449,-0.0681 -0.36532,-0.32573 -0.19068,-0.32573 0.26163,0 0.73229,0.35301 0.73229,0.54924 0,0.13355 0.0935,0.24283 0.2077,0.24283 0.12294,0 0.19028,0.0898 0.16501,0.22008 -0.058,0.29893 -0.26772,0.34786 -0.56363,0.13148 z m -23.30738,0.83553 c 0,-0.0732 0.11632,-0.9791 0.25849,-2.0132 0.7328,-5.33008 0.96918,-8.48911 0.65033,-8.69106 -0.32644,-0.20673 -0.6448,-0.13551 -0.6448,0.14426 0,0.23139 -0.088,0.26402 -0.71194,0.26402 -0.53863,0 -0.73221,-0.0528 -0.79519,-0.21691 -0.10441,-0.27209 -0.15472,-0.24697 0.77915,-0.38899 0.73471,-0.11173 0.79206,-0.14565 0.81717,-0.48321 0.0305,-0.4097 -0.0439,-0.43878 -0.41145,-0.16081 -0.37334,0.28237 -0.64688,0.24837 -0.56361,-0.0701 0.0748,-0.28624 -0.10004,-0.48452 -0.2349,-0.26631 -0.15038,0.2433 -0.6921,0.15142 -0.76566,-0.12986 -0.0503,-0.19225 -0.18006,-0.26402 -0.47744,-0.26402 -0.23238,0 -0.52219,0.11379 -0.67242,0.26402 -0.35523,0.35522 -0.56205,0.33092 -0.75702,-0.089 -0.11886,-0.25598 -0.12379,-0.39815 -0.0182,-0.52534 0.23162,-0.27908 0.0295,-0.57378 -0.39354,-0.57378 -0.26366,0 -0.45228,-0.10268 -0.59847,-0.3258 -0.13351,-0.20376 -0.28931,-0.29667 -0.41596,-0.24808 -0.17969,0.069 -0.1777,0.11554 0.0177,0.41381 0.20352,0.31061 0.20387,0.34804 0.005,0.49377 -0.28139,0.20575 -0.88022,0.0965 -0.78802,-0.14375 0.0429,-0.11187 -0.0577,-0.21063 -0.26866,-0.26355 -0.39322,-0.0987 -0.57106,-0.51423 -0.33948,-0.79325 0.0886,-0.10678 0.36084,-0.28891 0.60496,-0.40475 0.24412,-0.11585 0.44386,-0.2983 0.44386,-0.40544 0,-0.326 -0.56271,-0.69013 -1.07371,-0.6948 -0.38389,-0.004 -0.49554,-0.0637 -0.55925,-0.30143 -0.18645,-0.6957 0.0724,-0.83536 0.67285,-0.36303 0.18461,0.14521 0.47502,0.26402 0.64537,0.26402 0.217,0 0.33356,0.095 0.3894,0.31752 0.0438,0.17463 0.22309,0.45223 0.39836,0.61689 0.30052,0.28232 0.30603,0.31333 0.0967,0.54467 -0.19223,0.21242 -0.19663,0.26899 -0.0328,0.42188 0.39441,0.3681 1.70734,0.63563 1.70734,0.34791 0,-0.0701 -0.11479,-0.1888 -0.25509,-0.26389 -0.14029,-0.0751 -0.29032,-0.24754 -0.33339,-0.38325 -0.10431,-0.32863 0.15116,-0.97715 0.35827,-0.90948 0.20782,0.0679 0.47703,0.8289 0.48678,1.37601 0.007,0.39545 0.045,0.42637 0.70052,0.57045 0.38119,0.0838 1.00495,0.18612 1.38614,0.22741 0.62122,0.0673 0.69307,0.0489 0.69307,-0.17801 0,-0.13923 0.0976,-0.39247 0.21688,-0.56278 0.20211,-0.28854 0.20087,-0.33676 -0.0182,-0.70766 -0.41679,-0.70557 -0.73268,-0.94939 -1.0076,-0.77771 -0.2001,0.12497 -0.27404,0.0999 -0.42875,-0.14546 -0.33152,-0.52573 -0.39079,-0.89053 -0.1447,-0.89053 0.12075,0 0.38967,-0.10049 0.5976,-0.22333 0.35509,-0.20976 0.39305,-0.20976 0.62483,0 0.13572,0.12284 0.31448,0.22333 0.39724,0.22333 0.22987,0 0.0358,-0.40233 -0.46714,-0.96836 -0.40885,-0.46016 -0.42958,-0.52114 -0.22736,-0.66901 0.20157,-0.14739 0.18292,-0.196 -0.19832,-0.51679 -0.23144,-0.19475 -0.48293,-0.35409 -0.55886,-0.35409 -0.0862,0 -0.0782,-0.0722 0.0215,-0.19224 0.27852,-0.33558 0.034,-0.46656 -0.4744,-0.25413 -0.26038,0.1088 -0.51156,0.15649 -0.55817,0.106 -0.0466,-0.0505 -0.0253,-0.11435 0.0473,-0.14189 0.55878,-0.21198 0.56166,-0.57384 0.005,-0.57384 -0.23965,0 -0.29499,-0.057 -0.24416,-0.2513 0.13792,-0.52743 -0.79946,-0.5035 -1.38868,0.0354 -0.17881,0.16355 -0.48356,0.28185 -0.72607,0.28185 -0.32479,0 -0.40928,0.0515 -0.37914,0.23103 0.0299,0.17818 -0.0537,0.23102 -0.36555,0.23102 -0.35551,0 -0.39517,-0.0365 -0.32845,-0.30237 0.062,-0.24695 -0.0343,-0.38151 -0.52554,-0.73427 -0.74519,-0.53516 -0.76424,-0.76083 -0.0741,-0.87743 0.6668,-0.11266 0.78751,-0.2981 0.30762,-0.47259 -0.32283,-0.11738 -1.16171,-1.15899 -1.03526,-1.28544 0.025,-0.0249 0.19519,0.0528 0.37831,0.1728 0.42064,0.27561 1.0827,0.22086 1.0595,-0.0876 -0.0256,-0.33955 0.31102,-0.13987 0.50575,0.30004 0.0939,0.21213 0.28337,0.42145 0.42106,0.46514 0.13768,0.0437 0.50884,0.31774 0.8248,0.60898 0.45536,0.41975 0.61254,0.49793 0.7581,0.37713 0.11511,-0.0955 0.3862,-0.12001 0.72644,-0.0656 0.82098,0.13128 0.69631,-0.20993 -0.21852,-0.5981 -0.41625,-0.17662 -0.87563,-0.40568 -1.02084,-0.50904 -0.24197,-0.17221 -0.2199,-0.18188 0.26402,-0.11567 0.29043,0.0397 0.87192,0.13239 1.29221,0.20591 0.42029,0.0735 0.85783,0.0977 0.97233,0.0538 0.16359,-0.0628 0.18899,-0.0195 0.11861,0.20228 -0.0737,0.23212 -0.006,0.32206 0.38213,0.5071 0.32146,0.15329 0.51468,0.18192 0.6067,0.0899 0.18291,-0.18291 0.0164,-0.57521 -0.24419,-0.57521 -0.14507,0 -0.16788,-0.0424 -0.0735,-0.13677 0.14142,-0.14141 0.0367,-1.23872 -0.13456,-1.40998 -0.0506,-0.0507 -0.25305,0.0126 -0.44978,0.14048 -0.19674,0.1279 -0.56403,0.32476 -0.81621,0.43746 -0.43652,0.19507 -0.46736,0.19156 -0.64316,-0.0732 -0.10156,-0.15296 -0.29272,-0.27811 -0.42479,-0.27811 -0.44552,0 -0.38952,-0.23443 0.20679,-0.86573 0.32648,-0.34563 0.5936,-0.70807 0.5936,-0.80543 0,-0.24456 -0.13336,-0.22161 -0.45354,0.078 -0.24335,0.22774 -0.33614,0.23859 -0.86659,0.10129 -0.55006,-0.14236 -0.78503,-0.29371 -0.79006,-0.50887 -10e-4,-0.0476 0.46483,-0.0545 1.03543,-0.0154 0.69689,0.0478 1.06755,0.0224 1.12916,-0.0773 0.13589,-0.21987 -0.29169,-0.72013 -1.10531,-1.2932 -0.39648,-0.27926 -0.8873,-0.66726 -1.0907,-0.86222 -0.30541,-0.29273 -0.45109,-0.34129 -0.83637,-0.27877 -0.35592,0.0578 -0.45726,0.0323 -0.42744,-0.10757 0.0545,-0.25543 -0.30397,-0.2257 -2.76619,0.22943 -0.47257,0.0874 -0.60655,-0.14055 -0.16501,-0.28069 0.14521,-0.0461 0.26402,-0.1392 0.26402,-0.20692 0,-0.21548 -0.58191,-0.12674 -0.92409,0.14091 -0.48807,0.38178 -0.83897,0.33617 -1.01569,-0.13201 -0.14863,-0.39377 -0.47391,-0.52381 -0.63961,-0.25571 -0.0477,0.0772 -7.9e-4,0.24055 0.10416,0.36304 0.10498,0.12249 0.22775,0.32666 0.27281,0.45373 0.0479,0.1352 0.21661,0.23102 0.40668,0.23102 0.32864,0 0.73964,0.3042 0.73964,0.54745 0,0.0729 -0.25248,0.12256 -0.56106,0.11034 -0.30858,-0.0122 -0.62046,-0.0121 -0.69306,1.3e-4 -0.0726,0.0123 -0.39934,0.0327 -0.72608,0.0453 l -0.59405,0.0229 -0.0342,0.52805 c -0.0188,0.29043 -0.0929,0.88849 -0.16468,1.32903 -0.11382,0.69858 -0.0968,0.87074 0.13319,1.34675 0.14503,0.30018 0.2637,0.62092 0.2637,0.71276 0,0.0918 0.0828,0.40659 0.18396,0.69945 0.10118,0.29285 0.28534,1.00771 0.40926,1.58857 0.57904,2.71435 1.45945,5.03898 2.45817,6.49057 0.20952,0.30453 0.38094,0.5868 0.38094,0.62726 0,0.0405 0.3731,0.71294 0.8291,1.49436 0.45601,0.78144 0.96947,1.68812 1.14102,2.01485 0.41908,0.79818 0.52197,0.89882 0.67362,0.65895 0.0748,-0.11832 0.1253,-0.13416 0.12651,-0.0397 10e-4,0.0865 -0.0574,0.19394 -0.12999,0.23881 -0.21313,0.13173 -0.15159,0.33004 0.10243,0.33004 0.14615,0 0.33258,-0.20922 0.49505,-0.55553 0.35371,-0.75398 0.62464,-0.82388 0.57588,-0.14858 -0.0468,0.64859 0.0922,0.88387 0.4587,0.77638 0.8004,-0.23474 0.96631,-0.16817 0.80981,0.32494 -0.10528,0.33171 -0.85771,0.38051 -0.85771,0.0556 0,-0.13935 -0.0973,-0.19338 -0.29703,-0.16501 -0.3467,0.0492 -0.3495,0.15522 -0.0409,1.54381 0.11899,0.53546 0.39072,1.28698 0.60385,1.67003 0.55922,1.00509 1.8181,3.06725 2.29476,3.75903 0.22513,0.32673 0.51045,0.81683 0.63405,1.0891 0.20818,0.45859 0.50167,0.67038 0.50167,0.36201 z m -3.30032,-19.81922 c 0,-0.0625 0.14851,-0.1137 0.33003,-0.1137 0.18152,0 0.33003,0.0228 0.33003,0.0506 0,0.0278 -0.14851,0.079 -0.33003,0.11371 -0.18152,0.0347 -0.33003,0.0119 -0.33003,-0.0506 z m 20.07332,15.07289 c 0.10485,-0.17871 0.26087,-0.40167 0.34667,-0.49547 0.0858,-0.0938 0.38051,-0.63074 0.65489,-1.19322 0.41707,-0.85497 0.5075,-1.19197 0.55146,-2.05503 0.0514,-1.00944 -0.2202,-2.20197 -0.50152,-2.20197 -0.17366,0 -0.92685,0.91559 -0.92685,1.12671 0,0.10639 -0.0486,0.19342 -0.10793,0.19342 -0.13313,0 -0.62372,1.52599 -0.80637,2.50825 -0.2181,1.17297 -0.43553,3.54151 -0.33936,3.6971 0.0778,0.12587 0.35897,-0.26758 1.12901,-1.57979 z m 1.10138,-8.06752 c 0.23617,-0.21667 -0.86701,-1.48297 -1.23096,-1.41296 -0.14496,0.0279 -0.2345,0.25811 -0.29606,0.76129 -0.0485,0.39674 -0.059,0.7687 -0.0232,0.82658 0.0782,0.12658 1.38191,-0.0205 1.55023,-0.17491 z m -29.45526,-4.77893 c 0.0355,-0.0925 -0.0791,-0.64196 -0.25456,-1.22112 -0.37749,-1.24587 -0.58919,-2.00518 -0.95287,-3.41774 -0.29117,-1.13094 -0.2631,-1.09656 -1.35667,-1.66225 -0.72714,-0.37614 -1.21574,-0.84442 -1.36205,-1.30539 -0.0398,-0.12545 -0.50266,-0.43145 -1.02854,-0.67998 -1.10887,-0.52407 -1.64282,-0.91244 -2.01225,-1.46361 -0.17068,-0.25465 -0.54406,-0.50771 -1.0561,-0.71579 -0.92115,-0.37432 -1.12211,-0.39672 -1.12211,-0.12507 0,0.11437 -0.12548,0.20226 -0.29703,0.20806 -0.38014,0.0129 -1.01025,0.25656 -1.41477,0.54719 -0.30007,0.21559 -0.30473,0.23992 -0.0911,0.47596 0.12381,0.13681 0.19048,0.33901 0.14815,0.44932 -0.11352,0.29585 -0.93861,0.60446 -1.87659,0.70191 -0.85559,0.0889 -1.00661,-0.004 -0.62605,-0.3844 0.22422,-0.22422 0.0462,-0.41956 -0.27136,-0.29772 -0.10543,0.0405 -0.1917,0.016 -0.1917,-0.0543 0,-0.19063 -0.36514,-0.15492 -0.87113,0.0852 -0.43136,0.20469 -0.61922,0.57901 -0.29058,0.57901 0.34857,0 -0.15858,0.30562 -0.63591,0.38321 -0.55345,0.09 -0.75013,0.38873 -0.32849,0.499 0.172,0.045 0.2787,0.18002 0.27995,0.35431 0.001,0.1549 0.0587,0.37074 0.12799,0.47965 0.10382,0.16322 0.17276,0.16902 0.39223,0.033 0.48643,-0.30147 0.55577,-0.11885 0.13783,0.36303 -0.14522,0.16743 -0.26403,0.31257 -0.26403,0.32251 0,0.01 0.23242,0.27491 0.51649,0.5888 0.48428,0.53513 0.80364,0.62142 0.80364,0.21713 0,-0.0968 0.0891,-0.21029 0.19802,-0.25209 0.10891,-0.0418 0.20139,-0.21151 0.20552,-0.37716 0.005,-0.20276 0.25906,-0.5055 0.77735,-0.9265 0.87475,-0.71053 1.01072,-0.6735 1.08425,0.2953 0.0436,0.57401 0.0317,0.59556 -0.35095,0.63874 -0.21782,0.0246 -0.4703,0.10611 -0.56106,0.18118 -0.24845,0.20551 -0.19819,0.73719 0.084,0.88819 0.13694,0.0733 0.37143,0.34078 0.52109,0.59444 0.15393,0.26089 0.41846,0.49793 0.60911,0.54577 0.21274,0.0534 0.337,0.17666 0.337,0.3343 0,0.34487 0.69167,0.33297 1.65788,-0.0285 0.78694,-0.29443 0.78256,-0.28498 0.52016,-1.12342 -0.0723,-0.23098 -0.0225,-0.29232 0.28637,-0.35288 0.43627,-0.0856 0.53302,-0.0147 0.59347,0.43442 0.0348,0.25839 -0.0201,0.3392 -0.25261,0.37222 -0.2124,0.0302 -0.29703,0.13113 -0.29703,0.35438 v 0.3122 l 0.82508,-0.27296 c 0.73907,-0.2445 1.41914,-0.67271 1.41914,-0.89356 0,-0.0449 -0.19199,-0.13854 -0.42665,-0.20801 -0.36049,-0.10672 -0.42975,-0.19286 -0.4466,-0.55535 -0.0195,-0.41991 0.11552,-0.56186 0.28052,-0.29488 0.16368,0.26484 0.31795,-0.0132 0.19165,-0.34545 -0.23491,-0.61785 -0.17153,-0.75458 0.3133,-0.67591 0.37081,0.0602 0.49033,0.0108 0.75762,-0.31275 0.41725,-0.50514 0.55353,-0.48483 0.7439,0.11084 0.13601,0.4256 0.12774,0.5182 -0.0589,0.66006 -0.29437,0.2237 -0.56272,0.20796 -0.56272,-0.033 0,-0.35037 -0.36634,-0.21124 -0.6493,0.2466 -0.34337,0.55559 -0.35246,0.87551 -0.0249,0.87551 0.13745,0 0.2841,0.0891 0.32589,0.19802 0.0418,0.10891 0.21151,0.19976 0.37716,0.20189 0.273,0.004 1.15926,0.66685 1.15926,0.86767 0,0.0457 -0.19936,0.35847 -0.44303,0.69493 -0.72818,1.0055 -0.72365,1.73385 0.0108,1.73385 0.29905,0 0.30167,0.0103 0.101,0.39841 -0.25729,0.49754 -0.29878,0.48358 1.71739,0.57776 0.87129,0.0407 1.76238,0.12964 1.9802,0.19764 0.56636,0.1768 0.82051,0.17061 0.89434,-0.0218 z m -10.32847,-5.04063 c -0.0877,-0.10573 -0.12122,-0.25424 -0.0744,-0.33003 0.12729,-0.20596 0.7435,-0.16618 0.99833,0.0644 0.20301,0.18372 0.24353,0.17163 0.44248,-0.13201 0.28835,-0.44007 0.42067,-0.42162 0.59665,0.0832 0.15273,0.43812 0.0774,0.69356 -0.11344,0.38475 -0.0904,-0.14633 -0.2243,-0.15182 -0.71135,-0.0292 -0.78073,0.19659 -0.94593,0.19062 -1.13829,-0.0412 z m -65.08718,2.39503 c 0,-0.12992 0.19452,-0.15937 0.77524,-0.11736 0.46497,0.0336 0.80989,-1e-5 0.86183,-0.0841 0.0476,-0.0771 -0.0387,-0.42524 -0.1919,-0.77372 -0.15317,-0.34848 -0.36182,-0.82667 -0.46366,-1.06264 -0.10184,-0.23598 -0.27523,-0.42905 -0.38531,-0.42905 -0.11009,0 -0.20016,-0.0931 -0.20016,-0.20691 0,-0.13644 -0.0787,-0.18243 -0.23102,-0.13503 -0.12706,0.0395 -0.30592,0.0248 -0.39745,-0.0328 -0.12366,-0.0778 -0.0823,-0.1837 0.16094,-0.41221 0.18006,-0.16916 0.296,-0.35833 0.25765,-0.42038 -0.11345,-0.18356 -0.31817,-0.12874 -0.31817,0.0852 0,0.22197 -0.33599,0.26997 -0.46205,0.066 -0.15234,-0.2465 -0.47798,-0.13333 -0.8336,0.28971 -0.19498,0.23195 -0.33586,0.50449 -0.31307,0.60564 0.0296,0.13112 -0.037,0.159 -0.23197,0.0971 -0.35914,-0.11399 -1.0636,0.56943 -1.0636,1.03183 0,0.45962 0.68667,1.01199 1.25804,1.01199 0.54898,0 1.1182,0.24599 1.1182,0.48323 0,0.10061 0.14225,0.17683 0.33003,0.17683 0.18457,0 0.33003,-0.0764 0.33003,-0.17344 z m 4.27871,-3.49041 c 0.74726,-1.85569 1.82378,-4.41612 1.99373,-4.74196 0.29217,-0.56018 0.2459,-0.81759 -0.16553,-0.92085 -0.19895,-0.0499 -0.43654,-0.16559 -0.52797,-0.25702 -0.29018,-0.29018 -1.66223,-0.75111 -2.27862,-0.76548 -0.73298,-0.0171 -0.77697,0.13564 -0.4554,1.58108 0.19225,0.86411 0.25704,0.99294 0.47116,0.93695 0.30733,-0.0804 0.3302,0.20607 0.0359,0.45027 -0.17551,0.14566 -0.19665,0.33726 -0.12199,1.10527 0.0497,0.51099 0.17646,1.34491 0.28173,1.85316 0.34116,1.64719 0.38975,1.69525 0.76694,0.75858 z m 57.76737,-3.06881 c 0,-0.0726 -0.0891,-0.13201 -0.19802,-0.13201 -0.10891,0 -0.19802,0.0594 -0.19802,0.13201 0,0.0726 0.0891,0.13202 0.19802,0.13202 0.10891,0 0.19802,-0.0594 0.19802,-0.13202 z"
       id="path9151" /></g></svg>
