<?xml version="1.0" encoding="UTF-8" standalone="no"?>
<!-- Created with Inkscape (http://www.inkscape.org/) -->

<svg
   version="1.1"
   id="svg1"
   width="870.57111"
   height="795.8125"
   viewBox="0 0 870.5711 795.8125"
   sodipodi:docname="rihlah.svg"
   inkscape:version="1.2.2 (732a01da63, 2022-12-09)"
   xml:space="preserve"
   xmlns:inkscape="http://www.inkscape.org/namespaces/inkscape"
   xmlns:sodipodi="http://sodipodi.sourceforge.net/DTD/sodipodi-0.dtd"
   xmlns:xlink="http://www.w3.org/1999/xlink"
   xmlns="http://www.w3.org/2000/svg"
   xmlns:svg="http://www.w3.org/2000/svg"><defs
     id="defs1"><linearGradient
       inkscape:collect="always"
       id="linearGradient4174"><stop
         style="stop-color:#ff7f2a;stop-opacity:1"
         offset="0"
         id="stop4170" /><stop
         style="stop-color:#ff9955;stop-opacity:0;"
         offset="1"
         id="stop4172" /></linearGradient><inkscape:path-effect
       effect="bspline"
       id="path-effect501"
       is_visible="true"
       lpeversion="1"
       weight="33.333333"
       steps="2"
       helper_size="0"
       apply_no_weight="true"
       apply_with_weight="true"
       only_selected="false" /><inkscape:path-effect
       effect="bspline"
       id="path-effect357"
       is_visible="true"
       lpeversion="1"
       weight="33.333333"
       steps="2"
       helper_size="0"
       apply_no_weight="true"
       apply_with_weight="true"
       only_selected="false" /><clipPath
       clipPathUnits="userSpaceOnUse"
       id="clipPath2681"><rect
         style="fill:#ff9955;fill-opacity:0.347926;stroke:none;stroke-width:17.1549;stroke-opacity:1"
         id="rect2683"
         width="845.96149"
         height="316.20892"
         x="-1509.6766"
         y="-569.56805" /></clipPath><linearGradient
       inkscape:collect="always"
       xlink:href="#linearGradient4174"
       id="linearGradient4176"
       x1="-1127.6841"
       y1="172.11734"
       x2="-1328.0471"
       y2="532.18994"
       gradientUnits="userSpaceOnUse" /></defs><sodipodi:namedview
     id="namedview1"
     pagecolor="#ffffff"
     bordercolor="#cccccc"
     borderopacity="1"
     inkscape:showpageshadow="0"
     inkscape:pageopacity="1"
     inkscape:pagecheckerboard="0"
     inkscape:deskcolor="#d1d1d1"
     showgrid="false"
     inkscape:zoom="0.344375"
     inkscape:cx="-181.4882"
     inkscape:cy="-331.03448"
     inkscape:window-width="1366"
     inkscape:window-height="705"
     inkscape:window-x="-8"
     inkscape:window-y="32"
     inkscape:window-maximized="1"
     inkscape:current-layer="g1" /><g
     inkscape:groupmode="layer"
     inkscape:label="Image"
     id="g1"
     transform="translate(1946.5589,60.187557)"><path
       id="path2037"
       style="fill:url(#linearGradient4176);fill-opacity:1;stroke:none;stroke-width:19.3761;stroke-opacity:1"
       d="m -1244.1585,208.06049 c 0.2673,0.50095 0.6236,0.99583 0.8535,1.49805 5.3368,11.65709 4.698,31.89822 -1.2266,38.88672 -0.8458,0.99779 -1.1376,2.6139 -0.75,4.1582 0.7336,2.9229 -2.6019,15.95907 -5.5761,21.78906 -1.1036,2.1632 -2.8973,4.48712 -3.9844,5.16602 -3.8935,2.43149 -2.1642,16.2432 3.0625,24.46289 1.6757,2.63539 3.5275,6.69082 4.1152,9.01172 0.5878,2.32089 1.5807,4.61039 2.2071,5.08789 0.6264,0.4775 6.7636,3.03684 13.6386,5.68945 25.6964,9.91466 35.2559,15.63204 42.3907,25.35156 5.9811,8.14793 11.2375,23.31132 13.0527,37.65039 0.3481,2.75 0.878,6.2375 1.1758,7.75 l 0.541,2.75 h 18.7851 c 17.7565,0 18.9361,0.11884 21.5411,2.16797 1.5158,1.19235 3.3654,3.62385 4.1093,5.4043 1.4627,3.50073 1.375,5.09071 -4.0703,73.92773 -1.3487,17.04999 -2.7276,34.63853 -3.0644,39.08594 -0.7188,9.48978 -1.7973,12.05117 -6.3731,15.13477 -3.2819,2.21167 -4.0822,2.27929 -26.7343,2.27929 h -23.3536 v 12.5 12.5 h 14.3008 a 186.94603,186.94603 0 0 0 103.5293,-166.36718 186.94603,186.94603 0 0 0 -168.1699,-185.88477 z m -102.5547,19.71094 a 186.94603,186.94603 0 0 0 -91.5312,103.18945 c 11.7794,6.11074 17.6987,11.01255 23.3847,19.52734 4.9235,7.37303 7.3801,15.12974 10.4024,32.85938 l 2.2949,13.46484 h 5.8848 c 6.7543,0 5.5645,2.03092 9.9648,-17 3.0244,-13.08037 9.3576,-26.61402 16.0019,-34.19531 5.7762,-6.59066 12.6395,-10.74074 31.086,-18.79492 8.1097,-3.54087 15.1118,-7.01741 15.5605,-7.72461 0.4487,-0.7072 0.8237,-2.29766 0.8321,-3.53516 0.018,-2.68969 -1.519,-2.82408 -8.3946,-0.73828 -9.8036,2.9741 -18.1534,1.16674 -21.1191,-4.56836 -1.4426,-2.78969 -1.5129,-4.21723 -0.5332,-10.82812 0.6207,-4.1884 1.9849,-11.44024 3.0312,-16.11524 1.7183,-7.67799 1.7498,-8.5967 0.3321,-9.5 -4.7617,-3.03379 -7.3028,-5.8818 -7.3028,-8.1875 0,-3.90919 2.9427,-9.16672 6.7598,-12.07812 3.4491,-2.6308 3.4716,-2.69767 2.7148,-8.19336 -1.0848,-7.87725 -0.8517,-13.71457 0.6309,-17.58203 z" /><path
       style="fill:#000000"
       d="m -1930.3174,735.27286 c -6.6,-0.33327 -13.0397,-1.16606 -14.3103,-1.85064 -2.9172,-1.57162 -2.4793,-4.20437 0.9746,-5.85978 3.2113,-1.53913 23.7765,-4.31948 57.8357,-7.81919 14.025,-1.44112 25.6777,-2.79277 25.8948,-3.00366 0.2172,-0.21089 1.683,-13.10577 3.2574,-28.65528 4.7165,-46.58321 8.844,-86.00244 9.4784,-90.52184 l 0.5965,-4.25 h -16.9657 c -15.9456,0 -17.1667,-0.13548 -20.3095,-2.2534 -7.4022,-4.9884 -9.598,-15.29495 -4.9981,-23.46037 3.8148,-6.77177 5.8469,-7.28622 28.7807,-7.28622 10.9627,0 20.1197,-0.18582 20.3488,-0.41292 0.2292,-0.22711 0.2777,-5.85211 0.1079,-12.5 l -0.3088,-12.08708 -21.6912,-0.004 c -19.7363,-0.003 -21.9792,-0.17935 -24.8869,-1.95226 -6.5444,-3.99039 -6.217,-2.08296 -11.3865,-66.33733 -5.1354,-63.82953 -5.1363,-62.57988 0.046,-67.20667 2.0427,-1.82364 3.9036,-2.02736 21.104,-2.31027 l 18.8637,-0.31026 0.5125,-3.18974 c 0.2819,-1.75435 0.9922,-6.78973 1.5785,-11.18973 2.3297,-17.48345 7.8188,-30.20304 17.1576,-39.75852 4.6646,-4.77279 7.8841,-6.85274 18,-11.6288 6.7757,-3.19902 16.9509,-7.52168 22.6117,-9.60592 10.0059,-3.68384 13.2077,-5.99604 13.2077,-9.53784 0,-0.8725 1.6151,-4.2599 3.5891,-7.5275 2.9051,-4.8091 3.7992,-7.5932 4.6919,-14.6107 l 1.1028,-8.6695 -3.1022,-2.8979 c -1.7062,-1.5938 -3.7444,-4.4426 -4.5293,-6.3305 -2.4466,-5.8846 -4.9647,-17.6881 -4.2523,-19.9325 0.4168,-1.3134 0.1193,-2.7934 -0.7683,-3.8217 -4.1018,-4.7526 -6.2597,-19.8155 -4.2292,-29.5205 1.943,-9.2863 5.8072,-15.8478 13.4684,-22.8699 7.2789,-6.6716 21.0065,-13.8988 29.8283,-15.7038 13.249,-2.7107 30.7979,-0.54 41.4378,5.1257 11.1192,5.9209 18.7016,17.2398 15.8061,23.595 -1.4619,3.2083 -0.3395,11.086 1.9511,13.6951 3.8324,4.3653 4.28,6.4808 3.5805,16.9231 l -0.6756,10.0868 3.6357,3.495 c 7.3644,7.0794 8.2955,12.1809 3.0621,16.7759 -1.8717,1.6434 -3.9687,3.1765 -4.66,3.4069 -0.9637,0.3213 -0.633,3.4393 1.4175,13.3657 3.0743,14.8821 3.3305,21.0238 1.0149,24.3298 -3.318,4.7371 -12.6726,6.5299 -19.4972,3.7366 -7.615,-3.1168 -7.8721,-3.0943 -7.8721,0.6904 0,1.8947 0.6011,3.9438 1.3358,4.5536 0.7348,0.6098 7.6593,3.76878 15.388,7.02004 7.7287,3.25127 16.5325,7.49808 19.5641,9.43736 12.2003,7.80443 21.8836,23.81264 26.7685,44.25297 3.9937,16.71116 3.8146,16.42587 10.3127,16.42587 h 5.2987 l 2.2957,-12.75 c 3.0603,-16.99625 7.1086,-29.39965 12.059,-36.9468 6.2523,-9.53223 13.8566,-14.48488 40.4356,-26.33564 l 17.0419,-7.5985 0.5624,-4.1485 c 0.5927,-4.3711 2.9482,-7.7718 6.0695,-8.7624 1.6739,-0.5313 1.8681,-1.7281 1.8681,-11.5114 v -10.9184 l -4.0301,-2.667 c -5.8329,-3.86 -12.5778,-13.3521 -14.9536,-21.0442 -3.6728,-11.8911 -2.1095,-16.639 5.9005,-17.9199 3.7392,-0.5979 3.8945,-0.7634 2.9784,-3.173 -3.6315,-9.5515 -2.6249,-24.199 2.2976,-33.4346 11.1234,-20.8697 44.8426,-28.482 69.0383,-15.5858 15.6913,8.3634 23.023,24.5034 19.8029,43.5943 -0.6653,3.9447 -1.216,7.5164 -1.2237,7.937 -0.01,0.4207 1.3006,0.6269 2.9073,0.4584 1.7523,-0.1838 3.8473,0.4433 5.2351,1.567 1.9409,1.5717 2.3054,2.7883 2.2626,7.5511 -0.099,11.0067 -5.734,21.4721 -15.2381,28.3002 l -4.9772,3.5757 v 11.371 c 0,10.7704 0.1188,11.4344 2.25,12.5696 3.5656,1.8993 4.6841,4.035 4.7182,9.0094 l 0.032,4.6376 8.25,3.2544 c 4.5375,1.7898 14.55,6.28138 22.25,9.98115 15.6544,7.52177 21.9593,12.43239 28.4585,22.16498 4.9235,7.37303 7.3789,15.13004 10.4012,32.8597 l 2.2953,13.46461 h 5.8851 c 6.7544,0 5.564,2.03094 9.9643,-17 3.0244,-13.08039 9.3579,-26.61473 16.0023,-34.19603 5.7762,-6.59067 12.6396,-10.74022 31.0861,-18.79441 8.1097,-3.54087 15.112,-7.0166 15.5607,-7.7238 0.4487,-0.7072 0.8228,-2.2983 0.8312,-3.5358 0.018,-2.6897 -1.518,-2.825 -8.3936,-0.7392 -9.8036,2.9741 -18.1543,1.1684 -21.12,-4.5667 -1.4426,-2.7897 -1.5129,-4.2179 -0.5332,-10.8288 0.6207,-4.1884 1.9846,-11.4403 3.0309,-16.1153 1.7183,-7.678 1.7505,-8.5967 0.3328,-9.5 -4.7617,-3.0338 -7.3016,-5.882 -7.3016,-8.1877 0,-3.9092 2.942,-9.1663 6.7591,-12.0777 3.4491,-2.6308 3.4713,-2.6978 2.7145,-8.1935 -1.6048,-11.6532 -0.3948,-18.9516 3.614,-21.798 2.1974,-1.5602 3.7424,-11.8131 2.037,-13.5184 -3.8646,-3.8647 2.1669,-15.9387 10.8754,-21.7704 8.4813,-5.6796 16.699,-8.0952 29.5415,-8.6839 9.2926,-0.4259 12.2931,-0.1627 18.9434,1.6618 17.5497,4.8147 33.6002,16.4592 39.0276,28.3142 5.3368,11.6571 4.6988,31.8975 -1.2258,38.886 -0.8458,0.9978 -1.1373,2.6148 -0.7497,4.1591 0.7336,2.9229 -2.6033,15.9579 -5.5775,21.7879 -1.1036,2.1632 -2.8959,4.4885 -3.983,5.1674 -3.8935,2.4315 -2.165,16.242 3.0617,24.4617 1.6757,2.6354 3.5276,6.6904 4.1153,9.0113 0.5878,2.3209 1.5812,4.6104 2.2076,5.0879 0.6264,0.4775 6.7639,3.0385 13.6389,5.69111 25.6964,9.91467 35.2543,15.63059 42.3891,25.35012 5.9811,8.14794 11.2385,23.31202 13.0537,37.65111 0.3481,2.75 0.8767,6.2375 1.1745,7.75 l 0.5416,2.75 h 18.7857 c 17.7565,0 18.9367,0.11877 21.5417,2.1679 1.5158,1.19235 3.3647,3.62464 4.1086,5.40509 1.4627,3.50073 1.3752,5.08992 -4.0701,73.92701 -1.3487,17.05 -2.7278,34.63879 -3.0646,39.0862 -0.7188,9.48979 -1.7969,12.05018 -6.3727,15.13378 -3.2819,2.21168 -4.0832,2.28002 -26.7354,2.28002 h -23.3521 v 12.5 12.5 h 20.7656 c 18.2606,0 21.1798,0.22216 24.1995,1.84163 6.9885,3.74798 9.8262,14.46886 5.8495,22.09982 -4.2063,8.07148 -5.4781,8.51398 -25.507,8.87444 l -17.553,0.31589 0.6625,7.18411 c 1.3347,14.4721 8.6897,87.57103 10.115,100.52948 0.8073,7.33996 1.4679,13.92636 1.4679,14.63645 0,1.6055 1.2508,1.78428 39,5.57429 32.6431,3.27736 42.78,4.91448 46.8198,7.56145 l 2.5457,1.66803 -2.2258,1.80239 c -1.2243,0.99131 -4.119,2.03979 -6.4328,2.32995 -5.9635,0.74784 -821.6603,1.27699 -836.2069,0.54245 z m 138.3352,-37.27818 c 1.7407,-10.07478 3.1648,-18.59891 3.1648,-18.9425 0,-0.34359 -1.9125,-0.76309 -4.25,-0.93221 l -4.25,-0.3075 v -42.25029 -42.25029 l -8.178,2.9e-4 -8.1781,2.9e-4 -0.6667,5.75 c -1.166,10.05624 -11.4922,87.21747 -13.5238,101.05485 -1.0744,7.31767 -1.9534,13.95517 -1.9534,14.75 0,1.20462 2.8852,1.44515 17.3352,1.44515 h 17.3353 z m 588.6738,13.06779 c -0.3732,-2.8875 -1.9616,-14.7 -3.5298,-26.25 -1.5681,-11.55 -4.7074,-35.85 -6.9761,-54 -2.2688,-18.15 -4.3312,-34.0125 -4.5831,-35.25 -0.4293,-2.10866 -0.9629,-2.25 -8.4939,-2.25 h -8.0358 l 0.3048,42.25 0.3049,42.25 -4.75,0.30479 c -2.6125,0.16764 -4.7474,0.39264 -4.7442,0.5 0,0.10737 0.9025,5.37021 1.9987,11.69521 1.0961,6.325 2.5242,14.7625 3.1735,18.75 l 1.1806,7.25 h 17.4145 17.4146 z m -505.509,2.35588 c 0,-0.49177 1.125,-8.18942 2.5,-17.10588 1.375,-8.91646 2.5,-16.81665 2.5,-17.55597 0,-0.93273 -1.7394,-1.43603 -5.6822,-1.64413 -7.1993,-0.37997 -7.1127,-0.0624 -6.2115,-22.7999 0.3815,-9.625 0.7387,-27.2875 0.7937,-39.25 l 0.1,-21.75 h -8.8604 c -4.8733,0 -10.982,-0.29079 -13.575,-0.6462 l -4.7145,-0.6462 0.5765,6.8962 c 0.3171,3.79291 1.9636,22.56077 3.6589,41.70635 1.6953,19.14558 2.8337,35.45808 2.5298,36.25 -0.3834,0.999 -2.1696,1.44403 -5.8339,1.4535 -2.9048,0.008 -6.3233,0.29268 -7.5967,0.63371 -2.2176,0.59389 -2.2857,0.89605 -1.6146,7.16282 0.589,5.49946 1.465,7.71366 5.4941,13.88553 2.6364,4.03851 5.3103,8.90909 5.9421,10.82352 l 1.1488,3.48077 h 14.4224 c 7.9324,0 14.4225,-0.40236 14.4225,-0.89412 z m 415.6329,-2.85588 c 0.842,-2.0625 3.6943,-7.125 6.3385,-11.25 4.0537,-6.32396 4.8872,-8.46597 5.3151,-13.66029 0.583,-7.07634 0.307,-7.30163 -8.9775,-7.32606 -2.855,-0.008 -5.4548,-0.44058 -5.7773,-0.96239 -0.3225,-0.52181 0.7553,-17.50931 2.3952,-37.75 1.6398,-20.24069 3.1179,-38.93876 3.2845,-41.55126 l 0.303,-4.75 h -13.4054 -13.4055 l 0.3983,41.75 0.3982,41.75 -6,0.5 c -3.3,0.275 -5.9383,0.95 -5.8629,1.5 0.075,0.55 1.3969,8.7625 2.9365,18.25 l 2.7993,17.25 h 13.8646 13.8645 z m -207.6809,-1 c 1.278,-4.58146 4.6659,-22.82016 5.5726,-30 l 0.6631,-5.25 h -4.1596 c -2.2878,0 -5.0882,-0.49698 -6.2232,-1.10441 -1.9443,-1.04055 -2.0238,-1.66212 -1.3749,-10.75 0.3787,-5.30507 1.3313,-14.37059 2.1169,-20.14559 1.6437,-12.08404 5.4531,-45.26412 5.4531,-47.49698 0,-1.27842 -2.5404,-1.50302 -17,-1.50302 -9.35,0 -17,0.21455 -17,0.47678 0,0.26224 1.5493,14.09974 3.443,30.75 4.7265,41.55899 5.0862,46.4307 3.563,48.26594 -0.8314,1.00185 -3.0581,1.50728 -6.6403,1.50728 h -5.3893 l 0.6221,4.25 c 0.3422,2.3375 1.9186,10.775 3.5031,18.75 1.5846,7.975 2.8849,14.8375 2.8897,15.25 0.01,0.4125 6.5125,0.75 14.4617,0.75 h 14.453 z m -97.4434,-1.59481 c 1.7487,-5.08997 4.3908,-7.74978 12.2567,-12.33892 10.8392,-6.32378 12.2347,-8.05947 12.2347,-15.21748 v -6.09879 h -13.953 c -13.8877,0 -18.3893,-0.84364 -19.4654,-3.64802 -0.6688,-1.74275 -1.1107,-7.0399 -3.6169,-43.35198 -1.1199,-16.225 -2.2536,-30.5125 -2.5194,-31.75 -0.4682,-2.17918 -0.8555,-2.25 -12.3044,-2.25 h -11.821 l -0.66,24.16193 c -0.3629,13.28906 -0.6599,30.78921 -0.6599,38.88922 0,19.7362 0.6327,18.98737 -17.0982,20.23554 -7.371,0.51889 -13.5948,1.12211 -13.8306,1.3405 -0.2358,0.21839 0.3359,2.82288 1.2705,5.78776 2.1014,6.66643 7.7578,12.6001 14.3788,15.08353 9.4695,3.55185 14.3802,6.55795 16.4536,10.07206 l 2.0496,3.47371 17.982,-0.27212 17.982,-0.27213 z m 204.1666,1.3943 c 1.298,-3.43886 5.2454,-6.06157 14.4099,-9.5743 9.4858,-3.63586 15.4191,-10.1723 17.3472,-19.11063 l 0.6763,-3.13544 -13.1333,-0.7305 c -11.6661,-0.64888 -13.4317,-0.98703 -15.8043,-3.02691 l -2.671,-2.29642 -0.724,-27.83764 c -0.3981,-15.31071 -0.4567,-32.90015 -0.1301,-39.08765 l 0.5939,-11.25 h -12.5586 -12.5587 l -0.5421,4.25 c -0.2982,2.3375 -1.253,15.95 -2.1217,30.25 -2.0554,33.8312 -3.0238,42.49292 -4.9684,44.44107 -1.2223,1.22451 -4.803,1.66619 -16.6917,2.05893 l -15.1357,0.5 -0.3671,2.76075 c -0.2019,1.51841 0.1063,4.51902 0.685,6.66803 1.1039,4.09951 6.2526,8.59884 14.8717,12.99595 4.741,2.41871 8.8744,7.45996 9.7642,11.90878 l 0.6333,3.16649 h 18.6558 18.6557 z m -444.08,-208.54948 c -0.3615,-5.5 -0.9263,-12.1375 -1.2551,-14.75 l -0.5978,-4.75 h -14.8711 c -14.6491,0 -14.8712,0.0328 -14.8712,2.19705 0,2.96142 2.0457,25.04476 2.4366,26.30295 0.1887,0.60744 6.102,1 15.0633,1 h 14.7527 z m 616.7581,2.84912 c 0.3557,-4.20798 0.6467,-10.95798 0.6467,-15 v -7.34912 h -295.5 -295.5 l 0.01,8.25 c 0,4.5375 0.294,11.2875 0.6446,15 l 0.6375,6.75 h 294.2087 294.2086 l 0.6468,-7.65088 z m 57.1411,6.48547 c 0.3683,-0.36597 1.0769,-5.54097 1.5746,-11.5 0.4977,-5.95902 1.0232,-12.1602 1.1679,-13.78039 l 0.2631,-2.9458 -15.6269,-0.36242 -15.6268,-0.36242 -0.617,8.30822 c -0.5423,7.30322 -0.9525,19.39586 -0.7058,20.80822 0.1325,0.75862 28.8022,0.59825 29.5709,-0.16541 z m -677.8243,-58.08459 c -0.3039,-1.7875 -0.8579,-8.5375 -1.2312,-15 l -0.6787,-11.75 h -15.5277 -15.5277 l 0.6768,9.75 c 0.3723,5.3625 0.9507,12.1125 1.2853,15 l 0.6085,5.25 h 15.4736 15.4736 z m 623.4359,-1.56129 c 0.058,-2.57879 0.3957,-9.25622 0.75,-14.83873 l 0.644,-10.15002 -160,-0.34998 c -88,-0.19249 -222.6477,-0.19232 -299.2171,3.7e-4 l -139.2171,0.35035 0.4488,4.14965 c 0.2469,2.28231 0.7179,8.87465 1.0467,14.64965 l 0.5977,10.5 297.4205,0.18871 297.4205,0.18871 z m 60.3195,-7.92302 c 0.367,-6.47113 0.9071,-13.00319 1.2003,-14.51569 l 0.5331,-2.75 h -15.978 -15.9779 l -0.5853,6.75 c -0.3219,3.7125 -0.8693,10.2255 -1.2164,14.47333 l -0.6313,7.72334 15.365,0.27666 c 8.4508,0.15217 15.6481,0.17123 15.9941,0.0424 0.346,-0.12887 0.9294,-5.52887 1.2964,-12 z m -568.6289,-165.69473 c -0.2787,-24.833 -0.4204,-26.5946 -2.3468,-29.1726 -3.1525,-4.2189 -4.7948,-4.9135 -9.0879,-3.8439 -10.1064,2.5182 -12.6597,21.2508 -3.6705,26.9295 1.7553,1.1088 3.4683,3.2069 3.8067,4.6624 0.8981,3.8627 -1.7138,9.2939 -5.1251,10.6575 -4.4309,1.7711 -11.2197,3.049 -13.3034,2.5041 -1.3717,-0.3587 -3.017,0.9494 -6.1007,4.8504 l -4.2223,5.3416 12.3767,1.2339 c 6.8072,0.6787 14.6267,1.6383 17.3767,2.1324 2.75,0.4942 6.2585,0.9514 7.7966,1.0161 l 2.7966,0.1176 z m 437.2034,24.429 c 7.425,-1.0949 15.6629,-1.9928 18.3065,-1.9954 h 4.8066 l -1.8066,-3.0598 c -3.4394,-5.8254 -5.8916,-7.3443 -12.1232,-7.5094 -6.4761,-0.1715 -11.3902,-2.2907 -13.7841,-5.9443 -2.3107,-3.5265 -1.0499,-7.3064 3.859,-11.5696 3.9172,-3.402 4.1468,-3.9132 4.5415,-10.1122 0.3184,-4.9997 -0.046,-7.5741 -1.5574,-10.9899 -3.4081,-7.7044 -10.8696,-8.8945 -15.6402,-2.4946 -1.9759,2.6508 -2.1321,4.3822 -2.6021,28.8356 -0.275,14.3085 -0.3125,26.2019 -0.083,26.4298 0.6448,0.6413 1.6628,0.541 16.0833,-1.5856 z m -209.1942,-7.2744 0.3058,-4.7744 -16.8058,0.2744 -16.8058,0.2744 -0.1125,4 c -0.062,2.2 0.084,4.3485 0.3241,4.7744 0.2402,0.426 7.7158,0.651 16.6125,0.5 l 16.1759,-0.2744 z m 174.025,-30.0513 c 3.0018,-9.5368 6.1692,-23.8743 6.1692,-27.9255 0,-5.2074 -1.6817,-8.2265 -5.6312,-10.1099 -7.786,-3.7129 -10.6602,-1.525 -12.2969,9.3611 -0.6202,4.125 -2.2949,10.9637 -3.7215,15.197 -2.8105,8.3397 -2.6794,10.8438 0.7993,15.2662 2.7772,3.5306 9.7997,6.8237 11.5152,5.4 0.6723,-0.558 2.097,-3.793 3.1659,-7.1889 z m -373.0717,5.3311 c 3.7284,-2.2732 7.2317,-7.4646 7.2372,-10.7245 0,-1.2205 -1.0722,-5.5151 -2.3873,-9.5436 -1.315,-4.0285 -2.9077,-10.6551 -3.5393,-14.7258 -0.6316,-4.0707 -1.6357,-7.9886 -2.2315,-8.7064 -1.2907,-1.5552 -8.1769,-1.7293 -10.8936,-0.2754 -4.6706,2.4996 -6.0698,9.887 -3.5241,18.6055 0.7813,2.6756 2.3117,8.6898 3.4008,13.3648 3.5111,15.0697 4.7947,16.3606 11.9378,12.0054 z m 114.6954,-92.4599 -2.4545,-2.4546 v -22.0454 -22.0455 h -12.1861 c -14.2808,0 -21.7177,-1.5535 -33.4327,-6.9839 -15.5962,-7.2295 -29.77,-18.8718 -40.4609,-33.234697 -9.2283,-12.3978 -14.4598,-25.132 -17.4431,-42.459 -2.0834,-12.1001 -1.4453,-23.3774 2.0933,-36.9967 4.7949,-18.4548002 12.304,-31.2306 26.0537,-44.3275 12.6879,-12.0854 25.3728,-19.4011 41.9808,-24.2115 l 7.895,-2.2867 h 90.5 90.5 l 7.852,2.2749 c 28.253,8.1856 54.0179,30.9393 64.6682,57.11009976 4.6821,11.50540024 6.3735,21.11050024 6.3593,36.11500024 -0.019,20.3411 -4.2061,34.1347 -15.4752,50.9821 -12.5812,18.809097 -36.4908,36.708597 -55.4043,41.477597 -10.7395,2.7079 -21.4627,3.2504 -55,2.7822 l -33,-0.4607 -19.5,14.7508 c -10.725,8.113 -24,18.2274 -29.5,22.4764 -16.7956,12.9755 -19.5247,14.0579 -24.0455,9.5371 z m 51.0527,-66.2955 9.287,-8.25 42.3529,-0.015 c 47.2111,-0.016 49.6053,-0.2703 62.209,-6.595597 19.3677,-9.72 32.4324,-25.2811 37.2686,-44.3896 0.9709,-3.8364 1.6363,-10.4166 1.6236,-16.0576 -0.068,-30.3823002 -17.9667,-54.137 -48.7483,-64.6977 l -8,-2.7447 h -84.5 c -95.5884,0 -88.2125,-0.5814 -105.5,8.3163 -17.5195,9.0171 -29.847,24.8719998 -34.0591,43.8049 -2.1714,9.7598 -1.5306,24.969 1.4484,34.3788 5.74,18.1313 22.7685,36.1528 42.1673,44.6263 6.261,2.734897 7.0294,2.824997 27.1437,3.180897 20.6356,0.3651 20.7084,0.3742 23.25,2.9159 2.5201,2.52 2.5497,2.735 2.5497,18.5247 v 15.9751 l 11.1101,-10.3615 c 6.1105,-5.6987 15.2892,-14.0739 20.3971,-18.6114 z m -68.0072,-54.269397 c -20.9665,-3.1605 -25.2759,-31.6493 -6.1855,-40.8908 14.6944,-7.1134002 31.7696,3.6861 31.6635,20.0262 -0.026,3.9888 -3.1966,11.4135 -6.2901,14.729 -4.3628,4.6761 -12.2146,7.1868 -19.1879,6.1356 z m 69.4355,-2.7306 c -13.9274,-7.0624 -16.1313,-24.3624 -4.4727,-35.1089 4.8422,-4.4634 8.8784,-5.651 16.6637,-4.9029 9.5239,0.9151 18.3751,9.7577 19.5302,19.5114 2.016,17.022 -15.8329,28.5572 -31.7212,20.5004 z m 75.3789,0.3701 c -7.322,-3.4853 -10.6428,-8.7399 -11.1454,-17.6354 -0.2771,-4.9028 0.082,-7.7112 1.3189,-10.3179 6.1724,-13.0075 22.7185,-16.7243002 33.7911,-7.5906 11.2933,9.3157 10.7715,26.0339 -1.0721,34.3492 -6.0707,4.2621 -15.4232,4.7503 -22.8925,1.1947 z"
       id="path3987" /></g></svg>
