<svg xmlns="http://www.w3.org/2000/svg" xmlns:xlink="http://www.w3.org/1999/xlink" width="644.878" height="631.869" xmlns:v="https://vecta.io/nano"><linearGradient id="A" x1="321.503" x2="321.503" y1="89.72" y2="461.263" gradientUnits="userSpaceOnUse"><stop stop-color="#53093b" offset=".006"/><stop stop-color="#d41e44" offset=".314"/><stop stop-color="#faa61a" offset=".888"/><stop stop-color="#ffd800" offset=".993"/></linearGradient><radialGradient id="B" cx="647.71" cy="284.29" r="55.708" gradientUnits="userSpaceOnUse" gradientTransform="matrix(0.81479247,0,0,0.81479247,-1.1543688,89.742462)"><stop stop-color="#f4f3b0" offset=".01"/><stop stop-color="#f9ed32" offset="1"/></radialGradient><linearGradient id="C" x1="175.818" x2="175.818" y1="180.087" y2="304.033" gradientUnits="userSpaceOnUse"><stop stop-color="#fff45f" offset="0"/><stop stop-color="#ea9a97" offset=".995"/></linearGradient><linearGradient id="D" x1="539.525" x2="539.525" y1="114.086" y2="176.062" gradientUnits="userSpaceOnUse"><stop stop-color="#fff45f" offset="0"/><stop stop-color="#ea9a97" offset=".995"/></linearGradient><linearGradient id="E" x1="451.777" x2="451.777" y1="135.271" y2="189.123" gradientUnits="userSpaceOnUse"><stop stop-color="#fff45f" offset="0"/><stop stop-color="#ea9a97" offset=".995"/></linearGradient><linearGradient id="F" x1="201.297" x2="201.297" y1="356.619" y2="402.272" gradientUnits="userSpaceOnUse"><stop stop-color="#fff45f" offset="0"/><stop stop-color="#ea9a97" offset=".995"/></linearGradient><linearGradient id="G" x1="61.585" x2="61.585" y1="334.099" y2="379.751" gradientUnits="userSpaceOnUse"><stop stop-color="#fff45f" offset="0"/><stop stop-color="#ea9a97" offset=".995"/></linearGradient><linearGradient id="H" x1="486.523" x2="486.523" y1="325.168" y2="370.821" gradientUnits="userSpaceOnUse"><stop stop-color="#fff45f" offset="0"/><stop stop-color="#ea9a97" offset=".995"/></linearGradient><linearGradient id="I" x1="433.081" x2="433.081" y1="328.721" y2="390.694" gradientUnits="userSpaceOnUse"><stop stop-color="#fff45f" offset="0"/><stop stop-color="#ea9a97" offset=".995"/></linearGradient><linearGradient id="J" x1="321.47" x2="321.47" y1="324.378" y2="487.646" gradientUnits="userSpaceOnUse"><stop stop-color="#f5887b" offset=".005"/><stop stop-color="#484a9f" offset="1"/></linearGradient><linearGradient id="K" x1="321.503" x2="321.503" y1="356.155" y2="470.218" gradientUnits="userSpaceOnUse"><stop stop-color="#a65f67" offset="0"/><stop stop-color="#4a0e37" offset="1"/></linearGradient><linearGradient id="L" x1="321.503" x2="321.503" y1="409.817" y2="542.237" gradientUnits="userSpaceOnUse"><stop stop-color="#76234f" offset="0"/><stop stop-color="#691b45" offset=".076"/><stop stop-color="#520933" offset=".207"/><stop stop-color="#400025" offset=".303"/><stop stop-color="#38001d" offset=".352"/><stop stop-color="#33001d" offset=".39"/><stop stop-color="#29001e" offset=".477"/><stop stop-color="#20001f" offset=".567"/><stop stop-color="#190020" offset=".657"/><stop stop-color="#150020" offset=".75"/><stop stop-color="#130020" offset=".849"/></linearGradient><linearGradient id="M" x1="321.715" x2="321.715" y1="453.026" y2="561.165" gradientUnits="userSpaceOnUse"><stop stop-color="#76234f" offset="0"/><stop stop-color="#691b45" offset=".076"/><stop stop-color="#520933" offset=".207"/><stop stop-color="#400025" offset=".303"/><stop stop-color="#38001d" offset=".352"/><stop stop-color="#33001d" offset=".39"/><stop stop-color="#29001e" offset=".477"/><stop stop-color="#20001f" offset=".567"/><stop stop-color="#190020" offset=".657"/><stop stop-color="#150020" offset=".75"/><stop stop-color="#130020" offset=".849"/></linearGradient><linearGradient id="N" x1="321.911" x2="321.911" y1="497.685" y2="632.82" gradientUnits="userSpaceOnUse"><stop stop-color="#76234f" offset="0"/><stop stop-color="#691b45" offset=".076"/><stop stop-color="#520933" offset=".207"/><stop stop-color="#400025" offset=".303"/><stop stop-color="#38001d" offset=".352"/><stop stop-color="#33001d" offset=".39"/><stop stop-color="#29001e" offset=".477"/><stop stop-color="#20001f" offset=".567"/><stop stop-color="#190020" offset=".657"/><stop stop-color="#150020" offset=".75"/><stop stop-color="#130020" offset=".849"/></linearGradient><path d="M-1.154 89.742h645.316v371.545H-1.154z" fill="url(#A)"/><circle cx="526.587" cy="321.388" r="45.384" fill="url(#B)"/><g opacity=".59" fill="#f1f2f2"><use xlink:href="#P"/><path d="M394.835 172.444c2.607 0 2.607-4.074 0-4.074s-2.607 4.074 0 4.074z"/><use xlink:href="#Q"/><use xlink:href="#Q" x="56.221" y="34.222"/><use xlink:href="#Q" x="185.773" y="174.366"/><use xlink:href="#Q" x="259.104" y="118.145"/><use xlink:href="#Q" x="355.25" y="187.402"/><use xlink:href="#Q" x="440.803" y="120.589"/><use xlink:href="#Q" x="399.249" y="64.369"/><use xlink:href="#Q" x="470.135" y="-26.888"/><use xlink:href="#Q" x="-109.182" y="187.402"/><use xlink:href="#Q" x="-126.292" y="74.146"/><use xlink:href="#Q" x="-53.776" y="11.407"/><use xlink:href="#P" x="-204.512" y="15.481"/><use xlink:href="#P" x="-183.328" y="66.813"/><use xlink:href="#P" x="105.923" y="37.481"/><use xlink:href="#P" x="14.667" y="120.589"/><use xlink:href="#P" x="-133.625" y="233.031"/><use xlink:href="#P" x="-56.22" y="161.329"/></g><path d="M61.585 295.885c-13.607-3.178-22.325-16.54-19.718-29.984 2.607-13.77 16.296-23.14 30.31-20.533-.815-8.881 5.215-16.948 13.851-18.74 8.555-1.793 17.192 3.096 20.044 11.407-.489-2.444-2.689-14.829 5.215-26.888 7.659-11.814 19.474-14.911 21.999-15.481 1.548-8.392 8.311-14.748 16.296-15.481 9.126-.896 18.007 5.704 19.881 15.481 13.281-4.807 27.947-.733 36.34 9.778 7.089 8.963 8.555 21.266 4.074 32.184 5.459-8.963 15.888-13.689 26.073-11.815 10.511 1.956 18.822 10.511 20.37 21.185.489-.244 11.407-6.192 21.999 0 7.496 4.4 11.733 13.118 10.592 21.999 3.992-5.459 10.755-7.252 15.481-4.889 4.807 2.444 6.844 10.022 5.378 15.318-5.866 20.533-68.117 22.977-68.117 22.977s-39.436 1.874-80.664 1.63c-38.947-.244-58.421-2.281-66.813-3.259a480.89 480.89 0 0 1-32.592-4.889z" opacity=".68" fill="url(#C)"/><path d="M465.07 171.955c-8.881-1.548-14.503-8.311-12.874-14.992 1.711-6.926 10.592-11.57 19.799-10.266-.489-4.4 3.422-8.474 9.044-9.37 5.541-.896 11.244 1.548 13.118 5.704-.326-1.222-1.711-7.415 3.341-13.444 4.97-5.867 12.711-7.415 14.34-7.741.978-4.237 5.459-7.333 10.592-7.741 5.948-.407 11.733 2.852 12.955 7.741 8.637-2.363 18.251-.407 23.71 4.889 4.644 4.481 5.622 10.674 2.689 16.051 3.504-4.481 10.348-6.844 17.029-5.867 6.844.978 12.222 5.215 13.281 10.592.326-.163 7.415-3.096 14.34 0 4.889 2.2 7.659 6.518 6.926 11 2.607-2.77 7.007-3.667 10.103-2.444 3.178 1.222 4.481 4.97 3.504 7.659-3.83 10.266-44.406 11.489-44.406 11.489s-25.747.978-52.636.815c-25.422-.163-38.132-1.141-43.591-1.63-8.8-.733-16.133-1.711-21.266-2.444z" opacity=".82" fill="url(#D)"/><path d="M502.876 185.562c6.029-1.385 9.94-7.17 8.8-13.037-1.141-6.029-7.252-10.022-13.526-8.881.326-3.83-2.363-7.333-6.192-8.148-3.83-.733-7.659 1.385-8.963 4.97.244-1.059 1.222-6.437-2.281-11.652-3.422-5.133-8.718-6.437-9.777-6.763-.652-3.667-3.748-6.355-7.252-6.763-4.074-.407-8.066 2.526-8.881 6.763-5.948-2.118-12.466-.326-16.214 4.237-3.178 3.911-3.83 9.289-1.793 14.014-2.444-3.911-7.089-5.948-11.652-5.133-4.726.815-8.392 4.563-9.126 9.207-.244-.082-5.052-2.689-9.778 0-3.341 1.874-5.215 5.704-4.726 9.533-1.793-2.363-4.807-3.178-6.926-2.118s-3.096 4.318-2.363 6.681c2.607 8.881 30.392 9.94 30.392 9.94s17.6.815 36.014.733c17.355-.082 26.073-.978 29.821-1.385a265.65 265.65 0 0 0 14.422-2.2z" opacity=".92" fill="url(#E)"/><path d="M148.36 399.282c-6.274-1.141-10.348-6.111-9.126-11.081 1.222-5.052 7.578-8.555 14.096-7.578-.407-3.259 2.444-6.274 6.437-6.926s7.985 1.141 9.289 4.237c-.244-.896-1.222-5.459 2.363-9.94 3.585-4.318 9.044-5.459 10.185-5.704.733-3.096 3.83-5.459 7.578-5.704 4.237-.326 8.311 2.118 9.207 5.704 6.192-1.793 12.955-.244 16.866 3.585 3.259 3.259 3.992 7.822 1.874 11.814 2.526-3.341 7.333-5.052 12.059-4.318 4.889.733 8.718 3.83 9.452 7.822.244-.082 5.296-2.281 10.185 0 3.504 1.63 5.459 4.807 4.889 8.066 1.874-2.037 4.97-2.689 7.17-1.793s3.178 3.667 2.444 5.622c-2.689 7.578-31.532 8.474-31.532 8.474s-18.333.733-37.399.57c-18.088-.082-27.133-.815-30.962-1.222-6.192-.407-11.407-1.141-15.074-1.63z" opacity=".79" fill="url(#F)"/><path d="M8.623 376.712c-6.274-1.141-10.348-6.111-9.126-11.081 1.222-5.052 7.578-8.555 14.096-7.578-.407-3.259 2.444-6.274 6.437-6.926s7.985 1.141 9.289 4.237c-.244-.896-1.222-5.459 2.363-9.94 3.585-4.318 9.044-5.459 10.185-5.704.733-3.096 3.83-5.459 7.578-5.704 4.237-.326 8.311 2.118 9.207 5.704 6.192-1.793 12.955-.244 16.866 3.585 3.259 3.259 3.992 7.822 1.874 11.814 2.526-3.341 7.333-5.052 12.059-4.318 4.889.733 8.718 3.83 9.452 7.822.244-.082 5.296-2.281 10.185 0 3.504 1.63 5.459 4.807 4.889 8.066 1.874-2.037 4.97-2.689 7.17-1.793s3.178 3.667 2.444 5.622c-2.689 7.578-31.532 8.474-31.532 8.474s-18.333.733-37.399.57c-18.088-.082-27.133-.815-30.962-1.222-6.192-.407-11.407-1.059-15.074-1.63z" opacity=".79" fill="url(#G)"/><path d="M433.537 367.831c-6.274-1.141-10.348-6.111-9.126-11.081 1.222-5.052 7.578-8.555 14.096-7.578-.407-3.259 2.444-6.274 6.437-6.926s7.985 1.141 9.289 4.237c-.244-.896-1.222-5.459 2.363-9.94 3.585-4.318 9.044-5.459 10.185-5.704.733-3.096 3.83-5.459 7.578-5.704 4.237-.326 8.311 2.118 9.207 5.704 6.192-1.793 12.955-.244 16.866 3.585 3.259 3.259 3.992 7.822 1.874 11.814 2.526-3.341 7.333-5.052 12.059-4.318 4.889.733 8.718 3.83 9.452 7.822.244-.082 5.296-2.281 10.185 0 3.504 1.63 5.459 4.807 4.889 8.066 1.874-2.037 4.97-2.689 7.17-1.793s3.178 3.667 2.444 5.622c-2.689 7.578-31.532 8.474-31.532 8.474s-18.333.733-37.399.57c-18.088-.082-27.133-.815-30.962-1.222-6.192-.407-11.326-1.141-15.074-1.63z" opacity=".79" fill="url(#H)"/><path d="M354.91 386.571c-9.289-1.548-15.237-8.311-13.526-14.992 1.793-6.926 11.163-11.57 20.777-10.266-.57-4.4 3.585-8.474 9.452-9.37s11.733 1.548 13.77 5.704c-.326-1.222-1.793-7.415 3.585-13.444 5.215-5.867 13.363-7.415 15.074-7.741 1.059-4.237 5.704-7.333 11.163-7.741 6.274-.407 12.303 2.852 13.607 7.741 9.126-2.363 19.148-.407 24.851 4.889 4.807 4.481 5.867 10.674 2.77 16.133 3.748-4.481 10.837-6.844 17.844-5.867 7.252.978 12.874 5.215 13.933 10.592.326-.163 7.822-3.096 15.074 0 5.133 2.2 7.985 6.518 7.252 11 2.77-2.77 7.415-3.667 10.592-2.444 3.341 1.222 4.726 4.97 3.667 7.659-3.992 10.266-46.525 11.489-46.606 11.489 0 0-26.97.978-55.161.815-26.644-.163-40.006-1.141-45.71-1.63-9.289-.815-16.948-1.793-22.407-2.526z" opacity=".79" fill="url(#I)"/><path d="M644.161 399.038l-8.718-10.429c.082.815.815 9.94-4.155 16.377-4.481 5.785-10.103 4.807-10.918 4.644-1.711.163-11.977 1.059-19.311-9.37-2.852-4.074-4.318-8.555-5.052-11.652l-13.444 10.511c-11.733-15.318-27.296-32.836-46.932-49.05-13.526-11.081-26.318-19.392-37.725-25.666-4.074 10.348-15.074 34.547-36.829 51.332-20.696 15.97-40.088 16.703-48.562 16.377-2.526-.896-7.415-3.178-11.733-9.37-2.037-2.852-3.341-5.785-4.155-8.148-6.844 10.511-18.007 25.259-34.384 37.317-19.555 14.503-61.843 22.081-67.057 16.377-7.007-7.822-6.763-19.718-6.681-21.022l-20.125 24.525c-9.533-10.674-22.325-22.977-38.54-33.814-14.666-9.859-28.273-15.97-39.354-19.799-9.615 10.185-39.192 39.68-74.554 45.547-16.051 2.689-34.303 8.555-42.695-5.867-6.6-11.163-4.074-28.436-2.526-36.177-12.955 9.452-26.888 21.266-41.066 36.177-4.4 4.644-8.637 9.37-12.548 14.014-4.807-1.467-17.925-10.348-17.925-10.348l-.326 66.08 645.316-3.422" fill="url(#J)"/><path d="M-1.154 409.386l9.859-8.392c-.081.57-.815 6.926 4.074 11.407 4.4 3.992 9.859 3.341 10.592 3.259 1.711.163 11.652.733 18.74-6.518 2.77-2.852 4.155-5.948 4.889-8.148l13.037 7.333c11.407-10.755 26.562-22.977 45.628-34.221 13.118-7.741 25.584-13.526 36.666-17.925 3.992 7.252 14.666 24.118 35.851 35.851 20.125 11.163 38.947 11.652 47.258 11.407 2.444-.652 7.252-2.2 11.407-6.518 1.956-2.037 3.259-4.074 4.074-5.704 6.6 7.333 17.518 17.6 33.406 26.073 18.985 10.103 60.132 15.481 65.183 11.407 6.763-5.459 6.518-13.77 6.518-14.666l19.555 17.111c9.289-7.415 21.755-16.051 37.48-23.629 14.259-6.926 27.459-11.163 38.295-13.851 9.37 7.089 38.132 27.703 72.517 31.777 15.644 1.874 33.325 6.029 41.554-4.074 6.355-7.822 3.911-19.799 2.444-25.259 12.629 6.6 26.155 14.829 39.925 25.259 4.318 3.259 8.392 6.518 12.222 9.778 4.726-1.059 11-3.015 17.437-7.252 6.844-4.481 16.703-8.311 16.785-8.474v54.836l-645.397-2.444" fill="url(#K)"/><path d="M-.747 430.244c15.644-7.007 35.281-13.851 58.258-17.6 65.591-10.755 110.404 11.407 183.328 29.088 34.466 8.311 81.642 12.874 175.995 21.999 100.219 9.696 227.327 16.785 227.327 16.785v31.288L-1.154 542.278z" fill="url(#L)"/><path d="M-.747 458.762c56.954 17.029 155.788 43.673 272.141 19.637 12.303-2.526 8.066-2.118 30.147-7.333 107.145-25.422 342.62-16.54 342.62-16.54v78.057c0-.57-437.788 84.657-643.93-36.34-1.304-27.051-.163-2.607-.815-32.51-.081-1.548-.081-3.178-.163-4.97z" fill="url(#M)"/><path d="M644.161 497.709c-95.005 16.991-202.15 28.52-319.562 28.641A1835.05 1835.05 0 0 1-.34 497.709v135.196h644.501z" fill="url(#N)"/><path d="M1.111 2.221h644.211v94.41H1.111z" fill="#5c0a3c" stroke="#4d4d4d" stroke-width=".1"/><defs ><path id="P" d="M266.097 120.623c1.956 0 1.956-3.096 0-3.096s-1.956 3.096 0 3.096z"/><path id="Q" d="M160.174 145.311c1.304 0 1.304-2.037 0-2.037-1.304.081-1.304 2.037 0 2.037z"/></defs></svg>