<?xml version="1.0" encoding="UTF-8" standalone="no"?>
<!-- Created with Inkscape (http://www.inkscape.org/) -->

<svg
   version="1.1"
   id="svg1"
   width="969.23456"
   height="569.56775"
   viewBox="0 0 969.23457 569.56775"
   sodipodi:docname="message.svg"
   inkscape:version="1.2.2 (732a01da63, 2022-12-09)"
   inkscape:export-filename="message.png"
   inkscape:export-xdpi="96"
   inkscape:export-ydpi="96"
   xmlns:inkscape="http://www.inkscape.org/namespaces/inkscape"
   xmlns:sodipodi="http://sodipodi.sourceforge.net/DTD/sodipodi-0.dtd"
   xmlns="http://www.w3.org/2000/svg"
   xmlns:svg="http://www.w3.org/2000/svg">
  <defs
     id="defs1">
    <inkscape:path-effect
       effect="fillet_chamfer"
       id="path-effect573"
       is_visible="true"
       lpeversion="1"
       nodesatellites_param="F,0,0,1,0,0,0,1 @ F,0,0,1,0,0,0,1 @ F,0,0,1,0,0,0,1 @ F,0,0,1,0,0,0,1 @ F,0,0,1,0,11.627169,0,1 @ F,0,0,1,0,11.627169,0,1 @ F,0,0,1,0,0,0,1 @ F,0,0,1,0,0,0,1 @ F,0,0,1,0,19.382657,0,1 @ F,0,0,1,0,0,0,1 @ F,0,0,1,0,0,0,1 @ F,0,0,1,0,0,0,1"
       unit="px"
       method="auto"
       mode="F"
       radius="0"
       chamfer_steps="1"
       flexible="false"
       use_knot_distance="true"
       apply_no_radius="true"
       apply_with_radius="true"
       only_selected="false"
       hide_knots="false" />
    <inkscape:path-effect
       effect="fillet_chamfer"
       id="path-effect2546"
       is_visible="true"
       lpeversion="1"
       nodesatellites_param="F,0,0,1,0,0,0,1 @ F,0,0,1,0,0,0,1 @ F,0,0,1,0,0,0,1 @ F,0,0,1,0,0,0,1 @ F,0,0,1,0,11.627169,0,1 @ F,0,0,1,0,11.627169,0,1 @ F,0,0,1,0,0,0,1 @ F,0,0,1,0,0,0,1 @ F,0,0,1,0,19.382657,0,1 @ F,0,0,1,0,0,0,1 @ F,0,0,1,0,0,0,1 @ F,0,0,1,0,0,0,1"
       unit="px"
       method="auto"
       mode="F"
       radius="0"
       chamfer_steps="1"
       flexible="false"
       use_knot_distance="true"
       apply_no_radius="true"
       apply_with_radius="true"
       only_selected="false"
       hide_knots="false" />
    <inkscape:path-effect
       effect="fillet_chamfer"
       id="path-effect2495"
       is_visible="true"
       lpeversion="1"
       nodesatellites_param="F,0,0,1,0,0,0,1 @ F,0,0,1,0,0,0,1 @ F,0,0,1,0,0,0,1 @ F,0,0,1,0,0,0,1 @ F,0,0,1,0,8.8258403,0,1 @ F,0,0,1,0,0,0,1 @ F,0,0,1,0,0,0,1 @ F,0,0,1,0,0,0,1 @ F,0,0,1,0,0,0,1 @ F,0,0,1,0,5.5629554,0,1 @ F,0,0,1,0,0,0,1 @ F,0,0,1,0,0,0,1 @ F,0,0,1,0,0,0,1"
       unit="px"
       method="auto"
       mode="F"
       radius="0"
       chamfer_steps="1"
       flexible="false"
       use_knot_distance="true"
       apply_no_radius="true"
       apply_with_radius="true"
       only_selected="false"
       hide_knots="false" />
    <inkscape:path-effect
       effect="bspline"
       id="path-effect1126"
       is_visible="true"
       lpeversion="1"
       weight="33.333333"
       steps="2"
       helper_size="0"
       apply_no_weight="true"
       apply_with_weight="true"
       only_selected="false" />
    <inkscape:path-effect
       effect="bspline"
       id="path-effect1112"
       is_visible="true"
       lpeversion="1"
       weight="33.333333"
       steps="2"
       helper_size="0"
       apply_no_weight="true"
       apply_with_weight="true"
       only_selected="false" />
    <clipPath
       clipPathUnits="userSpaceOnUse"
       id="clipPath674">
      <g
         id="g680">
        <g
           id="g678"
           transform="matrix(2.1313795,0,0,-2.1313795,-720.85744,413.16197)">
          <path
             d="M 0,500 H 500 V 0 H 0 Z"
             id="path676" />
        </g>
      </g>
    </clipPath>
    <clipPath
       clipPathUnits="userSpaceOnUse"
       id="clipPath689">
      <g
         id="g695">
        <g
           id="g693"
           transform="matrix(1.3333333,0,0,-1.3333333,133.79038,268.50005)">
          <path
             d="M 0,500 H 500 V 0 H 0 Z"
             id="path691" />
        </g>
      </g>
    </clipPath>
    <clipPath
       clipPathUnits="userSpaceOnUse"
       id="clipPath704">
      <g
         id="g710">
        <g
           id="g708"
           transform="matrix(2.1313795,0,0,-2.1313795,-720.85744,413.16197)">
          <path
             d="M 0,500 H 500 V 0 H 0 Z"
             id="path706" />
        </g>
      </g>
    </clipPath>
    <clipPath
       clipPathUnits="userSpaceOnUse"
       id="clipPath719">
      <g
         id="g725">
        <g
           id="g723"
           transform="matrix(1.3333333,0,0,-1.3333333,133.79038,268.50005)">
          <path
             d="M 0,500 H 500 V 0 H 0 Z"
             id="path721" />
        </g>
      </g>
    </clipPath>
  </defs>
  <sodipodi:namedview
     id="namedview1"
     pagecolor="#ffffff"
     bordercolor="#cccccc"
     borderopacity="1"
     inkscape:showpageshadow="0"
     inkscape:pageopacity="1"
     inkscape:pagecheckerboard="0"
     inkscape:deskcolor="#d1d1d1"
     showgrid="false"
     inkscape:zoom="0.3535534"
     inkscape:cx="219.2031"
     inkscape:cy="-62.225395"
     inkscape:window-width="1366"
     inkscape:window-height="705"
     inkscape:window-x="-8"
     inkscape:window-y="32"
     inkscape:window-maximized="1"
     inkscape:current-layer="g1" />
  <g
     inkscape:groupmode="layer"
     inkscape:label="Image"
     id="g1"
     transform="translate(160.8925,475.22046)">
    <rect
       style="fill:#020617;fill-opacity:1;stroke:none;stroke-width:31.0487;stroke-dasharray:none;stroke-opacity:0.168627"
       id="rect4544"
       width="989.42719"
       height="594.24176"
       x="-171.94504"
       y="-482.42755"
       ry="0" />
    <path
       style="color:#000000;fill:#ffffff;fill-opacity:0;stroke:#3b3b3b;stroke-width:30;stroke-dasharray:none;stroke-opacity:0.168717"
       d="m 254.87075,-329.47266 c -64.0222,0 -116.18945,52.16483 -116.18945,116.1875 v 19.60157 c 0,64.02267 52.16725,116.187496 116.18945,116.187496 h 45.38476 c 14.52493,1.361286 15.17746,2.672089 26.25392,11.927735 13.82207,12.764839 32.41453,29.697565 48.33008,40.269531 10.04288,6.671018 18.29208,12.447643 32.39648,10.779297 7.0522,-0.834174 15.30545,-5.803964 19.27735,-12 3.97189,-6.196037 4.75654,-12.099403 4.91211,-17.392578 l 0.0508,-1.681641 -0.23241,-1.667969 c -1.18091,-8.470564 -2.78889,-17.623181 -4.75586,-26.898437 -2.46295,-15.962778 -0.57171,-12.4787 10.07812,-18.59375 35.07464,-20.011274 58.63086,-57.789064 58.63086,-100.929684 v -19.60157 c 0,-64.02267 -52.16726,-116.1875 -116.18946,-116.1875 z m 0,40 h 124.13672 c 42.55464,0 76.18946,33.63336 76.18946,76.1875 v 19.60157 c 0,31.49357 -18.66603,57.9327 -45.40625,69.6914 -1.33141,0.29496 -3.43237,0.465 -7.74219,3.98438 -2.29951,1.87777 -5.34276,5.36577 -6.71679,10.21679 -0.75052,2.64966 -0.78323,5.31567 -0.50586,7.78125 -2.8013,1.87581 -6.41938,4.981171 -8.64063,10.066411 -2.45426,5.618704 -2.16723,11.88243 -1.02344,16.097656 0.0186,0.06865 0.0381,0.136386 0.0566,0.205078 0.0326,0.120709 0.0639,0.240144 0.0957,0.359375 v 0.002 l 0.002,0.002 c 0.82099,3.071499 1.42904,6.378855 2.11133,9.609375 -10.92954,-8.617434 -24.64358,-20.812869 -34.84961,-30.246093 -2.07324,-1.916256 -4.10038,-3.905395 -5.81641,-5.566412 -0.85801,-0.8305 -1.58365,-1.53951 -2.5625,-2.41211 -0.48942,-0.4363 -0.92383,-0.86525 -2.22461,-1.79883 -0.65038,-0.46679 -1.33997,-1.08115 -3.71679,-2.13672 -1.18841,-0.52778 -2.78268,-1.29552 -6.16992,-1.63671 -1.17766,-0.11863 -2.83329,-0.0308 -4.625,0.21484 -0.65175,-0.74006 -1.16195,-1.43244 -2.07618,-2.25195 -3.1577,-2.83057 -9.14562,-5.99414 -15.45898,-5.99414 h -55.05664 c -42.55464,0 -76.18945,-33.63336 -76.18945,-76.1875 v -19.60157 c 0,-42.55414 33.63481,-76.1875 76.18945,-76.1875 z"
       id="path3486"
       sodipodi:nodetypes="ssssccssscccccsssscssscsscsscccccsssssscssssscc" />
    <path
       style="color:#000000;fill:#2d93b2;fill-opacity:1;-inkscape-stroke:none;stroke:#3b3b3b;stroke-opacity:0.16871703"
       d="m 250.87075,-329.47266 c -64.0222,0 -116.18945,52.16483 -116.18945,116.1875 v 19.60157 c 0,64.02267 52.16725,116.187496 116.18945,116.187496 h 45.38476 c 14.52493,1.361286 15.17746,2.672089 26.25392,11.927735 13.82207,12.764839 32.41453,29.697565 48.33008,40.269531 10.04288,6.671018 18.29208,12.447643 32.39648,10.779297 7.0522,-0.834174 15.30545,-5.803964 19.27735,-12 3.97189,-6.196037 4.75654,-12.099403 4.91211,-17.392578 l 0.0508,-1.681641 -0.23241,-1.667969 c -1.18091,-8.470564 -2.78889,-17.623181 -4.75586,-26.898437 -2.46295,-15.962778 -0.57171,-12.4787 10.07812,-18.59375 35.07464,-20.011274 58.63086,-57.789064 58.63086,-100.929684 v -19.60157 c 0,-64.02267 -52.16726,-116.1875 -116.18946,-116.1875 z m 0,40 h 124.13672 c 42.55464,0 76.18946,33.63336 76.18946,76.1875 v 19.60157 c 0,31.49357 -18.66603,57.9327 -45.40625,69.6914 -1.33141,0.29496 -3.43237,0.465 -7.74219,3.98438 -2.29951,1.87777 -5.34276,5.36577 -6.71679,10.21679 -0.75052,2.64966 -0.78323,5.31567 -0.50586,7.78125 -2.8013,1.87581 -6.41938,4.981171 -8.64063,10.066411 -2.45426,5.618704 -2.16723,11.88243 -1.02344,16.097656 0.0186,0.06865 0.0381,0.136386 0.0566,0.205078 0.0326,0.120709 0.0639,0.240144 0.0957,0.359375 v 0.002 l 0.002,0.002 c 0.82099,3.071499 1.42904,6.378855 2.11133,9.609375 -10.92954,-8.617434 -24.64358,-20.812869 -34.84961,-30.246093 -2.07324,-1.916256 -4.10038,-3.905395 -5.81641,-5.566412 -0.85801,-0.8305 -1.58365,-1.53951 -2.5625,-2.41211 -0.48942,-0.4363 -0.92383,-0.86525 -2.22461,-1.79883 -0.65038,-0.46679 -1.33997,-1.08115 -3.71679,-2.13672 -1.18841,-0.52778 -2.78268,-1.29552 -6.16992,-1.63671 -1.17766,-0.11863 -2.83329,-0.0308 -4.625,0.21484 -0.65175,-0.74006 -1.16195,-1.43244 -2.07618,-2.25195 -3.1577,-2.83057 -9.14562,-5.99414 -15.45898,-5.99414 h -55.05664 c -42.55464,0 -76.18945,-33.63336 -76.18945,-76.1875 v -19.60157 c 0,-42.55414 33.63481,-76.1875 76.18945,-76.1875 z"
       id="path1898"
       sodipodi:nodetypes="ssssccssscccccsssscssscsscsscccccsssssscssssscc" />
    <rect
       style="fill:#2d91b0;fill-opacity:1;stroke:none;stroke-width:30;stroke-dasharray:none;stroke-opacity:0.168627"
       id="rect6443"
       width="257"
       height="80"
       x="178.1075"
       y="-233.22046" />
    <rect
       style="fill:#cccccc;fill-opacity:0.847059;stroke-width:0"
       id="rect2544"
       width="260.92239"
       height="6.3639612"
       x="182.76457"
       y="-196.77975"
       ry="3.1819806" />
    <path
       id="path2442"
       style="color:#000000;fill:#5db9d6;fill-opacity:1;stroke:none;stroke-width:0;stroke-dasharray:none;stroke-opacity:1"
       d="m 250.87046,-309.4721 c -53.28847,0 -96.18945,42.89904 -96.18945,96.1875 v 19.60156 c 0,53.28846 42.90098,96.187499 96.18945,96.187499 h 55.05664 c 6.4215,0 15.43002,3.554436 20.12305,7.9375 0.24322,0.227158 4.23742,3.973397 8.95312,8.332031 13.70888,12.670833 33.16885,30.145049 46.90235,39.267578 16.93883,11.251679 25.16659,9.799722 25.52929,-2.541015 -1.65397,-11.863859 -3.70087,-24.533712 -6.9707,-36.583985 -2.80088,-10.322081 2.34651,-19.845798 12.1875,-24.011718 34.4747,-14.59392 58.54492,-48.67391 58.54492,-88.58789 v -19.60156 c 0,-53.28846 -42.90098,-96.1875 -96.18945,-96.1875 z m -12.88477,85.9082 c 16.005,0 29.04103,13.03603 29.04103,29.04102 0,16.00499 -13.03603,29.04101 -29.04103,29.04101 -16.00498,0 -29.04101,-13.03602 -29.04101,-29.04101 0,-16.00499 13.03603,-29.04102 29.04101,-29.04102 z m 74.95313,0 c 16.005,-1e-5 29.04102,13.03602 29.04102,29.04102 0,16.00499 -13.03602,29.04101 -29.04102,29.04101 -16.00499,0 -29.04102,-13.03602 -29.04102,-29.04101 0,-16.00499 13.03603,-29.04102 29.04102,-29.04102 z m 74.95313,0 c 16.005,0 29.04297,13.03603 29.04297,29.04102 0,16.00499 -13.03797,29.04101 -29.04297,29.04101 -16.00498,0 -29.04102,-13.03602 -29.04102,-29.04101 0,-16.00499 13.03603,-29.04102 29.04102,-29.04102 z m -149.90625,5.7793 c -12.88185,1e-5 -23.2617,10.37986 -23.26171,23.26172 1e-5,12.88186 10.37986,23.26367 23.26171,23.26367 12.88187,0 23.26366,-10.38181 23.26368,-23.26367 -2e-5,-12.88186 -10.38181,-23.26171 -23.26368,-23.26172 z m 74.95312,0 c -12.88186,1e-5 -23.26172,10.37986 -23.26172,23.26172 0,12.88186 10.37985,23.26367 23.26172,23.26367 12.88187,1e-5 23.26367,-10.38181 23.26367,-23.26367 0,-12.88187 -10.3818,-23.26172 -23.26367,-23.26172 z m 74.95313,0 c -12.88185,1e-5 -23.26171,10.37986 -23.26171,23.26172 0,12.88186 10.37986,23.26367 23.26171,23.26367 12.88187,0 23.26366,-10.38181 23.26368,-23.26367 -10e-6,-12.88186 -10.38181,-23.26171 -23.26368,-23.26172 z" />
    <path
       style="fill:#800000;fill-opacity:0.847059;stroke:none;stroke-width:7.74138;stroke-opacity:1"
       d="m 467.959,-97.14102 c -4.15863,6.28576 -13.35215,13.546769 -21.56689,17.68592 l 51.69992,45.034574 c 7.67894,6.688972 17.71768,7.646818 22.50846,2.147015 4.79076,-5.499793 2.34133,-15.173491 -5.21384,-22.001934 z"
       id="path2439"
       sodipodi:nodetypes="cccssc" />
    <path
       style="fill:#800000;fill-opacity:0.847059;stroke:none;stroke-width:7.74138;stroke-opacity:1"
       d="m 130.41931,-381.92834 c -2.87135,0.2846 -5.40556,1.43782 -7.20211,3.50024 -4.79077,5.4998 -2.4651,15.31298 5.21384,22.00195 l 42.70034,37.32066 c 6.31038,-6.1366 13.85941,-11.09406 22.77631,-15.2053 l -48.18202,-41.97029 c -4.79934,-4.18061 -10.52079,-6.12162 -15.30636,-5.64726 z"
       id="rect1813"
       sodipodi:nodetypes="ssccccs" />
    <path
       d="m 749.01556,-273.24994 h 0.15467 c 3.18533,0 5.78933,2.60533 5.78933,5.788 0,3.184 -2.604,5.788 -5.78933,5.788 h -0.15467 c -3.184,0 -5.788,-2.604 -5.788,-5.788 0,-3.18267 2.604,-5.788 5.788,-5.788 m -345.42932,0 h 17.76266 c -0.284,-1.13333 -0.43467,-2.45467 -0.43467,-4.00133 0,-13.05467 10.58267,-23.63734 23.63734,-23.63734 5.28266,0 10.16,1.73334 14.09733,4.66267 -0.007,-0.22 -0.009,-0.44 -0.009,-0.66133 0,-13.05467 10.58133,-23.63734 23.636,-23.63734 7.452,0 14.09733,3.44934 18.42933,8.83734 3.22667,-1.652 6.88267,-2.584 10.75467,-2.584 1.3,0 2.572,0.10666 3.81333,0.308 -10e-4,-0.10267 -0.004,-0.204 -0.004,-0.308 0,-13.05467 10.584,-23.63734 23.63733,-23.63734 4.836,0 9.332,1.45334 13.07733,3.94534 5.17467,-11.78533 16.948,-20.016 30.644,-20.016 16.08267,0 29.51334,11.34933 32.72267,26.47466 3.14133,-1.544 6.676,-2.412 10.41333,-2.412 11.12667,0 20.456,7.68934 22.96934,18.044 3.13466,-1.53466 6.65733,-2.39866 10.38266,-2.39866 11.18534,0 20.556,7.77066 23.00934,18.20666 3.35999,-5.384 9.33466,-8.968 16.14799,-8.968 10.504,0 19.01867,8.51467 19.01867,19.01734 0,4.91333 -1.86133,9.39066 -4.92,12.76533 h 20.58933 c 3.184,0 5.788,2.60533 5.788,5.788 0,3.184 -2.604,5.788 -5.788,5.788 H 403.58624 c -3.184,0 -5.788,-2.604 -5.788,-5.788 0,-3.18267 2.604,-5.788 5.788,-5.788"
       style="fill:#96bbe5;fill-opacity:1;fill-rule:evenodd;stroke:#c1d8f0;stroke-width:1.33333;stroke-opacity:1"
       id="path294"
       clip-path="url(#clipPath719)" />
    <path
       d="m 615.66277,-254.30207 c -3.86133,0 -7.02267,3.16 -7.02267,7.02133 v 0 c 0,3.86134 3.16134,7.02134 7.02267,7.02134 h 0.18933 c 3.86134,0 7.02,-3.16 7.02,-7.02134 v 0 c 0,-3.86133 -3.15866,-7.02133 -7.02,-7.02133 z m -165.63066,0 h 6.636 c 2.02666,0 3.68666,-1.65867 3.68666,-3.68667 0,-2.028 -1.252,-3.68533 -3.68666,-3.68533 h -18.008 c 0.26666,-12.82267 10.74666,-23.136 23.63333,-23.136 7.452,0 14.096,3.44933 18.42933,8.83733 3.22534,-1.652 6.88134,-2.584 10.75334,-2.584 1.3,0 2.572,0.10667 3.81466,0.308 -0.001,-0.10266 -0.004,-0.20533 -0.004,-0.308 0,-13.05333 10.58267,-23.63733 23.636,-23.63733 4.836,0 9.332,1.45333 13.07734,3.94533 5.176,-11.78533 16.948,-20.01733 30.64399,-20.01733 16.08267,0 29.51334,11.35067 32.72267,26.476 3.14267,-1.544 6.676,-2.41333 10.41333,-2.41333 11.128,0 20.45867,7.68933 22.96934,18.04533 3.13466,-1.53467 6.65866,-2.39867 10.384,-2.39867 10.70666,0 19.75066,7.11867 22.65733,16.88267 h -96.46533 c -2.02667,0 -3.68667,1.65733 -3.68667,3.68533 0,2.028 1.71333,3.68667 3.68667,3.68667 h 29.77466 c 3.86267,0 7.02134,3.16 7.02134,7.02133 v 0 c 0,3.86134 -3.15867,7.02134 -7.02134,7.02134 H 450.03211 c -3.86134,0 -7.02,-3.16 -7.02,-7.02134 v 0 c 0,-3.86133 3.15866,-7.02133 7.02,-7.02133"
       style="fill:#c1d8f0;fill-opacity:1;fill-rule:evenodd;stroke:#96bbe5;stroke-width:1.33333;stroke-opacity:1"
       id="path298"
       clip-path="url(#clipPath689)" />
    <path
       d="m -37.827253,-105.02136 c 3.795987,0 7.436383,0.66712 10.810357,1.8884 -0.279211,-2.26992 -0.424145,-4.58246 -0.424145,-6.92485 0,-30.93058 25.0735487,-56.00413 56.001997,-56.00413 17.281225,0 32.731595,7.82856 43.004844,20.13301 4.218,-4.08372 9.962068,-6.59662 16.298659,-6.59662 12.941741,0 23.434521,10.49278 23.434521,23.43452 0,0.17904 -0.002,0.35807 -0.006,0.53498 5.53946,1.51541 10.27965,4.97677 13.43622,9.60399 8.63422,-18.88402 27.68875,-32.00905 49.81247,-32.00905 28.62443,0 52.11436,21.97239 54.53347,49.97232 12.18084,4.004862 20.97704,15.471684 20.97704,28.995287 0,3.388893 -0.54989,6.647772 -1.57082,9.693514 h 13.20602 c 5.72915,0 10.41605,4.684772 10.41605,10.41392 0,5.727017 -4.6869,10.41392 -10.41605,10.41392 h -41.21022 -0.9442 -44.99129 -212.368523 -55.270933 c -5.727017,0 -10.411794,-4.686903 -10.411794,-10.41392 0,-5.729148 4.684777,-10.41392 10.411794,-10.41392 h 25.433751 c -1.253251,-3.41447 -1.935292,-7.099625 -1.935292,-10.946765 0,-17.547648 14.224827,-31.774606 31.772474,-31.774606"
       style="fill:#96bbe5;fill-opacity:1;fill-rule:evenodd;stroke:#c1d8f0;stroke-width:2.13138;stroke-opacity:1"
       id="path310"
       clip-path="url(#clipPath704)" />
    <path
       d="m -32.883945,-29.68839 c 6.172475,0 11.223844,5.051369 11.223844,11.225976 0,6.170343 -5.051369,11.2217129 -11.223844,11.2217129 h -0.304787 c -6.172475,0 -11.221713,-5.0513699 -11.221713,-11.2217129 0,-6.174607 5.049238,-11.225976 11.221713,-11.225976 z m 236.896435,0 h -10.60574 c -3.24183,0 -5.89327,-2.651436 -5.89327,-5.891133 0,-3.241828 2.00137,-5.891133 5.89327,-5.891133 h 8.91769 c 0.6863,-2.152693 1.05716,-4.446058 1.05716,-6.824677 0,-9.957805 -6.47513,-18.400199 -15.4461,-21.350028 -1.77971,-20.612572 -19.07585,-36.789739 -40.1488,-36.789739 -16.288,0 -30.31674,9.66154 -36.67251,23.564529 -2.32321,-3.405945 -5.81441,-5.952943 -9.89387,-7.071917 0.004,-0.127883 0.004,-0.26216 0.004,-0.390043 0,-9.531529 -7.724115,-17.255649 -17.253513,-17.255649 -4.661326,0 -8.892115,1.85004 -11.997535,4.85528 -7.564266,-9.05836 -18.937307,-14.82161 -31.661642,-14.82161 -22.771659,0 -41.23153664,18.462009 -41.23153664,41.231537 0,1.728548 0.10870036,3.429389 0.31544417,5.100391 -2.48518853,-0.899442 -5.16646393,-1.391791 -7.96070243,-1.391791 -12.9182911,0 -23.3918901,10.473599 -23.3918901,23.394021 0,2.715378 0.460378,5.324186 1.31293,7.749696 h 50.358103 c 3.239697,0 5.891133,2.649305 5.891133,5.889002 0,3.241828 -2.736691,5.893264 -5.891133,5.893264 H 3.3921341 c -6.1746064,0 -11.2259758,5.051369 -11.2259758,11.225976 0,6.170343 5.0513694,11.2217129 11.2259758,11.2217129 H 204.01249 c 6.17461,0 11.22385,-5.0513699 11.22385,-11.2217129 0,-6.174607 -5.04924,-11.225976 -11.22385,-11.225976"
       style="fill:#c1d8f0;fill-opacity:1;fill-rule:evenodd;stroke:#000000;stroke-width:2.13138;stroke-opacity:0.16862746"
       id="path314"
       clip-path="url(#clipPath674)" />
  </g>
  <script
     id="mesh_polyfill"
     type="text/javascript">
!function(){const t=&quot;http://www.w3.org/2000/svg&quot;,e=&quot;http://www.w3.org/1999/xlink&quot;,s=&quot;http://www.w3.org/1999/xhtml&quot;,r=2;if(document.createElementNS(t,&quot;meshgradient&quot;).x)return;const n=(t,e,s,r)=&gt;{let n=new x(.5*(e.x+s.x),.5*(e.y+s.y)),o=new x(.5*(t.x+e.x),.5*(t.y+e.y)),i=new x(.5*(s.x+r.x),.5*(s.y+r.y)),a=new x(.5*(n.x+o.x),.5*(n.y+o.y)),h=new x(.5*(n.x+i.x),.5*(n.y+i.y)),l=new x(.5*(a.x+h.x),.5*(a.y+h.y));return[[t,o,a,l],[l,h,i,r]]},o=t=&gt;{let e=t[0].distSquared(t[1]),s=t[2].distSquared(t[3]),r=.25*t[0].distSquared(t[2]),n=.25*t[1].distSquared(t[3]),o=e&gt;s?e:s,i=r&gt;n?r:n;return 18*(o&gt;i?o:i)},i=(t,e)=&gt;Math.sqrt(t.distSquared(e)),a=(t,e)=&gt;t.scale(2/3).add(e.scale(1/3)),h=t=&gt;{let e,s,r,n,o,i,a,h=new g;return t.match(/(\w+\(\s*[^)]+\))+/g).forEach(t=&gt;{let l=t.match(/[\w.-]+/g),d=l.shift();switch(d){case&quot;translate&quot;:2===l.length?e=new g(1,0,0,1,l[0],l[1]):(console.error(&quot;mesh.js: translate does not have 2 arguments!&quot;),e=new g(1,0,0,1,0,0)),h=h.append(e);break;case&quot;scale&quot;:1===l.length?s=new g(l[0],0,0,l[0],0,0):2===l.length?s=new g(l[0],0,0,l[1],0,0):(console.error(&quot;mesh.js: scale does not have 1 or 2 arguments!&quot;),s=new g(1,0,0,1,0,0)),h=h.append(s);break;case&quot;rotate&quot;:if(3===l.length&amp;&amp;(e=new g(1,0,0,1,l[1],l[2]),h=h.append(e)),l[0]){r=l[0]*Math.PI/180;let t=Math.cos(r),e=Math.sin(r);Math.abs(t)&lt;1e-16&amp;&amp;(t=0),Math.abs(e)&lt;1e-16&amp;&amp;(e=0),a=new g(t,e,-e,t,0,0),h=h.append(a)}else console.error(&quot;math.js: No argument to rotate transform!&quot;);3===l.length&amp;&amp;(e=new g(1,0,0,1,-l[1],-l[2]),h=h.append(e));break;case&quot;skewX&quot;:l[0]?(r=l[0]*Math.PI/180,n=Math.tan(r),o=new g(1,0,n,1,0,0),h=h.append(o)):console.error(&quot;math.js: No argument to skewX transform!&quot;);break;case&quot;skewY&quot;:l[0]?(r=l[0]*Math.PI/180,n=Math.tan(r),i=new g(1,n,0,1,0,0),h=h.append(i)):console.error(&quot;math.js: No argument to skewY transform!&quot;);break;case&quot;matrix&quot;:6===l.length?h=h.append(new g(...l)):console.error(&quot;math.js: Incorrect number of arguments for matrix!&quot;);break;default:console.error(&quot;mesh.js: Unhandled transform type: &quot;+d)}}),h},l=t=&gt;{let e=[],s=t.split(/[ ,]+/);for(let t=0,r=s.length-1;t&lt;r;t+=2)e.push(new x(parseFloat(s[t]),parseFloat(s[t+1])));return e},d=(t,e)=&gt;{for(let s in e)t.setAttribute(s,e[s])},c=(t,e,s,r,n)=&gt;{let o,i,a=[0,0,0,0];for(let h=0;h&lt;3;++h)e[h]&lt;t[h]&amp;&amp;e[h]&lt;s[h]||t[h]&lt;e[h]&amp;&amp;s[h]&lt;e[h]?a[h]=0:(a[h]=.5*((e[h]-t[h])/r+(s[h]-e[h])/n),o=Math.abs(3*(e[h]-t[h])/r),i=Math.abs(3*(s[h]-e[h])/n),a[h]&gt;o?a[h]=o:a[h]&gt;i&amp;&amp;(a[h]=i));return a},u=[[1,0,0,0,0,0,0,0,0,0,0,0,0,0,0,0],[0,0,0,0,1,0,0,0,0,0,0,0,0,0,0,0],[-3,3,0,0,-2,-1,0,0,0,0,0,0,0,0,0,0],[2,-2,0,0,1,1,0,0,0,0,0,0,0,0,0,0],[0,0,0,0,0,0,0,0,1,0,0,0,0,0,0,0],[0,0,0,0,0,0,0,0,0,0,0,0,1,0,0,0],[0,0,0,0,0,0,0,0,-3,3,0,0,-2,-1,0,0],[0,0,0,0,0,0,0,0,2,-2,0,0,1,1,0,0],[-3,0,3,0,0,0,0,0,-2,0,-1,0,0,0,0,0],[0,0,0,0,-3,0,3,0,0,0,0,0,-2,0,-1,0],[9,-9,-9,9,6,3,-6,-3,6,-6,3,-3,4,2,2,1],[-6,6,6,-6,-3,-3,3,3,-4,4,-2,2,-2,-2,-1,-1],[2,0,-2,0,0,0,0,0,1,0,1,0,0,0,0,0],[0,0,0,0,2,0,-2,0,0,0,0,0,1,0,1,0],[-6,6,6,-6,-4,-2,4,2,-3,3,-3,3,-2,-1,-2,-1],[4,-4,-4,4,2,2,-2,-2,2,-2,2,-2,1,1,1,1]],f=t=&gt;{let e=[];for(let s=0;s&lt;16;++s){e[s]=0;for(let r=0;r&lt;16;++r)e[s]+=u[s][r]*t[r]}return e},p=(t,e,s)=&gt;{const r=e*e,n=s*s,o=e*e*e,i=s*s*s;return t[0]+t[1]*e+t[2]*r+t[3]*o+t[4]*s+t[5]*s*e+t[6]*s*r+t[7]*s*o+t[8]*n+t[9]*n*e+t[10]*n*r+t[11]*n*o+t[12]*i+t[13]*i*e+t[14]*i*r+t[15]*i*o},y=t=&gt;{let e=[],s=[],r=[];for(let s=0;s&lt;4;++s)e[s]=[],e[s][0]=n(t[0][s],t[1][s],t[2][s],t[3][s]),e[s][1]=[],e[s][1].push(...n(...e[s][0][0])),e[s][1].push(...n(...e[s][0][1])),e[s][2]=[],e[s][2].push(...n(...e[s][1][0])),e[s][2].push(...n(...e[s][1][1])),e[s][2].push(...n(...e[s][1][2])),e[s][2].push(...n(...e[s][1][3]));for(let t=0;t&lt;8;++t){s[t]=[];for(let r=0;r&lt;4;++r)s[t][r]=[],s[t][r][0]=n(e[0][2][t][r],e[1][2][t][r],e[2][2][t][r],e[3][2][t][r]),s[t][r][1]=[],s[t][r][1].push(...n(...s[t][r][0][0])),s[t][r][1].push(...n(...s[t][r][0][1])),s[t][r][2]=[],s[t][r][2].push(...n(...s[t][r][1][0])),s[t][r][2].push(...n(...s[t][r][1][1])),s[t][r][2].push(...n(...s[t][r][1][2])),s[t][r][2].push(...n(...s[t][r][1][3]))}for(let t=0;t&lt;8;++t){r[t]=[];for(let e=0;e&lt;8;++e)r[t][e]=[],r[t][e][0]=s[t][0][2][e],r[t][e][1]=s[t][1][2][e],r[t][e][2]=s[t][2][2][e],r[t][e][3]=s[t][3][2][e]}return r};class x{constructor(t,e){this.x=t||0,this.y=e||0}toString(){return`(x=${this.x}, y=${this.y})`}clone(){return new x(this.x,this.y)}add(t){return new x(this.x+t.x,this.y+t.y)}scale(t){return void 0===t.x?new x(this.x*t,this.y*t):new x(this.x*t.x,this.y*t.y)}distSquared(t){let e=this.x-t.x,s=this.y-t.y;return e*e+s*s}transform(t){let e=this.x*t.a+this.y*t.c+t.e,s=this.x*t.b+this.y*t.d+t.f;return new x(e,s)}}class g{constructor(t,e,s,r,n,o){void 0===t?(this.a=1,this.b=0,this.c=0,this.d=1,this.e=0,this.f=0):(this.a=t,this.b=e,this.c=s,this.d=r,this.e=n,this.f=o)}toString(){return`affine: ${this.a} ${this.c} ${this.e} \n       ${this.b} ${this.d} ${this.f}`}append(t){t instanceof g||console.error(&quot;mesh.js: argument to Affine.append is not affine!&quot;);let e=this.a*t.a+this.c*t.b,s=this.b*t.a+this.d*t.b,r=this.a*t.c+this.c*t.d,n=this.b*t.c+this.d*t.d,o=this.a*t.e+this.c*t.f+this.e,i=this.b*t.e+this.d*t.f+this.f;return new g(e,s,r,n,o,i)}}class w{constructor(t,e){this.nodes=t,this.colors=e}paintCurve(t,e){if(o(this.nodes)&gt;r){const s=n(...this.nodes);let r=[[],[]],o=[[],[]];for(let t=0;t&lt;4;++t)r[0][t]=this.colors[0][t],r[1][t]=(this.colors[0][t]+this.colors[1][t])/2,o[0][t]=r[1][t],o[1][t]=this.colors[1][t];let i=new w(s[0],r),a=new w(s[1],o);i.paintCurve(t,e),a.paintCurve(t,e)}else{let s=Math.round(this.nodes[0].x);if(s&gt;=0&amp;&amp;s&lt;e){let r=4*(~~this.nodes[0].y*e+s);t[r]=Math.round(this.colors[0][0]),t[r+1]=Math.round(this.colors[0][1]),t[r+2]=Math.round(this.colors[0][2]),t[r+3]=Math.round(this.colors[0][3])}}}}class m{constructor(t,e){this.nodes=t,this.colors=e}split(){let t=[[],[],[],[]],e=[[],[],[],[]],s=[[[],[]],[[],[]]],r=[[[],[]],[[],[]]];for(let s=0;s&lt;4;++s){const r=n(this.nodes[0][s],this.nodes[1][s],this.nodes[2][s],this.nodes[3][s]);t[0][s]=r[0][0],t[1][s]=r[0][1],t[2][s]=r[0][2],t[3][s]=r[0][3],e[0][s]=r[1][0],e[1][s]=r[1][1],e[2][s]=r[1][2],e[3][s]=r[1][3]}for(let t=0;t&lt;4;++t)s[0][0][t]=this.colors[0][0][t],s[0][1][t]=this.colors[0][1][t],s[1][0][t]=(this.colors[0][0][t]+this.colors[1][0][t])/2,s[1][1][t]=(this.colors[0][1][t]+this.colors[1][1][t])/2,r[0][0][t]=s[1][0][t],r[0][1][t]=s[1][1][t],r[1][0][t]=this.colors[1][0][t],r[1][1][t]=this.colors[1][1][t];return[new m(t,s),new m(e,r)]}paint(t,e){let s,n=!1;for(let t=0;t&lt;4;++t)if((s=o([this.nodes[0][t],this.nodes[1][t],this.nodes[2][t],this.nodes[3][t]]))&gt;r){n=!0;break}if(n){let s=this.split();s[0].paint(t,e),s[1].paint(t,e)}else{new w([...this.nodes[0]],[...this.colors[0]]).paintCurve(t,e)}}}class b{constructor(t){this.readMesh(t),this.type=t.getAttribute(&quot;type&quot;)||&quot;bilinear&quot;}readMesh(t){let e=[[]],s=[[]],r=Number(t.getAttribute(&quot;x&quot;)),n=Number(t.getAttribute(&quot;y&quot;));e[0][0]=new x(r,n);let o=t.children;for(let t=0,r=o.length;t&lt;r;++t){e[3*t+1]=[],e[3*t+2]=[],e[3*t+3]=[],s[t+1]=[];let r=o[t].children;for(let n=0,o=r.length;n&lt;o;++n){let o=r[n].children;for(let r=0,i=o.length;r&lt;i;++r){let i=r;0!==t&amp;&amp;++i;let h,d=o[r].getAttribute(&quot;path&quot;),c=&quot;l&quot;;null!=d&amp;&amp;(c=(h=d.match(/\s*([lLcC])\s*(.*)/))[1]);let u=l(h[2]);switch(c){case&quot;l&quot;:0===i?(e[3*t][3*n+3]=u[0].add(e[3*t][3*n]),e[3*t][3*n+1]=a(e[3*t][3*n],e[3*t][3*n+3]),e[3*t][3*n+2]=a(e[3*t][3*n+3],e[3*t][3*n])):1===i?(e[3*t+3][3*n+3]=u[0].add(e[3*t][3*n+3]),e[3*t+1][3*n+3]=a(e[3*t][3*n+3],e[3*t+3][3*n+3]),e[3*t+2][3*n+3]=a(e[3*t+3][3*n+3],e[3*t][3*n+3])):2===i?(0===n&amp;&amp;(e[3*t+3][3*n+0]=u[0].add(e[3*t+3][3*n+3])),e[3*t+3][3*n+1]=a(e[3*t+3][3*n],e[3*t+3][3*n+3]),e[3*t+3][3*n+2]=a(e[3*t+3][3*n+3],e[3*t+3][3*n])):(e[3*t+1][3*n]=a(e[3*t][3*n],e[3*t+3][3*n]),e[3*t+2][3*n]=a(e[3*t+3][3*n],e[3*t][3*n]));break;case&quot;L&quot;:0===i?(e[3*t][3*n+3]=u[0],e[3*t][3*n+1]=a(e[3*t][3*n],e[3*t][3*n+3]),e[3*t][3*n+2]=a(e[3*t][3*n+3],e[3*t][3*n])):1===i?(e[3*t+3][3*n+3]=u[0],e[3*t+1][3*n+3]=a(e[3*t][3*n+3],e[3*t+3][3*n+3]),e[3*t+2][3*n+3]=a(e[3*t+3][3*n+3],e[3*t][3*n+3])):2===i?(0===n&amp;&amp;(e[3*t+3][3*n+0]=u[0]),e[3*t+3][3*n+1]=a(e[3*t+3][3*n],e[3*t+3][3*n+3]),e[3*t+3][3*n+2]=a(e[3*t+3][3*n+3],e[3*t+3][3*n])):(e[3*t+1][3*n]=a(e[3*t][3*n],e[3*t+3][3*n]),e[3*t+2][3*n]=a(e[3*t+3][3*n],e[3*t][3*n]));break;case&quot;c&quot;:0===i?(e[3*t][3*n+1]=u[0].add(e[3*t][3*n]),e[3*t][3*n+2]=u[1].add(e[3*t][3*n]),e[3*t][3*n+3]=u[2].add(e[3*t][3*n])):1===i?(e[3*t+1][3*n+3]=u[0].add(e[3*t][3*n+3]),e[3*t+2][3*n+3]=u[1].add(e[3*t][3*n+3]),e[3*t+3][3*n+3]=u[2].add(e[3*t][3*n+3])):2===i?(e[3*t+3][3*n+2]=u[0].add(e[3*t+3][3*n+3]),e[3*t+3][3*n+1]=u[1].add(e[3*t+3][3*n+3]),0===n&amp;&amp;(e[3*t+3][3*n+0]=u[2].add(e[3*t+3][3*n+3]))):(e[3*t+2][3*n]=u[0].add(e[3*t+3][3*n]),e[3*t+1][3*n]=u[1].add(e[3*t+3][3*n]));break;case&quot;C&quot;:0===i?(e[3*t][3*n+1]=u[0],e[3*t][3*n+2]=u[1],e[3*t][3*n+3]=u[2]):1===i?(e[3*t+1][3*n+3]=u[0],e[3*t+2][3*n+3]=u[1],e[3*t+3][3*n+3]=u[2]):2===i?(e[3*t+3][3*n+2]=u[0],e[3*t+3][3*n+1]=u[1],0===n&amp;&amp;(e[3*t+3][3*n+0]=u[2])):(e[3*t+2][3*n]=u[0],e[3*t+1][3*n]=u[1]);break;default:console.error(&quot;mesh.js: &quot;+c+&quot; invalid path type.&quot;)}if(0===t&amp;&amp;0===n||r&gt;0){let e=window.getComputedStyle(o[r]).stopColor.match(/^rgb\s*\(\s*(\d+)\s*,\s*(\d+)\s*,\s*(\d+)\s*\)$/i),a=window.getComputedStyle(o[r]).stopOpacity,h=255;a&amp;&amp;(h=Math.floor(255*a)),e&amp;&amp;(0===i?(s[t][n]=[],s[t][n][0]=Math.floor(e[1]),s[t][n][1]=Math.floor(e[2]),s[t][n][2]=Math.floor(e[3]),s[t][n][3]=h):1===i?(s[t][n+1]=[],s[t][n+1][0]=Math.floor(e[1]),s[t][n+1][1]=Math.floor(e[2]),s[t][n+1][2]=Math.floor(e[3]),s[t][n+1][3]=h):2===i?(s[t+1][n+1]=[],s[t+1][n+1][0]=Math.floor(e[1]),s[t+1][n+1][1]=Math.floor(e[2]),s[t+1][n+1][2]=Math.floor(e[3]),s[t+1][n+1][3]=h):3===i&amp;&amp;(s[t+1][n]=[],s[t+1][n][0]=Math.floor(e[1]),s[t+1][n][1]=Math.floor(e[2]),s[t+1][n][2]=Math.floor(e[3]),s[t+1][n][3]=h))}}e[3*t+1][3*n+1]=new x,e[3*t+1][3*n+2]=new x,e[3*t+2][3*n+1]=new x,e[3*t+2][3*n+2]=new x,e[3*t+1][3*n+1].x=(-4*e[3*t][3*n].x+6*(e[3*t][3*n+1].x+e[3*t+1][3*n].x)+-2*(e[3*t][3*n+3].x+e[3*t+3][3*n].x)+3*(e[3*t+3][3*n+1].x+e[3*t+1][3*n+3].x)+-1*e[3*t+3][3*n+3].x)/9,e[3*t+1][3*n+2].x=(-4*e[3*t][3*n+3].x+6*(e[3*t][3*n+2].x+e[3*t+1][3*n+3].x)+-2*(e[3*t][3*n].x+e[3*t+3][3*n+3].x)+3*(e[3*t+3][3*n+2].x+e[3*t+1][3*n].x)+-1*e[3*t+3][3*n].x)/9,e[3*t+2][3*n+1].x=(-4*e[3*t+3][3*n].x+6*(e[3*t+3][3*n+1].x+e[3*t+2][3*n].x)+-2*(e[3*t+3][3*n+3].x+e[3*t][3*n].x)+3*(e[3*t][3*n+1].x+e[3*t+2][3*n+3].x)+-1*e[3*t][3*n+3].x)/9,e[3*t+2][3*n+2].x=(-4*e[3*t+3][3*n+3].x+6*(e[3*t+3][3*n+2].x+e[3*t+2][3*n+3].x)+-2*(e[3*t+3][3*n].x+e[3*t][3*n+3].x)+3*(e[3*t][3*n+2].x+e[3*t+2][3*n].x)+-1*e[3*t][3*n].x)/9,e[3*t+1][3*n+1].y=(-4*e[3*t][3*n].y+6*(e[3*t][3*n+1].y+e[3*t+1][3*n].y)+-2*(e[3*t][3*n+3].y+e[3*t+3][3*n].y)+3*(e[3*t+3][3*n+1].y+e[3*t+1][3*n+3].y)+-1*e[3*t+3][3*n+3].y)/9,e[3*t+1][3*n+2].y=(-4*e[3*t][3*n+3].y+6*(e[3*t][3*n+2].y+e[3*t+1][3*n+3].y)+-2*(e[3*t][3*n].y+e[3*t+3][3*n+3].y)+3*(e[3*t+3][3*n+2].y+e[3*t+1][3*n].y)+-1*e[3*t+3][3*n].y)/9,e[3*t+2][3*n+1].y=(-4*e[3*t+3][3*n].y+6*(e[3*t+3][3*n+1].y+e[3*t+2][3*n].y)+-2*(e[3*t+3][3*n+3].y+e[3*t][3*n].y)+3*(e[3*t][3*n+1].y+e[3*t+2][3*n+3].y)+-1*e[3*t][3*n+3].y)/9,e[3*t+2][3*n+2].y=(-4*e[3*t+3][3*n+3].y+6*(e[3*t+3][3*n+2].y+e[3*t+2][3*n+3].y)+-2*(e[3*t+3][3*n].y+e[3*t][3*n+3].y)+3*(e[3*t][3*n+2].y+e[3*t+2][3*n].y)+-1*e[3*t][3*n].y)/9}}this.nodes=e,this.colors=s}paintMesh(t,e){let s=(this.nodes.length-1)/3,r=(this.nodes[0].length-1)/3;if(&quot;bilinear&quot;===this.type||s&lt;2||r&lt;2){let n;for(let o=0;o&lt;s;++o)for(let s=0;s&lt;r;++s){let r=[];for(let t=3*o,e=3*o+4;t&lt;e;++t)r.push(this.nodes[t].slice(3*s,3*s+4));let i=[];i.push(this.colors[o].slice(s,s+2)),i.push(this.colors[o+1].slice(s,s+2)),(n=new m(r,i)).paint(t,e)}}else{let n,o,a,h,l,d,u;const x=s,g=r;s++,r++;let w=new Array(s);for(let t=0;t&lt;s;++t){w[t]=new Array(r);for(let e=0;e&lt;r;++e)w[t][e]=[],w[t][e][0]=this.nodes[3*t][3*e],w[t][e][1]=this.colors[t][e]}for(let t=0;t&lt;s;++t)for(let e=0;e&lt;r;++e)0!==t&amp;&amp;t!==x&amp;&amp;(n=i(w[t-1][e][0],w[t][e][0]),o=i(w[t+1][e][0],w[t][e][0]),w[t][e][2]=c(w[t-1][e][1],w[t][e][1],w[t+1][e][1],n,o)),0!==e&amp;&amp;e!==g&amp;&amp;(n=i(w[t][e-1][0],w[t][e][0]),o=i(w[t][e+1][0],w[t][e][0]),w[t][e][3]=c(w[t][e-1][1],w[t][e][1],w[t][e+1][1],n,o));for(let t=0;t&lt;r;++t){w[0][t][2]=[],w[x][t][2]=[];for(let e=0;e&lt;4;++e)n=i(w[1][t][0],w[0][t][0]),o=i(w[x][t][0],w[x-1][t][0]),w[0][t][2][e]=n&gt;0?2*(w[1][t][1][e]-w[0][t][1][e])/n-w[1][t][2][e]:0,w[x][t][2][e]=o&gt;0?2*(w[x][t][1][e]-w[x-1][t][1][e])/o-w[x-1][t][2][e]:0}for(let t=0;t&lt;s;++t){w[t][0][3]=[],w[t][g][3]=[];for(let e=0;e&lt;4;++e)n=i(w[t][1][0],w[t][0][0]),o=i(w[t][g][0],w[t][g-1][0]),w[t][0][3][e]=n&gt;0?2*(w[t][1][1][e]-w[t][0][1][e])/n-w[t][1][3][e]:0,w[t][g][3][e]=o&gt;0?2*(w[t][g][1][e]-w[t][g-1][1][e])/o-w[t][g-1][3][e]:0}for(let s=0;s&lt;x;++s)for(let r=0;r&lt;g;++r){let n=i(w[s][r][0],w[s+1][r][0]),o=i(w[s][r+1][0],w[s+1][r+1][0]),c=i(w[s][r][0],w[s][r+1][0]),x=i(w[s+1][r][0],w[s+1][r+1][0]),g=[[],[],[],[]];for(let t=0;t&lt;4;++t){(d=[])[0]=w[s][r][1][t],d[1]=w[s+1][r][1][t],d[2]=w[s][r+1][1][t],d[3]=w[s+1][r+1][1][t],d[4]=w[s][r][2][t]*n,d[5]=w[s+1][r][2][t]*n,d[6]=w[s][r+1][2][t]*o,d[7]=w[s+1][r+1][2][t]*o,d[8]=w[s][r][3][t]*c,d[9]=w[s+1][r][3][t]*x,d[10]=w[s][r+1][3][t]*c,d[11]=w[s+1][r+1][3][t]*x,d[12]=0,d[13]=0,d[14]=0,d[15]=0,u=f(d);for(let e=0;e&lt;9;++e){g[t][e]=[];for(let s=0;s&lt;9;++s)g[t][e][s]=p(u,e/8,s/8),g[t][e][s]&gt;255?g[t][e][s]=255:g[t][e][s]&lt;0&amp;&amp;(g[t][e][s]=0)}}h=[];for(let t=3*s,e=3*s+4;t&lt;e;++t)h.push(this.nodes[t].slice(3*r,3*r+4));l=y(h);for(let s=0;s&lt;8;++s)for(let r=0;r&lt;8;++r)(a=new m(l[s][r],[[[g[0][s][r],g[1][s][r],g[2][s][r],g[3][s][r]],[g[0][s][r+1],g[1][s][r+1],g[2][s][r+1],g[3][s][r+1]]],[[g[0][s+1][r],g[1][s+1][r],g[2][s+1][r],g[3][s+1][r]],[g[0][s+1][r+1],g[1][s+1][r+1],g[2][s+1][r+1],g[3][s+1][r+1]]]])).paint(t,e)}}}transform(t){if(t instanceof x)for(let e=0,s=this.nodes.length;e&lt;s;++e)for(let s=0,r=this.nodes[0].length;s&lt;r;++s)this.nodes[e][s]=this.nodes[e][s].add(t);else if(t instanceof g)for(let e=0,s=this.nodes.length;e&lt;s;++e)for(let s=0,r=this.nodes[0].length;s&lt;r;++s)this.nodes[e][s]=this.nodes[e][s].transform(t)}scale(t){for(let e=0,s=this.nodes.length;e&lt;s;++e)for(let s=0,r=this.nodes[0].length;s&lt;r;++s)this.nodes[e][s]=this.nodes[e][s].scale(t)}}document.querySelectorAll(&quot;rect,circle,ellipse,path,text&quot;).forEach((r,n)=&gt;{let o=r.getAttribute(&quot;id&quot;);o||(o=&quot;patchjs_shape&quot;+n,r.setAttribute(&quot;id&quot;,o));const i=r.style.fill.match(/^url\(\s*&quot;?\s*#([^\s&quot;]+)&quot;?\s*\)/),a=r.style.stroke.match(/^url\(\s*&quot;?\s*#([^\s&quot;]+)&quot;?\s*\)/);if(i&amp;&amp;i[1]){const a=document.getElementById(i[1]);if(a&amp;&amp;&quot;meshgradient&quot;===a.nodeName){const i=r.getBBox();let l=document.createElementNS(s,&quot;canvas&quot;);d(l,{width:i.width,height:i.height});const c=l.getContext(&quot;2d&quot;);let u=c.createImageData(i.width,i.height);const f=new b(a);&quot;objectBoundingBox&quot;===a.getAttribute(&quot;gradientUnits&quot;)&amp;&amp;f.scale(new x(i.width,i.height));const p=a.getAttribute(&quot;gradientTransform&quot;);null!=p&amp;&amp;f.transform(h(p)),&quot;userSpaceOnUse&quot;===a.getAttribute(&quot;gradientUnits&quot;)&amp;&amp;f.transform(new x(-i.x,-i.y)),f.paintMesh(u.data,l.width),c.putImageData(u,0,0);const y=document.createElementNS(t,&quot;image&quot;);d(y,{width:i.width,height:i.height,x:i.x,y:i.y});let g=l.toDataURL();y.setAttributeNS(e,&quot;xlink:href&quot;,g),r.parentNode.insertBefore(y,r),r.style.fill=&quot;none&quot;;const w=document.createElementNS(t,&quot;use&quot;);w.setAttributeNS(e,&quot;xlink:href&quot;,&quot;#&quot;+o);const m=&quot;patchjs_clip&quot;+n,M=document.createElementNS(t,&quot;clipPath&quot;);M.setAttribute(&quot;id&quot;,m),M.appendChild(w),r.parentElement.insertBefore(M,r),y.setAttribute(&quot;clip-path&quot;,&quot;url(#&quot;+m+&quot;)&quot;),u=null,l=null,g=null}}if(a&amp;&amp;a[1]){const o=document.getElementById(a[1]);if(o&amp;&amp;&quot;meshgradient&quot;===o.nodeName){const i=parseFloat(r.style.strokeWidth.slice(0,-2))*(parseFloat(r.style.strokeMiterlimit)||parseFloat(r.getAttribute(&quot;stroke-miterlimit&quot;))||1),a=r.getBBox(),l=Math.trunc(a.width+i),c=Math.trunc(a.height+i),u=Math.trunc(a.x-i/2),f=Math.trunc(a.y-i/2);let p=document.createElementNS(s,&quot;canvas&quot;);d(p,{width:l,height:c});const y=p.getContext(&quot;2d&quot;);let g=y.createImageData(l,c);const w=new b(o);&quot;objectBoundingBox&quot;===o.getAttribute(&quot;gradientUnits&quot;)&amp;&amp;w.scale(new x(l,c));const m=o.getAttribute(&quot;gradientTransform&quot;);null!=m&amp;&amp;w.transform(h(m)),&quot;userSpaceOnUse&quot;===o.getAttribute(&quot;gradientUnits&quot;)&amp;&amp;w.transform(new x(-u,-f)),w.paintMesh(g.data,p.width),y.putImageData(g,0,0);const M=document.createElementNS(t,&quot;image&quot;);d(M,{width:l,height:c,x:0,y:0});let S=p.toDataURL();M.setAttributeNS(e,&quot;xlink:href&quot;,S);const k=&quot;pattern_clip&quot;+n,A=document.createElementNS(t,&quot;pattern&quot;);d(A,{id:k,patternUnits:&quot;userSpaceOnUse&quot;,width:l,height:c,x:u,y:f}),A.appendChild(M),o.parentNode.appendChild(A),r.style.stroke=&quot;url(#&quot;+k+&quot;)&quot;,g=null,p=null,S=null}}})}();
</script>
</svg>
