<?xml version="1.0" encoding="UTF-8" standalone="no"?>
<!-- Created with Inkscape (http://www.inkscape.org/) -->

<svg
   version="1.1"
   id="svg1"
   width="274.48413"
   height="259.5394"
   viewBox="0 0 274.48413 259.53939"
   sodipodi:docname="logo.svg"
   inkscape:version="1.2.2 (732a01da63, 2022-12-09)"
   xml:space="preserve"
   inkscape:export-filename="vite.png"
   inkscape:export-xdpi="96"
   inkscape:export-ydpi="96"
   xmlns:inkscape="http://www.inkscape.org/namespaces/inkscape"
   xmlns:sodipodi="http://sodipodi.sourceforge.net/DTD/sodipodi-0.dtd"
   xmlns:xlink="http://www.w3.org/1999/xlink"
   xmlns="http://www.w3.org/2000/svg"
   xmlns:svg="http://www.w3.org/2000/svg"><defs
     id="defs1"><linearGradient
   inkscape:collect="always"
   id="linearGradient20164"><stop
     style="stop-color:#fb8f04;stop-opacity:0.90196079"
     offset="0"
     id="stop20160" /><stop
     style="stop-color:#fdea0f;stop-opacity:0.65490198"
     offset="1"
     id="stop20162" /></linearGradient><linearGradient
   inkscape:collect="always"
   id="linearGradient8909"><stop
     style="stop-color:#04a9fd;stop-opacity:1"
     offset="0"
     id="stop8905" /><stop
     style="stop-color:#f8f8a1;stop-opacity:1"
     offset="1"
     id="stop8907" /></linearGradient><linearGradient
   inkscape:collect="always"
   id="linearGradient2671"><stop
     style="stop-color:#41bad6;stop-opacity:1;"
     offset="0"
     id="stop2667" /><stop
     style="stop-color:#fdf202;stop-opacity:0.82745099"
     offset="1"
     id="stop2669" /></linearGradient><inkscape:path-effect
   effect="bspline"
   id="path-effect10162"
   is_visible="true"
   lpeversion="1"
   weight="33.333333"
   steps="2"
   helper_size="0"
   apply_no_weight="true"
   apply_with_weight="true"
   only_selected="false" /><inkscape:path-effect
   effect="bspline"
   id="path-effect10147"
   is_visible="true"
   lpeversion="1"
   weight="33.333333"
   steps="2"
   helper_size="0"
   apply_no_weight="true"
   apply_with_weight="true"
   only_selected="false" /><inkscape:path-effect
   effect="bspline"
   id="path-effect1597"
   is_visible="true"
   lpeversion="1"
   weight="33.333333"
   steps="2"
   helper_size="0"
   apply_no_weight="true"
   apply_with_weight="true"
   only_selected="false" />
	
	

	
	
	
	
	
	
	
	
	
	
	
	
	
	
	
	
	
	
	
	
	
	
	
	
	
<linearGradient
   inkscape:collect="always"
   xlink:href="#linearGradient2671"
   id="linearGradient1638"
   gradientUnits="userSpaceOnUse"
   gradientTransform="matrix(0.97238875,0,0,0.97238875,25.468628,360.10396)"
   x1="149.16022"
   y1="221.93051"
   x2="431.43851"
   y2="221.93051" /><linearGradient
   inkscape:collect="always"
   xlink:href="#linearGradient8909"
   id="linearGradient1640"
   gradientUnits="userSpaceOnUse"
   gradientTransform="matrix(0.97238875,0,0,0.97238875,25.468628,360.10396)"
   x1="161.418"
   y1="221.46518"
   x2="419.19434"
   y2="221.46518" /><linearGradient
   inkscape:collect="always"
   xlink:href="#linearGradient20164"
   id="linearGradient18916"
   gradientUnits="userSpaceOnUse"
   gradientTransform="matrix(2.8898124,0,0,2.8898124,230.35197,394.85488)"
   x1="16.697506"
   y1="17.078825"
   x2="64"
   y2="32" /></defs><sodipodi:namedview
     id="namedview1"
     pagecolor="#ffffff"
     bordercolor="#cccccc"
     borderopacity="1"
     inkscape:showpageshadow="0"
     inkscape:pageopacity="1"
     inkscape:pagecheckerboard="0"
     inkscape:deskcolor="#d1d1d1"
     showgrid="false"
     inkscape:zoom="0.344375"
     inkscape:cx="-49.364791"
     inkscape:cy="-139.38294"
     inkscape:window-width="1366"
     inkscape:window-height="705"
     inkscape:window-x="-8"
     inkscape:window-y="32"
     inkscape:window-maximized="1"
     inkscape:current-layer="g1"
     showguides="true" /><g
     inkscape:groupmode="layer"
     inkscape:label="Image"
     id="g1"
     transform="translate(-170.51033,-394.85488)"><g
       id="g22977"><path
         id="path18914"
         style="fill:url(#linearGradient18916);fill-opacity:1;stroke-width:2.88981"
         d="m 322.81946,435.31745 c -28.72758,0 -52.0152,23.28951 -52.0152,52.0171 0,3.85312 0.43014,7.6042 1.225,11.21856 20.80651,1.01645 38.37071,15.43682 42.7794,35.18451 3.76175,-1.29502 7.74542,-1.88539 11.73894,-1.73965 4.40557,0.19011 8.72361,1.27252 12.67522,3.17735 5.20435,-12.40296 16.47318,-21.14674 29.64269,-23.6469 3.80626,-7.22882 5.97105,-15.45674 5.97105,-24.19387 0,-28.72759 -23.28949,-52.0171 -52.0171,-52.0171 z m 0,17.33967 c 19.15078,0 34.67935,15.52667 34.67935,34.67743 0,1.59806 -1.29252,2.89057 -2.89058,2.89057 -1.59806,0 -2.89057,-1.29251 -2.89057,-2.89057 0,-15.96042 -12.94065,-28.89819 -28.8982,-28.89819 -1.59806,0 -2.88867,-1.29249 -2.88867,-2.89056 0,-1.59808 1.29061,-2.88868 2.88867,-2.88868 z m -57.86486,16.17406 -11.16624,-2.99385 c -1.54893,-0.41612 -3.12966,0.50572 -3.54002,2.04601 -0.41613,1.53449 0.49417,3.12099 2.04309,3.54002 l 11.16335,2.98806 c 1.5345,0.42191 3.12389,-0.50572 3.54003,-2.0431 0.41902,-1.5316 -0.5057,-3.11232 -2.04021,-3.53714 z m 12.91457,-22.3758 c 1.11836,1.13859 2.95628,1.12703 4.0862,0 1.12991,-1.12125 1.11835,-2.9505 0,-4.0862 l -8.17239,-8.17239 c -1.1357,-1.13281 -2.96206,-1.12702 -4.08908,0.007 -1.12703,1.12126 -1.1328,2.95051 0.002,4.08042 z m 44.95029,-11.13793 c -28.72758,0 -52.0152,23.28951 -52.0152,52.0171 0,3.85312 0.43014,7.6042 1.225,11.21856 20.80651,1.01645 38.37071,15.43682 42.7794,35.18451 3.76175,-1.29502 7.74542,-1.88539 11.73894,-1.73965 4.40557,0.19011 8.72361,1.27252 12.67522,3.17735 5.20435,-12.40296 16.47318,-21.14674 29.64269,-23.6469 3.80626,-7.22882 5.97105,-15.45674 5.97105,-24.19387 0,-28.72759 -23.28949,-52.0171 -52.0171,-52.0171 z m 0,17.33967 c 19.15078,0 34.67935,15.52667 34.67935,34.67743 0,1.59806 -1.29252,2.89057 -2.89058,2.89057 -1.59806,0 -2.89057,-1.29251 -2.89057,-2.89057 0,-15.96042 -12.94065,-28.89819 -28.8982,-28.89819 -1.59806,0 -2.88867,-1.29249 -2.88867,-2.89056 0,-1.59808 1.29061,-2.88868 2.88867,-2.88868 z m -18.48828,-23.20251 c 0.40168,1.54027 1.99687,2.45634 3.54001,2.0431 1.53738,-0.40747 2.4448,-1.99686 2.04312,-3.54002 l -2.99096,-11.16334 c -0.41903,-1.54606 -2.00264,-2.45924 -3.54581,-2.04022 -1.53449,0.41035 -2.45635,1.98819 -2.03732,3.53713 z m 33.45826,2.0431 c 1.53449,0.41902 3.1152,-0.5086 3.54001,-2.0431 l 2.99095,-11.16335 c 0.41325,-1.54604 -0.50862,-3.12966 -2.04887,-3.54002 -1.53449,-0.41613 -3.12099,0.49705 -3.53426,2.04311 l -2.99093,11.16334 c -0.4248,1.53449 0.50281,3.12389 2.0431,3.54002 z m 25.91005,14.95767 c 1.12413,1.1328 2.95339,1.12123 4.08619,0 l 8.17239,-8.17238 c 1.13281,-1.13281 1.12703,-2.95918 -0.007,-4.08909 -1.12124,-1.12703 -2.9505,-1.12993 -4.08041,0.002 l -8.17239,8.17238 c -1.1328,1.12125 -1.12702,2.95918 0,4.08621 z m 18.49769,27.95316 11.16333,-2.99096 c 1.54606,-0.41325 2.45635,-2.00264 2.04022,-3.5458 -0.41034,-1.5345 -1.98819,-2.45057 -3.53713,-2.03732 l -11.16335,2.99096 c -1.54026,0.40746 -2.45634,1.99686 -2.0431,3.54002 0.40747,1.54317 1.99976,2.45055 3.54003,2.0431 z M 265.02973,487.3289 c 0.002,-1.60097 -1.28596,-2.88983 -2.88402,-2.89562 l -28.90391,0.007 c -1.59516,0 -2.88982,1.28596 -2.88982,2.8898 0.002,1.59228 1.29466,2.88981 2.89271,2.88981 l 28.90102,-0.007 c 1.59228,0 2.88691,-1.28886 2.88402,-2.88402 z m 115.67052,18.49479 11.16335,2.99094 c 1.54605,0.41904 3.12679,-0.50859 3.54003,-2.04886 0.41611,-1.53737 -0.49706,-3.11812 -2.04312,-3.53425 l -11.16333,-2.99096 c -1.5345,-0.41901 -3.1239,0.49993 -3.54003,2.04311 -0.41613,1.54315 0.50861,3.12389 2.0431,3.54002 z m -136.89908,-60.78721 25.03156,14.44617 c 1.37843,0.79759 3.14411,0.32656 3.93882,-1.05189 0.80048,-1.38422 0.33231,-3.14989 -1.0519,-3.95038 l -25.02867,-14.44905 c -1.38132,-0.80049 -3.14989,-0.32655 -3.95038,1.06057 -0.79179,1.37842 -0.32075,3.14698 1.06057,3.94458 z m 46.18787,-8.8226 c 0.7947,1.38423 2.56327,1.85815 3.93883,1.06057 1.3871,-0.80048 1.86392,-2.56327 1.06344,-3.95039 L 280.54225,408.2983 c -0.7976,-1.38134 -2.56617,-1.85527 -3.95326,-1.05478 -1.37845,0.79469 -1.85239,2.56326 -1.05479,3.94459 z m 32.83695,-6.68126 c 1.60094,0 2.89271,-1.28884 2.89557,-2.8898 V 397.7447 c 0,-1.59807 -1.29173,-2.88982 -2.89557,-2.88982 -1.5923,0 -2.88403,1.29175 -2.88693,2.88982 l 0.002,28.89812 c 0,1.59807 1.29174,2.8898 2.88404,2.8898 z m 28.89812,7.74472 c 1.38422,0.7976 3.14989,0.32654 3.95038,-1.05768 l 14.44905,-25.02578 c 0.80048,-1.38422 0.32654,-3.15277 -1.06055,-3.95036 -1.38135,-0.79759 -3.14412,-0.32367 -3.94461,1.05766 l -14.44617,25.02868 c -0.80337,1.38422 -0.32943,3.14699 1.0519,3.94748 z m 21.15342,21.15342 c 0.80048,1.38422 2.56615,1.85816 3.95037,1.05767 l 25.02579,-14.44907 c 1.38421,-0.79757 1.85814,-2.56614 1.05476,-3.94746 -0.79468,-1.38425 -2.56326,-1.85528 -3.94458,-1.05479 l -25.02578,14.44907 c -1.38424,0.80046 -1.85527,2.56036 -1.06056,3.94458 z m 39.53264,26.00831 h -28.89813 c -1.59807,0 -2.88982,1.29175 -2.88982,2.88983 0,1.59804 1.29175,2.8898 2.88982,2.8898 h 28.89813 c 1.59806,0 2.88981,-1.29176 2.88981,-2.8898 0,-1.59808 -1.29175,-2.88983 -2.88981,-2.88983 z m -89.59071,-49.12162 c -28.72758,0 -52.0152,23.28951 -52.0152,52.0171 0,3.85312 0.43014,7.6042 1.225,11.21856 20.80651,1.01645 38.37071,15.43682 42.7794,35.18451 3.76175,-1.29502 7.74542,-1.88539 11.73894,-1.73965 4.40557,0.19011 8.72361,1.27252 12.67522,3.17735 5.20435,-12.40296 16.47318,-21.14674 29.64269,-23.6469 3.80626,-7.22882 5.97105,-15.45674 5.97105,-24.19387 0,-28.72759 -23.28949,-52.0171 -52.0171,-52.0171 z m 0,17.33967 c 19.15078,0 34.67935,15.52667 34.67935,34.67743 0,1.59806 -1.29252,2.89057 -2.89058,2.89057 -1.59806,0 -2.89057,-1.29251 -2.89057,-2.89057 0,-15.96042 -12.94065,-28.89819 -28.8982,-28.89819 -1.59806,0 -2.88867,-1.29249 -2.88867,-2.89056 0,-1.59808 1.29061,-2.88868 2.88867,-2.88868 z" /><path
         id="path1592"
         style="fill:url(#linearGradient1640);fill-opacity:1;stroke:none;stroke-width:8.14861;stroke-dasharray:none;stroke-opacity:1"
         d="m 269.92375,509.25762 c -0.912,0.0292 -2.14679,0.26433 -3.26474,0.67611 -1.1179,0.41177 -2.1169,1.00012 -2.73484,1.50037 -0.6179,0.50028 -0.85392,0.91094 -0.41213,1.58772 0.44183,0.67678 1.5592,1.61867 2.23537,2.44237 0.67621,0.82372 0.91241,1.52998 0.70649,2.05874 -0.20589,0.52875 -0.85417,0.88146 -1.41298,1.1756 -0.55884,0.29412 -1.02836,0.52944 -1.61623,0.47099 -0.58787,-0.0584 -1.29523,-0.41134 -2.44237,-0.79386 -1.14712,-0.38251 -2.73422,-0.79565 -4.44032,-0.9135 -1.70609,-0.1178 -3.52999,0.0594 -5.29495,0.47097 -1.76498,0.41174 -3.46998,1.05855 -5.02909,1.941 -1.5591,0.88245 -2.97232,1.99999 -4.35485,3.44134 -1.38252,1.44136 -2.73554,3.207 -3.61796,4.91322 -0.88243,1.70624 -1.29262,3.3532 -1.38072,4.94172 -0.0881,1.58851 0.1454,3.11759 0.35135,4.35297 0.20591,1.23536 0.38383,2.17656 0.67802,3.44132 0.29417,1.26479 0.70489,2.85402 0.82233,4.38336 0.11755,1.52932 -0.059,2.99995 -0.17662,4.41184 -0.11768,1.41185 -0.17576,2.76444 -0.38172,3.82308 -0.20598,1.05861 -0.55885,1.82205 -0.97051,2.41008 -0.41163,0.58802 -0.88328,1.00007 -1.11862,1.20599 -0.23535,0.20594 -0.23542,0.20623 -0.37224,0.27159 -0.13683,0.0654 -0.41096,0.19581 -0.6932,0.1785 -0.28225,-0.0173 -0.57242,-0.18269 -0.80146,-0.42161 -0.22904,-0.23894 -0.39572,-0.5521 -0.42733,-0.90593 -0.0315,-0.3538 0.0719,-0.74783 0.29057,-1.33893 0.21873,-0.59106 0.55287,-1.37859 0.66093,-2.62468 0.10807,-1.24609 -0.009,-2.95091 -0.33236,-4.59795 -0.32338,-1.64707 -0.85286,-3.2354 -1.76434,-4.64735 -0.91151,-1.41193 -2.68262,-3.62927 -3.03113,-2.85448 -0.63698,1.4161 -1.43053,8.12025 -1.34463,7.20176 0.32948,-3.52289 -2.65437,-5.52581 -3.56669,-3.99591 -0.84221,1.4123 -1.42059,3.96299 -2.26574,5.12024 -2.44812,-6.13445 -4.93818,-11.4333 -7.56831,-11.25846 -8.04,0.31232 -15.92258,3.60803 -21.77998,9.11805 -1.57516,1.33799 -2.64254,2.97048 -3.82118,4.27129 -4.5526,5.98507 -7.04439,13.51318 -6.80674,21.04121 0.1808,7.07073 2.60712,14.08361 6.94918,19.67947 0.22406,0.29736 0.71484,0.90498 1.05595,1.30856 3.81674,4.48335 8.805,7.95706 14.33134,9.98786 0.33281,0.12517 1.0799,0.37888 1.57633,0.53559 4.44355,1.42224 9.16003,1.72592 13.79387,1.42628 2.94576,0.19862 5.89549,0.22705 8.84645,0.18993 4.16165,-0.007 8.32369,-8e-4 12.48532,10e-4 -0.80216,7.86558 -1.32541,15.95923 -4.50108,23.30884 -2.12337,5.03082 -5.36406,9.52684 -9.12564,13.45961 1.62266,-0.16916 3.42997,-0.42955 4.91891,-0.66852 1.42902,-0.23954 3.07027,-0.56899 4.34536,-0.85464 5.51382,-1.32771 11.13896,-3.08239 15.58672,-6.74596 3.22711,-2.64385 5.51202,-6.21952 7.55878,-9.80553 3.22333,-5.9452 5.72367,-12.24367 8.45713,-18.42032 0.17968,-0.57741 1.02065,-0.1454 1.49278,-0.27728 46.66432,-0.005 93.32956,0.0227 139.9936,-0.0341 8.47373,-0.36329 16.56066,-5.58099 20.3024,-13.20702 3.79893,-7.46822 3.39851,-16.93305 -1.21927,-23.95646 -3.0692,-4.86558 -7.95532,-8.50468 -13.45584,-10.16072 -1.48516,-0.48936 -2.98167,-0.9516 -4.48779,-1.4358 -0.53446,-5.15384 -0.86814,-10.47848 -3.11087,-15.23914 -3.97298,-9.05347 -12.42051,-15.87706 -21.99272,-18.20192 -2.50704,-0.30923 -4.97273,-0.41243 -7.3024,-0.021 -2.98765,0.40862 -4.51603,1.60517 -6.31103,2.93617 -0.31163,0.52042 0.35438,0.93597 0.4577,1.68459 0.10329,0.74863 -0.35291,1.82892 -0.97618,2.24483 -0.62326,0.41593 -1.41367,0.16716 -2.01695,-0.18612 -0.60327,-0.35323 -1.02028,-0.81175 -1.54025,-1.41489 -0.51997,-0.60312 -1.14438,-1.3514 -1.47758,-2.01694 -0.33312,-0.66557 -0.37362,-1.24697 -0.29056,-1.95429 0.083,-0.7073 0.29074,-1.53966 0.35324,-1.91438 0.0626,-0.37476 -0.0217,-0.29132 -0.56215,-0.0626 -0.54049,0.22871 -1.53744,0.60267 -2.26575,1.22687 -0.72831,0.62423 -1.18533,1.49786 -1.12242,2.28854 0.063,0.79069 0.64366,1.49741 1.45477,2.53733 0.81111,1.03993 1.85139,2.41322 2.10051,3.43186 0.24912,1.01861 -0.29194,1.68435 -0.89451,1.72637 -0.60258,0.042 -1.2668,-0.53984 -2.1404,-1.47569 -0.8736,-0.93584 -1.95618,-2.2266 -2.80891,-3.24573 -0.85273,-1.0191 -1.47723,-1.76664 -1.93528,-1.95426 -0.45804,-0.18766 -0.7475,0.18563 -1.413,0.91351 -0.66548,0.72788 -1.70616,1.80886 -2.72535,3.3065 -1.0192,1.49763 -2.01658,3.41143 -2.78613,5.24178 -0.76954,1.83037 -1.31175,3.57688 -1.58203,5.46969 -0.27028,1.89281 -0.26968,3.93237 -0.26968,5.86662 0,1.93422 -3.6e-4,3.76439 -0.0835,5.05375 -0.0833,1.28938 -0.24933,2.03671 -0.70649,2.53543 -0.4572,0.49872 -1.2061,0.74848 -2.43289,0.45771 -1.2268,-0.29078 -2.93127,-1.12156 -4.38715,-1.78714 -1.45586,-0.66559 -2.66199,-1.16614 -3.84777,-1.24968 -1.18575,-0.0835 -2.35196,0.25048 -3.39195,0.62485 -1.04001,0.37436 -1.95366,0.78964 -2.59812,0.83184 -0.64445,0.0422 -1.02047,-0.29088 -1.42629,-0.9667 -0.40582,-0.67578 -0.84193,-1.69474 -1.55923,-2.71394 -0.71731,-1.01921 -1.7162,-2.03734 -2.81843,-2.65128 -1.10221,-0.61395 -2.30739,-0.82325 -3.18114,-0.85463 -0.87375,-0.0314 -1.41484,0.11522 -1.696,0.31336 -0.28112,0.19811 -0.30181,0.44783 -0.21838,0.82235 0.0834,0.37452 0.27102,0.87412 0.86412,1.33133 0.59312,0.45723 1.59157,0.87138 2.14229,1.28767 0.55075,0.41629 0.65337,0.83295 0.61155,1.19649 -0.0418,0.36355 -0.229,0.67644 -0.43681,0.91541 -0.2078,0.23897 -0.4357,0.40451 -0.71601,0.44632 -0.28029,0.0417 -0.6137,-0.0406 -1.11293,-0.36276 -0.49921,-0.32205 -1.16389,-0.88409 -1.77765,-1.70548 -0.61376,-0.82137 -1.17553,-1.90261 -1.52885,-2.49553 -0.35331,-0.593 -0.49841,-0.69826 -1.14331,-0.65713 -0.64488,0.0413 -1.789,0.22894 -2.50694,0.47859 -0.71793,0.24967 -1.01048,0.56241 -0.7084,1.14524 0.3021,0.58279 1.19789,1.43546 1.60293,2.20495 0.40496,0.76949 0.32025,1.45514 0.0399,1.84981 -0.28037,0.39468 -0.75716,0.49893 -1.2041,0.4577 -0.44695,-0.0413 -0.86339,-0.22931 -1.37312,-0.69698 -0.50971,-0.46771 -1.11334,-1.21635 -1.47757,-1.81944 -0.36425,-0.60312 -0.48926,-1.06064 -0.65523,-1.33134 -0.16596,-0.27072 -0.37277,-0.35377 -0.75778,-0.32286 -0.38502,0.0309 -0.94648,0.17765 -1.54975,0.40642 -0.60327,0.22878 -1.24842,0.53986 -1.52885,0.70651 -0.28041,0.16664 -0.19682,0.18815 -0.0721,0.31337 0.12459,0.12517 0.29066,0.35367 0.52988,0.65522 0.23923,0.30155 0.55094,0.67476 0.7065,0.99708 0.15558,0.32234 0.15532,0.59401 0.0721,0.80146 -0.0831,0.20747 -0.24862,0.35299 -0.42542,0.50897 -0.17679,0.156 -0.36512,0.32132 -0.58305,0.40453 -0.21792,0.0832 -0.4677,0.0849 -0.76917,10e-4 -0.30147,-0.083 -0.65516,-0.24922 -0.91541,-0.4881 -0.26027,-0.23886 -0.42536,-0.55102 -0.60204,-0.83185 -0.17668,-0.2808 -0.36525,-0.5311 -0.59445,-0.51087 -0.22922,0.0203 -0.49839,0.31226 -0.88314,0.69699 -0.38473,0.38475 -0.88382,0.8621 -1.26866,1.27817 -0.38484,0.41604 -0.65494,0.77026 -0.92491,0.97808 -0.26997,0.20784 -0.5409,0.27023 -0.83184,0.2393 -0.29095,-0.0309 -0.60343,-0.15528 -0.80147,-0.40452 -0.19805,-0.24927 -0.28161,-0.62353 -0.25068,-1.02938 0.0309,-0.40583 0.17714,-0.84429 0.52037,-1.35412 0.34326,-0.50982 0.88503,-1.09054 1.30095,-1.58962 0.41591,-0.49909 0.70574,-0.91634 0.95529,-1.49848 0.24957,-0.58212 0.45851,-1.33005 0.64574,-2.50505 0.18722,-1.17497 0.35356,-2.77685 0.43681,-4.30547 0.0832,-1.52862 0.0823,-2.98366 0.0304,-4.47071 -0.0519,-1.48703 -0.15544,-3.0067 -0.29058,-4.33776 -0.13507,-1.33106 -0.30121,-2.47362 -0.50897,-3.29511 -0.20777,-0.82149 -0.45769,-1.32083 -0.69512,-1.68647 -0.23742,-0.36566 -0.46214,-0.59764 -0.6932,-0.47861 -0.23107,0.11903 -0.46717,0.58948 -1.20219,1.11862 -0.73501,0.52913 -1.96958,1.11698 -2.99882,1.47 -1.02928,0.35298 -1.85357,0.47059 -2.70637,0.35324 -0.85279,-0.11731 -1.73464,-0.47044 -2.55822,-0.85275 -0.82357,-0.3823 -1.58887,-0.79266 -2.14799,-1.32183 -0.55911,-0.52918 -0.91141,-1.1764 -1.14712,-1.26488 -0.23571,-0.0885 -0.35344,0.3815 -0.58875,1.1756 -0.2353,0.79412 -0.58946,1.91077 -1.23637,2.82222 -0.64692,0.91145 -1.58749,1.61782 -2.55823,2.47085 -0.9707,0.85303 -1.9711,1.85342 -3.55909,2.64748 -1.58796,0.79408 -3.76328,1.3817 -5.85142,1.58773 -2.08815,0.20603 -4.08859,0.0306 -5.85332,-0.4691 -1.76474,-0.49974 -3.29394,-1.32396 -4.47071,-2.41199 -1.17675,-1.08803 -2.00032,-2.44047 -2.6475,-3.58758 -0.64713,-1.14709 -1.11853,-2.08774 -1.35411,-2.85257 -0.23555,-0.76484 -0.23478,-1.3548 -0.0285,-1.67891 0.2063,-0.32408 0.61737,-0.38208 0.97049,-0.32285 0.35311,0.0592 0.64732,0.23484 0.97047,0.85274 0.32318,0.61791 0.67642,1.67795 1.4415,2.67786 0.76509,0.99988 1.94207,1.94089 3.29511,2.8526 1.35305,0.9117 2.8817,1.79445 4.61695,2.17648 1.73527,0.38201 3.6757,0.26366 5.35193,-0.20701 1.67625,-0.47067 3.08921,-1.2932 4.26561,-2.1461 1.1764,-0.8529 2.11737,-1.73525 2.85259,-2.91147 0.73519,-1.17624 1.26476,-2.64815 1.3826,-4.26561 0.11781,-1.61743 -0.17634,-3.38082 -0.6761,-4.82205 -0.49976,-1.44122 -1.20495,-2.55888 -2.02834,-3.50021 -0.82339,-0.94137 -1.76532,-1.70751 -2.88298,-2.23726 -1.11766,-0.52974 -2.41109,-0.82251 -3.64648,-1.05785 -1.23536,-0.23536 -2.41177,-0.41238 -3.2647,-0.58875 -0.85294,-0.17636 -1.38394,-0.3535 -1.82513,-0.52988 -0.44121,-0.17638 -0.7927,-0.35296 -1.05784,-0.79386 -0.26522,-0.44092 -0.44237,-1.14596 -0.32478,-1.64661 0.11767,-0.50067 0.53,-0.79474 0.70652,-1.08824 0.17649,-0.2935 0.11595,-0.58856 -0.20702,-0.82423 -0.32309,-0.23571 -0.91122,-0.41094 -1.82324,-0.38175 z m -62.85582,41.36261 c 7.34625,0 13.34186,5.83086 13.34186,13.02848 0,7.19765 -5.99561,13.0304 -13.34186,13.0304 -7.34624,0 -13.33995,-5.83275 -13.33995,-13.0304 0,-7.19762 5.99371,-13.02848 13.33995,-13.02848 z m 0,1.71878 c -6.44032,0 -11.62118,5.06498 -11.62118,11.3097 0,6.24473 5.18086,11.30972 11.62118,11.30972 6.44031,0 11.62308,-5.06499 11.62308,-11.30972 0,-6.24472 -5.18277,-11.3097 -11.62308,-11.3097 z" /><path
         id="path1594"
         style="fill:none;fill-opacity:1;stroke:url(#linearGradient1638);stroke-width:8.23995;stroke-dasharray:none;stroke-opacity:0.992157"
         d="m 273.21926,501.58084 c -20.20939,-0.84456 -38.58246,11.18654 -45.27685,29.64837 -3.18924,-0.95252 -6.48043,-1.52316 -9.80365,-1.6998 -23.06107,-1.00661 -42.52473,16.76578 -43.47262,39.69512 -0.94847,22.92854 16.97668,42.33151 40.03699,43.33776 3.22165,0.0818 6.11186,0.091 9.04015,0.0988 h 9.09335 c -0.0333,0.28728 -0.0524,0.49304 -0.0951,0.82993 -0.42644,3.37957 -1.33999,9.36957 -4.54288,14.98467 -3.20286,5.6151 -8.69392,10.85597 -13.18612,14.26677 -4.49219,3.41081 -7.98674,4.99157 -10.23287,5.94828 -2.24612,0.95672 -3.24448,1.29021 -0.79006,1.45668 2.45442,0.16649 8.36164,0.16624 14.1851,-0.0417 5.82345,-0.20803 11.56377,-0.62392 17.38714,-1.7055 5.82338,-1.08158 11.72968,-2.82924 16.38817,-5.24178 4.6585,-2.41253 8.06934,-5.49059 10.93937,-9.27569 2.87001,-3.78506 5.19869,-8.27694 7.02894,-12.14534 1.78464,-3.77207 3.08084,-6.91482 4.03198,-9.07626 h 134.97779 c 17.69791,0 31.94639,-14.24848 31.94639,-31.94641 0,-14.34512 -9.36312,-26.41864 -22.33455,-30.48019 -1.54513,-19.84947 -18.19146,-35.47542 -38.72844,-36.35443 -17.05273,-0.68104 -32.68917,9.05423 -39.10636,24.34771 -3.95162,-1.90485 -8.26963,-2.98727 -12.67523,-3.17737 -3.99352,-0.1457 -7.97717,0.44463 -11.73893,1.73966 -4.42955,-19.84103 -22.13639,-34.31553 -43.07189,-35.20922 z"
         sodipodi:nodetypes="ccccccccssssssssscssccccccc" /><g
         id="g1628"
         transform="matrix(0.06655091,0,0,0.06655091,271.18694,477.42893)"
         style="fill:#d0ffff;fill-opacity:1"><path
           d="m 701.47,1236 c 0,22.977 -9.786,6.046 -9.81,-0.023 -0.023,-5.77 -1.44,-4.202 -15.151,-16.634 -8.616,-7.812 -8.426,5.187 -7.54,7.142 3.938,8.692 3.924,17.995 4.798,27.263 4.308,45.676 -5.219,46.671 -8.279,57.723 -2.205,7.966 -6.561,-2.73 -8.142,3.532 -4.452,17.641 -7.821,-0.728 -8.961,-0.71 -2.144,0.032 -0.702,9.085 -4.632,9.497 -6.261,0.657 -5.645,-14.116 -4.555,-20.429 0.174,-1.008 1.07,-6.236 -0.154,-6.352 -1.646,-0.156 -1.382,5.246 -5.427,14.608 -2.212,5.121 -4.803,3.831 -6.214,-0.148 -3.499,-9.863 3.361,-16.156 -2.312,-19.797 -1.884,-1.209 -11.278,-32.762 -11.885,-37.887 -1.319,-11.129 -15.998,-22.341 -25.833,-47.619 -11.29,-29.018 0.704,-15.068 -59.593,-5.301 -5.714,0.926 -6.527,-5.008 -3.371,-7.71 4.092,-3.505 5.969,-7.049 7.68,-6.911 43.55,3.51 77.533,-45.758 132.25,-55.601 17.284,-3.109 14.047,9.308 35.883,11.586 4.67,0.488 8.309,8.101 36.847,1.298 33.897,-8.081 11.465,-5.217 42.456,5.645 3.837,1.345 13.935,2.903 12.695,6.815 -0.861,2.714 -11.627,-0.122 -13.279,-0.531 -9.49,-2.349 -10.864,4.735 -31.461,2.091 -12.289,-1.577 -24.14,-0.033 -35.933,3.292 -9.012,2.542 29.21,54.938 28.855,56.06 -0.811,2.568 -11.322,-1.481 -5.528,6.891 1.469,2.122 5.189,4.59 3.209,7.123 -2.916,3.729 -10.387,-3.781 -13.102,-6.318 -1.027,1.152 -0.552,1.47 3.811,13.52 2.764,7.631 -4.944,10.194 -11.937,-5.318 -6.228,-13.815 5.914,25.531 -4.586,16.302 -6.248,-5.491 -6.207,-12.585 -8.236,-22.392 -0.161,-0.777 -0.638,-1.489 -0.97,-2.231 -1.689,2.988 -1.431,-0.232 -1.431,11.526 -0.054,0 -0.106,0 -0.158,0 z m -61.931,56.048 c 0.167,0.698 -0.276,1.551 0.513,2.115 0.653,-1.517 2.687,-5.262 0.593,-4.918 -1.705,0.281 -0.84,1.8 -1.106,2.803 z"
           id="path1604"
           style="fill:#d0ffff;fill-opacity:1" /><path
           d="m 1208.5,1130.1 c 0,22.978 -11.091,4.66 -10.737,-0.696 0.182,-2.756 -0.893,-4.245 -3.299,-5.412 -5.01,-2.431 -8.578,-6.823 -13.046,-10.016 -8.581,-6.132 -7.661,6.106 -6.821,8.051 7.062,16.347 7.625,65.938 0.375,71.192 -6.123,4.437 -1.159,13.1 -9.819,9.994 -4.997,-1.792 -2.609,9.046 -7.36,8.517 -6.398,-0.712 -2.964,-15.455 -7.423,-1.438 -2.205,6.933 -10.057,0.61 -8.341,-11.198 5.102,-35.111 -4.832,17.499 -11.288,3.403 -4.172,-9.113 3.118,-16.265 -2.801,-19.596 -1.096,-0.617 -1.829,-1.463 -2.047,-2.666 -2.036,-11.215 -8.651,-21.065 -10.178,-32.282 -1.736,-12.745 -11.279,-12.157 -30.14,-50.733 -3.433,-7.021 -2.655,-13.368 -10.102,-11.215 -85.588,24.746 -54.059,-4.69 -29.926,-3.432 23.595,1.229 21.341,-8.626 29.873,-11.336 8.025,-2.549 88.603,-52.717 108.84,-38.345 14.344,10.184 20.074,6.711 27.705,10.27 21.803,10.172 50.466,-11.707 61.273,-2.094 9.416,8.375 31.629,7.355 30.089,13.5 -0.764,3.048 -9.15,0.267 -11.671,-0.228 -11.8,-2.317 -9.21,1.613 -18.585,1.563 -11.997,-0.064 -23.995,-0.046 -35.992,-0.121 -6.224,-0.039 -11.808,3.126 -18.001,3.439 -7.232,0.365 8.901,21.987 9.969,23.288 3.999,4.871 5.87,11.153 9.81,16.136 10.094,12.765 11.47,11.236 10.58,13.925 -0.874,2.637 -14.07,-2.008 -4.102,8.102 3.419,3.469 3.383,5.816 -2.916,5.109 -6.419,-0.721 -6.817,-7.318 -9.267,-5.497 -1.655,1.23 0.876,2.911 4.05,11.873 2.381,6.724 -3.652,11.015 -13.334,-6.044 -5.652,-9.957 7.219,27.266 -4.536,16.348 -7.138,-6.63 -5.78,-12.674 -8.491,-20.759 -0.258,-0.771 0.336,-2.321 -1.165,-2.098 -1.132,0.168 -1.11,1.506 -1.119,2.502 -0.023,2.665 -0.01,5.33 -0.01,7.995 -0.019,0 -0.037,0 -0.054,0 z m -64.985,51.867 c 0.126,0.744 0.262,1.543 0.398,2.342 0.891,-0.291 2.22,-3.527 0.469,-3.786 -1.128,-0.167 -0.52,0.904 -0.867,1.444 z"
           id="path1606"
           style="fill:#d0ffff;fill-opacity:1" /><path
           d="m 320.56,230.18 c 0,8.123 0.469,9.911 -1.916,10.625 -3.282,0.982 -8.149,-6.976 -7.899,-11.702 0.186,-3.516 -1.155,-5.465 -4.148,-7.096 -4.434,-2.415 -7.37,-6.685 -11.194,-9.884 -8.237,-6.89 -7.369,7.005 -6.261,8.986 4.852,8.677 9.517,66.984 -1.633,76.452 -3.201,2.718 0.372,12.152 -7.401,8.977 -4.916,-2.009 -3.141,15.636 -9.568,6.814 -1.997,-2.741 0.321,-5.971 -2.032,-5.98 -1.054,-0.004 -1.827,4.272 -1.926,5.211 -0.628,5.97 -4.828,5.656 -6.717,0.862 -2.712,-6.884 1.127,-31.694 -2.46,-19.673 -4.185,14.027 -4.741,14.936 -6.653,14.816 -3.442,-0.217 -5.108,-8.402 -3.547,-15.302 2.033,-8.982 -2.91,-7.056 -3.484,-10.441 -9.158,-53.983 -28.028,-54.861 -41.11,-97.042 -2.237,-7.212 -4.406,-2.211 -36.89,5.448 -3.582,0.845 -19.839,4.903 -20.931,1.227 -1.713,-5.769 5.662,-15.365 22.987,-13.716 19.383,1.845 20.235,-7.575 28.395,-11.806 14.66,-7.602 83.872,-54.791 101.06,-41.122 10.914,8.679 36.318,14.304 38.1,14.28 25.436,-0.332 37.019,-15.214 49.192,-2.831 4.037,4.107 17.14,5.905 22.242,8.043 5.799,2.431 4.536,6.471 -1.873,5.416 -8.442,-1.39 -11.244,-4.152 -16.859,-1.338 -5.524,2.768 -27.274,1.464 -31.589,0.685 -7.411,-1.337 -12.798,1.63 -23.9,3.72 -4.238,0.798 -4.456,1.219 -3.03,5.097 6.346,17.253 29.949,51.588 29.949,51.588 -0.583,2.171 -2.427,1.176 -3.768,1.247 -10.008,0.533 3.508,8.425 1.448,11.947 -4.13,7.061 -16.79,-12.198 -12.955,-2.034 4.97,13.174 5.029,13.951 3.487,14.85 -5.675,3.31 -10.74,-6.601 -12.07,-11.513 -0.952,-3.516 -2.856,-2.373 -2.002,0.57 8.268,28.489 -6.884,19.206 -8.825,2.612 -1.287,-11.001 -3.789,-10.923 -3.984,-6.977 -0.147,2.988 -0.055,5.988 -0.055,8.983 -0.061,0 -0.121,0 -0.181,0.001 z m -61.079,55.113 c 0.554,0.721 -0.509,1.95 0.593,2.814 0.86,-2.606 2.446,-6.209 0.532,-5.833 -1.633,0.321 -0.803,1.795 -1.125,3.019 z"
           id="path1608"
           style="fill:#d0ffff;fill-opacity:1" /><path
           d="m 1594.5,1098.8 c -5.356,13.454 5.973,18.798 25.002,25.302 5.749,1.965 7.297,8.704 2.661,12.72 -1.758,1.522 -1.637,1.559 10.375,4.401 33.963,8.036 8.083,3.604 36.91,4.598 10.436,0.36 8.651,8.536 14.251,10.708 4.583,1.778 6.573,6.15 9.728,9.34 1.657,1.675 0.711,3.535 -0.595,4.865 -4.474,4.555 -4.489,-2.878 -17.299,-5.525 -25.706,-5.307 -8.509,-9.867 -65.363,-22.569 -24.182,-5.403 -30.455,5.235 -64.21,4.34 -29.092,-0.771 -44.238,4.552 -58.766,1.201 -1.744,-0.402 -3.824,-0.673 -5.425,-0.1 -6.167,2.21 -18.363,-7.17 -13.384,-21.008 3.584,-9.959 -35.649,-9.877 -48.436,-9.15 -5.462,0.311 -4.698,-5.27 -0.258,-5.809 62.469,-7.591 19.71,-2.836 67.838,-14.976 7.106,-1.792 19.797,-6.285 12.492,-10.03 -6.344,-3.252 -10.571,-6.756 -1.906,-50.146 0.323,-1.62 1.061,-10.511 3.194,-10.584 8.379,-0.287 5.218,-56.948 13.207,-28.573 2.406,8.544 4.01,-10.114 7.783,-10.4 4.249,-0.322 2.638,16.324 6.181,9.227 5.007,-10.021 8.193,-11.993 9.12,-0.292 0.692,8.745 5.857,-6.344 9.745,-5.177 4.548,1.366 -1.345,9.182 7.508,9.349 5.185,0.098 1.057,5.162 7.841,10.056 1.845,1.331 2.835,3.054 3.931,4.962 2.223,3.868 6.233,6.123 9.348,9.207 13.565,13.432 26.501,54.036 18.527,74.063 z"
           id="path1610"
           style="fill:#d0ffff;fill-opacity:1" /><path
           d="m 222.26,1301.1 c 6.453,-1.636 99.069,-52.438 122.02,-36.904 11.164,7.557 21.372,7.468 23.669,8.546 22.846,10.722 50.752,-7.257 60.371,0.257 8.287,6.474 19.032,7.309 27.723,10.189 3.623,1.201 3.165,4.664 -0.879,4.146 -31.47,-4.032 -16.355,1.521 -39.927,-0.793 -34.01,-3.338 -18.868,-0.362 -37.536,0.911 -8.063,0.55 4.41,16.934 6.039,18.69 5.248,5.658 8.493,17.255 19.023,25.81 8.791,7.143 -12.29,-0.325 -3.835,9.007 5.346,5.9 1.254,7.736 -4.326,4.756 -3.669,-1.959 -10.566,-12.571 -2.834,6.598 3.251,8.057 -7.703,5.398 -12.279,-5.83 -3.496,-8.58 0.038,10.575 0.007,11.801 -0.194,7.68 -9.922,1.911 -11.602,-11.873 -0.957,-7.849 -3.78,-10.798 -4.337,8.088 -0.317,10.749 -10.72,-0.198 -9.934,-7.085 0.163,-1.431 -0.297,-2.761 -1.671,-3.329 -9.743,-4.027 -17.626,-17.951 -20.829,-8.066 -0.59,1.823 -0.775,3.543 0.189,5.297 3.422,6.229 2.996,13.2 3.726,19.93 4.333,39.987 -8.262,41.398 -10.797,50.233 -1.529,5.328 -5.961,-5.18 -8.429,3.198 -0.639,2.168 -1.554,4.243 -3.735,4.001 -5.407,-0.6 -2.227,-13.651 -7.365,-1.417 -2.283,5.434 -8.41,0.701 -7.61,-8.484 0.52,-5.977 2.009,-7.642 1.138,-11.064 -2.211,2.22 -7.328,20.678 -11.988,12.022 -4.724,-8.776 4.644,-14.135 -2.8,-17.672 -0.375,-0.178 -0.812,-0.833 -0.762,-1.203 0.544,-3.983 -2.441,-6.667 -3.503,-9.981 -2.706,-8.448 -6.621,-16.597 -7.293,-25.636 0,0 -21.789,-23.546 -29.317,-46.254 -1.922,-5.798 -3.692,-2.477 -38.486,3.263 -12.297,2.029 -29.297,3.317 -19.859,-4.808 14.308,-12.316 16.584,-0.908 38.028,-6.344 z m 77.898,92.395 c 0.458,-1 0.971,-2.16 0.02,-2.897 -0.58,1.003 -1.101,2.055 -0.02,2.897 z"
           id="path1612"
           style="fill:#d0ffff;fill-opacity:1" /><path
           d="m 1081.6,517.04 c -2.794,2.809 -4.158,15.045 -8.476,14.625 -3.847,-0.374 -4.712,-7.532 -4,-10.564 0.831,-3.54 1.789,-7.291 -2.585,-9.553 -0.461,-0.238 -0.898,-1.159 -0.824,-1.691 0.455,-3.271 -1.864,-5.406 -2.914,-8.075 -3.294,-8.372 -7.759,-16.433 -8.219,-25.723 -0.053,-1.067 -0.348,-2.045 -1.327,-2.516 -5.827,-2.804 -8.09,-8.865 -12.229,-13.188 -40.734,-42.54 10.561,-36.072 -65.257,-23.873 -24.213,3.896 -11.86,-13.104 9.653,-11.629 9.569,0.656 18.666,-0.091 26.403,-7.236 4.386,-4.049 10.874,-4.733 16.278,-7.273 114.37,-53.732 80.222,-22.219 117.08,-21.186 0.799,0.022 1.633,0.34 2.374,0.686 16.31,7.622 41.053,-2.56 51.654,-3.079 10.954,-0.537 -0.176,-0.303 27.942,8.42 23.255,7.215 3.112,6.55 -1.374,4.874 -7.146,-2.67 -16.585,3.79 -31.912,1.575 -19.76,-2.857 -31.137,1.805 -36.959,2.638 -11.198,1.602 29.142,44.848 28.334,46.737 -0.693,1.622 -2.641,0.717 -4.04,0.882 -8.999,1.066 9.316,11.209 -0.033,11.043 -3.728,-0.066 -6.669,-1.742 -9.036,-4.519 -8.599,-10.089 10.062,19.715 -2.649,14.092 -5.482,-2.425 -5.927,-6.874 -8.595,-8.767 -0.38,-5.757 -2.708,-2.365 -0.574,0.483 1.233,10.997 3.025,17.665 -3.451,13.086 -8.815,-6.232 -8.413,-27.823 -10.753,-18.373 -1.699,6.859 1.061,15.511 -2.105,16.795 -3.071,1.245 -8.172,-4.118 -8.331,-10.326 -0.041,-1.592 -0.276,-3.249 -1.823,-3.812 -8.604,-3.133 -15.829,-13.847 -19.64,-10.595 -2.232,1.905 -2.619,5.312 -1.315,7.894 5.839,11.561 6.364,43.179 3.417,56.511 -1.868,8.449 -3.848,3.717 -7.031,12.669 -2.884,8.109 -6.541,-2.438 -8.747,3.901 -1.066,3.063 -1.383,5.674 -4.008,5.579 -5.253,-0.191 -3.61,-12.573 -6.954,-2.731 -3.568,10.505 -10.959,-2.125 -8.259,-10.177 0.807,-2.405 1.703,-5.103 0.199,-7.701 0.52,0.016 1.075,0.056 0.497,-0.704 -0.136,0.269 -0.272,0.535 -0.409,0.801 z m 2.091,-4.022 c -0.647,-5.542 -2.069,0.67 -0.486,1.151 0.045,0.013 0.341,-0.802 0.486,-1.151 z"
           id="path1614"
           style="fill:#d0ffff;fill-opacity:1" /><path
           d="m 1532.2,610 c 7.823,1.805 3.455,5.799 12.726,9.624 13.011,5.367 8.703,17.144 1.068,10.92 -8.607,-7.017 -20.454,-2.47 -29.049,-10.18 -5.642,-5.061 -65.263,-18.392 -67.297,-17.158 -12.427,7.538 -119.61,5.2 -120.61,5.195 -7.751,-0.039 -16.796,-9.894 -12.254,-17.959 4.343,-7.71 -32.963,-10.01 -41.236,-9.509 -8.422,0.51 -11.486,2.692 -11.894,-1.564 -0.215,-2.239 -1.306,-4.136 26.82,-4.226 18.317,-0.058 10.553,-3.861 47.427,-10.173 8.773,-1.502 21.044,-5.152 13.366,-8.09 -11.142,-4.264 -7.917,-12.287 -0.41,-46.973 2.007,-9.271 5.203,-1.626 6.815,-7.406 2.46,-8.816 4.001,-38.79 9.203,-25.294 3.827,9.928 3.278,5.373 6.425,-2 1.059,-2.48 3.88,-3.903 5.865,0.482 0.848,1.873 -0.301,5.274 1.962,5.609 2.799,0.414 4.018,-9.673 8.191,-7.836 4.588,2.02 1.551,7.957 3.601,8.966 2.41,1.186 5.423,-7.811 9.754,-6.095 4.102,1.625 -0.864,8.014 5.575,7.717 3.517,-0.163 5.663,1.437 6.28,4.999 0.233,1.345 15.887,15.011 18.278,16.578 14.012,9.182 8.344,13.914 12.538,20.254 23.473,35.478 -12.016,49.063 14.343,58.753 17.583,6.464 20.467,4.963 22.119,11.02 2.374,8.706 -14.733,3.13 9.6,9.586 26.742,7.093 28.351,1.889 40.793,4.76 z"
           id="path1616"
           style="fill:#d0ffff;fill-opacity:1" /><path
           d="m 787.83,225.44 c -0.178,-5.932 31.692,-1.421 47.674,-8.779 11.238,-5.174 31.252,-5.851 39.757,-10.445 4.551,-2.459 0.887,-4.932 -0.114,-5.213 -8.379,-2.353 -8.756,-7.851 -1.18,-44.473 0.207,-1 1.867,-7.227 3.108,-7.075 9.323,1.139 3.837,-29.306 10.408,-29.384 3.632,-0.043 3.662,11.865 6.285,6.058 9.427,-20.871 7.296,-1.043 10.384,-0.575 2.164,0.328 4.098,-8.984 7.808,-7.931 5.61,1.593 1.153,13.783 6.963,6.96 10.436,-12.256 7.312,3.985 12.705,2.878 6.114,-1.255 1.826,3.797 17.371,16.367 5.784,4.677 12.939,7.736 16.678,14.838 1.295,2.461 0.677,5.148 2.028,7.589 5.171,9.345 14.636,25.574 7.305,44.623 -1.176,3.056 -0.093,6.094 -1.202,9.079 -1.507,4.055 24.783,12.727 29.064,13.3 3.827,0.512 5.613,6.547 2.982,9.55 -1.284,1.465 -2.302,2.192 0.465,2.758 9.248,1.892 18.42,4.335 27.753,5.573 14.826,1.966 24.355,-4.015 29.772,5.241 0.983,1.68 2.339,2.889 4.078,3.496 4.374,1.527 7.368,4.819 10.476,7.949 3.806,3.832 -2.663,7.071 -5.883,4.564 -8.919,-6.946 -22.951,-2.284 -30.803,-10.771 -2.275,-2.459 -64.811,-17.983 -68.234,-15.028 -6.442,5.561 -120.88,7.982 -116.29,6.895 -8.505,2.013 -19.233,-8.804 -15.908,-16.479 1.569,-3.623 3.847,-6.876 -17.605,-8.865 -32.432,-3.009 -35.69,2.469 -35.845,-2.7 z"
           id="path1618"
           style="fill:#d0ffff;fill-opacity:1" /><path
           d="m 654.52,307.21 c 14.268,3.902 0.629,11.224 5.685,12.947 33.913,11.562 51.333,-0.272 58.071,10.762 1.453,2.38 23.096,13.524 13.271,16.78 -1.828,0.606 -3.714,0.417 -5.19,-0.901 -8.014,-7.152 -21.406,-2.087 -29.174,-9.735 -3.137,-3.089 -43.905,-12.693 -49.142,-13.489 -44.221,-6.72 -165.29,23.806 -151.36,-13.309 2.19,-5.837 -9.136,-5.183 -14.59,-6.531 -11.787,-2.913 -13.527,-3.552 -34.986,-1.297 -6.539,0.687 -6.371,-4.994 -0.663,-5.301 29.821,-1.604 36.086,-2.67 43.231,-5.809 13.075,-5.746 29.121,-5.385 39.338,-10.091 10.728,-4.942 -7.249,-2.462 -5.661,-18.1 0.103,-1.012 4.015,-39.715 10.036,-39.066 5.358,0.577 3.482,-31.177 8.576,-30.556 3.839,0.468 1.186,8.046 4.914,8.214 3.08,0.139 2.576,-10.68 7.104,-10.038 4.307,0.611 1.777,8.71 4.482,9.078 2.047,0.279 3.919,-9.372 7.928,-8.416 4.187,0.999 2.142,8.017 4.215,8.69 2.964,0.962 4.82,-7.432 9.176,-6.103 5.03,1.535 0.113,8.1 5.827,7.393 7.331,-0.907 4.011,6.088 10.51,9.03 1.164,0.527 2.605,1.049 3.132,2.361 2.021,5.035 7.239,6.316 10.91,9.395 16.956,14.224 7.348,10.976 13.796,21.156 27.023,42.664 -23.43,48.169 30.564,62.936 z"
           id="path1620"
           style="fill:#d0ffff;fill-opacity:1" /><path
           d="m 1836.4,876.05 c 12.844,-0.792 10.51,6.708 17,9.138 4.053,1.517 15.794,9.921 8.943,12.744 -1.649,0.68 -3.47,0.674 -4.755,-0.469 -8.105,-7.205 -20.504,-2.604 -29.246,-9.547 -6.526,-5.184 -64.932,-19.813 -74.484,-14.375 -72.765,2.418 -123.74,14.917 -127.89,-7.005 -1.093,-5.77 5.321,-8.666 -1.915,-10.34 -22.981,-5.316 -33.454,-5.122 -45.795,-3.302 -6.914,1.02 -8.597,-5.394 2.308,-5.63 30.36,-0.656 35.598,-3.411 42.022,-6.315 8.773,-3.966 29.694,-5.396 38.261,-9.767 4.211,-2.149 -0.754,-5.688 -1.754,-5.954 -5.342,-1.422 -9.097,-3.418 0.662,-45.931 1.985,-8.646 5.025,-0.353 6.621,-7.575 4.057,-18.372 0.911,-17.072 4.021,-24.93 3.485,-8.809 4.984,5.802 6.921,5.774 2.618,-0.038 4.799,-17.15 9.656,-7.761 1.484,2.869 -0.607,5.549 2.286,5.828 2.674,0.257 3.494,-8.927 7.927,-7.632 3.253,0.95 3.216,6.093 3.326,7.194 0.515,5.14 4.205,-2 6.809,-3.967 7.597,-5.74 2.382,8.031 10.319,6.527 5.84,-1.106 2.589,6.543 9.38,8.973 0.46,0.165 1.052,0.389 1.261,0.765 4.012,7.23 12.153,9.709 17.611,15.315 8.284,8.509 3.715,8.709 7.662,14.993 14.405,22.932 7.898,37.589 5.49,52.245 -1.035,6.302 31.023,11.789 32.599,17.096 2.824,9.511 -11.107,6.505 8.339,10.33 15.314,3.012 13.826,4.971 36.417,3.578 z"
           id="path1622"
           style="fill:#d0ffff;fill-opacity:1" /><path
           d="m 1067.5,1373.1 c 9.497,0.23 7.88,7.847 14.773,9.794 2.312,0.653 14.48,8.797 8.035,11.883 -1.55,0.742 -3.498,0.788 -4.8,-0.285 -5.665,-4.671 -12.699,-4.407 -19.312,-5.504 -11.05,-1.833 -8.185,-5.076 -17.097,-7.488 -94.336,-25.522 -47.862,-4.403 -121.02,-7.815 -17.276,-0.806 -69.185,11.403 -74.127,-8.946 -1.638,-6.745 5.415,-10.202 -1.845,-11.582 -41.558,-7.892 -42.626,-2.896 -46.351,-3.332 -1.807,-0.212 -4.51,1.138 -4.942,-1.782 -0.775,-5.244 20.992,-3.866 36.15,-5.887 7.184,-0.958 13.452,-4.656 20.309,-6.615 8.367,-2.391 39.675,-4.838 31.802,-11.72 -3.81,-3.33 -8.539,-1.084 -7.516,-12.136 0.571,-6.17 5.272,-38.941 7.662,-39.265 9.418,-1.279 5.568,-20.328 8.764,-28.347 1.863,-4.675 3.485,-3.078 4.522,-0.034 5.06,14.863 4.176,-5.775 9.847,-4.763 4.05,0.722 2.41,8.324 4.108,8.703 2.99,0.667 3.489,-8.81 8.401,-7.798 4.802,0.989 1.806,7.802 4.32,8.621 2.059,0.67 1.625,-1.94 5.523,-5.255 2.78,-2.364 5.346,-1.704 5.632,1.846 0.295,3.66 1.283,4.936 5.119,4.36 4.847,-0.728 2.47,4.532 9.414,9.124 0.416,0.275 0.998,0.445 1.232,0.829 4.262,7.002 12.202,9.724 17.722,15.264 9.242,9.274 2.825,8.288 8.458,16.77 7.363,11.088 11.121,27.282 4.419,50.393 -1.251,4.315 22.797,11.593 26.706,12.75 12.917,3.82 0.589,11.631 4.415,12.539 36.99,8.792 24.433,5.066 49.675,5.678 z"
           id="path1624"
           style="fill:#d0ffff;fill-opacity:1" /><path
           d="m 1232.3,871.79 c -0.171,-4.289 2.265,-1.677 36.936,-5.671 7.116,-0.82 13.422,-4.62 20.294,-6.554 6.896,-1.941 38.627,-4.648 30.257,-11.739 -2.153,-1.823 -8.526,-0.149 -7.089,-14.465 0.325,-3.232 4.147,-38.04 9.95,-37.351 4.858,0.577 4.853,-41.897 10.462,-28.752 0.427,1 2.451,10.443 4.69,4.726 7.776,-19.854 8.129,0.033 9.997,0.186 2.487,0.204 3.523,-8.765 7.891,-7.844 2.721,0.573 3.117,3.546 3.202,6.145 0.276,8.405 6.563,-5.69 10.438,-3.866 4.74,2.23 -0.766,7.931 6.427,7.505 6.297,-0.373 4.206,5.959 7.799,7.788 2.865,1.459 4.651,3.914 6.735,6.295 3.124,3.57 20.847,13.205 20.231,20.242 -0.692,7.903 19.274,22.545 7.139,57.712 -0.603,1.747 1.223,2.392 2.456,3.258 16.613,11.657 31.491,6.039 30.445,17.182 -0.425,4.529 -5.287,4.278 0.774,5.593 67.084,14.555 30.636,-9.904 71.292,22.675 2.68,2.148 -2.32,6.794 -5.053,4.557 -9.209,-7.537 -23.473,-3.637 -29.719,-9.697 -4.784,-4.641 -43.279,-13.163 -49.865,-14.236 -44.067,-7.181 -164.67,24.741 -151.84,-13.843 1.296,-3.898 -2.426,-4.109 -4.365,-4.427 -5.591,-0.917 -15.618,-3.255 -23.478,-4.218 -11.175,-1.369 -25.81,3.757 -26.008,-1.201 z"
           id="path1626"
           style="fill:#d0ffff;fill-opacity:1" /></g></g><g
       id="g654"
       transform="translate(-1156.7201,-23.003776)"><path
         id="rect772"
         style="opacity:0.60076;fill:#28b2d7;fill-opacity:0.898039;stroke-width:0.991672"
         d="M 1159.6866,93.572732 H 946.9141 A 139.18197,139.18197 0 0 0 807.73213,232.7547 129.20245,129.20245 0 0 0 946.9141,351.13936 h 212.7725 z" /><path
         id="rect774"
         style="opacity:0.60076;fill:#f9b800;fill-opacity:0.94902;stroke-width:1.11261"
         d="M 809.3318,110.0785 A 113.58529,113.58529 0 0 0 695.74581,223.66234 113.07917,113.07917 0 0 0 809.3318,336.2347 H 876.289 A 129.20245,129.20245 0 0 1 807.73282,232.75481 139.18197,139.18197 0 0 1 881.54649,110.0785 Z" /><path
         id="rect830"
         style="opacity:0.60076;fill:#fad604;stroke-width:0.978579"
         d="m 698.69414,125.29575 a 88.725416,88.725416 0 0 0 -88.72534,88.72534 v 21.46039 a 88.725416,88.725416 0 0 0 88.72534,88.72533 h 59.8769 a 113.07917,113.07917 0 0 1 -62.82523,-100.54447 113.58529,113.58529 0 0 1 57.32886,-98.36659 z" /></g></g></svg>
